<svg width="39" height="39" viewBox="0 0 39 39" fill="none" xmlns="http://www.w3.org/2000/svg">
<circle cx="19.5" cy="19.5" r="19.5" fill="#CB2023"/>
<path d="M33.7597 39H11.2957V34.056L22.7677 22.248C25.3277 19.528 26.6077 17.288 26.6077 15.528C26.6077 14.216 26.1917 13.16 25.3597 12.36C24.5597 11.56 23.5197 11.16 22.2397 11.16C19.6797 11.16 17.8077 12.472 16.6237 15.096L11.0557 11.832C12.0797 9.56003 13.5677 7.81603 15.5197 6.60003C17.5037 5.35203 19.7117 4.72803 22.1437 4.72803C25.1837 4.72803 27.7917 5.68803 29.9677 7.60803C32.1437 9.49603 33.2317 12.056 33.2317 15.288C33.2317 18.776 31.3917 22.36 27.7117 26.04L21.1357 32.616H33.7597V39Z" fill="white"/>
</svg>
