<svg width="39" height="40" viewBox="0 0 39 40" fill="none" xmlns="http://www.w3.org/2000/svg">
<circle cx="19.5" cy="19.5" r="19.5" fill="#CB2023"/>
<path d="M33.232 10.8719L26.944 19.0319C29.28 19.7039 31.136 20.8879 32.512 22.5839C33.92 24.2799 34.624 26.2959 34.624 28.6319C34.624 32.0879 33.456 34.7919 31.12 36.7439C28.848 38.6959 26.016 39.6719 22.624 39.6719C19.968 39.6719 17.616 39.0639 15.568 37.8479C13.52 36.5999 12.032 34.8399 11.104 32.5679L16.768 29.3039C17.568 31.8959 19.52 33.1919 22.624 33.1919C24.32 33.1919 25.632 32.7919 26.56 31.9919C27.52 31.1599 28 30.0399 28 28.6319C28 27.2559 27.52 26.1519 26.56 25.3199C25.632 24.4879 24.32 24.0719 22.624 24.0719H21.184L18.64 20.2319L25.264 11.5919H12.112V5.3999H33.232V10.8719Z" fill="white"/>
</svg>
