<?xml version="1.0" encoding="utf-8"?>
<!-- Generator: Adobe Illustrator 22.0.1, SVG Export Plug-In . SVG Version: 6.00 Build 0)  -->
<svg version="1.1" id="ad" xmlns="http://www.w3.org/2000/svg" xmlns:xlink="http://www.w3.org/1999/xlink" x="0px" y="0px"
	 viewBox="0 0 57.3 57.3" style="enable-background:new 0 0 57.3 57.3;" xml:space="preserve">
<style type="text/css">
	.st0{fill:#CB2023;}
</style>
<g id="Group_227">
	<g id="Group_226">
		<path id="Path_649" class="st0" d="M28.6,32.5v-5.2c0-0.7-0.6-1.3-1.3-1.3l0,0H26v7.8h1.3C28,33.8,28.6,33.3,28.6,32.5
			C28.6,32.5,28.6,32.5,28.6,32.5z"/>
		<path id="Path_650" class="st0" d="M18.2,27.3c0-0.7-0.6-1.3-1.3-1.3s-1.3,0.6-1.3,1.3l0,0v3.9h2.6V27.3z"/>
		<path id="Path_651" class="st0" d="M9.1,41.6h26c0.7,0,1.3-0.6,1.3-1.3l0,0V19.5c0-0.7-0.6-1.3-1.3-1.3h0h-26
			c-0.7,0-1.3,0.6-1.3,1.3l0,0v20.8C7.8,41.1,8.4,41.6,9.1,41.6C9.1,41.6,9.1,41.6,9.1,41.6z M23.4,24.7c0-0.7,0.6-1.3,1.3-1.3h0
			h2.6c2.2,0,3.9,1.7,3.9,3.9v5.2c0,2.2-1.7,3.9-3.9,3.9h-2.6c-0.7,0-1.3-0.6-1.3-1.3l0,0V24.7z M13,27.3c0-2.2,1.7-3.9,3.9-3.9
			c2.2,0,3.9,1.7,3.9,3.9l0,0v7.8c0,0.7-0.6,1.3-1.3,1.3c-0.7,0-1.3-0.6-1.3-1.3v-1.3h-2.6v1.3c0,0.7-0.6,1.3-1.3,1.3
			c-0.7,0-1.3-0.6-1.3-1.3L13,27.3L13,27.3z"/>
		<path id="Path_652" class="st0" d="M9.1,49.5h39c0.7,0,1.3-0.6,1.3-1.3c0-0.7-0.6-1.3-1.3-1.3h-39c-0.7,0-1.3,0.6-1.3,1.3
			C7.8,48.9,8.4,49.5,9.1,49.5z"/>
		<path id="Path_653" class="st0" d="M40.3,26h7.8c0.7,0,1.3-0.6,1.3-1.3s-0.6-1.3-1.3-1.3h-7.8c-0.7,0-1.3,0.6-1.3,1.3
			S39.6,26,40.3,26z"/>
		<path id="Path_654" class="st0" d="M40.3,33.8h7.8c0.7,0,1.3-0.6,1.3-1.3c0-0.7-0.6-1.3-1.3-1.3h-7.8c-0.7,0-1.3,0.6-1.3,1.3
			C39,33.3,39.6,33.8,40.3,33.8z"/>
		<path id="Path_655" class="st0" d="M40.3,41.6h7.8c0.7,0,1.3-0.6,1.3-1.3c0-0.7-0.6-1.3-1.3-1.3h-7.8c-0.7,0-1.3,0.6-1.3,1.3
			C39,41.1,39.6,41.6,40.3,41.6z"/>
		<path id="Path_656" class="st0" d="M52.1,0H5.2C2.3,0,0,2.3,0,5.2v46.9c0,2.9,2.3,5.2,5.2,5.2h46.9c2.9,0,5.2-2.3,5.2-5.2V5.2
			C57.3,2.3,54.9,0,52.1,0z M16.9,5.2c0.7,0,1.3,0.6,1.3,1.3s-0.6,1.3-1.3,1.3s-1.3-0.6-1.3-1.3S16.2,5.2,16.9,5.2L16.9,5.2z
			 M11.7,5.2c0.7,0,1.3,0.6,1.3,1.3s-0.6,1.3-1.3,1.3s-1.3-0.6-1.3-1.3S11,5.2,11.7,5.2z M6.5,5.2c0.7,0,1.3,0.6,1.3,1.3
			S7.2,7.8,6.5,7.8S5.2,7.2,5.2,6.5l0,0C5.2,5.8,5.8,5.2,6.5,5.2z M52.1,52.1H5.2V13h46.9V52.1z"/>
	</g>
</g>
</svg>
