<svg width="135" height="66" viewBox="0 0 135 66" fill="none" xmlns="http://www.w3.org/2000/svg">
<g clip-path="url(#clip0)">
<path d="M61.4602 32.84L47.2592 29.7746C46.6184 29.6279 46.0438 29.2765 45.6238 28.7743C45.2037 28.2722 44.9615 27.6471 44.9342 26.995C44.9342 26.9564 44.9342 11.8574 44.9342 11.8188C44.9594 11.1647 45.2007 10.537 45.6208 10.0324C46.0409 9.52776 46.6166 9.17423 47.2592 9.02626L61.4602 5.96309L62.9755 -0.0107419H46.4344C43.6482 -0.0113359 40.9752 1.08347 39.0005 3.03403C37.0259 4.98459 35.9105 7.632 35.8984 10.3967V28.3934C35.9105 31.1584 37.0258 33.806 39.0004 35.7569C40.975 37.7078 43.648 38.8031 46.4344 38.8031H62.982L61.4602 32.84Z" fill="#373C41"/>
<path d="M73.5445 32.84L87.7433 29.7747C88.3841 29.6279 88.9587 29.2765 89.3787 28.7743C89.7988 28.2722 90.041 27.6471 90.0683 26.995C90.0683 26.9564 90.0683 11.8574 90.0683 11.8188C90.0431 11.1647 89.8018 10.537 89.3817 10.0324C88.9616 9.52776 88.3859 9.17423 87.7433 9.02627L73.5445 5.97383L72.0205 2.39638e-07H88.5681C91.3541 -0.00059138 94.0269 1.09428 96.0012 3.0449C97.9755 4.99552 99.0905 7.64294 99.1019 10.4075V28.4042C99.0905 31.1689 97.9756 33.8166 96.0014 35.7675C94.0271 37.7185 91.3543 38.8138 88.5681 38.8138H72.0205L73.5445 32.84Z" fill="#373C41"/>
<path d="M73.5459 18.6583H61.46V20.1534H73.5459V18.6583Z" fill="#373C41"/>
<path d="M107.503 66H105.706C104.623 65.9983 103.584 65.5705 102.818 64.8103C102.052 64.0501 101.621 63.0195 101.619 61.9445V56.7096C101.62 55.6345 102.051 54.6038 102.818 53.8438C103.584 53.0839 104.623 52.6567 105.706 52.6561H107.503C108.587 52.6567 109.626 53.0838 110.392 53.8437C111.159 54.6036 111.591 55.6343 111.592 56.7096V61.953C111.591 63.0285 111.159 64.0594 110.393 64.8197C109.626 65.5799 108.587 66.0075 107.503 66.0086V66ZM105.706 54.9804C105.246 54.9809 104.805 55.1618 104.478 55.4837C104.152 55.8055 103.967 56.2423 103.964 56.6988V61.9423C103.964 62.1689 104.009 62.3932 104.096 62.6024C104.184 62.8116 104.313 63.0015 104.475 63.1613C104.637 63.321 104.829 63.4473 105.04 63.5331C105.252 63.6188 105.478 63.6622 105.706 63.6608H107.503C107.964 63.6613 108.406 63.4809 108.733 63.1589C109.06 62.8368 109.245 62.3994 109.248 61.9423V56.7096C109.244 56.2526 109.059 55.8155 108.732 55.4936C108.405 55.1717 107.964 54.9911 107.503 54.9911L105.706 54.9804Z" fill="#373C41"/>
<path d="M19.9038 48.231H17.5615V65.6971H19.9038V48.231Z" fill="#373C41"/>
<path d="M24.9929 52.9482H22.6484V65.6971H24.9929V52.9482Z" fill="#373C41"/>
<path d="M23.8121 48.231C23.5007 48.231 23.1964 48.3226 22.9375 48.4943C22.6786 48.666 22.4769 48.91 22.3579 49.1955C22.2388 49.481 22.2078 49.7951 22.2687 50.0981C22.3296 50.4011 22.4797 50.6793 22.7 50.8976C22.9203 51.116 23.2009 51.2645 23.5064 51.3245C23.8118 51.3845 24.1283 51.3533 24.4158 51.2348C24.7034 51.1163 24.949 50.9158 25.1217 50.6587C25.2944 50.4016 25.3863 50.0994 25.3859 49.7905C25.3859 49.5855 25.3451 49.3825 25.266 49.1932C25.1869 49.0038 25.071 48.8318 24.9248 48.687C24.7786 48.5421 24.6051 48.4273 24.4142 48.3491C24.2232 48.2708 24.0186 48.2307 23.8121 48.231Z" fill="#373C41"/>
<path d="M9.15702 48.231H6.30167C5.21928 50.1256 2.64536 55.3196 0 65.6971H2.43971C2.85318 64.1139 3.25799 62.6618 3.66064 61.3278H12.2159C12.6156 62.6597 13.0219 64.1161 13.4346 65.6971H15.8743C13.229 55.3261 10.6529 50.1256 9.57266 48.231H9.15702ZM4.3945 58.9714C5.72151 54.9051 6.91214 52.2071 7.71095 50.5939H8.16338C8.96435 52.1942 10.1485 54.89 11.4798 58.9714H4.3945Z" fill="#373C41"/>
<path d="M99.4505 48.2139H97.1104V65.6972H99.4505V48.2139Z" fill="#373C41"/>
<path d="M30.0786 48.231H27.7363V65.6971H30.0786V48.231Z" fill="#373C41"/>
<path d="M33.104 66C31.6348 65.9728 30.1729 65.7869 28.7441 65.4458L29.2918 63.1838C32.9438 64.0603 34.628 63.5791 35.0956 63.2161C35.5632 62.853 35.5978 62.2322 35.5978 61.5212V57.5687H37.9423V61.5169C37.9423 62.3053 37.9423 63.9421 36.546 65.0355C35.7277 65.6799 34.5977 65.9978 33.104 65.9978" fill="#373C41"/>
<path d="M37.9431 60.8725H35.5986V56.9243C35.5986 56.2541 35.5683 55.7128 35.1657 55.397C34.802 55.1113 33.5378 54.5507 29.6563 55.4808L29.1064 53.221C32.7454 52.3489 35.2003 52.4627 36.6161 53.5712C37.9517 54.6151 37.9474 56.1789 37.9474 56.9286L37.9431 60.8725Z" fill="#373C41"/>
<path d="M94.3032 62.9024C92.6579 63.5468 89.4692 64.0259 86.7654 63.3643C85.2717 62.9969 85.1613 61.8434 85.157 61.6329V52.5809C85.157 52.366 85.2717 51.2168 86.7654 50.8495C89.5082 50.1793 92.7402 50.6819 94.3659 51.3393L94.9418 49.0709C93.2339 48.4867 91.438 48.1962 89.6316 48.2116C88.4773 48.2018 87.3261 48.3294 86.2026 48.5919C83.5117 49.2492 82.8103 51.4918 82.8125 52.5852V61.6243C82.8125 62.7177 83.5117 64.9581 86.2026 65.6176C87.3234 65.879 88.4715 66.0074 89.6229 66C91.4072 66.0149 93.1815 65.7339 94.8725 65.1687L94.3032 62.9024Z" fill="#373C41"/>
<path d="M123.321 52.9482H120.977V65.6971H123.321V52.9482Z" fill="#373C41"/>
<path d="M118.374 66C116.887 66 115.751 65.68 114.932 65.0377C113.53 63.9443 113.536 62.3053 113.536 61.5191V52.9268H115.881V61.5191C115.881 62.2301 115.913 62.8466 116.383 63.214C116.853 63.5813 118.175 64.0582 121.825 63.1817L122.375 65.4415C121.068 65.7804 119.725 65.9672 118.374 65.9979" fill="#373C41"/>
<path d="M134.999 48.231H132.659V65.6971H134.999V48.231Z" fill="#373C41"/>
<path d="M130.104 66C128.619 66 127.48 65.6799 126.662 65.0398C125.261 63.9443 125.266 62.3053 125.268 61.5191V57.5687H127.61V61.5212C127.61 62.2322 127.645 62.8487 128.114 63.2161C128.584 63.5834 129.907 64.0603 133.557 63.1838L134.107 65.4458C132.799 65.7843 131.455 65.9703 130.104 66Z" fill="#373C41"/>
<path d="M127.61 60.8746H125.268V56.9243C125.268 56.1746 125.268 54.613 126.595 53.5668C128.01 52.4584 130.47 52.3467 134.106 53.2167L133.567 55.4786C129.686 54.5507 128.422 55.1113 128.058 55.3949C127.651 55.7149 127.625 56.2541 127.625 56.9221L127.61 60.8746Z" fill="#373C41"/>
<path d="M48.3352 53.4875C46.0189 51.8442 41.6894 53.0579 40.6416 53.4016L41.2153 55.6613C42.5769 55.1974 45.7721 54.525 46.9714 55.38C47.1879 55.5325 47.439 55.8096 47.439 56.5098V65.7058H49.79V56.4948C49.79 54.8451 48.9998 53.9429 48.3417 53.4724" fill="#373C41"/>
<path d="M44.0793 66C41.6981 66 40.1005 64.8916 39.687 62.9626C39.4424 61.8155 39.6199 60.7673 40.1957 59.9295C40.8451 58.9908 41.9275 58.3893 43.4429 58.1401C45.2409 57.8351 47.0859 57.9506 48.831 58.4774L48.0582 60.6684C46.6834 60.2782 45.2379 60.1989 43.8282 60.4365C43.2437 60.531 42.4774 60.7479 42.1397 61.242C41.8777 61.6179 41.9232 62.1248 41.9903 62.4814C42.0574 62.838 42.2436 63.6715 44.088 63.6715C45.3587 63.6715 47.3525 63.433 47.9997 63.2161L48.7531 65.4136C47.7833 65.7422 45.5059 66 44.088 66" fill="#373C41"/>
<path d="M73.1241 53.4875C70.8099 51.8442 66.4782 53.0579 65.4326 53.4016L66.0063 55.6613C67.3679 55.1974 70.5523 54.525 71.7603 55.38C71.9767 55.5325 72.2279 55.8096 72.2279 56.5098V65.7058H74.5723V56.4948C74.5723 54.8451 73.7843 53.9429 73.1241 53.4724" fill="#373C41"/>
<path d="M68.8686 66.0001C66.4874 66.0001 64.8898 64.8917 64.4784 62.9627C64.2338 61.8156 64.4092 60.7673 64.985 59.9296C65.6344 58.9908 66.7168 58.3894 68.2322 58.1402C70.0295 57.8354 71.8737 57.9509 73.6181 58.4775L72.8431 60.6685C71.4683 60.2786 70.0229 60.1993 68.6132 60.4365C68.0287 60.531 67.2623 60.748 66.9246 61.2421C66.6627 61.618 66.6973 62.1249 66.7731 62.4815C66.8489 62.8381 67.0286 63.6715 68.8729 63.6715C70.1458 63.6715 72.1396 63.4331 72.7825 63.2161L73.538 65.4136C72.5704 65.7423 70.2909 66.0001 68.8729 66.0001" fill="#373C41"/>
<path d="M54.8726 48.231H52.5303V65.6971H54.8726V48.231Z" fill="#373C41"/>
<path d="M57.8941 66C56.4248 65.9726 54.9629 65.7868 53.5342 65.4458L54.084 63.1838C57.7339 64.0603 59.4202 63.5791 59.8857 63.2161C60.3511 62.853 60.39 62.2322 60.39 61.5212V57.5687H62.7302V61.5169C62.7302 62.3053 62.7302 63.9421 61.3361 65.0355C60.5178 65.6799 59.3878 65.9978 57.8941 65.9978" fill="#373C41"/>
<path d="M62.7313 60.8726H60.3977V56.9244C60.3977 56.2542 60.3674 55.7129 59.9647 55.3971C59.5989 55.1114 58.3346 54.5508 54.4553 55.4809L53.9033 53.2189C57.5401 52.3468 59.9972 52.4607 61.4129 53.5691C62.7464 54.613 62.7421 56.1769 62.74 56.9265L62.7313 60.8726Z" fill="#373C41"/>
</g>
<defs>
<clipPath id="clip0">
<rect width="135" height="66" fill="white"/>
</clipPath>
</defs>
</svg>
