<?xml version="1.0" encoding="UTF-8"?>
<svg width="139px" height="25px" viewBox="0 0 139 25" version="1.1" xmlns="http://www.w3.org/2000/svg" xmlns:xlink="http://www.w3.org/1999/xlink">
    <!-- Generator: Sketch 50.2 (55047) - http://www.bohemiancoding.com/sketch -->
    <title>logo-d33eec51e2853bdd10e93e0554961953</title>
    <desc>Created with Sketch.</desc>
    <defs></defs>
    <g id="Design" stroke="none" stroke-width="1" fill="none" fill-rule="evenodd">
        <g id="Home-8" transform="translate(-712.000000, -6077.000000)" fill-rule="nonzero">
            <g id="logo-d33eec51e2853bdd10e93e0554961953" transform="translate(712.000000, 6077.000000)">
                <g id="Group" transform="translate(35.000000, 5.000000)" fill="#FFFFFF">
                    <path d="M7.25333333,0.211320755 L11.8133333,13.6830189 L9.30666667,13.6830189 L8.34666667,10.6981132 L3.65333333,10.6981132 L2.72,13.6830189 L0.213333333,13.6830189 L4.77333333,0.211320755 L7.25333333,0.211320755 Z M4.32,8.47924528 L7.62666667,8.47924528 L5.94666667,3.2754717 L4.32,8.47924528 Z" id="Shape"></path>
                    <path d="M13.7066667,13.6830189 L13.7066667,0.237735849 L19.4666667,0.237735849 C21.8133333,0.237735849 23.2266667,1.66415094 23.2266667,3.19622642 L23.2266667,6.0490566 C23.2266667,7.13207547 22.48,8.16226415 21.2266667,8.66415094 L23.52,13.6566038 L20.88,13.6566038 L18.72,8.95471698 L16.2133333,8.95471698 L16.2133333,13.6566038 L13.7066667,13.6566038 L13.7066667,13.6830189 Z M16.24,2.48301887 L16.24,6.76226415 L19.28,6.76226415 C20.08,6.76226415 20.7466667,6.31320755 20.7466667,5.52075472 L20.7466667,3.7509434 C20.7466667,2.93207547 20.0533333,2.48301887 19.1733333,2.48301887 L16.24,2.48301887 Z" id="Shape"></path>
                    <polygon id="Shape" points="28.2133333 13.6830189 28.2133333 2.45660377 24.8533333 2.45660377 24.8533333 0.264150943 33.8133333 0.264150943 33.8133333 2.45660377 30.72 2.45660377 30.72 13.6830189"></polygon>
                    <path d="M36.8266667,9.85283019 L36.8266667,10.7245283 C36.8266667,11.9132075 37.9466667,12.8113208 39.3866667,12.8113208 L40.9866667,12.8113208 C42.48,12.8113208 43.6266667,12.0981132 43.6266667,10.8566038 L43.6266667,9.90566038 C43.6266667,7.84528302 36.1333333,7.4490566 36.1333333,3.90943396 L36.1333333,2.69433962 C36.1333333,1.34716981 37.44,0.158490566 39.1733333,0.158490566 L40.96,0.158490566 C42.9066667,0.158490566 44.3466667,1.45283019 44.3466667,2.90566038 L44.3466667,4.12075472 L43.2266667,4.12075472 L43.2266667,3.11698113 C43.2266667,2.00754717 42.1866667,1.16226415 40.88,1.16226415 L39.3333333,1.16226415 C38.1866667,1.16226415 37.2533333,1.90188679 37.2533333,2.87924528 L37.2533333,3.85660377 C37.2533333,6.49811321 44.7466667,6.84150943 44.7466667,9.74716981 L44.7466667,11.0415094 C44.7466667,12.7320755 43.1733333,13.7886792 41.0666667,13.7886792 L39.3333333,13.7886792 C37.2266667,13.7886792 35.68,12.4415094 35.68,10.8830189 L35.68,9.85283019 L36.8266667,9.85283019 Z" id="Shape"></path>
                    <polygon id="Shape" points="50.3733333 13.6830189 50.3733333 1.24150943 46.5866667 1.24150943 46.5866667 0.264150943 55.12 0.264150943 55.12 1.24150943 51.4933333 1.24150943 51.4933333 13.6830189"></polygon>
                    <path d="M61.1466667,0.18490566 L65.92,13.6830189 L64.8,13.6830189 L63.28,9.37735849 L57.8666667,9.37735849 L56.3733333,13.6830189 L55.2266667,13.6830189 L60.0266667,0.18490566 L61.1466667,0.18490566 Z M58.2133333,8.37358491 L62.9333333,8.37358491 L60.5866667,1.61132075 L58.2133333,8.37358491 Z" id="Shape"></path>
                    <polygon id="Shape" points="69.8933333 13.6830189 69.8933333 1.24150943 66.1066667 1.24150943 66.1066667 0.264150943 74.64 0.264150943 74.64 1.24150943 71.0133333 1.24150943 71.0133333 13.6830189"></polygon>
                    <polygon id="Shape" points="77.1466667 13.6830189 77.1466667 0.264150943 78.2666667 0.264150943 78.2666667 13.6830189"></polygon>
                    <path d="M85.2266667,13.7886792 C83.36,13.7886792 82.0266667,12.4415094 82.0266667,10.8830189 L82.0266667,3.06415094 C82.0266667,1.50566038 83.3866667,0.158490566 85.2266667,0.158490566 L87.92,0.158490566 C89.76,0.158490566 91.0933333,1.50566038 91.0933333,3.06415094 L91.0933333,10.8830189 C91.0933333,12.4415094 89.76,13.7886792 87.92,13.7886792 L85.2266667,13.7886792 Z M87.8133333,12.7849057 C89.0133333,12.7849057 89.9733333,11.8867925 89.9733333,10.6981132 L89.9733333,3.2490566 C89.9733333,2.06037736 89.0133333,1.16226415 87.8133333,1.16226415 L85.28,1.16226415 C84.08,1.16226415 83.12,2.06037736 83.12,3.2490566 L83.12,10.7245283 C83.12,11.9132075 84.08,12.8113208 85.28,12.8113208 L87.8133333,12.8113208 L87.8133333,12.7849057 Z" id="Shape"></path>
                    <polygon id="Shape" points="94.8533333 13.6830189 94.8533333 0.264150943 96.0266667 0.264150943 102.826667 11.7283019 102.826667 0.237735849 103.946667 0.237735849 103.946667 13.6566038 102.773333 13.6566038 95.9733333 2.19245283 95.9733333 13.6566038 94.8533333 13.6566038"></polygon>
                </g>
                <g id="Group" fill="#13AFF0">
                    <path d="M0,19.0957447 L2.3509434,23.1914894 C2.82641509,24.1223404 3.77735849,24.7606383 4.86037736,24.7606383 L20.5245283,24.7606383 L17.3018868,19.0957447 L0,19.0957447 Z" id="Shape"></path>
                    <path d="M27.9471698,19.1223404 C27.9471698,18.5638298 27.7886792,18.0319149 27.4981132,17.5797872 L18.3056604,1.51595745 C17.8301887,0.611702128 16.9056604,9.76996262e-15 15.8226415,9.76996262e-15 L10.9622642,9.76996262e-15 L25.1471698,24.7340426 L27.3924528,20.8244681 C27.8150943,20.0797872 27.9471698,19.7606383 27.9471698,19.1223404 Z" id="Shape"></path>
                    <polygon id="Shape" points="14.9773585 15.0531915 8.63773585 4.01595745 2.29811321 15.0531915"></polygon>
                </g>
            </g>
        </g>
    </g>
</svg>