<svg width="65" height="37" viewBox="0 0 65 37" fill="none" xmlns="http://www.w3.org/2000/svg">
<path fill-rule="evenodd" clip-rule="evenodd" d="M15.4554 11.6449V0C12.6307 0.463517 9.95647 1.59109 7.65266 3.28994C2.91359 6.75575 0.119905 12.2807 0.137719 18.1518C0.137719 22.6348 1.58645 26.5963 4.48391 30.0363C7.74951 28.4526 10.3945 25.9995 12.4189 22.677C14.4432 19.3545 15.4554 15.6771 15.4554 11.6449ZM30.0942 9.75964C30.7651 8.44952 31.5896 7.22393 32.5503 6.10876C33.5105 7.22397 34.3346 8.44956 35.005 9.75964C36.3398 12.3546 37.0277 15.2337 37.0101 18.1518C37.0101 22.5476 35.6155 26.4421 32.8264 29.8353C35.9139 28.2479 38.429 25.8618 40.3716 22.677C42.396 19.3572 43.4059 15.6799 43.4013 11.6449V0C40.5766 0.463517 37.9023 1.59109 35.5985 3.28994C34.4794 4.10858 33.4568 5.05156 32.5503 6.10078C31.6434 5.05188 30.6209 4.10893 29.502 3.28994C27.1979 1.59164 24.5238 0.464127 21.6993 0V11.6449C21.6993 15.679 22.7114 19.3563 24.7358 22.677C26.6776 25.8627 29.1899 28.2498 32.2728 29.838C29.4864 26.4421 28.0932 22.5466 28.0932 18.1518C28.0743 15.2341 28.7607 12.3549 30.0942 9.75964ZM32.7559 29.9311C32.7281 29.9664 32.7 30.0021 32.6708 30.0363L32.5578 29.973C32.6487 29.9303 32.741 29.8835 32.8333 29.8353C32.8074 29.8658 32.7818 29.8982 32.756 29.931L32.7559 29.9311ZM18.5057 22.7858C19.0872 25.1357 20.1726 27.331 21.6869 29.2197C23.2653 31.2232 25.1783 32.9387 27.3413 34.2903C21.8436 37.2998 15.1912 37.2998 9.69355 34.2903C11.8566 32.9387 13.7696 31.2232 15.348 29.2197C16.8604 27.333 17.9385 25.1363 18.5057 22.7858ZM62.9646 9.75964C60.3225 4.58223 55.3844 0.962074 49.652 0V11.6449C49.652 15.679 50.6642 19.3563 52.6886 22.677C54.7129 25.9977 57.3579 28.4508 60.6235 30.0363C63.521 26.5945 64.9697 22.6329 64.9697 18.1518C64.988 15.2336 64.3001 12.3544 62.9646 9.75964ZM32.5537 29.9771L32.4367 30.0363C32.397 29.9899 32.3594 29.9421 32.3233 29.8963L32.3233 29.8963C32.308 29.8769 32.293 29.8578 32.2783 29.8394L32.5537 29.9771ZM46.4585 22.7858C47.0405 25.1355 48.1259 27.3307 49.6396 29.2197C51.2181 31.2232 53.1311 32.9387 55.2941 34.2903C49.7964 37.2998 43.144 37.2998 37.6463 34.2903C39.8093 32.9387 41.7223 31.2232 43.3008 29.2197C44.8131 27.333 45.8912 25.1363 46.4585 22.7858Z" fill="#005EAD"/>
<path fill-rule="evenodd" clip-rule="evenodd" d="M35.0119 9.75964C34.3407 8.44799 33.5155 7.22104 32.5538 6.10477C31.5916 7.221 30.7659 8.44795 30.0942 9.75964C28.7608 12.3549 28.0743 15.2341 28.0933 18.1518C28.0933 22.5476 29.4874 26.4416 32.2756 29.8339L32.551 29.9716C32.646 29.9248 32.7383 29.878 32.8264 29.8339C35.6128 26.437 37.0074 22.5425 37.0101 18.1504C37.0296 15.2334 36.3441 12.3548 35.0119 9.75964V9.75964Z" fill="#FF3333"/>
</svg>
