<svg xmlns="http://www.w3.org/2000/svg" viewBox="0 0 45 45">
  <defs>
    <style>
      .cls-1 {
        fill: #cb2023;
      }
    </style>
  </defs>
  <g id="share" transform="translate(-0.001)">
    <g id="Group_87" data-name="Group 87" transform="translate(0.001)">
      <path id="Path_139" data-name="Path 139" class="cls-1" d="M22.5,0A22.5,22.5,0,1,0,45,22.5,22.5,22.5,0,0,0,22.5,0ZM20,22.5a3.947,3.947,0,0,1-.235,1.335l6.28,3.021a4.031,4.031,0,1,1-.986,2.049L18.371,25.69a3.953,3.953,0,1,1,0-6.38L25.057,16.1a3.957,3.957,0,1,1,.986,2.05l-6.28,3.02A3.941,3.941,0,0,1,20,22.5Z" transform="translate(-0.001)"/>
    </g>
  </g>
</svg>
