<svg xmlns="http://www.w3.org/2000/svg" viewBox="0 0 72.084 72.089">
  <defs>
    <style>
      .cls-1 {
        fill: #cb2023;
      }

      .cls-2 {
        fill: #282625;
      }
    </style>
  </defs>
  <g id="bar-chart" transform="translate(-0.018 0)">
    <g id="Group_91" data-name="Group 91" transform="translate(0.018 0)">
      <path id="Path_152" data-name="Path 152" class="cls-1" d="M48.279,9.916c1-2.14,1.992-4.266,3.047-6.54C39.732-1.5,28.422-1.261,17.6,5.175,7.152,11.4,1.475,20.841.018,33.014c2.482.223,4.831.416,7.179.624C8.475,15.252,28.793,1.147,48.279,9.916Z" transform="translate(-0.018 0)"/>
      <path id="Path_153" data-name="Path 153" class="cls-1" d="M292.259,201.219c-2.333.4-4.652.817-7.075,1.234,1.249,8.427-.476,16.008-5.633,22.651a28.57,28.57,0,0,1-20.333,11.177c.208,2.378.4,4.7.609,7.015C277.366,242.672,296.153,225.06,292.259,201.219Z" transform="translate(-220.693 -171.311)"/>
      <path id="Path_154" data-name="Path 154" class="cls-1" d="M8.185,260.319c-2.229.193-4.548.386-6.867.595.535,14.7,13.362,31.228,32.684,32.8.208-2.378.416-4.712.609-6.971C19.511,284.219,10.741,275.465,8.185,260.319Z" transform="translate(-1.125 -221.627)"/>
      <path id="Path_155" data-name="Path 155" class="cls-1" d="M360.22,56.284a30.353,30.353,0,0,1,4.281,7.729c2.244-.817,4.459-1.62,6.778-2.467A36.472,36.472,0,0,0,358.05,44.319c-1.382,1.962-2.735,3.894-4.132,5.9A31.261,31.261,0,0,1,360.22,56.284Z" transform="translate(-301.317 -37.732)"/>
      <path id="Path_156" data-name="Path 156" class="cls-1" d="M295.492,177.819a1.167,1.167,0,0,0-1.174,1.174v23.231a1.167,1.167,0,0,0,1.174,1.174h8.041a1.167,1.167,0,0,0,1.174-1.174V178.993a1.167,1.167,0,0,0-1.174-1.174Zm6.867,23.231h-5.693V180.182h5.693Z" transform="translate(-250.576 -151.389)"/>
      <path id="Path_157" data-name="Path 157" class="cls-2" d="M121.992,219.319a1.167,1.167,0,0,0-1.174,1.174v17.063a1.167,1.167,0,0,0,1.174,1.174h8.041a1.167,1.167,0,0,0,1.174-1.174V220.493a1.167,1.167,0,0,0-1.174-1.174Zm1.174,17.063v-1.828l1.828,1.828Zm3.686,0-3.686-3.686v-1.858l5.559,5.559h-1.873Zm2.007-1.724-5.693-5.693v-1.858l5.693,5.693Zm0-3.716-5.693-5.693v-1.858l5.693,5.693Zm0-3.716-5.544-5.544h1.858l3.686,3.686Zm0-3.731-1.828-1.828h1.828Z" transform="translate(-102.863 -186.721)"/>
      <path id="Path_158" data-name="Path 158" class="cls-1" d="M208.692,114.319a1.167,1.167,0,0,0-1.174,1.174v32.669a1.167,1.167,0,0,0,1.174,1.174h8.041a1.167,1.167,0,0,0,1.174-1.174V115.493a1.167,1.167,0,0,0-1.174-1.174Z" transform="translate(-176.677 -97.327)"/>
    </g>
  </g>
</svg>
