<svg width="59" height="59" viewBox="0 0 59 59" fill="none" xmlns="http://www.w3.org/2000/svg">
<path d="M36.8554 42.8131C36.2503 43.0089 35.6169 43.108 34.9729 43.108C32.8111 43.108 31.1514 42.0489 29.8157 41.1964C29.7414 41.1491 29.6272 41.076 29.4991 40.9958C29.3705 41.0762 29.2559 41.1493 29.1817 41.1967C27.8489 42.0481 26.19 43.1076 24.0252 43.108C23.3822 43.108 22.7496 43.009 22.1399 42.8121C21.0225 42.4489 20.166 41.8355 19.4961 41.1209V57.5396C19.4961 58.1197 19.8394 58.6447 20.3707 58.8774C20.5591 58.9598 20.7583 59 20.9562 59C21.3164 59 21.6719 58.8667 21.947 58.6127L29.4992 51.6407L37.0517 58.6127C37.478 59.0062 38.0968 59.11 38.628 58.8774C39.1593 58.6447 39.5026 58.1196 39.5026 57.5396V41.1203C38.832 41.8355 37.9747 42.4494 36.8554 42.8131Z" fill="#CB2023"/>
<path d="M47.7449 15.9802C47.2775 15.5974 46.4943 14.9575 46.3807 14.6748C46.2836 14.3627 46.553 13.3245 46.714 12.7042C47.1082 11.1857 47.5974 9.29604 46.5092 7.79975C45.4124 6.29273 43.4524 6.17648 41.8789 6.08324C41.2497 6.04623 40.1969 5.98359 39.9331 5.80456C39.6846 5.60579 39.3091 4.63939 39.0836 4.06295C38.5072 2.58339 37.7892 0.741868 35.9975 0.159672C35.6709 0.0538779 35.3268 0 34.9737 0C33.6251 0 32.4522 0.748929 31.3172 1.47327C30.7654 1.82583 29.842 2.41575 29.4998 2.41575C29.1575 2.41575 28.2344 1.82583 27.6827 1.47354C26.5478 0.748929 25.3747 0 24.026 0C23.6728 0 23.3289 0.0538779 23.002 0.159672C21.2105 0.741737 20.4927 2.58326 19.9161 4.06295C19.6907 4.63939 19.3151 5.60592 19.0704 5.80221C18.8029 5.98372 17.75 6.04623 17.121 6.08324C15.5476 6.17608 13.5875 6.29247 12.4909 7.79922C11.4025 9.29551 11.8919 11.1854 12.286 12.7042C12.4469 13.3245 12.7163 14.3628 12.6209 14.6694C12.5057 14.9573 11.7225 15.5975 11.2549 15.98C10.0165 16.9922 8.47559 18.2517 8.47559 20.1602C8.47559 22.0688 10.0165 23.3281 11.2551 24.3404C11.7226 24.7229 12.5058 25.3629 12.6195 25.6452C12.7165 25.9574 12.4471 26.9961 12.2857 27.6164C11.8919 29.1349 11.4026 31.0245 12.4909 32.5212C13.5886 34.0282 15.548 34.1441 17.1216 34.2373C17.7503 34.2743 18.803 34.3367 19.0664 34.5155C19.3138 34.7143 19.6904 35.6807 19.916 36.2574C20.4926 37.7369 21.2105 39.5784 23.0024 40.1609C23.329 40.2664 23.6728 40.3203 24.0259 40.3203C24.0262 40.3203 24.0264 40.3203 24.0264 40.3203C25.3748 40.32 26.5477 39.5715 27.6815 38.8473C28.2343 38.4947 29.1575 37.9057 29.4999 37.9057C29.842 37.9057 30.7655 38.4947 31.3173 38.8473C32.4523 39.5715 33.6252 40.3203 34.9736 40.3203C35.3269 40.3203 35.671 40.2664 35.9979 40.1606C37.7894 39.5786 38.5073 37.7373 39.0837 36.2576C39.3093 35.6809 39.6852 34.7144 39.9294 34.5185C40.1969 34.3368 41.2498 34.2743 41.8789 34.2373C43.4523 34.1441 45.4115 34.0282 46.5094 32.5215C47.5975 31.0249 47.1083 29.1351 46.7141 27.6168C46.5533 26.9961 46.2838 25.9575 46.3792 25.6509C46.4944 25.363 47.2775 24.7229 47.7449 24.3404C48.9837 23.3281 50.5244 22.0685 50.5244 20.1602C50.5244 18.2515 48.9837 16.9923 47.7449 15.9802ZM29.4999 32.9138C22.4563 32.9138 16.7468 27.2033 16.7468 20.16C16.7468 13.1171 22.4563 7.40691 29.4999 7.40691C36.5438 7.40691 42.2533 13.1171 42.2533 20.16C42.2533 27.2033 36.5438 32.9138 29.4999 32.9138Z" fill="#CB2023"/>
<path d="M31.0585 13.2372H29.116L25.1475 15.9309L26.4383 17.8256L28.4458 16.4699V23.7047H25.6539V25.9902H33.8519V23.7047H31.0585V13.2372Z" fill="#CB2023"/>
</svg>
