<svg width="64" height="64" viewBox="0 0 64 64" fill="none" xmlns="http://www.w3.org/2000/svg">
<path d="M30.667 5.33337C22.579 5.33337 16.0003 11.9147 16.0003 20C16.0003 21.4054 16.213 22.7589 16.5837 24.0469C16.8343 24.0336 17.0857 24 17.3337 24C19.211 24 21.0327 24.3276 22.7607 24.9063C21.8727 23.477 21.3337 21.8027 21.3337 20C21.3337 14.8534 25.5203 10.6667 30.667 10.6667C35.8137 10.6667 40.0003 14.8534 40.0003 20C40.0003 21.848 39.4414 23.5623 38.5107 25.0157C40.1267 24.3837 41.931 24 44.0003 24C44.2563 24 44.5022 24.0258 44.7555 24.0365C45.1235 22.7538 45.3337 21.4027 45.3337 20C45.3337 11.9147 38.755 5.33337 30.667 5.33337ZM17.3337 26.6667C16.1257 26.6667 14.959 26.8269 13.8337 27.1042C14.3137 27.4615 14.7553 27.8735 15.0993 28.3855C15.8673 29.5321 16.1142 30.8739 15.9222 32.1459C16.3862 32.0739 16.851 32 17.3337 32C21.6803 32 25.3121 35.002 26.3441 39.0313C26.4587 38.818 26.5601 38.638 26.6774 38.4167C27.5574 36.75 28.496 34.9777 29.568 33.2657C26.9387 29.295 22.4403 26.6667 17.3337 26.6667ZM44.0003 26.6667C39.867 26.6667 36.5731 28.706 34.2712 31.323C31.9692 33.9399 30.3819 37.1057 28.8076 40.0886C27.2333 43.0715 25.6734 45.865 23.8805 47.7448C22.0877 49.6247 20.2731 50.6667 17.3337 50.6667C12.1485 50.6667 8.00033 46.5185 8.00033 41.3334C8.00033 38.0782 9.64931 35.2472 12.1514 33.573C12.7389 33.1792 13.146 32.5682 13.2831 31.8743C13.4202 31.1804 13.2761 30.4605 12.8825 29.8729C12.4889 29.2852 11.878 28.878 11.1842 28.7407C10.4903 28.6034 9.77038 28.7472 9.18262 29.1407C5.25267 31.7704 2.66699 36.2685 2.66699 41.3334C2.66699 49.4016 9.26545 56 17.3337 56C21.7276 56 25.2463 54.042 27.7451 51.4219C30.2439 48.8018 31.934 45.5952 33.5264 42.5782C35.1187 39.5611 36.6148 36.7268 38.2712 34.8438C39.9275 32.9608 41.467 32 44.0003 32C49.1855 32 53.3337 36.1482 53.3337 41.3334V42.6667C53.3287 43.0201 53.3939 43.3709 53.5257 43.6988C53.6575 44.0267 53.8531 44.3252 54.1012 44.5769C54.3493 44.8285 54.645 45.0283 54.971 45.1647C55.297 45.3011 55.6469 45.3714 56.0003 45.3714C56.3537 45.3714 56.7036 45.3011 57.0296 45.1647C57.3556 45.0283 57.6513 44.8285 57.8994 44.5769C58.1475 44.3252 58.3432 44.0267 58.4749 43.6988C58.6067 43.3709 58.672 43.0201 58.667 42.6667V41.3334C58.667 33.2652 52.0685 26.6667 44.0003 26.6667ZM56.0003 50.6667C55.2931 50.6667 54.6148 50.9477 54.1147 51.4478C53.6146 51.9479 53.3337 52.6261 53.3337 53.3334C53.3337 54.0406 53.6146 54.7189 54.1147 55.219C54.6148 55.7191 55.2931 56 56.0003 56C56.7076 56 57.3858 55.7191 57.8859 55.219C58.386 54.7189 58.667 54.0406 58.667 53.3334C58.667 52.6261 58.386 51.9479 57.8859 51.4478C57.3858 50.9477 56.7076 50.6667 56.0003 50.6667Z" fill="black"/>
</svg>
