<svg width="36" height="41" viewBox="0 0 36 41" fill="none" xmlns="http://www.w3.org/2000/svg">
<path fill-rule="evenodd" clip-rule="evenodd" d="M34.9327 14.3276C36.9644 16.9762 35.9397 21.4831 33.1749 23.3246C30.4365 25.1492 27.1858 23.0134 27.0091 20.0621C26.8679 17.733 28.3782 14.4032 30.8252 13.5371C32.1413 12.7468 33.6871 12.6879 34.9327 14.3276Z" fill="#333333"/>
<path fill-rule="evenodd" clip-rule="evenodd" d="M33.5101 30.1274C34.4116 32.3804 34.0128 35.188 32.7732 37.2308C31.4989 39.3156 29.3145 40.7447 26.8266 40.9716C24.9455 41.1397 23.4632 40.5261 21.6949 40.0804C18.7649 39.3407 16.4765 39.534 13.5725 40.2232C8.42339 41.4422 2.20818 40.7025 1.12468 34.5741C0.101896 28.7905 5.59768 27.4203 9.34235 24.6125C11.8908 21.6283 13.2432 16.8281 17.8636 17.0047C19.4759 17.0636 20.7676 17.837 21.8078 18.9635C22.8306 20.0647 23.2814 21.5023 24.0875 22.7381C25.4397 24.7893 27.1908 25.9745 29.3058 26.8992C31.135 27.4709 32.7299 28.1688 33.5101 30.1274Z" fill="#CB2023"/>
<path fill-rule="evenodd" clip-rule="evenodd" d="M24.394 1.10287C24.4294 1.09386 24.465 1.08485 24.4915 1.07584C24.6247 1.04901 24.7487 1.01298 24.873 1.00397C25.0061 0.985958 25.1301 1.031 25.2366 1.10267C25.822 1.21938 26.3985 1.60536 26.9307 2.39513C28.6515 4.9442 28.2522 8.68704 26.0438 10.8053C23.7997 12.9594 20.1098 12.1606 20.0034 8.73188C19.9767 7.94192 20.1098 7.01762 20.3848 6.0751C20.3848 6.04808 20.3937 6.02125 20.4026 5.99423C20.4912 5.61726 20.6509 5.20446 20.8461 4.77364C21.4316 3.41832 22.3098 2.20655 23.4184 1.52448C23.4806 1.48865 23.5516 1.45261 23.6224 1.41678C23.6845 1.38094 23.7467 1.34491 23.8175 1.30907C23.9417 1.24621 24.0658 1.20137 24.1989 1.16553C24.2608 1.1387 24.323 1.12088 24.394 1.10287Z" fill="#333333"/>
<path fill-rule="evenodd" clip-rule="evenodd" d="M13.5511 0.0490944C15.6562 -0.356823 17.0443 1.82186 16.9989 4.09146C16.9445 6.65112 15.4202 10.9917 11.9089 11C8.39758 11 8.73331 6.68419 9.50455 4.48075C9.88561 3.03943 10.793 1.66427 11.9089 0.827674C12.2629 0.562545 12.6166 0.363743 12.9432 0.231269C12.9614 0.222956 12.9703 0.214642 12.9794 0.214642C12.9886 0.214642 12.9886 0.206328 12.9886 0.206328C13.161 0.123555 13.3334 0.0738542 13.4967 0.0572272C13.4967 0.0572272 13.4967 0.0572272 13.5058 0.0572272C13.5149 0.0490944 13.5331 0.0490944 13.5511 0.0490944Z" fill="#333333"/>
<path fill-rule="evenodd" clip-rule="evenodd" d="M2.91601 10.1757C3.53077 9.95986 4.21879 9.92673 5.00791 10.1674C5.20068 10.2338 5.38405 10.3084 5.55841 10.3913C8.33853 11.1797 8.51288 15.0469 7.23753 16.9971C5.31078 19.9432 0.860749 19.628 0.0900505 16.1257C-0.102524 15.2461 0.0165839 14.0676 0.42035 12.9722C0.668174 12.0178 1.17283 11.0801 2.00759 10.5157C2.28304 10.3334 2.60413 10.2171 2.91601 10.1757Z" fill="#333333"/>
</svg>
