<svg width="40" height="40" viewBox="0 0 40 40" fill="none" xmlns="http://www.w3.org/2000/svg">
<path d="M38.3514 12.2128C37.2958 9.74709 35.881 7.62273 34.1069 5.84058C32.3338 4.05825 30.2134 2.63895 27.7474 1.58341C25.2823 0.527863 22.699 0 19.9998 0C17.3003 0 14.7174 0.528135 12.2515 1.58341C9.78545 2.63895 7.66555 4.05798 5.89194 5.84058C4.11825 7.62273 2.70331 9.74709 1.64777 12.2128C0.592316 14.6788 0.0644531 17.2704 0.0644531 19.987C0.0644531 22.7036 0.592316 25.2994 1.64777 27.7738C2.70358 30.2488 4.11816 32.3766 5.89194 34.1594C7.66555 35.9418 9.78545 37.3612 12.2515 38.416C14.7174 39.472 17.3002 39.9999 19.9998 39.9999C22.6994 39.9999 25.2823 39.472 27.7474 38.416C30.2134 37.3607 32.3338 35.9418 34.1069 34.1594C35.881 32.3766 37.2957 30.2487 38.3514 27.7738C39.407 25.2993 39.9344 22.7035 39.9344 19.987C39.9341 17.2704 39.407 14.6788 38.3514 12.2128ZM8.18905 27.7476C6.64892 25.3778 5.87885 22.7897 5.87922 19.9866C5.87922 17.4257 6.511 15.055 7.77419 12.8744C9.03712 10.6941 10.7506 8.97239 12.9134 7.70874C15.0764 6.44554 17.4386 5.81413 19.9998 5.81413C22.8556 5.81413 25.4504 6.60156 27.787 8.17623L8.18905 27.7476ZM33.0034 25.5031C32.2591 27.2595 31.2561 28.7695 29.9929 30.0329C28.7291 31.2962 27.2282 32.3042 25.489 33.0562C23.7497 33.8088 21.9197 34.1856 19.9992 34.1856C17.2306 34.1856 14.6609 33.4159 12.29 31.8751L31.8619 12.3294C33.3681 14.6482 34.1201 17.2008 34.1201 19.9867C34.1197 21.9078 33.7476 23.7463 33.0034 25.5031Z" fill="#CB2023"/>
</svg>
