<svg width="36" height="36" viewBox="0 0 36 36" fill="none" xmlns="http://www.w3.org/2000/svg">
<path d="M34.2964 3.0293H19.6477C18.7083 3.0293 17.9443 3.79333 17.9443 4.73252V12.291C17.9443 13.2302 18.7084 13.9942 19.6477 13.9942H20.9339V16.9946C20.9339 17.202 21.0549 17.3904 21.2437 17.4767C21.3142 17.5089 21.3893 17.5247 21.4639 17.5247C21.5889 17.5247 21.7124 17.4806 21.8106 17.3956L25.7471 13.9941H34.2962C35.2354 13.9941 35.9994 13.23 35.9994 12.2909V4.73252C35.9996 3.79333 35.2355 3.0293 34.2964 3.0293ZM22.7311 9.76502C21.9846 9.76502 21.3794 9.15974 21.3794 8.41317C21.3794 7.66661 21.9844 7.06132 22.7311 7.06132C23.4778 7.06132 24.0831 7.66653 24.0831 8.41317C24.0829 9.15966 23.4778 9.76502 22.7311 9.76502ZM26.972 9.76502C26.2255 9.76502 25.6201 9.15974 25.6201 8.41317C25.6201 7.66661 26.2254 7.06132 26.972 7.06132C27.7185 7.06132 28.3239 7.66653 28.3239 8.41317C28.3239 9.15966 27.7185 9.76502 26.972 9.76502ZM31.2131 9.76502C30.4666 9.76502 29.8613 9.15974 29.8613 8.41317C29.8613 7.66661 30.4664 7.06132 31.2131 7.06132C31.9597 7.06132 32.5649 7.66653 32.5649 8.41317C32.5648 9.15966 31.9595 9.76502 31.2131 9.76502Z" fill="#CC1237"/>
<path d="M10.7923 10.3403C7.4906 10.3403 5.66341 12.0512 5.69674 15.3479C5.74508 19.8632 7.66376 22.6023 10.7923 22.5545C10.7923 22.5545 15.8854 22.761 15.8854 15.3479C15.8854 12.0512 14.1647 10.3403 10.7923 10.3403Z" fill="#CC1237"/>
<path d="M19.8008 25.9816L14.7119 23.9527L13.5201 22.9485C13.2054 22.6826 12.7405 22.7022 12.4485 22.9925L10.7918 24.6401L9.13006 22.992C8.83791 22.7022 8.37368 22.6835 8.05932 22.9486L6.86745 23.9527L1.77823 25.9819C0.139445 26.6346 0.140671 32.438 0 32.9709H21.5814C21.441 32.4393 21.4402 26.6338 19.8008 25.9816Z" fill="#CC1237"/>
</svg>
