<svg width="64" height="53" viewBox="0 0 64 53" fill="none" xmlns="http://www.w3.org/2000/svg">
<path fill-rule="evenodd" clip-rule="evenodd" d="M57.2388 25.455L51.2212 25.4874L50.6712 25.4971V24.19H53.1818L54.6668 19.9712L31.6865 10.3559V4.07942C31.6865 4.07942 31.9712 3.36119 34.4332 4.07942C36.8953 4.79766 39.1341 3.57148 39.1341 3.57148C39.1341 3.57148 36.9794 2.80472 34.5594 1.53001C32.1394 0.255303 30.2306 0.76648 30.2306 0.76648L30.36 4.07619H30.6641V10.3947L8.03971 19.9712L9.52147 24.19H12.0288V25.4841L5.60353 25.4518L0 35V52.4309H10.4079H53.0232H63.0979V35L57.2388 25.455ZM11.0679 22.2165L31.2788 13.8403L51.2374 22.2165H11.0679ZM14.2159 46.8274H17.5288V27.5838H14.2159V46.8274ZM25.2676 46.8274H21.9579V27.5838H25.2676V46.8274ZM29.6968 46.8274H33.0065V27.5838H29.6968V46.8274ZM40.7421 46.8274H37.4388V27.5838H40.7421V46.8274ZM45.1809 46.8274H48.4906V27.5838H45.1809V46.8274Z" fill="#CB2023"/>
<path fill-rule="evenodd" clip-rule="evenodd" d="M38.0373 19.7965C36.4196 20.1459 36.4196 17.81 34.8538 17.5221C33.3008 17.2471 32.5146 19.0168 32.5146 19.0168C33.5079 18.0979 35.2808 19.295 35.4944 20.01C35.7046 20.7153 37.4096 21.9253 39.1794 21.0032C40.9426 20.0779 39.9558 18.4474 39.9558 18.4474C39.9558 18.4474 39.6711 19.4374 38.0373 19.7965Z" fill="#282625"/>
<path fill-rule="evenodd" clip-rule="evenodd" d="M27.8397 17.5221C26.2867 17.81 26.2867 20.1491 24.6529 19.7965C23.0223 19.4406 22.7376 18.4474 22.7376 18.4474C22.7376 18.4474 21.7476 20.078 23.5205 21C25.2967 21.9221 26.992 20.7121 27.2055 20.0068C27.4223 19.295 29.192 18.0947 30.182 19.0135C30.1788 19.0168 29.4023 17.2471 27.8397 17.5221Z" fill="#282625"/>
<path fill-rule="evenodd" clip-rule="evenodd" d="M19.6965 20.0068C18.5641 20.0779 17.7068 21.495 17.7068 21.495C17.7068 21.495 18.6321 20.7865 19.4086 21.0712C20.1883 21.3526 21.1136 21.7732 20.9 20.8576C20.9 20.8576 20.8288 19.9323 19.6965 20.0068Z" fill="#282625"/>
<path fill-rule="evenodd" clip-rule="evenodd" d="M43.0036 20.0068C41.868 19.9356 41.7968 20.8576 41.7968 20.8576C41.5897 21.7765 42.5053 21.3526 43.2883 21.0712C44.0647 20.7865 44.9836 21.495 44.9836 21.495C44.9836 21.495 44.1392 20.0779 43.0036 20.0068Z" fill="#282625"/>
</svg>
