<svg xmlns="http://www.w3.org/2000/svg" viewBox="0 0 57.238 54.264">
  <defs>
    <style>
      .cls-1 {
        fill: #cb2023;
      }
    </style>
  </defs>
  <g id="browser_1_" data-name="browser (1)" transform="translate(0 -8.463)">
    <g id="Group_247" data-name="Group 247" transform="translate(18.599 33.518)">
      <path id="Path_700" data-name="Path 700" class="cls-1" d="M241.509,217.035l-2.15-2.215a1.494,1.494,0,0,0,.544-2.931l-5.067-1.28a1.494,1.494,0,0,0-1.815,1.815l1.28,5.066a1.494,1.494,0,0,0,2.928-.572l2.134,2.2a1.494,1.494,0,0,0,2.145-2.081Z" transform="translate(-210.617 -200.088)"/>
      <g id="Group_246" data-name="Group 246" transform="translate(0 0)">
        <path id="Path_701" data-name="Path 701" class="cls-1" d="M111.864,151.644a.641.641,0,0,0-.6-.414h0l-1.079,0a.64.64,0,0,0-.6.417l-3.751,10.077a.64.64,0,0,0,.6.864h.976a.64.64,0,0,0,.6-.417l1.109-2.98h3.242l1.124,2.983a.64.64,0,0,0,.6.415h.981a.641.641,0,0,0,.572-.928ZM109.938,157l.794-2.133.8,2.133Z" transform="translate(-105.795 -151.186)"/>
        <path id="Path_702" data-name="Path 702" class="cls-1" d="M170.885,150.98h-2.776a.64.64,0,0,0-.64.64v10.062a.64.64,0,0,0,.64.64h2.776a5.672,5.672,0,1,0,0-11.343Zm0,9.148h-1.221v-6.952h1.221a3.478,3.478,0,1,1,0,6.952Z" transform="translate(-156.627 -150.98)"/>
      </g>
    </g>
    <path id="Path_703" data-name="Path 703" class="cls-1" d="M54.163,8.463H3.077A3.08,3.08,0,0,0,0,11.54V59.65a3.08,3.08,0,0,0,3.077,3.077H54.163a3.08,3.08,0,0,0,3.077-3.077V11.54A3.08,3.08,0,0,0,54.163,8.463ZM48.075,13.18a2.549,2.549,0,1,1-2.549,2.549A2.552,2.552,0,0,1,48.075,13.18Zm-8.644,0a2.549,2.549,0,1,1-2.549,2.549A2.552,2.552,0,0,1,39.431,13.18ZM7.805,14.411H18.09a1.319,1.319,0,1,1,0,2.637H7.805a1.319,1.319,0,0,1,0-2.637ZM52.353,57.4a.4.4,0,0,1-.4.4H5.288a.4.4,0,0,1-.4-.4V24.263H52.353Z" transform="translate(0 0)"/>
  </g>
</svg>
