<svg width="68" height="39" viewBox="0 0 68 39" fill="none" xmlns="http://www.w3.org/2000/svg">
<path d="M60.3125 24H68L64.9996 5H59L60.3125 24Z" fill="#E4E4E4"/>
<path d="M67.8294 23.4483H60.8421L59.6491 4.68966H65.1022L64.7133 2.01303C64.5453 0.857914 63.5385 0 62.3512 0H2.38596C1.06817 0 0 1.04975 0 2.34483V2.34483V31.6552C0 32.9502 1.06817 34 2.38596 34H65.614C66.9318 34 68 32.9502 68 31.6552V24.7872C67.9999 24.6762 67.9918 24.5653 67.9761 24.4554L67.8294 23.4483Z" fill="#CB2023"/>
<path d="M43 26H52V31H43V26Z" fill="#AD191B"/>
<path d="M43 16H52V26H43V16Z" fill="#AD191B"/>
<path d="M21.6667 5H30V13.75H21.6667V5Z" fill="#282625"/>
<path d="M5 5H13.3333V13.75H5V5Z" fill="#282625"/>
<path d="M13 5H21.3051V13.75H13V5Z" fill="white"/>
<path d="M46.2203 5H54.5254V13.75H46.2203V5Z" fill="white"/>
<path d="M29.6102 5H37.9153V13.75H29.6102V5Z" fill="white"/>
<path d="M38.2203 5H46.5254V13.4483H38.2203V5Z" fill="#282625"/>
<path d="M5 17.069H13.3051V25.5172H5V17.069Z" fill="#282625"/>
<path d="M13 16H21.3333V24.75H13V16Z" fill="white"/>
<path d="M29.6667 16H38V24.75H29.6667V16Z" fill="white"/>
<path d="M21 16H30V25H21V16Z" fill="#282625"/>
<path d="M9.71545 38.5238C12.3197 38.5238 14.4309 36.3918 14.4309 33.7619C14.4309 31.132 12.3197 29 9.71545 29C7.11118 29 5 31.132 5 33.7619C5 36.3918 7.11118 38.5238 9.71545 38.5238Z" fill="#282625"/>
<path d="M23.8618 38.5238C26.4661 38.5238 28.5773 36.3918 28.5773 33.7619C28.5773 31.132 26.4661 29 23.8618 29C21.2575 29 19.1464 31.132 19.1464 33.7619C19.1464 36.3918 21.2575 38.5238 23.8618 38.5238Z" fill="#282625"/>
<path d="M62.7642 33.7619C62.7642 36.3918 60.653 38.5238 58.0488 38.5238C55.4445 38.5238 53.3333 36.3918 53.3333 33.7619C53.3333 31.132 55.4445 29 58.0488 29C60.653 29 62.7642 31.132 62.7642 33.7619" fill="#282625"/>
</svg>
