<svg width="52" height="52" viewBox="0 0 52 52" fill="none" xmlns="http://www.w3.org/2000/svg">
<g clip-path="url(#clip0)">
<path d="M8.80868 24.8949C9.13807 27.0094 10.7637 29.6975 13.4519 30.6432C14.5463 31.0257 15.7576 31.0363 16.852 30.6326C19.4977 29.6763 21.1765 26.9987 21.5059 24.8843C21.8565 24.8524 22.324 24.353 22.834 22.5786C23.5247 20.1454 22.7915 19.7842 22.1753 19.8479C22.2921 19.5079 22.3878 19.1785 22.4409 18.8492C23.4928 12.5484 20.3902 12.3253 20.3902 12.3253C20.3902 12.3253 19.8802 11.3371 18.5202 10.5827C17.617 10.0408 16.3526 9.62643 14.6844 9.77519C14.1426 9.79644 13.6325 9.90269 13.1544 10.0621C12.5381 10.2746 11.975 10.5721 11.4756 10.9227C10.8487 11.3159 10.2643 11.8046 9.7437 12.3571C8.92556 13.1965 8.19242 14.2803 7.87366 15.6403C7.60803 16.6497 7.67178 17.7123 7.88428 18.8492C7.94804 19.1785 8.03304 19.5186 8.14992 19.8479C7.53365 19.7948 6.80051 20.1454 7.49115 22.5786C7.99054 24.3743 8.45805 24.8737 8.80868 24.8949Z" fill="#CC1237"/>
<path d="M26.4463 33.5014C22.738 32.0882 20.5067 30.6326 20.5067 30.6326L17.6486 39.6853L17.2554 40.9178L15.9698 37.284C18.913 33.172 15.7466 32.9808 15.1941 32.9808H15.1835H15.1729H15.1622H15.1516C14.5991 32.9808 11.4328 33.1826 14.376 37.284L13.0903 40.9178L12.6972 39.6853L9.86024 30.6326C9.86024 30.6326 7.63956 32.0882 3.92072 33.5014C-0.170004 34.9889 0.085002 38.3571 0 44.6579H15.1729H15.2047H30.367C30.282 38.3571 30.537 34.9889 26.4463 33.5014Z" fill="#CC1237"/>
<path d="M26.1915 30.5582C24.704 27.9337 25.0758 24.5443 27.3178 22.3023C29.1241 20.496 31.6741 19.901 33.9798 20.5279L36.6786 17.8291C33.0766 16.0972 28.6778 16.5753 25.5008 19.2529C25.6283 19.5398 25.7346 19.8585 25.7877 20.1879C25.9471 21.0698 25.8409 22.0898 25.469 23.3967C25.1396 24.5443 24.7996 25.373 24.3746 26.0106C24.0983 26.4249 23.8008 26.7437 23.5033 26.9774C23.3014 27.6681 23.0358 28.3056 22.7383 28.9006C23.4714 29.2938 24.6508 29.91 26.1915 30.5582Z" fill="#CC1237"/>
<path d="M41.5451 22.6849L38.8463 25.3838C39.4625 27.6788 38.8675 30.2395 37.0719 32.0458C35.5099 33.6077 33.3849 34.2558 31.3555 34.0115C31.7805 34.649 32.1099 35.3609 32.3542 36.1684C32.4817 36.604 32.588 37.0609 32.673 37.539C35.1699 37.4222 37.635 36.4234 39.5369 34.5108C42.7245 31.3126 43.3939 26.5419 41.5451 22.6849Z" fill="#CC1237"/>
<path d="M43.9879 20.2411C47.0798 25.49 46.3679 32.3432 41.8628 36.8483C39.3871 39.324 36.1889 40.6522 32.9482 40.8328C32.9695 41.6403 32.9801 42.5116 32.9907 43.436C32.9907 43.8185 33.0014 44.2223 33.0014 44.6367V44.6473C37.1983 44.456 41.3422 42.756 44.551 39.5472C50.5437 33.5545 51.2768 24.2787 46.7398 17.4891L43.9879 20.2411Z" fill="#CC1237"/>
<path d="M33.5549 23.8643C32.2586 23.3331 30.7073 23.5881 29.6554 24.64C28.2529 26.0425 28.2529 28.3057 29.6554 29.6976C31.0579 31.1001 33.3211 31.1001 34.713 29.6976C35.7649 28.6457 36.0199 27.0944 35.4887 25.7981L45.7633 15.5235L47.474 15.7466L52.0003 11.2203L48.579 10.7634L48.1221 7.34204L43.5957 11.879L43.8189 13.5897L33.5549 23.8643Z" fill="#CC1237"/>
<path d="M25.6274 15.1728C29.835 12.8777 34.9882 12.9415 39.1321 15.3853L41.8946 12.6227C36.6033 9.09514 29.8244 8.75513 24.2461 11.6027C24.2673 11.6346 24.2992 11.6664 24.3205 11.6983C25.0111 12.6121 25.4467 13.7809 25.6274 15.1728Z" fill="#CC1237"/>
</g>
<defs>
<clipPath id="clip0">
<rect width="52" height="52" fill="white"/>
</clipPath>
</defs>
</svg>
