<svg xmlns="http://www.w3.org/2000/svg" viewBox="0 0 51.68 47.537">
  <defs>
    <style>
      .cls-1 {
        fill: #cb2023;
      }
    </style>
  </defs>
  <g id="businessman-in-apresentation-with-a-graphic-on-a-board" transform="translate(-0.002 -8.918)">
    <g id="Group_224" data-name="Group 224" transform="translate(0.002 8.918)">
      <path id="Path_633" data-name="Path 633" class="cls-1" d="M48.786,22.868H37.563V20.7a1.086,1.086,0,1,0-2.172,0v2.172H24.17a2.9,2.9,0,0,0-2.9,2.9v3.813l-1.507-.5a28.572,28.572,0,0,0-7.143-1.523l-.431.861h-.012l1.22,9.494-1.448,2.531L10.5,37.906l1.219-9.494h-.013l-.431-.863a28.673,28.673,0,0,0-7.185,1.539,1.436,1.436,0,0,0-.154.094,1.784,1.784,0,0,0-.332.2,1.6,1.6,0,0,0-.233.223,1.7,1.7,0,0,0-.209.284,1.823,1.823,0,0,0-.146.327,1.709,1.709,0,0,0-.08.181L.045,43.432a1.81,1.81,0,1,0,3.535.785L6.253,32.191c.187-.058.4-.12.628-.184V44.362L5.441,62.276a2.17,2.17,0,0,0,1.991,2.337c.059,0,.117.007.177.007a2.172,2.172,0,0,0,2.162-2l1.3-16.19a2.148,2.148,0,0,0,1.752,0l1.3,16.19a2.172,2.172,0,0,0,2.162,2c.059,0,.117,0,.177-.007a2.171,2.171,0,0,0,1.991-2.337L17.015,44.362V32.007c.92.261,1.541.482,1.557.487a.112.112,0,0,0,.023,0c.007,0,.013.009.02.011l2.654.885v9.748a2.9,2.9,0,0,0,2.9,2.9h5.272L24.814,63.3a1.085,1.085,0,1,0,2.1.56l4.775-17.822h3.7V58.665a1.086,1.086,0,1,0,2.172,0V46.036h3.7l4.774,17.822a1.086,1.086,0,1,0,2.1-.56L43.513,46.037h5.272a2.9,2.9,0,0,0,2.9-2.9V25.764A2.9,2.9,0,0,0,48.786,22.868Zm1.448,20.273a1.45,1.45,0,0,1-1.448,1.448H24.17a1.449,1.449,0,0,1-1.448-1.448V33.876l4.585,1.529a1.846,1.846,0,0,0,.574.093A1.812,1.812,0,0,0,29.6,34.26a1.682,1.682,0,0,0,.047-.384l10.881-5.035a.362.362,0,0,0-.305-.657l-10.656,4.93a1.776,1.776,0,0,0-1.111-1.145l-5.731-1.91v-4.3a1.449,1.449,0,0,1,1.448-1.448H48.787a1.45,1.45,0,0,1,1.448,1.448V43.141h0Z" transform="translate(-0.002 -17.127)"/>
      <path id="Path_634" data-name="Path 634" class="cls-1" d="M36.316,18.953c2.525,0,4.575-2.931,4.575-5.458a4.577,4.577,0,1,0-9.154,0C31.737,16.022,33.787,18.953,36.316,18.953Z" transform="translate(-24.367 -8.918)"/>
      <path id="Path_635" data-name="Path 635" class="cls-1" d="M140.185,78.526l.75-.467-.734-1.176-.748.467a3.717,3.717,0,0,0-1.189-.851l.2-.858-1.35-.312-.2.86a3.594,3.594,0,0,0-1.442.242l-.469-.75-1.175.734.469.75a3.643,3.643,0,0,0-.851,1.191l-.86-.2-.311,1.35.86.2a3.647,3.647,0,0,0,.243,1.442l-.751.468.735,1.176.751-.47a3.548,3.548,0,0,0,1.189.849l-.2.86,1.349.313.2-.86a3.626,3.626,0,0,0,1.442-.242l.467.749,1.174-.734-.465-.749a3.669,3.669,0,0,0,.85-1.189l.86.2.31-1.35-.861-.2A3.63,3.63,0,0,0,140.185,78.526ZM138.1,81.949a2.489,2.489,0,1,1,.793-3.429A2.491,2.491,0,0,1,138.1,81.949Z" transform="translate(-101.557 -59.906)"/>
      <path id="Path_636" data-name="Path 636" class="cls-1" d="M176.356,73.391l-.666.226a2.927,2.927,0,0,0-.767-.877l.311-.63-.991-.489-.31.631a2.894,2.894,0,0,0-1.162-.076l-.228-.667-1.045.355.225.667a2.9,2.9,0,0,0-.877.767l-.632-.311-.489.99.632.311a2.9,2.9,0,0,0-.076,1.165l-.666.226.353,1.046.669-.226a2.88,2.88,0,0,0,.766.877l-.311.63.99.49.311-.63a2.883,2.883,0,0,0,1.164.075l.225.667,1.046-.354-.226-.666a2.905,2.905,0,0,0,.878-.768l.631.311.488-.99-.629-.312a2.913,2.913,0,0,0,.076-1.162l.666-.226ZM173.8,76.936a1.984,1.984,0,1,1,1.242-2.516A1.985,1.985,0,0,1,173.8,76.936Z" transform="translate(-130.225 -56.973)"/>
    </g>
  </g>
</svg>
