<svg xmlns="http://www.w3.org/2000/svg" viewBox="0 0 20.066 20.521">
  <defs>
    <style>
      .cls-1 {
        fill: #cb2023;
      }
    </style>
  </defs>
  <g id="calendar" transform="translate(-5.41)">
    <g id="Group_263" data-name="Group 263" transform="translate(5.411)">
      <path id="Path_727" data-name="Path 727" class="cls-1" d="M119.592,258.707a.465.465,0,0,0-.466-.465H117.5a.465.465,0,0,0-.466.465v1.625a.466.466,0,0,0,.466.466h1.625a.466.466,0,0,0,.466-.466v-1.625Z" transform="translate(-112.343 -247.386)"/>
      <path id="Path_728" data-name="Path 728" class="cls-1" d="M216.226,258.707a.465.465,0,0,0-.465-.465h-1.626a.465.465,0,0,0-.466.465v1.625a.466.466,0,0,0,.466.466h1.626a.466.466,0,0,0,.465-.466Z" transform="translate(-204.915 -247.386)"/>
      <path id="Path_729" data-name="Path 729" class="cls-1" d="M312.855,258.707a.465.465,0,0,0-.466-.465h-1.625a.465.465,0,0,0-.466.465v1.625a.466.466,0,0,0,.466.466h1.625a.466.466,0,0,0,.466-.466Z" transform="translate(-297.481 -247.386)"/>
      <path id="Path_730" data-name="Path 730" class="cls-1" d="M119.592,355.341a.465.465,0,0,0-.466-.466H117.5a.465.465,0,0,0-.466.466v1.625a.466.466,0,0,0,.466.466h1.625a.466.466,0,0,0,.466-.466v-1.625Z" transform="translate(-112.343 -339.957)"/>
      <path id="Path_731" data-name="Path 731" class="cls-1" d="M216.226,355.341a.465.465,0,0,0-.465-.466h-1.626a.465.465,0,0,0-.466.466v1.625a.466.466,0,0,0,.466.466h1.626a.466.466,0,0,0,.465-.466Z" transform="translate(-204.915 -339.957)"/>
      <path id="Path_732" data-name="Path 732" class="cls-1" d="M312.855,355.341a.465.465,0,0,0-.465-.466h-1.626a.465.465,0,0,0-.466.466v1.625a.466.466,0,0,0,.466.466h1.626a.466.466,0,0,0,.465-.466v-1.625Z" transform="translate(-297.481 -339.957)"/>
      <path id="Path_733" data-name="Path 733" class="cls-1" d="M23.691,54.151v2.482a2.027,2.027,0,0,1-2.032,2.026H20.377a2.038,2.038,0,0,1-2.044-2.026V54.142H12.555v2.491a2.038,2.038,0,0,1-2.044,2.026H9.229A2.027,2.027,0,0,1,7.2,56.633V54.151a1.848,1.848,0,0,0-1.786,1.838V70.537a1.849,1.849,0,0,0,1.839,1.85H23.638a1.851,1.851,0,0,0,1.839-1.85V55.989A1.848,1.848,0,0,0,23.691,54.151Zm-.6,15.48a.8.8,0,0,1-.8.8H8.553a.8.8,0,0,1-.8-.8V62.116a.8.8,0,0,1,.8-.8H22.3a.8.8,0,0,1,.8.8v7.514Z" transform="translate(-5.411 -51.866)"/>
      <path id="Path_734" data-name="Path 734" class="cls-1" d="M80.247,5.463h1.268a.7.7,0,0,0,.7-.7V.7a.7.7,0,0,0-.7-.7H80.247a.7.7,0,0,0-.7.7v4.07A.7.7,0,0,0,80.247,5.463Z" transform="translate(-76.433)"/>
      <path id="Path_735" data-name="Path 735" class="cls-1" d="M345.155,5.463h1.268a.7.7,0,0,0,.7-.7V.7a.7.7,0,0,0-.7-.7h-1.268a.7.7,0,0,0-.7.7v4.07A.7.7,0,0,0,345.155,5.463Z" transform="translate(-330.205)"/>
    </g>
  </g>
</svg>
