<svg width="42" height="57" viewBox="0 0 42 57" fill="none" xmlns="http://www.w3.org/2000/svg">
<path d="M14.8767 56.5478C17.6881 56.5478 19.9672 54.2687 19.9672 51.4573C19.9672 48.6459 17.6881 46.3668 14.8767 46.3668C12.0652 46.3668 9.78613 48.6459 9.78613 51.4573C9.78613 54.2687 12.0652 56.5478 14.8767 56.5478Z" fill="#CC1237"/>
<path d="M31.1857 46.3174C28.3606 46.0394 25.8451 48.1041 25.5671 50.9292C25.2891 53.7543 27.3538 56.2699 30.1789 56.5479C30.5137 56.5808 30.851 56.5808 31.1857 56.5479C34.0108 56.2699 36.0756 53.7543 35.7976 50.9292C35.5574 48.4885 33.6263 46.5575 31.1857 46.3174Z" fill="#CC1237"/>
<path d="M40.5266 26.3506C40.9819 26.3415 41.4104 26.565 41.6633 26.9437C41.9566 27.2831 42.0671 27.7436 41.9598 28.1793L38.3026 42.8084C38.1433 43.472 37.5518 43.9411 36.8693 43.9451H11.0213C10.317 43.9556 9.70933 43.4528 9.588 42.759L4.99169 21.6555H0V18.6901H6.17783C6.86029 18.694 7.45191 19.1632 7.61109 19.8268L9.04435 26.3506H40.5266Z" fill="#CC1237"/>
<g clip-path="url(#clip0)">
<path fill-rule="evenodd" clip-rule="evenodd" d="M30.269 6.08737C29.0126 2.4669 25.2245 0.0352173 20.8437 0.0352173C15.4154 0.0356683 11 3.8469 11 8.53259C11.0216 9.81025 11.348 11.0642 11.952 12.1896C12.556 13.315 13.42 14.2791 14.4717 15.0015L13.3098 17.342C13.242 17.4757 13.2296 17.6308 13.2754 17.7736C13.3211 17.9163 13.4214 18.0352 13.5542 18.1042C13.7261 18.193 13.9308 18.1867 14.0973 18.0875L17.0741 16.3738C17.8814 16.6608 18.7189 16.8537 19.5702 16.9488C19.6602 16.9591 19.7513 16.9475 19.8359 16.9151C19.9204 16.8826 19.9959 16.8302 20.056 16.7623C20.116 16.6943 20.1589 16.6129 20.1808 16.5249C20.2028 16.4368 20.2033 16.3448 20.1822 16.2565C20.0649 15.7675 20.0038 15.2667 20 14.7638C20 10.3915 24.2898 6.8333 29.5625 6.8333L29.7281 6.84096C29.8184 6.84 29.9073 6.81837 29.9881 6.77773C30.0688 6.73709 30.1392 6.67851 30.1938 6.60645C30.247 6.5324 30.2816 6.44661 30.2946 6.35634C30.3077 6.26607 30.2989 6.17397 30.269 6.08783V6.08737Z" fill="#4CAF50"/>
<path fill-rule="evenodd" clip-rule="evenodd" d="M17.1875 3.43414C16.7389 3.43534 16.3092 3.61501 15.9927 3.93367C15.6763 4.25232 15.499 4.68387 15.5 5.13344C15.499 5.58301 15.6763 6.01456 15.9927 6.33321C16.3092 6.65187 16.7389 6.83154 17.1875 6.83274C17.6361 6.83154 18.0659 6.65187 18.3823 6.33321C18.6987 6.01456 18.876 5.58301 18.875 5.13344C18.876 4.68387 18.6987 4.25232 18.3823 3.93367C18.0659 3.61501 17.6361 3.43534 17.1875 3.43414ZM23.9375 3.43414C23.4889 3.43534 23.0592 3.61501 22.7427 3.93367C22.4263 4.25232 22.249 4.68387 22.25 5.13344C22.249 5.58301 22.4263 6.01456 22.7427 6.33321C23.0592 6.65187 23.4889 6.83154 23.9375 6.83274C24.3861 6.83154 24.8159 6.65187 25.1323 6.33321C25.4487 6.01456 25.626 5.58301 25.625 5.13344C25.626 4.68387 25.4487 4.25232 25.1323 3.93367C24.8159 3.61501 24.3861 3.43534 23.9375 3.43414Z" fill="#FAFAFA"/>
<path fill-rule="evenodd" clip-rule="evenodd" d="M38 14.7632C38 11.0147 34.2155 7.96606 29.5625 7.96606C24.9095 7.96606 21.125 11.0147 21.125 14.7632C21.125 18.5122 24.9095 21.5609 29.5625 21.5609C30.4355 21.5609 31.3049 21.4495 32.15 21.2303L34.9386 22.6338C35.2167 22.7736 35.5547 22.6608 35.6937 22.3812C35.7657 22.236 35.7725 22.0673 35.7126 21.9167L34.949 19.991C35.8491 19.4402 36.5988 18.6744 37.1313 17.7621C37.6637 16.8498 37.9622 15.8195 38 14.7632Z" fill="#4CAF50"/>
<path fill-rule="evenodd" clip-rule="evenodd" d="M26.75 11.3647C26.129 11.3647 25.625 11.872 25.625 12.4975C25.6246 12.646 25.6535 12.793 25.7098 12.9302C25.7662 13.0675 25.8489 13.1923 25.9534 13.2975C26.0579 13.4027 26.182 13.4862 26.3187 13.5434C26.4553 13.6005 26.6019 13.6301 26.75 13.6304C27.371 13.6304 27.875 13.1231 27.875 12.4975C27.8754 12.3491 27.8465 12.2021 27.7902 12.0648C27.7339 11.9276 27.6511 11.8028 27.5466 11.6976C27.4422 11.5924 27.318 11.5089 27.1813 11.4517C27.0447 11.3946 26.8981 11.365 26.75 11.3647ZM32.375 11.3647C31.754 11.3647 31.25 11.872 31.25 12.4975C31.2496 12.646 31.2785 12.793 31.3348 12.9302C31.3912 13.0675 31.4739 13.1923 31.5784 13.2975C31.6829 13.4027 31.807 13.4862 31.9437 13.5434C32.0803 13.6005 32.2269 13.6301 32.375 13.6304C32.996 13.6304 33.5 13.1231 33.5 12.4975C33.5004 12.3491 33.4715 12.2021 33.4152 12.0648C33.3588 11.9276 33.2761 11.8028 33.1716 11.6976C33.0672 11.5924 32.943 11.5089 32.8063 11.4517C32.6697 11.3946 32.5231 11.365 32.375 11.3647Z" fill="#FAFAFA"/>
</g>
<defs>
<clipPath id="clip0">
<rect width="27" height="23" fill="white" transform="translate(11)"/>
</clipPath>
</defs>
</svg>
