<svg width="35" height="43" viewBox="0 0 35 43" fill="none" xmlns="http://www.w3.org/2000/svg">
<path fill-rule="evenodd" clip-rule="evenodd" d="M11.25 30.2546C13.3177 30.2546 15 28.5674 15 26.4937C15 24.4199 13.3177 22.7327 11.25 22.7327C9.18229 22.7327 7.5 24.4199 7.5 26.4937C7.5 28.5674 9.18229 30.2546 11.25 30.2546Z" fill="#282625"/>
<path fill-rule="evenodd" clip-rule="evenodd" d="M7.5 7.68903H27.5V10.1963H7.5V7.68903Z" fill="#282625"/>
<path fill-rule="evenodd" clip-rule="evenodd" d="M10 29.1247V34.4941L10.6908 34.1478C11.0426 33.9715 11.4574 33.9715 11.8092 34.1478L12.5 34.4941V29.1247C12.096 29.2076 11.6781 29.2517 11.25 29.2517C10.8219 29.2517 10.404 29.2076 10 29.1247Z" fill="#282625"/>
<path fill-rule="evenodd" clip-rule="evenodd" d="M34.2676 32.7619H25V42.0565L34.2676 32.7619Z" fill="#CB2023"/>
<path fill-rule="evenodd" clip-rule="evenodd" d="M0 41.5374V1.25364C0 0.560875 0.559245 0 1.25 0H33.75C34.4408 0 35 0.560875 35 1.25364V30.2546H23.75C23.0592 30.2546 22.5 30.8155 22.5 31.5083V42.7911H1.25C0.559245 42.7911 0 42.2302 0 41.5374ZM21.25 27.7473H28.75C29.4408 27.7473 30 27.1865 30 26.4937C30 25.8009 29.4408 25.24 28.75 25.24H21.25C20.5592 25.24 20 25.8009 20 26.4937C20 27.1865 20.5592 27.7473 21.25 27.7473ZM28.75 22.7327H21.25C20.5592 22.7327 20 22.1719 20 21.4791C20 20.7863 20.5592 20.2255 21.25 20.2255H28.75C29.4408 20.2255 30 20.7863 30 21.4791C30 22.1719 29.4408 22.7327 28.75 22.7327ZM6.25 5.18173C5.55924 5.18173 5 5.74261 5 6.43537V11.45C5 12.1427 5.55924 12.7036 6.25 12.7036H28.75C29.4408 12.7036 30 12.1427 30 11.45V6.43537C30 5.74261 29.4408 5.18173 28.75 5.18173H6.25ZM6.25 15.2109H28.75C29.4408 15.2109 30 15.7718 30 16.4645C30 17.1573 29.4408 17.7182 28.75 17.7182H6.25C5.55924 17.7182 5 17.1573 5 16.4645C5 15.7718 5.55924 15.2109 6.25 15.2109ZM17.5 26.4937C17.5 23.0377 14.696 20.2255 11.25 20.2255C7.80404 20.2255 5 23.0377 5 26.4937C5 28.5331 5.99121 30.3307 7.5 31.4763V36.5228C7.5 36.9574 7.72461 37.3602 8.0931 37.5891C8.45964 37.817 8.91829 37.8375 9.30924 37.6443L11.25 36.6711L13.1908 37.6443C13.5863 37.8411 14.0459 37.814 14.4069 37.5891C14.7754 37.3602 15 36.9574 15 36.5228V31.4763C16.5088 30.3307 17.5 28.5331 17.5 26.4937Z" fill="#CB2023"/>
</svg>
