<svg width="50" height="50" viewBox="0 0 50 50" fill="none" xmlns="http://www.w3.org/2000/svg">
<path fill-rule="evenodd" clip-rule="evenodd" d="M35 17.5C35 7.835 27.165 0 17.5 0C7.835 0 0 7.835 0 17.5C0 21.1578 1.12289 24.5529 3.04178 27.361L0.743222 34.2568L7.63911 31.9582C10.4471 33.8771 13.8422 35 17.5 35C27.165 35 35 27.165 35 17.5Z" fill="#CC6A6C"/>
<path fill-rule="evenodd" clip-rule="evenodd" d="M50 32.6014C50 24.8099 44.8777 18.216 37.8174 16C37.8377 16.3771 37.8488 16.7558 37.8488 17.136C37.8488 19.9308 37.3006 22.6436 36.2197 25.1993C35.1764 27.6661 33.6833 29.8809 31.7822 31.782C29.8811 33.6831 27.6664 35.1761 25.1996 36.2195C22.644 37.3006 19.9311 37.8486 17.1365 37.8486C16.7561 37.8486 16.3775 37.836 16 37.8156C18.2154 44.8769 24.8095 50 32.6017 50C36.2382 50 39.6136 48.8836 42.4054 46.9759L49.2612 49.2611L46.9759 42.4053C48.8836 39.6136 50 36.238 50 32.6014Z" fill="white"/>
</svg>
