<svg width="49" height="49" viewBox="0 0 49 49" fill="none" xmlns="http://www.w3.org/2000/svg">
<path d="M26.8843 18.4306L19.7296 16.0456C19.6362 16.0145 19.5491 15.9672 19.4722 15.9056L15.5672 12.7817C15.4139 12.6592 15.3088 12.4863 15.2704 12.294L14.6635 9.25991C14.5652 8.76799 14.0579 8.47361 13.582 8.63219L7.24769 10.7438C6.97714 10.8339 6.77147 11.0562 6.70228 11.3327L6.09772 13.7513C6.01542 14.0802 5.74228 14.3266 5.40656 14.3746L0.716051 15.0446C0.305197 15.1033 0 15.4552 0 15.8703V17.5051C0 17.6346 0.0301465 17.7624 0.0880469 17.8782L1.61528 20.9327C1.67318 21.0485 1.70332 21.1762 1.70332 21.3058V24.9888C1.70332 25.2293 1.80716 25.458 1.98814 25.6165L8.28081 31.1227C8.43279 31.2557 8.62802 31.329 8.83005 31.329H12.5226C12.6873 31.329 12.8482 31.3778 12.9852 31.4692L15.0426 32.8408C15.2267 32.9636 15.4519 33.0081 15.6688 32.9647L18.5909 32.3802C19.107 32.277 19.5885 32.6718 19.5885 33.198V35.242C19.5885 35.4632 19.5007 35.6752 19.3442 35.8318L19.2647 35.9113C18.9641 36.2118 18.9376 36.6901 19.2031 37.0221L21.757 40.2144C21.9865 40.5013 22.3767 40.6043 22.718 40.4677L26.0541 39.1333C26.2754 39.0448 26.5238 39.0552 26.7369 39.1617L31.1599 41.3732C31.3828 41.4847 31.6439 41.4906 31.8715 41.3894L38.9035 38.2641C39.0803 38.1855 39.2243 38.048 39.3107 37.875L42.4209 31.6544C42.5245 31.4471 42.5373 31.2057 42.4558 30.9886L40.1563 24.8561C40.0748 24.6389 40.0875 24.3977 40.1912 24.1903L40.6114 23.3499C40.7719 23.0288 40.709 22.641 40.4552 22.3872L39.0052 20.9372C38.6464 20.5783 38.6886 19.9849 39.0945 19.6803L41.1532 18.1362C41.4853 17.8872 41.9498 17.9202 42.2434 18.2137L42.8455 18.8159C43.1712 19.1415 43.6993 19.1415 44.025 18.8159L48.1202 14.7206C48.374 14.4668 48.4369 14.079 48.2764 13.758L47.8611 12.9272C47.7545 12.7142 47.7443 12.4658 47.8327 12.2445L48.9394 9.47763C49.1585 8.92983 48.7551 8.33388 48.1651 8.33388H46.3357C46.1145 8.33388 45.9025 8.24603 45.7459 8.08955L42.0657 4.40938C41.8585 4.20219 41.5579 4.11893 41.2737 4.18994L38.7265 4.82675C38.4736 4.89001 38.2649 5.06773 38.1621 5.30727L36.1272 10.0557C35.935 10.5041 36.1671 11.0211 36.63 11.1754C37.3017 11.3993 37.4065 12.3058 36.8033 12.6769L27.5848 18.3498C27.375 18.479 27.1183 18.5086 26.8843 18.4306Z" fill="#CC1237"/>
<path d="M28.957 44.525V43.5628C28.957 43.3913 29.0961 43.2523 29.2675 43.2523H31.2017C31.3732 43.2523 31.5121 43.3914 31.5121 43.5628V43.8802C31.5121 44.0138 31.4266 44.1325 31.2998 44.1748L29.3657 44.8196C29.1646 44.8865 28.957 44.7368 28.957 44.525Z" fill="#FF4B4B"/>
<path d="M26.1372 24.4566L27.0357 27.1508L29.8757 27.1728C30.2434 27.1757 30.3959 27.6448 30.1001 27.8633L27.8154 29.5505L28.6721 32.2583C28.783 32.6089 28.3838 32.8988 28.0846 32.6851L25.7741 31.0337L23.4635 32.6851C23.1644 32.8989 22.7653 32.609 22.8761 32.2583L23.7327 29.5505L21.448 27.8633C21.1523 27.6448 21.3047 27.1757 21.6724 27.1728L24.5124 27.1508L25.411 24.4566C25.5275 24.1077 26.0209 24.1077 26.1372 24.4566Z" fill="#FFCF65"/>
<path d="M36.4499 25.1204L37.0941 25.999L38.134 25.6739C38.2687 25.6319 38.3794 25.7853 38.297 25.8998L37.6605 26.7841L38.2911 27.6726C38.3727 27.7876 38.2609 27.9404 38.1266 27.8973L37.089 27.5651L36.4389 28.4394C36.3546 28.5525 36.1748 28.4934 36.1742 28.3524L36.1695 27.2629L35.137 26.9147C35.0033 26.8696 35.004 26.6804 35.138 26.6362L36.1726 26.295L36.1848 25.2056C36.1863 25.0645 36.3665 25.0065 36.4499 25.1204Z" fill="#FFCF65"/>
<path d="M32.5274 22.5014L33.6104 22.6192L34.0725 21.6325C34.1323 21.5047 34.3203 21.5266 34.3492 21.6647L34.5719 22.7312L35.653 22.8658C35.793 22.8832 35.8302 23.0688 35.7078 23.1388L34.7624 23.6802L34.9686 24.75C34.9953 24.8885 34.8303 24.9813 34.7259 24.8865L33.9189 24.1545L32.9651 24.6812C32.8416 24.7494 32.7024 24.6212 32.7603 24.4924L33.207 23.4988L32.4114 22.7544C32.3081 22.6581 32.3871 22.4862 32.5274 22.5014Z" fill="#FFCF65"/>
<path d="M34.2397 33.0602L33.5954 33.9388L32.5555 33.6137C32.4209 33.5717 32.3102 33.7251 32.3926 33.8396L33.0291 34.7239L32.3985 35.6124C32.3169 35.7274 32.4286 35.8802 32.563 35.8371L33.6006 35.5049L34.2507 36.3792C34.3349 36.4923 34.5148 36.4332 34.5153 36.2922L34.5201 35.2027L35.5526 34.8546C35.6863 34.8095 35.6857 34.6203 35.5516 34.5761L34.517 34.2349L34.5048 33.1456C34.5034 33.0045 34.3232 32.9465 34.2397 33.0602Z" fill="#FFCF65"/>
<path d="M38.1627 30.599L37.0796 30.7167L36.6176 29.73C36.5577 29.6022 36.3697 29.6241 36.3409 29.7622L36.1182 30.8288L35.037 30.9633C34.897 30.9807 34.8598 31.1663 34.9822 31.2364L35.9276 31.7778L35.7214 32.8476C35.6947 32.9861 35.8597 33.0789 35.9641 32.9841L36.7712 32.2521L37.7249 32.7788C37.8484 32.847 37.9876 32.7188 37.9297 32.5901L37.483 31.5964L38.2787 30.852C38.3818 30.7558 38.3029 30.5838 38.1627 30.599Z" fill="#FFCF65"/>
</svg>
