<svg width="43" height="37" viewBox="0 0 43 37" fill="none" xmlns="http://www.w3.org/2000/svg">
<g clip-path="url(#clip0)">
<path d="M22.0996 0H24.8809C24.8809 0.0562481 24.8924 0.157495 24.8924 0.213743C23.9692 0.0899969 23.0344 0.0224992 22.0996 0Z" fill="white"/>
<path d="M10.4438 14.0847C10.4554 13.8147 10.4554 13.5334 10.4438 13.2634C10.5823 13.2972 10.7208 13.3534 10.8362 13.4322C11.1478 13.6459 11.4479 13.8597 11.7595 14.0734" fill="white"/>
<path d="M15.7178 23.0505C15.8793 23.0618 16.0409 23.0618 16.2025 23.0843C16.0524 23.1743 15.9024 23.2643 15.7524 23.343C15.7293 23.2418 15.7178 23.1518 15.7178 23.0505Z" fill="white"/>
<path d="M7.83589 32.084C7.8936 32.039 7.96284 31.994 8.02054 31.9602C7.98592 32.1739 7.91668 32.3877 7.85897 32.6014C7.84743 32.4327 7.80127 32.2527 7.83589 32.084Z" fill="#EEEEEE"/>
<path d="M18.2568 0H20.8419C20.0456 0.0224992 19.2493 0.0787473 18.453 0.168744C18.3953 0.112496 18.3261 0.0562481 18.2568 0Z" fill="#FCFFFD"/>
<path d="M12.1738 34.5263C12.0238 34.605 11.8738 34.695 11.7353 34.7738C11.3083 35.0213 10.8697 35.2575 10.4427 35.505C10.2581 35.6175 10.0619 35.7187 9.87726 35.8312C9.63491 35.9662 9.38102 36.1012 9.13867 36.2475C8.68859 36.495 8.25005 36.765 7.79997 36.9899C7.47683 37.0574 7.10754 36.9337 6.95751 36.63C6.81902 36.3825 6.89981 36.1012 6.98059 35.8537C7.096 35.4263 7.2114 35.01 7.32681 34.5825C7.44221 34.155 7.55762 33.7388 7.67302 33.3113C7.74227 33.0863 7.79997 32.8501 7.85767 32.6138C7.91537 32.4001 7.98462 32.1976 8.01924 31.9726C8.05386 31.6801 7.98462 31.3876 7.84613 31.1289C7.73073 30.9489 7.59224 30.8027 7.41913 30.6789C7.10754 30.4539 6.80748 30.2402 6.50743 30.0039C6.27662 29.8239 6.05735 29.6327 5.82654 29.4415C5.61881 29.2615 5.41108 29.0815 5.21489 28.9015C4.94946 28.654 4.69557 28.3952 4.45322 28.1365C4.25703 27.934 4.06084 27.7203 3.87619 27.5065C3.70308 27.304 3.52998 27.0903 3.36841 26.8878C3.10298 26.5503 2.84909 26.1903 2.59519 25.8303C2.54903 25.7628 2.50287 25.6841 2.44517 25.6053C2.17974 25.2003 1.93739 24.7729 1.70657 24.3454C1.54501 24.0416 1.39498 23.7266 1.25649 23.4229C1.21033 23.2992 1.15263 23.1867 1.10647 23.0629C0.921819 22.6354 0.771793 22.1967 0.633306 21.7467C0.506361 21.3305 0.402496 20.9255 0.310172 20.498C0.217848 20.0705 0.148605 19.6318 0.090902 19.2043C-0.0706652 17.9218 -0.0475842 16.6281 0.148605 15.3457C0.217848 14.9294 0.287091 14.5132 0.390956 14.1082C0.49482 13.6807 0.610225 13.2533 0.760252 12.837C0.898738 12.3983 1.08339 11.9708 1.25649 11.5546L1.26803 11.5208C1.46422 11.0933 1.67195 10.6771 1.90276 10.2609C2.41055 9.36088 2.99911 8.50591 3.66846 7.70719C3.74925 7.61719 3.81849 7.5272 3.89927 7.4372C4.19933 7.09971 4.51092 6.76222 4.82252 6.44723C4.93792 6.33474 5.05333 6.22224 5.18027 6.0985C5.51495 5.78351 5.86116 5.47977 6.20738 5.18728C6.31124 5.09728 6.41511 5.01853 6.51897 4.93979C7.33835 4.29856 8.20389 3.71358 9.11559 3.19609C9.47334 2.9936 9.8311 2.80236 10.2004 2.61111C10.2812 2.56611 10.3735 2.53237 10.4543 2.48737C10.8813 2.28487 11.3198 2.08238 11.7584 1.90239C12.6124 1.55365 13.4894 1.24991 14.3781 0.991168C14.8512 0.856173 15.3244 0.732427 15.7975 0.63118C16.1899 0.541183 16.5938 0.462436 16.9862 0.394938C17.4709 0.304941 17.9556 0.237444 18.4403 0.181195C19.2366 0.0911985 20.0329 0.0349504 20.8292 0.0124512H22.0871C23.0219 0.0349504 23.9452 0.102448 24.8799 0.226194C25.3185 0.282442 25.757 0.34994 26.184 0.428687C26.6226 0.507434 27.0611 0.597431 27.4881 0.698678C27.9266 0.799925 28.3652 0.912421 28.8037 1.04742C29.7039 1.30616 30.581 1.6324 31.4465 1.99238C31.885 2.17238 32.312 2.38612 32.739 2.58861L32.7737 2.59986C33.2006 2.82486 33.6392 3.04985 34.0546 3.29734C34.9779 3.83732 35.855 4.4448 36.6859 5.11978C36.709 5.13103 36.732 5.16478 36.7551 5.17603C37.1706 5.52477 37.5745 5.8735 37.9669 6.25599C38.0361 6.32349 38.0938 6.37974 38.1631 6.44723C38.4747 6.75097 38.7632 7.07721 39.0517 7.40345C38.8786 7.47095 38.7055 7.5497 38.5439 7.62844C38.3477 7.70719 38.1515 7.79719 37.9553 7.87594C37.5283 8.05593 37.1013 8.24717 36.6743 8.43842C36.2935 8.60716 35.9127 8.76466 35.5318 8.9334C35.4741 8.9559 35.4164 8.9784 35.3703 9.0009C34.9317 9.19214 34.4932 9.38338 34.0546 9.57463C33.1776 9.95712 32.3005 10.3396 31.4234 10.7221C30.5579 11.0933 29.6808 11.4758 28.8153 11.8583C28.3767 12.0495 27.9382 12.2408 27.4996 12.432C27.2227 12.5445 26.9572 12.6683 26.6803 12.792C26.5072 12.8595 26.3456 12.9383 26.1725 13.0058C25.7339 13.197 25.2839 13.3882 24.8453 13.5795C24.4876 13.737 24.1298 13.8945 23.772 14.052C23.7028 14.0857 23.622 14.1195 23.5528 14.142C23.1142 14.3332 22.6757 14.5245 22.2372 14.7157C21.3601 15.0982 20.483 15.4807 19.6059 15.8632C18.9366 16.1557 18.2672 16.4481 17.5979 16.7406C17.4017 16.8306 17.194 16.9094 16.9862 16.9544C16.5477 17.0219 16.0976 16.9769 15.6937 16.7969C15.6014 16.7519 15.4975 16.6956 15.4052 16.6394C15.0705 16.4031 14.7243 16.1669 14.3896 15.9307C14.1126 15.7394 13.8357 15.5482 13.5587 15.3569C13.3971 15.2444 13.224 15.1207 13.0624 15.0082C12.6354 14.7157 12.2084 14.412 11.793 14.1195C11.7814 14.1195 11.7699 14.1082 11.7584 14.097C11.4468 13.8832 11.1467 13.6695 10.8351 13.4557C10.7197 13.377 10.5812 13.3208 10.4427 13.287C9.98113 13.2645 9.57721 13.692 9.68107 14.142C10.0504 14.9857 10.4658 15.8182 10.8467 16.6619C11.0544 17.1006 11.2506 17.5394 11.4583 17.9781C11.5391 18.1468 11.6199 18.3268 11.7007 18.4956C11.8161 18.7431 11.9315 18.9906 12.0469 19.2381C12.2431 19.6543 12.4393 20.0818 12.6354 20.498C12.7624 20.768 12.8893 21.038 13.0163 21.308C13.0855 21.4655 13.1663 21.623 13.2356 21.7805C13.4664 22.2192 13.6164 22.7142 13.928 23.1192C14.0549 23.2317 14.1934 23.3329 14.3434 23.4229C14.782 23.6367 15.3128 23.6029 15.7398 23.3667C15.8899 23.2767 16.0399 23.1867 16.1899 23.1079C16.4669 22.9617 16.7439 22.8042 17.0208 22.6467C17.8979 22.1517 18.775 21.6567 19.6521 21.1617C20.0329 20.948 20.4022 20.7342 20.7831 20.5205C20.8408 20.4868 20.91 20.453 20.9677 20.4193C21.4062 20.1718 21.8448 19.9243 22.2718 19.688C22.5257 19.553 22.768 19.4068 23.0104 19.2718C23.2066 19.1593 23.3912 19.0581 23.5874 18.9456C24.0259 18.6981 24.4529 18.4506 24.8915 18.2143C25.03 18.1356 25.1569 18.0681 25.2839 17.9893C25.5955 17.8206 25.8955 17.6406 26.2071 17.4719C27.0842 16.9769 27.9613 16.4931 28.8383 15.9982C29.173 15.8069 29.5077 15.6269 29.8424 15.4357C29.9462 15.3794 30.0385 15.3232 30.1424 15.2669C30.581 15.0194 31.0195 14.772 31.458 14.5245C31.6888 14.4007 31.9081 14.2657 32.1389 14.142C32.3467 14.0295 32.5544 13.917 32.7621 13.7932C33.6507 13.2983 34.5278 12.792 35.4164 12.297C35.8319 12.0608 36.2473 11.8358 36.6628 11.5996C36.6974 11.5771 36.7321 11.5658 36.7667 11.5433C37.1937 11.3071 37.6322 11.0596 38.0592 10.8121C38.3708 10.6433 38.6709 10.4633 38.9824 10.2946C39.1094 10.2271 39.2248 10.1596 39.3517 10.0921C39.7672 9.86712 40.1711 9.61963 40.5981 9.41713C40.7481 9.72087 40.9443 9.99086 41.0944 10.2946C41.3252 10.7221 41.556 11.1608 41.7522 11.5996C41.8099 11.7233 41.856 11.8583 41.9137 11.982C42.0407 12.2745 42.1446 12.5783 42.2484 12.882C42.3869 13.287 42.5023 13.7032 42.6062 14.1195C42.71 14.547 42.7908 14.9744 42.8601 15.4019C42.9178 15.8294 42.9639 16.2457 42.987 16.6731C43.0101 17.1006 43.0216 17.5281 43.0101 17.9556C42.9986 18.3831 42.9639 18.8106 42.9178 19.2381C42.8716 19.6655 42.7908 20.0818 42.71 20.5093C42.6177 20.9367 42.5138 21.353 42.3869 21.7692C42.1099 22.6579 41.7522 23.5242 41.3136 24.3566C40.8405 25.2566 40.2865 26.1116 39.6518 26.9103C39.5364 27.0565 39.421 27.1915 39.3056 27.3265C39.0632 27.6078 38.8209 27.889 38.567 28.159C38.3823 28.3502 38.2092 28.5302 38.0246 28.7102C37.7476 28.969 37.4706 29.2277 37.1821 29.4752C37.0321 29.6102 36.8821 29.7339 36.732 29.8577C36.3512 30.1614 35.9704 30.4539 35.5665 30.7352C35.5088 30.7802 35.4511 30.8139 35.3934 30.8589C34.9664 31.1514 34.5278 31.4326 34.0662 31.7026C33.8931 31.8039 33.7084 31.9051 33.5353 32.0064C33.2814 32.1414 33.0275 32.2764 32.7737 32.4114C32.3467 32.6251 31.9081 32.8276 31.458 33.0188C31.2503 33.1088 31.0426 33.1876 30.8348 33.2776C30.604 33.3676 30.3617 33.4576 30.1193 33.5363C29.6923 33.6938 29.2653 33.8288 28.8383 33.9526C28.3883 34.0875 27.9382 34.2 27.4766 34.3125C27.0842 34.4025 26.6918 34.4813 26.311 34.56C26.2879 34.56 26.2417 34.5713 26.2186 34.5713C25.7801 34.65 25.3416 34.7175 24.903 34.7738C24.4645 34.83 24.0259 34.875 23.5874 34.9088C23.1489 34.9425 22.7103 34.965 22.2718 34.9763C21.8332 34.9875 21.3947 34.9875 20.9562 34.9763C20.5176 34.965 20.0791 34.9425 19.6405 34.92C19.202 34.8863 18.7635 34.8525 18.3249 34.7963C17.9325 34.7513 17.5402 34.6838 17.1478 34.6275C17.0093 34.605 16.8708 34.5713 16.7208 34.56C16.3861 34.4925 16.0399 34.425 15.7052 34.3463C15.2551 34.245 14.8166 34.1325 14.3781 34.0088C13.9511 33.8963 13.4779 33.9301 13.0624 34.0875" fill="#00C800"/>
<path d="M24.8809 0H26.208C26.208 0.134995 26.208 0.281241 26.1965 0.416236C25.7579 0.337489 25.3309 0.269991 24.8924 0.213743C24.8924 0.157495 24.8809 0.0562481 24.8809 0Z" fill="#EEEEEF"/>
<path d="M31.5287 14.0846C31.7249 14.0508 31.9326 14.0846 32.1404 14.1071C31.9096 14.2308 31.6903 14.3658 31.4595 14.4896C31.4826 14.3658 31.4133 14.1746 31.5287 14.0846Z" fill="#EDEFEF"/>
<path d="M24.9158 17.9431C25.0428 17.9544 25.1697 17.9544 25.2967 17.9544C25.1697 18.0331 25.0312 18.1006 24.9043 18.1794C24.9043 18.1006 24.9158 18.0219 24.9158 17.9431Z" fill="#D9EBD7"/>
<path d="M3.88917 27.4827C4.07382 27.6964 4.27001 27.9101 4.4662 28.1126C4.29309 28.1239 4.0969 28.1914 3.92379 28.1126C3.84301 27.9214 3.90071 27.6964 3.88917 27.4827Z" fill="#FFFDFF"/>
<path d="M9.86719 35.8189C10.0518 35.7064 10.248 35.6052 10.4327 35.4927C10.4211 35.6052 10.4211 35.7177 10.4096 35.8302C10.2365 35.8302 10.0518 35.8302 9.86719 35.8189Z" fill="#F8FFFD"/>
</g>
<defs>
<clipPath id="clip0">
<rect width="43" height="37" fill="white"/>
</clipPath>
</defs>
</svg>
