<svg width="47" height="40" viewBox="0 0 47 40" fill="none" xmlns="http://www.w3.org/2000/svg">
<g clip-path="url(#clip0)">
<path d="M45.907 10.147H1.09298C0.803102 10.147 0.525099 10.2603 0.320126 10.462C0.115153 10.6637 0 10.9373 0 11.2225L0 36.8657C0.000261003 37.6969 0.335947 38.494 0.933267 39.0817C1.53059 39.6694 2.34065 39.9997 3.18539 40H43.8126C44.2312 40.0001 44.6456 39.9191 45.0323 39.7616C45.419 39.6041 45.7704 39.3732 46.0664 39.082C46.3624 38.7909 46.5972 38.4452 46.7574 38.0648C46.9175 37.6843 47 37.2765 47 36.8647V11.2225C47 10.9373 46.8848 10.6637 46.6799 10.462C46.4749 10.2603 46.1969 10.147 45.907 10.147ZM43.8176 0H3.18637C2.3413 0 1.53083 0.330323 0.933267 0.918302C0.335706 1.50628 0 2.30375 0 3.13528L0 5.85879C0 6.14401 0.115153 6.41756 0.320126 6.61925C0.525099 6.82093 0.803102 6.93424 1.09298 6.93424H45.907C46.1969 6.93424 46.4749 6.82093 46.6799 6.61925C46.8848 6.41756 47 6.14401 47 5.85879V3.13528C47 2.30442 46.6648 1.50754 46.0681 0.919671C45.4714 0.331803 44.662 0.00102702 43.8176 0V0ZM5.17244 6.17561H5.13896C4.77335 6.17561 4.42272 6.0327 4.1642 5.77832C3.90567 5.52394 3.76043 5.17893 3.76043 4.81918C3.76043 4.45944 3.90567 4.11443 4.1642 3.86005C4.42272 3.60567 4.77335 3.46276 5.13896 3.46276H5.17244C5.53805 3.46276 5.88869 3.60567 6.14721 3.86005C6.40573 4.11443 6.55097 4.45944 6.55097 4.81918C6.55097 5.17893 6.40573 5.52394 6.14721 5.77832C5.88869 6.0327 5.53805 6.17561 5.17244 6.17561ZM10.4552 4.95095C10.4432 5.08441 10.41 5.2152 10.3567 5.3385C10.3228 5.42101 10.2799 5.49964 10.2287 5.57297C10.0794 5.79819 9.86362 5.973 9.61032 6.07388C9.44248 6.14044 9.26349 6.1756 9.08254 6.17755C8.94661 6.17791 8.81144 6.15765 8.68179 6.11748C8.596 6.09247 8.51264 6.06005 8.43267 6.02059C8.27198 5.93765 8.13023 5.82323 8.01615 5.68439C7.92891 5.58177 7.85848 5.46637 7.8074 5.34238C7.75672 5.21823 7.72358 5.08783 7.70894 4.95483C7.67976 4.66485 7.74627 4.37333 7.89861 4.12344C8.05095 3.87356 8.28102 3.67858 8.55476 3.5674C8.76499 3.48358 8.99252 3.45036 9.21843 3.47051C9.4439 3.49205 9.66043 3.56828 9.84861 3.69238C10.001 3.78986 10.1318 3.91653 10.2333 4.06485C10.3348 4.21317 10.4049 4.38009 10.4394 4.55565C10.466 4.68702 10.4726 4.82154 10.4591 4.95483L10.4552 4.95095ZM14.3938 4.95095C14.3854 5.03941 14.3675 5.12676 14.3407 5.21158C14.3138 5.2962 14.2792 5.37825 14.2373 5.4567C14.1313 5.65517 13.9758 5.82387 13.7853 5.94695C13.6733 6.02101 13.5504 6.07786 13.421 6.11554C13.2914 6.15591 13.1562 6.17617 13.0202 6.17561C12.8843 6.17591 12.7491 6.15565 12.6195 6.11554C12.4908 6.07553 12.3682 6.01849 12.2551 5.94599C12.1044 5.84631 11.975 5.71861 11.8741 5.57006C11.7728 5.42388 11.7025 5.25913 11.6673 5.08562C11.6398 4.95436 11.6332 4.81971 11.6476 4.68645C11.6646 4.50934 11.7175 4.33738 11.8032 4.1807C11.8453 4.10196 11.8955 4.02763 11.9528 3.95882C12.0109 3.88894 12.077 3.82587 12.1498 3.77086C12.2186 3.71311 12.2939 3.66337 12.3743 3.62262C12.4541 3.58289 12.5375 3.55045 12.6234 3.52574C12.7101 3.50108 12.7987 3.48358 12.8883 3.47342C13.0689 3.45492 13.2515 3.47272 13.4249 3.52574C13.5107 3.55059 13.5941 3.58301 13.674 3.62262C13.7944 3.68438 13.9041 3.76449 13.999 3.86C14.0644 3.92195 14.1222 3.99121 14.1713 4.06637C14.2471 4.17677 14.3053 4.29801 14.3436 4.42582C14.3965 4.59667 14.4146 4.77612 14.3968 4.95386L14.3938 4.95095Z" fill="#CB2023"/>
<path fill-rule="evenodd" clip-rule="evenodd" d="M18.6409 29.913C18.0507 29.9491 17.4599 29.8511 16.9144 29.6264C16.3688 29.4018 15.8831 29.0566 15.4949 28.6176C14.6714 27.4254 14.2871 25.9919 14.4059 24.5551C14.2908 23.1239 14.6662 21.696 15.4723 20.4994C15.8366 20.065 16.2995 19.7208 16.8237 19.4946C17.3479 19.2685 17.9187 19.1666 18.4903 19.1972C19.1987 19.1858 19.901 19.328 20.5473 19.6138C20.8097 19.718 21.0583 19.853 21.2877 20.0159L20.6073 21.2067H20.4557C19.9486 20.7822 19.3067 20.5453 18.6409 20.5372C18.3216 20.5329 18.0072 20.6154 17.7324 20.7756C17.4575 20.9358 17.2329 21.1674 17.0832 21.445C16.6343 22.419 16.442 23.4886 16.5239 24.5551C16.4381 25.6265 16.6387 26.7014 17.1059 27.6729C17.2787 27.9584 17.5266 28.1928 17.8235 28.3514C18.1203 28.51 18.4551 28.5869 18.7926 28.574C19.2567 28.5737 19.7136 28.4609 20.1229 28.2455C20.2978 28.1512 20.4605 28.0364 20.6073 27.9035H20.759L21.4384 29.0943C21.2127 29.2667 20.9634 29.4069 20.6979 29.5109C20.0504 29.7913 19.3482 29.9286 18.6409 29.913ZM23.0276 19.3464H25.2924L27.9391 25.5966L28.2109 26.2516L28.332 26.5645H28.3921L28.3468 26.2516C28.3215 26.0342 28.3116 25.8154 28.3172 25.5966V19.3464H30.4343V29.7638H28.1695L25.5228 23.5136L25.251 22.8586L25.1299 22.5456H25.0688L25.0984 22.8586C25.1299 23.2461 25.1447 23.4641 25.1447 23.5136V29.7638H23.0276V19.3464Z" fill="white"/>
</g>
<defs>
<clipPath id="clip0">
<rect width="47" height="40" fill="white"/>
</clipPath>
</defs>
</svg>
