<?xml version="1.0" encoding="UTF-8"?>
<svg width="48px" height="42px" viewBox="0 0 48 42" version="1.1" xmlns="http://www.w3.org/2000/svg" xmlns:xlink="http://www.w3.org/1999/xlink">
    <!-- Generator: Sketch 50.2 (55047) - http://www.bohemiancoding.com/sketch -->
    <title>browser</title>
    <desc>Created with Sketch.</desc>
    <defs></defs>
    <g id="Design" stroke="none" stroke-width="1" fill="none" fill-rule="evenodd">
        <g id="development-5" transform="translate(-234.000000, -2769.000000)">
            <g id="Group-21" transform="translate(-7.000000, 1838.000000)">
                <g id="Group-23" transform="translate(241.000000, 924.000000)">
                    <g id="browser" transform="translate(0.000000, 7.000000)">
                        <path d="M46.6216795,10.4727273 L1.10994454,10.4727273 C0.496892694,10.4727273 0,10.9695267 0,11.5825786 L0,38.049526 C0,39.8364752 1.44863331,41.2850152 3.23548927,41.2850152 L44.4959483,41.2850152 C46.2828975,41.2850152 47.7315308,39.8363819 47.7315308,38.0494327 L47.7315308,11.5825786 C47.7315308,10.9695267 47.2347313,10.4727273 46.6216795,10.4727273 Z" id="Shape" fill="#FFFFFF" fill-rule="nonzero"></path>
                        <path d="M44.4959483,0 L3.2355825,0 C1.44863331,0 0,1.44863331 0,3.2355825 L0,6.04745444 C0,6.66041306 0.496892694,7.15739898 1.10994454,7.15739898 L46.6217727,7.15739898 C47.2347313,7.15739898 47.7317173,6.66050629 47.7317173,6.04745444 L47.7317173,3.2355825 C47.7315308,1.44863331 46.2829907,0 44.4959483,0 Z M5.2527058,6.37383742 L5.21933102,6.37383742 C4.44527848,6.37383742 3.81768343,5.74624238 3.81768343,4.97218984 C3.81768343,4.1981373 4.44527848,3.57054225 5.21933102,3.57054225 L5.2527058,3.57054225 C6.02675834,3.57054225 6.65435339,4.1981373 6.65435339,4.97218984 C6.65435339,5.74624238 6.02685157,6.37383742 5.2527058,6.37383742 Z M10.6177485,5.10997734 C10.6130872,5.15565791 10.6065614,5.2014317 10.5971456,5.24636646 C10.5878231,5.29027574 10.576636,5.33502405 10.5634912,5.37902655 C10.5504396,5.42293583 10.534498,5.46591286 10.5167851,5.50795762 C10.5000045,5.55000239 10.4803339,5.59195393 10.458892,5.63222741 C10.4373569,5.67240766 10.4131182,5.71249469 10.3878541,5.7499714 C10.3625899,5.78828714 10.3355545,5.82567063 10.3065613,5.8611896 C10.2775681,5.89670857 10.2468037,5.93129528 10.2140815,5.96308523 C10.1813593,5.99580743 10.1467725,6.02666512 10.1112536,6.05547184 C10.0766669,6.08455824 10.0392834,6.11243271 10.0009676,6.13779009 C9.9626519,6.16305424 9.9234039,6.18636065 9.88322365,6.20789577 C9.84304339,6.22924445 9.80099863,6.24891506 9.75895386,6.26672116 C9.71690909,6.28350177 9.67393207,6.29944336 9.63002279,6.31240172 C9.58611351,6.32554654 9.54127198,6.3377591 9.4973627,6.34605618 C9.45158891,6.35547197 9.40581511,6.36190454 9.36097358,6.36665905 C9.31519979,6.37141356 9.26849374,6.3741171 9.22271994,6.3741171 C9.17787841,6.3741171 9.13117236,6.37141356 9.08539857,6.36665905 C9.03962478,6.36199777 8.99385098,6.3555652 8.94900945,6.34605618 C8.90510017,6.33766587 8.86025863,6.32545331 8.81634935,6.31240172 C8.77244007,6.29935013 8.72946305,6.28340855 8.68741828,6.26672116 C8.64537352,6.24900828 8.60332875,6.22933767 8.5631485,6.20789577 C8.52296824,6.18636065 8.48278799,6.16305424 8.44540451,6.13779009 C8.40708877,6.11243271 8.36970528,6.08455824 8.33418631,6.05547184 C8.29866734,6.02647867 8.26408063,5.99562098 8.23229068,5.96308523 C8.19956848,5.93129528 8.16871079,5.89670857 8.13981084,5.8611896 C8.11063121,5.82567063 8.08266352,5.78838037 8.05739937,5.75006463 C8.03213522,5.71268114 8.00882881,5.67250089 7.98729368,5.63232064 C7.96575856,5.59204716 7.94618117,5.55009562 7.9284683,5.50805085 C7.91168768,5.46600608 7.8957461,5.42302906 7.88269451,5.37911978 C7.86964292,5.33511728 7.85743036,5.29036897 7.84904005,5.24645969 C7.83971748,5.20161815 7.83319169,5.15575113 7.82843718,5.11007057 C7.8237759,5.06429677 7.82097913,5.01852298 7.82097913,4.97265596 C7.82097913,4.9269754 7.8237759,4.88026935 7.82843718,4.83449556 C7.83309846,4.78965402 7.83962426,4.74294797 7.84904005,4.69810644 C7.85743036,4.65410393 7.86964292,4.60935562 7.88269451,4.56544634 C7.8957461,4.52144384 7.91168768,4.47846681 7.9284683,4.43651527 C7.94618117,4.39447051 7.96585178,4.35242574 7.98729368,4.31224549 C8.00882881,4.27197201 8.03213522,4.23188498 8.05739937,4.19440827 C8.08266352,4.15618575 8.11063121,4.11870905 8.13962439,4.0832833 C8.16861756,4.04776433 8.19938203,4.01317761 8.23210423,3.98138767 C8.26389417,3.94857224 8.29848089,3.91771455 8.33399986,3.88890783 C8.36951883,3.85982143 8.40690232,3.83194696 8.44521806,3.80668281 C8.48260154,3.78132543 8.52278179,3.75801902 8.56296205,3.73657712 C8.6031423,3.715042 8.64518707,3.69546461 8.68723183,3.67775174 C8.7292766,3.6608779 8.77225362,3.64493631 8.8161629,3.63197795 C8.86007218,3.61892636 8.90491372,3.60764605 8.948823,3.59832349 C8.99366453,3.58900092 9.03943832,3.58247513 9.08521212,3.57772062 C9.1767597,3.56839806 9.26933277,3.56839806 9.36088035,3.57772062 C9.40572189,3.5823819 9.45149568,3.5889077 9.49726947,3.59832349 C9.54117875,3.60773928 9.58602029,3.61892636 9.62992957,3.63197795 C9.67383885,3.64493631 9.71681587,3.66097112 9.75886063,3.67775174 C9.8009054,3.69537139 9.84295017,3.715042 9.88313042,3.73657712 C9.92331067,3.75801902 9.96255867,3.78132543 10.0008744,3.80668281 C10.0391902,3.83194696 10.0765736,3.85982143 10.1111604,3.88890783 C10.1466793,3.917901 10.181266,3.94866547 10.2139882,3.98138767 C10.2467104,4.01317761 10.2775681,4.04776433 10.3064681,4.0832833 C10.3354613,4.11880227 10.3624967,4.15618575 10.3877608,4.19440827 C10.413025,4.23179175 10.4372637,4.27197201 10.4587988,4.31224549 C10.4803339,4.35242574 10.4999113,4.39447051 10.5166919,4.43651527 C10.5344048,4.47846681 10.5503464,4.52144384 10.563398,4.56544634 C10.5764496,4.60935562 10.5877299,4.65410393 10.5970524,4.69810644 C10.606375,4.74285475 10.6129008,4.78956079 10.6176553,4.83449556 C10.6223166,4.88026935 10.6241811,4.9269754 10.6241811,4.97265596 C10.6242743,5.01833653 10.6224098,5.06420355 10.6177485,5.10997734 Z M14.615171,5.10997734 C14.6105097,5.15565791 14.6039839,5.2014317 14.5945681,5.24636646 C14.5861778,5.29027574 14.5748975,5.33502405 14.5609137,5.37902655 C14.5478621,5.42293583 14.5319205,5.46591286 14.5151399,5.50795762 C14.497427,5.55000239 14.4777564,5.59195393 14.4563145,5.63222741 C14.4347794,5.67240766 14.411473,5.71249469 14.3862088,5.7499714 C14.3609447,5.78828714 14.332977,5.82567063 14.3039838,5.8611896 C14.2749906,5.89670857 14.2442261,5.93129528 14.2115039,5.96308523 C14.179714,5.99580743 14.1451273,6.02666512 14.1096083,6.05547184 C14.0740893,6.08455824 14.0367059,6.11243271 13.9983901,6.13779009 C13.9610066,6.16305424 13.9208264,6.18636065 13.8806461,6.20789577 C13.8404659,6.22924445 13.7984211,6.24891506 13.7563763,6.26672116 C13.7143316,6.28350177 13.6713546,6.29944336 13.6274453,6.31240172 C13.583536,6.32554654 13.5386945,6.3377591 13.4947852,6.34605618 C13.4499436,6.35547197 13.4041698,6.36190454 13.3583961,6.36665905 C13.3126223,6.37141356 13.2668485,6.3741171 13.2210747,6.3741171 C13.1753009,6.3741171 13.1285948,6.37141356 13.082821,6.36665905 C13.0379795,6.36199777 12.9922057,6.3555652 12.9473642,6.34605618 C12.9025226,6.33766587 12.8576811,6.32545331 12.8137718,6.31240172 C12.7707948,6.29935013 12.7268855,6.28340855 12.6848408,6.26672116 C12.642796,6.24900828 12.6007512,6.22933767 12.560571,6.20789577 C12.5203907,6.18636065 12.4811427,6.16305424 12.442827,6.13779009 C12.4045112,6.11243271 12.3671278,6.08455824 12.332541,6.05547184 C12.2970221,6.02647867 12.2624354,5.99562098 12.2297132,5.96308523 C12.196991,5.93129528 12.1661333,5.89670857 12.1372333,5.8611896 C12.1082401,5.8255774 12.0812047,5.78828714 12.0559406,5.7499714 C12.0306764,5.71258792 12.0064377,5.67240766 11.9849026,5.63222741 C11.9633675,5.59195393 11.9437901,5.55000239 11.9270095,5.50795762 C11.9092966,5.46591286 11.893355,5.42293583 11.8803034,5.37902655 C11.8672518,5.33502405 11.8559715,5.29027574 11.846649,5.24636646 C11.8373264,5.20152492 11.8308006,5.15565791 11.8261393,5.10997734 C11.8214781,5.06420355 11.8196135,5.01842976 11.8196135,4.97256274 C11.8196135,4.92688217 11.8214781,4.88017612 11.8261393,4.83440233 C11.8308006,4.78956079 11.8373264,4.74285475 11.846649,4.69801321 C11.8559715,4.65401071 11.8672518,4.6092624 11.8803034,4.56535312 C11.893355,4.52135061 11.9092966,4.47837359 11.9270095,4.43642205 C11.9437901,4.39437728 11.9634607,4.35233251 11.9849026,4.31215226 C12.0064377,4.27187878 12.0306764,4.23179175 12.0559406,4.19431504 C12.0812047,4.15609253 12.1082401,4.11861582 12.1372333,4.08319007 C12.1662265,4.04776433 12.196991,4.01308439 12.2297132,3.98129444 C12.2624354,3.94847902 12.2970221,3.91762133 12.332541,3.8888146 C12.3671278,3.8597282 12.4045112,3.83185373 12.442827,3.80658958 C12.4811427,3.78123221 12.5203907,3.75792579 12.560571,3.7364839 C12.6007512,3.71494877 12.642796,3.69537139 12.6848408,3.67765851 C12.7268855,3.66078467 12.7707948,3.64484309 12.8137718,3.63188472 C12.8576811,3.61883313 12.9025226,3.60755283 12.9473642,3.59823026 C12.9922057,3.5889077 13.0379795,3.5823819 13.082821,3.5776274 C13.1743686,3.56830483 13.2669417,3.56830483 13.3584893,3.5776274 C13.4042631,3.58228868 13.4500369,3.58881447 13.4948784,3.59823026 C13.5397199,3.60764605 13.5836292,3.61883313 13.6275385,3.63188472 C13.6714478,3.64493631 13.7144248,3.6608779 13.7564696,3.67765851 C13.7994466,3.69527816 13.8405591,3.71494877 13.8807394,3.7364839 C13.9209196,3.75792579 13.9610999,3.78123221 13.9984833,3.80658958 C14.0367991,3.83185373 14.0741826,3.8597282 14.1097015,3.8888146 C14.1452205,3.91780778 14.1798072,3.94857224 14.2115972,3.98129444 C14.2443194,4.01308439 14.2751771,4.0476711 14.304077,4.08319007 C14.3330702,4.11870905 14.3610379,4.15609253 14.386302,4.19431504 C14.4115662,4.23169853 14.4348726,4.27187878 14.4564077,4.31215226 C14.4779428,4.35233251 14.4975202,4.39437728 14.5152331,4.43642205 C14.5320137,4.47837359 14.5479553,4.52135061 14.5610069,4.56535312 C14.5749907,4.6092624 14.586271,4.65401071 14.5946614,4.69801321 C14.6039839,4.74276152 14.6105097,4.78946757 14.6152642,4.83440233 C14.6199255,4.88017612 14.6227223,4.92688217 14.6227223,4.97256274 C14.622629,5.01833653 14.6198323,5.06420355 14.615171,5.10997734 Z" id="Shape" fill="#FFFFFF" fill-rule="nonzero"></path>
                        <path d="M18.9312,30.8736 C17.538553,30.8736 16.4736037,30.4281645 15.73632,29.53728 C14.9990363,28.6463955 14.6304,27.2486495 14.6304,25.344 C14.6304,23.4495905 14.9913564,22.0544045 15.71328,21.1584 C16.4352036,20.2623955 17.4566334,19.8144 18.7776,19.8144 C19.5558439,19.8144 20.2521569,19.9577586 20.86656,20.24448 C21.1430414,20.3571206 21.3939189,20.4953592 21.6192,20.6592 L20.928,21.888 L20.7744,21.888 C20.6617594,21.7855995 20.4979211,21.6729606 20.28288,21.55008 C19.8323177,21.3145588 19.3817623,21.1968 18.9312,21.1968 C18.2553566,21.1968 17.7280019,21.5091169 17.34912,22.13376 C16.9702381,22.7584031 16.7808,23.8284724 16.7808,25.344 C16.7808,26.8697676 16.977918,27.9423969 17.37216,28.56192 C17.766402,29.1814431 18.3372763,29.4912 19.0848,29.4912 C19.5558424,29.4912 20.0063978,29.3785611 20.43648,29.15328 C20.6617611,29.0201593 20.8255995,28.9024005 20.928,28.8 L21.0816,28.8 L21.7728,30.0288 C21.567999,30.1926408 21.3171215,30.3359994 21.02016,30.45888 C20.426237,30.7353614 19.729924,30.8736 18.9312,30.8736 Z M23.3856,19.968 L25.6896,19.968 L28.3776,26.4192 L28.65408,27.09504 L28.77696,27.4176 L28.8384,27.4176 L28.79232,27.09504 C28.7718399,26.9721594 28.7616,26.7468816 28.7616,26.4192 L28.7616,19.968 L30.912,19.968 L30.912,30.72 L28.608,30.72 L25.92,24.2688 L25.64352,23.59296 L25.52064,23.2704 L25.4592,23.2704 L25.48992,23.59296 C25.5206402,23.992322 25.536,24.2175997 25.536,24.2688 L25.536,30.72 L23.3856,30.72 L23.3856,19.968 Z" id="CN" fill="#CC6A6C"></path>
                    </g>
                </g>
            </g>
        </g>
    </g>
</svg>