<svg xmlns="http://www.w3.org/2000/svg" viewBox="0 0 80.596 78.359">
  <defs>
    <style>
      .cls-1 {
        fill: #cb2023;
      }

      .cls-2 {
        fill: #282625;
      }

      .cls-3 {
        fill: #fcfcfc;
      }
    </style>
  </defs>
  <g id="Иллюстрация_2" data-name="Иллюстрация 2" transform="translate(40.298 39.179)">
    <g id="Иллюстрация_2-2" data-name="Иллюстрация 2" transform="translate(-40.298 -39.179)">
      <path id="Path_53" data-name="Path 53" class="cls-1" d="M27.825,49.235h24.2A12.323,12.323,0,0,0,64.333,36.926V12.309A12.323,12.323,0,0,0,52.025,0H12.309A12.323,12.323,0,0,0,0,12.309V36.926A12.33,12.33,0,0,0,9.847,48.987V56.62a2.461,2.461,0,0,0,3.827,2.048l6.02-4.013Z"/>
      <path id="Path_54" data-name="Path 54" class="cls-2" d="M177.555,178.213a7.394,7.394,0,0,1-7.385,7.385,2.461,2.461,0,0,0-2.461,2.461v5.49L156.8,186.033a2.461,2.461,0,0,0-1.4-.435H130.454a7.394,7.394,0,0,1-7.385-7.385v-10.17l3.207-2.138h24.2A12.323,12.323,0,0,0,162.785,153.6v-7.385h7.385a7.394,7.394,0,0,1,7.385,7.385Z" transform="translate(-96.959 -115.191)"/>
      <g id="Group_26" data-name="Group 26" transform="translate(19.231 9.724)">
        <path id="Path_55" data-name="Path 55" class="cls-3" d="M95.326,87.215H91.58a.938.938,0,0,0-.937.936V105.01a.937.937,0,0,0,.937.936h3.746a.937.937,0,0,0,.937-.936V88.151A.938.938,0,0,0,95.326,87.215Z" transform="translate(-90.643 -78.436)"/>
        <path id="Path_56" data-name="Path 56" class="cls-3" d="M144.818,54.613c-.151-.025-7.213,0-7.213,0l.987-2.691c.681-1.859.24-4.7-1.649-5.706a3.238,3.238,0,0,0-2.167-.318,1.563,1.563,0,0,0-.955.715,3.89,3.89,0,0,0-.3,1.328,5.734,5.734,0,0,1-1.589,3.037c-1.454,1.418-5.971,5.51-5.971,5.51V71.472h15.61a2.836,2.836,0,0,0,2.448-4.188,2.836,2.836,0,0,0,.937-3.746,2.836,2.836,0,0,0,.937-3.746A2.858,2.858,0,0,0,144.818,54.613Z" transform="translate(-118.468 -45.833)"/>
      </g>
    </g>
  </g>
</svg>
