<svg width="50" height="43" viewBox="0 0 50 43" fill="none" xmlns="http://www.w3.org/2000/svg">
<path fill-rule="evenodd" clip-rule="evenodd" d="M48.6869 42.402H1.21921C0.553824 42.402 0.0143433 41.8624 0.0143433 41.1968V1.20519C0.0143433 0.539626 0.553727 0 1.21921 0H48.6869C49.3523 0 49.8918 0.539528 49.8918 1.20519V41.1968C49.8918 41.8624 49.3524 42.402 48.6869 42.402Z" fill="white"/>
<path fill-rule="evenodd" clip-rule="evenodd" d="M49.8918 8.08823H0.0143433V1.21288C0.0143433 0.542982 0.553643 0 1.219 0H48.6871C49.3524 0 49.8918 0.542982 49.8918 1.21288V8.08823Z" fill="#CC6A6C"/>
<path fill-rule="evenodd" clip-rule="evenodd" d="M3.99719 5.63724C4.84322 5.63724 5.52906 4.9514 5.52906 4.10538C5.52906 3.25936 4.84322 2.57352 3.99719 2.57352C3.15117 2.57352 2.46533 3.25936 2.46533 4.10538C2.46533 4.9514 3.15117 5.63724 3.99719 5.63724Z" fill="white"/>
<path fill-rule="evenodd" clip-rule="evenodd" d="M9.14423 5.63724C9.99025 5.63724 10.6761 4.9514 10.6761 4.10538C10.6761 3.25936 9.99025 2.57352 9.14423 2.57352C8.2982 2.57352 7.61237 3.25936 7.61237 4.10538C7.61237 4.9514 8.2982 5.63724 9.14423 5.63724Z" fill="white"/>
<path fill-rule="evenodd" clip-rule="evenodd" d="M14.2913 5.63724C15.1373 5.63724 15.8232 4.9514 15.8232 4.10538C15.8232 3.25936 15.1373 2.57352 14.2913 2.57352C13.4453 2.57352 12.7594 3.25936 12.7594 4.10538C12.7594 4.9514 13.4453 5.63724 14.2913 5.63724Z" fill="white"/>
<path fill-rule="evenodd" clip-rule="evenodd" d="M29.5556 7.15526L30.9756 5.73524C31.7599 4.95101 33.0315 4.95101 33.8157 5.73524L35.9458 7.86522C36.73 8.64946 36.73 9.92103 35.9458 10.7053L34.5257 12.1253L35.3067 12.9063C35.4636 13.0631 35.4636 13.3174 35.3067 13.4744L32.6087 16.1724C32.4517 16.3292 32.1974 16.3292 32.0406 16.1724L31.9707 16.1025L19.191 28.8819L12.8007 22.4917L25.5804 9.71228L25.5084 9.64032C25.3516 9.4835 25.3516 9.2292 25.5084 9.07228L28.2065 6.37424C28.3633 6.21742 28.6176 6.21742 28.7746 6.37424L29.5556 7.15526ZM15.078 29.5983L19.1892 28.8819L16.9923 26.685L12.7991 22.4919L12.0817 26.6041L11.5417 29.6997C11.5388 29.7114 11.5369 29.724 11.5359 29.7357V29.7367C11.5349 29.7494 11.5339 29.7621 11.5339 29.7747C11.5339 29.8995 11.5953 30.0096 11.6889 30.0769C11.7503 30.1207 11.8244 30.1471 11.9053 30.1471C11.9131 30.1471 11.9199 30.1471 11.9277 30.1461H11.9326L12.0047 30.1334C12.0076 30.1324 12.0106 30.1315 12.0135 30.1315L13.9034 29.803L15.078 29.5983Z" fill="#3D3C3B"/>
<path fill-rule="evenodd" clip-rule="evenodd" d="M15.0879 29.5966L13.9101 29.8019L12.0168 30.1304C12.0168 30.1304 12.0158 30.1304 12.0148 30.1314C12.0119 30.1314 12.009 30.1324 12.006 30.1334L11.9288 30.1461C11.921 30.1471 11.9142 30.1471 11.9063 30.1471C11.8252 30.1471 11.7509 30.1207 11.6893 30.0767C11.5955 30.0092 11.5339 29.8987 11.5339 29.7736C11.5339 29.7609 11.5349 29.7482 11.5359 29.7355V29.7345C11.5369 29.7227 11.5388 29.71 11.5418 29.6983C11.5418 29.6963 11.5427 29.6934 11.5437 29.6905L12.0832 26.5931L14.0547 28.5632L15.0879 29.5966Z" fill="#3D3C3B"/>
<path fill-rule="evenodd" clip-rule="evenodd" d="M38.378 33.0882H11.528C11.1252 33.0882 10.7986 32.759 10.7986 32.3529C10.7986 31.9469 11.1252 31.6176 11.528 31.6176H38.3781C38.7809 31.6176 39.1075 31.9469 39.1075 32.3529C39.1075 32.759 38.7809 33.0882 38.378 33.0882Z" fill="#3D3C3B"/>
</svg>
