<svg width="50" height="43" viewBox="0 0 50 43" fill="none" xmlns="http://www.w3.org/2000/svg">
<path fill-rule="evenodd" clip-rule="evenodd" d="M48.6869 42.402H1.21921C0.553824 42.402 0.0143433 41.8624 0.0143433 41.1968V1.20519C0.0143433 0.539626 0.553727 0 1.21921 0H48.6869C49.3523 0 49.8918 0.539528 49.8918 1.20519V41.1968C49.8918 41.8624 49.3524 42.402 48.6869 42.402Z" fill="white"/>
<path fill-rule="evenodd" clip-rule="evenodd" d="M49.8918 8.08823H0.0143433V1.21288C0.0143433 0.542982 0.553643 0 1.219 0H48.6871C49.3524 0 49.8918 0.542982 49.8918 1.21288V8.08823Z" fill="#CC6A6C"/>
<path fill-rule="evenodd" clip-rule="evenodd" d="M3.99718 5.63724C4.8432 5.63724 5.52904 4.9514 5.52904 4.10538C5.52904 3.25936 4.8432 2.57352 3.99718 2.57352C3.15116 2.57352 2.46532 3.25936 2.46532 4.10538C2.46532 4.9514 3.15116 5.63724 3.99718 5.63724Z" fill="white"/>
<path fill-rule="evenodd" clip-rule="evenodd" d="M9.14424 5.63724C9.99027 5.63724 10.6761 4.9514 10.6761 4.10538C10.6761 3.25936 9.99027 2.57352 9.14424 2.57352C8.29822 2.57352 7.61238 3.25936 7.61238 4.10538C7.61238 4.9514 8.29822 5.63724 9.14424 5.63724Z" fill="white"/>
<path fill-rule="evenodd" clip-rule="evenodd" d="M14.2913 5.63724C15.1373 5.63724 15.8232 4.9514 15.8232 4.10538C15.8232 3.25936 15.1373 2.57352 14.2913 2.57352C13.4453 2.57352 12.7594 3.25936 12.7594 4.10538C12.7594 4.9514 13.4453 5.63724 14.2913 5.63724Z" fill="white"/>
<path fill-rule="evenodd" clip-rule="evenodd" d="M11 21.9419C13.0328 21.9419 14.6809 19.9402 14.6809 17.471C14.6809 15.0017 14.1398 13 11 13C7.86019 13 7.319 15.0017 7.319 17.471C7.319 19.9402 8.96708 21.9419 11 21.9419Z" fill="#3D3C3B"/>
<path fill-rule="evenodd" clip-rule="evenodd" d="M17.9444 28.5879C17.8762 24.2864 17.3144 23.0608 13.0155 22.2849C13.0155 22.2849 12.4104 23.056 11 23.056C9.58951 23.056 8.98427 22.2849 8.98427 22.2849C4.73229 23.0523 4.13635 24.2598 4.05799 28.4482C4.05157 28.7902 4.04859 28.8081 4.04744 28.7684C4.0477 28.8428 4.04801 28.9804 4.04801 29.2203C4.04801 29.2203 5.07148 31.2836 11 31.2836C16.9283 31.2836 17.9519 29.2203 17.9519 29.2203C17.9519 29.0662 17.952 28.959 17.9522 28.8861C17.951 28.9106 17.9487 28.863 17.9444 28.5879Z" fill="#3D3C3B"/>
<path d="M22.4583 15.5H43.8083" stroke="#3D3C3B" stroke-width="1.5" stroke-linecap="round"/>
<path d="M22.4474 19.5H38.5526" stroke="#3D3C3B" stroke-width="1.5" stroke-linecap="round"/>
<path d="M22.4474 27.5H38.5526" stroke="#3D3C3B" stroke-width="1.5" stroke-linecap="round"/>
<path d="M22.4583 23.5H43.5417" stroke="#3D3C3B" stroke-width="1.5" stroke-linecap="round"/>
</svg>
