<svg width="40" height="41" viewBox="0 0 40 41" fill="none" xmlns="http://www.w3.org/2000/svg">
<g id="crm">
<path id="Shape" d="M24 40H16L16.9434 31H23.0566L24 40Z" fill="#CB2023"/>
<path id="Shape_2" d="M3.13026 0H36.8697C38.5985 0 40 1.67232 40 3.73522V5H0V3.73522C0 1.67232 1.40147 0 3.13026 0Z" fill="#CB2023"/>
<path id="Shape_3" d="M0 28H40V31.4091C40 33.3923 38.5985 35 36.8697 35H3.13026C1.42063 35.0002 0.0270512 33.4269 0 31.4659V28.0568L0 28Z" fill="#CB2023"/>
<rect id="Rectangle-path" x="13" y="39" width="15" height="2" fill="#CB2023"/>
<path id="Oval" d="M20.5 32C21.3284 32 22 31.3284 22 30.5C22 29.6716 21.3284 29 20.5 29C19.6716 29 19 29.6716 19 30.5C19 31.3284 19.6716 32 20.5 32Z" fill="white"/>
<path id="Shape_4" d="M15 17.9088C14.9803 18.4809 14.8196 19.0377 14.5337 19.5237C14.2351 19.9979 13.8181 20.3753 13.3292 20.614C12.7773 20.8781 12.1766 21.0082 11.571 20.9946C10.5913 21.0527 9.63887 20.641 8.97746 19.8734C8.2948 18.9729 7.94903 17.8379 8.00608 16.6847V16.2836C7.99025 15.5085 8.13619 14.7393 8.43349 14.0309C8.69014 13.4117 9.11655 12.8885 9.65743 12.5291C10.2128 12.1716 10.8532 11.9895 11.503 12.0045C12.3801 11.9588 13.242 12.2594 13.9218 12.848C14.5511 13.4376 14.9264 14.2733 14.9611 15.1624H13.0184C13.0469 14.7396 12.9099 14.3229 12.6396 14.0103C12.3326 13.7506 11.9432 13.6254 11.5516 13.6606C11.1091 13.6262 10.6855 13.8564 10.454 14.2572C10.1816 14.8409 10.0578 15.4897 10.0945 16.1395V16.7567C10.0467 17.4439 10.1601 18.133 10.4248 18.7625C10.6684 19.1774 11.1115 19.412 11.571 19.3694C11.9482 19.396 12.3214 19.2752 12.6201 19.0299C12.8879 18.74 13.0288 18.3446 13.0087 17.9396L15 17.9088Z" fill="#3D3C3B"/>
<path id="Shape_5" fill-rule="evenodd" clip-rule="evenodd" d="M18.0959 17.8128H19.2253L20.7617 21H23V20.9158L21.189 17.2869C21.6588 17.0777 22.0587 16.7302 22.3387 16.2876C22.6014 15.8114 22.7285 15.268 22.705 14.7203C22.7424 13.9472 22.4165 13.2029 21.83 12.7217C21.1278 12.2076 20.2776 11.9554 19.4186 12.0065H16V20.9684H18.0959V17.8128ZM19.4186 16.1403H18.0959V13.679H19.4186C19.7479 13.6546 20.0721 13.7727 20.314 14.005C20.7198 14.539 20.7198 15.2908 20.314 15.8248C20.0693 16.0511 19.7461 16.165 19.4186 16.1403Z" fill="#3D3C3B"/>
<path id="Shape_6" d="M26.6384 12L28.4951 18.2673L30.3518 12H33V21H30.987V18.8898L31.1824 14.585L29.1596 20.9894H27.8306L25.8176 14.585L26.0033 18.8898V21H24V12H26.6384Z" fill="#3D3C3B"/>
</g>
</svg>
