<?xml version="1.0" encoding="UTF-8"?>
<svg width="654px" height="610px" viewBox="0 0 654 610" version="1.1" xmlns="http://www.w3.org/2000/svg" xmlns:xlink="http://www.w3.org/1999/xlink">
    <!-- Generator: Sketch 50.2 (55047) - http://www.bohemiancoding.com/sketch -->
    <title>Group 22</title>
    <desc>Created with Sketch.</desc>
    <defs></defs>
    <g id="Design" stroke="none" stroke-width="1" fill="none" fill-rule="evenodd">
        <g id="Home-8" transform="translate(-1146.000000, -3689.000000)">
            <g id="Rectangle-2" transform="translate(0.000000, 3679.000000)">
                <g id="Group-22" transform="translate(1088.000000, -153.000000)">
                    <rect id="Rectangle-5" fill="#333333" opacity="0.803236607" transform="translate(692.218051, 415.357969) rotate(-17.000000) translate(-692.218051, -415.357969) " x="40.2180515" y="180.357969" width="1304" height="470" rx="235"></rect>
                    <g id="Group-6" transform="translate(166.000000, 280.000000)">
                        <g id="bitcoin-(1)" opacity="0.438727679" transform="translate(0.000000, 164.000000)" fill="#D1D1D1" fill-rule="nonzero">
                            <path d="M91.4627336,86 L74,86 L74,107 L91.4627336,107 C97.2727688,107 102,102.289735 102,96.5001594 C102,90.7105842 97.2727688,86 91.4627336,86 Z" id="Shape"></path>
                            <path d="M91.4627336,55 L74,55 L74,76 L91.4627336,76 C97.2727688,76 102,71.2897345 102,65.5001594 C102,59.7105842 97.2730887,55 91.4627336,55 Z" id="Shape"></path>
                            <path d="M81,25 C50.1215311,25 25,50.1215311 25,81 C25,111.878469 50.1215311,137 81,137 C111.878469,137 137,111.878469 137,81 C137,50.1215311 111.878469,25 81,25 Z M111.170766,96.2825516 C111.170766,107.345984 102.169873,116.346878 91.1061212,116.346878 L87.7534597,116.346878 L87.7534597,124.38281 L78.1899105,124.38281 L78.1899105,116.346878 L55.6110083,116.346878 L55.6110083,106.783329 L64.1397815,106.783329 L64.1397815,55.2163525 L55.6110083,55.2163525 L55.6110083,45.6528033 L78.1899105,45.6528033 L78.1899105,37.6168717 L87.7534597,37.6168717 L87.7534597,45.6528033 L91.1061212,45.6528033 C102.169554,45.6528033 111.170766,54.6536971 111.170766,65.7174484 C111.170766,71.8342944 108.416145,77.3167584 104.08577,81 C108.415827,84.6832416 111.170766,90.1660244 111.170766,96.2825516 Z" id="Shape"></path>
                            <path d="M139.129414,23.8705859 C123.735783,8.4775918 103.269414,0 81.5,0 C59.7305859,0 39.2642168,8.4775918 23.8705859,23.8705859 C8.4775918,39.2642168 0,59.7305859 0,81.5 C0,103.269414 8.4775918,123.735783 23.8705859,139.129414 C39.2642168,154.522408 59.7305859,163 81.5,163 C103.269414,163 123.735783,154.522408 139.129414,139.129414 C154.522408,123.735783 163,103.269414 163,81.5 C163,59.7305859 154.522408,39.2642168 139.129414,23.8705859 Z M81.5,146.976018 C45.3964551,146.976018 16.0239824,117.603545 16.0239824,81.5 C16.0239824,45.3964551 45.3964551,16.0239824 81.5,16.0239824 C117.603545,16.0239824 146.976018,45.3964551 146.976018,81.5 C146.976018,117.603545 117.603545,146.976018 81.5,146.976018 Z" id="Shape"></path>
                        </g>
                        <g id="bitcoin-(1)" opacity="0.474665179" transform="translate(243.000000, 0.000000)">
                            <path d="M105.840781,18.1592188 C94.1302891,6.44921094 78.5607813,0 62,0 C45.4392188,0 29.8697109,6.44921094 18.1592188,18.1592188 C6.44921094,29.8697109 0,45.4392188 0,62 C0,78.5607813 6.44921094,94.1302891 18.1592188,105.840781 C29.8697109,117.550789 45.4392188,124 62,124 C78.5607813,124 94.1302891,117.550789 105.840781,105.840781 C117.550789,94.1302891 124,78.5607813 124,62 C124,45.4392188 117.550789,29.8697109 105.840781,18.1592188 Z M62,111.809977 C34.5347266,111.809977 12.1900234,89.4652734 12.1900234,62 C12.1900234,34.5347266 34.5347266,12.1900234 62,12.1900234 C89.4652734,12.1900234 111.809977,34.5347266 111.809977,62 C111.809977,89.4652734 89.4652734,111.809977 62,111.809977 Z" id="Shape" fill="#D1D1D1" fill-rule="nonzero"></path>
                            <path d="M62,102 C39.90861,102 22,84.09139 22,62 C22,39.90861 39.90861,22 62,22 C84.09139,22 102,39.90861 102,62 C102,84.09139 84.09139,102 62,102 Z M46.1379176,63.608239 L61.639906,86 L77.1418944,63.608239 L61.639906,37.7693691 L46.1379176,63.608239 Z M61.639906,78.1901093 L55.1168471,68.7600109 L61.639906,71.6692729 L68.1629649,68.7600109 L61.639906,78.1901093 Z M61.639906,66.8042044 L51.9786668,62.5103203 L61.639906,46.4104775 L71.3011452,62.5103203 L61.639906,66.8042044 Z" id="Combined-Shape" fill="#D8D8D8"></path>
                        </g>
                        <g id="bitcoin-(1)-copy" opacity="0.605412946" transform="translate(274.000000, 301.000000)">
                            <path d="M67.4308203,11.5691797 C59.9701035,4.10877148 50.0508203,0 39.5,0 C28.9491797,0 19.0298965,4.10877148 11.5691797,11.5691797 C4.10877148,19.0298965 0,28.9491797 0,39.5 C0,50.0508203 4.10877148,59.9701035 11.5691797,67.4308203 C19.0298965,74.8912285 28.9491797,79 39.5,79 C50.0508203,79 59.9701035,74.8912285 67.4308203,67.4308203 C74.8912285,59.9701035 79,50.0508203 79,39.5 C79,28.9491797 74.8912285,19.0298965 67.4308203,11.5691797 Z M39.5,71.2337754 C22.0019629,71.2337754 7.76622461,56.9980371 7.76622461,39.5 C7.76622461,22.0019629 22.0019629,7.76622461 39.5,7.76622461 C56.9980371,7.76622461 71.2337754,22.0019629 71.2337754,39.5 C71.2337754,56.9980371 56.9980371,71.2337754 39.5,71.2337754 Z" id="Shape" fill="#D1D1D1" fill-rule="nonzero"></path>
                            <path d="M39.5,65 C25.4167389,65 14,53.5832611 14,39.5 C14,25.4167389 25.4167389,14 39.5,14 C53.5832611,14 65,25.4167389 65,39.5 C65,53.5832611 53.5832611,65 39.5,65 Z M38.710483,41.348592 L44.5038361,39.0332088 L42.6853057,34.4856592 L39.8559368,35.6164277 L41.5863554,26.95944 L36.7867079,26 L34.4297164,37.7874054 L28,40.3597815 L29.8185304,44.9073311 L33.2842625,43.5195697 L31.7961515,50.9552295 L50.936,50.9552295 L50.936,46.0601276 L37.7681759,46.0601276 L38.710483,41.348592 Z" id="Combined-Shape" fill="#D8D8D8"></path>
                        </g>
                    </g>
                </g>
            </g>
        </g>
    </g>
</svg>