<svg width="56" height="45" viewBox="0 0 56 45" fill="none" xmlns="http://www.w3.org/2000/svg">
<path fill-rule="evenodd" clip-rule="evenodd" d="M10.0984 21.1224C10.0984 10.9784 18.3187 2.7551 28.459 2.7551C38.5994 2.7551 46.8197 10.9784 46.8197 21.1224C46.8197 31.2665 38.5994 39.4898 28.459 39.4898C18.3187 39.4898 10.0984 31.2665 10.0984 21.1224ZM14.5274 21.1226C14.5274 28.8072 20.7771 35.0592 28.4589 35.0592C36.1409 35.0592 42.3905 28.8072 42.3905 21.1226C42.3905 13.4379 36.1408 7.18594 28.4589 7.18594C20.7771 7.18594 14.5274 13.4379 14.5274 21.1226Z" fill="#CB2023"/>
<path d="M28.459 11.0204C22.8907 11.0204 18.3606 15.5522 18.3606 21.1225C18.3606 26.6927 22.8907 31.2245 28.459 31.2245C34.0272 31.2245 38.5573 26.6927 38.5573 21.1225C38.5573 15.5522 34.0273 11.0204 28.459 11.0204Z" fill="#282625"/>
<path d="M54.8288 23.0119V0.505922C54.8288 0.288777 54.6897 0.0957721 54.483 0.0264126C54.2764 -0.0428377 54.0486 0.0271772 53.9167 0.200194C51.0988 3.90334 49.5737 8.42317 49.5737 13.0705V21.3038C49.5737 22.2481 50.3419 23.0137 51.2896 23.0137H52.0049C51.2998 30.2711 50.8338 40.4213 50.8338 41.6098C50.8338 43.4822 51.9903 45 53.4169 45C54.8435 45 56 43.4821 56 41.6098C56 40.4212 55.534 30.2693 54.8288 23.0119Z" fill="#CB2023"/>
<path d="M7.66168 18.4399C9.12219 17.5734 10.0984 16.0023 10.0984 14.2076L9.37494 2.62262C9.34728 2.18103 8.97358 1.83673 8.52184 1.83673C8.03324 1.83673 7.64399 2.23763 7.66829 2.7153L8.13873 12.0066C8.13873 12.5289 7.70636 12.9522 7.17331 12.9522C6.64015 12.9522 6.20789 12.5287 6.20789 12.0066L5.97283 2.71914C5.9604 2.2283 5.55065 1.83684 5.04929 1.83684C4.54794 1.83684 4.13829 2.22841 4.12575 2.71914L3.8907 12.0066C3.8907 12.5289 3.45832 12.9522 2.92527 12.9522C2.39211 12.9522 1.95985 12.5287 1.95985 12.0066L2.4303 2.7153C2.45449 2.23741 2.065 1.83673 1.57675 1.83673C1.125 1.83673 0.751307 2.18103 0.723759 2.62262L0 14.2077C0 16.0024 0.976061 17.5734 2.43668 18.44C3.38721 19.0039 3.91712 20.0582 3.79461 21.1401C2.97007 28.4186 2.41014 40.3012 2.41014 41.5956C2.41014 43.4758 3.5917 45 5.04918 45C6.50667 45 7.68822 43.4757 7.68822 41.5956C7.68822 40.3012 7.12818 28.4186 6.30375 21.1401C6.18113 20.0587 6.7116 19.0036 7.66168 18.4399Z" fill="#CB2023"/>
</svg>
