<?xml version="1.0" encoding="UTF-8"?>
<svg width="73px" height="35px" viewBox="0 0 73 35" version="1.1" xmlns="http://www.w3.org/2000/svg" xmlns:xlink="http://www.w3.org/1999/xlink">
    <!-- Generator: Sketch 52.2 (67145) - http://www.bohemiancoding.com/sketch -->
    <title>douban-logo</title>
    <desc>Created with Sketch.</desc>
    <g id="Page-1" stroke="none" stroke-width="1" fill="none" fill-rule="evenodd">
        <g id="social-media" transform="translate(-1037.000000, -822.000000)" fill="#23B05A">
            <g id="douban-logo" transform="translate(1037.000000, 822.000000)">
                <path d="M0.158405172,1.02083333 L33.9603089,1.02083333 L33.9603089,4.7359375 L0.158405172,4.7359375 L0.158405172,1.02083333 Z M27.8074413,22.4525 L25.4328305,30.5258333 L33.8077706,30.5258333 L33.8077706,33.7319792 L-6.07514039e-13,33.7319792 L-6.07514039e-13,30.5258333 L8.34267241,30.5258333 L5.81552323,22.4517708 L2.83662596,22.4517708 L2.83662596,8.29427083 L31.1537506,8.29427083 L31.1537506,22.4525 L27.8074413,22.4525 Z M8.53994552,11.9401042 L8.53994552,18.7075 L25.6286369,18.7075 L25.6286369,11.9401042 L8.53994552,11.9401042 Z M20.6528077,30.5265625 L23.0281519,22.4525 L10.5948126,22.4525 L13.1226952,30.5265625 L20.6528077,30.5265625 Z M46.4611171,20.7054167 L46.4603837,20.7054167 L46.4603837,24.0428125 L43.9699024,24.4263542 C43.8884998,28.6810417 41.3202826,34.5479167 41.2095456,34.8002083 L37.9607729,33.3841667 C37.9827736,33.3323958 40.056708,28.5928125 40.3815852,25.0898958 L37.1775473,25.6652083 L37.1775473,22.2257292 L40.42632,21.6934375 L40.42632,17.2498958 L36.5835279,17.2498958 L36.5835279,13.7229167 L38.3912536,13.7229167 L37.9277718,6.24385417 L37.3454861,6.24385417 L37.3454861,3.40010417 L40.7563308,3.40010417 L40.7563308,0.6059375 L43.6156909,0.6059375 L43.6156909,3.40010417 L47.0573366,3.40010417 L47.0573366,6.24385417 L46.4552502,6.24385417 L45.9925018,13.7229167 L47.3528795,13.7229167 L47.3528795,17.2498958 L43.9743026,17.2498958 L43.9743026,21.1895833 L46.4611171,20.7054167 Z M43.1265415,13.7229167 L43.5885566,6.24385417 L40.7929987,6.24385417 L41.2564805,13.7229167 L43.1265415,13.7229167 Z M60.1499641,22.0529167 C60.1462973,22.1236458 59.9160231,29.3161458 62.6279783,33.1748958 L63.045992,33.67875 C61.9774904,33.9252083 60.913389,34.1884375 59.852221,34.4779167 C56.9173252,29.8455208 57.0903975,22.5852083 57.1109315,21.9683333 L57.1109315,4.0075 L55.276805,4.41291667 L55.276805,30.209375 L57.2480693,30.2035417 L57.2480693,33.245625 L50.0134998,34.0404167 L49.9834321,33.7720833 L49.9834321,30.2246875 L52.234839,30.2188542 L52.234839,5.08520833 L50.6053191,5.4446875 L50.6053191,24.2221875 C50.6053191,28.02625 47.7657597,34.4334375 47.6454891,34.7039583 L44.8653317,33.4782292 C45.6162895,31.7938542 47.5655532,26.8479167 47.5655532,24.2221875 L47.5655532,3.01802083 L58.6421815,0.514791667 L60.9808579,3.3075 L60.1514308,3.50510417 L60.1499641,22.0529167 Z M72.1872905,17.2491667 L68.3855663,17.2491667 L68.3855663,21.5330208 L71.6167385,21.5330208 L71.6167385,25.0636458 L68.3855663,25.0636458 L68.3855663,34.3860417 L64.8375838,34.3860417 L64.8375838,25.0636458 L61.607145,25.0636458 L61.607145,21.5330208 L64.8375838,21.5330208 L64.8375838,17.2491667 L61.0358597,17.2491667 L61.0358597,13.7221875 L62.7790499,13.7221875 L62.0845606,6.46770833 L61.2133321,6.46770833 L61.2133321,3.241875 L65.078125,3.241875 L65.078125,0.605208333 L68.1186243,0.605208333 L68.1186243,3.241875 L71.9834171,3.241875 L71.9834171,6.46770833 L71.0153855,6.46770833 L70.5247695,13.7221875 L72.1872905,13.7221875 L72.1872905,17.2491667 Z M67.4630029,13.7229167 L67.9543523,6.4684375 L65.1477939,6.4684375 L65.8400832,13.7229167 L67.4630029,13.7229167 Z" id="Combined-Shape"></path>
            </g>
        </g>
    </g>
</svg>