<svg width="37" height="37" viewBox="0 0 37 37" fill="none" xmlns="http://www.w3.org/2000/svg">
<g clip-path="url(#clip0)">
<path d="M21.4804 14.7603C20.8817 14.7603 20.3964 14.275 20.3964 13.6763V2.96289H16.6036V13.6763C16.6036 14.275 16.1183 14.7603 15.5196 14.7603H0V18.5531H15.5196C16.1183 18.5531 16.6036 19.0383 16.6036 19.6371V30.3476H20.3964V19.6371C20.3964 19.0383 20.8817 18.5531 21.4804 18.5531H37V14.7603H21.4804Z" fill="#CB2023"/>
<path d="M22.5645 11.0595L30.5724 3.05153C30.1941 2.9931 29.8065 2.96289 29.4122 2.96289H22.5645V11.0595Z" fill="#CB2023"/>
<path d="M24.0977 12.5922H37.0005V10.5507C37.0005 7.61719 35.3271 5.06757 32.885 3.80518L24.0977 12.5922Z" fill="#CB2023"/>
<path d="M24.0928 20.7209L32.8601 29.5179C35.3154 28.26 36.9998 25.7028 36.9998 22.7596V20.7209H24.0928Z" fill="#CB2023"/>
<path d="M14.4357 11.0595V2.96289H7.58794C7.19358 2.96289 6.806 2.9931 6.42773 3.05153L14.4357 11.0595Z" fill="#CB2023"/>
<path d="M22.5645 22.2583V30.3475H29.4122C29.7964 30.3475 30.1738 30.3187 30.5425 30.2634L22.5645 22.2583Z" fill="#CB2023"/>
<path d="M12.9028 12.5922L4.11547 3.80518C1.6734 5.06728 0 7.61719 0 10.5507V12.5922H12.9028Z" fill="#CB2023"/>
<path d="M12.9028 20.7209H0V22.7596C0 25.694 1.67425 28.2442 4.11745 29.5063L12.9028 20.7209Z" fill="#CB2023"/>
<path d="M14.4361 22.2542L6.43066 30.2595C6.80808 30.3174 7.19482 30.3476 7.58833 30.3476H8.71437L11.3535 33.6958C11.5593 33.9567 11.8729 34.1088 12.2049 34.1088C12.5368 34.1088 12.8507 33.9567 13.0562 33.6958L14.4361 31.9454V22.2542Z" fill="#CB2023"/>
</g>
<defs>
<clipPath id="clip0">
<rect width="37" height="37" fill="white"/>
</clipPath>
</defs>
</svg>
