<?xml version="1.0" encoding="UTF-8"?>
<svg width="11px" height="21px" viewBox="0 0 11 21" version="1.1" xmlns="http://www.w3.org/2000/svg" xmlns:xlink="http://www.w3.org/1999/xlink">
    <!-- Generator: Sketch 50.2 (55047) - http://www.bohemiancoding.com/sketch -->
    <title>facebook-logo</title>
    <desc>Created with Sketch.</desc>
    <defs></defs>
    <g id="Design" stroke="none" stroke-width="1" fill="none" fill-rule="evenodd">
        <g id="Home-8" transform="translate(-557.000000, -6079.000000)" fill="#FFFFFF" fill-rule="nonzero">
            <g id="Group-10" transform="translate(0.000000, 5089.000000)">
                <g id="footer-line" transform="translate(0.000000, 968.000000)">
                    <g id="Group-4" transform="translate(509.000000, 22.000000)">
                        <g id="facebook-logo" transform="translate(48.000000, 0.000000)">
                            <path d="M10.5857723,0.0043694017 L7.94737247,0 C4.98322077,0 3.06765572,2.02849474 3.06765572,5.16812834 L3.06765572,7.55098155 L0.414862707,7.55098155 C0.185629895,7.55098155 0,7.74279829 0,7.97940139 L0,11.4318841 C0,11.6684873 0.185841559,11.8600855 0.414862707,11.8600855 L3.06765572,11.8600855 L3.06765572,20.5717986 C3.06765572,20.8084017 3.25328561,21 3.48251842,21 L6.94365872,21 C7.17289153,21 7.35852143,20.8081833 7.35852143,20.5717986 L7.35852143,11.8600855 L10.4602552,11.8600855 C10.689488,11.8600855 10.8751179,11.6684873 10.8751179,11.4318841 L10.8763878,7.97940139 C10.8763878,7.86579695 10.8325733,7.75699885 10.7548923,7.67660185 C10.6772114,7.59620486 10.5713791,7.55098155 10.4613135,7.55098155 L7.35852143,7.55098155 L7.35852143,5.53100715 C7.35852143,4.56012609 7.58267429,4.06725758 8.80800092,4.06725758 L10.585349,4.06660217 C10.8143701,4.06660217 11,3.87478543 11,3.6384008 L11,0.432570769 C11,0.196404607 10.8145818,0.00480634187 10.5857723,0.0043694017 Z" id="Shape"></path>
                        </g>
                    </g>
                </g>
            </g>
        </g>
    </g>
</svg>