<svg width="66" height="106" viewBox="0 0 66 106" fill="none" xmlns="http://www.w3.org/2000/svg">
<path opacity="0.668136" fill-rule="evenodd" clip-rule="evenodd" d="M16.2512 42.8213L26.5872 42.8913C30.8062 42.7983 34.2742 41.5713 36.9932 39.2113C39.7112 36.8513 41.3282 33.5433 41.8452 29.2893C42.2202 26.1123 41.5872 23.4943 39.9462 21.4373C38.3052 19.3813 35.8442 18.3293 32.5632 18.2823C29.5162 18.1893 26.8212 19.0303 24.4782 20.8053C22.1332 22.5823 20.6342 24.9433 19.9782 27.8873L-3.22578 28.0283C-2.94378 22.4883 -1.16278 17.5833 2.11822 13.3113C5.39822 9.03934 9.77122 5.74134 15.2312 3.41634C20.6912 1.09234 26.5632 -0.0446585 32.8452 0.00134148C43.1562 0.236341 51.2672 2.94334 57.1732 8.12234C63.0792 13.3023 65.7742 20.2053 65.2592 28.8293C64.6492 38.4863 58.3442 46.1263 46.3452 51.7513C50.8912 54.0013 54.2902 57.1193 56.5402 61.1023C58.7902 65.0873 59.7982 69.5873 59.5642 74.6023C59.2352 80.8843 57.2432 86.3563 53.5872 91.0203C49.9312 95.6853 45.0322 99.2713 38.8922 101.778C32.7502 104.285 26.1652 105.469 19.1342 105.329C12.9922 105.281 7.42722 103.982 2.43522 101.431C-2.55778 98.8813 -6.38978 95.3573 -9.06178 90.8643C-11.7328 86.3713 -13.0458 81.2203 -12.9988 75.4153H10.0642C10.1092 78.7533 11.0942 81.5023 13.0172 83.6643C14.9392 85.8263 17.6332 86.9543 21.1032 87.0483C24.9932 87.1423 28.4392 85.9913 31.4392 83.5933C34.4382 81.1963 36.2202 78.0483 36.7822 74.1463C37.3452 69.9643 36.7232 66.6853 34.9192 64.3123C33.1142 61.9393 30.1032 60.6813 25.8842 60.5403L13.5092 60.4693L16.2512 42.8213Z" fill="url(#paint0_linear)"/>
<defs>
<linearGradient id="paint0_linear" x1="185.163" y1="-352.523" x2="-191.749" y2="-173.487" gradientUnits="userSpaceOnUse">
<stop stop-color="#CB2023"/>
<stop offset="1" stop-color="white"/>
</linearGradient>
</defs>
</svg>
