<svg width="59" height="77" viewBox="0 0 59 77" fill="none" xmlns="http://www.w3.org/2000/svg">
<path opacity="0.325107" fill-rule="evenodd" clip-rule="evenodd" d="M51.7527 76.923H0L1.88746 64.849L29.0487 39.815L32.7714 36.1199C38.6091 30.2909 41.2833 24.792 40.7941 19.6218C40.4085 15.5974 38.3115 13.5322 34.5015 13.4286C31.8094 13.359 29.5282 14.4434 27.6586 16.681C25.7883 18.9193 24.6257 21.8424 24.1723 25.4508L7.02559 25.5552C7.30524 20.8017 8.75645 16.456 11.3777 12.5174C13.9997 8.58034 17.5039 5.5004 21.8911 3.27982C26.2775 1.05999 30.9533 -0.0332775 35.9177 0.0007713C43.3631 0.139927 49.1307 2.14363 53.221 6.01187C57.3107 9.8816 59.0937 15.1118 58.5695 21.7032C58.2548 25.59 56.9699 29.3723 54.7155 33.0496C52.4604 36.7276 49.1836 40.5959 44.8837 44.6551L36.914 51.9416L25.0635 63.2872L53.9026 63.3916L51.7527 76.923Z" fill="url(#paint0_linear)"/>
<defs>
<linearGradient id="paint0_linear" x1="148.415" y1="-257.424" x2="-131.201" y2="-121.199" gradientUnits="userSpaceOnUse">
<stop stop-color="#CB2023"/>
<stop offset="1" stop-color="white"/>
</linearGradient>
</defs>
</svg>
