<svg width="56" height="77" viewBox="0 0 56 77" fill="none" xmlns="http://www.w3.org/2000/svg">
<path opacity="0.325107" fill-rule="evenodd" clip-rule="evenodd" d="M4.51159 38.0365L14.6756 0H55.9541L53.9835 12.4549H24.9953L20.0169 28.7341C23.0938 26.8047 26.7238 25.84 30.907 25.84C37.3719 25.84 42.3761 28.1225 45.9197 32.6876C49.4633 37.2527 50.9585 43.2733 50.4054 50.7497C49.9905 55.711 48.5299 60.1727 46.0234 64.1349C43.517 68.097 40.2241 71.1461 36.1446 73.2822C32.0651 75.4183 27.5709 76.4347 22.6617 76.3313C18.4093 76.2969 14.546 75.3236 11.0715 73.4114C7.59709 71.4992 4.89189 68.8636 2.95587 65.5044C1.01985 62.1452 0.0345718 58.3984 0 54.264H14.3645C14.5028 57.3303 15.3498 59.7334 16.9055 61.4733C18.4612 63.2132 20.5701 64.1176 23.2321 64.1865C26.6893 64.2899 29.5328 63.0324 31.7626 60.4139C33.9925 57.7954 35.3322 54.2812 35.7816 49.8712C36.1964 45.9435 35.6001 42.8427 33.9925 40.5688C32.3849 38.2949 29.939 37.1235 26.6547 37.0546C22.9901 36.9856 19.6021 38.3293 16.4906 41.0856L4.51159 38.0365Z" fill="url(#paint0_linear)"/>
<defs>
<linearGradient id="paint0_linear" x1="141.571" y1="-255.468" x2="-129.103" y2="-128.716" gradientUnits="userSpaceOnUse">
<stop stop-color="#CB2023"/>
<stop offset="1" stop-color="white"/>
</linearGradient>
</defs>
</svg>
