<svg xmlns="http://www.w3.org/2000/svg" viewBox="0 0 149.1 135.025">
  <defs>
    <style>
      .cls-1 {
        fill: #282625;
      }

      .cls-2 {
        fill: #cb2023;
      }
    </style>
  </defs>
  <g id="Group_225" data-name="Group 225" transform="translate(29.756 -10.519) rotate(14)">
    <path id="Path_645" data-name="Path 645" class="cls-1" d="M260.174,12.568a3.614,3.614,0,0,0-3.339-2.234h-7.207V3.608a3.6,3.6,0,0,0-6.2-2.5L228.056,16.988a3.587,3.587,0,0,0-1.009,2.5l.192,8.528L196.37,58.979a10.679,10.679,0,0,0-4.66-1.057,10.81,10.81,0,1,0,10.81,10.81,10.679,10.679,0,0,0-1.057-4.66L232.476,33.2l8.48.192a3.6,3.6,0,0,0,2.546-1.057l15.879-15.855A3.6,3.6,0,0,0,260.174,12.568ZM191.71,72.336a3.6,3.6,0,1,1,3.6-3.6A3.6,3.6,0,0,1,191.71,72.336Zm47.757-46.147h-5.213V20.952l8.168-8.432v1.417a3.6,3.6,0,0,0,3.6,3.6h2.114Z" transform="translate(-137.444 0)"/>
    <path id="Path_646" data-name="Path 646" class="cls-2" d="M90.636,85.779a46.925,46.925,0,1,1-6.846-6.846l5.117-5.117a54.158,54.158,0,1,0,6.87,6.894Z" transform="translate(0 -46.57)"/>
    <path id="Path_647" data-name="Path 647" class="cls-2" d="M145.244,181.1a25.2,25.2,0,1,0,21,11.05l-5.261,5.189a18.211,18.211,0,0,1,2.4,9.1c0,16.6-19.987,23.878-30.989,12.852-10.978-10.978-3.772-30.989,12.852-30.989a18.431,18.431,0,0,1,9.008,2.33l5.213-5.237A25.416,25.416,0,0,0,145.244,181.1Z" transform="translate(-91.097 -137.591)"/>
    <path id="Path_648" data-name="Path 648" d="M99.733,121.2a39.605,39.605,0,1,0,31.325,15.206l-5.165,5.117a32.174,32.174,0,1,1-6.774-6.8l5.141-5.141A39.517,39.517,0,0,0,99.733,121.2Z" transform="translate(-45.587 -92.081)"/>
  </g>
</svg>
