<?xml version="1.0" encoding="UTF-8"?>
<svg width="47px" height="47px" viewBox="0 0 47 47" version="1.1" xmlns="http://www.w3.org/2000/svg" xmlns:xlink="http://www.w3.org/1999/xlink">
    <!-- Generator: Sketch 52.2 (67145) - http://www.bohemiancoding.com/sketch -->
    <title>guitar</title>
    <desc>Created with Sketch.</desc>
    <g id="Design" stroke="none" stroke-width="1" fill="none" fill-rule="evenodd">
        <g id="Home" transform="translate(-1641.000000, -1450.000000)">
            <g id="guitar" transform="translate(1641.000000, 1450.000000)">
                <path d="M10.3422987,43.9631534 C13.8325606,47.4534226 19.3258634,48.0071187 23.1202066,45.2498204 C25.5975855,43.4516609 27.0628029,40.6813769 27.1399956,37.6502966 C27.1728205,36.4126866 27.932122,35.2133124 29.1239187,34.5225449 C30.8102534,33.5442884 32.5799128,32.1591464 33.5257031,31.0773649 C36.0077713,28.2352989 36.1105746,24.0254051 33.9859733,20.8493178 L22.3605444,32.4747712 C20.1998717,34.6354484 16.6858027,34.6354484 14.5251301,32.4747712 C12.3644575,30.314094 12.3644575,26.8000176 14.5251301,24.6393403 L26.150559,13.0138869 C22.9744784,10.8896418 18.7649543,10.9920846 15.9225335,13.474158 C14.8407543,14.420311 13.4556152,16.1896135 12.4773607,17.8759517 C11.7865947,19.067751 10.587223,19.8274148 9.34961568,19.8598791 C6.3185418,19.9370719 3.54862445,21.4026531 1.75046858,23.8800373 C-1.00718457,27.6740278 -0.453489628,33.1673422 3.03677225,36.6576115 L10.3422987,43.9631534 Z M6.68971576,30.5160939 C7.2311465,29.974662 8.10695839,29.974662 8.64838902,30.5160939 L16.484164,38.3515247 C17.0255947,38.8929565 17.0255947,39.7691309 16.484164,40.3102021 C15.9427334,40.8516339 15.0665607,40.8516339 14.5251301,40.3102021 L6.68971576,32.4747712 C6.14828513,31.9333394 6.14828513,31.0575257 6.68971576,30.5160939 Z" id="Shape" fill="#CB2023" fill-rule="nonzero"></path>
                <path d="M39.5849427,10.5510204 L41.6327045,8.67392726 L42.656397,9.61264664 C43.2219729,10.1310852 44.1385829,10.1310852 44.7041589,9.61264664 C45.2693577,9.0942081 45.2693577,8.25399202 44.7041589,7.73555349 L44.362551,7.42276226 L45.4974734,6.90259562 C45.6675231,6.82482977 45.8198517,6.71561214 45.9442783,6.58392869 C47.4208085,5.01962686 47.3484148,2.65209083 45.7278512,1.16624605 C44.1069107,-0.319598812 41.5241139,-0.385613341 39.8175829,0.967856863 C39.6727955,1.0829502 39.5555327,1.22050927 39.4699422,1.37742328 L38.902481,2.41775666 L38.5612503,2.10461974 C37.9956743,1.58652689 37.0790643,1.58652689 36.5134884,2.10461974 C35.9479124,2.62305827 35.9479124,3.46327435 36.5134884,3.98171289 L37.5371808,4.92008666 L35.4897959,6.79717972 L39.5849427,10.5510204 Z" id="Path" fill="#3D3C3B"></path>
                <path d="M31.3155509,11.8800801 L19.1836735,24.0119575 C20.0730293,24.2459432 20.9189506,24.6890448 21.6149529,25.3850471 C22.3109552,26.0810494 22.7540568,26.9269707 22.9880425,27.8163265 L35.1199199,15.6844491 L36.0709246,16.6354538 C36.5963415,17.1608708 37.4478673,17.1608708 37.9732842,16.6354538 C38.4987012,16.1100369 38.4987012,15.2585111 37.9732842,14.7334444 L32.2665556,9.02671577 C31.7411386,8.50129882 30.8896129,8.50129882 30.3645462,9.02671577 C29.8391292,9.55213272 29.8391292,10.4036585 30.3645462,10.9290754 L31.3155509,11.8800801 Z" id="Path" fill="#3D3C3B"></path>
                <path d="M21.2184867,25.7814996 C20.0948363,24.6578675 18.2727916,24.6578675 17.1491412,25.7814996 C16.0251162,26.9051317 16.0251162,28.7271467 17.1491412,29.8511535 C18.2727916,30.9747856 20.0948363,30.9747856 21.2184867,29.8511535 C22.3421371,28.7271467 22.3421371,26.9051317 21.2184867,25.7814996 Z" id="Path" fill="#282625"></path>
            </g>
        </g>
    </g>
</svg>