<svg id="headphones" xmlns="http://www.w3.org/2000/svg" viewBox="0 0 76 71.25">
  <defs>
    <style>
      .cls-1 {
        fill: #cc6a6c;
      }

      .cls-2 {
        fill: #fff;
      }
    </style>
  </defs>
  <path id="Path_30" data-name="Path 30" class="cls-1" d="M71.547,40.488V37.852a33.13,33.13,0,0,0-8.285-21.965l1.64-1.64a2.226,2.226,0,0,0,0-3.148,38.155,38.155,0,0,0-53.8,0,2.226,2.226,0,0,0,0,3.148l1.64,1.64A33.125,33.125,0,0,0,4.453,37.852v2.637A6.669,6.669,0,0,0,0,46.758V60.117A6.687,6.687,0,0,0,6.68,66.8h8.906a2.226,2.226,0,0,0,2.227-2.227V42.3a2.226,2.226,0,0,0-2.227-2.227H8.906V37.852A28.711,28.711,0,0,1,16.13,18.766a6.89,6.89,0,0,0,7.212-.525,24.815,24.815,0,0,1,29.315,0,7.07,7.07,0,0,0,4.149,1.331,6.636,6.636,0,0,0,3.038-.833,28.711,28.711,0,0,1,7.249,19.112v2.227h-6.68A2.226,2.226,0,0,0,58.188,42.3V64.57A2.226,2.226,0,0,0,60.414,66.8H69.32A6.687,6.687,0,0,0,76,60.117V46.758A6.669,6.669,0,0,0,71.547,40.488Zm0,0"/>
  <path id="Path_31" data-name="Path 31" class="cls-2" d="M333.227,300A2.226,2.226,0,0,0,331,302.227v13.359a2.227,2.227,0,0,0,4.453,0V302.227A2.226,2.226,0,0,0,333.227,300Zm0,0" transform="translate(-281.867 -255.469)"/>
  <path id="Path_32" data-name="Path 32" class="cls-2" d="M275.453,273.4V242.227a2.227,2.227,0,0,0-4.453,0V273.4a2.227,2.227,0,0,0,4.453,0Zm0,0" transform="translate(-230.773 -204.375)"/>
  <path id="Path_33" data-name="Path 33" class="cls-2" d="M215.453,273.4V242.227a2.227,2.227,0,0,0-4.453,0V273.4a2.227,2.227,0,0,0,4.453,0Zm0,0" transform="translate(-179.68 -204.375)"/>
  <path id="Path_34" data-name="Path 34" class="cls-2" d="M155.453,315.586V302.227a2.227,2.227,0,0,0-4.453,0v13.359a2.227,2.227,0,0,0,4.453,0Zm0,0" transform="translate(-128.586 -255.469)"/>
</svg>
