<?xml version="1.0" encoding="UTF-8"?>
<svg width="50px" height="51px" viewBox="0 0 50 51" version="1.1" xmlns="http://www.w3.org/2000/svg" xmlns:xlink="http://www.w3.org/1999/xlink">
    <!-- Generator: Sketch 50.2 (55047) - http://www.bohemiancoding.com/sketch -->
    <title>hosting</title>
    <desc>Created with Sketch.</desc>
    <defs></defs>
    <g id="Design" stroke="none" stroke-width="1" fill="none" fill-rule="evenodd">
        <g id="development-5" transform="translate(-583.000000, -2763.000000)" fill-rule="nonzero">
            <g id="Group-21" transform="translate(-7.000000, 1838.000000)">
                <g id="Group-23" transform="translate(241.000000, 924.000000)">
                    <g id="hosting" transform="translate(349.000000, 1.000000)">
                        <path d="M37.55,15.585567 L12.3793814,15.585567 C11.5742268,15.585567 10.9175258,16.2365979 10.9175258,17.043299 L10.9175258,22.0061856 C10.9175258,22.8128866 11.5742268,23.4639175 12.3793814,23.4639175 L37.55,23.4639175 C38.3536082,23.4639175 39.0097938,22.8128866 39.0097938,22.0061856 L39.0097938,17.043299 C39.0097938,16.2365979 38.3525773,15.585567 37.55,15.585567 Z M13.55,19.042268 C13.0525773,19.042268 12.6494845,18.6402062 12.6494845,18.142268 C12.6494845,17.6458763 13.0525773,17.2427835 13.55,17.2427835 C14.0484536,17.2427835 14.45,17.6458763 14.45,18.142268 C14.45,18.6407216 14.0484536,19.042268 13.55,19.042268 Z M35.1706186,21.6371134 L28.8118557,21.6371134 L28.8118557,19.5252577 L35.171134,19.5252577 L35.171134,21.6371134 L35.1706186,21.6371134 Z" id="Shape" fill="#FFFFFF"></path>
                        <path d="M37.55,24.2654639 L12.3793814,24.2654639 C11.5742268,24.2654639 10.9175258,24.9175258 10.9175258,25.7242268 L10.9175258,30.6865979 C10.9175258,31.492268 11.5742268,32.1448454 12.3793814,32.1448454 L37.55,32.1448454 C38.3536082,32.1448454 39.0097938,31.492268 39.0097938,30.6865979 L39.0097938,25.7242268 C39.0097938,24.9175258 38.3525773,24.2654639 37.55,24.2654639 Z M13.55,27.7231959 C13.0525773,27.7231959 12.6494845,27.3226804 12.6494845,26.8231959 C12.6494845,26.3273196 13.0525773,25.9221649 13.55,25.9221649 C14.0484536,25.9221649 14.45,26.3268041 14.45,26.8231959 C14.45,27.3221649 14.0484536,27.7231959 13.55,27.7231959 Z M35.1706186,30.3175258 L28.8118557,30.3175258 L28.8118557,28.2051546 L35.171134,28.2051546 L35.171134,30.3175258 L35.1706186,30.3175258 Z" id="Shape" fill="#FFFFFF"></path>
                        <path d="M37.55,32.9458763 L12.3793814,32.9458763 C11.5742268,32.9458763 10.9175258,33.5979381 10.9175258,34.4041237 L10.9175258,39.3664948 C10.9175258,40.1726804 11.5742268,40.8252577 12.3793814,40.8252577 L37.55,40.8252577 C38.3536082,40.8252577 39.0097938,40.1726804 39.0097938,39.3664948 L39.0097938,34.4041237 C39.0097938,33.5979381 38.3525773,32.9458763 37.55,32.9458763 Z M13.55,36.4025773 C13.0525773,36.4025773 12.6494845,36.0030928 12.6494845,35.5025773 C12.6494845,35.0056701 13.0525773,34.6036082 13.55,34.6036082 C14.0484536,34.6036082 14.45,35.0051546 14.45,35.5025773 C14.45,36.0030928 14.0484536,36.4025773 13.55,36.4025773 Z M35.1706186,38.9969072 L28.8118557,38.9969072 L28.8118557,36.8845361 L35.171134,36.8845361 L35.171134,38.9969072 L35.1706186,38.9969072 Z" id="Shape" fill="#FFFFFF"></path>
                        <polygon id="Shape" fill="#FFFFFF" points="29.3113402 45.5716495 26.628866 45.5716495 26.628866 41.6690722 23.3010309 41.6690722 23.3010309 45.5716495 20.6154639 45.5716495 20.6154639 46.6 11.2257732 46.6 11.2257732 49.9293814 20.6154639 49.9293814 20.6154639 50.9592784 29.3113402 50.9592784 29.3113402 49.9293814 38.7005155 49.9293814 38.7005155 46.6 29.3113402 46.6"></polygon>
                        <path d="M39.821134,7.58041237 C39.4608247,7.55 39.1298969,7.36597938 38.9154639,7.0757732 C36.8974227,4.35051546 33.6618557,2.66958763 30.2185567,2.66958763 C30.0030928,2.66958763 29.7871134,2.67628866 29.571134,2.68917526 C29.2721649,2.70721649 28.9783505,2.61804124 28.7396907,2.43762887 C26.643299,0.856701031 24.1030928,0 21.4443299,0 C16.6804124,0 12.4520619,2.75979381 10.4757732,6.93865979 C10.2943299,7.32164948 9.93247423,7.58762887 9.5128866,7.64639175 C4.26237113,8.38505155 0.208762887,12.906701 0.208762887,18.3572165 C0.208762887,23.5536082 3.89278351,27.9030928 8.78659794,28.9376289 L8.78659794,25.7242268 C8.78659794,25.3237113 8.86082474,24.9417526 8.98402062,24.5824742 C6.36701031,23.7221649 4.47010309,21.2587629 4.47010309,18.357732 C4.47010309,14.7438144 7.41030928,11.8036082 11.0247423,11.8036082 C11.2072165,11.8036082 11.3865979,11.8180412 11.5654639,11.8324742 C12.6072165,11.9134021 13.5494845,11.2376289 13.8036082,10.2273196 C14.6845361,6.71494845 17.8273196,4.26185567 21.4438144,4.26185567 C23.5108247,4.26185567 25.4670103,5.05979381 26.9515464,6.50927835 C27.4587629,7.00412371 28.1798969,7.21494845 28.8737113,7.07010309 C29.3164948,6.97783505 29.7685567,6.93092784 30.2185567,6.93092784 C32.7489691,6.93092784 35.0087629,8.35360825 36.1154639,10.643299 C36.5046392,11.4484536 37.3551546,11.9278351 38.2453608,11.8360825 C38.4670103,11.8139175 38.6881443,11.8030928 38.9025773,11.8030928 C42.5170103,11.8030928 45.457732,14.743299 45.457732,18.3572165 C45.457732,21.2587629 43.5597938,23.7216495 40.943299,24.5819588 C41.0659794,24.9417526 41.1402062,25.3231959 41.1402062,25.7237113 L41.1402062,28.9365979 C46.0335052,27.9025773 49.7195876,23.5536082 49.7195876,18.356701 C49.7190722,12.7025773 45.3561856,8.04742268 39.821134,7.58041237 Z" id="Shape" fill="#CC6A6C"></path>
                    </g>
                </g>
            </g>
        </g>
    </g>
</svg>