<?xml version="1.0" encoding="UTF-8"?>
<svg width="38px" height="48px" viewBox="0 0 38 48" version="1.1" xmlns="http://www.w3.org/2000/svg" xmlns:xlink="http://www.w3.org/1999/xlink">
    <!-- Generator: Sketch 50.2 (55047) - http://www.bohemiancoding.com/sketch -->
    <title>hosting copy</title>
    <desc>Created with Sketch.</desc>
    <defs></defs>
    <g id="Design" stroke="none" stroke-width="1" fill="none" fill-rule="evenodd">
        <g id="development-5" transform="translate(-1291.000000, -2764.000000)" fill-rule="nonzero">
            <g id="Group-21" transform="translate(-7.000000, 1838.000000)">
                <g id="Group-23" transform="translate(241.000000, 924.000000)">
                    <g id="hosting-copy" transform="translate(1057.000000, 2.000000)">
                        <path d="M35.4726984,0.777038128 L2.07168712,0.777038128 C1.0032597,0.777038128 0.131827851,1.64094584 0.131827851,2.7114253 L0.131827851,9.29709704 C0.131827851,10.3675765 1.0032597,11.2314842 2.07168712,11.2314842 L35.4726984,11.2314842 C36.5390738,11.2314842 37.4098216,10.3675765 37.4098216,9.29709704 L37.4098216,2.7114253 C37.4098216,1.64094584 36.5377058,0.777038128 35.4726984,0.777038128 Z M3.62507937,5.36402553 C2.96500736,5.36402553 2.43010964,4.83049583 2.43010964,4.16973981 C2.43010964,3.51103584 2.96500736,2.97613811 3.62507937,2.97613811 C4.28651939,2.97613811 4.81936508,3.51103584 4.81936508,4.16973981 C4.81936508,4.83117984 4.28651939,5.36402553 3.62507937,5.36402553 Z M32.315297,8.80734413 L23.8773196,8.80734413 L23.8773196,6.00494518 L32.315981,6.00494518 L32.315981,8.80734413 L32.315297,8.80734413 Z" id="Shape" fill="#FFFFFF"></path>
                        <path d="M35.4726984,12.2951235 L2.07168712,12.2951235 C1.0032597,12.2951235 0.131827851,13.1603993 0.131827851,14.2308787 L0.131827851,20.8158665 C0.131827851,21.8849779 1.0032597,22.7509377 2.07168712,22.7509377 L35.4726984,22.7509377 C36.5390738,22.7509377 37.4098216,21.8849779 37.4098216,20.8158665 L37.4098216,14.2308787 C37.4098216,13.1603993 36.5377058,12.2951235 35.4726984,12.2951235 Z M3.62507937,16.883479 C2.96500736,16.883479 2.43010964,16.3520013 2.43010964,15.6891933 C2.43010964,15.0311733 2.96500736,14.4935395 3.62507937,14.4935395 C4.28651939,14.4935395 4.81936508,15.0304893 4.81936508,15.6891933 C4.81936508,16.3513173 4.28651939,16.883479 3.62507937,16.883479 Z M32.315297,20.3261136 L23.8773196,20.3261136 L23.8773196,17.5230306 L32.315981,17.5230306 L32.315981,20.3261136 L32.315297,20.3261136 Z" id="Shape" fill="#FFFFFF"></path>
                        <path d="M35.4726984,23.813893 L2.07168712,23.813893 C1.0032597,23.813893 0.131827851,24.6791687 0.131827851,25.7489642 L0.131827851,32.3339519 C0.131827851,33.4037473 1.0032597,34.2697071 2.07168712,34.2697071 L35.4726984,34.2697071 C36.5390738,34.2697071 37.4098216,33.4037473 37.4098216,32.3339519 L37.4098216,25.7489642 C37.4098216,24.6791687 36.5377058,23.813893 35.4726984,23.813893 Z M3.62507937,28.4008804 C2.96500736,28.4008804 2.43010964,27.8707707 2.43010964,27.2065947 C2.43010964,26.5472067 2.96500736,26.013677 3.62507937,26.013677 C4.28651939,26.013677 4.81936508,26.5465227 4.81936508,27.2065947 C4.81936508,27.8707707 4.28651939,28.4008804 3.62507937,28.4008804 Z M32.315297,31.843515 L23.8773196,31.843515 L23.8773196,29.040432 L32.315981,29.040432 L32.315981,31.843515 L32.315297,31.843515 Z" id="Shape" fill="#FFFFFF"></path>
                        <polygon id="Shape" fill="#CC6A6C" points="24.5401276 40.5680936 20.9805269 40.5680936 20.9805269 35.3894354 16.5645426 35.3894354 16.5645426 40.5680936 13.0008378 40.5680936 13.0008378 41.9326984 0.540867288 41.9326984 0.540867288 46.3507347 13.0008378 46.3507347 13.0008378 47.7173916 24.5401276 47.7173916 24.5401276 46.3507347 36.9994142 46.3507347 36.9994142 41.9326984 24.5401276 41.9326984"></polygon>
                    </g>
                </g>
            </g>
        </g>
    </g>
</svg>