<svg width="40" height="45" viewBox="0 0 40 45" fill="none" xmlns="http://www.w3.org/2000/svg">
<path d="M13.5298 6.28229C13.5298 2.81275 16.359 0 19.8493 0C23.3392 0 26.1687 2.81275 26.1687 6.28229C26.1687 9.75182 23.3392 12.5645 19.8493 12.5645C16.359 12.5646 13.5298 9.75182 13.5298 6.28229ZM22.8862 16.8446C22.9496 15.4766 23.4233 14.2105 24.1853 13.1638C23.6505 13.0524 23.0977 12.9933 22.5305 12.9933H17.1689C16.6034 12.9933 16.0513 13.052 15.5192 13.1619C16.3302 14.2802 16.8153 15.646 16.8232 17.1245C17.809 16.5855 18.9401 16.2786 20.1416 16.2786C21.1162 16.2786 22.044 16.4804 22.8862 16.8446ZM23.9559 17.4085C25.7914 18.5528 27.0785 20.4884 27.314 22.7361C28.0619 23.0836 28.893 23.2841 29.7735 23.2841C32.9891 23.2841 35.5955 20.6926 35.5955 17.4958C35.5955 14.2986 32.9891 11.7077 29.7735 11.7077C26.5873 11.7077 24.0043 14.2527 23.9559 17.4085ZM20.1415 29.2603C23.3566 29.2603 25.9632 26.6681 25.9632 23.4722C25.9632 20.2758 23.3566 17.684 20.1415 17.684C16.9261 17.684 14.3184 20.2757 14.3184 23.4722C14.3185 26.6681 16.9261 29.2603 20.1415 29.2603ZM22.6112 29.6543H17.6714C13.5611 29.6543 10.2163 32.9793 10.2163 37.0662V43.073L10.232 43.1671L10.6479 43.2956C14.5707 44.5137 17.9787 44.9211 20.784 44.9211C26.2621 44.9211 29.4387 43.368 29.6344 43.2687L30.0235 43.0729H30.0647V37.0661C30.0648 32.9793 26.722 29.6543 22.6112 29.6543ZM32.2445 23.6792H27.3417C27.2885 25.6294 26.4513 27.3857 25.1273 28.6481C28.781 29.7282 31.4543 33.0965 31.4543 37.0753V38.9262C36.294 38.749 39.0835 37.3861 39.2672 37.2942L39.6564 37.0975H39.6977V31.0895C39.6982 27.0037 36.3538 23.6792 32.2445 23.6792ZM9.92582 23.2842C11.0648 23.2842 12.1239 22.9534 13.0221 22.3904C13.3077 20.5398 14.3057 18.9225 15.7307 17.8214C15.7366 17.7128 15.7467 17.6056 15.7467 17.4959C15.7467 14.2987 13.1395 11.7077 9.92582 11.7077C6.70936 11.7077 4.10332 14.2986 4.10332 17.4959C4.10332 20.6933 6.70926 23.2842 9.92582 23.2842ZM15.1544 28.6481C13.8366 27.3917 13.0022 25.6451 12.9408 23.7061C12.7595 23.6927 12.5796 23.6792 12.3943 23.6792H7.45506C3.3442 23.6792 0 27.0037 0 31.0901V37.0975L0.0152653 37.191L0.431657 37.3201C3.57796 38.2982 6.38704 38.7477 8.82681 38.8883V37.0747C8.82727 33.0965 11.4999 29.7277 15.1544 28.6481Z" fill="#CC1237"/>
</svg>
