<svg width="51" height="51" viewBox="0 0 51 51" fill="none" xmlns="http://www.w3.org/2000/svg">
<path fill-rule="evenodd" clip-rule="evenodd" d="M17.3879 14.3766C17.7445 15.7797 18.3414 16.9063 19.3381 17.6677C19.7943 18.0161 20.533 18.5054 21.4406 18.3532C23.5537 17.9994 24.5548 16.4096 25.0515 14.4529C25.836 11.3612 24.3871 8.11515 22.3243 7.2615C21.9562 7.10929 21.5398 7.0573 21.0141 7.06347C20.872 7.08399 20.7298 7.10411 20.5876 7.12463C20.2519 7.22285 19.9325 7.33899 19.6582 7.50554C18.3023 8.32851 17.6383 9.81688 17.2813 11.6495C17.2034 12.0497 17.1668 12.634 17.2357 13.0665C17.312 13.5466 17.2799 13.9517 17.3879 14.3766ZM30.6429 18.6885C31.9349 18.9546 32.9622 18.264 33.629 17.7287C34.7544 16.8256 35.5126 15.3026 35.8384 13.6152C36.2691 11.3823 34.6831 9.24412 33.4768 8.46538C33.0252 8.17392 32.5353 7.87529 31.7856 7.88645C31.6538 7.90179 31.5217 7.91693 31.3896 7.93207C31.141 8.02849 30.8919 8.12511 30.6431 8.22153C29.2578 9.02219 28.1041 10.4448 27.5807 12.0916C27.461 12.4683 27.4265 12.8663 27.3524 13.3104C27.2574 13.8781 27.318 14.6816 27.4132 15.1691C27.8114 17.2087 28.6254 18.2729 30.6429 18.6885ZM13.2742 26.3674C15.3013 26.0255 16.4408 25.1031 17.007 23.3201C17.2955 22.4113 17.4843 20.4069 17.1899 19.3132C16.6926 17.4657 15.024 15.3934 12.6648 15.4279C12.4973 15.4484 12.3295 15.4685 12.162 15.4888C11.8676 15.5478 11.5444 15.6707 11.3087 15.8088C9.93832 16.6126 9.26775 18.1466 8.88625 19.9378C8.34039 22.5005 9.52594 24.837 11.0193 25.8187C11.5171 26.1458 12.3375 26.5254 13.2742 26.3674ZM42.2068 21.7509C41.5683 19.6338 40.3166 18.1337 37.5142 18.1703C37.3415 18.1908 37.1689 18.211 36.9962 18.2315C36.7623 18.2974 36.5288 18.3634 36.2952 18.4295C35.2407 18.8542 34.5817 19.7617 34.2231 20.8825C34.0362 21.4668 34.0133 22.1063 33.9033 22.787V24.4477C34.0051 25.094 33.9639 25.6462 34.1316 26.1847C34.6488 27.8418 35.5837 28.4414 37.4379 28.7747C38.022 28.8797 38.8272 28.871 39.3729 28.7291C41.0651 28.289 41.8289 27.1617 42.2219 25.4229C42.3333 24.9316 42.2544 24.435 42.3438 23.8841C42.4534 23.2114 42.3669 22.2814 42.2068 21.7509ZM36.6609 31.6694C35.8099 30.99 35.0726 30.1719 34.2691 29.4449C33.7236 28.9512 33.1453 28.4032 32.6845 27.83C32.0691 27.0644 31.3641 26.3522 30.8105 25.5295C30.217 24.6473 29.6098 23.7377 28.7537 23.1221C27.7632 22.4099 26.7596 21.8746 25.0058 21.9033C24.656 22.0411 24.2317 21.9989 23.8936 22.1013C22.9156 22.3973 22.1636 22.8964 21.4558 23.4574C20.7161 24.0435 20.2951 24.9286 19.7494 25.7121C19.2914 26.37 18.7039 26.9122 18.2107 27.5252C17.9822 27.7639 17.7535 28.0026 17.525 28.2414C16.8082 28.8184 16.186 29.5316 15.4682 30.1001C13.8524 31.3807 12.7188 32.2499 11.6594 34.1224C10.1871 36.7244 11.5233 40.6105 13.2286 41.9839C13.8131 42.4547 14.5249 42.8557 15.3617 43.0657C15.7714 43.1687 16.2374 43.1271 16.7024 43.2028H17.4337C17.7814 43.2603 18.2846 43.2416 18.6221 43.1876C18.8659 43.1775 19.1096 43.1673 19.3534 43.1571C20.0734 43.0368 20.7882 43.0519 21.4711 42.9133C22.2546 42.7547 23.0192 42.6234 23.8326 42.4714C24.1627 42.4511 24.4928 42.4308 24.8229 42.4105L25.7828 42.3953C26.5103 42.516 27.217 42.4995 27.8853 42.6392C28.5609 42.8218 29.2362 43.0047 29.9118 43.1876C30.4094 43.2791 30.9071 43.3705 31.4047 43.4617C33.4105 43.8528 35.8047 43.4791 37.0725 42.7153C37.6923 42.3419 38.219 41.8538 38.6266 41.2677C39.6392 39.812 40.261 36.7969 39.3731 34.7471C38.7714 33.3582 37.763 32.5485 36.6609 31.6694ZM24.2287 40.2774C24.2287 40.2774 22.2245 40.2774 21.1816 40.2774C20.4712 40.2774 19.2616 40.3906 18.6677 40.2318C16.8719 39.7515 15.8852 38.5725 15.4987 36.6666C15.4035 36.1972 15.3487 35.5279 15.4378 34.9908C15.4999 34.6154 15.5431 34.3148 15.6663 34.0156C16.2607 32.5701 17.3959 31.4931 19.14 31.197C20.059 31.1921 20.9786 31.1869 21.8976 31.1817C21.9128 31.1767 21.9281 31.1715 21.9432 31.1666C21.9534 30.0647 21.9636 28.9624 21.9737 27.8603C21.999 27.8452 22.0245 27.83 22.0498 27.8147C22.7658 27.8249 24.2351 27.8452 24.2351 27.8452L24.2287 40.2774ZM33.6902 40.2774C33.6902 40.2774 31.6926 40.2774 30.6276 40.2774C28.8763 40.2774 27.2705 40.4551 26.3771 39.5766C25.5365 38.7506 25.6001 37.7109 25.6001 36.057C25.6051 34.5134 25.6001 31.3951 25.6001 31.3951H27.9616V36.2857C27.9616 36.2857 27.9007 37.4971 28.1294 37.8246C28.4581 38.2958 29.2641 38.2056 30.0642 38.2056C30.4808 38.2006 31.3593 38.1902 31.3593 38.1902V31.3951H33.6904V40.2774H33.6902ZM17.9212 34.7164C17.4341 36.2833 18.0874 37.7629 19.3229 38.1444C19.6417 38.2428 20.1072 38.2056 20.5113 38.2056C21.4113 38.1948 21.852 38.2056 21.852 38.2056V33.2845C21.852 33.2845 20.3487 33.2741 19.6124 33.2691C19.147 33.348 18.2069 33.7972 17.9212 34.7164Z" fill="#CB2023"/>
</svg>
