<?xml version="1.0" encoding="UTF-8"?>
<svg width="38px" height="38px" viewBox="0 0 38 38" version="1.1" xmlns="http://www.w3.org/2000/svg" xmlns:xlink="http://www.w3.org/1999/xlink">
    <!-- Generator: Sketch 50.2 (55047) - http://www.bohemiancoding.com/sketch -->
    <title>language</title>
    <desc>Created with Sketch.</desc>
    <defs></defs>
    <g id="Design" stroke="none" stroke-width="1" fill="none" fill-rule="evenodd">
        <g id="Home-8" transform="translate(-214.000000, -2977.000000)" fill-rule="nonzero">
            <g id="language" transform="translate(214.000000, 2977.000000)">
                <polygon id="Shape" fill="#CB2023" points="10.2948828 10.1679688 9.81839844 10.1679688 8.92799609 14.6210938 11.1852852 14.6210938"></polygon>
                <path d="M28.3051016,19.0742188 C28.7858164,20.3655508 29.4252109,21.4108477 30.1328125,22.3002852 C30.8404141,21.4108477 31.5540273,20.3654766 32.0347422,19.0742188 L28.3051016,19.0742188 Z" id="Shape" fill="#3D3C3B"></path>
                <path d="M34.6601562,6.75390625 L20.8344648,6.75390625 L23.7172695,29.886332 C23.7682578,30.8324727 23.5096055,31.7232461 22.8921055,32.4206055 L18.0101445,38 L34.6601562,38 C36.5018203,38 38,36.5018203 38,34.6601562 L38,10.1679688 C38,8.32630469 36.5018203,6.75390625 34.6601562,6.75390625 Z M34.6601563,19.0742188 L34.3628359,19.0742188 C33.7293789,21.1065508 32.7248281,22.6968359 31.6808672,23.9505391 C32.4986836,24.6982188 33.3732031,25.3115625 34.2426758,25.9985313 C34.7221289,26.3823164 34.8004297,27.0824219 34.4155313,27.5629883 C34.0324141,28.0428125 33.3295625,28.1205938 32.8510742,27.7358438 C31.9063438,26.990168 31.0195781,26.3659883 30.1328125,25.5522539 C29.2460469,26.3659883 28.4335,26.990168 27.4887695,27.7358438 C27.0102813,28.1205938 26.3074297,28.0428125 25.9243125,27.5629883 C25.5394141,27.0824219 25.6177148,26.3823164 26.097168,25.9985313 C26.9666406,25.3115625 27.7669414,24.6982188 28.5847578,23.9505391 C27.5407969,22.6969102 26.6103906,21.106625 25.9770078,19.0742188 L25.6796875,19.0742188 C25.0643398,19.0742188 24.5664063,18.5762852 24.5664063,17.9609375 C24.5664063,17.3455898 25.0643398,16.8476562 25.6796875,16.8476562 L29.0195313,16.8476562 L29.0195313,15.734375 C29.0195313,15.1190273 29.5174648,14.6210938 30.1328125,14.6210938 C30.7481602,14.6210938 31.2460938,15.1190273 31.2460938,15.734375 L31.2460938,16.8476562 L34.6601563,16.8476562 C35.2755039,16.8476562 35.7734375,17.3455898 35.7734375,17.9609375 C35.7734375,18.5762852 35.2755039,19.0742188 34.6601563,19.0742188 Z" id="Shape" fill="#3D3C3B"></path>
                <path d="M18.1215469,2.92562891 C17.9138828,1.25785938 16.4885859,0 14.8078281,0 L3.33984375,0 C1.49817969,0 0,1.49817969 0,3.33984375 L0,27.9804688 C0,29.8221328 1.49817969,31.3203125 3.33984375,31.3203125 C9.99503906,31.3203125 14.782668,31.3203125 20.8963633,31.3203125 C21.2211445,30.9490703 21.4933789,30.7166172 21.5048828,30.232043 C21.5077031,30.1105469 18.1366133,3.04616016 18.1215469,2.92562891 Z M13.6520938,21.2790352 C13.0617578,21.4005313 12.4637773,21.0172656 12.3420586,20.406 L11.6305234,16.8476563 L8.48283203,16.8476563 L7.77129687,20.406 C7.65173047,21.0082852 7.07111719,21.4040195 6.46126172,21.2790352 C5.85897656,21.1583555 5.46754687,20.5723984 5.58822656,19.969 L7.81471484,8.8361875 C7.91906641,8.31650781 8.37573438,7.94140625 8.90625,7.94140625 L11.2070312,7.94140625 C11.7375469,7.94140625 12.1942148,8.31650781 12.2985664,8.8361875 L14.5251289,19.969 C14.6458086,20.5723984 14.2544531,21.1583555 13.6520938,21.2790352 Z" id="Shape" fill="#CB2023"></path>
                <path d="M13.0076523,33.546875 L13.1986914,35.0743711 C13.3260508,36.0973281 14.0057461,37.1404727 15.1237773,37.6613398 C17.233668,35.3387383 15.9571797,36.7438477 18.8613594,33.546875 L13.0076523,33.546875 Z" id="Shape" fill="#990D29"></path>
            </g>
        </g>
    </g>
</svg>