<svg width="55" height="54" viewBox="0 0 55 54" fill="none" xmlns="http://www.w3.org/2000/svg">
<g id="language">
<path id="Shape" d="M15.5029 14.4737H14.8918L13.75 20.2632H16.6447L15.5029 14.4737Z" fill="#CC6A6C"/>
<path id="Shape_2" d="M41 27C41.7462 28.7381 42.7387 30.145 43.8371 31.3421C44.9355 30.145 46.0433 28.738 46.7895 27H41Z" fill="white"/>
<path id="Shape_3" fill-rule="evenodd" clip-rule="evenodd" d="M30.6618 10.1316H49.6818C52.2153 10.1316 54.2764 12.3167 54.2764 14.8759V48.9114C54.2764 51.4707 52.2153 53.5526 49.6818 53.5526H26.7764L33.4925 45.7992C34.342 44.8302 34.6978 43.5923 34.6276 42.2775L30.6618 10.1316ZM49.2727 27.2525H49.6818C50.5283 27.2525 51.2133 26.5605 51.2133 25.7054C51.2133 24.8503 50.5283 24.1583 49.6818 24.1583H44.985V22.6113C44.985 21.7561 44.3 21.0642 43.4535 21.0642C42.607 21.0642 41.922 21.7561 41.922 22.6113V24.1583H37.3273C36.4808 24.1583 35.7958 24.8503 35.7958 25.7054C35.7958 26.5605 36.4808 27.2525 37.3273 27.2525H37.7364C38.6077 30.0768 39.8877 32.2867 41.3238 34.0288C40.3532 34.9252 39.4006 35.6826 38.3892 36.4867C38.2283 36.6146 38.0659 36.7438 37.9017 36.8748C37.2421 37.4081 37.1344 38.381 37.6639 39.0489C38.1909 39.7157 39.1578 39.8237 39.8161 39.2891C39.9687 39.1674 40.1189 39.048 40.2669 38.9303C41.3797 38.0455 42.3768 37.2526 43.4535 36.2547C44.3207 37.0585 45.1878 37.7292 46.0836 38.422C46.448 38.7039 46.8172 38.9894 47.193 39.2891C47.8513 39.8237 48.8182 39.7157 49.3452 39.0489C49.8747 38.381 49.767 37.4081 49.1074 36.8748C48.7441 36.5849 48.3802 36.3043 48.018 36.0252C47.1877 35.3852 46.3665 34.7523 45.5831 34.0288C47.0193 32.2866 48.4013 30.0767 49.2727 27.2525Z" fill="white"/>
<path id="Shape_4" fill-rule="evenodd" clip-rule="evenodd" d="M21.6528 0C24.0284 0 26.0429 1.74384 26.3364 4.05596C26.3577 4.22306 31.1224 41.7439 31.1184 41.9123C31.1042 42.4973 30.8106 42.8173 30.4319 43.23C30.3757 43.2912 30.3176 43.3545 30.2583 43.4211H5.44413C2.84114 43.4211 0.723633 41.344 0.723633 38.7908V4.63021C0.723633 2.07701 2.84114 0 5.44413 0H21.6528ZM18.1677 28.2899C18.3398 29.1374 19.185 29.6687 20.0193 29.5003C20.8707 29.333 21.4238 28.5206 21.2533 27.6841L18.1063 12.2501C17.9588 11.5296 17.3133 11.0096 16.5635 11.0096H13.3116C12.5618 11.0096 11.9163 11.5296 11.7689 12.2501L8.62196 27.6841C8.4514 28.5206 9.00464 29.333 9.8559 29.5003C10.7179 29.6736 11.5385 29.1249 11.7075 28.2899L12.7132 23.3568H17.1621L18.1677 28.2899Z" fill="#CC6A6C"/>
<path id="Shape_5" d="M19.5394 47.7632L19.8228 49.9125C20.0118 51.3519 21.0201 52.8197 22.6788 53.5526C25.8089 50.2845 23.9152 52.2616 28.2236 47.7632H19.5394Z" fill="#CC6A6C"/>
</g>
</svg>
