<svg xmlns="http://www.w3.org/2000/svg" viewBox="0 0 60.012 47.068"><defs><style>.cls-1{fill:#cc6a6c}.cls-2{fill:#fff}.cls-3{fill:#3d3c3b}</style></defs><g id="laptop" transform="translate(-2 1)"><rect id="Rectangle_53" data-name="Rectangle 53" class="cls-1" width="60.012" height="47.068" rx="2" transform="translate(2 -1)"/><path id="Shape" class="cls-2" d="M49.9 0H.7a.7.7 0 0 0-.7.7v36.26a.7.7 0 0 0 .7.7h49.2a.7.7 0 0 0 .7-.7V.7a.7.7 0 0 0-.7-.7z" transform="translate(6.707 3.707)"/><g id="Group" transform="translate(10.319 28.537)"><path id="Shape-2" data-name="Shape" class="cls-3" d="M18.95 2.181H1.042A1.067 1.067 0 0 1 0 1.091 1.067 1.067 0 0 1 1.042 0H18.95a1.067 1.067 0 0 1 1.042 1.091 1.067 1.067 0 0 1-1.042 1.09z"/><path id="Shape-3" data-name="Shape" class="cls-3" d="M18.95 2.181H1.042A1.067 1.067 0 0 1 0 1.091 1.067 1.067 0 0 1 1.042 0H18.95a1.067 1.067 0 0 1 1.042 1.091 1.067 1.067 0 0 1-1.042 1.09z" transform="translate(0 4.084)"/><path id="Shape-4" data-name="Shape" class="cls-3" d="M18.95 2.181H1.042A1.067 1.067 0 0 1 0 1.091 1.067 1.067 0 0 1 1.042 0H18.95a1.067 1.067 0 0 1 1.042 1.091 1.067 1.067 0 0 1-1.042 1.09z" transform="translate(0 8.168)"/><path id="Shape-5" data-name="Shape" class="cls-3" d="M18.949 2.181H1.042A1.067 1.067 0 0 1 0 1.091 1.067 1.067 0 0 1 1.042 0h17.907a1.067 1.067 0 0 1 1.042 1.091 1.067 1.067 0 0 1-1.042 1.09z" transform="translate(22.285)"/><path id="Shape-6" data-name="Shape" class="cls-3" d="M18.949 2.181H1.042A1.067 1.067 0 0 1 0 1.091 1.067 1.067 0 0 1 1.042 0h17.907a1.067 1.067 0 0 1 1.042 1.091 1.067 1.067 0 0 1-1.042 1.09z" transform="translate(22.285 4.084)"/><path id="Shape-7" data-name="Shape" class="cls-3" d="M18.949 2.181H1.042A1.067 1.067 0 0 1 0 1.091 1.067 1.067 0 0 1 1.042 0h17.907a1.067 1.067 0 0 1 1.042 1.091 1.067 1.067 0 0 1-1.042 1.09z" transform="translate(22.285 8.168)"/></g><g id="Group-2" data-name="Group" transform="translate(18.579 14.392)"><path id="Shape-8" data-name="Shape" class="cls-3" d="M1.641 2.863v2.768H0V0h1.279l2.4 2.863V0h1.638v5.631h-1.3z" transform="translate(0 .048)"/><path id="Shape-9" data-name="Shape" class="cls-3" d="M4.257 4.283v1.348H0V0h4.181v1.348H1.64v.793h2.171v1.254H1.64v.888z" transform="translate(6.344 .048)"/><path id="Shape-10" data-name="Shape" class="cls-3" d="M2.516 0h1.506l.522 1.737L5.073 0h1.506l-.984 2.689.429 1.174L7.311 0H9.1L6.756 5.631H5.393l-.85-2.014L3.7 5.631H2.339L0 0h1.775l1.3 3.863.412-1.174z" transform="translate(10.752 .048)"/><path id="Shape-11" data-name="Shape" class="cls-3" d="M4.022 1.888a4.687 4.687 0 0 0-.522-.254 4.958 4.958 0 0 0-.509-.179 1.942 1.942 0 0 0-.551-.083.806.806 0 0 0-.349.064.22.22 0 0 0-.13.214.239.239 0 0 0 .076.182.721.721 0 0 0 .219.131 2.82 2.82 0 0 0 .349.115q.206.055.467.135a6.379 6.379 0 0 1 .745.262 2.346 2.346 0 0 1 .568.337 1.31 1.31 0 0 1 .362.472 1.623 1.623 0 0 1 .126.674 1.693 1.693 0 0 1-.2.853 1.563 1.563 0 0 1-.522.551 2.275 2.275 0 0 1-.732.3 3.754 3.754 0 0 1-.82.091 4.908 4.908 0 0 1-.672-.053 6.1 6.1 0 0 1-.686-.135 6.274 6.274 0 0 1-.656-.206A4.294 4.294 0 0 1 0 5.092l.707-1.356a5.038 5.038 0 0 0 .614.309 4.523 4.523 0 0 0 .61.214 2.566 2.566 0 0 0 .694.1A.743.743 0 0 0 3 4.287a.2.2 0 0 0 .1-.178.251.251 0 0 0-.1-.203.986.986 0 0 0-.29-.147q-.185-.063-.425-.127t-.509-.151a4.514 4.514 0 0 1-.681-.274 1.832 1.832 0 0 1-.471-.333A1.18 1.18 0 0 1 .35 2.45a1.569 1.569 0 0 1-.089-.55 1.8 1.8 0 0 1 .181-.825A1.714 1.714 0 0 1 .934.484a2.25 2.25 0 0 1 .711-.361A2.861 2.861 0 0 1 2.49 0a3.4 3.4 0 0 1 .64.059 5.358 5.358 0 0 1 .6.151q.29.091.543.2t.454.2z" transform="translate(19.671)"/></g></g></svg>