<svg width="70" height="48" viewBox="0 0 70 48" fill="none" xmlns="http://www.w3.org/2000/svg">
<path fill-rule="evenodd" clip-rule="evenodd" d="M25.3447 41.1523V43.5661H44.655V41.1523H65.1724V2.53162C65.1724 1.19807 64.0922 0.117851 62.7587 0.117851H7.24141C5.90785 0.117851 4.82764 1.19807 4.82764 2.53162V41.1523H25.3447Z" fill="white"/>
<path fill-rule="evenodd" clip-rule="evenodd" d="M7.24146 38.7386H62.7586V2.53162H7.24146V38.7386Z" fill="#3D3C3B"/>
<path fill-rule="evenodd" clip-rule="evenodd" d="M10.862 31.4971C10.1958 31.4971 9.65503 30.9564 9.65503 30.2902V10.9799C9.65503 10.3136 10.1958 9.77293 10.862 9.77293C11.5282 9.77293 12.0689 10.3136 12.0689 10.9799V30.2902C12.0689 30.9565 11.5282 31.4971 10.862 31.4971ZM20.5172 14.6006H15.6897C15.0234 14.6006 14.4827 14.0599 14.4827 13.3936C14.4827 12.7274 15.0234 12.1867 15.6897 12.1867H20.5172C21.1834 12.1867 21.7242 12.7274 21.7242 13.3936C21.7242 14.0599 21.1834 14.6006 20.5172 14.6006ZM15.6897 19.4281H18.1034C18.7697 19.4281 19.3102 18.8876 19.3104 18.2212C19.3104 17.555 18.7697 17.0142 18.1034 17.0142H15.6897C15.0234 17.0142 14.4827 17.555 14.4827 18.2212C14.4827 18.8874 15.0234 19.4281 15.6897 19.4281ZM15.6897 24.2558C15.0234 24.2558 14.4827 23.7151 14.4827 23.0489C14.4827 22.3826 15.0234 21.8419 15.6897 21.8419H20.5172C21.1834 21.8419 21.7242 22.3826 21.7242 23.0489C21.7242 23.7151 21.1834 24.2558 20.5172 24.2558H15.6897ZM15.6897 29.0834H18.1034C18.7697 29.0834 19.3104 28.5426 19.3104 27.8764C19.3104 27.2102 18.7697 26.6694 18.1034 26.6694H15.6897C15.0234 26.6694 14.4827 27.2102 14.4827 27.8764C14.4827 28.5426 15.0234 29.0834 15.6897 29.0834Z" fill="#CC6A6C"/>
<path fill-rule="evenodd" clip-rule="evenodd" d="M44.6552 41.1523V43.5661H25.3448V41.1523H0V44.7731C0 46.1066 1.08021 47.1868 2.41377 47.1868H67.5862C68.9198 47.1868 70 46.1066 70 44.7731V41.1523H44.6552Z" fill="white"/>
</svg>
