<svg xmlns="http://www.w3.org/2000/svg" viewBox="0 0 45.553 38.187">
  <defs>
    <style>
      .cls-1 {
        fill: #cb2023;
      }

      .cls-2 {
        fill: #282625;
      }
    </style>
  </defs>
  <g id="award" transform="translate(0 -41.404)">
    <g id="Group_128" data-name="Group 128" transform="translate(0 41.404)">
      <g id="Group_127" data-name="Group 127">
        <g id="Group_126" data-name="Group 126">
          <path id="Path_283" data-name="Path 283" class="cls-1" d="M348.23,344.946V349.6h5.737v-5.246a7.214,7.214,0,0,1-2.868.592Z" transform="translate(-317.247 -317.4)"/>
          <path id="Path_284" data-name="Path 284" class="cls-1" d="M333.865,218.315a4.551,4.551,0,1,0,4.55,4.551A4.557,4.557,0,0,0,333.865,218.315Z" transform="translate(-300.014 -202.575)"/>
          <path id="Path_285" data-name="Path 285" class="cls-2" d="M106.974,124.109H85.029a6.176,6.176,0,0,1-4.653,4.653v8.14a6.175,6.175,0,0,1,4.661,4.69h16.395a7.249,7.249,0,0,1,10.194-10.2v-2.635A6.175,6.175,0,0,1,106.974,124.109Z" transform="translate(-73.225 -116.751)"/>
          <path id="Path_286" data-name="Path 286" class="cls-1" d="M44.2,41.4H1.352A1.352,1.352,0,0,0,0,42.756v29.5A1.352,1.352,0,0,0,1.352,73.6H28.278V68.95H10.6a1.351,1.351,0,0,1-1.352-1.362c0-.014,0-.029,0-.043A3.455,3.455,0,0,0,5.8,64.111a1.352,1.352,0,0,1-1.352-1.352V52.213A1.352,1.352,0,0,1,5.8,50.861,3.454,3.454,0,0,0,9.25,47.41,1.352,1.352,0,0,1,10.6,46.058h24.35A1.353,1.353,0,0,1,36.3,47.41a3.454,3.454,0,0,0,3.45,3.451,1.352,1.352,0,0,1,1.352,1.352V61.7a7.225,7.225,0,0,1-1.682,4.64V73.6H44.2a1.352,1.352,0,0,0,1.352-1.352v-29.5A1.353,1.353,0,0,0,44.2,41.4Z" transform="translate(0 -41.404)"/>
        </g>
      </g>
    </g>
    <g id="Group_130" data-name="Group 130" transform="translate(28.278 73.604)">
      <g id="Group_129" data-name="Group 129">
        <path id="Path_287" data-name="Path 287" class="cls-1" d="M326.275,403.321v2.161l-2.139-1.37a1.351,1.351,0,0,0-1.459,0l-2.139,1.37v-2.161h-2.7v4.633a1.352,1.352,0,0,0,2.081,1.138l3.491-2.237,3.49,2.237a1.353,1.353,0,0,0,2.082-1.138v-4.633Z" transform="translate(-317.834 -403.321)"/>
      </g>
    </g>
  </g>
</svg>
