<svg width="35" height="35" viewBox="0 0 35 35" fill="none" xmlns="http://www.w3.org/2000/svg">
<g clip-path="url(#clip0)">
<path d="M5.71335 11.4336H1.1427C0.514337 11.4336 0 11.9453 0 12.5762V33.1443C0 33.7749 0.512081 34.2868 1.1427 34.2868H5.71335C6.34397 34.2868 6.85605 33.7748 6.85605 33.1443V12.5762C6.85605 11.9453 6.34164 11.4336 5.71335 11.4336Z" fill="#CB2023"/>
<path d="M32.1473 11.4334C31.9633 11.4023 23.3468 11.4334 23.3468 11.4334L24.5503 8.15C25.3807 5.88224 24.8431 2.41963 22.5389 1.18861C21.7886 0.787751 20.7404 0.586432 19.8953 0.799167C19.4106 0.92112 18.9847 1.242 18.7308 1.67191C18.4388 2.16636 18.469 2.74352 18.365 3.29176C18.1013 4.68233 17.4443 6.00447 16.4267 6.99684C14.6527 8.72709 9.1416 13.7187 9.1416 13.7187V32.0015H28.1861C30.7558 32.003 32.4399 29.1332 31.1725 26.8916C32.6833 25.924 33.2 23.8859 32.3152 22.321C33.8261 21.3534 34.3427 19.3152 33.4579 17.7503C36.0647 16.0808 35.1932 11.9486 32.1473 11.4334Z" fill="#CB2023"/>
</g>
<defs>
<clipPath id="clip0">
<rect width="35" height="35" fill="white"/>
</clipPath>
</defs>
</svg>
