<svg width="285" height="31" viewBox="0 0 285 31" fill="none" xmlns="http://www.w3.org/2000/svg">
<path fill-rule="evenodd" clip-rule="evenodd" d="M87.8139 26.3506L86.1537 20.8292H77.8209L76.1608 26.3506H73.0958L80.1516 4.36065H83.9827L91.0065 26.3506H87.8139ZM78.5552 18.3716H85.4194L82.0033 6.88199L78.5552 18.3716ZM100.557 3.97766C102.025 3.97766 103.281 4.18511 104.324 4.60002C105.367 5.01492 106.378 5.65855 107.357 6.53092L105.697 8.38203C104.867 7.72243 104.052 7.23838 103.254 6.92986C102.456 6.62134 101.599 6.46709 100.684 6.46709C99.5349 6.46709 98.5877 6.73305 97.8428 7.26498C97.0978 7.79691 96.7254 8.57352 96.7254 9.59482C96.7254 10.2331 96.8531 10.7704 97.1085 11.2066C97.3639 11.6428 97.8375 12.0417 98.5292 12.4034C99.221 12.7651 100.227 13.1481 101.546 13.5524C102.93 13.9779 104.079 14.4354 104.994 14.9247C105.91 15.4141 106.649 16.0897 107.213 16.9514C107.777 17.8131 108.059 18.9036 108.059 20.2228C108.059 21.4994 107.745 22.6271 107.117 23.6058C106.49 24.5846 105.585 25.3505 104.404 25.9037C103.222 26.457 101.823 26.7336 100.205 26.7336C97.1617 26.7336 94.6715 25.7867 92.7346 23.8931L94.3947 22.0419C95.2887 22.7654 96.1933 23.3133 97.1085 23.6856C98.0237 24.058 99.0454 24.2441 100.173 24.2441C101.536 24.2441 102.664 23.909 103.558 23.2388C104.452 22.5686 104.899 21.5951 104.899 20.3185C104.899 19.5951 104.76 18.994 104.483 18.5153C104.207 18.0365 103.733 17.6057 103.063 17.2227C102.392 16.8397 101.419 16.4567 100.141 16.0737C97.8854 15.3928 96.2358 14.5737 95.1929 13.6162C94.15 12.6587 93.6285 11.3608 93.6285 9.72249C93.6285 8.61607 93.9212 7.62669 94.5065 6.75433C95.0918 5.88196 95.9112 5.2011 96.9648 4.71172C98.0184 4.22235 99.2156 3.97766 100.557 3.97766ZM116.3 4.36065V26.3506H113.267V4.36065H116.3ZM135.141 26.3506L133.481 20.8292H125.148L123.488 26.3506H120.423L127.479 4.36065H131.31L138.333 26.3506H135.141ZM125.882 18.3716H132.746L129.33 6.88199L125.882 18.3716Z" fill="#CC1237"/>
<path fill-rule="evenodd" clip-rule="evenodd" d="M157.506 6.05223C155.888 4.83942 153.621 4.23303 150.705 4.23303H143.554V26.3506H148.79V18.9781H151.184C153.845 18.9781 155.968 18.3451 157.553 17.0791C159.139 15.8131 159.932 13.9354 159.932 11.446C159.932 9.06293 159.123 7.26503 157.506 6.05223ZM153.563 14.3344C152.913 14.9195 151.972 15.212 150.737 15.212H148.79V7.96717H150.641C153.238 7.96717 154.536 9.12676 154.536 11.446C154.536 12.7864 154.212 13.7492 153.563 14.3344Z" fill="#3D3C3B"/>
<path fill-rule="evenodd" clip-rule="evenodd" d="M172.774 21.5952L173.924 26.3506H179.479L172.806 4.23303H166.453L159.78 26.3506H165.208L166.325 21.5952H172.774ZM169.55 8.031L171.88 17.7972H167.219L169.55 8.031Z" fill="#3D3C3B"/>
<path fill-rule="evenodd" clip-rule="evenodd" d="M190.561 3.69043C191.945 3.69043 193.174 3.89256 194.249 4.29683C195.324 4.7011 196.34 5.30749 197.298 6.11602L194.808 9.08418C194.148 8.57353 193.499 8.19054 192.86 7.93522C192.222 7.67989 191.541 7.55223 190.817 7.55223C189.327 7.55223 188.151 8.1799 187.289 9.43526C186.427 10.6906 185.996 12.6268 185.996 15.2439C185.996 17.8185 186.427 19.7281 187.289 20.9728C188.151 22.2175 189.348 22.8398 190.881 22.8398C191.69 22.8398 192.424 22.6856 193.084 22.3771C193.743 22.0686 194.456 21.6271 195.223 21.0526L197.553 24.0526C196.723 24.8825 195.718 25.5633 194.536 26.0953C193.355 26.6272 192.051 26.8931 190.625 26.8931C188.582 26.8931 186.805 26.4463 185.294 25.5527C183.782 24.659 182.606 23.3346 181.766 21.5792C180.925 19.8238 180.505 17.7121 180.505 15.2439C180.505 12.8396 180.936 10.7651 181.798 9.02035C182.66 7.27562 183.852 5.95113 185.373 5.04685C186.895 4.14256 188.625 3.69043 190.561 3.69043Z" fill="#3D3C3B"/>
<path fill-rule="evenodd" clip-rule="evenodd" d="M206.597 4.23303V26.3506H201.361V4.23303H206.597Z" fill="#3D3C3B"/>
<path fill-rule="evenodd" clip-rule="evenodd" d="M211.453 26.3506V4.23303H224.639L224.096 7.96717H216.689V13.8397H223.138V17.5738H216.689V26.3506H211.453Z" fill="#3D3C3B"/>
<path fill-rule="evenodd" clip-rule="evenodd" d="M233.714 4.23303V26.3506H228.478V4.23303H233.714Z" fill="#3D3C3B"/>
<path fill-rule="evenodd" clip-rule="evenodd" d="M246.868 3.69043C248.251 3.69043 249.48 3.89256 250.555 4.29683C251.63 4.7011 252.647 5.30749 253.604 6.11602L251.114 9.08418C250.454 8.57353 249.805 8.19054 249.167 7.93522C248.528 7.67989 247.847 7.55223 247.123 7.55223C245.633 7.55223 244.457 8.1799 243.595 9.43526C242.733 10.6906 242.302 12.6268 242.302 15.2439C242.302 17.8185 242.733 19.7281 243.595 20.9728C244.457 22.2175 245.655 22.8398 247.187 22.8398C247.996 22.8398 248.73 22.6856 249.39 22.3771C250.05 22.0686 250.763 21.6271 251.529 21.0526L253.86 24.0526C253.03 24.8825 252.024 25.5633 250.843 26.0953C249.661 26.6272 248.358 26.8931 246.932 26.8931C244.888 26.8931 243.111 26.4463 241.6 25.5527C240.089 24.659 238.913 23.3346 238.072 21.5792C237.231 19.8238 236.811 17.7121 236.811 15.2439C236.811 12.8396 237.242 10.7651 238.104 9.02035C238.966 7.27562 240.158 5.95113 241.68 5.04685C243.202 4.14256 244.931 3.69043 246.868 3.69043Z" fill="#3D3C3B"/>
<path fill-rule="evenodd" clip-rule="evenodd" d="M9.51695 31H35.6768C36.8688 31 37.9561 30.4089 38.598 29.3975C39.2267 28.386 39.3053 27.1513 38.8076 26.0742L26.6119 0H18.9879L29.7296 23.1449C29.8344 23.3551 29.7427 23.539 29.7034 23.6047C29.6641 23.6703 29.5331 23.828 29.2973 23.828H16.0667C15.7785 23.828 15.6475 23.6441 15.5951 23.5653C15.5558 23.4864 15.4641 23.2763 15.5951 23.0267L22.9309 9.20805H15.0712L6.33375 25.6932C5.73117 26.8229 5.77047 28.1627 6.42545 29.253C7.08043 30.3432 8.24629 31 9.51695 31ZM7.72231 26.4288L16.0143 10.7843V10.7712H20.311L14.2197 22.2517C13.8529 22.9216 13.866 23.6966 14.2459 24.3534C14.6258 25.0102 15.307 25.4042 16.0667 25.4042H29.2973C30.0047 25.4042 30.6465 25.0496 31.0264 24.4585C31.4063 23.8674 31.4587 23.1318 31.1574 22.4881L21.4506 1.57627H25.6163L37.3928 26.7441C37.6679 27.3483 37.6286 28.0051 37.2749 28.5568C36.9212 29.1085 36.3448 29.4237 35.6899 29.4237H9.51695C8.79647 29.4237 8.14149 29.0559 7.77471 28.4386C7.40792 27.8212 7.38172 27.0593 7.72231 26.4288Z" fill="#CB2023"/>
<path fill-rule="evenodd" clip-rule="evenodd" d="M44.2558 31H51.8798L41.1512 7.85508C41.0464 7.64492 41.1381 7.46102 41.1774 7.39534C41.2167 7.32966 41.3477 7.17203 41.5835 7.17203H54.8141C55.1022 7.17203 55.2332 7.35593 55.2856 7.43475C55.3249 7.51356 55.4166 7.72373 55.2856 7.97331L47.9499 21.7919H55.8096L64.547 5.30678C65.1496 4.17712 65.1103 2.83729 64.4553 1.74703C63.8004 0.65678 62.6345 0 61.3638 0H35.1909C34.012 0 32.9247 0.604237 32.2828 1.60254C31.654 2.61398 31.5754 3.84873 32.0732 4.92585L44.2558 31ZM49.417 29.4237H45.2514L33.488 4.26907C33.2129 3.66483 33.2522 3.00805 33.6059 2.45636C33.9596 1.90466 34.5359 1.58941 35.1909 1.58941H61.3507C62.0712 1.58941 62.7262 1.9572 63.093 2.57458C63.4598 3.19195 63.486 3.95381 63.1454 4.58432L54.8534 20.2288H50.5567L56.648 8.74831C57.0148 8.07839 57.0017 7.30339 56.6218 6.64661C56.2419 5.98983 55.5607 5.59576 54.801 5.59576H41.5704C40.863 5.59576 40.2212 5.95042 39.8413 6.54153C39.4614 7.13263 39.409 7.86822 39.7103 8.51186L49.417 29.4237Z" fill="#3D3C3B"/>
</svg>
