<svg width="40" height="40" viewBox="0 0 40 40" fill="none" xmlns="http://www.w3.org/2000/svg">
<path d="M25.0801 24.6509C24.3045 25.8078 23.3082 26.8046 22.1514 27.5803L30.6876 37.1771C31.2232 37.7796 31.9926 38.1253 32.7995 38.1253C34.3576 38.1253 35.6251 36.8578 35.6251 35.2996C35.6251 34.4934 35.2795 33.724 34.677 33.1878L25.0801 24.6509ZM25.8082 29.1921L24.5582 27.9421L25.442 27.0584L26.692 28.3084L25.8082 29.1921ZM29.5582 32.9421L27.0582 30.4421L27.942 29.5584L30.442 32.0584L29.5582 32.9421ZM32.5001 36.8753C31.4664 36.8753 30.6251 36.034 30.6251 35.0003C30.6251 33.9665 31.4664 33.1253 32.5001 33.1253C33.5339 33.1253 34.3751 33.9665 34.3751 35.0003C34.3751 36.034 33.5339 36.8753 32.5001 36.8753Z" fill="#CB2023"/>
<path d="M16.25 11.875C12.4594 11.875 9.375 14.9594 9.375 18.75C9.375 22.5406 12.4594 25.625 16.25 25.625C20.0406 25.625 23.125 22.5406 23.125 18.75C23.125 14.9594 20.0406 11.875 16.25 11.875ZM11.875 18.75C11.875 19.5188 12.0775 20.2756 12.46 20.9369L11.3781 21.5631C10.8856 20.7112 10.625 19.7387 10.625 18.75C10.625 16.6806 11.7569 14.7837 13.5781 13.7987L14.1725 14.8987C12.7556 15.665 11.875 17.1406 11.875 18.75ZM16.25 14.375C15.8794 14.375 15.5113 14.4212 15.1562 14.5125L14.8444 13.3019C15.3012 13.1844 15.7744 13.125 16.25 13.125V14.375Z" fill="#CB2023"/>
<path d="M16.25 9.375C11.0806 9.375 6.875 13.5806 6.875 18.75C6.875 23.9194 11.0806 28.125 16.25 28.125C21.4194 28.125 25.625 23.9194 25.625 18.75C25.625 13.5806 21.4194 9.375 16.25 9.375ZM16.25 26.875C11.77 26.875 8.125 23.23 8.125 18.75C8.125 14.27 11.77 10.625 16.25 10.625C20.73 10.625 24.375 14.27 24.375 18.75C24.375 23.23 20.73 26.875 16.25 26.875Z" fill="#CB2023"/>
<path d="M32.5 35.625C32.8452 35.625 33.125 35.3452 33.125 35C33.125 34.6548 32.8452 34.375 32.5 34.375C32.1548 34.375 31.875 34.6548 31.875 35C31.875 35.3452 32.1548 35.625 32.5 35.625Z" fill="#CB2023"/>
<path d="M1.875 1.875V5.625H38.125V1.875H1.875ZM4.375 4.375H3.125V3.125H4.375V4.375ZM6.875 4.375H5.625V3.125H6.875V4.375ZM9.375 4.375H8.125V3.125H9.375V4.375Z" fill="#CB2023"/>
<path d="M1.875 30.625H23.1869L21.0462 28.2181C19.6031 28.9525 17.9762 29.375 16.25 29.375C10.3913 29.375 5.625 24.6087 5.625 18.75C5.625 12.8913 10.3913 8.125 16.25 8.125C22.1087 8.125 26.875 12.8913 26.875 18.75C26.875 20.4762 26.4525 22.1031 25.7188 23.5456L33.6769 30.625H38.125V6.875H1.875V30.625Z" fill="#CB2023"/>
</svg>
