<svg xmlns="http://www.w3.org/2000/svg" xmlns:xlink="http://www.w3.org/1999/xlink" viewBox="0 0 537 147">
  <defs>
    <style>
      .cls-1, .cls-3, .cls-5 {
        fill: none;
      }

      .cls-2 {
        fill: #282625;
        font-size: 16px;
      }

      .cls-2, .cls-7 {
        font-family: SegoeUI-Bold, Segoe UI;
        font-weight: 700;
      }

      .cls-3 {
        stroke: #afafaf;
      }

      .cls-4 {
        clip-path: url(#clip-path);
      }

      .cls-5 {
        stroke: #e8e8e8;
      }

      .cls-6 {
        fill: url(#linear-gradient);
      }

      .cls-7 {
        fill: #fff;
      }

      .cls-7, .cls-8 {
        font-size: 14px;
      }

      .cls-8 {
        fill: #777;
        font-family: SegoeUI, Segoe UI;
      }
    </style>
    <clipPath id="clip-path">
      <rect class="cls-1" width="474" height="113"/>
    </clipPath>
    <linearGradient id="linear-gradient" y1="0.5" x2="1" y2="0.5" gradientUnits="objectBoundingBox">
      <stop offset="0" stop-color="#cb2023"/>
      <stop offset="1" stop-color="#ff6064"/>
    </linearGradient>
  </defs>
  <g id="Group_18" data-name="Group 18" transform="translate(-953 -1466)">
    <g id="Group_6" data-name="Group 6" transform="translate(2 -20)">
      <text id="_163_Music" data-name="163 Music" class="cls-2" transform="translate(1397 1629)"><tspan x="0" y="0">163 Music</tspan></text>
      <text id="Kuwo_Music" data-name="Kuwo Music" class="cls-2" transform="translate(1033 1629)"><tspan x="0" y="0">Kuwo Music</tspan></text>
      <text id="QQ_Music" data-name="QQ Music" class="cls-2" transform="translate(1162 1629)"><tspan x="0" y="0">QQ Music</tspan></text>
      <text id="Kugou_Music" data-name="Kugou Music" class="cls-2" transform="translate(1259 1629)"><tspan x="0" y="0">Kugou Music</tspan></text>
      <line id="Line_7" data-name="Line 7" class="cls-3" x1="474" transform="translate(1014 1601)"/>
      <g id="Repeat_Grid_2" data-name="Repeat Grid 2" class="cls-4" transform="translate(1014 1486)">
        <g transform="translate(-1007 -1577)">
          <line id="Line_8" data-name="Line 8" class="cls-5" x1="474" transform="translate(1007 1577)"/>
        </g>
        <g transform="translate(-1007 -1554)">
          <line id="Line_8-2" data-name="Line 8" class="cls-5" x1="474" transform="translate(1007 1577)"/>
        </g>
        <g transform="translate(-1007 -1531)">
          <line id="Line_8-3" data-name="Line 8" class="cls-5" x1="474" transform="translate(1007 1577)"/>
        </g>
        <g transform="translate(-1007 -1508)">
          <line id="Line_8-4" data-name="Line 8" class="cls-5" x1="474" transform="translate(1007 1577)"/>
        </g>
        <g transform="translate(-1007 -1485)">
          <line id="Line_8-5" data-name="Line 8" class="cls-5" x1="474" transform="translate(1007 1577)"/>
        </g>
      </g>
      <g id="Group_5" data-name="Group 5" transform="translate(336)">
        <path id="Rectangle_11" data-name="Rectangle 11" class="cls-6" d="M0,0H25.214a5,5,0,0,1,5,5V86a5,5,0,0,1-5,5H0a0,0,0,0,1,0,0V0A0,0,0,0,1,0,0Z" transform="translate(1048 1600.87) rotate(-90)"/>
        <text id="_64.18" data-name="64.18" class="cls-7" transform="translate(1048 1578)"><tspan x="27.498" y="15">64.18</tspan></text>
      </g>
      <g id="Group_4" data-name="Group 4" transform="translate(-131)">
        <path id="Rectangle_12" data-name="Rectangle 12" class="cls-6" d="M0,0H45.987a5,5,0,0,1,5,5V86a5,5,0,0,1-5,5H0a0,0,0,0,1,0,0V0A0,0,0,0,1,0,0Z" transform="translate(1164 1600.87) rotate(-90)"/>
        <text id="_108.84" data-name="108.84" class="cls-7" transform="translate(1164 1578)"><tspan x="23.471" y="15">108.84</tspan></text>
      </g>
      <g id="Group_3" data-name="Group 3" transform="translate(-130)">
        <path id="Rectangle_13" data-name="Rectangle 13" class="cls-6" d="M0,0H91.309a5,5,0,0,1,5,5V86a5,5,0,0,1-5,5H0a0,0,0,0,1,0,0V0A0,0,0,0,1,0,0Z" transform="translate(1280 1600.87) rotate(-90)"/>
        <text id="_204.30" data-name="204.30" class="cls-7" transform="translate(1280 1578)"><tspan x="23.471" y="15">204.30</tspan></text>
      </g>
      <g id="Group_2" data-name="Group 2" transform="translate(-129)">
        <path id="Rectangle_14" data-name="Rectangle 14" class="cls-6" d="M0,0H98.862a5,5,0,0,1,5,5V86a5,5,0,0,1-5,5H0a0,0,0,0,1,0,0V0A0,0,0,0,1,0,0Z" transform="translate(1396 1600.87) rotate(-90)"/>
        <text id="_221.63" data-name="221.63" class="cls-7" transform="translate(1396 1578)"><tspan x="23.471" y="15">221.63</tspan></text>
      </g>
    </g>
    <text id="_100_млн." data-name="100 млн." class="cls-8" transform="translate(953 1538)"><tspan x="0" y="0">100 млн.</tspan></text>
    <text id="_200_млн." data-name="200 млн." class="cls-8" transform="translate(953 1493)"><tspan x="0" y="0">200 млн.</tspan></text>
  </g>
</svg>
