<svg width="54" height="54" viewBox="0 0 54 54" fill="none" xmlns="http://www.w3.org/2000/svg">
<path fill-rule="evenodd" clip-rule="evenodd" d="M54 30.9751V51.9203C54 53.0729 53.0747 54 51.949 54H32.9942H21.336V49.7931C21.336 47.0954 19.167 44.9148 16.4971 44.9148C13.8212 44.9148 11.6582 47.1013 11.6582 49.7931V54H2.06287C0.925345 54 0 53.0671 0 51.9203V2.07967C0 0.932878 0.925345 0 2.06287 0H30.9195C32.0571 0 32.9824 0.932878 32.9824 2.07967V21.2601L52.6916 29.038C53.4814 29.3529 54 30.1195 54 30.9751ZM6.34775 35.2236V40.6723H12.6425V35.2236C12.6425 33.4707 11.2338 32.0506 9.4951 32.0506C7.75639 32.0506 6.34775 33.4707 6.34775 35.2236ZM6.34775 27.6001V22.1514C6.34775 20.3985 7.75639 18.9784 9.4951 18.9784C11.2338 18.9784 12.6425 20.3985 12.6425 22.1514V27.6001H6.34775ZM6.34775 9.07322V14.5219H12.6425V9.07322C12.6425 7.32036 11.2338 5.90025 9.4951 5.90025C7.75639 5.90025 6.34775 7.32036 6.34775 9.07322ZM26.6287 40.6723H20.334V35.2236C20.334 33.4707 21.7426 32.0506 23.4813 32.0506C25.22 32.0506 26.6287 33.4707 26.6287 35.2236V40.6723ZM20.334 27.6001H26.6287V22.1514C26.6287 20.3985 25.22 18.9784 23.4813 18.9784C21.7426 18.9784 20.334 20.3985 20.334 22.1514V27.6001ZM26.6287 14.5219H20.334V9.07322C20.334 7.32036 21.7426 5.90025 23.4813 5.90025C25.22 5.90025 26.6287 7.32036 26.6287 9.07322V14.5219ZM37.7388 43.6789H49.2496V33.2093L37.7388 28.6637V43.6789Z" fill="#CB2023"/>
<path fill-rule="evenodd" clip-rule="evenodd" d="M35 16V0H50.9146C52.0646 0 53 0.940472 53 2.09659V13.9034C53 15.0595 52.0646 16 50.9146 16H35ZM47.1251 13.544C47.7805 13.544 48.3168 13.0049 48.3168 12.3459H48.3167V3.85174C48.3167 3.19281 47.7805 2.65369 47.1251 2.65369H46.8451C46.1897 2.65369 45.6534 3.19281 45.6534 3.85174V6.70311H42.1976V3.85174C42.1976 3.19281 41.6614 2.65369 41.006 2.65369H40.7259C40.0704 2.65369 39.5342 3.19281 39.5342 3.85174V12.3459C39.5342 13.0049 40.0704 13.544 40.7259 13.544H41.006C41.6614 13.544 42.1976 13.0049 42.1976 12.3459V9.0453H45.6534V12.3459C45.6534 13.0049 46.1897 13.544 46.8451 13.544H47.1251Z" fill="#282625"/>
</svg>
