<svg xmlns="http://www.w3.org/2000/svg" viewBox="0 0 72.5 58">
  <defs>
    <style>
      .cls-1 {
        fill: #282625;
      }

      .cls-2 {
        fill: #cb2023;
      }
    </style>
  </defs>
  <g id="music_2_" data-name="music (2)" transform="translate(0 -6)">
    <rect id="Rectangle_21" data-name="Rectangle 21" class="cls-1" width="3.625" height="48.333" transform="translate(6.042 10.833)"/>
    <rect id="Rectangle_22" data-name="Rectangle 22" class="cls-1" width="3.625" height="48.333" transform="translate(62.833 10.833)"/>
    <rect id="Rectangle_23" data-name="Rectangle 23" class="cls-1" width="3.625" height="38.667" transform="translate(68.875 15.667)"/>
    <rect id="Rectangle_24" data-name="Rectangle 24" class="cls-1" width="3.625" height="38.667" transform="translate(0 15.667)"/>
    <path id="Path_6" data-name="Path 6" class="cls-2" d="M10,64H58.333V6H10ZM21.479,42.25a8.174,8.174,0,0,1,5.438,2.03V20.5a1.207,1.207,0,0,1,1.02-1.193l22.958-3.625a1.21,1.21,0,0,1,1.4,1.193V42.25c0,4-3.523,7.25-7.854,7.25s-7.854-3.252-7.854-7.25S40.107,35,44.438,35a8.174,8.174,0,0,1,5.438,2.03V25.539L29.333,28.782V49.623c0,.016-.008.03-.01.046-.1,3.919-3.575,7.081-7.844,7.081-4.331,0-7.854-3.252-7.854-7.25S17.149,42.25,21.479,42.25Z" transform="translate(2.083)"/>
  </g>
</svg>
