<svg xmlns="http://www.w3.org/2000/svg" xmlns:xlink="http://www.w3.org/1999/xlink" width="56" height="76.339" viewBox="0 0 56 76.339">
  <defs>
    <linearGradient id="linear-gradient" x1="3.868" y1="-1.252" x2="-0.32" y2="1.424" gradientUnits="objectBoundingBox">
      <stop offset="0" stop-color="#cb2023"/>
      <stop offset="1" stop-color="#fff"/>
    </linearGradient>
  </defs>
  <g id="new-social-media__fifth" transform="translate(-799 -2819)">
    <path id="_5" data-name="5" d="M4.512,38.036,14.676,0H55.954L53.984,12.455H25L20.017,28.734a20.071,20.071,0,0,1,10.89-2.894q9.7,0,15.013,6.848T50.405,50.75a29.189,29.189,0,0,1-4.382,13.385,25.537,25.537,0,0,1-9.879,9.147,27.342,27.342,0,0,1-13.483,3.049,24.05,24.05,0,0,1-11.59-2.92A20.677,20.677,0,0,1,2.956,65.5,22.49,22.49,0,0,1,0,54.264H14.364a11.229,11.229,0,0,0,2.541,7.209,8.37,8.37,0,0,0,6.327,2.713,10.273,10.273,0,0,0,8.531-3.773q3.345-3.928,4.019-10.543.622-5.892-1.789-9.3t-7.338-3.514a14.6,14.6,0,0,0-10.164,4.031Z" transform="translate(799 2819)" opacity="0.325" fill="url(#linear-gradient)"/>
    <g id="chat-2" transform="translate(805 2832)">
      <path id="Path" d="M35,17.5A17.5,17.5,0,1,0,3.042,27.361l-2.3,6.9,6.9-2.3A17.5,17.5,0,0,0,35,17.5Z" fill="#cc6a6c"/>
      <path id="Path-2" data-name="Path" d="M34,16.6A17.4,17.4,0,0,0,21.817,0q.03.566.031,1.136A20.587,20.587,0,0,1,20.22,9.2a20.639,20.639,0,0,1-4.438,6.583A20.639,20.639,0,0,1,9.2,20.219a20.582,20.582,0,0,1-8.063,1.629c-.38,0-.759-.013-1.136-.033a17.4,17.4,0,0,0,26.405,9.16l6.856,2.285-2.285-6.856A17.317,17.317,0,0,0,34,16.6Z" transform="translate(16 16)" fill="#fff"/>
    </g>
  </g>
</svg>
