<svg id="Douban_logo" xmlns="http://www.w3.org/2000/svg" width="71.45" height="34.422" viewBox="0 0 71.45 34.422">
  <path id="Path_480" data-name="Path 480" d="M26.19,14.924H7.481v6.454H26.19ZM3.668,11.549h26.3v13.2H3.668ZM.9,4.648H32.732V8.026H.9ZM9.8,25.313a33.455,33.455,0,0,1,3.743,7.047H20.2a41.965,41.965,0,0,0,3.472-7.047L27.5,26.627a37.811,37.811,0,0,1-3.225,5.733h9.357V35.7H0V32.36H9.8a46.009,46.009,0,0,0-3.521-5.733Zm0,0" transform="translate(0 -2.776)" fill="#2e963d"/>
  <path id="Path_481" data-name="Path 481" d="M118.238,7.763A61.309,61.309,0,0,1,120,15.222H121a68.257,68.257,0,0,0,1.912-7.607l2.462.861a61.11,61.11,0,0,1-1.82,6.747h2.535V18.3h-3.924v4.536h3.369v2.923h-3.369v8.663H119.1V25.759h-3.07V22.836h3.07V18.3h-3.666V15.222h2.089q-.592-2.995-1.647-6.591ZM121.155,0c.349,1.249.688,2.667,1.012,4.236h3.663V7.164h-10.4V4.236h3.927c-.352-1.348-.725-2.62-1.123-3.823Zm-7.486.263,2.061,2.363a17.585,17.585,0,0,1-1.908.821q.179,9.679.752,15.38a96.513,96.513,0,0,0,2.058,12.521l-2.212,2.173a115.864,115.864,0,0,1-2.242-14.694q-.632-6.563-.673-14.591c-.573.178-1.158.34-1.759.491v24.03c.348-.093.7-.2,1.048-.3q-.224-1.728-.447-3.3l1.61-.415q.635,3.748,1.155,8.621l-1.753.453c-.1-.949-.2-1.9-.3-2.849a42.168,42.168,0,0,1-5.987,1.536l-.305-2.772a19.487,19.487,0,0,0,2.623-.417V5.175c-.548.076-1.081.153-1.6.225V19.159a39.632,39.632,0,0,1-.754,7.426,38.887,38.887,0,0,1-2.313,7.54l-2.168-2.215a29.471,29.471,0,0,0,2.2-6.822,38.532,38.532,0,0,0,.565-5.928V2.93q7.142-.76,10.354-2.667M98.184,0c.324,1.249.642,2.667.938,4.236h3.594V7.164H92.351V4.236h3.781c-.305-1.348-.64-2.62-1.016-3.823ZM95.267,7.615A69.2,69.2,0,0,1,96.8,15.222H98q.857-3.408,1.531-7.607L102,8.476q-.677,3.786-1.5,6.747h1.8v2.93H98.749c-.024,1.318-.077,2.56-.153,3.707a25.963,25.963,0,0,0,3.554-.787v2.779A23.656,23.656,0,0,1,98.259,24.9a20.371,20.371,0,0,1-.489,2.659,14.223,14.223,0,0,1-3.515,6.566L92.2,31.612a12.009,12.009,0,0,0,2.692-4.726,14.777,14.777,0,0,0,.332-1.462c-1.043.176-2.152.335-3.328.488l-.406-3.375q2.2-.073,4.151-.26c.094-1.257.164-2.629.184-4.125H92.2v-2.93h2.1q-.524-3.108-1.493-6.747Zm0,0" transform="translate(-54.641)" fill="#2e963d"/>
</svg>
