<svg xmlns="http://www.w3.org/2000/svg" xmlns:xlink="http://www.w3.org/1999/xlink" width="79" height="77" viewBox="0 0 79 77">
  <defs>
    <linearGradient id="linear-gradient" x1="3.868" y1="-1.252" x2="-0.32" y2="1.424" gradientUnits="objectBoundingBox">
      <stop offset="0" stop-color="#cb2023"/>
      <stop offset="1" stop-color="#fff"/>
    </linearGradient>
  </defs>
  <g id="new-social-media__fourth" transform="translate(-220 -2819.446)">
    <path id="Fill_1" data-name="Fill 1" d="M42.795,77H25.625l2.819-16.3H0L.939,49,38.255.368V0L56,.264,47.963,46.991h7.464L53.077,60.7H45.614L42.8,77ZM35,23,17,46.895,30.285,47,35,23Z" transform="translate(220 2819.446)" opacity="0.325" fill="url(#linear-gradient)"/>
    <g id="group" transform="translate(234 2841)">
      <path id="Path" d="M32.828,29.384a54.694,54.694,0,0,0-9.971-6.4.311.311,0,0,1-.173-.28V15.952A3.158,3.158,0,0,0,24.1,13.326V6.317A6.31,6.31,0,0,0,17.785,0h-1.5a6.31,6.31,0,0,0-6.31,6.317v7.01a3.14,3.14,0,0,0,1.411,2.625v6.756a.311.311,0,0,1-.173.28,55.5,55.5,0,0,0-9.971,6.4A3.393,3.393,0,0,0,0,32.01v4.8H34.066v-4.8A3.393,3.393,0,0,0,32.828,29.384Z" transform="translate(15.271)" fill="#cc6a6c"/>
      <path id="Path-2" data-name="Path" d="M22.414,24.7a45.641,45.641,0,0,0-8.374-5.38.252.252,0,0,1-.147-.24V13.4a2.672,2.672,0,0,0,1.187-2.216V5.3A5.3,5.3,0,0,0,9.787,0H8.534A5.3,5.3,0,0,0,3.24,5.3v5.888A2.657,2.657,0,0,0,4.427,13.4v5.674a.266.266,0,0,1-.147.24A43.8,43.8,0,0,0,0,21.748a56.871,56.871,0,0,1,8.48,5.687,5.993,5.993,0,0,1,2.08,3.5H23.494V26.9A2.983,2.983,0,0,0,22.414,24.7Z" transform="translate(41.506)" fill="#fff"/>
      <path id="Path-3" data-name="Path" d="M19.2,19.319a.252.252,0,0,1-.147-.24V13.4a2.672,2.672,0,0,0,1.187-2.216V5.3A5.3,5.3,0,0,0,14.947,0h-1.28A5.3,5.3,0,0,0,8.374,5.3v5.888A2.657,2.657,0,0,0,9.56,13.4v5.674a.266.266,0,0,1-.147.24A45.641,45.641,0,0,0,1.04,24.7,2.875,2.875,0,0,0,0,26.9v4.032H12.934a5.926,5.926,0,0,1,2.08-3.5,56.871,56.871,0,0,1,8.48-5.687A45.049,45.049,0,0,0,19.2,19.319Z" fill="#fff"/>
    </g>
  </g>
</svg>
