<svg xmlns="http://www.w3.org/2000/svg" width="60.718" height="60.719" viewBox="0 0 60.718 60.719">
  <g id="new-tourists-china__kremlin" transform="translate(-0.004)">
    <path id="Path_404" data-name="Path 404" d="M223.42,56.322l-2.529-12.65a1.266,1.266,0,0,0-1.241-1.017H217.12a1.266,1.266,0,0,0-1.241,1.017l-2.529,12.65a1.238,1.238,0,0,0-.024.248V59.1a1.265,1.265,0,0,0,1.266,1.266h7.59a1.264,1.264,0,0,0,1.264-1.266V56.571A1.229,1.229,0,0,0,223.42,56.322Z" transform="translate(-188.023 -37.596)" fill="#cb2023"/>
    <path id="Path_405" data-name="Path 405" d="M214.038,170.652H203.919a1.266,1.266,0,0,0-1.266,1.266V187.1a1.266,1.266,0,0,0,1.266,1.266h10.119A1.266,1.266,0,0,0,215.3,187.1V171.918A1.266,1.266,0,0,0,214.038,170.652Z" transform="translate(-178.616 -150.414)" fill="#cb2023"/>
    <g id="Group_160" data-name="Group 160" transform="translate(0.004 35.417)">
      <path id="Path_406" data-name="Path 406" d="M6.812,298.743a1.265,1.265,0,0,0-1.379.274L3.8,300.653l-1.636-1.636a1.264,1.264,0,0,0-2.159.9v7.59a1.264,1.264,0,0,0,1.264,1.266h5.06A1.266,1.266,0,0,0,7.594,307.5v-7.59A1.268,1.268,0,0,0,6.812,298.743Z" transform="translate(-0.004 -298.646)" fill="#cb2023"/>
      <path id="Path_407" data-name="Path 407" d="M81.468,298.743a1.265,1.265,0,0,0-1.379.274l-1.636,1.636-1.634-1.636a1.266,1.266,0,0,0-2.161.9v7.59a1.266,1.266,0,0,0,1.266,1.266h5.06a1.264,1.264,0,0,0,1.264-1.266v-7.59A1.266,1.266,0,0,0,81.468,298.743Z" transform="translate(-65.805 -298.646)" fill="#cb2023"/>
      <path id="Path_408" data-name="Path 408" d="M380.129,298.743a1.265,1.265,0,0,0-1.379.274l-1.634,1.636-1.636-1.636a1.264,1.264,0,0,0-2.159.9v7.59a1.265,1.265,0,0,0,1.266,1.266h5.058a1.266,1.266,0,0,0,1.266-1.266v-7.59A1.265,1.265,0,0,0,380.129,298.743Z" transform="translate(-329.048 -298.646)" fill="#cb2023"/>
      <path id="Path_409" data-name="Path 409" d="M454.8,298.743a1.265,1.265,0,0,0-1.379.274l-1.634,1.636-1.636-1.636a1.264,1.264,0,0,0-2.159.9v7.59a1.265,1.265,0,0,0,1.264,1.266h5.06a1.266,1.266,0,0,0,1.266-1.266v-7.59A1.268,1.268,0,0,0,454.8,298.743Z" transform="translate(-394.863 -298.646)" fill="#cb2023"/>
    </g>
    <g id="Group_161" data-name="Group 161" transform="translate(16.447 27.828)">
      <path id="Path_410" data-name="Path 410" d="M141.187,235.915a1.266,1.266,0,1,1-1.266-1.266A1.266,1.266,0,0,1,141.187,235.915Z" transform="translate(-138.656 -234.65)" fill="#cb2023"/>
      <path id="Path_411" data-name="Path 411" d="M354.522,235.915a1.265,1.265,0,1,1-1.266-1.266A1.266,1.266,0,0,1,354.522,235.915Z" transform="translate(-326.693 -234.65)" fill="#cb2023"/>
    </g>
    <path id="Path_412" data-name="Path 412" d="M59.456,380.356H1.268A1.264,1.264,0,0,1,0,379.09V363.911a1.264,1.264,0,0,1,1.264-1.266H59.456a1.266,1.266,0,0,1,1.266,1.266V379.09A1.266,1.266,0,0,1,59.456,380.356Z" transform="translate(0 -319.638)" fill="#cb2023"/>
    <rect id="Rectangle_85" data-name="Rectangle 85" width="21.82" height="10.37" transform="translate(19.673 50.349)" fill="#cb2023"/>
    <g id="Group_162" data-name="Group 162" transform="translate(18.978 35.417)">
      <path id="Path_413" data-name="Path 413" d="M181.5,298.647h-20.24A1.264,1.264,0,0,0,160,299.913v10.119a1.265,1.265,0,0,0,1.264,1.266H181.5a1.266,1.266,0,0,0,1.266-1.266V299.913A1.266,1.266,0,0,0,181.5,298.647Z" transform="translate(-160 -298.647)" fill="#cb2023"/>
      <path id="Path_414" data-name="Path 414" d="M203.92,436.765a1.266,1.266,0,0,1-1.266-1.266v-7.59a1.266,1.266,0,0,1,2.531,0v7.59A1.266,1.266,0,0,1,203.92,436.765Z" transform="translate(-197.596 -411.464)" fill="#cb2023"/>
      <path id="Path_415" data-name="Path 415" d="M246.591,436.765a1.265,1.265,0,0,1-1.266-1.266v-7.59a1.265,1.265,0,1,1,2.529,0v7.59A1.265,1.265,0,0,1,246.591,436.765Z" transform="translate(-235.206 -411.464)" fill="#cb2023"/>
      <path id="Path_416" data-name="Path 416" d="M289.258,436.765a1.264,1.264,0,0,1-1.264-1.266v-7.59a1.265,1.265,0,1,1,2.529,0v7.59A1.266,1.266,0,0,1,289.258,436.765Z" transform="translate(-272.815 -411.464)" fill="#cb2023"/>
    </g>
    <path id="Path_417" data-name="Path 417" d="M223.187,357.555l-3.795-5.059a1.266,1.266,0,0,0-2.025,0l-3.795,5.059a1.267,1.267,0,0,0,1.014,2.025h7.59a1.267,1.267,0,0,0,1.012-2.025Z" transform="translate(-188.018 -310.246)" fill="#cb2023"/>
    <g id="Group_163" data-name="Group 163" transform="translate(24.072)">
      <path id="Path_418" data-name="Path 418" d="M223.083,191.995a4.427,4.427,0,1,0,4.427,4.427A4.432,4.432,0,0,0,223.083,191.995Z" transform="translate(-216.792 -169.226)" fill="#cb2023"/>
      <path id="Path_419" data-name="Path 419" d="M215.475,4.525a1.263,1.263,0,0,0-1.021-.86l-2.815-.41L210.379.7a1.265,1.265,0,0,0-2.268,0l-1.26,2.552-2.815.41a1.265,1.265,0,0,0-.7,2.157l2.038,1.986-.482,2.8a1.265,1.265,0,0,0,1.247,1.479,1.254,1.254,0,0,0,.589-.145l2.518-1.325,2.518,1.325a1.226,1.226,0,0,0,.593.145,1.264,1.264,0,0,0,1.262-1.264,1.287,1.287,0,0,0-.032-.282l-.469-2.737,2.038-1.986A1.262,1.262,0,0,0,215.475,4.525Z" transform="translate(-202.953 0)" fill="#cb2023"/>
    </g>
    <g id="Group_164" data-name="Group 164" transform="translate(13.918 30.358)">
      <path id="Path_420" data-name="Path 420" d="M122,256.338a1.265,1.265,0,0,0-1.753,0l-2.531,2.431a1.275,1.275,0,0,0-.387.914v26.662h7.59V259.683a1.269,1.269,0,0,0-.389-.914Z" transform="translate(-117.329 -255.985)" fill="#cb2023"/>
      <path id="Path_421" data-name="Path 421" d="M337.853,258.769l-2.531-2.431a1.265,1.265,0,0,0-1.753,0l-2.529,2.431a1.269,1.269,0,0,0-.389.914v26.662h7.59V259.683A1.267,1.267,0,0,0,337.853,258.769Z" transform="translate(-305.353 -255.985)" fill="#cb2023"/>
    </g>
    <rect id="Rectangle_86" data-name="Rectangle 86" width="17.708" height="3.795" transform="translate(21.508 48.067)" fill="#cb2023"/>
  </g>
</svg>
