<svg xmlns="http://www.w3.org/2000/svg" width="61.183" height="61.613" viewBox="0 0 61.183 61.613">
  <g id="Baidu" transform="translate(-0.78 -0.761)">
    <rect id="rect2223" width="61.183" height="61.613" transform="translate(0.78 0.761)" fill="rgba(255,255,255,0)"/>
    <g id="g2225" transform="translate(5.342 3.924)">
      <path id="path2227" d="M87.182,39.98c6.139-1.319,5.3-8.664,5.121-10.269-.3-2.476-3.212-6.8-7.161-6.453-4.971.443-5.7,7.623-5.7,7.623-.673,3.325,1.607,10.421,7.736,9.1m11.4-12.313c3.389,0,6.128-3.905,6.128-8.73s-2.739-8.724-6.128-8.724-6.137,3.9-6.137,8.724,2.746,8.73,6.137,8.73m14.611.574c4.537.594,7.443-4.245,8.025-7.912s-2.337-7.922-5.541-8.653-7.237,4.412-7.6,7.774c-.441,4.111.583,8.211,5.115,8.792M131.16,34.4c0-1.754-1.452-7.041-6.86-7.041s-6.135,4.989-6.135,8.514c0,3.364.28,8.057,7.009,7.912s5.985-7.619,5.985-9.385M124.3,49.8s-7.013-5.425-11.106-11.29c-5.558-8.648-13.443-5.126-16.08-.734s-6.715,7.184-7.3,7.922c-.59.723-8.47,4.981-6.722,12.757s7.9,7.622,7.9,7.622a34.52,34.52,0,0,0,9.781-.732,20.606,20.606,0,0,1,9.791.288s12.277,4.117,15.632-3.8S124.3,49.8,124.3,49.8" transform="translate(-79.332 -10.213)" fill="#2319dc"/>
    </g>
  </g>
</svg>
