<svg id="Group_179" data-name="Group 179" xmlns="http://www.w3.org/2000/svg" width="51.938" height="43.095" viewBox="0 0 51.938 43.095">
  <path id="Path_101" data-name="Path 101" d="M29.468,2.689a21.89,21.89,0,0,0-17.932-1.4A18.244,18.244,0,0,0,2.131,8.7,13.863,13.863,0,0,0,.405,19.332a16.27,16.27,0,0,0,7.058,9.551c-.632,1.839-1.256,3.677-1.844,5.529,2.126-1.1,4.226-2.255,6.343-3.379a23.523,23.523,0,0,0,7.917,1.124,13.635,13.635,0,0,1-.546-6.391,13.638,13.638,0,0,1,4.328-7.69A18.716,18.716,0,0,1,37.721,13.46,16.391,16.391,0,0,0,29.468,2.689ZM15,11.061a2.659,2.659,0,1,1-3.467-3.138A2.678,2.678,0,0,1,15,11.061Zm13.109-.524a2.655,2.655,0,1,1-3.575-2.595,2.673,2.673,0,0,1,3.575,2.595Z" transform="translate(0 0)" fill="#9de60b"/>
  <path id="Path_102" data-name="Path 102" d="M67.754,35.209a14.312,14.312,0,0,0-6.689-6.81,18.415,18.415,0,0,0-16.507.061,13.71,13.71,0,0,0-7.315,9.01,11.58,11.58,0,0,0,1.471,8.574,15.8,15.8,0,0,0,10.757,7.017,19.681,19.681,0,0,0,9.388-.621c1.816.71,3.445,1.852,5.209,2.7q-.677-2.288-1.457-4.544a14.853,14.853,0,0,0,4.856-5.364,11.624,11.624,0,0,0,.287-10.021Zm-17.727,1.14A2.13,2.13,0,1,1,47.3,33.6a2.15,2.15,0,0,1,2.728,2.752Zm10.377.2a2.147,2.147,0,0,1-3.384.58,3.373,3.373,0,0,1-.748-1.579A2.4,2.4,0,0,1,58.3,33.484,2.147,2.147,0,0,1,60.4,36.545Z" transform="translate(-16.812 -12.043)" fill="#2e3233"/>
</svg>
