<svg id="new-tourists-china__store" xmlns="http://www.w3.org/2000/svg" width="69" height="67.81" viewBox="0 0 69 67.81">
  <path id="Path_422" data-name="Path 422" d="M24,176H85.862v2.379H24Zm0,0" transform="translate(-20.431 -149.828)" fill="#cb2023"/>
  <path id="Path_423" data-name="Path 423" d="M80,336h4.759v9.517H80Zm0,0" transform="translate(-68.103 -286.034)" fill="#282625"/>
  <path id="Path_424" data-name="Path 424" d="M352,336h4.759v9.517H352Zm0,0" transform="translate(-299.655 -286.034)" fill="#282625"/>
  <path id="Path_425" data-name="Path 425" d="M80,256h4.759v4.759H80Zm0,0" transform="translate(-68.103 -217.931)" fill="#282625"/>
  <path id="Path_426" data-name="Path 426" d="M48,112v7.138h54.724V112h-2.379v3.569H97.966V112H95.586v3.569H93.207V112H90.828v3.569H88.448V112H86.069v3.569H83.69V112H81.31v3.569H78.931V112H76.552v3.569H74.172V112H71.793v3.569H69.414V112H67.034v3.569H64.655V112H62.276v3.569H59.9V112H57.517v3.569H55.138V112H52.759v3.569H50.379V112Zm0,0" transform="translate(-40.862 -95.345)" fill="#282625"/>
  <path id="Path_427" data-name="Path 427" d="M32,80H91.483v2.379H32Zm0,0" transform="translate(-27.241 -68.103)" fill="#cb2023"/>
  <path id="Path_428" data-name="Path 428" d="M48,0h54.724V9.517H48Zm0,0" transform="translate(-40.862)" fill="#cb2023"/>
  <path id="Path_429" data-name="Path 429" d="M352,256h4.759v4.759H352Zm0,0" transform="translate(-299.655 -217.931)" fill="#282625"/>
  <path id="Path_430" data-name="Path 430" d="M240,256h9.517v1.19H240Zm0,0" transform="translate(-204.31 -217.931)" fill="#cb2023"/>
  <path id="Path_431" data-name="Path 431" d="M240,280h9.517v1.19H240Zm0,0" transform="translate(-204.31 -238.362)" fill="#cb2023"/>
  <path id="Path_432" data-name="Path 432" d="M160,256h9.517v1.19H160Zm0,0" transform="translate(-136.207 -217.931)" fill="#cb2023"/>
  <path id="Path_433" data-name="Path 433" d="M160,280h9.517v1.19H160Zm0,0" transform="translate(-136.207 -238.362)" fill="#cb2023"/>
  <path id="Path_434" data-name="Path 434" d="M61.862,242.5V208H7.138v34.5H0v2.379H69V242.5Zm-11.9-28.552a1.19,1.19,0,0,1,1.19-1.19h7.138a1.19,1.19,0,0,1,1.19,1.19v7.138a1.19,1.19,0,0,1-1.19,1.19H51.155a1.19,1.19,0,0,1-1.19-1.19Zm0,11.9a1.19,1.19,0,0,1,1.19-1.19h7.138a1.19,1.19,0,0,1,1.19,1.19v11.9a1.19,1.19,0,0,1-1.19,1.19H51.155a1.19,1.19,0,0,1-1.19-1.19Zm-28.552-11.9a1.19,1.19,0,0,1,1.19-1.19H46.4a1.19,1.19,0,0,1,1.19,1.19v7.138a1.19,1.19,0,0,1-1.19,1.19H22.6a1.19,1.19,0,0,1-1.19-1.19Zm-11.9,0a1.19,1.19,0,0,1,1.19-1.19h7.138a1.19,1.19,0,0,1,1.19,1.19v7.138a1.19,1.19,0,0,1-1.19,1.19H10.707a1.19,1.19,0,0,1-1.19-1.19Zm0,11.9a1.19,1.19,0,0,1,1.19-1.19h7.138a1.19,1.19,0,0,1,1.19,1.19v11.9a1.19,1.19,0,0,1-1.19,1.19H10.707a1.19,1.19,0,0,1-1.19-1.19Zm11.9,0a1.19,1.19,0,0,1,1.19-1.19H46.4a1.19,1.19,0,0,1,1.19,1.19V242.5H45.207V227.034H35.69V242.5H33.31V227.034H23.793V242.5H21.414Zm0,0" transform="translate(0 -177.069)" fill="#cb2023"/>
</svg>
