<svg id="new-tourists-china__world" xmlns="http://www.w3.org/2000/svg" width="53" height="53" viewBox="0 0 53 53">
  <path id="Path_366" data-name="Path 366" d="M12.525,127.211A6.211,6.211,0,0,0,6.314,121,6.3,6.3,0,0,0,0,127.211v6.211H12.525Zm0,0" transform="translate(0 -108.475)" fill="#cb2023"/>
  <path id="Path_367" data-name="Path 367" d="M16,4.762a4.658,4.658,0,0,0,9.316,0,4.659,4.659,0,1,0-9.316,0Zm0,0" transform="translate(-14.344)" fill="#cb2023"/>
  <path id="Path_368" data-name="Path 368" d="M196,133.422h12.422v-6.211a6.211,6.211,0,0,0-12.422,0Zm0,0" transform="translate(-175.711 -108.475)" fill="#cb2023"/>
  <path id="Path_369" data-name="Path 369" d="M211,4.762a4.658,4.658,0,0,0,9.316,0,4.659,4.659,0,1,0-9.316,0Zm0,0" transform="translate(-189.158)" fill="#cb2023"/>
  <path id="Path_370" data-name="Path 370" d="M397.211,121A6.211,6.211,0,0,0,391,127.211v6.211h12.525v-6.211A6.3,6.3,0,0,0,397.211,121Zm0,0" transform="translate(-350.525 -108.475)" fill="#cb2023"/>
  <path id="Path_371" data-name="Path 371" d="M410.658,9.42a4.658,4.658,0,0,0,4.658-4.658,4.659,4.659,0,1,0-9.316,0A4.658,4.658,0,0,0,410.658,9.42Zm0,0" transform="translate(-363.973)" fill="#cb2023"/>
  <path id="Path_372" data-name="Path 372" d="M152.838,281.869h7.8V271h-9.279A53.606,53.606,0,0,0,152.838,281.869Zm0,0" transform="translate(-135.695 -242.947)" fill="#282625"/>
  <path id="Path_373" data-name="Path 373" d="M180.932,406H174c1.7,5.312,4.164,9.832,6.936,10.973Zm0,0" transform="translate(-155.985 -363.973)" fill="#282625"/>
  <path id="Path_374" data-name="Path 374" d="M3.9,281.869H14.647A54.885,54.885,0,0,1,13.248,271H.762A26.3,26.3,0,0,0,3.9,281.869Zm0,0" transform="translate(-0.683 -242.947)" fill="#282625"/>
  <path id="Path_375" data-name="Path 375" d="M271,406v10.973c2.771-1.141,5.237-5.661,6.936-10.973Zm0,0" transform="translate(-242.947 -363.973)" fill="#282625"/>
  <path id="Path_376" data-name="Path 376" d="M50.238,406A27.2,27.2,0,0,0,64.7,416.4c-1.974-2.478-3.64-6.4-4.865-10.4Zm0,0" transform="translate(-45.038 -363.973)" fill="#282625"/>
  <path id="Path_377" data-name="Path 377" d="M271,281.869h7.8A53.607,53.607,0,0,0,280.279,271H271Zm0,0" transform="translate(-242.947 -242.947)" fill="#282625"/>
  <path id="Path_378" data-name="Path 378" d="M336.559,406h-9.592c-1.225,4-2.891,7.919-4.865,10.4A27.2,27.2,0,0,0,336.559,406Zm0,0" transform="translate(-288.759 -363.973)" fill="#282625"/>
  <path id="Path_379" data-name="Path 379" d="M378.5,271a54.884,54.884,0,0,1-1.4,10.869h10.743A26.31,26.31,0,0,0,390.983,271Zm0,0" transform="translate(-338.062 -242.947)" fill="#282625"/>
</svg>
