<svg xmlns="http://www.w3.org/2000/svg" width="48.903" height="39.617" viewBox="0 0 48.903 39.617">
  <g id="Group_180" data-name="Group 180" transform="translate(-1262 -2578.999)">
    <path id="Path_124" data-name="Path 124" d="M9.91,56.955c0,5.695,7.411,10.311,16.561,10.311S43.029,62.65,43.029,56.955,35.618,46.64,26.471,46.64,9.91,51.26,9.91,56.955" transform="translate(1255.688 2549.291)" fill="#fff"/>
    <path id="Path_125" data-name="Path 125" d="M20.543,46.528c-8.094.795-15.084-2.86-15.607-8.177s5.615-10.271,13.709-11.07,15.084,2.856,15.607,8.17S28.637,45.744,20.543,46.528M36.734,28.882c-.69-.2-1.165-.345-.8-1.249.78-1.967.86-3.662,0-4.871-1.59-2.268-5.931-2.145-10.91-.062,0,0-1.564.686-1.165-.555.766-2.461.653-4.522-.541-5.713-2.7-2.7-9.883.1-16.042,6.257C2.679,27.3,0,32.2,0,36.42c0,8.087,10.369,13,20.514,13,13.3,0,22.14-7.727,22.14-13.861,0-3.706-3.121-5.807-5.927-6.682" transform="translate(1262 2569.19)" fill="#e6162d"/>
    <path id="Path_126" data-name="Path 126" d="M101.312,4.265A12.943,12.943,0,0,0,88.99.276h0a1.873,1.873,0,1,0,.784,3.662,9.2,9.2,0,0,1,10.682,11.839h0a1.873,1.873,0,1,0,3.564,1.154h0a12.928,12.928,0,0,0-2.708-12.66" transform="translate(1206.252 2579.01)" fill="#f93"/>
    <path id="Path_127" data-name="Path 127" d="M99.137,20.351a6.3,6.3,0,0,0-6-1.938,1.611,1.611,0,1,0,.671,3.15h0a3.078,3.078,0,0,1,3.579,3.963h0a1.611,1.611,0,1,0,3.049.994,6.3,6.3,0,0,0-1.3-6.17" transform="translate(1203.513 2567.362)" fill="#f93"/>
    <path id="Path_128" data-name="Path 128" d="M39.95,64.459a1.169,1.169,0,0,1-1.39.515.817.817,0,0,1-.363-1.216,1.154,1.154,0,0,1,1.365-.512.817.817,0,0,1,.4,1.212m-2.581,3.314a3.067,3.067,0,0,1-3.724,1.22,2.134,2.134,0,0,1-.835-3.238,3.078,3.078,0,0,1,3.629-1.227,2.155,2.155,0,0,1,.9,3.245m2.962-8.841a8.811,8.811,0,0,0-9.879,4.312,6.007,6.007,0,0,0,3.833,8.562A8.728,8.728,0,0,0,44.7,67.374c1.63-3.651-.407-7.411-4.392-8.442" transform="translate(1243.039 2541.631)"/>
  </g>
</svg>
