<svg width="43" height="43" viewBox="0 0 43 43" fill="none" xmlns="http://www.w3.org/2000/svg">
<g clip-path="url(#clip0)">
<path d="M39.689 8.81844C39.439 5.5797 36.7256 3.02026 33.4238 3.02026H6.28593C2.8199 3.02026 0 5.84016 0 9.30608V33.6939C0 37.1598 2.8199 39.9797 6.28593 39.9797H36.7142C40.1802 39.9797 43.0001 37.1598 43.0001 33.6939V14.3521C43 11.9621 41.6582 9.88102 39.689 8.81844ZM36.3061 33.6939C36.3061 35.283 35.0132 36.576 33.4239 36.576H6.28593C4.69668 36.576 3.40375 35.283 3.40375 33.6939V9.30608C3.40375 7.71694 4.69668 6.4239 6.28593 6.4239H33.4239C35.0132 6.4239 36.3061 7.71694 36.3061 9.30608V33.6939Z" fill="#CC1237"/>
<path d="M6.83776 15.7769H6.90864C7.39835 15.7769 7.79523 15.3801 7.79523 14.8902V11.7643L10.443 15.4111C10.61 15.6408 10.8766 15.7769 11.1606 15.7769H11.2466C11.2499 15.7769 11.2531 15.7763 11.2562 15.7763C11.2606 15.7763 11.265 15.7769 11.2695 15.7769H11.3404C11.83 15.7769 12.227 15.3801 12.227 14.8902V9.06565C12.227 8.57594 11.83 8.17896 11.3404 8.17896H11.2695C10.7797 8.17896 10.3828 8.57594 10.3828 9.06565V12.1914L7.73512 8.54464C7.56826 8.31494 7.3015 8.17896 7.01767 8.17896H6.93158C6.92831 8.17896 6.92527 8.17961 6.92201 8.17961C6.91744 8.17961 6.9131 8.17896 6.90864 8.17896H6.83776C6.34805 8.17896 5.95117 8.57594 5.95117 9.06565V14.8902C5.95117 15.3801 6.34794 15.7769 6.83776 15.7769Z" fill="#CC1237"/>
<path d="M17.6557 14.0035H14.8902V12.8109H17.1473C17.6369 12.8109 18.0339 12.4141 18.0339 11.9245V11.8535C18.0339 11.3637 17.6369 10.9668 17.1473 10.9668H14.8902V10.0231H17.537C18.0267 10.0231 18.4237 9.62624 18.4237 9.13653V9.06565C18.4237 8.57594 18.0268 8.17896 17.537 8.17896H13.9326C13.4429 8.17896 13.0459 8.57594 13.0459 9.06565V14.8902C13.0459 15.3801 13.4429 15.7769 13.9326 15.7769H17.6558C18.1454 15.7769 18.5425 15.3801 18.5425 14.8902C18.5424 14.4006 18.1454 14.0035 17.6557 14.0035Z" fill="#CC1237"/>
<path d="M21.6272 15.777H21.6817C21.6829 15.777 21.6839 15.7767 21.6851 15.7767C21.6862 15.7767 21.6873 15.777 21.6886 15.777H21.7344C22.1151 15.777 22.4531 15.534 22.5748 15.1733L23.6831 11.8824L24.7863 15.1723C24.9073 15.5337 25.2457 15.7771 25.6269 15.7771H25.6813C25.6825 15.7771 25.6835 15.7768 25.6848 15.7768C25.6861 15.7768 25.6872 15.7771 25.6884 15.7771H25.7342C26.1141 15.7771 26.4518 15.535 26.5738 15.1752L28.5487 9.35047C28.6406 9.07991 28.5962 8.78141 28.4297 8.54922C28.2633 8.31691 27.9949 8.17908 27.7092 8.17908H27.6184C27.2362 8.17908 26.8971 8.42399 26.7768 8.78673L25.683 12.0878L24.584 8.78576C24.4634 8.42344 24.1245 8.17908 23.7427 8.17908H23.6188C23.2365 8.17908 22.8974 8.42399 22.7772 8.78673L21.6833 12.0878L20.5844 8.78576C20.4639 8.42344 20.1249 8.17908 19.743 8.17908H19.6524C19.3666 8.17908 19.0983 8.31691 18.9317 8.54922C18.7651 8.78141 18.7208 9.07991 18.8126 9.35047L20.7876 15.1752C20.9094 15.5349 21.2472 15.777 21.6272 15.777Z" fill="#CC1237"/>
<path d="M31.4692 15.7769C33.435 15.7769 34.3148 14.6328 34.3147 13.5058C34.3283 11.7474 32.7977 11.2848 31.8832 11.0085C30.8685 10.7018 30.7728 10.5786 30.7728 10.3298C30.7728 10.1817 31.1276 10.0232 31.6555 10.0232C32.0088 10.0232 32.4272 10.1269 32.673 10.2752C33.0878 10.5259 33.6266 10.397 33.8834 9.98594L33.9159 9.93387C34.0414 9.73299 34.0812 9.49014 34.0265 9.25969C33.9721 9.02913 33.8274 8.83009 33.6251 8.70693C33.0824 8.37636 32.3462 8.17896 31.6555 8.17896C29.7716 8.17896 28.9284 9.25915 28.9284 10.3298C28.9284 12.0419 30.3777 12.4808 31.3365 12.7712C32.3806 13.0874 32.4728 13.213 32.4705 13.4994C32.4705 13.7971 31.9514 13.9327 31.4692 13.9327C31.0006 13.9327 30.4867 13.7326 30.1901 13.4349C30.0239 13.2679 29.7983 13.1741 29.5629 13.1738C29.5626 13.1738 29.5624 13.1738 29.562 13.1738C29.327 13.1738 29.1012 13.2673 28.935 13.4336L28.8867 13.4821C28.7189 13.6498 28.6253 13.8778 28.627 14.115C28.6286 14.3523 28.7252 14.579 28.8951 14.7445C29.5497 15.3814 30.5359 15.7769 31.4692 15.7769Z" fill="#CC1237"/>
<path d="M16.0163 18.361H7.58273C6.64288 18.361 5.88086 19.1229 5.88086 20.0628C5.88086 21.0027 6.64277 21.7647 7.58273 21.7647H16.0162C16.9561 21.7647 17.7181 21.0027 17.7181 20.0628C17.7182 19.1229 16.9562 18.361 16.0163 18.361Z" fill="#CC1237"/>
<path d="M16.0163 24.0338H7.58273C6.64288 24.0338 5.88086 24.7958 5.88086 25.7357C5.88086 26.6756 6.64277 27.4376 7.58273 27.4376H16.0162C16.9561 27.4376 17.7181 26.6757 17.7181 25.7357C17.7182 24.7958 16.9562 24.0338 16.0163 24.0338Z" fill="#CC1237"/>
<path d="M16.0163 29.7068H7.58273C6.64288 29.7068 5.88086 30.4687 5.88086 31.4087C5.88086 32.3485 6.64277 33.1105 7.58273 33.1105H16.0162C16.9561 33.1105 17.7181 32.3485 17.7181 31.4087C17.7182 30.4687 16.9562 29.7068 16.0163 29.7068Z" fill="#CC1237"/>
<path d="M33.3298 18.1207H20.3242C19.7801 18.1207 19.3389 18.562 19.3389 19.1059V32.3655C19.3389 32.9096 19.7801 33.3507 20.3242 33.3507H33.3298C33.874 33.3507 34.3151 32.9095 34.3151 32.3655V19.1059C34.3151 18.5618 33.874 18.1207 33.3298 18.1207Z" fill="#CC1237"/>
</g>
<defs>
<clipPath id="clip0">
<rect width="43" height="43" fill="white"/>
</clipPath>
</defs>
</svg>
