<svg width="49" height="49" viewBox="0 0 49 49" fill="none" xmlns="http://www.w3.org/2000/svg">
<path d="M38.6537 27.2656C38.1036 26.8355 32.3624 20.4642 30.8121 19.564V3.03062C30.8121 1.35028 29.4518 0 27.7815 0H12.1683C10.488 0 9.1377 1.36028 9.1377 3.03062V31.9765C9.1377 33.6569 10.498 35.0071 12.1683 35.0071H17.1793H18.9697L18.6896 32.6267C18.5996 32.5466 18.5396 32.4966 18.4496 32.4166H17.4494H15.449C15.549 32.0165 15.579 31.5764 15.499 31.1264C15.2789 29.8761 14.2887 28.8659 13.0385 28.6358C12.5784 28.5458 12.1283 28.5758 11.7182 28.6759V6.14125C11.8983 6.17126 12.0883 6.19126 12.2783 6.19126C13.9787 6.19126 15.349 4.81098 15.349 3.12064C15.349 2.9406 15.329 2.76056 15.299 2.58053H24.6209C24.5908 2.76056 24.5708 2.9406 24.5708 3.12064C24.5708 4.82098 25.9411 6.19126 27.6415 6.19126C27.8315 6.19126 28.0216 6.17126 28.2016 6.14125V28.1357V34.457C27.1414 33.6769 25.9611 31.2364 25.9611 31.2364C25.9611 31.2364 25.381 24.7451 22.0903 24.7451C22.0003 24.7451 21.9203 24.7451 21.8303 24.7551C21.8303 24.7551 19.3398 24.9651 21.4002 32.0865L22.3204 39.9982C22.3204 39.9982 23.3506 44.289 26.1912 47.2596V48.1398C26.1912 48.6099 26.5713 49 27.0514 49H36.3032C36.7433 49 37.1034 48.6699 37.1534 48.2398C37.4835 45.1592 38.7637 33.7069 39.5139 31.9665C39.6339 31.6865 39.7339 31.4064 39.7739 31.1063C39.944 30.1262 40.004 28.3258 38.6537 27.2656Z" fill="#CC1237"/>
<path d="M20.3101 9.87216C21.3265 9.87216 22.1505 9.04819 22.1505 8.03178C22.1505 7.01537 21.3265 6.19141 20.3101 6.19141C19.2937 6.19141 18.4697 7.01537 18.4697 8.03178C18.4697 9.04819 19.2937 9.87216 20.3101 9.87216Z" fill="#CC1237"/>
<path d="M13.3291 17.7135C13.3291 20.8841 15.5496 23.5347 18.5202 24.2048C18.6102 24.0348 18.7002 23.8848 18.8102 23.7247C19.7904 22.2944 21.1207 22.0344 21.5708 21.9944C21.7508 21.9744 21.9309 21.9644 22.1109 21.9644C22.751 21.9644 23.6212 22.0844 24.5214 22.5645C25.8117 21.3542 26.6218 19.6239 26.6218 17.7135C26.6218 14.0427 23.6412 11.0621 19.9705 11.0621C16.2997 11.0621 13.3291 14.0427 13.3291 17.7135ZM15.9896 17.1234C16.3897 17.1234 16.3997 17.1234 16.4597 16.7233C16.5098 16.4132 16.5998 16.1232 16.7198 15.8331C16.7898 15.6731 16.8998 15.6131 17.0599 15.6631C17.3099 15.7331 17.55 15.8031 17.8 15.8831C18.0301 15.9531 18.0601 16.0331 17.96 16.2532C17.74 16.7033 17.65 17.1634 17.68 17.6635C17.69 17.7935 17.7 17.9235 17.76 18.0336C17.95 18.4636 18.4201 18.5237 18.7102 18.1636C18.8602 17.9835 18.9603 17.7735 19.0503 17.5535C19.2103 17.1734 19.3603 16.7933 19.5504 16.4432C20.1805 15.303 21.6108 14.9929 22.591 15.8031C22.9411 16.0932 23.1811 16.4732 23.3011 16.9133C23.3511 17.1034 23.4512 17.1934 23.6512 17.1834C23.8512 17.1734 24.0413 17.1834 24.2413 17.1834C24.4214 17.1834 24.5114 17.2734 24.5114 17.4434C24.5214 17.6535 24.5214 17.8635 24.5114 18.0736C24.5114 18.2636 24.4014 18.3436 24.2213 18.3436C24.0813 18.3436 23.9313 18.3436 23.7912 18.3436C23.4712 18.3436 23.4612 18.3536 23.4112 18.6637C23.3511 19.0538 23.2611 19.4338 23.0911 19.7939C22.9511 20.074 22.8811 20.104 22.591 20.024C22.3709 19.964 22.1509 19.9039 21.9409 19.8339C21.6908 19.7539 21.6608 19.6839 21.7808 19.4538C21.9909 19.0638 22.1009 18.6437 22.1609 18.2036C22.2009 17.9235 22.1709 17.6435 22.0509 17.3834C21.8408 16.8933 21.2707 16.8133 20.9307 17.2334C20.8106 17.3734 20.7306 17.5335 20.6606 17.7035C20.4706 18.1336 20.3305 18.5837 20.0905 18.9838C19.7004 19.6439 19.1603 20.054 18.3601 20.004C17.4599 19.9539 16.8898 19.4338 16.5898 18.6137C16.4697 18.2736 16.4697 18.2736 16.1097 18.2636C15.9896 18.2636 15.8696 18.2636 15.7496 18.2636C15.4795 18.2536 15.4295 18.2136 15.4295 17.9435C15.4295 17.8635 15.4295 17.7735 15.4295 17.6935C15.4195 17.1334 15.4195 17.1334 15.9896 17.1234Z" fill="#CC1237"/>
</svg>
