<svg width="20" height="20" viewBox="0 0 20 20" fill="none" xmlns="http://www.w3.org/2000/svg">
<path d="M19.9596 15.7557C20.0019 16.0799 19.9031 16.3617 19.6636 16.6013L16.852 19.3917C16.7252 19.5326 16.5596 19.6525 16.3553 19.751C16.1509 19.8497 15.9501 19.9131 15.7529 19.9413C15.7388 19.9413 15.6964 19.9449 15.6259 19.952C15.5555 19.959 15.4639 19.9626 15.3512 19.9626C15.0834 19.9626 14.6499 19.9168 14.051 19.8251C13.452 19.7335 12.7192 19.508 11.8525 19.1486C10.9857 18.7893 10.0027 18.2501 8.90345 17.5314C7.80421 16.8128 6.63444 15.8262 5.39423 14.5719C4.4077 13.5994 3.59029 12.6693 2.942 11.7814C2.29371 10.8935 1.77226 10.0726 1.37765 9.31859C0.983005 8.5646 0.687047 7.88108 0.489741 7.26802C0.292435 6.65497 0.158549 6.12647 0.0880829 5.68253C0.0176166 5.23859 -0.0105699 4.88979 0.00352332 4.63611C0.0176166 4.38243 0.0246632 4.2415 0.0246632 4.21331C0.0528497 4.016 0.116269 3.81517 0.214922 3.61082C0.313575 3.40647 0.433368 3.24087 0.574301 3.11403L3.38591 0.302428C3.58321 0.105123 3.8087 0.00646973 4.06238 0.00646973C4.2456 0.00646973 4.40767 0.0593195 4.5486 0.165019C4.68953 0.270718 4.80933 0.401081 4.90798 0.556107L7.16995 4.84751C7.29679 5.073 7.33202 5.31963 7.27565 5.5874C7.21927 5.85517 7.09948 6.08067 6.91627 6.26388L5.88041 7.29973C5.85223 7.32792 5.82757 7.37372 5.80643 7.43714C5.78528 7.50056 5.77471 7.55341 5.77471 7.59569C5.83109 7.89165 5.95793 8.22989 6.15523 8.61041C6.32435 8.94865 6.58508 9.36087 6.93741 9.84709C7.28974 10.3333 7.79005 10.8935 8.43834 11.5277C9.07254 12.176 9.63627 12.6798 10.1295 13.0393C10.6227 13.3985 11.0351 13.6628 11.3663 13.832C11.6974 14.0011 11.9511 14.1033 12.1273 14.1384L12.3914 14.1913C12.4196 14.1913 12.4655 14.1807 12.5289 14.1596C12.5923 14.1384 12.6381 14.1138 12.6663 14.0855L13.8713 12.8594C14.1251 12.634 14.4209 12.5212 14.7592 12.5212C14.9988 12.5212 15.189 12.5635 15.3299 12.6481H15.351L19.431 15.058C19.727 15.2414 19.9032 15.4738 19.9596 15.7557Z" fill="#CB2023"/>
</svg>
