<svg xmlns="http://www.w3.org/2000/svg" width="41.24" height="47.174" viewBox="0 0 41.24 47.174">
  <g id="podium-weibo" transform="translate(-4)">
    <path id="Path_836" data-name="Path 836" d="M52.15,14.123,54.711,9H48.364v5.155H41v4.419H54.821Z" transform="translate(-9.752 -2.372)" fill="#cb2023"/>
    <path id="Path_837" data-name="Path 837" d="M43.992,1.473H32.7L32.209,0H30.736L30,2.209V22.093h2.946V10.31H43.992Z" transform="translate(-6.853)" fill="#cb2023"/>
    <path id="Path_838" data-name="Path 838" d="M26,42v.736a2.212,2.212,0,0,0,1.8,2.17L26.925,42Z" transform="translate(-5.799 -11.07)" fill="#cb2023"/>
    <path id="Path_839" data-name="Path 839" d="M37.674,31.941H20V55.593H37.674Zm-2.946,8.144a3.686,3.686,0,0,1-3.682,3.682h-.041l-.284.948a.737.737,0,0,1-.705.525h-.442v2.209h1.473a.736.736,0,0,1,.736.736v2.946a.736.736,0,0,1-.736.736H26.628a.736.736,0,0,1-.736-.736V48.186a.736.736,0,0,1,.736-.736H28.1V45.24h-.442a.737.737,0,0,1-.705-.525l-.284-.948h-.041a3.686,3.686,0,0,1-3.682-3.682V38.612a.736.736,0,0,1,.736-.736h1.473V36.4a.736.736,0,0,1,.736-.736h5.891a.736.736,0,0,1,.736.736v1.473h1.473a.736.736,0,0,1,.736.736Z" transform="translate(-4.217 -8.419)" fill="#cb2023"/>
    <path id="Path_840" data-name="Path 840" d="M29,40.365l1.579,5.263h1.26l1.58-5.263V39H29Z" transform="translate(-6.589 -10.279)" fill="#cb2023"/>
    <path id="Path_841" data-name="Path 841" d="M35.56,44.907a2.213,2.213,0,0,0,1.8-2.17V42h-.925Z" transform="translate(-8.318 -11.07)" fill="#cb2023"/>
    <path id="Path_842" data-name="Path 842" d="M46,40V57.674H56.31V40Z" transform="translate(-11.07 -10.543)" fill="#282625"/>
    <path id="Path_843" data-name="Path 843" d="M30,55h2.946v1.473H30Z" transform="translate(-6.853 -14.496)" fill="#cb2023"/>
    <path id="Path_844" data-name="Path 844" d="M14.31,40H4V57.674H14.31Z" transform="translate(0 -10.543)" fill="#282625"/>
  </g>
</svg>
