<svg xmlns="http://www.w3.org/2000/svg" viewBox="0 0 33.953 33.954">
  <defs>
    <style>
      .cls-1 {
        fill: #282625;
      }

      .cls-2 {
        fill: #cb2023;
      }
    </style>
  </defs>
  <g id="progmmatic-5" transform="translate(0.001 0)">
    <path id="Path_585" data-name="Path 585" class="cls-1" d="M33.984,15.916a2.969,2.969,0,0,0,2.066-.839l2.945,1.472a2.923,2.923,0,0,0-.037.362,2.984,2.984,0,1,0,5.968,0,2.948,2.948,0,0,0-.3-1.278l3.995-3.995a2.948,2.948,0,0,0,1.278.3,2.988,2.988,0,0,0,2.984-2.984,2.94,2.94,0,0,0-.149-.884l3.471-2.6a2.982,2.982,0,1,0-1.332-2.482,2.94,2.94,0,0,0,.149.884l-3.471,2.6a2.971,2.971,0,0,0-4.337,3.761l-3.995,3.995a2.932,2.932,0,0,0-3.344.54l-2.945-1.472a2.923,2.923,0,0,0,.037-.362,2.984,2.984,0,1,0-2.984,2.984Zm0,0" transform="translate(-28.944)"/>
    <path id="Path_586" data-name="Path 586" class="cls-2" d="M32.959,172.017H31.9V150.995A.994.994,0,0,0,30.9,150H26.925a.994.994,0,0,0-.995.995v21.023H23.94V156.963a.994.994,0,0,0-.995-.995H18.967a.994.994,0,0,0-.995.995v15.054H15.982v-7.1a.994.994,0,0,0-.995-.995H11.009a.994.994,0,0,0-.995.995v7.1H8.024V160.942a.994.994,0,0,0-.995-.995H3.051a.994.994,0,0,0-.995.995v11.075H.995a.995.995,0,0,0,0,1.99H32.959a.995.995,0,0,0,0-1.99Zm0,0" transform="translate(0 -140.052)"/>
  </g>
</svg>
