<svg xmlns="http://www.w3.org/2000/svg" width="57.381" height="48.288" viewBox="0 0 57.381 48.288">
  <g id="multiple-users-silhouette" transform="translate(0 -6.348)">
    <path id="Path_535" data-name="Path 535" d="M34.627,14.636a10.427,10.427,0,0,1,4.852,7.746,8.412,8.412,0,1,0-4.852-7.746ZM29.113,31.867A8.415,8.415,0,1,0,20.7,23.452,8.415,8.415,0,0,0,29.113,31.867Zm3.57.574H25.542A10.788,10.788,0,0,0,14.767,43.216v8.733l.022.137.6.188a49.047,49.047,0,0,0,14.651,2.362c7.919,0,12.509-2.258,12.792-2.4l.562-.284h.06V43.216A10.785,10.785,0,0,0,32.683,32.44Zm13.923-8.688H39.52a10.371,10.371,0,0,1-3.2,7.224,12.8,12.8,0,0,1,9.145,12.252V45.92c7-.256,11.028-2.239,11.294-2.372l.562-.285h.06V34.527A10.787,10.787,0,0,0,46.606,23.753ZM14.347,23.18a8.359,8.359,0,0,0,4.476-1.3,10.415,10.415,0,0,1,3.915-6.642c.009-.158.024-.314.024-.473a8.415,8.415,0,1,0-8.414,8.414Zm7.558,7.8a10.377,10.377,0,0,1-3.2-7.184c-.263-.019-.523-.04-.791-.04h-7.14A10.787,10.787,0,0,0,0,34.527v8.734l.022.135.6.19a50.52,50.52,0,0,0,12.134,2.281V43.229A12.806,12.806,0,0,1,21.9,30.977Z" fill="#cb2023"/>
  </g>
</svg>
