<svg xmlns="http://www.w3.org/2000/svg" width="54.295" height="54.294" viewBox="0 0 54.295 54.294">
  <g id="search" transform="translate(0 -0.003)">
    <g id="Group_208" data-name="Group 208" transform="translate(0 0.003)">
      <g id="Group_207" data-name="Group 207">
        <path id="Path_576" data-name="Path 576" d="M175.274,170.669h-3.686a.922.922,0,0,0-.922.922v11.058a.922.922,0,0,0,.922.922h3.686a.922.922,0,0,0,.922-.922V171.591A.922.922,0,0,0,175.274,170.669Z" transform="translate(-151.729 -151.923)" fill="#cc6a6c"/>
        <path id="Path_577" data-name="Path 577" d="M89.941,234.669H86.255a.922.922,0,0,0-.922.922v5.529a.922.922,0,0,0,.922.922h3.686a.922.922,0,0,0,.922-.922v-5.529A.922.922,0,0,0,89.941,234.669Z" transform="translate(-73.768 -210.394)" fill="#cc6a6c"/>
        <path id="Path_578" data-name="Path 578" d="M260.607,106.669h-3.686a.922.922,0,0,0-.922.922v16.588a.922.922,0,0,0,.922.922h3.686a.922.922,0,0,0,.922-.922V107.591A.922.922,0,0,0,260.607,106.669Z" transform="translate(-229.69 -93.453)" fill="#cc6a6c"/>
        <path id="Path_579" data-name="Path 579" d="M53.631,50.436l-13.5-13.5a22.66,22.66,0,1,0-3.2,3.2l13.5,13.5a2.262,2.262,0,1,0,3.2-3.2ZM22.623,40.724a18.1,18.1,0,1,1,18.1-18.1A18.119,18.119,0,0,1,22.623,40.724Z" transform="translate(0 -0.003)" fill="#fff"/>
      </g>
    </g>
  </g>
</svg>
