<svg xmlns="http://www.w3.org/2000/svg" width="46" height="43.609" viewBox="0 0 46 43.609">
  <g id="browser" transform="translate(0 -8.463)">
    <g id="Group_206" data-name="Group 206" transform="translate(14.947 28.598)">
      <path id="Path_570" data-name="Path 570" d="M239.833,215.764l-1.728-1.78a1.2,1.2,0,0,0,.438-2.356l-4.072-1.029a1.2,1.2,0,0,0-1.458,1.458l1.029,4.072a1.2,1.2,0,0,0,2.353-.46l1.715,1.767a1.2,1.2,0,1,0,1.724-1.673Z" transform="translate(-215.008 -202.145)" fill="#cb2023"/>
      <g id="Group_205" data-name="Group 205">
        <path id="Path_571" data-name="Path 571" d="M110.673,151.563a.515.515,0,0,0-.481-.333h0l-.867,0a.515.515,0,0,0-.481.335l-3.014,8.1a.515.515,0,0,0,.482.694h.785a.515.515,0,0,0,.482-.335l.891-2.395h2.605l.9,2.4a.515.515,0,0,0,.481.333h.789a.515.515,0,0,0,.46-.746Zm-1.548,4.3.638-1.714.646,1.714Z" transform="translate(-105.795 -151.195)" fill="#cb2023"/>
        <path id="Path_572" data-name="Path 572" d="M170.214,150.98h-2.231a.515.515,0,0,0-.515.515v8.086a.515.515,0,0,0,.515.515h2.231a4.559,4.559,0,1,0,0-9.116Zm0,7.351h-.981v-5.587h.981a2.795,2.795,0,1,1,0,5.587Z" transform="translate(-158.756 -150.98)" fill="#cb2023"/>
      </g>
    </g>
    <path id="Path_573" data-name="Path 573" d="M43.528,8.463H2.472A2.475,2.475,0,0,0,0,10.935V49.6a2.475,2.475,0,0,0,2.472,2.472H43.528A2.475,2.475,0,0,0,46,49.6V10.935A2.475,2.475,0,0,0,43.528,8.463Zm-4.892,3.791A2.049,2.049,0,1,1,36.587,14.3,2.051,2.051,0,0,1,38.635,12.254Zm-6.947,0A2.049,2.049,0,1,1,29.64,14.3,2.051,2.051,0,0,1,31.689,12.254Zm-25.416.989h8.265a1.06,1.06,0,1,1,0,2.119H6.273a1.06,1.06,0,0,1,0-2.119Zm35.8,34.545a.323.323,0,0,1-.323.323H4.25a.323.323,0,0,1-.323-.323V21.16H42.073Z" transform="translate(0 0)" fill="#cb2023"/>
  </g>
</svg>
