<svg xmlns="http://www.w3.org/2000/svg" width="57.125" height="57.125" viewBox="0 0 57.125 57.125">
  <g id="detour" transform="translate(-0.004)">
    <g id="Group_204" data-name="Group 204" transform="translate(0.004)">
      <path id="Path_549" data-name="Path 549" d="M25.473,55.845a4.376,4.376,0,0,0,6.187,0l24.19-24.189a4.378,4.378,0,0,0,0-6.186L31.66,1.281a4.376,4.376,0,0,0-6.187,0L1.284,25.469a4.378,4.378,0,0,0,0,6.186ZM5.127,25.316,25.319,5.123a4.591,4.591,0,0,1,6.495,0L52.006,25.315a4.592,4.592,0,0,1,0,6.495L31.814,52a4.589,4.589,0,0,1-6.495,0L5.127,31.81a4.591,4.591,0,0,1,0-6.495Z" transform="translate(-0.004)" fill="#cb2023"/>
      <path id="Path_550" data-name="Path 550" d="M66,91.235a3.653,3.653,0,0,0,5.043,0L91.234,71.043a3.566,3.566,0,0,0,0-5.043L71.042,45.808a3.566,3.566,0,0,0-5.043,0L45.807,66a3.566,3.566,0,0,0,0,5.043Zm2.409-38.616L72.553,59.8H70.06V69.869a10.66,10.66,0,0,1,6.64-4.652l-.163-2.4,7.443,3.649L77.1,71.084l-.193-2.847C73.529,69.3,70.174,72.566,70.174,83.4H66.981V59.8H64.263Z" transform="translate(-39.958 -39.959)" fill="#cb2023"/>
    </g>
  </g>
</svg>
