<svg id="padlock-unlock" xmlns="http://www.w3.org/2000/svg" width="37.096" height="49.462" viewBox="0 0 37.096 49.462">
  <path id="Path_568" data-name="Path 568" d="M91.012,25.632a2.981,2.981,0,0,0-2.19-.9h-23.7v-10.3A7.942,7.942,0,0,1,67.538,8.6a8.241,8.241,0,0,1,11.657,0,7.942,7.942,0,0,1,2.415,5.829,2.089,2.089,0,0,0,2.06,2.061h2.062a2.089,2.089,0,0,0,2.06-2.061A13.9,13.9,0,0,0,83.558,4.235a14.383,14.383,0,0,0-20.384,0A13.893,13.893,0,0,0,58.94,14.426v10.3h-1.03a3.078,3.078,0,0,0-3.091,3.091V46.37a3.078,3.078,0,0,0,3.091,3.091H88.822a3.078,3.078,0,0,0,3.092-3.091V27.822A2.979,2.979,0,0,0,91.012,25.632Z" transform="translate(-54.818)" fill="#cb2023"/>
</svg>
