<svg id="padlock" xmlns="http://www.w3.org/2000/svg" width="36.92" height="45.125" viewBox="0 0 36.92 45.125">
  <path id="Path_569" data-name="Path 569" d="M72.57,21.409a2.967,2.967,0,0,0-2.18-.9H69.365V14.358a13.816,13.816,0,0,0-4.23-10.127,14.237,14.237,0,0,0-20.255,0,13.816,13.816,0,0,0-4.23,10.127v6.154H39.625a3.064,3.064,0,0,0-3.077,3.077v18.46a3.063,3.063,0,0,0,3.077,3.077H70.391a3.063,3.063,0,0,0,3.077-3.077V23.588A2.965,2.965,0,0,0,72.57,21.409Zm-9.358-.9H46.8V14.358a7.9,7.9,0,0,1,2.4-5.8,8.2,8.2,0,0,1,11.6,0,7.905,7.905,0,0,1,2.4,5.8Z" transform="translate(-36.548)" fill="#cb2023"/>
</svg>
