<svg xmlns="http://www.w3.org/2000/svg" viewBox="0 0 169.828 48.006">
  <defs>
    <style>
      .cls-1 {
        fill: #2e3233;
      }

      .cls-2 {
        fill: #9de60b;
      }
    </style>
  </defs>
  <g id="wechat-3" transform="translate(0)">
    <path id="Path_96" data-name="Path 96" class="cls-1" d="M179.28,24.836c3.69-.89,8.178-.062,10.587,3.088a10.6,10.6,0,0,1,1.842,4.338c-1.621.026-3.248.026-4.869.026-.705-3.489-5.5-4.884-8.039-2.5-1.791,1.951-2.115,4.848-1.745,7.375.4,1.94,1.179,4.194,3.18,5a4.976,4.976,0,0,0,6.6-3.907c1.652,0,3.309-.005,4.966.031-.344,2.954-1.77,6.031-4.663,7.241-4.488,1.951-10.916,1.369-13.516-3.278a13.571,13.571,0,0,0,.448-5.8,26.54,26.54,0,0,0-1.451-4.05c-.009-3.7,3.161-6.835,6.655-7.565Z" transform="translate(-67.795 -9.622)"/>
    <path id="Path_97" data-name="Path 97" class="cls-2" d="M102.2,25.919c1.775-.015,3.551-.015,5.326-.021,1.055,4.657,1.641,9.423,2.928,14.03,1.292-3.819,1.889-7.828,2.986-11.7.324-1.173,1.246-2.413,2.594-2.326,1.462-.175,2.455,1.179,2.754,2.455,1.05,3.809,1.739,7.715,2.908,11.5,1.343-4.565,2.08-9.274,3.063-13.927q2.6-.031,5.2,0c-1.452,5.841-3.093,11.631-4.581,17.462-.366,1.452-1,3.109-2.558,3.644a3.367,3.367,0,0,1-3.783-2.629c-1.1-3.5-1.889-7.092-2.97-10.6-.87,3.489-1.76,6.968-2.718,10.432-.361,1.549-1.719,3.139-3.463,2.831-1.683-.191-2.512-1.863-2.882-3.325-1.592-5.94-3.213-11.874-4.8-17.814Z" transform="translate(-40.137 -10.165)"/>
    <path id="Path_98" data-name="Path 98" class="cls-1" d="M205.983,25.928c1.591-.005,3.186-.005,4.777-.011-.011,1.75-.026,3.5.113,5.24,2.558.18,5.363-.546,7.72.751a6.41,6.41,0,0,1,3.191,5.671c.032,3.165-.01,6.33,0,9.5q-2.324.015-4.637.02c-.031-3.041.036-6.083-.015-9.124a2.1,2.1,0,0,0-1.73-2.224,31.977,31.977,0,0,0-4.652-.062c.01,3.8.005,7.6.005,11.405q-2.386-.007-4.771,0c-.007-7.055,0-14.107-.007-21.162Zm36.594-.006H247.1c0,1.591,0,3.175-.011,4.766,1.21,0,2.419,0,3.634.005-.005,1.173-.005,2.352-.005,3.525h-3.67c.094,2.687-.2,5.4.155,8.08.813,1,2.249.86,3.4,1.184q-.023,1.8-.02,3.6c-2.6.057-6.15.4-7.483-2.429-1.148-3.33-.288-6.973-.545-10.427-1.163-.011-2.326-.016-3.489-.031,0-1.164-.005-2.326-.005-3.484,1.174-.015,2.347-.026,3.526-.031Q242.574,28.305,242.577,25.922Z" transform="translate(-80.895 -10.178)"/>
    <path id="Path_99" data-name="Path 99" class="cls-2" d="M161.886,42.83c.083-3.042-.593-6.475-3.284-8.3-3.52-2.238-9.155-1.935-11.528,1.847-1.982,3.335-2.089,8.06.6,11.06,2.573,2.908,7.134,3.062,10.5,1.606,1.859-.757,2.883-2.563,3.583-4.334q-2.223-.072-4.447-.021a4.517,4.517,0,0,1-5.465,1.209c-1.168-.566-1.4-1.935-1.771-3.036C154.011,42.8,157.948,42.86,161.886,42.83Zm-11.931-3.175c.531-1.621,1.869-3.037,3.727-2.744,1.832-.3,3.077,1.179,3.592,2.749q-3.659.107-7.319,0Z" transform="translate(-57.188 -13.01)"/>
    <path id="Path_100" data-name="Path 100" class="cls-1" d="M249.251,38.971a5.845,5.845,0,0,0-5.291-5.327c-2.687-.278-5.728-.278-7.947,1.5a5.81,5.81,0,0,0-1.858,3.664c1.385.036,2.77.041,4.159.031.788-2.357,3.871-2.656,5.723-1.441.7.587.639,1.575.839,2.393-2.9.114-6.093-.448-8.672,1.225-2.455,1.442-2.9,4.977-1.477,7.283,1,1.5,2.949,1.776,4.611,1.771,3.314.015,6.629-.005,9.943,0C249.251,46.367,249.344,42.665,249.251,38.971ZM238.6,45.749a3.792,3.792,0,0,1,.514-2.28,23.113,23.113,0,0,1,5.625-.432c.01,1.292.01,2.579.005,3.871C242.694,46.778,240.182,47.427,238.6,45.749Z" transform="translate(-91.867 -13.16)"/>
    <g id="Group_80" data-name="Group 80" transform="translate(0 0)">
      <path id="Path_101" data-name="Path 101" class="cls-2" d="M32.827,3A24.385,24.385,0,0,0,12.851,1.437,20.323,20.323,0,0,0,2.374,9.687,15.443,15.443,0,0,0,.452,21.535a18.124,18.124,0,0,0,7.863,10.64c-.7,2.048-1.4,4.1-2.054,6.159,2.368-1.23,4.708-2.512,7.066-3.764a26.2,26.2,0,0,0,8.819,1.252,15.189,15.189,0,0,1-.608-7.119,15.193,15.193,0,0,1,4.822-8.567,20.849,20.849,0,0,1,15.661-5.142A18.26,18.26,0,0,0,32.827,3ZM16.71,12.322a2.962,2.962,0,1,1-3.862-3.5A2.983,2.983,0,0,1,16.71,12.322Zm14.6-.584a2.958,2.958,0,1,1-3.983-2.891,2.978,2.978,0,0,1,3.983,2.891Z" transform="translate(0 0)"/>
      <path id="Path_102" data-name="Path 102" class="cls-1" d="M71.263,36.2a15.943,15.943,0,0,0-7.451-7.586,20.514,20.514,0,0,0-18.389.067,15.272,15.272,0,0,0-8.149,10.037,12.9,12.9,0,0,0,1.639,9.551A17.6,17.6,0,0,0,50.9,56.091,21.924,21.924,0,0,0,61.355,55.4c2.023.791,3.837,2.064,5.8,3q-.754-2.549-1.623-5.062a16.545,16.545,0,0,0,5.409-5.975,12.949,12.949,0,0,0,.32-11.163Zm-19.748,1.27a2.373,2.373,0,1,1-3.039-3.066,2.395,2.395,0,0,1,3.039,3.066Zm11.559.218a2.392,2.392,0,0,1-3.77.646,3.758,3.758,0,0,1-.833-1.759,2.676,2.676,0,0,1,2.257-2.3A2.391,2.391,0,0,1,63.075,37.692Z" transform="translate(-14.516 -10.398)"/>
    </g>
  </g>
</svg>
