<svg xmlns="http://www.w3.org/2000/svg" viewBox="0 0 52.826 52.829">
  <defs>
    <style>
      .cls-1 {
        fill: #cb2023;
      }

      .cls-2 {
        fill: #282625;
      }
    </style>
  </defs>
  <g id="megaphone" transform="translate(-0.016)">
    <g id="Group_121" data-name="Group 121" transform="translate(0.016 13.038)">
      <g id="Group_120" data-name="Group 120" transform="translate(0)">
        <path id="Path_253" data-name="Path 253" class="cls-1" d="M26.429,146.514V126.368c-.571.053-1.136.142-1.71.168H8.27a1.651,1.651,0,0,0-1.651,1.651v1.651H1.667a1.651,1.651,0,0,0-1.651,1.651v9.9a1.651,1.651,0,0,0,1.651,1.651H6.619V144.7a1.651,1.651,0,0,0,1.651,1.651h1l6.636,17.69a3.283,3.283,0,0,0,2.43,2.054,3.232,3.232,0,0,0,2.981-.908l3.965-3.932a3.294,3.294,0,0,0,.608-3.82l-5.54-11.084h4.385C25.3,146.372,25.864,146.462,26.429,146.514Z" transform="translate(-0.016 -126.368)"/>
      </g>
    </g>
    <g id="Group_123" data-name="Group 123" transform="translate(29.731)">
      <g id="Group_122" data-name="Group 122">
        <path id="Path_254" data-name="Path 254" class="cls-2" d="M310.857.8a1.173,1.173,0,0,0-.106-.155,1.631,1.631,0,0,0-.69-.528c-.01,0-.017-.017-.026-.02-.033-.01-.063.007-.1,0A1.642,1.642,0,0,0,309.477,0a1.534,1.534,0,0,0-.32.066,1.828,1.828,0,0,0-.185.036,1.639,1.639,0,0,0-.723.469c-.013.013-.033.017-.046.03a34.741,34.741,0,0,1-20.186,11.962v21.1A34.736,34.736,0,0,1,308.2,45.622c.013.017.036.023.053.043a1.6,1.6,0,0,0,.409.317c.05.03.089.073.139.1a1.7,1.7,0,0,0,.674.145,1.724,1.724,0,0,0,.558-.1c.01,0,.017-.017.026-.02a1.6,1.6,0,0,0,.69-.528c.04-.053.069-.1.106-.155a1.6,1.6,0,0,0,.271-.852V1.651A1.6,1.6,0,0,0,310.857.8Z" transform="translate(-288.016)"/>
      </g>
    </g>
  </g>
</svg>
