<svg id="Group_82" data-name="Group 82" xmlns="http://www.w3.org/2000/svg" viewBox="0 0 57.858 48.006">
  <defs>
    <style>
      .cls-1 {
        fill: #9de60b;
      }

      .cls-2 {
        fill: #2e3233;
      }
    </style>
  </defs>
  <path id="Path_101" data-name="Path 101" class="cls-1" d="M32.827,3A24.385,24.385,0,0,0,12.851,1.437,20.323,20.323,0,0,0,2.374,9.687,15.443,15.443,0,0,0,.452,21.535a18.124,18.124,0,0,0,7.863,10.64c-.7,2.048-1.4,4.1-2.054,6.159,2.368-1.23,4.708-2.512,7.066-3.764a26.2,26.2,0,0,0,8.819,1.252,15.189,15.189,0,0,1-.608-7.119,15.193,15.193,0,0,1,4.822-8.567,20.849,20.849,0,0,1,15.661-5.142A18.26,18.26,0,0,0,32.827,3ZM16.71,12.322a2.962,2.962,0,1,1-3.862-3.5A2.983,2.983,0,0,1,16.71,12.322Zm14.6-.584a2.958,2.958,0,1,1-3.983-2.891,2.978,2.978,0,0,1,3.983,2.891Z" transform="translate(0 0)"/>
  <path id="Path_102" data-name="Path 102" class="cls-2" d="M71.263,36.2a15.943,15.943,0,0,0-7.451-7.586,20.514,20.514,0,0,0-18.389.067,15.272,15.272,0,0,0-8.149,10.037,12.9,12.9,0,0,0,1.639,9.551A17.6,17.6,0,0,0,50.9,56.091,21.924,21.924,0,0,0,61.355,55.4c2.023.791,3.837,2.064,5.8,3q-.754-2.549-1.623-5.062a16.545,16.545,0,0,0,5.409-5.975,12.949,12.949,0,0,0,.32-11.163Zm-19.748,1.27a2.373,2.373,0,1,1-3.039-3.066,2.395,2.395,0,0,1,3.039,3.066Zm11.559.218a2.392,2.392,0,0,1-3.77.646,3.758,3.758,0,0,1-.833-1.759,2.676,2.676,0,0,1,2.257-2.3A2.391,2.391,0,0,1,63.075,37.692Z" transform="translate(-14.516 -10.398)"/>
</svg>
