<svg xmlns="http://www.w3.org/2000/svg" viewBox="0 0 64.982 75.83">
  <defs>
    <style>
      .cls-1 {
        fill: #00f7ef;
      }

      .cls-1, .cls-2, .cls-3 {
        fill-rule: evenodd;
      }

      .cls-3 {
        fill: #ff004f;
      }
    </style>
  </defs>
  <g id="Group_81" data-name="Group 81" transform="translate(0.03)">
    <path id="Path_121" data-name="Path 121" class="cls-1" d="M7.48,66.977C-8.192,53.381,1.945,23.1,26.032,26.915v2.8C5.69,28.775-3.262,53.044,7.48,66.977ZM51.425,14.461A18.228,18.228,0,0,0,62.02,18.18v2.75A16.1,16.1,0,0,1,51.425,14.461ZM44.9,0a19.546,19.546,0,0,0,.294,3.1h-9.6v47.82a23.366,23.366,0,0,1-.675,5.89c-3.909,8.623-14.989,7.49-18.042,1.583A10.445,10.445,0,0,0,31.991,53.71a23.366,23.366,0,0,0,.675-5.89V0Z" transform="translate(0)"/>
    <path id="Path_122" data-name="Path 122" class="cls-2" d="M78.7,35.8v.061c0,1.107.329,17.116,17.125,18.111,0,14.893.009,0,.009,12.368-1.263.078-11.062-.631-17.151-6.072l-.017,24.078c.147,10.906-5.916,21.6-17.28,23.75a24.551,24.551,0,0,1-10.863-.381c-27.728-8.277-18.517-49.4,9.324-45,0,13.276.009,0,.009,13.276-11.5-1.7-15.343,7.87-12.29,14.72C50.352,96.948,61.795,98.3,65.791,89.5a23.366,23.366,0,0,0,.675-5.89V35.8Z" transform="translate(-30.885 -32.704)"/>
    <path id="Path_123" data-name="Path 123" class="cls-3" d="M105.452,62.421a26.772,26.772,0,0,1,2.923.294c0,13.276.009,0,.009,13.276-11.5-1.7-15.343,7.87-12.29,14.72.052.121.121.251.182.372a7.959,7.959,0,0,1-3.1-3.468c-3.053-6.85.787-16.416,12.29-14.72C105.452,60.726,105.452,70.854,105.452,62.421Zm35.979-8.8a24.847,24.847,0,0,0,2.923.346c0,14.893.009,0,.009,12.368-1.263.078-11.062-.631-17.151-6.072L127.2,84.346c.147,10.906-5.916,21.6-17.28,23.75a24.551,24.551,0,0,1-10.863-.381A23.422,23.422,0,0,1,86.9,99.672,23.541,23.541,0,0,0,106.983,105c11.365-2.145,17.436-12.835,17.289-23.733l.017-24.087c6.1,5.44,15.888,6.149,17.159,6.072C141.44,51.757,141.431,63.788,141.431,53.625ZM127.23,35.8v.061a21.04,21.04,0,0,0,3.607,11.3A18.352,18.352,0,0,1,124.6,35.8Z" transform="translate(-79.411 -32.704)"/>
  </g>
</svg>
