<svg width="36" height="36" viewBox="0 0 36 36" fill="none" xmlns="http://www.w3.org/2000/svg">
<path d="M0 35.9997H16.3636V19.636H0V35.9997ZM3.27247 22.909H13.0908V32.7018H3.27247V22.909Z" fill="#CC1237"/>
<path d="M9.81806 26.1814H6.54541V29.4545H9.81806V26.1814Z" fill="#CC1237"/>
<path d="M29.4546 32.7273H26.1812V36H29.4546V32.7273Z" fill="#CC1237"/>
<path d="M35.9999 32.7273H32.7266V36H35.9999V32.7273Z" fill="#CC1237"/>
<path d="M32.7268 22.909H29.4543V19.636H19.6357V35.9997H22.9087V26.1815H26.1809V29.4545H35.9995V19.636H32.7268V22.909Z" fill="#CC1237"/>
<path d="M0 16.3639H16.3636V0H0V16.3639ZM3.27247 3.27247H13.0908V13.0908H3.27247V3.27247Z" fill="#CC1237"/>
<path d="M9.81806 6.54541H6.54541V9.81833H9.81806V6.54541Z" fill="#CC1237"/>
<path d="M19.6357 0V16.3639H35.9998V0H19.6357ZM32.7268 13.0908H22.9087V3.27247H32.7268V13.0908Z" fill="#CC1237"/>
<path d="M29.4546 6.54541H26.1812V9.81833H29.4546V6.54541Z" fill="#CC1237"/>
</svg>
