<svg width="41" height="41" viewBox="0 0 41 41" fill="none" xmlns="http://www.w3.org/2000/svg">
<circle cx="20.5" cy="20.5" r="20.5" fill="#CC1237"/>
<path d="M24.8555 29H13.1602V26.6797L18.6797 20.7969C19.4375 19.9688 19.9961 19.2461 20.3555 18.6289C20.7227 18.0117 20.9062 17.4258 20.9062 16.8711C20.9062 16.1133 20.7148 15.5195 20.332 15.0898C19.9492 14.6523 19.4023 14.4336 18.6914 14.4336C17.9258 14.4336 17.3203 14.6992 16.875 15.2305C16.4375 15.7539 16.2188 16.4453 16.2188 17.3047H12.8203C12.8203 16.2656 13.0664 15.3164 13.5586 14.457C14.0586 13.5977 14.7617 12.9258 15.668 12.4414C16.5742 11.9492 17.6016 11.7031 18.75 11.7031C20.5078 11.7031 21.8711 12.125 22.8398 12.9688C23.8164 13.8125 24.3047 15.0039 24.3047 16.543C24.3047 17.3867 24.0859 18.2461 23.6484 19.1211C23.2109 19.9961 22.4609 21.0156 21.3984 22.1797L17.5195 26.2695H24.8555V29ZM27.2578 27.3359C27.2578 26.7969 27.4375 26.3594 27.7969 26.0234C28.1641 25.6875 28.6211 25.5195 29.168 25.5195C29.7227 25.5195 30.1797 25.6875 30.5391 26.0234C30.9062 26.3594 31.0898 26.7969 31.0898 27.3359C31.0898 27.8672 30.9102 28.3008 30.5508 28.6367C30.1914 28.9648 29.7305 29.1289 29.168 29.1289C28.6133 29.1289 28.1562 28.9648 27.7969 28.6367C27.4375 28.3008 27.2578 27.8672 27.2578 27.3359Z" fill="white"/>
</svg>
