<svg width="41" height="41" viewBox="0 0 41 41" fill="none" xmlns="http://www.w3.org/2000/svg">
<circle cx="20.5" cy="20.5" r="20.5" fill="#CC1237"/>
<path d="M24.3867 29H21V15.9453L16.957 17.1992V14.4453L24.0234 11.9141H24.3867V29ZM30.2578 27.3359C30.2578 26.7969 30.4375 26.3594 30.7969 26.0234C31.1641 25.6875 31.6211 25.5195 32.168 25.5195C32.7227 25.5195 33.1797 25.6875 33.5391 26.0234C33.9062 26.3594 34.0898 26.7969 34.0898 27.3359C34.0898 27.8672 33.9102 28.3008 33.5508 28.6367C33.1914 28.9648 32.7305 29.1289 32.168 29.1289C31.6133 29.1289 31.1562 28.9648 30.7969 28.6367C30.4375 28.3008 30.2578 27.8672 30.2578 27.3359Z" fill="white"/>
</svg>
