<?xml version="1.0" encoding="UTF-8"?>
<svg width="35px" height="35px" viewBox="0 0 35 35" version="1.1" xmlns="http://www.w3.org/2000/svg" xmlns:xlink="http://www.w3.org/1999/xlink">
    <!-- Generator: Sketch 50.2 (55047) - http://www.bohemiancoding.com/sketch -->
    <title>search</title>
    <desc>Created with Sketch.</desc>
    <defs></defs>
    <g id="Design" stroke="none" stroke-width="1" fill="none" fill-rule="evenodd">
        <g id="Home-8" transform="translate(-944.000000, -2983.000000)" fill-rule="nonzero">
            <g id="Group-17" transform="translate(944.000000, 2977.000000)">
                <g id="search" transform="translate(0.000000, 6.000000)">
                    <path d="M20.9789453,0 C13.2665723,0 6.99200195,6.27443359 6.99200195,13.9869434 C6.99200195,21.6994531 13.2665039,27.9738867 20.9789453,27.9738867 C28.6913867,27.9738867 34.9658887,21.6994531 34.9658887,13.9869434 C34.9658887,6.27443359 28.6913184,0 20.9789453,0 Z M20.9789453,23.8801172 C15.5238672,23.8801172 11.0857715,19.4420215 11.0857715,13.9869434 C11.0857715,8.53186523 15.5238672,4.09370117 20.9789453,4.09370117 C26.4340234,4.09370117 30.8721191,8.53179688 30.8721191,13.986875 C30.8721191,19.4419531 26.4340234,23.8801172 20.9789453,23.8801172 Z" id="Shape" fill="#CB2023"></path>
                    <path d="M2.95134766,27.7466602 L0.930712891,29.7672266 C-0.264755859,30.9627637 -0.264755859,32.9078613 0.93078125,34.1033984 C1.52844727,34.7011328 2.31362305,35 3.09879883,35 C3.88383789,35 4.66901367,34.7011328 5.26674805,34.1033984 L7.28745117,32.0826953 L2.95134766,27.7466602 Z" id="Shape" fill="#CB2023"></path>
                    <path d="M7.71401367,22.9839941 L4.3987207,26.2993555 L8.73482422,30.635459 L12.0633789,27.3069043 C10.352002,26.1576465 8.87338867,24.6878516 7.71401367,22.9839941 Z" id="Shape" fill="#3D3C3B"></path>
                </g>
            </g>
        </g>
    </g>
</svg>