<svg width="60" height="58" viewBox="0 0 60 58" fill="none" xmlns="http://www.w3.org/2000/svg">
<path fill-rule="evenodd" clip-rule="evenodd" d="M0.835 21C0.314 21.74 0 22.635 0 23.608V35.391C0 37.933 2.067 40 4.608 40H29V48.101C27.044 48.5 25.5 50.044 25.101 52H1C0.448 52 0 52.447 0 53C0 53.553 0.448 54 1 54H25.101C25.566 56.279 27.585 58 30 58C32.415 58 34.434 56.279 34.899 54H59C59.552 54 60 53.553 60 53C60 52.447 59.552 52 59 52H34.899C34.5 50.044 32.956 48.5 31 48.101V40H55.392C57.933 40 60 37.933 60 35.392V23.608C60 22.634 59.686 21.74 59.165 21H0.835ZM10.5 34C8.019 34 6 31.981 6 29.5C6 27.019 8.019 25 10.5 25C12.981 25 15 27.019 15 29.5C15 31.981 12.981 34 10.5 34ZM30 56C31.654 56 33 54.654 33 53C33 51.346 31.654 50 30 50C28.346 50 27 51.346 27 53C27 54.654 28.346 56 30 56ZM34 29C33.448 29 33 28.552 33 28C33 27.448 33.448 27 34 27C34.552 27 35 27.448 35 28C35 28.552 34.552 29 34 29ZM35 31C35 31.552 35.448 32 36 32C36.552 32 37 31.552 37 31C37 30.448 36.552 30 36 30C35.448 30 35 30.448 35 31ZM38 29C37.448 29 37 28.552 37 28C37 27.448 37.448 27 38 27C38.552 27 39 27.448 39 28C39 28.552 38.552 29 38 29ZM39 31C39 31.552 39.448 32 40 32C40.552 32 41 31.552 41 31C41 30.448 40.552 30 40 30C39.448 30 39 30.448 39 31ZM42 29C41.448 29 41 28.552 41 28C41 27.448 41.448 27 42 27C42.552 27 43 27.448 43 28C43 28.552 42.552 29 42 29ZM43 31C43 31.552 43.448 32 44 32C44.552 32 45 31.552 45 31C45 30.448 44.552 30 44 30C43.448 30 43 30.448 43 31ZM46 29C45.448 29 45 28.552 45 28C45 27.448 45.448 27 46 27C46.552 27 47 27.448 47 28C47 28.552 46.552 29 46 29ZM47 31C47 31.552 47.448 32 48 32C48.552 32 49 31.552 49 31C49 30.448 48.552 30 48 30C47.448 30 47 30.448 47 31ZM50 29C49.448 29 49 28.552 49 28C49 27.448 49.448 27 50 27C50.552 27 51 27.448 51 28C51 28.552 50.552 29 50 29ZM51 31C51 31.552 51.448 32 52 32C52.552 32 53 31.552 53 31C53 30.448 52.552 30 52 30C51.448 30 51 30.448 51 31Z" fill="white"/>
<path fill-rule="evenodd" clip-rule="evenodd" d="M4.608 0H55.392C57.933 0 60 2.067 60 4.608V16.392C60 17.365 59.686 18.26 59.164 19H0.835C0.314 18.26 0 17.365 0 16.391V4.608C0 2.067 2.067 0 4.608 0ZM6 10.5C6 12.981 8.019 15 10.5 15C12.981 15 15 12.981 15 10.5C15 8.019 12.981 6 10.5 6C8.019 6 6 8.019 6 10.5ZM34 10C33.448 10 33 9.552 33 9C33 8.448 33.448 8 34 8C34.552 8 35 8.448 35 9C35 9.552 34.552 10 34 10ZM35 12C35 12.552 35.448 13 36 13C36.552 13 37 12.552 37 12C37 11.448 36.552 11 36 11C35.448 11 35 11.448 35 12ZM38 10C37.448 10 37 9.552 37 9C37 8.448 37.448 8 38 8C38.552 8 39 8.448 39 9C39 9.552 38.552 10 38 10ZM39 12C39 12.552 39.448 13 40 13C40.552 13 41 12.552 41 12C41 11.448 40.552 11 40 11C39.448 11 39 11.448 39 12ZM42 10C41.448 10 41 9.552 41 9C41 8.448 41.448 8 42 8C42.552 8 43 8.448 43 9C43 9.552 42.552 10 42 10ZM43 12C43 12.552 43.448 13 44 13C44.552 13 45 12.552 45 12C45 11.448 44.552 11 44 11C43.448 11 43 11.448 43 12ZM46 10C45.448 10 45 9.552 45 9C45 8.448 45.448 8 46 8C46.552 8 47 8.448 47 9C47 9.552 46.552 10 46 10ZM47 12C47 12.552 47.448 13 48 13C48.552 13 49 12.552 49 12C49 11.448 48.552 11 48 11C47.448 11 47 11.448 47 12ZM50 10C49.448 10 49 9.552 49 9C49 8.448 49.448 8 50 8C50.552 8 51 8.448 51 9C51 9.552 50.552 10 50 10ZM51 12C51 12.552 51.448 13 52 13C52.552 13 53 12.552 53 12C53 11.448 52.552 11 52 11C51.448 11 51 11.448 51 12Z" fill="#CC6A6C"/>
</svg>
