<svg width="35" height="35" viewBox="0 0 35 35" fill="none" xmlns="http://www.w3.org/2000/svg">
<path d="M0 14.0631V20.9365C0 21.5047 0.183167 22.0262 0.487083 22.4578H34.5123C34.8168 22.0267 35 21.5047 35 20.9371V14.0631C35 13.4949 34.8168 12.9734 34.5129 12.5417H0.487083C0.183167 12.9734 0 13.4955 0 14.0631ZM30.3333 17.7917C30.6553 17.7917 30.9167 18.0531 30.9167 18.3751C30.9167 18.6971 30.6553 18.9584 30.3333 18.9584C30.0113 18.9584 29.75 18.6971 29.75 18.3751C29.75 18.0531 30.0113 17.7917 30.3333 17.7917ZM29.1667 16.0417C29.4887 16.0417 29.75 16.3031 29.75 16.6251C29.75 16.9471 29.4887 17.2084 29.1667 17.2084C28.8447 17.2084 28.5833 16.9471 28.5833 16.6251C28.5833 16.3031 28.8447 16.0417 29.1667 16.0417ZM28 17.7917C28.322 17.7917 28.5833 18.0531 28.5833 18.3751C28.5833 18.6971 28.322 18.9584 28 18.9584C27.678 18.9584 27.4167 18.6971 27.4167 18.3751C27.4167 18.0531 27.678 17.7917 28 17.7917ZM26.8333 16.0417C27.1553 16.0417 27.4167 16.3031 27.4167 16.6251C27.4167 16.9471 27.1553 17.2084 26.8333 17.2084C26.5113 17.2084 26.25 16.9471 26.25 16.6251C26.25 16.3031 26.5113 16.0417 26.8333 16.0417ZM25.6667 17.7917C25.9887 17.7917 26.25 18.0531 26.25 18.3751C26.25 18.6971 25.9887 18.9584 25.6667 18.9584C25.3447 18.9584 25.0833 18.6971 25.0833 18.3751C25.0833 18.0531 25.3447 17.7917 25.6667 17.7917ZM24.5 16.0417C24.822 16.0417 25.0833 16.3031 25.0833 16.6251C25.0833 16.9471 24.822 17.2084 24.5 17.2084C24.178 17.2084 23.9167 16.9471 23.9167 16.6251C23.9167 16.3031 24.178 16.0417 24.5 16.0417ZM23.3333 17.7917C23.6553 17.7917 23.9167 18.0531 23.9167 18.3751C23.9167 18.6971 23.6553 18.9584 23.3333 18.9584C23.0113 18.9584 22.75 18.6971 22.75 18.3751C22.75 18.0531 23.0113 17.7917 23.3333 17.7917ZM22.1667 16.0417C22.4887 16.0417 22.75 16.3031 22.75 16.6251C22.75 16.9471 22.4887 17.2084 22.1667 17.2084C21.8447 17.2084 21.5833 16.9471 21.5833 16.6251C21.5833 16.3031 21.8447 16.0417 22.1667 16.0417ZM21 17.7917C21.322 17.7917 21.5833 18.0531 21.5833 18.3751C21.5833 18.6971 21.322 18.9584 21 18.9584C20.678 18.9584 20.4167 18.6971 20.4167 18.3751C20.4167 18.0531 20.678 17.7917 21 17.7917ZM19.8333 16.0417C20.1553 16.0417 20.4167 16.3031 20.4167 16.6251C20.4167 16.9471 20.1553 17.2084 19.8333 17.2084C19.5113 17.2084 19.25 16.9471 19.25 16.6251C19.25 16.3031 19.5113 16.0417 19.8333 16.0417ZM6.125 14.8751C7.57225 14.8751 8.75 16.0528 8.75 17.5001C8.75 18.9473 7.57225 20.1251 6.125 20.1251C4.67775 20.1251 3.5 18.9473 3.5 17.5001C3.5 16.0528 4.67775 14.8751 6.125 14.8751Z" fill="#CB2023"/>
<path d="M34.5129 11.3751C34.8168 10.9434 35 10.4213 35 9.85375V2.97975C35 1.4975 33.7942 0.291748 32.312 0.291748H2.688C1.20575 0.291748 0 1.4975 0 2.97975V9.85316C0 10.4213 0.183167 10.9428 0.487083 11.3745H34.5129V11.3751ZM30.3333 6.70841C30.6553 6.70841 30.9167 6.96975 30.9167 7.29175C30.9167 7.61375 30.6553 7.87508 30.3333 7.87508C30.0113 7.87508 29.75 7.61375 29.75 7.29175C29.75 6.96975 30.0113 6.70841 30.3333 6.70841ZM29.1667 4.95841C29.4887 4.95841 29.75 5.21975 29.75 5.54175C29.75 5.86375 29.4887 6.12508 29.1667 6.12508C28.8447 6.12508 28.5833 5.86375 28.5833 5.54175C28.5833 5.21975 28.8447 4.95841 29.1667 4.95841ZM28 6.70841C28.322 6.70841 28.5833 6.96975 28.5833 7.29175C28.5833 7.61375 28.322 7.87508 28 7.87508C27.678 7.87508 27.4167 7.61375 27.4167 7.29175C27.4167 6.96975 27.678 6.70841 28 6.70841ZM26.8333 4.95841C27.1553 4.95841 27.4167 5.21975 27.4167 5.54175C27.4167 5.86375 27.1553 6.12508 26.8333 6.12508C26.5113 6.12508 26.25 5.86375 26.25 5.54175C26.25 5.21975 26.5113 4.95841 26.8333 4.95841ZM25.6667 6.70841C25.9887 6.70841 26.25 6.96975 26.25 7.29175C26.25 7.61375 25.9887 7.87508 25.6667 7.87508C25.3447 7.87508 25.0833 7.61375 25.0833 7.29175C25.0833 6.96975 25.3447 6.70841 25.6667 6.70841ZM24.5 4.95841C24.822 4.95841 25.0833 5.21975 25.0833 5.54175C25.0833 5.86375 24.822 6.12508 24.5 6.12508C24.178 6.12508 23.9167 5.86375 23.9167 5.54175C23.9167 5.21975 24.178 4.95841 24.5 4.95841ZM23.3333 6.70841C23.6553 6.70841 23.9167 6.96975 23.9167 7.29175C23.9167 7.61375 23.6553 7.87508 23.3333 7.87508C23.0113 7.87508 22.75 7.61375 22.75 7.29175C22.75 6.96975 23.0113 6.70841 23.3333 6.70841ZM22.1667 4.95841C22.4887 4.95841 22.75 5.21975 22.75 5.54175C22.75 5.86375 22.4887 6.12508 22.1667 6.12508C21.8447 6.12508 21.5833 5.86375 21.5833 5.54175C21.5833 5.21975 21.8447 4.95841 22.1667 4.95841ZM21 6.70841C21.322 6.70841 21.5833 6.96975 21.5833 7.29175C21.5833 7.61375 21.322 7.87508 21 7.87508C20.678 7.87508 20.4167 7.61375 20.4167 7.29175C20.4167 6.96975 20.678 6.70841 21 6.70841ZM19.8333 4.95841C20.1553 4.95841 20.4167 5.21975 20.4167 5.54175C20.4167 5.86375 20.1553 6.12508 19.8333 6.12508C19.5113 6.12508 19.25 5.86375 19.25 5.54175C19.25 5.21975 19.5113 4.95841 19.8333 4.95841ZM6.125 3.79175C7.57225 3.79175 8.75 4.9695 8.75 6.41675C8.75 7.864 7.57225 9.04175 6.125 9.04175C4.67775 9.04175 3.5 7.864 3.5 6.41675C3.5 4.9695 4.67775 3.79175 6.125 3.79175Z" fill="#CB2023"/>
<path d="M0.487083 23.625C0.183167 24.0567 0 24.5788 0 25.1463V32.0197C0 33.5026 1.20575 34.7083 2.688 34.7083H32.3114C33.7937 34.7083 34.9994 33.5026 34.9994 32.0203V25.1463C34.9994 24.5782 34.8162 24.0567 34.5123 23.625H0.487083ZM6.125 31.2083C4.67775 31.2083 3.5 30.0306 3.5 28.5833C3.5 27.1361 4.67775 25.9583 6.125 25.9583C7.57225 25.9583 8.75 27.1361 8.75 28.5833C8.75 30.0306 7.57225 31.2083 6.125 31.2083ZM19.8333 28.2917C19.5113 28.2917 19.25 28.0303 19.25 27.7083C19.25 27.3863 19.5113 27.125 19.8333 27.125C20.1553 27.125 20.4167 27.3863 20.4167 27.7083C20.4167 28.0303 20.1553 28.2917 19.8333 28.2917ZM21 30.0417C20.678 30.0417 20.4167 29.7803 20.4167 29.4583C20.4167 29.1363 20.678 28.875 21 28.875C21.322 28.875 21.5833 29.1363 21.5833 29.4583C21.5833 29.7803 21.322 30.0417 21 30.0417ZM22.1667 28.2917C21.8447 28.2917 21.5833 28.0303 21.5833 27.7083C21.5833 27.3863 21.8447 27.125 22.1667 27.125C22.4887 27.125 22.75 27.3863 22.75 27.7083C22.75 28.0303 22.4887 28.2917 22.1667 28.2917ZM23.3333 30.0417C23.0113 30.0417 22.75 29.7803 22.75 29.4583C22.75 29.1363 23.0113 28.875 23.3333 28.875C23.6553 28.875 23.9167 29.1363 23.9167 29.4583C23.9167 29.7803 23.6553 30.0417 23.3333 30.0417ZM24.5 28.2917C24.178 28.2917 23.9167 28.0303 23.9167 27.7083C23.9167 27.3863 24.178 27.125 24.5 27.125C24.822 27.125 25.0833 27.3863 25.0833 27.7083C25.0833 28.0303 24.822 28.2917 24.5 28.2917ZM25.6667 30.0417C25.3447 30.0417 25.0833 29.7803 25.0833 29.4583C25.0833 29.1363 25.3447 28.875 25.6667 28.875C25.9887 28.875 26.25 29.1363 26.25 29.4583C26.25 29.7803 25.9887 30.0417 25.6667 30.0417ZM26.8333 28.2917C26.5113 28.2917 26.25 28.0303 26.25 27.7083C26.25 27.3863 26.5113 27.125 26.8333 27.125C27.1553 27.125 27.4167 27.3863 27.4167 27.7083C27.4167 28.0303 27.1553 28.2917 26.8333 28.2917ZM28 30.0417C27.678 30.0417 27.4167 29.7803 27.4167 29.4583C27.4167 29.1363 27.678 28.875 28 28.875C28.322 28.875 28.5833 29.1363 28.5833 29.4583C28.5833 29.7803 28.322 30.0417 28 30.0417ZM29.1667 28.2917C28.8447 28.2917 28.5833 28.0303 28.5833 27.7083C28.5833 27.3863 28.8447 27.125 29.1667 27.125C29.4887 27.125 29.75 27.3863 29.75 27.7083C29.75 28.0303 29.4887 28.2917 29.1667 28.2917ZM30.3333 30.0417C30.0113 30.0417 29.75 29.7803 29.75 29.4583C29.75 29.1363 30.0113 28.875 30.3333 28.875C30.6553 28.875 30.9167 29.1363 30.9167 29.4583C30.9167 29.7803 30.6553 30.0417 30.3333 30.0417Z" fill="#CB2023"/>
</svg>
