<svg width="44" height="39" viewBox="0 0 44 39" fill="none" xmlns="http://www.w3.org/2000/svg">
<g id="shopping-cart">
<path id="Shape" d="M41.5319 13.6924L10.9392 11.3738C10.7714 11.3578 10.6134 11.3578 10.4555 11.3658L9.23139 6.55223C9.20177 6.45596 9.17216 6.35969 9.1228 6.27946C8.93524 5.89437 8.54036 5.58149 8.01716 5.45313L2.18294 4.05719C1.2846 3.84058 0.336914 4.25776 0.0703757 4.99584C-0.196162 5.7259 0.31717 6.49607 1.22537 6.71268L6.09216 7.87596L11.9461 30.8046C12.0547 31.4785 12.7655 32 13.6342 32L38.8072 31.992C39.7451 31.992 40.5052 31.3742 40.5052 30.6121C40.5052 29.8499 39.7451 29.2322 38.8072 29.2322L15.0261 29.2402L14.2166 26.0713H39.2515C40.5644 26.0713 41.6997 25.3653 41.9366 24.3946L43.9603 16.1072C44.2269 14.9198 43.1212 13.8127 41.5319 13.6924Z" fill="#CB2023"/>
<path id="Oval" d="M16.5 39C17.8807 39 19 37.8807 19 36.5C19 35.1193 17.8807 34 16.5 34C15.1193 34 14 35.1193 14 36.5C14 37.8807 15.1193 39 16.5 39Z" fill="#CB2023"/>
<path id="Oval_2" d="M34.5 39C35.8807 39 37 37.8807 37 36.5C37 35.1193 35.8807 34 34.5 34C33.1193 34 32 35.1193 32 36.5C32 37.8807 33.1193 39 34.5 39Z" fill="#CB2023"/>
<path id="Shape_2" d="M17.7618 10.3458L18.0739 10.3767L19.0504 10.462L23.0685 10.826L23.2125 9.33098C23.4127 7.30915 25.2616 5.82958 27.3507 6.01549C29.4397 6.20915 30.9685 7.99859 30.7764 10.0204L30.6324 11.5155L34.6504 11.8796L35.9311 11.9958C36.4033 12.0422 36.8275 11.7014 36.8675 11.2444L36.9956 9.91196C37.0436 9.45492 36.6915 9.04436 36.2192 9.00562L34.9386 8.88943C34.8345 7.85915 34.5143 6.8831 34.0181 6.00775L35.0106 5.20986C35.3788 4.9155 35.4268 4.38874 35.1227 4.0324L34.2422 3.00212C33.938 2.64578 33.3938 2.59931 33.0256 2.89367L32.0251 3.68381C31.2247 3.05635 30.2962 2.56832 29.2717 2.27395L29.3917 1.03452C29.4397 0.577481 29.0876 0.166919 28.6153 0.128187L27.2386 0.00424358C26.7664 -0.0422352 26.3422 0.298609 26.3021 0.75565L26.1821 1.99508C25.1175 2.09579 24.109 2.40564 23.2045 2.88593L22.3801 1.92536C22.076 1.56903 21.5317 1.52255 21.1635 1.81691L20.099 2.66902C19.7308 2.96339 19.6827 3.49015 19.9869 3.84649L20.8113 4.80705C20.163 5.58169 19.6587 6.48028 19.3546 7.47183L18.0739 7.35563C17.6017 7.30915 17.1775 7.64999 17.1374 8.10704L17.0094 9.43943C16.9373 9.89647 17.2895 10.2993 17.7618 10.3458Z" fill="#3D3C3B"/>
</g>
</svg>
