<?xml version="1.0" encoding="UTF-8"?>
<svg width="44px" height="39px" viewBox="0 0 44 39" version="1.1" xmlns="http://www.w3.org/2000/svg" xmlns:xlink="http://www.w3.org/1999/xlink">
    <!-- Generator: Sketch 50.2 (55047) - http://www.bohemiancoding.com/sketch -->
    <title>shopping-cart</title>
    <desc>Created with Sketch.</desc>
    <defs></defs>
    <g id="Design" stroke="none" stroke-width="1" fill="none" fill-rule="evenodd">
        <g id="Home-8" transform="translate(-932.000000, -2185.000000)" fill-rule="nonzero">
            <g id="Group-15" transform="translate(932.000000, 2182.000000)">
                <g id="shopping-cart" transform="translate(0.000000, 3.000000)">
                    <path d="M41.5318567,13.6923671 L10.9392068,11.3738281 C10.7713865,11.3577829 10.613438,11.3577829 10.4554895,11.3658055 L9.23138861,6.55222981 C9.20177326,6.4559583 9.17215792,6.35968679 9.12279901,6.27946053 C8.93523517,5.89437447 8.54036392,5.58149205 8.01715952,5.45313003 L2.18293683,4.05719308 C1.28460474,3.84058217 0.336913746,4.25775873 0.0703756533,4.99584034 C-0.196162439,5.72589932 0.317170183,6.49607143 1.22537405,6.71268234 L6.09216219,7.87596313 L11.9461284,30.8046287 C12.054718,31.4785293 12.7654863,32 13.634203,32 L38.8072451,31.9919774 C39.7450643,31.9919774 40.5051914,31.3742352 40.5051914,30.6120857 C40.5051914,29.8499362 39.7450643,29.232194 38.8072451,29.232194 L15.0261242,29.2402166 L14.2166381,26.0712793 L39.2514752,26.0712793 C40.5644221,26.0712793 41.699677,25.3652882 41.9365997,24.3945504 L43.9603149,16.1071776 C44.226853,14.9198289 43.1212135,13.8127065 41.5318567,13.6923671 Z" id="Shape" fill="#FFFFFF"></path>
                    <circle id="Oval" fill="#FFFFFF" cx="16.5" cy="36.5" r="2.5"></circle>
                    <circle id="Oval" fill="#FFFFFF" cx="34.5" cy="36.5" r="2.5"></circle>
                    <path d="M17.7617554,10.3457614 L18.0739155,10.3767473 L19.050416,10.4619583 L23.0684758,10.8260417 L23.2125497,9.33097579 C23.4126523,7.30915095 25.2616001,5.82957798 27.350671,6.01549291 C29.4397419,6.20915429 30.9685256,7.99858547 30.7764271,10.0204103 L30.6323533,11.5154762 L34.6504131,11.8795596 L35.9310696,11.9957564 C36.4033117,12.0422352 36.8275291,11.7013911 36.8675496,11.2443503 L36.9956153,9.91195994 C37.0436399,9.45491908 36.6914594,9.04435694 36.2192173,9.00562467 L34.9385608,8.88942784 C34.8345074,7.85914928 34.5143433,6.88309591 34.0180889,6.00774646 L35.0105977,5.20986156 C35.3787864,4.91549625 35.4268111,4.38873729 35.1226551,4.03240035 L34.2422038,3.00212179 C33.9380479,2.64578484 33.3937689,2.59930611 33.0255801,2.89367141 L32.0250672,3.68380986 C31.2246569,3.05634697 30.296181,2.56832029 29.2716558,2.27395499 L29.3917173,1.03452213 C29.4397419,0.57748127 29.0875614,0.166919137 28.6153193,0.128186861 L27.2386136,0.00424357531 C26.7663715,-0.0422351567 26.342154,0.298608878 26.3021335,0.755649742 L26.1820719,1.99508259 C25.1175262,2.09578651 24.1090092,2.40564473 23.2045456,2.88592496 L22.3801229,1.9253645 C22.075967,1.56902755 21.531688,1.52254882 21.1634993,1.81691412 L20.0989536,2.66902421 C19.7307648,2.96338951 19.6827402,3.49014847 19.9868961,3.84648542 L20.8113187,4.80704588 C20.1629864,5.58169141 19.6587279,6.48028023 19.354572,7.47182651 L18.0739155,7.35562968 C17.6016734,7.30915095 17.1774559,7.64999499 17.1374354,8.10703585 L17.0093697,9.43942617 C16.9373328,9.89646703 17.2895134,10.2992827 17.7617554,10.3457614 Z" id="Shape" fill="#CC6A6C"></path>
                </g>
            </g>
        </g>
    </g>
</svg>