<svg width="71" height="55" viewBox="0 0 71 55" fill="none" xmlns="http://www.w3.org/2000/svg">
<path d="M13.8235 0V6.04118L22.0833 7.05882L37.0588 2.86229L13.8235 0Z" fill="#282625"/>
<path d="M32.3529 8.36833L57.647 11.4706V2.05884L32.3529 8.36833Z" fill="#282625"/>
<path fill-rule="evenodd" clip-rule="evenodd" d="M13.8235 10.2941V43.2353H67.0588V16.9234L13.8235 10.2941ZM33.267 36.9829H30.2714V31.2586L28.4431 35.284H26.8453L25.017 31.2586V36.9829H22.0212V26.1161H25.2935L27.6441 31.2281L30.0101 26.1161H33.267V36.9829ZM40.165 34.8554L40.8257 36.9829H43.8677L40.0883 26.1161H37.3536L33.5588 36.9829H36.6161L37.2614 34.8554H40.165ZM52.1023 36.9829H44.1594V26.1161H47.1553V34.381H52.1023V36.9829ZM52.2251 36.9829H60.168V34.381H55.221V26.1161H52.2251V36.9829Z" fill="#CB2023"/>
<path d="M3.82349 9.11765V43.2353H9.70584V9.85251L3.82349 9.11765Z" fill="#CB2023"/>
<path d="M38.7005 29.4118L37.6471 32.6471H39.7059L38.7005 29.4118Z" fill="#CC1237"/>
<rect y="47.3529" width="70.8824" height="7.64706" fill="#CB2023"/>
</svg>
