<svg xmlns="http://www.w3.org/2000/svg" width="51.119" height="51.119" viewBox="0 0 51.119 51.119">
  <g id="start-up-weibo" transform="translate(-0.001 -0.001)">
    <path id="Path_822" data-name="Path 822" d="M73.308,286.4a1.5,1.5,0,0,0,.279,1.731l.366.366c1.058-1.254,2.291-2.615,3.787-4.11.106-.106.215-.157.321-.254l-2.356-2.356C74.335,284.251,73.537,285.943,73.308,286.4Zm0,0" transform="translate(-65.845 -253.639)" fill="#282625"/>
    <path id="Path_823" data-name="Path 823" d="M166.994,389.883c-1.5,1.5-2.856,2.735-4.1,3.794l.5.5a1.5,1.5,0,0,0,1.744.273c.776-.4,2-.974,4.585-2.416l-2.467-2.467C167.151,389.669,167.1,389.777,166.994,389.883Zm0,0" transform="translate(-146.627 -350.667)" fill="#282625"/>
    <path id="Path_824" data-name="Path 824" d="M73.207,311.764c-1.082-1.082-4.126-.112-5.556,1.317-4.783,4.783-6.943,8.174-7.913,10.177a1.5,1.5,0,0,0,2,2c1.957-.95,5.307-3.1,10.147-7.94,1.572-1.573,2.348-4.525,1.321-5.553Zm0,0" transform="translate(-53.638 -280.219)" fill="#282625"/>
    <path id="Path_825" data-name="Path 825" d="M4.675,167.371.439,171.606a1.5,1.5,0,0,0,1.447,2.506,12.307,12.307,0,0,1,5.66-.525,80.363,80.363,0,0,1,6.2-9.458C12.476,163.315,8.278,163.768,4.675,167.371Zm0,0" transform="translate(0 -147.43)" fill="#282625"/>
    <path id="Path_826" data-name="Path 826" d="M246.464,389.861a1.5,1.5,0,0,0,1.732-.278l4.236-4.236c3.28-3.28,3.857-7.513,3.113-8.855a85.479,85.479,0,0,1-9.465,6.152c.209,1.178.07,2.321-.424,5.66A1.494,1.494,0,0,0,246.464,389.861Zm0,0" transform="translate(-221.114 -338.901)" fill="#282625"/>
    <path id="Path_827" data-name="Path 827" d="M285.957,138.623a4.493,4.493,0,1,0,6.354,0A4.5,4.5,0,0,0,285.957,138.623Zm0,0" transform="translate(-256.223 -123.598)" fill="#282625"/>
    <path id="Path_828" data-name="Path 828" d="M400.088,1.462A1.5,1.5,0,0,0,398.707.081a29.607,29.607,0,0,0-10.933,1.274A12.574,12.574,0,0,0,391.5,8.67a12.534,12.534,0,0,0,7.459,3.719A30.971,30.971,0,0,0,400.088,1.462Zm0,0" transform="translate(-349.057 0)" fill="#282625"/>
    <path id="Path_829" data-name="Path 829" d="M143.247,32.388a15.734,15.734,0,0,1-4.5-8.391c-8.993,3.688-17.6,11.743-24.405,23.058l3.38,3.38c2.309-.938,5.113-1.185,6.891.592s1.528,4.583.591,6.889l3.491,3.491c8.706-5.247,18.841-13.513,23.151-24.511A15.658,15.658,0,0,1,143.247,32.388ZM141.129,45.1a7.488,7.488,0,1,1,0-10.59A7.5,7.5,0,0,1,141.129,45.1Zm0,0" transform="translate(-102.923 -21.599)" fill="#cb2023"/>
  </g>
</svg>
