<svg id="statistics" xmlns="http://www.w3.org/2000/svg" viewBox="0 0 48.186 48.186">
  <defs>
    <style>
      .cls-1 {
        fill: #cb2023;
      }
    </style>
  </defs>
  <path id="Path_761" data-name="Path 761" class="cls-1" d="M35.235,22.587A4.214,4.214,0,0,0,38.167,21.4l4.179,2.089a4.148,4.148,0,0,0-.052.513,4.235,4.235,0,1,0,8.47,0,4.184,4.184,0,0,0-.425-1.814l5.669-5.669a4.184,4.184,0,0,0,1.814.425,4.24,4.24,0,0,0,4.235-4.235,4.171,4.171,0,0,0-.211-1.254l4.925-3.693A4.232,4.232,0,1,0,64.88,4.235a4.172,4.172,0,0,0,.211,1.254L60.166,9.183a4.217,4.217,0,0,0-6.155,5.337l-5.669,5.669a4.162,4.162,0,0,0-4.746.766l-4.179-2.089a4.148,4.148,0,0,0,.052-.513,4.235,4.235,0,1,0-4.235,4.235Zm0,0" transform="translate(-28.083)"/>
  <path id="Path_762" data-name="Path 762" class="cls-1" d="M46.774,181.245H45.268V151.412A1.411,1.411,0,0,0,43.856,150H38.21a1.411,1.411,0,0,0-1.412,1.412v29.834H33.975V159.882a1.411,1.411,0,0,0-1.412-1.412H26.916a1.411,1.411,0,0,0-1.412,1.412v21.364H22.681v-10.07a1.411,1.411,0,0,0-1.412-1.412H15.623a1.411,1.411,0,0,0-1.412,1.412v10.07H11.388V165.529a1.411,1.411,0,0,0-1.412-1.412H4.329a1.411,1.411,0,0,0-1.412,1.412v15.717H1.412a1.412,1.412,0,0,0,0,2.823H46.774a1.412,1.412,0,0,0,0-2.823Zm0,0" transform="translate(0 -135.883)"/>
</svg>
