<?xml version="1.0" encoding="UTF-8"?>
<svg width="80px" height="42px" viewBox="0 0 80 42" version="1.1" xmlns="http://www.w3.org/2000/svg" xmlns:xlink="http://www.w3.org/1999/xlink">
    <!-- Generator: Sketch 50.2 (55047) - http://www.bohemiancoding.com/sketch -->
    <title>sublogo</title>
    <desc>Created with Sketch.</desc>
    <defs></defs>
    <g id="Design" stroke="none" stroke-width="1" fill="none" fill-rule="evenodd">
        <g id="Home-8" transform="translate(-926.000000, -1093.000000)" fill-rule="nonzero">
            <g id="sublogo" transform="translate(926.000000, 1093.000000)">
                <path d="M40.3201043,42 L4.88961385,42 C3.16865363,42 1.58962827,41.1101695 0.702535368,39.6330508 C-0.184557532,38.1559322 -0.237783106,36.340678 0.578342362,34.8101695 L12.4121616,12.4754237 L23.0572764,12.4754237 L13.121836,31.1974576 C12.9444174,31.5355932 13.0686104,31.820339 13.121836,31.9271186 C13.1928034,32.0338983 13.370222,32.2830508 13.7605428,32.2830508 L31.6798194,32.2830508 C31.9991729,32.2830508 32.1765914,32.0694915 32.229817,31.9805085 C32.2830426,31.8915254 32.4072356,31.6423729 32.2653007,31.3576271 L17.7169772,0 L28.0427385,0 L44.5604083,35.3262712 C45.2345989,36.7855932 45.1281478,38.4584746 44.2765386,39.8288136 C43.4071875,41.1991525 41.9346133,42 40.3201043,42 Z M13.6895754,14.6110169 L2.45897931,35.8067797 C1.997691,36.6610169 2.03317472,37.6932203 2.52994674,38.529661 C3.02671876,39.3661017 3.91381166,39.8644068 4.88961385,39.8644068 L40.3378461,39.8644068 C41.224939,39.8644068 42.0055808,39.4372881 42.4846109,38.6898305 C42.9636411,37.9423729 43.0168667,37.0525424 42.6442876,36.2338983 L26.6943573,2.13559322 L21.0524465,2.13559322 L34.1991632,30.4677966 C34.607226,31.3398305 34.5362585,32.3364407 34.0217447,33.1372881 C33.5072308,33.9381356 32.6378797,34.4186441 31.6798194,34.4186441 L13.7605428,34.4186441 C12.7315151,34.4186441 11.8089385,33.8847458 11.2944246,32.9949153 C10.7799107,32.1050847 10.7621688,31.0550847 11.2589409,30.1474576 L19.5089048,14.5932203 L13.6895754,14.5932203 L13.6895754,14.6110169 Z" id="simbal_1" fill="#CB2023"></path>
                <path d="M62.265281,42 L51.9395196,42 L35.4395917,6.67372881 C34.7654011,5.21440678 34.8718522,3.54152542 35.7234614,2.17118644 C36.5928125,0.818644068 38.0653867,0 39.6621539,0 L75.1103861,0 C76.8313464,0 78.4103717,0.889830508 79.2974646,2.36694915 C80.1845575,3.8440678 80.2377831,5.65932203 79.4216576,7.18983051 L67.5878384,29.5245763 L56.9427236,29.5245763 L66.878164,10.8025424 C67.0555826,10.4644068 66.9313896,10.179661 66.878164,10.0728814 C66.8071966,9.96610169 66.629778,9.71694915 66.2394572,9.71694915 L48.3201806,9.71694915 C48.0008271,9.71694915 47.8234086,9.93050847 47.770183,10.0194915 C47.7169574,10.1084746 47.5927644,10.3576271 47.7346993,10.6423729 L62.265281,42 Z M53.2879008,39.8644068 L58.9298117,39.8644068 L45.7830949,11.5322034 C45.3750322,10.6601695 45.4459996,9.66355932 45.9605135,8.86271186 C46.4750274,8.06186441 47.3443784,7.58135593 48.3024387,7.58135593 L66.2217153,7.58135593 C67.2507431,7.58135593 68.1733197,8.11525424 68.6878336,9.00508475 C69.2023474,9.89491525 69.2200893,10.9449153 68.7233173,11.8525424 L60.4733533,27.4067797 L66.2926827,27.4067797 L77.5232788,6.21101695 C77.9845671,5.35677966 77.9490834,4.32457627 77.4523114,3.48813559 C76.9555394,2.65169492 76.0684465,2.15338983 75.0926443,2.15338983 L39.6621539,2.15338983 C38.775061,2.15338983 37.9944192,2.58050847 37.5153891,3.3279661 C37.0363589,4.07542373 36.9831333,4.96525424 37.3557124,5.78389831 L53.2879008,39.8644068 Z" id="simbal_2" fill="#3D3C3B"></path>
            </g>
        </g>
    </g>
</svg>