<?xml version="1.0" encoding="UTF-8"?>
<svg width="43px" height="35px" viewBox="0 0 43 35" version="1.1" xmlns="http://www.w3.org/2000/svg" xmlns:xlink="http://www.w3.org/1999/xlink">
    <!-- Generator: Sketch 50.2 (55047) - http://www.bohemiancoding.com/sketch -->
    <title>support</title>
    <desc>Created with Sketch.</desc>
    <defs></defs>
    <g id="Design" stroke="none" stroke-width="1" fill="none" fill-rule="evenodd">
        <g id="Home-8" transform="translate(-595.000000, -2980.000000)" fill-rule="nonzero">
            <g id="Group-18" transform="translate(595.000000, 2977.000000)">
                <g id="support" transform="translate(0.000000, 3.000000)">
                    <path d="M39.8174342,0 L10.3492325,0 C8.58114035,0 7.16666667,1.45327484 7.16666667,3.18149357 L7.16666667,21.484901 C7.16666667,23.2523975 8.62043129,24.6663946 10.3492325,24.6663946 L30.6626462,24.6663946 L35.2596857,29.301163 C35.4561404,29.4975515 35.691886,29.6153846 35.9669225,29.6153846 C36.5169956,29.6153846 36.9884868,29.1833299 36.9884868,28.5941645 L36.9884868,24.6663946 L39.8174342,24.6663946 C41.5855263,24.6663946 43,23.2131198 43,21.484901 L43,3.18149357 C43,1.41399714 41.5462354,0 39.8174342,0 Z" id="Shape" fill="#CB2023"></path>
                    <path d="M5.25028216,21.57277 L5.25028216,15.2564103 L2.06193404,15.2564103 C0.934347508,15.2564103 0.00117244735,16.209823 0.00117244735,17.3618635 L0.00117244735,29.5178765 C-0.0377098468,30.749368 0.895465214,31.7027808 2.06193404,31.7027808 L3.88940187,31.7027808 L3.88940187,34.3246659 C3.88940187,34.6821957 4.20046022,35 4.55040087,35 C4.74481234,35 4.90034152,34.9205489 5.0169884,34.8013723 L8.01092505,31.7425063 L21.2309051,31.7425063 C22.3584916,31.7425063 23.2916667,30.7890935 23.2916667,29.6370531 L23.2916667,26.6179126 L10.1883335,26.6179126 C7.46657293,26.6179126 5.25028216,24.3535572 5.25028216,21.57277 Z" id="Shape" fill="#3D3C3B"></path>
                </g>
            </g>
        </g>
    </g>
</svg>