<svg xmlns="http://www.w3.org/2000/svg" width="46.752" height="46.752" viewBox="0 0 46.752 46.752">
  <g id="teamwork-weibo" transform="translate(0 -0.005)">
    <g id="Group_316" data-name="Group 316" transform="translate(17.531 0.005)">
      <g id="Group_315" data-name="Group 315">
        <circle id="Ellipse_50" data-name="Ellipse 50" cx="5.844" cy="5.844" r="5.844" fill="#cb2023"/>
      </g>
    </g>
    <g id="Group_318" data-name="Group 318" transform="translate(14.609 14.615)">
      <g id="Group_317" data-name="Group 317">
        <path id="Path_830" data-name="Path 830" d="M177.521,172.967l-1.327-10.332a2.911,2.911,0,0,0-2.9-2.63h-1.6a1.471,1.471,0,0,0-1.034.427l-1.888,1.888-1.888-1.888a1.471,1.471,0,0,0-1.034-.427h-1.6a2.9,2.9,0,0,0-2.9,2.592l-1.329,10.373a1.464,1.464,0,0,0,1.449,1.645h1.578l1.221,14.9a2.912,2.912,0,0,0,2.907,2.63h3.2a2.921,2.921,0,0,0,2.91-2.656l1.218-14.876h1.575a1.457,1.457,0,0,0,1.1-.5A1.439,1.439,0,0,0,177.521,172.967Z" transform="translate(-160.001 -160.005)" fill="#cb2023"/>
      </g>
    </g>
    <g id="Group_320" data-name="Group 320" transform="translate(32.141 0.005)">
      <g id="Group_319" data-name="Group 319">
        <circle id="Ellipse_51" data-name="Ellipse 51" cx="5.844" cy="5.844" r="5.844" fill="#282625"/>
      </g>
    </g>
    <g id="Group_322" data-name="Group 322" transform="translate(2.921 0.005)">
      <g id="Group_321" data-name="Group 321">
        <path id="Path_831" data-name="Path 831" d="M37.843,0a5.844,5.844,0,1,0,5.844,5.844A5.85,5.85,0,0,0,37.843,0Z" transform="translate(-31.999 -0.005)" fill="#282625"/>
      </g>
    </g>
    <g id="Group_324" data-name="Group 324" transform="translate(32.512 14.615)">
      <g id="Group_323" data-name="Group 323">
        <path id="Path_832" data-name="Path 832" d="M370.29,172.967l-1.327-10.329a2.909,2.909,0,0,0-2.9-2.633h-1.6a1.471,1.471,0,0,0-1.034.427l-1.888,1.888-1.888-1.888a1.47,1.47,0,0,0-1.031-.427h-1.6a2.785,2.785,0,0,0-.517.1,5.686,5.686,0,0,1,.76,2.2l1.324,10.3a4.372,4.372,0,0,1-1.069,3.465,4.235,4.235,0,0,1-1.449,1.029l.97,9.505a2.911,2.911,0,0,0,2.907,2.63h3.2a2.921,2.921,0,0,0,2.91-2.656l1.216-11.954h1.575a1.457,1.457,0,0,0,1.1-.5A1.439,1.439,0,0,0,370.29,172.967Z" transform="translate(-356.063 -160.005)" fill="#282625"/>
      </g>
    </g>
    <g id="Group_326" data-name="Group 326" transform="translate(-0.001 14.615)">
      <g id="Group_325" data-name="Group 325">
        <path id="Path_833" data-name="Path 833" d="M12.78,176.047a4.376,4.376,0,0,1-1.058-3.445l1.329-10.376a5.4,5.4,0,0,1,.728-2.127,2.749,2.749,0,0,0-.491-.094h-1.6a1.471,1.471,0,0,0-1.034.427l-1.888,1.888-1.888-1.888A1.47,1.47,0,0,0,5.846,160h-1.6a2.9,2.9,0,0,0-2.9,2.592L.011,172.97a1.464,1.464,0,0,0,1.449,1.645H3.038l1.221,11.98a2.912,2.912,0,0,0,2.907,2.63h3.2a2.921,2.921,0,0,0,2.91-2.656l.97-9.482A4.382,4.382,0,0,1,12.78,176.047Z" transform="translate(0.001 -160.005)" fill="#282625"/>
      </g>
    </g>
  </g>
</svg>
