<?xml version="1.0" encoding="UTF-8"?>
<svg width="82px" height="31px" viewBox="0 0 82 31" version="1.1" xmlns="http://www.w3.org/2000/svg" xmlns:xlink="http://www.w3.org/1999/xlink">
    <!-- Generator: Sketch 52.2 (67145) - http://www.bohemiancoding.com/sketch -->
    <title>telegram</title>
    <desc>Created with Sketch.</desc>
    <defs>
        <linearGradient x1="50%" y1="0%" x2="50%" y2="100%" id="linearGradient-1">
            <stop stop-color="#61A8DE" offset="0%"></stop>
            <stop stop-color="#88CCFF" offset="100%"></stop>
        </linearGradient>
    </defs>
    <g id="Design" stroke="none" stroke-width="1" fill="none" fill-rule="evenodd">
        <g id="wechat" transform="translate(-1278.000000, -874.000000)">
            <g id="telegram" transform="translate(1278.000000, 874.000000)">
                <g fill="#61A8DE" fill-rule="nonzero" id="XMLID_497_">
                    <path d="M0.529889175,12.4669055 L7.44249823,15.0350523 L10.1181017,23.6002199 C10.289302,24.148788 10.9632028,24.3515522 11.4105034,23.9875323 L15.2637085,20.8607638 C15.667609,20.5331758 16.2429097,20.5168512 16.6650103,20.8218435 L23.6148194,25.8443621 C24.09332,26.1905642 24.7712209,25.9295689 24.8912211,25.3540253 L29.9823277,0.977434997 C30.1133279,0.348736742 29.4927271,-0.175742533 28.8913263,0.0557888384 L0.521789165,10.9496086 C-0.178311752,11.2183681 -0.172211744,12.2050143 0.529889175,12.4669055 Z M9.68690116,13.6679621 L23.1967189,5.3854897 C23.4395192,5.2370747 23.6893195,5.5638664 23.4808192,5.75637787 L12.3313046,16.0727628 C11.9394041,16.4358868 11.6866038,16.9218439 11.6150037,17.4493094 L11.2352032,20.2509783 C11.1849031,20.6250518 10.6570024,20.6621804 10.5533023,20.3001513 L9.09260039,15.1912315 C8.92530017,14.608521 9.16910049,13.9860938 9.68690116,13.6679621 Z"></path>
                </g>
                <g id="Combined-Shape-2-Copy-2" transform="translate(56.000000, 6.000000)" fill="url(#linearGradient-1)">
                    <path d="M6.26882743,4.05833333 C5.14814962,4.05833333 4.23966076,3.14984447 4.23966076,2.02916667 C4.23966076,0.908488862 5.14814962,-3.10862447e-13 6.26882743,-3.10862447e-13 C7.38950523,-3.10862447e-13 8.29799409,0.908488862 8.29799409,2.02916667 C8.29799409,3.14984447 7.38950523,4.05833333 6.26882743,4.05833333 Z M12.5299385,13.0074074 C12.6915126,14.3856481 10.53642,14.3689815 10.3748459,13.0064815 C10.1790126,11.3393519 9.89475335,9.66435185 9.0341052,8.25416667 C9.0341052,8.70046296 9.03317928,9.34212963 9.03225335,10.0601852 L8.94104965,17.5837963 C8.94104965,19.5782407 8.94104965,21.5736111 8.94104965,23.5685185 C8.94104965,24.9574074 6.78734595,24.9574074 6.78734595,23.5685185 C6.78734595,21.574537 6.78734595,17.0212963 6.78734595,15.0263889 L5.73271632,15.0263889 L5.73271632,23.5412037 C5.73271632,24.1814815 5.19799409,24.7013889 4.5391978,24.7013889 C3.87993854,24.7013889 3.41049409,24.1814815 3.41049409,23.5412037 L3.41049409,17.5842593 L3.42530891,10.075463 L3.42901261,8.51296296 C2.62577187,9.89768519 2.35354965,11.5236111 2.16280891,13.1421296 C2.00262372,14.5037037 -0.152931832,14.5203704 0.00864224172,13.1421296 C0.328086686,10.4300926 0.794753353,7.62222222 2.81558669,5.78287037 C5.93271632,3.51574074 8.89382743,5.29583333 8.89382743,5.29583333 C8.89382743,5.29583333 11.9577163,6.57824074 12.5299385,13.0074074 Z M19.2688274,4.05833333 C18.1481496,4.05833333 17.2396608,3.14984447 17.2396608,2.02916667 C17.2396608,0.908488862 18.1481496,-3.10862447e-13 19.2688274,-3.10862447e-13 C20.3895052,-3.10862447e-13 21.2979941,0.908488862 21.2979941,2.02916667 C21.2979941,3.14984447 20.3895052,4.05833333 19.2688274,4.05833333 Z M25.5299385,13.0074074 C25.6915126,14.3856481 23.53642,14.3689815 23.3748459,13.0064815 C23.1790126,11.3393519 22.8947534,9.66435185 22.0341052,8.25416667 C22.0341052,8.70046296 22.0331793,9.34212963 22.0322534,10.0601852 L21.9410496,17.5837963 C21.9410496,19.5782407 21.9410496,21.5736111 21.9410496,23.5685185 C21.9410496,24.9574074 19.7873459,24.9574074 19.7873459,23.5685185 C19.7873459,21.574537 19.7873459,17.0212963 19.7873459,15.0263889 L18.7327163,15.0263889 L18.7327163,23.5412037 C18.7327163,24.1814815 18.1979941,24.7013889 17.5391978,24.7013889 C16.8799385,24.7013889 16.4104941,24.1814815 16.4104941,23.5412037 L16.4104941,17.5842593 L16.4253089,10.075463 L16.4290126,8.51296296 C15.6257719,9.89768519 15.3535496,11.5236111 15.1628089,13.1421296 C15.0026237,14.5037037 12.8470682,14.5203704 13.0086422,13.1421296 C13.3280867,10.4300926 13.7947534,7.62222222 15.8155867,5.78287037 C18.9327163,3.51574074 21.8938274,5.29583333 21.8938274,5.29583333 C21.8938274,5.29583333 24.9577163,6.57824074 25.5299385,13.0074074 Z" id="Combined-Shape"></path>
                </g>
            </g>
        </g>
    </g>
</svg>