<?xml version="1.0" encoding="UTF-8"?>
<svg width="24px" height="20px" viewBox="0 0 24 20" version="1.1" xmlns="http://www.w3.org/2000/svg" xmlns:xlink="http://www.w3.org/1999/xlink">
    <!-- Generator: Sketch 50.2 (55047) - http://www.bohemiancoding.com/sketch -->
    <title>Shape</title>
    <desc>Created with Sketch.</desc>
    <defs></defs>
    <g id="Design" stroke="none" stroke-width="1" fill="none" fill-rule="evenodd">
        <g id="Home-8" transform="translate(-565.000000, -6535.000000)" fill="#FFFFFF" fill-rule="nonzero">
            <g id="Group-10" transform="translate(0.000000, 5544.000000)">
                <g id="footer-line" transform="translate(0.000000, 968.000000)">
                    <g id="Group-4" transform="translate(565.000000, 22.000000)">
                        <g id="telegram" transform="translate(0.000000, 1.000000)">
                            <path d="M22.216248,0.0780746509 L0.50429155,8.53899297 C-0.198962306,8.81307033 -0.156358132,9.8222478 0.567556612,10.0359811 L6.08479721,11.665199 L8.14383273,18.1987415 C8.3589197,18.8811919 9.22375594,19.0880858 9.72439061,18.5769069 L12.5769467,15.6642918 L18.1739098,19.7726024 C18.8588539,20.2753744 19.8343327,19.9018398 20.0082404,19.0702034 L23.7151598,1.34743682 C23.8966906,0.479323331 23.0426123,-0.243950213 22.216248,0.0780746509 Z M19.4941405,4.01119515 L9.40906272,12.9294315 C9.30853682,13.0183446 9.24455932,13.1413837 9.22959798,13.2747533 L8.84131579,16.7264039 C8.82863428,16.8389701 8.67111283,16.8538602 8.63748545,16.7457111 L7.0399714,11.5980867 C6.96680336,11.3624101 7.06219966,11.10707 7.27187205,10.9770489 L19.1813062,3.59071047 C19.4551698,3.42072124 19.7355879,3.79774681 19.4941405,4.01119515 Z" id="Shape"></path>
                        </g>
                    </g>
                </g>
            </g>
        </g>
    </g>
</svg>