<?xml version="1.0" encoding="UTF-8"?>
<svg width="18px" height="15px" viewBox="0 0 18 15" version="1.1" xmlns="http://www.w3.org/2000/svg" xmlns:xlink="http://www.w3.org/1999/xlink">
    <!-- Generator: Sketch 50.2 (55047) - http://www.bohemiancoding.com/sketch -->
    <title>Shape</title>
    <desc>Created with Sketch.</desc>
    <defs></defs>
    <g id="Design" stroke="none" stroke-width="1" fill="none" fill-rule="evenodd">
        <g id="Home-8" transform="translate(-388.000000, -41.000000)" fill="#FFFFFF" fill-rule="nonzero">
            <path d="M404.844816,41.058556 L388.382364,47.4042447 C387.849143,47.6098027 387.881446,48.3666859 388.430333,48.5269858 L392.613618,49.7488992 L394.174821,54.6490561 C394.337905,55.160894 394.993641,55.3160643 395.373233,54.9326802 L397.5361,52.7482188 L401.779832,55.8294518 C402.299171,56.2065308 403.038799,55.9263798 403.170659,55.3026526 L405.981322,42.0105776 C406.118962,41.3594925 405.471382,40.8170373 404.844816,41.058556 Z M402.780858,44.0083964 L395.134145,50.6970736 C395.057924,50.7637584 395.009415,50.8560378 394.998071,50.956065 L394.703667,53.5448029 C394.694052,53.6292276 394.574616,53.6403951 394.549119,53.5592833 L393.337851,49.698565 C393.282374,49.5218076 393.354705,49.3303025 393.513683,49.2327867 L402.543661,43.6930329 C402.75131,43.5655409 402.963929,43.8483101 402.780858,44.0083964 Z" id="Shape"></path>
        </g>
    </g>
</svg>