<svg width="131" height="70" viewBox="0 0 131 70" fill="none" xmlns="http://www.w3.org/2000/svg">
<g clip-path="url(#clip0)">
<path d="M54.4452 15.616C55.477 10.436 60.0463 6.736 65.3527 6.736C69.7747 6.736 73.7544 9.4 75.5232 13.248C75.5232 13.248 75.6706 13.396 75.6706 13.248C76.9972 12.952 78.6186 12.656 80.0926 12.804C80.24 12.804 80.24 12.656 80.24 12.656C78.1764 6.44 72.2804 2 65.5001 2C57.5406 2 51.055 7.772 49.8758 15.468C47.37 15.912 45.0117 17.096 43.3903 18.872C38.8209 23.608 38.8209 31.008 43.5377 35.596C45.4538 37.52 47.6648 38.408 50.1706 38.852C51.055 39 52.3816 39 53.5608 39H75.9654C77.7342 39 78.766 39 79.9452 38.852C82.7458 38.704 85.2515 37.668 87.4625 35.596C92.1793 31.008 92.1793 23.46 87.6099 18.872C85.3989 16.652 82.451 15.32 79.2082 15.32C76.4076 15.32 73.9018 16.356 71.6908 18.132C70.8065 18.872 69.7747 19.76 68.5955 20.944C68.1533 21.388 60.0463 29.232 54.74 34.412H51.9394C49.2862 34.264 47.6648 33.228 46.7804 32.34C43.9799 29.528 43.8325 24.94 46.633 22.128C47.9596 20.796 49.7284 20.056 51.792 19.908C52.9712 19.908 54.74 20.204 56.6562 21.832C57.5406 22.572 59.6041 24.348 60.4885 25.236H60.6359L63.7313 22.128V21.98C62.2573 20.648 60.0463 18.724 58.7197 17.688C57.5406 16.652 56.0666 15.912 54.4452 15.616ZM84.0723 32.34C83.188 33.228 81.5666 34.264 78.9134 34.412H61.2255C66.3845 29.38 70.9538 24.94 71.396 24.496C71.8382 24.052 72.87 23.016 73.9018 22.128C75.9654 20.352 77.7342 19.908 78.9134 19.908C80.977 19.908 82.7458 20.796 84.0723 22.128C87.0203 24.94 87.0203 29.528 84.0723 32.34Z" fill="#628EFF"/>
</g>
<path d="M90.6 65.1C90.6 65 90.5 65 90.4 65C89.2 66.3 87.5 67.4 85.2 67.4C81.9 67.4 79.7 65.1 79.7 61.5C79.7 57.9 81.7 55.6 85 55.6C86.9 55.6 88.9 56.5 90.1 57.8C90.2 57.9 90.3 57.8 90.3 57.7V55.9C89 54.7 87 54 85 54C82.9 54 81.2 54.7 79.9 56.1C78.7 57.5 78 59.4 78 61.6C78 66.1 80.9 69.2 85.1 69.2C87.1 69.2 89.1 68.4 90.5 67.2V65.1H90.6Z" fill="#313131"/>
<path d="M0 54.3V55.9H5V68.7H6.7V55.9H11.7V54.3H0Z" fill="#313131"/>
<path d="M128.7 59.3C127.8 58.3 126.3 58 125.2 58C123.8 58 122.5 58.5 121.6 59.5C120.7 60.5 120.2 61.9 120.2 63.5C120.2 67.3 122.7 69.1 125.3 69.1C126.8 69.1 128 68.6 128.7 67.6V68.8H130.4V54.4H128.7V59.3ZM128.6 63.5C128.6 65.5 127.5 67.5 125.3 67.5C123.7 67.5 121.9 66.3 121.9 63.6C121.9 61.6 122.9 59.5 125.2 59.5C127.7 59.5 128.6 61.7 128.6 63.5Z" fill="#313131"/>
<path d="M92.7998 54.4H94.4998V68.8H92.7998V54.4Z" fill="#313131"/>
<path d="M42.7002 66.1C42.7002 66 42.6002 66 42.5002 66C41.4002 67 39.7002 67.4 39.0002 67.4C36.7002 67.4 35.2002 65.9 35.2002 63.5C35.2002 61.1 36.7002 59.6 39.0002 59.6C39.7002 59.6 41.3002 59.8 42.5002 60.8C42.6002 60.9 42.7002 60.8 42.7002 60.7V59.1C42.0002 58.7 40.5002 58 39.0002 58C35.8002 58 33.7002 60.2 33.7002 63.5C33.7002 66.8 35.8002 69 39.0002 69C40.3002 69 41.6002 68.6 42.7002 67.9V66.1Z" fill="#313131"/>
<path d="M20.1004 65.8C20.1004 65.7 20.0004 65.7 19.9004 65.7C19.1004 66.7 17.3004 67.5 16.2004 67.5C15.1004 67.5 14.1004 67.1 13.6004 66.6C12.9004 65.9 12.6004 65 12.6004 64H20.7004V63.9C20.7004 61.6 20.3004 60.3 19.3004 59.3C18.5004 58.4 17.3004 58 15.9004 58C12.9004 58 10.9004 60.2 10.9004 63.5C11.0004 67 13.0004 69.1 16.2004 69.1C17.7004 69.1 19.0004 68.6 20.2004 67.6L20.1004 65.8ZM19.0004 62.5H12.6004C12.7004 61.6 13.1004 60.8 13.8004 60.2C14.4004 59.7 15.1004 59.5 15.9004 59.5C17.7004 59.5 18.9004 60.6 19.0004 62.5Z" fill="#313131"/>
<path d="M116.5 63.6C116.5 66.5 114.8 67.5 113.4 67.5C112 67.5 110.6 66.6 110.6 64.8V58.2H109V64.7C109 67.2 110.8 69 113.4 69C114.8 69 115.9 68.5 116.7 67.6V68.8H118.3V58.2H116.6L116.5 63.6Z" fill="#313131"/>
<path d="M27.3996 58C26.0996 58 24.9996 58.4 24.1996 59.2V58.2H22.5996V68.8H24.2996V62.8C24.2996 61.8 24.5996 61 25.1996 60.4C25.7996 59.8 26.4996 59.5 27.3996 59.6C28.6996 59.6 29.9996 60.5 29.9996 62.3V68.8H31.6996V62.2C31.6996 60.9 31.2996 59.8 30.4996 59.1C29.6996 58.3 28.5996 58 27.3996 58Z" fill="#313131"/>
<path d="M53.4998 65.8C53.4998 65.7 53.3998 65.7 53.2998 65.7C52.4998 66.7 50.6998 67.5 49.5998 67.5C48.4998 67.5 47.4998 67.1 46.9998 66.6C46.2998 65.9 45.9998 65 45.9998 64H54.0998V63.9C54.0998 61.6 53.6998 60.3 52.6998 59.3C51.8998 58.4 50.6998 58 49.2998 58C46.2998 58 44.2998 60.2 44.2998 63.5C44.3998 67 46.3998 69.1 49.5998 69.1C51.0998 69.1 52.3998 68.6 53.5998 67.6V65.8H53.4998ZM52.3998 62.5H45.9998C46.0998 61.6 46.4998 60.8 47.1998 60.2C47.7998 59.7 48.4998 59.5 49.2998 59.5C51.0998 59.5 52.2998 60.6 52.3998 62.5Z" fill="#313131"/>
<path d="M60.7004 58C59.4004 58 58.3004 58.4 57.5004 59.2V58.2H55.9004V68.8H57.6004V62.8C57.6004 61.8 57.9004 61 58.5004 60.4C59.1004 59.8 59.8004 59.5 60.7004 59.6C62.0004 59.6 63.3004 60.5 63.3004 62.3V68.8H65.0004V62.2C65.0004 60.9 64.6004 59.8 63.8004 59.1C63.0004 58.3 62.0004 58 60.7004 58Z" fill="#313131"/>
<path d="M70.4002 68.9C71.4002 68.8 72.6002 68.4 72.6002 68.4V66.8C72.6002 66.7 72.5002 66.7 72.5002 66.7C72.1002 66.8 71.2002 67.1 70.7002 67.2C70.5002 67.2 70.4002 67.3 70.3002 67.2C70.2002 67.1 70.2002 67 70.2002 66.9V59.8H73.2002V58.2H70.2002V55.4H68.4002V58.2H66.7002V59.7H68.4002V67C68.4002 67.6 68.6002 68.1 69.0002 68.4C69.3002 68.7 69.8002 68.9 70.4002 68.9Z" fill="#313131"/>
<path d="M102 58C98.9004 58 96.9004 60.2 96.9004 63.5C96.9004 66.8 99.0004 69 102 69C105.1 69 107.1 66.8 107.1 63.5C107.1 60.2 105 58 102 58ZM98.4004 63.5C98.4004 61.2 99.8004 59.6 101.9 59.6C104 59.6 105.4 61.2 105.4 63.5C105.4 65.8 104 67.4 101.9 67.4C99.9004 67.4 98.4004 65.8 98.4004 63.5Z" fill="#313131"/>
<defs>
<clipPath id="clip0">
<rect width="51" height="37" fill="white" transform="translate(40 2)"/>
</clipPath>
</defs>
</svg>
