<svg width="35" height="35" viewBox="0 0 35 35" fill="none" xmlns="http://www.w3.org/2000/svg">
<g clip-path="url(#clip0)">
<path d="M15.7925 24.9565C15.3401 25.1183 14.8636 25.2033 14.3831 25.2078C13.9774 25.208 13.5742 25.1477 13.1865 25.0291L14.412 25.8249L15.7925 24.9743V24.9565Z" fill="#CC1237"/>
<path d="M12.1329 16.6472C11.7228 17.1149 11.4685 17.6993 11.4062 18.3184C11.9262 18.2445 12.4141 18.0227 12.8123 17.6798C12.47 17.4275 12.2291 17.0615 12.1329 16.6472Z" fill="#CC1237"/>
<path d="M14.9395 26.8157V29.2728H19.9191V27.7105C19.9213 27.2209 19.729 26.7504 19.3839 26.4031C19.0391 26.0555 18.5703 25.8595 18.0806 25.8582H16.4967L14.9395 26.8157Z" fill="#CC1237"/>
<path d="M14.3696 24.0694C15.9816 24.0694 17.3574 22.6756 17.3574 21.026V18.033H14.0684C13.1467 19.1 12.0932 19.4021 11.3818 19.4629V21.0263C11.3818 22.6756 12.7576 24.0694 14.3696 24.0694ZM15.2722 19.7667C15.5865 19.7667 15.8413 20.0215 15.8413 20.3358C15.8413 20.3555 15.8572 20.3713 15.8769 20.3713C15.8966 20.3713 15.9125 20.3555 15.9125 20.3358C15.9125 20.0215 16.1673 19.7667 16.4816 19.7667C16.7958 19.7667 17.0507 20.0215 17.0507 20.3358C17.0507 20.9841 16.5252 21.5096 15.8769 21.5096C15.2286 21.5096 14.7031 20.9841 14.7031 20.3358C14.7031 20.0215 14.9579 19.7667 15.2722 19.7667ZM11.6797 20.3358C11.6797 20.0215 11.9345 19.7667 12.2488 19.7667C12.5631 19.7667 12.8179 20.0215 12.8179 20.3358C12.8179 20.3555 12.8338 20.3713 12.8535 20.3713C12.8732 20.3713 12.8891 20.3555 12.8891 20.3358C12.8891 20.0215 13.1439 19.7667 13.4582 19.7667C13.7725 19.7667 14.0273 20.0215 14.0273 20.3358C14.0273 20.9841 13.5018 21.5096 12.8535 21.5096C12.2052 21.5096 11.6797 20.9841 11.6797 20.3358Z" fill="#CC1237"/>
<path d="M29.8018 20.608C30.7816 20.608 31.5791 19.8488 31.5791 18.9157C31.5791 17.9826 30.7816 17.2234 29.8018 17.2234C28.8217 17.2234 28.0244 17.9826 28.0244 18.9157C28.0244 19.8488 28.8217 20.608 29.8018 20.608Z" fill="#CC1237"/>
<path d="M13.8668 16.8947H18.1209C17.8803 16.1122 17.1814 15.6143 16.3589 15.6143H13.8668C13.5133 15.6143 13.2266 15.901 13.2266 16.2545C13.2266 16.6082 13.5133 16.8947 13.8668 16.8947Z" fill="#CC1237"/>
<path d="M32.152 10.2789H18.0082L20.6131 5.07279C20.7971 5.11391 20.9849 5.13448 21.1733 5.13392C22.5291 5.13392 23.6323 4.06157 23.6323 2.74468C23.6323 1.42751 22.5294 0.355713 21.1733 0.355713C19.817 0.355713 18.7141 1.42695 18.7141 2.74384C18.7169 3.47885 19.062 4.1705 19.6472 4.61483L17.1443 9.61341L14.6467 4.62484C15.1875 4.17884 15.5015 3.51553 15.5037 2.8147C15.5037 1.49781 14.4008 0.426295 13.0444 0.426295C11.6883 0.426295 10.5854 1.49781 10.5854 2.8147C10.5854 4.13187 11.6886 5.20339 13.0447 5.20339C13.2656 5.2045 13.486 5.17672 13.6997 5.12031L16.2806 10.2789H2.84831C1.25826 10.2789 0 11.5261 0 13.0686V31.7755C0.00611344 33.3436 1.28021 34.6107 2.84831 34.6082H32.152C33.7198 34.6107 34.9939 33.3436 35 31.7755V13.0686C35 11.5261 33.7417 10.2789 32.152 10.2789ZM29.8019 16.1567C31.3703 16.1567 32.6463 17.3947 32.6463 18.9161C32.6463 20.4378 31.3703 21.6752 29.8019 21.6752C28.2335 21.6752 26.9575 20.4375 26.9575 18.9158C26.9575 17.3944 28.2335 16.1567 29.8019 16.1567ZM25.6098 31.656C25.6098 31.9508 25.3708 32.1895 25.0762 32.1895H3.23679C2.94223 32.1895 2.70325 31.9508 2.70325 31.656V13.5869C2.70325 13.2923 2.94223 13.0533 3.23679 13.0533H25.0762C25.3708 13.0533 25.6098 13.2923 25.6098 13.5869V31.656ZM32.152 29.6997H27.4518C27.157 29.6997 26.9183 29.461 26.9183 29.1661C26.9183 28.8716 27.157 28.6326 27.4518 28.6326H32.152C32.4465 28.6326 32.6855 28.8716 32.6855 29.1661C32.6855 29.461 32.4465 29.6997 32.152 29.6997ZM32.152 25.218H27.4518C27.157 25.218 26.9183 24.9793 26.9183 24.6844C26.9183 24.3899 27.157 24.1509 27.4518 24.1509H32.152C32.4465 24.1509 32.6855 24.3899 32.6855 24.6844C32.6855 24.9793 32.4465 25.218 32.152 25.218Z" fill="#CC1237"/>
<path d="M13.8003 26.8077L12.3692 25.8582H10.8014C10.3118 25.8595 9.84297 26.0555 9.49811 26.4031C9.15298 26.7504 8.96069 27.2209 8.96291 27.7105V29.2728H13.8003V26.8077Z" fill="#CC1237"/>
<path d="M3.77051 31.1224H24.5429V14.1204H3.77051V31.1224ZM7.82539 27.7105C7.82122 26.0624 9.15422 24.7233 10.8021 24.72H11.9514V24.414C11.8091 24.2795 11.6004 24.1295 11.4384 23.963C10.6706 23.1785 10.2419 22.1237 10.2441 21.026V18.6073C10.2527 16.9192 11.2867 15.4061 12.8565 14.7851C13.1541 14.5822 13.5067 14.4744 13.8669 14.4761H16.3589C18.009 14.4774 19.3467 15.8146 19.3487 17.465C19.3487 17.6159 19.2886 17.7604 19.1819 17.8671C19.0752 17.9735 18.9304 18.0332 18.7796 18.033H18.4961V21.026C18.4986 22.1237 18.0698 23.1785 17.302 23.963C17.1826 24.0858 17.0022 24.1989 16.9311 24.3045V24.72H18.0804C19.7283 24.7233 21.0613 26.0624 21.0571 27.7105V29.85C21.0596 29.9989 21.0021 30.1423 20.8973 30.2479C20.7923 30.3535 20.6494 30.4124 20.5005 30.411H8.38199C8.23304 30.4124 8.09021 30.3535 7.98517 30.2479C7.88041 30.1423 7.82288 29.9989 7.82539 29.85V27.7105Z" fill="#CC1237"/>
</g>
<defs>
<clipPath id="clip0">
<rect width="35" height="35" fill="white"/>
</clipPath>
</defs>
</svg>
