<svg width="37" height="37" viewBox="0 0 37 37" fill="none" xmlns="http://www.w3.org/2000/svg">
<g clip-path="url(#clip0)">
<path d="M10.9408 14.9913H12.121V7.97407C12.123 7.27029 12.693 6.70028 13.3968 6.69821H16.9629C17.3009 6.69844 17.6248 6.83398 17.8623 7.07459L19.3998 8.612H23.6037C24.3075 8.61407 24.8775 9.18409 24.8796 9.88787V14.9913H27.6163C29.7038 14.9913 31.396 13.2991 31.396 11.2116C31.396 9.12408 29.7038 7.43183 27.6163 7.43183H27.5716C26.9098 5.56816 25.1476 4.3219 23.1699 4.31873C23.1082 4.31756 23.0464 4.31969 22.9849 4.32511C22.0641 1.91044 19.7469 0.316018 17.1626 0.318851C14.5783 0.321685 12.2646 1.92119 11.3491 4.33787C11.2151 4.32511 11.0811 4.31873 10.9408 4.31873C7.99363 4.31873 5.60449 6.70787 5.60449 9.65502C5.60449 12.6022 7.99363 14.9913 10.9408 14.9913Z" fill="#CB2023"/>
<path d="M5.10352 28.3879V36.6811H11.4828V32.2155H8.9311C8.22732 32.2135 7.65731 31.6435 7.65524 30.9397V28.3879H5.10352Z" fill="#CB2023"/>
<path d="M3.43214 30.3015H3.82766V28.3877C3.82972 27.6839 4.39974 27.1139 5.10352 27.1118H8.29317C8.34745 27.1104 8.40152 27.1191 8.45266 27.1373C8.48382 27.1398 8.51417 27.1485 8.54197 27.1628C8.61809 27.1938 8.68744 27.2393 8.7461 27.2968L11.7508 30.3015H14.1558C15.3038 30.2844 16.2883 29.4776 16.5307 28.3552C16.773 27.2329 16.2092 26.0918 15.1705 25.6025L17.2118 23.5606C18.0029 24.0427 18.9969 24.0427 19.788 23.5606L21.0087 24.7816C21.0208 24.7936 21.0369 24.7978 21.0496 24.8088C20.6349 25.3991 20.4129 26.1033 20.4139 26.8247C20.4019 28.7324 21.9383 30.2888 23.8459 30.3015H24.2414V27.7497C24.2425 27.3978 24.5275 27.1128 24.8794 27.1118H32.5345C32.8864 27.1128 33.1715 27.3978 33.1725 27.7497V30.3015H34.5695C35.9174 30.2821 36.9999 29.1839 36.9999 27.8359C36.9999 26.4878 35.9174 25.3897 34.5695 25.3703H34.5377C34.1245 24.1607 32.9898 23.3462 31.7116 23.3416C31.6711 23.3404 31.6306 23.3425 31.5904 23.348C31.0161 21.7761 29.5202 20.7311 27.8467 20.7325C26.1732 20.7339 24.6791 21.7815 24.1075 23.3544C24.0182 23.348 23.9352 23.3416 23.8459 23.3416C23.167 23.3411 22.5037 23.5449 21.9422 23.9266C21.9298 23.9118 21.9248 23.8934 21.9109 23.8795L20.6902 22.6586C20.9244 22.2696 21.0494 21.8245 21.0518 21.3704C21.0483 20.2101 20.2617 19.1985 19.138 18.9093V16.9049H23.6035V9.88767H19.3996C19.0615 9.88744 18.7376 9.7519 18.5001 9.51129L16.9627 7.97388H13.3966V16.9049H17.8621V18.9093C16.7384 19.1985 15.9518 20.2101 15.9483 21.3704C15.9508 21.8245 16.0757 22.2695 16.3099 22.6585L14.024 24.9448C14.005 24.9692 13.9879 24.995 13.9729 25.022C13.4749 23.9974 12.4371 23.3455 11.2978 23.3416C11.2573 23.3404 11.2168 23.3425 11.1766 23.348C10.6023 21.7761 9.10644 20.7311 7.43292 20.7325C5.75941 20.7339 4.26535 21.7815 3.69369 23.3544C3.60438 23.348 3.52145 23.3416 3.43214 23.3416C1.52861 23.3674 -0.000976562 24.9178 -0.000976562 26.8215C-0.000976562 28.7253 1.52861 30.2757 3.43214 30.3015ZM18.5001 20.0946C19.0159 20.0942 19.4811 20.4047 19.6787 20.8812C19.8763 21.3577 19.7674 21.9063 19.4027 22.2711L19.4015 22.2719L19.4007 22.2731C19.1619 22.512 18.8379 22.6463 18.5001 22.6463C18.1622 22.6463 17.8383 22.512 17.5994 22.2731L17.5986 22.2719L17.5975 22.2711C17.2328 21.9063 17.1238 21.3577 17.3214 20.8812C17.519 20.4047 17.9842 20.0942 18.5001 20.0946Z" fill="#CB2023"/>
<path d="M8.93164 30.9396H10.5839L8.93164 29.2874V30.9396Z" fill="#CB2023"/>
<path d="M25.5166 34.7671H31.8959V36.6809H25.5166V34.7671Z" fill="#CB2023"/>
<path d="M26.7925 31.5776H25.5166V33.4914H31.8959V31.5776H29.3442C28.9919 31.5776 28.7062 31.292 28.7062 30.9397C28.7062 30.5873 28.9919 30.3017 29.3442 30.3017H31.8959V28.3879H25.5166V30.3017H26.7925C27.1448 30.3017 27.4304 30.5873 27.4304 30.9397C27.4304 31.292 27.1448 31.5776 26.7925 31.5776Z" fill="#CB2023"/>
</g>
<defs>
<clipPath id="clip0">
<rect width="37" height="37" fill="white"/>
</clipPath>
</defs>
</svg>
