<svg xmlns="http://www.w3.org/2000/svg" viewBox="0 0 35.639 33.301">
  <defs>
    <style>
      .cls-1 {
        fill: #fff;
      }
    </style>
  </defs>
  <g id="vc" transform="translate(0.026)">
    <g id="Group_297" data-name="Group 297" transform="translate(-0.025)">
      <path id="Path_788" data-name="Path 788" class="cls-1" d="M175.6,167.981V165.5h4.774v.676c0,2.658-.011,5.317.011,7.975a7.192,7.192,0,0,0,.155,1.54,2.857,2.857,0,0,0,4.453,1.972,4.254,4.254,0,0,0,2.182-3.4c.022-.222.022-.443.022-.665V168h-2.492v-2.492h5.118v12.107h1.961v2.437c-1.241,0-2.448.011-3.667-.022-.111,0-.288-.244-.321-.4-.111-.587-.188-1.2-.288-1.916-.21.31-.354.532-.51.742a4.852,4.852,0,0,1-5.417,1.817,4.717,4.717,0,0,1-3.655-4,8.724,8.724,0,0,1-.144-1.706c-.011-1.972-.011-3.955-.011-5.926v-.654C177.029,167.981,176.342,167.981,175.6,167.981Z" transform="translate(-156.146 -147.167)"/>
      <path id="Path_789" data-name="Path 789" class="cls-1" d="M200.809,10.822l1.95,1.5a7.3,7.3,0,0,1-4.885,2.958A7.686,7.686,0,1,1,196.611,0a8.616,8.616,0,0,1,5.284,1.662.892.892,0,0,1,.421.82c-.033,1.03-.011,2.06-.011,3.135h-2.5c0-.676-.022-1.362.011-2.038a.622.622,0,0,0-.421-.676,5.29,5.29,0,0,0-5.516.354,5.128,5.128,0,0,0-2.1,5.051,4.817,4.817,0,0,0,4.187,4.486,4.987,4.987,0,0,0,4.464-1.562c.066-.066.122-.133.188-.21Z" transform="translate(-168.029)"/>
      <path id="Path_790" data-name="Path 790" class="cls-1" d="M52.894,2.994V5.486c-.62,0-1.207.033-1.783-.011a.67.67,0,0,0-.8.543c-1.385,3.766-2.8,7.521-4.187,11.276-.155.41-.332.6-.786.543a6.991,6.991,0,0,0-1.274,0c-.4.033-.576-.122-.709-.5-1.318-3.722-2.67-7.444-3.977-11.177-.188-.521-.41-.742-.975-.687-.587.055-1.174.011-1.806.011V3.027c.144-.011.3-.033.454-.033,1.13,0,2.249.022,3.379-.011a.784.784,0,0,1,.93.642c1.086,3.235,2.2,6.447,3.3,9.67.044.144.1.277.188.532.111-.266.177-.432.244-.609C46.215,9.983,47.334,6.749,48.43,3.5a.641.641,0,0,1,.742-.521C50.4,3.016,51.632,2.994,52.894,2.994Z" transform="translate(-32.543 -2.65)"/>
      <path id="Path_791" data-name="Path 791" class="cls-1" d="M48.089,177.031v-9.892c-.642,0-1.263-.022-1.883.011-.366.011-.543-.078-.521-.487.033-.565.011-1.141.011-1.761H50.26c.055.864.111,1.739.188,2.825,1.639-2.714,4.054-3.168,6.812-2.825v4.342H54.835v-2.116a3.912,3.912,0,0,0-3.689,2.481,5.713,5.713,0,0,0-.421,1.972c-.055,1.606-.022,3.212-.022,4.819v.654h6.214V179.4H45.729v-2.359C46.516,177.031,47.28,177.031,48.089,177.031Z" transform="translate(-40.62 -146.547)"/>
      <path id="Path_792" data-name="Path 792" class="cls-1" d="M2.5,276.892H-.022c0-.753-.011-1.484.011-2.215a.4.4,0,0,1,.288-.288c.731-.022,1.462-.011,2.227-.011Z" transform="translate(0.025 -243.982)"/>
    </g>
  </g>
</svg>
