<?xml version="1.0" encoding="UTF-8"?>
<svg width="91px" height="37px" viewBox="0 0 91 37" version="1.1" xmlns="http://www.w3.org/2000/svg" xmlns:xlink="http://www.w3.org/1999/xlink">
    <!-- Generator: Sketch 52.2 (67145) - http://www.bohemiancoding.com/sketch -->
    <title>viber</title>
    <desc>Created with Sketch.</desc>
    <defs>
        <linearGradient x1="50%" y1="0%" x2="50%" y2="100%" id="linearGradient-1">
            <stop stop-color="#7D3DAF" offset="0%"></stop>
            <stop stop-color="#AA69DD" offset="100%"></stop>
        </linearGradient>
    </defs>
    <g id="Design" stroke="none" stroke-width="1" fill="none" fill-rule="evenodd">
        <g id="wechat" transform="translate(-921.000000, -868.000000)">
            <g id="viber" transform="translate(921.000000, 868.000000)">
                <g id="Combined-Shape-2-Copy-3" transform="translate(65.000000, 12.000000)" fill="url(#linearGradient-1)">
                    <path d="M6.26882743,4.05833333 C5.14814962,4.05833333 4.23966076,3.14984447 4.23966076,2.02916667 C4.23966076,0.908488862 5.14814962,-3.10862447e-13 6.26882743,-3.10862447e-13 C7.38950523,-3.10862447e-13 8.29799409,0.908488862 8.29799409,2.02916667 C8.29799409,3.14984447 7.38950523,4.05833333 6.26882743,4.05833333 Z M12.5299385,13.0074074 C12.6915126,14.3856481 10.53642,14.3689815 10.3748459,13.0064815 C10.1790126,11.3393519 9.89475335,9.66435185 9.0341052,8.25416667 C9.0341052,8.70046296 9.03317928,9.34212963 9.03225335,10.0601852 L8.94104965,17.5837963 C8.94104965,19.5782407 8.94104965,21.5736111 8.94104965,23.5685185 C8.94104965,24.9574074 6.78734595,24.9574074 6.78734595,23.5685185 C6.78734595,21.574537 6.78734595,17.0212963 6.78734595,15.0263889 L5.73271632,15.0263889 L5.73271632,23.5412037 C5.73271632,24.1814815 5.19799409,24.7013889 4.5391978,24.7013889 C3.87993854,24.7013889 3.41049409,24.1814815 3.41049409,23.5412037 L3.41049409,17.5842593 L3.42530891,10.075463 L3.42901261,8.51296296 C2.62577187,9.89768519 2.35354965,11.5236111 2.16280891,13.1421296 C2.00262372,14.5037037 -0.152931832,14.5203704 0.00864224172,13.1421296 C0.328086686,10.4300926 0.794753353,7.62222222 2.81558669,5.78287037 C5.93271632,3.51574074 8.89382743,5.29583333 8.89382743,5.29583333 C8.89382743,5.29583333 11.9577163,6.57824074 12.5299385,13.0074074 Z M19.2688274,4.05833333 C18.1481496,4.05833333 17.2396608,3.14984447 17.2396608,2.02916667 C17.2396608,0.908488862 18.1481496,-3.10862447e-13 19.2688274,-3.10862447e-13 C20.3895052,-3.10862447e-13 21.2979941,0.908488862 21.2979941,2.02916667 C21.2979941,3.14984447 20.3895052,4.05833333 19.2688274,4.05833333 Z M25.5299385,13.0074074 C25.6915126,14.3856481 23.53642,14.3689815 23.3748459,13.0064815 C23.1790126,11.3393519 22.8947534,9.66435185 22.0341052,8.25416667 C22.0341052,8.70046296 22.0331793,9.34212963 22.0322534,10.0601852 L21.9410496,17.5837963 C21.9410496,19.5782407 21.9410496,21.5736111 21.9410496,23.5685185 C21.9410496,24.9574074 19.7873459,24.9574074 19.7873459,23.5685185 C19.7873459,21.574537 19.7873459,17.0212963 19.7873459,15.0263889 L18.7327163,15.0263889 L18.7327163,23.5412037 C18.7327163,24.1814815 18.1979941,24.7013889 17.5391978,24.7013889 C16.8799385,24.7013889 16.4104941,24.1814815 16.4104941,23.5412037 L16.4104941,17.5842593 L16.4253089,10.075463 L16.4290126,8.51296296 C15.6257719,9.89768519 15.3535496,11.5236111 15.1628089,13.1421296 C15.0026237,14.5037037 12.8470682,14.5203704 13.0086422,13.1421296 C13.3280867,10.4300926 13.7947534,7.62222222 15.8155867,5.78287037 C18.9327163,3.51574074 21.8938274,5.29583333 21.8938274,5.29583333 C21.8938274,5.29583333 24.9577163,6.57824074 25.5299385,13.0074074 Z" id="Combined-Shape"></path>
                </g>
                <g fill="#7D3DAF" fill-rule="nonzero" id="Group">
                    <g>
                        <path d="M34.1909571,8.72982748 C35.2305611,13.456984 35.2305611,18.2508498 34.1909571,22.9781214 L34.1805611,23.0195272 C33.339637,26.4044473 29.5485479,30.0366518 26.0670297,30.7923067 L26.0277558,30.8003578 C23.2127393,31.3351821 20.3769307,31.6020192 17.5422772,31.6020192 C16.7079373,31.6020192 15.8735974,31.5761406 15.0397195,31.5296741 L11.1949175,35.5091118 C10.2431023,36.4959489 8.56933993,35.8242556 8.56933993,34.4567157 L8.56933993,30.6782109 C5.21777228,29.7251885 1.7089934,26.2598722 0.902838284,23.0194121 L0.89359736,22.9780064 C-0.146006601,18.2508498 -0.146006601,13.456984 0.89359736,8.72982748 L0.902838284,8.68842173 C1.74491749,5.3035016 5.5360066,1.67129712 9.01636964,0.915642173 L9.05679868,0.907591054 C14.6868317,-0.162057508 20.3965677,-0.162057508 26.0277558,0.907591054 L26.0670297,0.915642173 C29.5485479,1.67129712 33.339637,5.3035016 34.1805611,8.68842173 L34.1909571,8.72982748 Z M31.1483828,22.2925112 C32.085066,18.0196677 32.085066,13.6881661 31.1483828,9.41520767 C30.5869967,7.20690096 27.709604,4.46146965 25.4213201,3.9542492 C20.1932673,2.96396166 14.8912871,2.96396166 9.66207921,3.9542492 C7.3749505,4.46146965 4.49755776,7.20690096 3.9350165,9.41520767 C2.99937294,13.6880511 2.99937294,18.0195527 3.9350165,22.2923962 C4.49755776,24.5007029 7.3749505,27.2461342 9.66207921,27.7533546 C9.66265677,27.7534696 9.66323432,27.7535847 9.66381188,27.7536997 C9.76580858,27.7735974 9.839967,27.8614696 9.839967,27.964869 L9.839967,34.2242684 C9.839967,34.5371118 10.2234653,34.6912332 10.4417822,34.4646518 L13.4277558,31.413278 C13.4277558,31.413278 15.8071782,28.9811502 16.235033,28.5438594 C16.2768482,28.5010735 16.3344884,28.4779553 16.3944389,28.4795655 C19.4092904,28.562722 22.4271452,28.3203834 25.4213201,27.7534696 C27.7084488,27.2462492 30.5869967,24.5008179 31.1483828,22.2925112 Z M22.5174752,25.1818275 C22.1658581,25.0755527 21.8307591,25.0041278 21.519571,24.8755399 C18.2949505,23.5434249 15.3272277,21.8248562 12.9764521,19.1904153 C11.639637,17.6923323 10.5933333,16.0010224 9.70886139,14.2111438 C9.28943894,13.3623259 8.9359736,12.4802684 8.57569307,11.6039617 C8.24717822,10.8048307 8.73105611,9.97924601 9.24057756,9.37713738 C9.71867987,8.8120639 10.3338944,8.37960383 11.000165,8.06089457 C11.520198,7.81211502 12.0331848,7.95553994 12.4129868,8.39444089 C13.2340429,9.34332268 13.9882178,10.3407412 14.5989274,11.440639 C14.9744554,12.1171629 14.8714191,12.9441278 14.1908251,13.4045367 C14.0254125,13.5164473 13.87467,13.6477955 13.7205776,13.7741981 C13.585429,13.8849585 13.4582508,13.996869 13.3656106,14.1468498 C13.1962706,14.421278 13.1881848,14.7449329 13.2972277,15.0432843 C14.1365347,17.3399233 15.5512046,19.1257764 17.8727558,20.087655 C18.2442409,20.2415463 18.6173432,20.4207412 19.0453135,20.3710543 C19.7620627,20.2876677 19.9941254,19.504869 20.4963696,19.0958722 C20.9872937,18.6961917 21.614637,18.690901 22.1434488,19.0241022 C22.6723762,19.3574185 23.185132,19.7152332 23.694769,20.0768435 C24.1950495,20.4317827 24.6931353,20.779016 25.154604,21.1836422 C25.5982838,21.5727412 25.7511056,22.0831821 25.5012541,22.6112204 C25.0438284,23.5782748 24.3782508,24.3828115 23.4181188,24.8963578 C23.1470132,25.0411629 22.8232343,25.0880895 22.5174752,25.1818275 C22.1658581,25.0754377 22.8232343,25.0880895 22.5174752,25.1818275 Z M17.5510561,6.95513099 C21.7689604,7.07279233 25.2332673,9.85997444 25.9756601,14.0120511 C26.1021452,14.7195144 26.1471947,15.4428498 26.2034488,16.1608946 C26.2271287,16.4629265 26.055363,16.7498914 25.7280033,16.7538019 C25.389901,16.7578275 25.2377723,16.4761534 25.2158251,16.1742364 C25.1723927,15.5766134 25.1422442,14.976345 25.059538,14.3836677 C24.6229043,11.2551182 22.1174587,8.66679872 18.9899835,8.11138658 C18.5193894,8.02776997 18.0377063,8.00580192 17.5609901,7.956 C17.2596205,7.92448562 16.8649175,7.9063131 16.7981518,7.53331629 C16.7421287,7.22058786 17.0072277,6.97157827 17.3062871,6.95559105 C17.3876073,6.95110543 17.4693894,6.95478594 17.5510561,6.95513099 C21.7689604,7.07279233 17.4693894,6.95478594 17.5510561,6.95513099 Z M23.9610231,15.2289201 C23.9540924,15.2813674 23.950396,15.4046645 23.9195545,15.5208307 C23.8076238,15.9424792 23.1656106,15.9952716 23.0177558,15.5697125 C22.9739769,15.4434249 22.9673927,15.29977 22.9671617,15.1638211 C22.9656601,14.2742875 22.7714851,13.3856741 22.3209901,12.6117316 C21.8579043,11.8162812 21.150396,11.1475783 20.3205611,10.7429521 C19.8187789,10.4983131 19.2761056,10.346262 18.7261551,10.2556294 C18.4857756,10.2160639 18.2428548,10.1920256 18.0013201,10.1585559 C17.7086139,10.1180703 17.5523267,9.93231949 17.5661881,9.6451246 C17.5791254,9.37598722 17.7766502,9.18241534 18.0712046,9.19897764 C19.0391914,9.25372524 19.9741419,9.46201917 20.834703,9.91575719 C22.584703,10.8385304 23.5843399,12.2950927 23.8761221,14.2400128 C23.8892904,14.328115 23.9105446,14.4154121 23.9172442,14.5038594 C23.9337624,14.7222748 23.9441584,14.9409201 23.9610231,15.2289201 C23.9540924,15.2813674 23.9441584,14.9409201 23.9610231,15.2289201 Z M21.3375248,15.127246 C20.984637,15.1335719 20.7957756,14.9390799 20.7593894,14.6169201 C20.7340924,14.3922939 20.7141089,14.1646773 20.6602805,13.946147 C20.5542409,13.5157572 20.3244884,13.1168818 19.9608581,12.8531502 C19.7892079,12.7285879 19.5946865,12.6378403 19.3909241,12.5792971 C19.1320627,12.5048818 18.8632673,12.5253546 18.6049835,12.4623259 C18.3245215,12.3938914 18.1693894,12.16777 18.2135149,11.9057636 C18.2535974,11.6673355 18.4865842,11.4812396 18.7482178,11.5001022 C20.3835149,11.6176486 21.5522607,12.4594505 21.7190594,14.3763067 C21.7308416,14.5115655 21.744703,14.6545304 21.7145545,14.7839233 C21.6629208,15.0054441 21.4982013,15.1164345 21.3375248,15.127246 C20.984637,15.1335719 21.4982013,15.1164345 21.3375248,15.127246 Z" id="Combined-Shape"></path>
                    </g>
                </g>
            </g>
        </g>
    </g>
</svg>