<svg xmlns="http://www.w3.org/2000/svg" viewBox="0 0 84.944 59.746">
  <defs>
    <style>
      .cls-1 {
        fill: #cc6a6c;
      }

      .cls-2 {
        fill: #fff;
      }
    </style>
  </defs>
  <g id="Group_21" data-name="Group 21" transform="translate(-900 -669.214)">
    <g id="laptop" transform="translate(900 656.458)">
      <g id="Group_18" data-name="Group 18" transform="translate(0 16.713)">
        <path id="Path_20" data-name="Path 20" class="cls-1" d="M84.84,71.239a.432.432,0,0,0-.326-.15H.431a.432.432,0,0,0-.427.5c.012.079,1.28,7.864,11.124,7.864H73.816c9.842,0,11.111-7.786,11.124-7.864A.437.437,0,0,0,84.84,71.239ZM48.8,76.722H36.148V73.814H48.8Z" transform="translate(0 -23.659)"/>
        <path id="Path_21" data-name="Path 21" class="cls-1" d="M10.252,75.073H76.865A2.077,2.077,0,0,0,78.61,72.78V29.006a2.077,2.077,0,0,0-1.745-2.293H10.252a2.077,2.077,0,0,0-1.745,2.293V72.78A2.077,2.077,0,0,0,10.252,75.073Zm3.361-44.335H73.5v38.31H13.613V30.738Z" transform="translate(-1.086 -30.67)"/>
      </g>
    </g>
    <g id="loading-circles" transform="translate(927.92 680.145)">
      <g id="Group_19" data-name="Group 19" transform="translate(0.853)">
        <path id="Path_22" data-name="Path 22" class="cls-2" d="M492.109,256.256a2.539,2.539,0,0,0-1.858-.79,2.506,2.506,0,0,0-1.844.775,2.618,2.618,0,1,0,3.7,3.7,2.583,2.583,0,0,0,0-3.687Z" transform="translate(-467.227 -244.756)"/>
        <path id="Path_23" data-name="Path 23" class="cls-2" d="M419.862,438.453a2.3,2.3,0,0,0-1.7.69,2.255,2.255,0,0,0-.69,1.672,2.334,2.334,0,0,0,.69,1.705,2.292,2.292,0,0,0,1.7.688,2.268,2.268,0,0,0,1.675-.688,2.324,2.324,0,0,0,.718-1.705,2.246,2.246,0,0,0-.718-1.672A2.277,2.277,0,0,0,419.862,438.453Z" transform="translate(-400.003 -420.072)"/>
        <path id="Path_24" data-name="Path 24" class="cls-2" d="M417.324,82.66a2.882,2.882,0,1,0-2.027-.844A2.761,2.761,0,0,0,417.324,82.66Z" transform="translate(-397.114 -73.694)"/>
        <path id="Path_25" data-name="Path 25" class="cls-2" d="M248.4,511.289a2.051,2.051,0,0,0-1.52.634,2.1,2.1,0,0,0-.619,1.534,2.034,2.034,0,0,0,.619,1.5,2.169,2.169,0,0,0,3.04,0,2.033,2.033,0,0,0,.633-1.5,2.116,2.116,0,0,0-.633-1.549A2.068,2.068,0,0,0,248.4,511.289Z" transform="translate(-235.975 -489.854)"/>
        <path id="Path_26" data-name="Path 26" class="cls-2" d="M226.526,0a2.99,2.99,0,0,0-2.2.9,2.957,2.957,0,0,0-.9,2.183,3.018,3.018,0,0,0,.9,2.21,3.126,3.126,0,0,0,4.391,0,3.031,3.031,0,0,0,.915-2.21A2.971,2.971,0,0,0,228.722.9,2.99,2.99,0,0,0,226.526,0Z" transform="translate(-214.099)"/>
        <path id="Path_27" data-name="Path 27" class="cls-2" d="M87.477,114.009a1.389,1.389,0,0,0,1.013-.408,1.441,1.441,0,0,0,0-2.039,1.432,1.432,0,1,0-1.013,2.447Z" transform="translate(-82.467 -106.494)"/>
        <path id="Path_28" data-name="Path 28" class="cls-2" d="M76.619,445.472a1.886,1.886,0,0,0-1.351.579,1.767,1.767,0,0,0-.563,1.321,1.914,1.914,0,0,0,3.828,0,1.767,1.767,0,0,0-.563-1.321A1.886,1.886,0,0,0,76.619,445.472Z" transform="translate(-71.609 -426.797)"/>
        <path id="Path_29" data-name="Path 29" class="cls-2" d="M3.7,278.805a1.582,1.582,0,0,0-1.168-.492,1.644,1.644,0,0,0-1.2.492,1.6,1.6,0,0,0-.479,1.183,1.639,1.639,0,0,0,1.675,1.675,1.572,1.572,0,0,0,1.168-.48,1.649,1.649,0,0,0,.493-1.2A1.618,1.618,0,0,0,3.7,278.805Z" transform="translate(-0.853 -266.645)"/>
      </g>
    </g>
  </g>
</svg>
