<?xml version="1.0" encoding="utf-8"?>
<!-- Generator: Adobe Illustrator 21.0.2, SVG Export Plug-In . SVG Version: 6.00 Build 0)  -->
<svg version="1.1" id="Слой_1" xmlns="http://www.w3.org/2000/svg" xmlns:xlink="http://www.w3.org/1999/xlink" x="0px" y="0px"
	 viewBox="0 0 35 35" style="enable-background:new 0 0 35 35;" xml:space="preserve">
<style type="text/css">
	.st0{fill:#FFFFFF;stroke:#999999;stroke-miterlimit:10;}
	.st1{fill:#CC6A6C;}
</style>
<title>warning</title>
<desc>Created with Sketch.</desc>
<g id="Design">
	<g id="development-5" transform="translate(-240.000000, -2187.000000)">
		<g id="warning" transform="translate(240.000000, 2187.000000)">
			<circle id="Oval-3" class="st0" cx="17.5" cy="17.5" r="16.7"/>
			<path id="_x21_" class="st1" d="M15.6,21.6L15.1,8.7h4.1l-0.5,12.9H15.6z M17.2,27.1c-0.5,0-1-0.2-1.4-0.6
				c-0.4-0.4-0.6-0.8-0.6-1.4c0-0.5,0.2-1,0.6-1.4c0.4-0.4,0.8-0.6,1.4-0.6c0.5,0,1,0.2,1.4,0.6c0.4,0.4,0.6,0.8,0.6,1.4
				c0,0.5-0.2,1-0.6,1.4C18.1,26.9,17.7,27.1,17.2,27.1z"/>
		</g>
	</g>
</g>
</svg>
