<svg width="68" height="68" viewBox="0 0 68 68" fill="none" xmlns="http://www.w3.org/2000/svg">
<path d="M52.1228 23.2383C48.7448 16.6593 41.9584 12.0003 33.998 12V22.2912C39.6325 22.2916 44.2145 26.7266 44.2147 32.3612C44.2147 37.9274 39.5945 42.7255 33.998 42.7258V64C41.173 56.5233 49.4308 48.3043 53.044 38.4643C54.8507 33.5435 54.5136 27.8945 52.1228 23.2383Z" fill="#2D2D2D"/>
<path d="M14.9565 38.4643C18.5696 48.3043 26.8273 56.5233 34.0023 64V42.7258C28.4059 42.7255 23.7856 37.9274 23.7856 32.3612C23.7858 26.7268 28.3678 22.2916 34.0023 22.2912V12C26.0419 12.0003 19.2555 16.6593 15.8775 23.2383C13.4868 27.8945 13.1497 33.5435 14.9565 38.4643Z" fill="#2D2D2D"/>
<line x1="2.23223" y1="66.2322" x2="66.2322" y2="2.23224" stroke="#CC1237" stroke-width="5"/>
</svg>
