<svg width="27" height="18" viewBox="0 0 27 18" fill="none" xmlns="http://www.w3.org/2000/svg">
<path d="M16.4093 0.101356C16.0065 0.283607 15.75 0.684106 15.75 1.12511L15.75 5.62511L1.125 5.62511C0.504 5.62511 -5.18904e-07 6.12911 -4.91759e-07 6.75011L-2.95058e-07 11.2501C-2.67913e-07 11.8711 0.504 12.3751 1.125 12.3751L15.75 12.3751L15.75 16.8751C15.75 17.3161 16.0088 17.7166 16.4093 17.8989C16.812 18.0834 17.2823 18.0114 17.6153 17.7211L26.6153 9.84611C26.8605 9.63235 27 9.32411 27 9.00011C27 8.67611 26.8583 8.36785 26.6153 8.1541L17.6153 0.279105C17.2845 -0.0133942 16.812 -0.0808933 16.4093 0.101356Z" fill="#AEAEAE"/>
</svg>
