<?xml version="1.0" encoding="UTF-8"?>
<svg width="193px" height="34px" viewBox="0 0 193 34" version="1.1" xmlns="http://www.w3.org/2000/svg" xmlns:xlink="http://www.w3.org/1999/xlink">
    <!-- Generator: Sketch 52.2 (67145) - http://www.bohemiancoding.com/sketch -->
    <title>wechat</title>
    <desc>Created with Sketch.</desc>
    <defs>
        <linearGradient x1="50%" y1="0%" x2="50%" y2="100%" id="linearGradient-1">
            <stop stop-color="#4CAF50" offset="0%"></stop>
            <stop stop-color="#86E289" offset="100%"></stop>
        </linearGradient>
    </defs>
    <g id="Design" stroke="none" stroke-width="1" fill="none" fill-rule="evenodd">
        <g id="wechat" transform="translate(-574.000000, -871.000000)">
            <g transform="translate(574.000000, 871.000000)">
                <g>
                    <path d="M25.4584192,8.01101338 C23.7981739,3.21819733 18.7936095,0 13.0057081,0 C5.83395544,0 0,5.04475505 0,11.2472766 C0.0603370882,14.6836711 1.77067755,17.8765621 4.5869425,19.8101798 L3.05155172,22.9084531 C2.86447888,23.2770826 3.00898133,23.7288716 3.37434818,23.917615 C3.60148317,24.0349381 3.87244268,24.0265027 4.09198329,23.8951907 L8.02490241,21.6262635 C9.09187951,22.0064918 10.1985007,22.2620861 11.3231673,22.3880556 C11.7308956,22.4354348 12.099537,22.1404047 12.1465665,21.7290355 C12.1563905,21.6430642 12.151374,21.5560383 12.1317958,21.4718244 C11.9767727,20.8244733 11.8960213,20.1613058 11.8910048,19.4953264 C11.8910048,13.7082511 17.5585107,8.99789161 24.5250755,8.99789161 L24.743571,9.00836564 C24.9851284,9.00597559 25.2120544,8.89146426 25.3589257,8.6979408 C25.5014076,8.49914519 25.5386132,8.24263698 25.4584192,8.01101338 Z" id="Path" fill="#4CAF50"></path>
                    <g id="Group" transform="translate(6.000000, 4.500000)" fill="#FAFAFA">
                        <path d="M2.26163472,0.0461769231 C1.02544041,0.0461769231 0.0232927461,1.03804615 0.0232927461,2.26156154 C0.0232927461,3.48507692 1.02544041,4.47694615 2.26163472,4.47694615 C3.49782902,4.47694615 4.49997668,3.48507692 4.49997668,2.26156154 C4.49997668,1.03804615 3.49782902,0.0461769231 2.26163472,0.0461769231 Z" id="Path"></path>
                        <path d="M11.2150026,0.0461769231 C9.97880829,0.0461769231 8.97666062,1.03804615 8.97666062,2.26156154 C8.97666062,3.48507692 9.97880829,4.47694615 11.2150026,4.47694615 C12.4511969,4.47694615 13.4533446,3.48507692 13.4533446,2.26156154 C13.4533446,1.03804615 12.4511969,0.0461769231 11.2150026,0.0461769231 Z" id="Path"></path>
                    </g>
                    <path d="M36,19.4999845 C36,14.5364931 30.9540234,10.5 24.75,10.5 C18.5459766,10.5 13.5,14.5364931 13.5,19.4999845 C13.5,24.463476 18.5459766,28.499969 24.75,28.499969 C25.9138125,28.4995471 27.0729844,28.3523833 28.2000234,28.0619932 L31.9185,29.92049 C32.2889062,30.1059038 32.7394688,29.9559978 32.9248828,29.5855922 C33.0209297,29.39378 33.0302109,29.170046 32.9504766,28.9709916 L31.932,26.4209726 C34.3661484,24.945397 35.8948828,22.3444718 36,19.4999845 Z" id="Path" fill="#4CAF50"></path>
                    <g id="Group" transform="translate(19.500000, 15.000000)" fill="#FAFAFA">
                        <path d="M1.51669,0 C0.69195,0 0.02338,0.666348837 0.02338,1.48834884 C0.02338,2.31034884 0.69195,2.97669767 1.51669,2.97669767 C2.34143,2.97669767 3.01,2.31034884 3.01,1.48834884 C3.01,0.666348837 2.34143,0 1.51669,0 Z" id="Path"></path>
                        <path d="M8.98331,0 C8.15857,0 7.49,0.666348837 7.49,1.48834884 C7.49,2.31034884 8.15857,2.97669767 8.98331,2.97669767 C9.80805,2.97669767 10.47662,2.31034884 10.47662,1.48834884 C10.47669,0.666348837 9.80805,0 8.98331,0 Z" id="Path"></path>
                    </g>
                </g>
                <g id="Combined-Shape-2-Copy" transform="translate(59.000000, 9.000000)" fill="url(#linearGradient-1)">
                    <path d="M121.19519,13.8528842 C120.614433,14.2641386 119.489831,13.9761087 119.374846,13.0064815 C119.179013,11.3393519 118.894753,9.66435185 118.034105,8.25416667 C118.034105,8.70046296 118.033179,9.34212963 118.032253,10.0601852 L117.94105,17.5837963 C117.94105,19.5782407 117.94105,21.5736111 117.94105,23.5685185 C117.94105,24.9574074 115.787346,24.9574074 115.787346,23.5685185 C115.787346,21.574537 115.787346,17.0212963 115.787346,15.0263889 L114.732716,15.0263889 L114.732716,23.5412037 C114.732716,24.1814815 114.197994,24.7013889 113.539198,24.7013889 C112.879939,24.7013889 112.410494,24.1814815 112.410494,23.5412037 L112.410494,17.5842593 L112.425309,10.075463 L112.429013,8.51296296 C111.625772,9.89768519 111.35355,11.5236111 111.162809,13.1421296 C111.038082,14.2023042 109.703606,14.4470902 109.19519,13.8528842 C108.614433,14.2641386 107.489831,13.9761087 107.374846,13.0064815 C107.179013,11.3393519 106.894753,9.66435185 106.034105,8.25416667 C106.034105,8.70046296 106.033179,9.34212963 106.032253,10.0601852 L105.94105,17.5837963 C105.94105,19.5782407 105.94105,21.5736111 105.94105,23.5685185 C105.94105,24.9574074 103.787346,24.9574074 103.787346,23.5685185 C103.787346,21.574537 103.787346,17.0212963 103.787346,15.0263889 L102.732716,15.0263889 L102.732716,23.5412037 C102.732716,24.1814815 102.197994,24.7013889 101.539198,24.7013889 C100.879939,24.7013889 100.410494,24.1814815 100.410494,23.5412037 L100.410494,17.5842593 L100.425309,10.075463 L100.429013,8.51296296 C99.6257719,9.89768519 99.3535496,11.5236111 99.1628089,13.1421296 C99.0380825,14.2023042 97.7036059,14.4470902 97.1951897,13.8528842 C96.6144327,14.2641386 95.4898306,13.9761087 95.3748459,13.0064815 C95.1790126,11.3393519 94.8947534,9.66435185 94.0341052,8.25416667 C94.0341052,8.70046296 94.0331793,9.34212963 94.0322534,10.0601852 L93.9410496,17.5837963 C93.9410496,19.5782407 93.9410496,21.5736111 93.9410496,23.5685185 C93.9410496,24.9574074 91.7873459,24.9574074 91.7873459,23.5685185 C91.7873459,21.574537 91.7873459,17.0212963 91.7873459,15.0263889 L90.7327163,15.0263889 L90.7327163,23.5412037 C90.7327163,24.1814815 90.1979941,24.7013889 89.5391978,24.7013889 C88.8799385,24.7013889 88.4104941,24.1814815 88.4104941,23.5412037 L88.4104941,17.5842593 L88.4253089,10.075463 L88.4290126,8.51296296 C87.6257719,9.89768519 87.3535496,11.5236111 87.1628089,13.1421296 C87.0380825,14.2023042 85.7036059,14.4470902 85.1951897,13.8528842 C84.6144327,14.2641386 83.4898306,13.9761087 83.3748459,13.0064815 C83.1790126,11.3393519 82.8947534,9.66435185 82.0341052,8.25416667 C82.0341052,8.70046296 82.0331793,9.34212963 82.0322534,10.0601852 L81.9410496,17.5837963 C81.9410496,19.5782407 81.9410496,21.5736111 81.9410496,23.5685185 C81.9410496,24.9574074 79.7873459,24.9574074 79.7873459,23.5685185 C79.7873459,21.574537 79.7873459,17.0212963 79.7873459,15.0263889 L78.7327163,15.0263889 L78.7327163,23.5412037 C78.7327163,24.1814815 78.1979941,24.7013889 77.5391978,24.7013889 C76.8799385,24.7013889 76.4104941,24.1814815 76.4104941,23.5412037 L76.4104941,17.5842593 L76.4253089,10.075463 L76.4290126,8.51296296 C75.6257719,9.89768519 75.3535496,11.5236111 75.1628089,13.1421296 C75.0380825,14.2023042 73.7036059,14.4470902 73.1951897,13.8528842 C72.6144327,14.2641386 71.4898306,13.9761087 71.3748459,13.0064815 C71.1790126,11.3393519 70.8947534,9.66435185 70.0341052,8.25416667 C70.0341052,8.70046296 70.0331793,9.34212963 70.0322534,10.0601852 L69.9410496,17.5837963 C69.9410496,19.5782407 69.9410496,21.5736111 69.9410496,23.5685185 C69.9410496,24.9574074 67.7873459,24.9574074 67.7873459,23.5685185 C67.7873459,21.574537 67.7873459,17.0212963 67.7873459,15.0263889 L66.7327163,15.0263889 L66.7327163,23.5412037 C66.7327163,24.1814815 66.1979941,24.7013889 65.5391978,24.7013889 C64.8799385,24.7013889 64.4104941,24.1814815 64.4104941,23.5412037 L64.4104941,17.5842593 L64.4253089,10.075463 L64.4290126,8.51296296 C63.6257719,9.89768519 63.3535496,11.5236111 63.1628089,13.1421296 C63.0380825,14.2023042 61.7036059,14.4470902 61.1951897,13.8528842 C60.6144327,14.2641386 59.4898306,13.9761087 59.3748459,13.0064815 C59.1790126,11.3393519 58.8947534,9.66435185 58.0341052,8.25416667 C58.0341052,8.70046296 58.0331793,9.34212963 58.0322534,10.0601852 L57.9410496,17.5837963 C57.9410496,19.5782407 57.9410496,21.5736111 57.9410496,23.5685185 C57.9410496,24.9574074 55.7873459,24.9574074 55.7873459,23.5685185 C55.7873459,21.574537 55.7873459,17.0212963 55.7873459,15.0263889 L54.7327163,15.0263889 L54.7327163,23.5412037 C54.7327163,24.1814815 54.1979941,24.7013889 53.5391978,24.7013889 C52.8799385,24.7013889 52.4104941,24.1814815 52.4104941,23.5412037 L52.4104941,17.5842593 L52.4253089,10.075463 L52.4290126,8.51296296 C51.6257719,9.89768519 51.3535496,11.5236111 51.1628089,13.1421296 C51.0380825,14.2023042 49.7036059,14.4470902 49.1951897,13.8528842 C48.6144327,14.2641386 47.4898306,13.9761087 47.3748459,13.0064815 C47.1790126,11.3393519 46.8947534,9.66435185 46.0341052,8.25416667 C46.0341052,8.70046296 46.0331793,9.34212963 46.0322534,10.0601852 L45.9410496,17.5837963 C45.9410496,19.5782407 45.9410496,21.5736111 45.9410496,23.5685185 C45.9410496,24.9574074 43.7873459,24.9574074 43.7873459,23.5685185 C43.7873459,21.574537 43.7873459,17.0212963 43.7873459,15.0263889 L42.7327163,15.0263889 L42.7327163,23.5412037 C42.7327163,24.1814815 42.1979941,24.7013889 41.5391978,24.7013889 C40.8799385,24.7013889 40.4104941,24.1814815 40.4104941,23.5412037 L40.4104941,17.5842593 L40.4253089,10.075463 L40.4290126,8.51296296 C39.6257719,9.89768519 39.3535496,11.5236111 39.1628089,13.1421296 C39.0380825,14.2023042 37.7036059,14.4470902 37.1951897,13.8528842 C36.6144327,14.2641386 35.4898306,13.9761087 35.3748459,13.0064815 C35.1790126,11.3393519 34.8947534,9.66435185 34.0341052,8.25416667 C34.0341052,8.70046296 34.0331793,9.34212963 34.0322534,10.0601852 L33.9410496,17.5837963 C33.9410496,19.5782407 33.9410496,21.5736111 33.9410496,23.5685185 C33.9410496,24.9574074 31.7873459,24.9574074 31.7873459,23.5685185 C31.7873459,21.574537 31.7873459,17.0212963 31.7873459,15.0263889 L30.7327163,15.0263889 L30.7327163,23.5412037 C30.7327163,24.1814815 30.1979941,24.7013889 29.5391978,24.7013889 C28.8799385,24.7013889 28.4104941,24.1814815 28.4104941,23.5412037 L28.4104941,17.5842593 L28.4253089,10.075463 L28.4290126,8.51296296 C27.6257719,9.89768519 27.3535496,11.5236111 27.1628089,13.1421296 C27.0380825,14.2023042 25.7036059,14.4470902 25.1951897,13.8528842 C24.6144327,14.2641386 23.4898306,13.9761087 23.3748459,13.0064815 C23.1790126,11.3393519 22.8947534,9.66435185 22.0341052,8.25416667 C22.0341052,8.70046296 22.0331793,9.34212963 22.0322534,10.0601852 L21.9410496,17.5837963 C21.9410496,19.5782407 21.9410496,21.5736111 21.9410496,23.5685185 C21.9410496,24.9574074 19.7873459,24.9574074 19.7873459,23.5685185 C19.7873459,21.574537 19.7873459,17.0212963 19.7873459,15.0263889 L18.7327163,15.0263889 L18.7327163,23.5412037 C18.7327163,24.1814815 18.1979941,24.7013889 17.5391978,24.7013889 C16.8799385,24.7013889 16.4104941,24.1814815 16.4104941,23.5412037 L16.4104941,17.5842593 L16.4253089,10.075463 L16.4290126,8.51296296 C15.6257719,9.89768519 15.3535496,11.5236111 15.1628089,13.1421296 C15.0026237,14.5037037 12.8470682,14.5203704 13.0086422,13.1421296 C13.3280867,10.4300926 13.7947534,7.62222222 15.8155867,5.78287037 C18.9327163,3.51574074 21.8938274,5.29583333 21.8938274,5.29583333 C21.8938274,5.29583333 24.363624,6.32958017 25.2824423,11.1938579 C25.6403121,9.14207557 26.2781944,7.18219671 27.8155867,5.78287037 C30.9327163,3.51574074 33.8938274,5.29583333 33.8938274,5.29583333 C33.8938274,5.29583333 36.363624,6.32958017 37.2824423,11.1938579 C37.6403121,9.14207557 38.2781944,7.18219671 39.8155867,5.78287037 C42.9327163,3.51574074 45.8938274,5.29583333 45.8938274,5.29583333 C45.8938274,5.29583333 48.363624,6.32958017 49.2824423,11.1938579 C49.6403121,9.14207557 50.2781944,7.18219671 51.8155867,5.78287037 C54.9327163,3.51574074 57.8938274,5.29583333 57.8938274,5.29583333 C57.8938274,5.29583333 60.363624,6.32958017 61.2824423,11.1938579 C61.6403121,9.14207557 62.2781944,7.18219671 63.8155867,5.78287037 C66.9327163,3.51574074 69.8938274,5.29583333 69.8938274,5.29583333 C69.8938274,5.29583333 72.363624,6.32958017 73.2824423,11.1938579 C73.6403121,9.14207557 74.2781944,7.18219671 75.8155867,5.78287037 C78.9327163,3.51574074 81.8938274,5.29583333 81.8938274,5.29583333 C81.8938274,5.29583333 84.363624,6.32958017 85.2824423,11.1938579 C85.6403121,9.14207557 86.2781944,7.18219671 87.8155867,5.78287037 C90.9327163,3.51574074 93.8938274,5.29583333 93.8938274,5.29583333 C93.8938274,5.29583333 96.363624,6.32958017 97.2824423,11.1938579 C97.6403121,9.14207557 98.2781944,7.18219671 99.8155867,5.78287037 C102.932716,3.51574074 105.893827,5.29583333 105.893827,5.29583333 C105.893827,5.29583333 108.363624,6.32958017 109.282442,11.1938579 C109.640312,9.14207557 110.278194,7.18219671 111.815587,5.78287037 C114.932716,3.51574074 117.893827,5.29583333 117.893827,5.29583333 C117.893827,5.29583333 120.363624,6.32958017 121.282442,11.1938579 C121.640312,9.14207557 122.278194,7.18219671 123.815587,5.78287037 C126.932716,3.51574074 129.893827,5.29583333 129.893827,5.29583333 C129.893827,5.29583333 132.957716,6.57824074 133.529939,13.0074074 C133.691513,14.3856481 131.53642,14.3689815 131.374846,13.0064815 C131.179013,11.3393519 130.894753,9.66435185 130.034105,8.25416667 C130.034105,8.70046296 130.033179,9.34212963 130.032253,10.0601852 L129.94105,17.5837963 C129.94105,19.5782407 129.94105,21.5736111 129.94105,23.5685185 C129.94105,24.9574074 127.787346,24.9574074 127.787346,23.5685185 C127.787346,21.574537 127.787346,17.0212963 127.787346,15.0263889 L126.732716,15.0263889 L126.732716,23.5412037 C126.732716,24.1814815 126.197994,24.7013889 125.539198,24.7013889 C124.879939,24.7013889 124.410494,24.1814815 124.410494,23.5412037 L124.410494,17.5842593 L124.425309,10.075463 L124.429013,8.51296296 C123.625772,9.89768519 123.35355,11.5236111 123.162809,13.1421296 C123.038082,14.2023042 121.703606,14.4470902 121.19519,13.8528842 Z M6.26882743,4.05833333 C5.14814962,4.05833333 4.23966076,3.14984447 4.23966076,2.02916667 C4.23966076,0.908488862 5.14814962,-3.10862447e-13 6.26882743,-3.10862447e-13 C7.38950523,-3.10862447e-13 8.29799409,0.908488862 8.29799409,2.02916667 C8.29799409,3.14984447 7.38950523,4.05833333 6.26882743,4.05833333 Z M12.5299385,13.0074074 C12.6915126,14.3856481 10.53642,14.3689815 10.3748459,13.0064815 C10.1790126,11.3393519 9.89475335,9.66435185 9.0341052,8.25416667 C9.0341052,8.70046296 9.03317928,9.34212963 9.03225335,10.0601852 L8.94104965,17.5837963 C8.94104965,19.5782407 8.94104965,21.5736111 8.94104965,23.5685185 C8.94104965,24.9574074 6.78734595,24.9574074 6.78734595,23.5685185 C6.78734595,21.574537 6.78734595,17.0212963 6.78734595,15.0263889 L5.73271632,15.0263889 L5.73271632,23.5412037 C5.73271632,24.1814815 5.19799409,24.7013889 4.5391978,24.7013889 C3.87993854,24.7013889 3.41049409,24.1814815 3.41049409,23.5412037 L3.41049409,17.5842593 L3.42530891,10.075463 L3.42901261,8.51296296 C2.62577187,9.89768519 2.35354965,11.5236111 2.16280891,13.1421296 C2.00262372,14.5037037 -0.152931832,14.5203704 0.00864224172,13.1421296 C0.328086686,10.4300926 0.794753353,7.62222222 2.81558669,5.78287037 C5.93271632,3.51574074 8.89382743,5.29583333 8.89382743,5.29583333 C8.89382743,5.29583333 11.9577163,6.57824074 12.5299385,13.0074074 Z M19.2688274,4.05833333 C18.1481496,4.05833333 17.2396608,3.14984447 17.2396608,2.02916667 C17.2396608,0.908488862 18.1481496,-3.10862447e-13 19.2688274,-3.10862447e-13 C20.3895052,-3.10862447e-13 21.2979941,0.908488862 21.2979941,2.02916667 C21.2979941,3.14984447 20.3895052,4.05833333 19.2688274,4.05833333 Z M31.2688274,4.05833333 C30.1481496,4.05833333 29.2396608,3.14984447 29.2396608,2.02916667 C29.2396608,0.908488862 30.1481496,-3.10862447e-13 31.2688274,-3.10862447e-13 C32.3895052,-3.10862447e-13 33.2979941,0.908488862 33.2979941,2.02916667 C33.2979941,3.14984447 32.3895052,4.05833333 31.2688274,4.05833333 Z M43.2688274,4.05833333 C42.1481496,4.05833333 41.2396608,3.14984447 41.2396608,2.02916667 C41.2396608,0.908488862 42.1481496,-3.10862447e-13 43.2688274,-3.10862447e-13 C44.3895052,-3.10862447e-13 45.2979941,0.908488862 45.2979941,2.02916667 C45.2979941,3.14984447 44.3895052,4.05833333 43.2688274,4.05833333 Z M55.2688274,4.05833333 C54.1481496,4.05833333 53.2396608,3.14984447 53.2396608,2.02916667 C53.2396608,0.908488862 54.1481496,-3.10862447e-13 55.2688274,-3.10862447e-13 C56.3895052,-3.10862447e-13 57.2979941,0.908488862 57.2979941,2.02916667 C57.2979941,3.14984447 56.3895052,4.05833333 55.2688274,4.05833333 Z M67.2688274,4.05833333 C66.1481496,4.05833333 65.2396608,3.14984447 65.2396608,2.02916667 C65.2396608,0.908488862 66.1481496,-3.10862447e-13 67.2688274,-3.10862447e-13 C68.3895052,-3.10862447e-13 69.2979941,0.908488862 69.2979941,2.02916667 C69.2979941,3.14984447 68.3895052,4.05833333 67.2688274,4.05833333 Z M79.2688274,4.05833333 C78.1481496,4.05833333 77.2396608,3.14984447 77.2396608,2.02916667 C77.2396608,0.908488862 78.1481496,-3.10862447e-13 79.2688274,-3.10862447e-13 C80.3895052,-3.10862447e-13 81.2979941,0.908488862 81.2979941,2.02916667 C81.2979941,3.14984447 80.3895052,4.05833333 79.2688274,4.05833333 Z M91.2688274,4.05833333 C90.1481496,4.05833333 89.2396608,3.14984447 89.2396608,2.02916667 C89.2396608,0.908488862 90.1481496,-3.10862447e-13 91.2688274,-3.10862447e-13 C92.3895052,-3.10862447e-13 93.2979941,0.908488862 93.2979941,2.02916667 C93.2979941,3.14984447 92.3895052,4.05833333 91.2688274,4.05833333 Z M103.268827,4.05833333 C102.14815,4.05833333 101.239661,3.14984447 101.239661,2.02916667 C101.239661,0.908488862 102.14815,-3.10862447e-13 103.268827,-3.10862447e-13 C104.389505,-3.10862447e-13 105.297994,0.908488862 105.297994,2.02916667 C105.297994,3.14984447 104.389505,4.05833333 103.268827,4.05833333 Z M115.268827,4.05833333 C114.14815,4.05833333 113.239661,3.14984447 113.239661,2.02916667 C113.239661,0.908488862 114.14815,-3.10862447e-13 115.268827,-3.10862447e-13 C116.389505,-3.10862447e-13 117.297994,0.908488862 117.297994,2.02916667 C117.297994,3.14984447 116.389505,4.05833333 115.268827,4.05833333 Z M127.268827,4.05833333 C126.14815,4.05833333 125.239661,3.14984447 125.239661,2.02916667 C125.239661,0.908488862 126.14815,-3.10862447e-13 127.268827,-3.10862447e-13 C128.389505,-3.10862447e-13 129.297994,0.908488862 129.297994,2.02916667 C129.297994,3.14984447 128.389505,4.05833333 127.268827,4.05833333 Z" id="Combined-Shape"></path>
                </g>
            </g>
        </g>
    </g>
</svg>