<svg width="68" height="68" viewBox="0 0 68 68" fill="none" xmlns="http://www.w3.org/2000/svg">
<path d="M25.4209 21.1904C25.745 25.4473 27.4381 23.6124 27.7873 25.4778C28.3681 28.5786 31.1134 30.8214 32.8223 31.5961C33.8194 32.0478 34.8461 32.2744 35.9256 32.2925V32.2934C35.9293 32.2934 35.933 32.293 35.9368 32.293C35.9405 32.293 35.9443 32.2934 35.948 32.2934V32.2925C37.0274 32.2744 38.054 32.0479 39.0512 31.5961C40.7602 30.8214 43.5055 28.5786 44.0862 25.4778C44.4355 23.6125 46.1285 25.4473 46.4527 21.1904C46.4527 19.4939 45.5283 19.0717 45.5283 19.0717C45.5283 19.0717 45.9982 16.5607 46.1822 14.6285C46.4103 12.2205 44.7767 6 36.0627 6C36.0246 6 35.9892 6.00208 35.9521 6.00249C35.9507 6.00249 35.9495 6.00249 35.9481 6.00239V6.00197C35.9444 6.00208 35.9406 6.00218 35.9369 6.00218C35.9331 6.00218 35.9294 6.00208 35.9257 6.00197V6.00249C35.9243 6.0026 35.9231 6.0026 35.9217 6.0026C35.8845 6.00208 35.8492 6.0001 35.8111 6.0001C27.0972 6.0001 25.4635 12.2206 25.6915 14.6286C25.8755 16.5608 26.3455 19.0718 26.3455 19.0718C26.3455 19.0718 25.4209 19.4939 25.4209 21.1904Z" fill="#2D2D2D"/>
<path d="M55.7043 42.0874C51.309 39.8514 44.9384 37.0586 44.6327 36.96C44.6293 36.9588 44.6267 36.9586 44.6233 36.9575C44.4446 36.8938 44.2524 36.8585 44.0516 36.8585C43.3048 36.8585 42.6714 37.3368 42.4364 38.0034C42.4352 38.0026 42.4339 38.0021 42.4327 38.0013C41.2982 40.7351 39.2144 45.6082 37.9204 47.958L37.6088 41.3702C37.6088 41.3702 39.552 37.246 39.7646 36.8682C40.2654 35.9825 39.8144 35.2285 38.8757 35.2285C38.4101 35.2285 37.2452 35.2285 36.0784 35.2285C36.0771 35.2285 36.0758 35.2285 36.0745 35.2285C36.067 35.2285 36.0595 35.2285 36.052 35.2285C36.0507 35.2285 36.0494 35.2285 36.0481 35.2285C36.0321 35.2285 36.0161 35.2285 36.0001 35.2285C35.9841 35.2285 35.9681 35.2285 35.9521 35.2285C35.9507 35.2285 35.9495 35.2285 35.9481 35.2285C35.9407 35.2285 35.9332 35.2285 35.9257 35.2285C35.9243 35.2285 35.9231 35.2285 35.9217 35.2285C34.7551 35.2285 33.5903 35.2285 33.1245 35.2285C32.1858 35.2285 31.7349 35.9825 32.2355 36.8682C32.4483 37.246 34.3914 41.3702 34.3914 41.3702L34.0798 47.958C32.7859 45.6082 30.702 40.7354 29.5676 38.0013C29.5663 38.0021 29.5651 38.0026 29.5639 38.0034C29.3289 37.3371 28.6955 36.8585 27.9487 36.8585C27.7479 36.8585 27.5557 36.8938 27.3769 36.9575C27.3736 36.9588 27.371 36.9591 27.3676 36.96C27.0619 37.0586 20.6913 39.8514 16.296 42.0874C14.3221 43.0915 13.1309 44.3405 13.1309 45.6548C13.1309 50 13.1309 55.9999 13.1309 55.9999H35.9058H35.9256H35.9365H35.9371H35.9482H35.9681H36.0002H36.0323H36.0521H36.063H36.0637H36.0746H36.0944H58.8694C58.8694 55.9999 58.8694 50 58.8694 45.6548C58.8693 44.3405 57.6781 43.0915 55.7043 42.0874Z" fill="#2D2D2D"/>
<line x1="2.23223" y1="66.2322" x2="66.2322" y2="2.23224" stroke="#CC1237" stroke-width="5"/>
</svg>
