<svg width="60" height="50" viewBox="0 0 60 50" fill="none" xmlns="http://www.w3.org/2000/svg">
<path fill-rule="evenodd" clip-rule="evenodd" d="M47.2863 24.0225C48.7147 21.2427 48.8682 18.6437 47.7019 16.6236C46.493 14.5297 43.9982 13.3385 40.6772 13.2695C38.2385 13.2195 35.4695 13.7747 32.6931 14.8548C33.65 11.591 33.3414 9.00001 31.7701 7.42876C29.8819 5.54051 26.5085 5.47571 22.2714 7.24618C18.3204 8.89712 13.9787 11.9724 10.0458 15.905C4.18852 21.7624 0.296953 28.5564 0.110742 33.2406C0.0372656 33.705 0 34.1694 0 34.622C0 38.8165 2.94023 42.7099 8.27906 45.5845C13.4187 48.3522 20.2297 49.8762 27.4575 49.8762C34.6853 49.8762 41.4963 48.3522 46.6359 45.5845C51.9748 42.7099 54.915 38.8165 54.915 34.622C54.9151 30.5938 52.2159 26.8575 47.2863 24.0225Z" fill="#EA533B"/>
<path fill-rule="evenodd" clip-rule="evenodd" d="M30.5084 48.8592C23.2806 48.8592 16.4695 47.3352 11.3299 44.5676C5.99109 41.693 3.05086 37.7995 3.05086 33.605C3.05086 33.1523 3.08812 32.688 3.1616 32.2238C3.34781 27.5394 7.23938 20.7456 13.0968 14.8882C16.9905 10.9945 21.2846 7.9425 25.2039 6.27985C24.2835 6.49348 23.3033 6.81492 22.2715 7.24606C18.3205 8.89699 13.9788 11.9722 10.0459 15.9049C4.18852 21.7625 0.296953 28.5565 0.110742 33.2407C0.0372656 33.705 0 34.1694 0 34.622C0 38.8165 2.94023 42.7099 8.27906 45.5845C13.4187 48.3522 20.2297 49.8762 27.4575 49.8762C33.1547 49.8762 38.5922 48.9286 43.157 47.1722C39.2991 48.2743 34.9839 48.8592 30.5084 48.8592Z" fill="#D93C1C"/>
<path fill-rule="evenodd" clip-rule="evenodd" d="M42.6785 31.5272C42.3776 28.0625 40.0909 25.0104 36.2398 22.9329C32.5271 20.93 27.7669 20.063 22.8356 20.4913C17.9045 20.9197 13.3648 22.5947 10.0533 25.2077C6.61804 27.9184 4.89176 31.3192 5.19281 34.7837C5.49386 38.2484 7.78054 41.3005 11.6318 43.378C14.7243 45.0463 18.543 45.9266 22.5826 45.9265C23.3927 45.9265 24.2121 45.8911 25.0358 45.8195C29.967 45.3913 34.5066 43.7162 37.818 41.1032C41.2534 38.3925 42.9795 34.9917 42.6785 31.5272Z" fill="white"/>
<path fill-rule="evenodd" clip-rule="evenodd" d="M26.9953 44.803C26.1716 44.8746 25.3522 44.91 24.5421 44.91C20.5025 44.9101 16.6836 44.0298 13.5913 42.3615C9.74014 40.2839 7.45323 37.2318 7.15229 33.7672C6.85124 30.3027 8.57741 26.9019 12.0128 24.1912C12.6923 23.6551 13.4244 23.1591 14.2001 22.7045C12.6774 23.3996 11.2808 24.2391 10.053 25.2077C6.6178 27.9184 4.89151 31.3192 5.19257 34.7837C5.49362 38.2484 7.7803 41.3005 11.6316 43.378C14.724 45.0463 18.5428 45.9266 22.5824 45.9265C23.3925 45.9265 24.2119 45.8911 25.0356 45.8195C28.9549 45.4791 32.6259 44.3505 35.6305 42.5899C33.0462 43.7699 30.0985 44.5335 26.9953 44.803Z" fill="#E5E5E5"/>
<path fill-rule="evenodd" clip-rule="evenodd" d="M33.5918 31.5859C32.4777 26.9518 27.082 24.2607 21.5639 25.5872C16.0458 26.9137 12.463 31.7633 13.5769 36.3976C14.1256 38.6796 15.7045 40.5568 18.0233 41.6834C19.4627 42.3826 21.0822 42.7384 22.7524 42.7384C23.6949 42.7384 24.6533 42.6251 25.6047 42.3964C31.1229 41.0698 34.7059 36.2203 33.5918 31.5859Z" fill="#333333"/>
<path fill-rule="evenodd" clip-rule="evenodd" d="M20.8474 39.7066C22.8132 39.7066 24.4068 38.1131 24.4068 36.1473C24.4068 34.1815 22.8132 32.588 20.8474 32.588C18.8817 32.588 17.2881 34.1815 17.2881 36.1473C17.2881 38.1131 18.8817 39.7066 20.8474 39.7066Z" fill="white"/>
<path fill-rule="evenodd" clip-rule="evenodd" d="M43.7287 8.6898C42.8863 8.6898 42.2033 9.37277 42.2033 10.2152C42.2033 11.0577 42.8863 11.7407 43.7287 11.7407C46.8129 11.7407 49.322 14.2498 49.322 17.3339C49.322 18.1764 50.0049 18.8593 50.8474 18.8593C51.6899 18.8593 52.3728 18.1764 52.3728 17.3339C52.3727 12.5675 48.495 8.6898 43.7287 8.6898Z" fill="#FFA929"/>
<path fill-rule="evenodd" clip-rule="evenodd" d="M42.7119 0.0457001C42.3298 0.0457001 41.9427 0.0583563 41.5615 0.0834344C40.4407 0.157145 39.5918 1.12558 39.6654 2.24648C39.7391 3.36726 40.7084 4.2157 41.8284 4.14258C42.1212 4.12336 42.4185 4.11351 42.7119 4.11351C50.0017 4.11351 55.9322 10.0441 55.9322 17.3338C55.9322 18.2251 55.8432 19.1155 55.6677 19.98C55.5041 20.7857 55.8659 21.6451 56.5555 22.0923C57.2575 22.5475 58.2091 22.5127 58.8792 22.0132C59.2763 21.7173 59.5559 21.2741 59.6543 20.7892C59.8838 19.6588 60 18.4963 60 17.3337C60 7.80129 52.2445 0.0457001 42.7119 0.0457001Z" fill="#FFA929"/>
<path fill-rule="evenodd" clip-rule="evenodd" d="M27.4576 34.622C28.5809 34.622 29.4915 33.7114 29.4915 32.5881C29.4915 31.4648 28.5809 30.5542 27.4576 30.5542C26.3343 30.5542 25.4237 31.4648 25.4237 32.5881C25.4237 33.7114 26.3343 34.622 27.4576 34.622Z" fill="white"/>
</svg>
