<?xml version="1.0" encoding="UTF-8"?>
<svg width="238px" height="36px" viewBox="0 0 238 36" version="1.1" xmlns="http://www.w3.org/2000/svg" xmlns:xlink="http://www.w3.org/1999/xlink">
    <!-- Generator: Sketch 52.2 (67145) - http://www.bohemiancoding.com/sketch -->
    <title>whatsup</title>
    <desc>Created with Sketch.</desc>
    <defs>
        <linearGradient x1="50%" y1="0%" x2="50%" y2="100%" id="linearGradient-1">
            <stop stop-color="#7AD06D" offset="0%"></stop>
            <stop stop-color="#BAF8B1" offset="100%"></stop>
        </linearGradient>
    </defs>
    <g id="Design" stroke="none" stroke-width="1" fill="none" fill-rule="evenodd">
        <g id="wechat" transform="translate(-218.000000, -870.000000)">
            <g id="whatsup" transform="translate(218.000000, 870.000000)">
                <g id="whatsapp" fill="#7AD06D">
                    <path d="M14.273726,0.017326969 C6.31009615,0.393794749 0.0256730769,6.97847255 0.0498317308,14.8940334 C0.0571875,17.3049165 0.643413462,19.5804773 1.67754808,21.5911217 L0.0897836538,29.2431265 C0.00389423077,29.6570406 0.379903846,30.0194749 0.7940625,29.9221002 L8.34620192,28.1456563 C10.2864663,29.1052267 12.4657933,29.6594749 14.7722596,29.6944153 C22.911851,29.817852 29.6988462,23.401074 29.9525481,15.3227685 C30.2244952,6.66336516 23.0260817,-0.396515513 14.273726,0.017326969 Z M23.2850481,23.0689976 C21.0733413,25.2648687 18.1326923,26.4741766 15.0049038,26.4741766 C13.1734615,26.4741766 11.4200481,26.0662053 9.79319712,25.2616468 L8.74146635,24.7414797 L4.11122596,25.8306444 L5.08586538,21.1332458 L4.56771635,20.1258473 C3.72317308,18.4837232 3.29495192,16.7079952 3.29495192,14.8480668 C3.29495192,11.7426014 4.51298077,8.82307876 6.7246875,6.62713604 C8.91663462,4.45088305 11.9052404,3.22188544 15.0051202,3.22188544 C18.1329087,3.22195704 21.0734135,4.43126492 23.2851202,6.62706444 C25.4968269,8.82293556 26.7148558,11.7424582 26.7149279,14.847852 C26.7148558,17.9256086 25.4769952,20.8928162 23.2850481,23.0689976 Z" id="Shape" fill-rule="nonzero"></path>
                    <path d="M22.2628846,18.0680907 L19.3660817,17.2422673 C18.9852404,17.1337232 18.5751202,17.2409785 18.2976202,17.5217184 L17.5892308,18.2382816 C17.2905288,18.5404296 16.8372837,18.6375179 16.4419471,18.4787112 C15.0716106,17.9281146 12.1890144,15.3834845 11.4528606,14.1106683 C11.2404808,13.7435084 11.275601,13.2844869 11.5363702,12.9494749 L12.1548317,12.1550835 C12.3971394,11.8438425 12.4482692,11.4258473 12.2880288,11.0660621 L11.0692788,8.32933174 C10.7773558,7.67384248 9.93367788,7.48303103 9.3825,7.94584726 C8.57401442,8.6247494 7.61473558,9.65642005 7.498125,10.7993556 C7.29252404,12.8144391 8.16295673,15.3546301 11.4545192,18.4047494 C15.2571635,21.9284964 18.3023077,22.3940334 20.284976,21.9171838 C21.4095433,21.6467542 22.3082452,20.5626014 22.8754327,19.6749165 C23.2621154,19.0696897 22.9567788,18.2659189 22.2628846,18.0680907 Z" id="Path"></path>
                </g>
                <g id="Combined-Shape-2" transform="translate(56.000000, 11.000000)" fill="url(#linearGradient-1)">
                    <path d="M169.19519,13.8528842 C168.614433,14.2641386 167.489831,13.9761087 167.374846,13.0064815 C167.179013,11.3393519 166.894753,9.66435185 166.034105,8.25416667 C166.034105,8.70046296 166.033179,9.34212963 166.032253,10.0601852 L165.94105,17.5837963 C165.94105,19.5782407 165.94105,21.5736111 165.94105,23.5685185 C165.94105,24.9574074 163.787346,24.9574074 163.787346,23.5685185 C163.787346,21.574537 163.787346,17.0212963 163.787346,15.0263889 L162.732716,15.0263889 L162.732716,23.5412037 C162.732716,24.1814815 162.197994,24.7013889 161.539198,24.7013889 C160.879939,24.7013889 160.410494,24.1814815 160.410494,23.5412037 L160.410494,17.5842593 L160.425309,10.075463 L160.429013,8.51296296 C159.625772,9.89768519 159.35355,11.5236111 159.162809,13.1421296 C159.038082,14.2023042 157.703606,14.4470902 157.19519,13.8528842 C156.614433,14.2641386 155.489831,13.9761087 155.374846,13.0064815 C155.179013,11.3393519 154.894753,9.66435185 154.034105,8.25416667 C154.034105,8.70046296 154.033179,9.34212963 154.032253,10.0601852 L153.94105,17.5837963 C153.94105,19.5782407 153.94105,21.5736111 153.94105,23.5685185 C153.94105,24.9574074 151.787346,24.9574074 151.787346,23.5685185 C151.787346,21.574537 151.787346,17.0212963 151.787346,15.0263889 L150.732716,15.0263889 L150.732716,23.5412037 C150.732716,24.1814815 150.197994,24.7013889 149.539198,24.7013889 C148.879939,24.7013889 148.410494,24.1814815 148.410494,23.5412037 L148.410494,17.5842593 L148.425309,10.075463 L148.429013,8.51296296 C147.625772,9.89768519 147.35355,11.5236111 147.162809,13.1421296 C147.038082,14.2023042 145.703606,14.4470902 145.19519,13.8528842 C144.614433,14.2641386 143.489831,13.9761087 143.374846,13.0064815 C143.179013,11.3393519 142.894753,9.66435185 142.034105,8.25416667 C142.034105,8.70046296 142.033179,9.34212963 142.032253,10.0601852 L141.94105,17.5837963 C141.94105,19.5782407 141.94105,21.5736111 141.94105,23.5685185 C141.94105,24.9574074 139.787346,24.9574074 139.787346,23.5685185 C139.787346,21.574537 139.787346,17.0212963 139.787346,15.0263889 L138.732716,15.0263889 L138.732716,23.5412037 C138.732716,24.1814815 138.197994,24.7013889 137.539198,24.7013889 C136.879939,24.7013889 136.410494,24.1814815 136.410494,23.5412037 L136.410494,17.5842593 L136.425309,10.075463 L136.429013,8.51296296 C135.625772,9.89768519 135.35355,11.5236111 135.162809,13.1421296 C135.038082,14.2023042 133.703606,14.4470902 133.19519,13.8528842 C132.614433,14.2641386 131.489831,13.9761087 131.374846,13.0064815 C131.179013,11.3393519 130.894753,9.66435185 130.034105,8.25416667 C130.034105,8.70046296 130.033179,9.34212963 130.032253,10.0601852 L129.94105,17.5837963 C129.94105,19.5782407 129.94105,21.5736111 129.94105,23.5685185 C129.94105,24.9574074 127.787346,24.9574074 127.787346,23.5685185 C127.787346,21.574537 127.787346,17.0212963 127.787346,15.0263889 L126.732716,15.0263889 L126.732716,23.5412037 C126.732716,24.1814815 126.197994,24.7013889 125.539198,24.7013889 C124.879939,24.7013889 124.410494,24.1814815 124.410494,23.5412037 L124.410494,17.5842593 L124.425309,10.075463 L124.429013,8.51296296 C123.625772,9.89768519 123.35355,11.5236111 123.162809,13.1421296 C123.038082,14.2023042 121.703606,14.4470902 121.19519,13.8528842 C120.614433,14.2641386 119.489831,13.9761087 119.374846,13.0064815 C119.179013,11.3393519 118.894753,9.66435185 118.034105,8.25416667 C118.034105,8.70046296 118.033179,9.34212963 118.032253,10.0601852 L117.94105,17.5837963 C117.94105,19.5782407 117.94105,21.5736111 117.94105,23.5685185 C117.94105,24.9574074 115.787346,24.9574074 115.787346,23.5685185 C115.787346,21.574537 115.787346,17.0212963 115.787346,15.0263889 L114.732716,15.0263889 L114.732716,23.5412037 C114.732716,24.1814815 114.197994,24.7013889 113.539198,24.7013889 C112.879939,24.7013889 112.410494,24.1814815 112.410494,23.5412037 L112.410494,17.5842593 L112.425309,10.075463 L112.429013,8.51296296 C111.625772,9.89768519 111.35355,11.5236111 111.162809,13.1421296 C111.038082,14.2023042 109.703606,14.4470902 109.19519,13.8528842 C108.614433,14.2641386 107.489831,13.9761087 107.374846,13.0064815 C107.179013,11.3393519 106.894753,9.66435185 106.034105,8.25416667 C106.034105,8.70046296 106.033179,9.34212963 106.032253,10.0601852 L105.94105,17.5837963 C105.94105,19.5782407 105.94105,21.5736111 105.94105,23.5685185 C105.94105,24.9574074 103.787346,24.9574074 103.787346,23.5685185 C103.787346,21.574537 103.787346,17.0212963 103.787346,15.0263889 L102.732716,15.0263889 L102.732716,23.5412037 C102.732716,24.1814815 102.197994,24.7013889 101.539198,24.7013889 C100.879939,24.7013889 100.410494,24.1814815 100.410494,23.5412037 L100.410494,17.5842593 L100.425309,10.075463 L100.429013,8.51296296 C99.6257719,9.89768519 99.3535496,11.5236111 99.1628089,13.1421296 C99.0380825,14.2023042 97.7036059,14.4470902 97.1951897,13.8528842 C96.6144327,14.2641386 95.4898306,13.9761087 95.3748459,13.0064815 C95.1790126,11.3393519 94.8947534,9.66435185 94.0341052,8.25416667 C94.0341052,8.70046296 94.0331793,9.34212963 94.0322534,10.0601852 L93.9410496,17.5837963 C93.9410496,19.5782407 93.9410496,21.5736111 93.9410496,23.5685185 C93.9410496,24.9574074 91.7873459,24.9574074 91.7873459,23.5685185 C91.7873459,21.574537 91.7873459,17.0212963 91.7873459,15.0263889 L90.7327163,15.0263889 L90.7327163,23.5412037 C90.7327163,24.1814815 90.1979941,24.7013889 89.5391978,24.7013889 C88.8799385,24.7013889 88.4104941,24.1814815 88.4104941,23.5412037 L88.4104941,17.5842593 L88.4253089,10.075463 L88.4290126,8.51296296 C87.6257719,9.89768519 87.3535496,11.5236111 87.1628089,13.1421296 C87.0380825,14.2023042 85.7036059,14.4470902 85.1951897,13.8528842 C84.6144327,14.2641386 83.4898306,13.9761087 83.3748459,13.0064815 C83.1790126,11.3393519 82.8947534,9.66435185 82.0341052,8.25416667 C82.0341052,8.70046296 82.0331793,9.34212963 82.0322534,10.0601852 L81.9410496,17.5837963 C81.9410496,19.5782407 81.9410496,21.5736111 81.9410496,23.5685185 C81.9410496,24.9574074 79.7873459,24.9574074 79.7873459,23.5685185 C79.7873459,21.574537 79.7873459,17.0212963 79.7873459,15.0263889 L78.7327163,15.0263889 L78.7327163,23.5412037 C78.7327163,24.1814815 78.1979941,24.7013889 77.5391978,24.7013889 C76.8799385,24.7013889 76.4104941,24.1814815 76.4104941,23.5412037 L76.4104941,17.5842593 L76.4253089,10.075463 L76.4290126,8.51296296 C75.6257719,9.89768519 75.3535496,11.5236111 75.1628089,13.1421296 C75.0380825,14.2023042 73.7036059,14.4470902 73.1951897,13.8528842 C72.6144327,14.2641386 71.4898306,13.9761087 71.3748459,13.0064815 C71.1790126,11.3393519 70.8947534,9.66435185 70.0341052,8.25416667 C70.0341052,8.70046296 70.0331793,9.34212963 70.0322534,10.0601852 L69.9410496,17.5837963 C69.9410496,19.5782407 69.9410496,21.5736111 69.9410496,23.5685185 C69.9410496,24.9574074 67.7873459,24.9574074 67.7873459,23.5685185 C67.7873459,21.574537 67.7873459,17.0212963 67.7873459,15.0263889 L66.7327163,15.0263889 L66.7327163,23.5412037 C66.7327163,24.1814815 66.1979941,24.7013889 65.5391978,24.7013889 C64.8799385,24.7013889 64.4104941,24.1814815 64.4104941,23.5412037 L64.4104941,17.5842593 L64.4253089,10.075463 L64.4290126,8.51296296 C63.6257719,9.89768519 63.3535496,11.5236111 63.1628089,13.1421296 C63.0380825,14.2023042 61.7036059,14.4470902 61.1951897,13.8528842 C60.6144327,14.2641386 59.4898306,13.9761087 59.3748459,13.0064815 C59.1790126,11.3393519 58.8947534,9.66435185 58.0341052,8.25416667 C58.0341052,8.70046296 58.0331793,9.34212963 58.0322534,10.0601852 L57.9410496,17.5837963 C57.9410496,19.5782407 57.9410496,21.5736111 57.9410496,23.5685185 C57.9410496,24.9574074 55.7873459,24.9574074 55.7873459,23.5685185 C55.7873459,21.574537 55.7873459,17.0212963 55.7873459,15.0263889 L54.7327163,15.0263889 L54.7327163,23.5412037 C54.7327163,24.1814815 54.1979941,24.7013889 53.5391978,24.7013889 C52.8799385,24.7013889 52.4104941,24.1814815 52.4104941,23.5412037 L52.4104941,17.5842593 L52.4253089,10.075463 L52.4290126,8.51296296 C51.6257719,9.89768519 51.3535496,11.5236111 51.1628089,13.1421296 C51.0380825,14.2023042 49.7036059,14.4470902 49.1951897,13.8528842 C48.6144327,14.2641386 47.4898306,13.9761087 47.3748459,13.0064815 C47.1790126,11.3393519 46.8947534,9.66435185 46.0341052,8.25416667 C46.0341052,8.70046296 46.0331793,9.34212963 46.0322534,10.0601852 L45.9410496,17.5837963 C45.9410496,19.5782407 45.9410496,21.5736111 45.9410496,23.5685185 C45.9410496,24.9574074 43.7873459,24.9574074 43.7873459,23.5685185 C43.7873459,21.574537 43.7873459,17.0212963 43.7873459,15.0263889 L42.7327163,15.0263889 L42.7327163,23.5412037 C42.7327163,24.1814815 42.1979941,24.7013889 41.5391978,24.7013889 C40.8799385,24.7013889 40.4104941,24.1814815 40.4104941,23.5412037 L40.4104941,17.5842593 L40.4253089,10.075463 L40.4290126,8.51296296 C39.6257719,9.89768519 39.3535496,11.5236111 39.1628089,13.1421296 C39.0380825,14.2023042 37.7036059,14.4470902 37.1951897,13.8528842 C36.6144327,14.2641386 35.4898306,13.9761087 35.3748459,13.0064815 C35.1790126,11.3393519 34.8947534,9.66435185 34.0341052,8.25416667 C34.0341052,8.70046296 34.0331793,9.34212963 34.0322534,10.0601852 L33.9410496,17.5837963 C33.9410496,19.5782407 33.9410496,21.5736111 33.9410496,23.5685185 C33.9410496,24.9574074 31.7873459,24.9574074 31.7873459,23.5685185 C31.7873459,21.574537 31.7873459,17.0212963 31.7873459,15.0263889 L30.7327163,15.0263889 L30.7327163,23.5412037 C30.7327163,24.1814815 30.1979941,24.7013889 29.5391978,24.7013889 C28.8799385,24.7013889 28.4104941,24.1814815 28.4104941,23.5412037 L28.4104941,17.5842593 L28.4253089,10.075463 L28.4290126,8.51296296 C27.6257719,9.89768519 27.3535496,11.5236111 27.1628089,13.1421296 C27.0380825,14.2023042 25.7036059,14.4470902 25.1951897,13.8528842 C24.6144327,14.2641386 23.4898306,13.9761087 23.3748459,13.0064815 C23.1790126,11.3393519 22.8947534,9.66435185 22.0341052,8.25416667 C22.0341052,8.70046296 22.0331793,9.34212963 22.0322534,10.0601852 L21.9410496,17.5837963 C21.9410496,19.5782407 21.9410496,21.5736111 21.9410496,23.5685185 C21.9410496,24.9574074 19.7873459,24.9574074 19.7873459,23.5685185 C19.7873459,21.574537 19.7873459,17.0212963 19.7873459,15.0263889 L18.7327163,15.0263889 L18.7327163,23.5412037 C18.7327163,24.1814815 18.1979941,24.7013889 17.5391978,24.7013889 C16.8799385,24.7013889 16.4104941,24.1814815 16.4104941,23.5412037 L16.4104941,17.5842593 L16.4253089,10.075463 L16.4290126,8.51296296 C15.6257719,9.89768519 15.3535496,11.5236111 15.1628089,13.1421296 C15.0026237,14.5037037 12.8470682,14.5203704 13.0086422,13.1421296 C13.3280867,10.4300926 13.7947534,7.62222222 15.8155867,5.78287037 C18.9327163,3.51574074 21.8938274,5.29583333 21.8938274,5.29583333 C21.8938274,5.29583333 24.363624,6.32958017 25.2824423,11.1938579 C25.6403121,9.14207557 26.2781944,7.18219671 27.8155867,5.78287037 C30.9327163,3.51574074 33.8938274,5.29583333 33.8938274,5.29583333 C33.8938274,5.29583333 36.363624,6.32958017 37.2824423,11.1938579 C37.6403121,9.14207557 38.2781944,7.18219671 39.8155867,5.78287037 C42.9327163,3.51574074 45.8938274,5.29583333 45.8938274,5.29583333 C45.8938274,5.29583333 48.363624,6.32958017 49.2824423,11.1938579 C49.6403121,9.14207557 50.2781944,7.18219671 51.8155867,5.78287037 C54.9327163,3.51574074 57.8938274,5.29583333 57.8938274,5.29583333 C57.8938274,5.29583333 60.363624,6.32958017 61.2824423,11.1938579 C61.6403121,9.14207557 62.2781944,7.18219671 63.8155867,5.78287037 C66.9327163,3.51574074 69.8938274,5.29583333 69.8938274,5.29583333 C69.8938274,5.29583333 72.363624,6.32958017 73.2824423,11.1938579 C73.6403121,9.14207557 74.2781944,7.18219671 75.8155867,5.78287037 C78.9327163,3.51574074 81.8938274,5.29583333 81.8938274,5.29583333 C81.8938274,5.29583333 84.363624,6.32958017 85.2824423,11.1938579 C85.6403121,9.14207557 86.2781944,7.18219671 87.8155867,5.78287037 C90.9327163,3.51574074 93.8938274,5.29583333 93.8938274,5.29583333 C93.8938274,5.29583333 96.363624,6.32958017 97.2824423,11.1938579 C97.6403121,9.14207557 98.2781944,7.18219671 99.8155867,5.78287037 C102.932716,3.51574074 105.893827,5.29583333 105.893827,5.29583333 C105.893827,5.29583333 108.363624,6.32958017 109.282442,11.1938579 C109.640312,9.14207557 110.278194,7.18219671 111.815587,5.78287037 C114.932716,3.51574074 117.893827,5.29583333 117.893827,5.29583333 C117.893827,5.29583333 120.363624,6.32958017 121.282442,11.1938579 C121.640312,9.14207557 122.278194,7.18219671 123.815587,5.78287037 C126.932716,3.51574074 129.893827,5.29583333 129.893827,5.29583333 C129.893827,5.29583333 132.363624,6.32958017 133.282442,11.1938579 C133.640312,9.14207557 134.278194,7.18219671 135.815587,5.78287037 C138.932716,3.51574074 141.893827,5.29583333 141.893827,5.29583333 C141.893827,5.29583333 144.363624,6.32958017 145.282442,11.1938579 C145.640312,9.14207557 146.278194,7.18219671 147.815587,5.78287037 C150.932716,3.51574074 153.893827,5.29583333 153.893827,5.29583333 C153.893827,5.29583333 156.363624,6.32958017 157.282442,11.1938579 C157.640312,9.14207557 158.278194,7.18219671 159.815587,5.78287037 C162.932716,3.51574074 165.893827,5.29583333 165.893827,5.29583333 C165.893827,5.29583333 168.363624,6.32958017 169.282442,11.1938579 C169.640312,9.14207557 170.278194,7.18219671 171.815587,5.78287037 C174.932716,3.51574074 177.893827,5.29583333 177.893827,5.29583333 C177.893827,5.29583333 180.957716,6.57824074 181.529939,13.0074074 C181.691513,14.3856481 179.53642,14.3689815 179.374846,13.0064815 C179.179013,11.3393519 178.894753,9.66435185 178.034105,8.25416667 C178.034105,8.70046296 178.033179,9.34212963 178.032253,10.0601852 L177.94105,17.5837963 C177.94105,19.5782407 177.94105,21.5736111 177.94105,23.5685185 C177.94105,24.9574074 175.787346,24.9574074 175.787346,23.5685185 C175.787346,21.574537 175.787346,17.0212963 175.787346,15.0263889 L174.732716,15.0263889 L174.732716,23.5412037 C174.732716,24.1814815 174.197994,24.7013889 173.539198,24.7013889 C172.879939,24.7013889 172.410494,24.1814815 172.410494,23.5412037 L172.410494,17.5842593 L172.425309,10.075463 L172.429013,8.51296296 C171.625772,9.89768519 171.35355,11.5236111 171.162809,13.1421296 C171.038082,14.2023042 169.703606,14.4470902 169.19519,13.8528842 Z M6.26882743,4.05833333 C5.14814962,4.05833333 4.23966076,3.14984447 4.23966076,2.02916667 C4.23966076,0.908488862 5.14814962,-3.10862447e-13 6.26882743,-3.10862447e-13 C7.38950523,-3.10862447e-13 8.29799409,0.908488862 8.29799409,2.02916667 C8.29799409,3.14984447 7.38950523,4.05833333 6.26882743,4.05833333 Z M12.5299385,13.0074074 C12.6915126,14.3856481 10.53642,14.3689815 10.3748459,13.0064815 C10.1790126,11.3393519 9.89475335,9.66435185 9.0341052,8.25416667 C9.0341052,8.70046296 9.03317928,9.34212963 9.03225335,10.0601852 L8.94104965,17.5837963 C8.94104965,19.5782407 8.94104965,21.5736111 8.94104965,23.5685185 C8.94104965,24.9574074 6.78734595,24.9574074 6.78734595,23.5685185 C6.78734595,21.574537 6.78734595,17.0212963 6.78734595,15.0263889 L5.73271632,15.0263889 L5.73271632,23.5412037 C5.73271632,24.1814815 5.19799409,24.7013889 4.5391978,24.7013889 C3.87993854,24.7013889 3.41049409,24.1814815 3.41049409,23.5412037 L3.41049409,17.5842593 L3.42530891,10.075463 L3.42901261,8.51296296 C2.62577187,9.89768519 2.35354965,11.5236111 2.16280891,13.1421296 C2.00262372,14.5037037 -0.152931832,14.5203704 0.00864224172,13.1421296 C0.328086686,10.4300926 0.794753353,7.62222222 2.81558669,5.78287037 C5.93271632,3.51574074 8.89382743,5.29583333 8.89382743,5.29583333 C8.89382743,5.29583333 11.9577163,6.57824074 12.5299385,13.0074074 Z M19.2688274,4.05833333 C18.1481496,4.05833333 17.2396608,3.14984447 17.2396608,2.02916667 C17.2396608,0.908488862 18.1481496,-3.10862447e-13 19.2688274,-3.10862447e-13 C20.3895052,-3.10862447e-13 21.2979941,0.908488862 21.2979941,2.02916667 C21.2979941,3.14984447 20.3895052,4.05833333 19.2688274,4.05833333 Z M31.2688274,4.05833333 C30.1481496,4.05833333 29.2396608,3.14984447 29.2396608,2.02916667 C29.2396608,0.908488862 30.1481496,-3.10862447e-13 31.2688274,-3.10862447e-13 C32.3895052,-3.10862447e-13 33.2979941,0.908488862 33.2979941,2.02916667 C33.2979941,3.14984447 32.3895052,4.05833333 31.2688274,4.05833333 Z M43.2688274,4.05833333 C42.1481496,4.05833333 41.2396608,3.14984447 41.2396608,2.02916667 C41.2396608,0.908488862 42.1481496,-3.10862447e-13 43.2688274,-3.10862447e-13 C44.3895052,-3.10862447e-13 45.2979941,0.908488862 45.2979941,2.02916667 C45.2979941,3.14984447 44.3895052,4.05833333 43.2688274,4.05833333 Z M55.2688274,4.05833333 C54.1481496,4.05833333 53.2396608,3.14984447 53.2396608,2.02916667 C53.2396608,0.908488862 54.1481496,-3.10862447e-13 55.2688274,-3.10862447e-13 C56.3895052,-3.10862447e-13 57.2979941,0.908488862 57.2979941,2.02916667 C57.2979941,3.14984447 56.3895052,4.05833333 55.2688274,4.05833333 Z M67.2688274,4.05833333 C66.1481496,4.05833333 65.2396608,3.14984447 65.2396608,2.02916667 C65.2396608,0.908488862 66.1481496,-3.10862447e-13 67.2688274,-3.10862447e-13 C68.3895052,-3.10862447e-13 69.2979941,0.908488862 69.2979941,2.02916667 C69.2979941,3.14984447 68.3895052,4.05833333 67.2688274,4.05833333 Z M79.2688274,4.05833333 C78.1481496,4.05833333 77.2396608,3.14984447 77.2396608,2.02916667 C77.2396608,0.908488862 78.1481496,-3.10862447e-13 79.2688274,-3.10862447e-13 C80.3895052,-3.10862447e-13 81.2979941,0.908488862 81.2979941,2.02916667 C81.2979941,3.14984447 80.3895052,4.05833333 79.2688274,4.05833333 Z M91.2688274,4.05833333 C90.1481496,4.05833333 89.2396608,3.14984447 89.2396608,2.02916667 C89.2396608,0.908488862 90.1481496,-3.10862447e-13 91.2688274,-3.10862447e-13 C92.3895052,-3.10862447e-13 93.2979941,0.908488862 93.2979941,2.02916667 C93.2979941,3.14984447 92.3895052,4.05833333 91.2688274,4.05833333 Z M103.268827,4.05833333 C102.14815,4.05833333 101.239661,3.14984447 101.239661,2.02916667 C101.239661,0.908488862 102.14815,-3.10862447e-13 103.268827,-3.10862447e-13 C104.389505,-3.10862447e-13 105.297994,0.908488862 105.297994,2.02916667 C105.297994,3.14984447 104.389505,4.05833333 103.268827,4.05833333 Z M115.268827,4.05833333 C114.14815,4.05833333 113.239661,3.14984447 113.239661,2.02916667 C113.239661,0.908488862 114.14815,-3.10862447e-13 115.268827,-3.10862447e-13 C116.389505,-3.10862447e-13 117.297994,0.908488862 117.297994,2.02916667 C117.297994,3.14984447 116.389505,4.05833333 115.268827,4.05833333 Z M127.268827,4.05833333 C126.14815,4.05833333 125.239661,3.14984447 125.239661,2.02916667 C125.239661,0.908488862 126.14815,-3.10862447e-13 127.268827,-3.10862447e-13 C128.389505,-3.10862447e-13 129.297994,0.908488862 129.297994,2.02916667 C129.297994,3.14984447 128.389505,4.05833333 127.268827,4.05833333 Z M139.268827,4.05833333 C138.14815,4.05833333 137.239661,3.14984447 137.239661,2.02916667 C137.239661,0.908488862 138.14815,-3.10862447e-13 139.268827,-3.10862447e-13 C140.389505,-3.10862447e-13 141.297994,0.908488862 141.297994,2.02916667 C141.297994,3.14984447 140.389505,4.05833333 139.268827,4.05833333 Z M151.268827,4.05833333 C150.14815,4.05833333 149.239661,3.14984447 149.239661,2.02916667 C149.239661,0.908488862 150.14815,-3.10862447e-13 151.268827,-3.10862447e-13 C152.389505,-3.10862447e-13 153.297994,0.908488862 153.297994,2.02916667 C153.297994,3.14984447 152.389505,4.05833333 151.268827,4.05833333 Z M163.268827,4.05833333 C162.14815,4.05833333 161.239661,3.14984447 161.239661,2.02916667 C161.239661,0.908488862 162.14815,-3.10862447e-13 163.268827,-3.10862447e-13 C164.389505,-3.10862447e-13 165.297994,0.908488862 165.297994,2.02916667 C165.297994,3.14984447 164.389505,4.05833333 163.268827,4.05833333 Z M175.268827,4.05833333 C174.14815,4.05833333 173.239661,3.14984447 173.239661,2.02916667 C173.239661,0.908488862 174.14815,-3.10862447e-13 175.268827,-3.10862447e-13 C176.389505,-3.10862447e-13 177.297994,0.908488862 177.297994,2.02916667 C177.297994,3.14984447 176.389505,4.05833333 175.268827,4.05833333 Z" id="Combined-Shape"></path>
                </g>
            </g>
        </g>
    </g>
</svg>