<?xml version="1.0" encoding="UTF-8"?>
<svg width="67px" height="24px" viewBox="0 0 67 24" version="1.1" xmlns="http://www.w3.org/2000/svg" xmlns:xlink="http://www.w3.org/1999/xlink">
    <!-- Generator: Sketch 50.2 (55047) - http://www.bohemiancoding.com/sketch -->
    <title>aia</title>
    <desc>Created with Sketch.</desc>
    <defs></defs>
    <g id="Design" stroke="none" stroke-width="1" fill="none" fill-rule="evenodd">
        <g id="Home-8" transform="translate(-618.000000, -6077.000000)" fill="#FFFFFF" fill-rule="nonzero">
            <g id="aia" transform="translate(618.000000, 6077.000000)">
                <path d="M43.7244102,15.3160305 C41.622636,15.7557252 40.0087736,17.4778626 40.0087736,19.6396947 C40.0087736,22.0580153 41.9979528,24 44.4750439,24 C45.8261844,24 47.0271983,23.3770992 47.890427,22.4610687 C48.9788458,21.2885496 51.9813804,20.5923664 53.7078378,20.5923664 C55.3217001,20.5923664 57.8363229,21.1053435 58.9247417,22.2412214 C59.8630337,23.1938931 61.0265159,23.9633588 62.4902515,23.9633588 C64.9673426,23.9633588 66.9565217,22.021374 66.9565217,19.6030534 C66.9565217,17.4412214 65.3051277,15.7923664 63.2033535,15.2793893 C61.6270228,14.9129771 59.825502,13.080916 58.999805,11.6519084 C58.1365763,10.1862595 57.2733476,7.32824427 57.7612595,5.78931298 C57.9113862,5.34961832 58.0239813,4.87328244 58.0239813,4.36030534 C58.0239813,1.94198473 56.0348021,0 53.5577111,0 C51.08062,0 49.0914408,1.94198473 49.0914408,4.36030534 C49.0914408,4.83664122 49.2040359,5.3129771 49.3166309,5.75267176 C49.8045428,7.25496183 49.1289725,9.85648855 48.2657438,11.3221374 C47.3649834,12.7877863 45.3007409,14.9862595 43.7244102,15.3160305 Z M58.4743615,17.3312977 C57.1982843,18.1374046 55.1340417,18.6503817 53.7078378,18.6503817 C52.2816338,18.6503817 49.9546695,18.1374046 48.5659973,17.3312977 C48.5284656,15.7557252 49.2040359,13.5572519 49.9546695,12.3480916 C50.6677715,11.1389313 52.1315071,9.67328244 53.4826477,8.97709924 C54.9088516,9.70992366 56.522714,11.4320611 57.2358159,12.6412214 C57.9864496,13.8503817 58.5494248,15.8290076 58.4743615,17.3312977 Z M3.71563658,15.3160305 C1.61386235,15.7557252 0,17.4778626 0,19.6396947 C0,22.0580153 1.98917918,24 4.46627023,24 C5.8174108,24 7.01842464,23.3770992 7.88165334,22.4610687 C8.97007214,21.2885496 11.9726067,20.5923664 13.6990641,20.5923664 C15.3129265,20.5923664 17.8275492,21.1053435 18.915968,22.2412214 C19.8542601,23.1938931 21.0177422,23.9633588 22.4814779,23.9633588 C24.9585689,23.9633588 26.9477481,22.021374 26.9477481,19.6030534 C26.9477481,17.4412214 25.2963541,15.7923664 23.1945798,15.2793893 C21.6182492,14.9129771 19.8167284,13.080916 18.9910314,11.6519084 C18.1278027,10.1862595 17.264574,7.32824427 17.7524859,5.78931298 C17.9026126,5.34961832 18.0152076,4.87328244 18.0152076,4.36030534 C17.977676,1.94198473 15.9884968,0 13.5114057,0 C11.0343147,0 9.0451355,1.94198473 9.0451355,4.36030534 C9.0451355,4.83664122 9.15773055,5.3129771 9.2703256,5.75267176 C9.75823747,7.29160305 9.08266719,9.89312977 8.21943849,11.3587786 C7.35620979,12.7877863 5.29196725,14.9862595 3.71563658,15.3160305 Z M18.4655878,17.3312977 C17.1895106,18.1374046 15.1252681,18.6503817 13.6990641,18.6503817 C12.2728602,18.6503817 9.94589589,18.1374046 8.55722363,17.3312977 C8.51969195,15.7557252 9.19526223,13.5572519 9.94589589,12.3480916 C10.6589979,11.1389313 12.1227335,9.67328244 13.473874,8.97709924 C14.900078,9.70992366 16.5139403,11.4320611 17.2270423,12.6412214 C17.977676,13.8503817 18.5406512,15.8290076 18.4655878,17.3312977 Z" id="Shape"></path>
                <path d="M35.9294347,7.63302752 C36.8062569,6.82568807 37.390805,5.65137615 37.390805,4.36697248 C37.4273392,1.94495413 35.4544894,0 33.0432286,0 C30.6319677,0 28.6956522,1.94495413 28.6956522,4.36697248 C28.6956522,5.65137615 29.2802003,6.82568807 30.1570224,7.63302752 C31.3261186,8.69724771 32.0933379,10.2752294 32.0933379,12 C32.0933379,13.7247706 31.3626528,15.3027523 30.1570224,16.3669725 C29.243666,17.1743119 28.6956522,18.3486239 28.6956522,19.6330275 C28.6956522,22.0550459 30.6319677,24 33.0432286,24 C35.4544894,24 37.390805,22.0550459 37.390805,19.6330275 C37.390805,18.3486239 36.8062569,17.1743119 35.9294347,16.3669725 C34.7603386,15.3027523 34.0296535,13.7247706 34.0296535,12 C34.0296535,10.2752294 34.7603386,8.69724771 35.9294347,7.63302752 Z" id="Shape"></path>
            </g>
        </g>
    </g>
</svg>