<svg xmlns="http://www.w3.org/2000/svg" width="44.768" height="42.646" viewBox="0 0 44.768 42.646">
  <g id="airplane-weibo" transform="translate(0 -14.502)">
    <path id="Path_845" data-name="Path 845" d="M44.525,35.07A20.6,20.6,0,0,1,27.074,55.4a4.75,4.75,0,0,0,.051-1.408l-.136-1.163a17.981,17.981,0,0,0,9.173-4.516,2.434,2.434,0,0,1-.448-.5c-.666-.972.2-1.936.2-2.785,0-.833-1.68-.765-1.742-1.317-.212-1.911,1.173-1.937,1.912-2.676s-.73-2.418-1.679-2.309-3.643-.441-3.4-2.5c.3-2.5-3.191-2.284-3.691-3.453A3.357,3.357,0,0,1,29.384,28.5c2.238-.673,4.442-2.5,4.27-4.531A7.609,7.609,0,0,0,30.7,18.363a17.89,17.89,0,0,0-5.725-1.284c-1.8.071-3.378.471-3.306,1.294.177,2.017,5.913,2.541,4.95,4.427-.5.983-4.268,2.37-3.565,3.833.457.951,1.583.136,1.163,1.962-.193.84-.93,2.419-2.063,2.521-1.159.108-2.124-2.962-5.278-3.062-1.491-.048-3.592,2.327-1.808,4.011,1.08,1.02,3.107-1.226,3.705.529.422,1.236-.057,3.833,1.911,4.919.717.4,1.817.741,2.9,1.293a38.651,38.651,0,0,0-5.939,1.847l-1.973-.521c.826-.688,2.168-1.172,1.83-2.674-.5-2.207-4.329-1.375-6.971-4.017A10.542,10.542,0,0,1,8,26.7a18.005,18.005,0,0,0-1.86,11.1c-.031,0-.062-.006-.093-.006a6,6,0,0,0-2.4.505A20.568,20.568,0,1,1,44.525,35.07Z" transform="translate(0.243 0)" fill="#cb2023"/>
    <path id="Path_846" data-name="Path 846" d="M29.34,39.353l-5.023,2.309.078-1.095L27.649,39.1c-.464-.033-.945-.046-1.425-.046-1.8,0-4.836.91-8.2,2.244L7.253,38.454a3.762,3.762,0,0,0-2.961.452l-.53.333a.836.836,0,0,0-.01,1.409l6.477,4.2c-1.547.791-3.015,1.6-4.31,2.363L2.6,45.454A2.09,2.09,0,0,0,.84,45.361l-.315.126a.836.836,0,0,0-.418,1.186l1.831,3.253h0c-.691.594-1.085,1.087-1.085,1.428,0,1.021,1.256,1.276,2.364,1.276,1.975,0,28.058-5.972,28.058-11.383C31.277,40.176,30.544,39.641,29.34,39.353Zm-11,10.564,5.74-2.022a.418.418,0,0,1,.554.346l.5,4.3a2.509,2.509,0,0,1-1.434,2.566l-.538.25a.836.836,0,0,1-.98-.206l-4.02-4.566A.418.418,0,0,1,18.343,49.917Z" transform="translate(0 1.711)" fill="#282625"/>
  </g>
</svg>
