<svg width="35" height="35" viewBox="0 0 35 35" fill="none" xmlns="http://www.w3.org/2000/svg">
<g clip-path="url(#clip0)">
<path d="M31.6645 11.6657C33.3321 13.9497 32.491 17.8358 30.2217 19.4237C27.974 20.997 25.3059 19.1554 25.1608 16.6105C25.0449 14.6022 26.2846 11.7309 28.2931 10.9841C29.3733 10.3026 30.6421 10.2519 31.6645 11.6657Z" fill="#007BC4"/>
<path d="M30.0542 25.6228C30.8083 27.5659 30.4747 29.9874 29.4379 31.7493C28.3721 33.5475 26.545 34.78 24.4641 34.9757C22.8907 35.1208 21.6509 34.5915 20.1718 34.2071C17.7212 33.5691 15.8071 33.7359 13.3781 34.3303C9.07135 35.3816 3.87285 34.7437 2.96659 29.458C2.11112 24.4697 6.70788 23.2879 9.83998 20.8662C11.9715 18.2924 13.1027 14.1523 16.9673 14.3046C18.3158 14.3554 19.3962 15.0225 20.2662 15.9941C21.1217 16.9438 21.4988 18.1837 22.173 19.2496C23.3041 21.0187 24.7687 22.0409 26.5377 22.8385C28.0677 23.3316 29.4017 23.9335 30.0542 25.6228Z" fill="#007BC4"/>
<path d="M23.1669 0.855067C23.1958 0.847791 23.2249 0.840514 23.2466 0.833237C23.3554 0.811566 23.4568 0.782459 23.5584 0.775183C23.6672 0.76063 23.7686 0.797013 23.8556 0.854909C24.3342 0.949189 24.8054 1.26098 25.2404 1.89894C26.647 3.95807 26.3207 6.98149 24.5154 8.69261C22.6811 10.4327 19.6649 9.78742 19.5779 7.01772C19.5561 6.37959 19.6649 5.63295 19.8897 4.8716C19.8897 4.84977 19.897 4.82809 19.9043 4.80626C19.9767 4.50175 20.1072 4.1683 20.2668 3.82028C20.7454 2.72547 21.4632 1.74661 22.3695 1.19564C22.4202 1.1667 22.4783 1.13759 22.5362 1.10864C22.587 1.07969 22.6378 1.05059 22.6956 1.02164C22.7972 0.97086 22.8986 0.934635 23.0074 0.905687C23.0581 0.884015 23.1088 0.86962 23.1669 0.855067Z" fill="#007BC4"/>
<path d="M13.5675 0.0432151C15.2497 -0.312073 16.3589 1.59487 16.3227 3.58139C16.2792 5.82179 15.0611 9.62097 12.2552 9.62825C9.44927 9.62825 9.71755 5.85074 10.3339 3.92212C10.6384 2.66058 11.3635 1.45693 12.2552 0.724685C12.538 0.492625 12.8207 0.318619 13.0817 0.202668C13.0963 0.195391 13.1034 0.188114 13.1107 0.188114C13.1179 0.188114 13.1179 0.180838 13.1179 0.180838C13.2557 0.108388 13.3935 0.0648867 13.524 0.0503335C13.524 0.0503335 13.524 0.0503335 13.5313 0.0503335C13.5386 0.0432151 13.5531 0.0432151 13.5675 0.0432151Z" fill="#007BC4"/>
<path d="M4.76522 8.35955C5.25102 8.17099 5.79471 8.14204 6.41828 8.35227C6.57061 8.41032 6.71551 8.4755 6.85329 8.54795C9.05019 9.23669 9.18798 12.6154 8.18017 14.3192C6.65762 16.8931 3.14112 16.6177 2.5321 13.5579C2.37992 12.7894 2.47404 11.7598 2.79311 10.8027C2.98894 9.96894 3.38773 9.14969 4.04737 8.65662C4.26504 8.49733 4.51877 8.39577 4.76522 8.35955Z" fill="#007BC4"/>
</g>
<defs>
<clipPath id="clip0">
<rect width="35" height="35" fill="white"/>
</clipPath>
</defs>
</svg>
