<svg xmlns="http://www.w3.org/2000/svg" viewBox="0 0 34.317 31.986">
  <defs>
    <style>
      .cls-1 {
        fill: #fff;
      }
    </style>
  </defs>
  <g id="blog" transform="translate(0 0)">
    <path id="Path_793" data-name="Path 793" class="cls-1" d="M29.133,31.986H5.185A5.186,5.186,0,0,1,0,26.8V5.185A5.186,5.186,0,0,1,5.185,0H29.133a5.186,5.186,0,0,1,5.185,5.185V26.8A5.186,5.186,0,0,1,29.133,31.986ZM5.185,1.679A3.514,3.514,0,0,0,1.679,5.185V26.8a3.514,3.514,0,0,0,3.506,3.506H29.133A3.514,3.514,0,0,0,32.639,26.8V5.185a3.514,3.514,0,0,0-3.506-3.506Z"/>
    <rect id="Rectangle_168" data-name="Rectangle 168" class="cls-1" width="31.847" height="1.679" transform="translate(1.632 6.341)"/>
    <path id="Path_794" data-name="Path 794" class="cls-1" d="M202.105,133.679h-8.766a.839.839,0,0,1,0-1.679h8.766a.839.839,0,1,1,0,1.679Z" transform="translate(-174.548 -119.69)"/>
    <path id="Path_795" data-name="Path 795" class="cls-1" d="M202.105,178.679h-8.766a.839.839,0,0,1,0-1.679h8.766a.839.839,0,1,1,0,1.679Z" transform="translate(-174.548 -160.494)"/>
    <path id="Path_796" data-name="Path 796" class="cls-1" d="M202.105,221.679h-8.766a.839.839,0,0,1,0-1.679h8.766a.839.839,0,1,1,0,1.679Z" transform="translate(-174.548 -199.484)"/>
    <path id="Path_797" data-name="Path 797" class="cls-1" d="M87.855,264.679H67.339a.839.839,0,1,1,0-1.679H87.855a.839.839,0,0,1,0,1.679Z" transform="translate(-60.299 -238.474)"/>
    <path id="Path_798" data-name="Path 798" class="cls-1" d="M72.846,142.072H66.225a1.727,1.727,0,0,1-1.725-1.725v-6.621A1.727,1.727,0,0,1,66.225,132h6.621a1.727,1.727,0,0,1,1.725,1.725v6.621A1.727,1.727,0,0,1,72.846,142.072Zm-6.621-8.393a.044.044,0,0,0-.047.047v6.621a.044.044,0,0,0,.047.047h6.621a.044.044,0,0,0,.047-.047v-6.621a.044.044,0,0,0-.047-.047Z" transform="translate(-58.485 -119.69)"/>
  </g>
</svg>
