<svg width="38" height="38" viewBox="0 0 38 38" fill="none" xmlns="http://www.w3.org/2000/svg">
<g clip-path="url(#clip0)">
<path d="M26.9277 9.46245H33.3189L32.8136 10.1361C32.0338 11.1758 32.7968 12.6333 34.0608 12.6333C34.5353 12.6333 35.004 12.4177 35.3105 12.009C37.8701 8.5963 37.776 8.75801 37.8854 8.48943C37.9796 8.25757 38.0224 7.98951 37.9877 7.7092C37.918 7.1493 37.8842 7.22629 35.3105 3.79471C34.7934 3.10536 33.8154 2.96542 33.1257 3.48258C32.4362 3.99974 32.2964 4.97788 32.8136 5.66738L33.3189 6.3412H26.9278C26.0659 6.3412 25.3672 7.03991 25.3672 7.90182C25.3672 8.76373 26.0658 9.46245 26.9277 9.46245Z" fill="#CB2023"/>
<path d="M11.0728 25.3662H4.68167L5.18702 24.6924C5.70418 24.0029 5.56439 23.0248 4.87489 22.5076C4.18539 21.9903 3.20718 22.1302 2.69009 22.8197C0.165226 26.1862 0.185365 26.1063 0.0750812 26.4488C0.00277229 26.6739 -0.0231638 26.9401 0.0268505 27.2109C0.119002 27.7098 0.117961 27.6047 2.69002 31.034C2.99664 31.4428 3.4652 31.6583 3.93971 31.6582C5.20091 31.6582 5.96933 30.2042 5.18694 29.1611L4.68167 28.4875H11.0728C11.9347 28.4875 12.6334 27.7888 12.6334 26.9269C12.6334 26.0649 11.9347 25.3662 11.0728 25.3662Z" fill="#CB2023"/>
<path d="M37.9995 25.366V23.8054C37.9995 22.0434 36.5659 20.6099 34.8039 20.6099H19.0491C17.2871 20.6099 15.8535 22.0434 15.8535 23.8054V25.366H37.9995Z" fill="#CB2023"/>
<path d="M15.8535 28.4873V33.2187C15.8535 34.9807 17.2871 36.4142 19.0491 36.4142H34.8039C36.5659 36.4142 37.9995 34.9807 37.9995 33.2187V28.4873H15.8535Z" fill="#CB2023"/>
<path d="M22.146 6.34164V4.78101C22.146 3.01899 20.7125 1.58545 18.9504 1.58545H3.19556C1.43354 1.58545 0 3.01899 0 4.78101V6.34164H22.146Z" fill="#CB2023"/>
<path d="M0 9.46289V14.1943C0 15.9563 1.43354 17.3898 3.19556 17.3898H18.9504C20.7125 17.3898 22.146 15.9563 22.146 14.1943V9.46289H0Z" fill="#CB2023"/>
</g>
<defs>
<clipPath id="clip0">
<rect width="38" height="38" fill="white"/>
</clipPath>
</defs>
</svg>
