<svg xmlns="http://www.w3.org/2000/svg" viewBox="0 0 60.902 61.646">
  <defs>
    <style>
      .cls-1 {
        fill: #cb2023;
      }
    </style>
  </defs>
  <g id="conference-hall" transform="translate(-2.686)">
    <g id="Group_229" data-name="Group 229" transform="translate(2.686)">
      <path id="Path_663" data-name="Path 663" class="cls-1" d="M13.83,322.833l.019-.043a3.151,3.151,0,0,1,1.735-1.568l2.637-1.214.14-.118q-.151-.173-.294-.357a10.046,10.046,0,0,1-1.9-5.955l-.365-.167-1.359-1.148-2.184,2.173H12l-2.184-2.173-1.36,1.148-2.829,1.3a1.845,1.845,0,0,0-1.039.886s-3.076,7.322-1.407,7.322H13.793Z" transform="translate(-2.686 -269.042)"/>
      <path id="Path_664" data-name="Path 664" class="cls-1" d="M34.04,233.106c.049,4.522,2.577,7.217,5.1,7.217,2.158,0,5.053-2.695,5.1-7.217.031-3.137-1.463-5.016-5.1-5.016S34.008,229.969,34.04,233.106Z" transform="translate(-29.7 -196.519)"/>
      <path id="Path_665" data-name="Path 665" class="cls-1" d="M179.922,321.221a3.1,3.1,0,0,1,1.754,1.614l.036.085h3.328l.037-.088.02-.043a3.149,3.149,0,0,1,1.734-1.568l2.638-1.214.14-.118q-.151-.173-.294-.357a10.041,10.041,0,0,1-1.9-5.955l-.365-.167-1.359-1.148-2.185,2.173h-.253l-2.185-2.173-1.359,1.148-.366.167a9.929,9.929,0,0,1-2.058,5.98c-.072.089-.146.175-.221.261l.224.188Z" transform="translate(-152.925 -269.041)"/>
      <path id="Path_666" data-name="Path 666" class="cls-1" d="M190.92,240.322c2.158,0,5.054-2.7,5.1-7.217.032-3.137-1.463-5.016-5.1-5.016s-5.134,1.879-5.1,5.016C185.867,237.627,188.394,240.322,190.92,240.322Z" transform="translate(-160.47 -196.518)"/>
      <path id="Path_667" data-name="Path 667" class="cls-1" d="M342.689,315.6a1.829,1.829,0,0,0-1.039-.886l-2.83-1.3-1.359-1.148-2.184,2.173h-.254l-2.184-2.173-1.359,1.148-.366.167a9.928,9.928,0,0,1-2.059,5.98c-.072.089-.146.175-.22.261l.224.188,2.637,1.214a3.1,3.1,0,0,1,1.754,1.614l.036.085H344.1C345.764,322.921,342.689,315.6,342.689,315.6Z" transform="translate(-283.69 -269.041)"/>
      <path id="Path_668" data-name="Path 668" class="cls-1" d="M337.593,233.106c.049,4.522,2.577,7.217,5.1,7.217,2.158,0,5.054-2.695,5.1-7.217.032-3.137-1.463-5.016-5.1-5.016S337.561,229.969,337.593,233.106Z" transform="translate(-291.237 -196.519)"/>
      <path id="Path_669" data-name="Path 669" class="cls-1" d="M94.517,370.819l-2.829-1.3-1.36-1.145-2.184,2.172H87.89l-2.184-2.172-1.359,1.145-2.83,1.3a1.832,1.832,0,0,0-1.039.887s-3.076,7.323-1.407,7.323H96.964c1.668,0-1.407-7.323-1.407-7.323A1.817,1.817,0,0,0,94.517,370.819Z" transform="translate(-68.07 -317.383)"/>
      <path id="Path_670" data-name="Path 670" class="cls-1" d="M115.03,284.193c-3.64,0-5.134,1.877-5.1,5.015.049,4.521,2.577,7.218,5.1,7.218,2.158,0,5.054-2.7,5.1-7.218C120.165,286.07,118.669,284.193,115.03,284.193Z" transform="translate(-95.083 -244.857)"/>
      <path id="Path_671" data-name="Path 671" class="cls-1" d="M246.3,370.819l-2.83-1.3-1.359-1.145-2.184,2.172h-.254l-2.184-2.172-1.36,1.145-2.829,1.3a1.836,1.836,0,0,0-1.04.887s-3.075,7.323-1.407,7.323h17.894c1.668,0-1.408-7.323-1.408-7.323A1.819,1.819,0,0,0,246.3,370.819Z" transform="translate(-198.84 -317.383)"/>
      <path id="Path_672" data-name="Path 672" class="cls-1" d="M266.81,296.429c2.158,0,5.053-2.7,5.1-7.218.031-3.138-1.463-5.015-5.1-5.015s-5.135,1.877-5.1,5.015C261.756,293.731,264.284,296.429,266.81,296.429Z" transform="translate(-225.855 -244.86)"/>
      <path id="Path_673" data-name="Path 673" class="cls-1" d="M208.1,83.247a.524.524,0,0,0,.55-.053l5.391-4.121a.523.523,0,0,0,0-.832l-5.391-4.12a.523.523,0,0,0-.841.416v8.241A.524.524,0,0,0,208.1,83.247Z" transform="translate(-179.418 -63.769)"/>
      <path id="Path_674" data-name="Path 674" class="cls-1" d="M18.632,29.777h55.23a.73.73,0,0,0,.73-.73V.73a.73.73,0,0,0-.73-.73H18.632a.73.73,0,0,0-.73.73V29.047A.73.73,0,0,0,18.632,29.777ZM46.247,6.4a8.486,8.486,0,1,1-8.486,8.486A8.486,8.486,0,0,1,46.247,6.4Z" transform="translate(-15.796)"/>
    </g>
  </g>
</svg>
