<?xml version="1.0" encoding="UTF-8"?>
<svg width="37px" height="52px" viewBox="0 0 37 52" version="1.1" xmlns="http://www.w3.org/2000/svg" xmlns:xlink="http://www.w3.org/1999/xlink">
    <!-- Generator: Sketch 50.2 (55047) - http://www.bohemiancoding.com/sketch -->
    <title>contract (1)</title>
    <desc>Created with Sketch.</desc>
    <defs></defs>
    <g id="Design" stroke="none" stroke-width="1" fill="none" fill-rule="evenodd">
        <g id="development-5" transform="translate(-941.000000, -2762.000000)">
            <g id="Group-21" transform="translate(-7.000000, 1838.000000)">
                <g id="Group-23" transform="translate(241.000000, 924.000000)">
                    <g id="contract-(1)" transform="translate(707.000000, 0.000000)">
                        <path d="M35.5,0 L7.115,0 C6.7171,0 6.3357,0.158349198 6.0544,0.440092585 L0.4394,6.06394298 C0.1581,6.34568637 0,6.72778769 0,7.12621471 L0,49.7783374 C0,50.6080432 0.6716,51.2807018 1.5,51.2807018 L35.5,51.2807018 C36.3284,51.2807018 37,50.6080432 37,49.7783374 L37,1.50236431 C37,0.67265858 36.3284,0 35.5,0 Z M15.5,35.0551672 L7.5,35.0551672 C6.6716,35.0551672 6,34.3825086 6,33.5528029 C6,32.7230972 6.6716,32.0504386 7.5,32.0504386 L15.5,32.0504386 C16.3284,32.0504386 17,32.7230972 17,33.5528029 C17,34.3825086 16.3284,35.0551672 15.5,35.0551672 Z M29.5,29.04571 L7.5,29.04571 C6.6716,29.04571 6,28.3730514 6,27.5433457 C6,26.7136399 6.6716,26.0409814 7.5,26.0409814 L29.5,26.0409814 C30.3284,26.0409814 31,26.7136399 31,27.5433457 C31,28.3730514 30.3284,29.04571 29.5,29.04571 Z M29.5,23.0362527 L7.5,23.0362527 C6.6716,23.0362527 6,22.3635942 6,21.5338884 C6,20.7041827 6.6716,20.0315241 7.5,20.0315241 L29.5,20.0315241 C30.3284,20.0315241 31,20.7041827 31,21.5338884 C31,22.3635942 30.3284,23.0362527 29.5,23.0362527 Z M31,15.5244312 C31,16.3541369 30.3284,17.0267955 29.5,17.0267955 L21.5,17.0267955 C20.6716,17.0267955 20,16.3541369 20,15.5244312 L20,7.51182155 C20,6.68211582 20.6716,6.00945724 21.5,6.00945724 L29.5,6.00945724 C30.3284,6.00945724 31,6.68211582 31,7.51182155 L31,15.5244312 Z" id="Shape" fill="#FFFFFF" fill-rule="nonzero"></path>
                        <path d="M30.2923,41.7355804 C29.3348,42.3322193 28.2029,42.5187128 27.1046,42.2609071 C26.323,42.0773182 25.6257,41.6841995 25.0749,41.1263215 L23.4731,44.425814 C23.1126,45.1683826 22.2166,45.4845802 21.4682,45.1200065 C20.7231,44.7572356 20.4128,43.8581206 20.775,43.1119464 L23.5129,37.4720708 C24.029,36.4089978 25.5172,36.3331785 26.1378,37.3390614 L27.034,38.7911466 C27.3874,39.3637477 28.1367,39.5398248 28.7076,39.1842653 C29.4112,38.7459755 30.3361,38.9620155 30.7736,39.6664241 C31.2112,40.3709328 30.9957,41.2973908 30.2923,41.7355804 Z" id="Path" fill="#CC6A6C"></path>
                    </g>
                </g>
            </g>
        </g>
    </g>
</svg>