<svg width="45" height="39" viewBox="0 0 45 39" fill="none" xmlns="http://www.w3.org/2000/svg">
<path d="M43.8182 37.6618H1.09726C0.774654 37.6618 0.512878 37.4001 0.512878 37.0771V1.08467C0.512878 0.761653 0.774619 0.5 1.09726 0.5H43.8182C44.1408 0.5 44.4026 0.761618 44.4026 1.08467V37.0771C44.4026 37.4002 44.1409 37.6618 43.8182 37.6618Z" stroke="#CB2023"/>
<path fill-rule="evenodd" clip-rule="evenodd" d="M22.6 21.047C24.9523 21.047 26.8594 18.7307 26.8594 15.8735C26.8594 13.0162 26.2332 10.7 22.6 10.7C18.9668 10.7 18.3406 13.0162 18.3406 15.8735C18.3406 18.7307 20.2476 21.047 22.6 21.047Z" fill="#3D3C3B"/>
<path fill-rule="evenodd" clip-rule="evenodd" d="M30.6356 28.7374C30.5567 23.76 29.9067 22.3417 24.9322 21.444C24.9322 21.444 24.232 22.3362 22.5999 22.3362C20.9678 22.3362 20.2675 21.444 20.2675 21.444C15.3473 22.3319 14.6578 23.7292 14.5671 28.5757C14.5596 28.9715 14.5562 28.9923 14.5549 28.9463C14.5552 29.0324 14.5555 29.1916 14.5555 29.4693C14.5555 29.4693 15.7398 31.8567 22.5999 31.8567C29.4599 31.8567 30.6443 29.4693 30.6443 29.4693C30.6443 29.2909 30.6444 29.1668 30.6446 29.0825C30.6433 29.1109 30.6406 29.0558 30.6356 28.7374Z" fill="#3D3C3B"/>
<path fill-rule="evenodd" clip-rule="evenodd" d="M44.9026 7.27941H0.0128784V1.09159C0.0128784 0.488684 0.498248 0 1.09707 0H43.8184C44.4171 0 44.9026 0.488684 44.9026 1.09159V7.27941Z" fill="#CB2023"/>
<path fill-rule="evenodd" clip-rule="evenodd" d="M3.59749 5.07351C4.35891 5.07351 4.97616 4.45626 4.97616 3.69484C4.97616 2.93342 4.35891 2.31616 3.59749 2.31616C2.83607 2.31616 2.21881 2.93342 2.21881 3.69484C2.21881 4.45626 2.83607 5.07351 3.59749 5.07351Z" fill="white"/>
<path fill-rule="evenodd" clip-rule="evenodd" d="M8.22981 5.07351C8.99123 5.07351 9.60849 4.45626 9.60849 3.69484C9.60849 2.93342 8.99123 2.31616 8.22981 2.31616C7.46839 2.31616 6.85114 2.93342 6.85114 3.69484C6.85114 4.45626 7.46839 5.07351 8.22981 5.07351Z" fill="white"/>
<path fill-rule="evenodd" clip-rule="evenodd" d="M12.8622 5.07351C13.6236 5.07351 14.2409 4.45626 14.2409 3.69484C14.2409 2.93342 13.6236 2.31616 12.8622 2.31616C12.1008 2.31616 11.4835 2.93342 11.4835 3.69484C11.4835 4.45626 12.1008 5.07351 12.8622 5.07351Z" fill="white"/>
</svg>
