<?xml version="1.0" encoding="UTF-8"?>
<svg width="39px" height="39px" viewBox="0 0 39 39" version="1.1" xmlns="http://www.w3.org/2000/svg" xmlns:xlink="http://www.w3.org/1999/xlink">
    <!-- Generator: Sketch 50.2 (55047) - http://www.bohemiancoding.com/sketch -->
    <title>contract</title>
    <desc>Created with Sketch.</desc>
    <defs></defs>
    <g id="Design" stroke="none" stroke-width="1" fill="none" fill-rule="evenodd">
        <g id="development-5" transform="translate(-599.000000, -1493.000000)" fill-rule="nonzero">
            <g id="contract" transform="translate(599.000000, 1493.000000)">
                <path d="M29.7741169,6.72115376 C29.7741169,5.79765054 29.414861,4.92827204 28.7637863,4.27508495 L25.5128574,1.0136086 C24.8708254,0.369416667 23.959428,0 23.0523988,0 L22.8548387,0 L22.8548387,6.91935484 L29.7741935,6.91935484 L29.7741169,6.72115376 Z" id="Shape" fill="#990D29"></path>
                <path d="M20.9181362,23.5780137 C21.137369,22.9140996 21.5199382,22.2959648 22.0188054,21.7949824 L29.7741935,14.0899687 L29.7741935,9.140625 L21.7257315,9.140625 C21.0926214,9.140625 20.6175025,8.62958789 20.6175025,7.99804687 L20.6175025,0 L3.43625042,0 C1.54142558,0 0,1.53760547 0,3.42773437 L0,35.5722656 C0,37.4623945 1.54142558,39 3.43625042,39 L26.3073987,39 C28.2022235,39 29.7741935,37.4623945 29.7741935,35.5722656 L29.7741935,27.044748 L28.5154568,28.2698965 C28.0054409,28.7742305 27.4081442,29.1413027 26.7347155,29.3656289 L23.0926719,30.5785137 L22.537832,30.6086777 C21.6205822,30.6086777 20.7525853,30.1634531 20.2134758,29.4181113 C19.6787953,28.6761211 19.5334037,27.7142988 19.8241868,26.8451016 L20.9181362,23.5780137 Z M5.72708403,20.5664063 L17.1440642,20.5664063 C17.7771743,20.5664063 18.289481,21.0774434 18.289481,21.7089844 C18.289481,22.3405254 17.7771743,22.8515625 17.1440642,22.8515625 L5.72708403,22.8515625 C5.09397398,22.8515625 4.58166723,22.3405254 4.58166723,21.7089844 C4.58166723,21.0774434 5.09397398,20.5664063 5.72708403,20.5664063 Z M4.58166723,17.1386719 C4.58166723,16.5071309 5.09397398,15.9960938 5.72708403,15.9960938 L17.1440642,15.9960938 C17.7771743,15.9960938 18.289481,16.5071309 18.289481,17.1386719 C18.289481,17.7702129 17.7771743,18.28125 17.1440642,18.28125 L5.72708403,18.28125 C5.09397398,18.28125 4.58166723,17.7702129 4.58166723,17.1386719 Z M4.58166723,26.2792969 C4.58166723,25.6477559 5.09397398,25.1367188 5.72708403,25.1367188 L17.1440642,25.1367188 C17.7771743,25.1367188 18.289481,25.6477559 18.289481,26.2792969 C18.289481,26.9108379 17.7771743,27.421875 17.1440642,27.421875 L5.72708403,27.421875 C5.09397398,27.421875 4.58166723,26.9108379 4.58166723,26.2792969 Z M21.7257315,31.9921875 C22.3588415,31.9921875 22.8711483,32.5032246 22.8711483,33.1347656 C22.8711483,33.7663066 22.3589179,34.2773438 21.7257315,34.2773438 L14.8532306,34.2773438 C14.2201206,34.2773438 13.7078138,33.7663066 13.7078138,33.1347656 C13.7078138,32.5032246 14.2201206,31.9921875 14.8532306,31.9921875 L21.7257315,31.9921875 Z M5.72708403,13.7109375 C5.09397398,13.7109375 4.58166723,13.1999004 4.58166723,12.5683594 C4.58166723,11.9368184 5.09397398,11.4257813 5.72708403,11.4257813 L21.7257315,11.4257813 C22.3588415,11.4257813 22.8711483,11.9368184 22.8711483,12.5683594 C22.8711483,13.1999004 22.3588415,13.7109375 21.7257315,13.7109375 L5.72708403,13.7109375 Z" id="Shape" fill="#CB2023"></path>
                <path d="M23.0516292,24.5322581 L22.0467949,27.5456583 C21.8961852,27.9970795 22.3259155,28.4264877 22.7775135,28.2757061 L25.7903226,27.2698795 L23.0516292,24.5322581 Z" id="Shape" fill="#3D3C3B"></path>
                <path d="M31.7942012,15.0967742 L24.3225806,22.5681305 L27.5448867,25.7903226 C29.2336004,24.101366 32.5194375,20.8151914 35.016129,18.3185881 L31.7942012,15.0967742 Z" id="Shape" fill="#3D3C3B"></path>
                <path d="M38.3181044,11.9472173 C37.9101817,11.549803 37.3095538,11.3225806 36.6726436,11.3225806 C36.0357335,11.3225806 35.4351829,11.549803 35.0249395,11.9483414 L33.3387097,13.5818393 L36.634118,16.7741935 C37.5572625,15.8798428 38.195333,15.261726 38.3205025,15.1405457 C39.2269371,14.2611083 39.2268597,12.8286782 38.3181044,11.9472173 Z" id="Shape" fill="#3D3C3B"></path>
                <g id="Group" transform="translate(38.370968, 15.096774)" fill="#000000">
                    <path d="M0.026875,0.123 C0.027125,0.123 0.027125,0.12275 0.027375,0.1225 C0.036875,0.113 0.041125,0.10875 0.048875,0.101 C0.041125,0.109 0.036875,0.11325 0.026875,0.123 Z" id="Shape"></path>
                    <path d="M0.037875,0.117625 C0.049875,0.105625 0.063875,0.091625 0.071125,0.084375 C0.063625,0.091875 0.049875,0.105625 0.037875,0.117625 Z" id="Shape"></path>
                    <path d="M0.0545,0.0935627391 C0.07875,0.0693127391 0.07925,0.0688127391 0.0545,0.0935627391 Z" id="Shape"></path>
                </g>
            </g>
        </g>
    </g>
</svg>