<?xml version="1.0" encoding="UTF-8"?>
<svg width="41px" height="39px" viewBox="0 0 41 39" version="1.1" xmlns="http://www.w3.org/2000/svg" xmlns:xlink="http://www.w3.org/1999/xlink">
    <!-- Generator: Sketch 50.2 (55047) - http://www.bohemiancoding.com/sketch -->
    <title>crm</title>
    <desc>Created with Sketch.</desc>
    <defs></defs>
    <g id="Design" stroke="none" stroke-width="1" fill="none" fill-rule="evenodd">
        <g id="Home-8" transform="translate(-589.000000, -2184.000000)" fill-rule="nonzero">
            <g id="Group-14" transform="translate(589.000000, 2182.000000)">
                <g id="crm" transform="translate(0.000000, 2.000000)">
                    <polygon id="Shape" fill="#FFFFFF" points="24.43 37.15 15.95 37.15 16.95 28.66 23.43 28.66"></polygon>
                    <path d="M3.16,0 L37.22,0 C38.9652198,1.06863893e-16 40.38,1.41478019 40.38,3.16 L40.38,4.23 L0,4.23 L0,3.16 C2.13727785e-16,1.41478019 1.41478019,-1.06863893e-16 3.16,0 Z" id="Shape" fill="#FFFFFF"></path>
                    <path d="M0,25.56 L40.38,25.56 L40.38,28.56 C40.38,30.3052198 38.9652198,31.72 37.22,31.72 L3.16,31.72 C1.43412139,31.7202161 0.0273081925,30.3356626 0,28.61 L0,25.61 L0,25.56 Z" id="Shape" fill="#FFFFFF"></path>
                    <rect id="Rectangle-path" fill="#FFFFFF" x="12.54" y="36.65" width="15.31" height="1.65"></rect>
                    <circle id="Oval" fill="#FFFFFF" cx="20.19" cy="28.66" r="1.55"></circle>
                    <path d="M15.2,16.58 C15.1797135,17.1362479 15.0142332,17.6775065 14.72,18.15 C14.4125121,18.6110875 13.9833093,18.9779866 13.48,19.21 C12.9118139,19.4667858 12.2933779,19.5932064 11.67,19.58 C10.6613974,19.6365081 9.68089397,19.2362276 9,18.49 C8.29722342,17.6145667 7.94126109,16.5110835 8,15.39 L8,15 C7.98369529,14.2465134 8.13393714,13.4987187 8.44,12.81 C8.70420681,12.2080668 9.14318555,11.6994088 9.7,11.35 C10.2717714,11.0023642 10.9310005,10.8254132 11.6,10.84 C12.5029066,10.7955515 13.3901838,11.0877472 14.09,11.66 C14.7378549,12.2332445 15.1242144,13.0456826 15.16,13.91 L13.16,13.91 C13.1893717,13.4989439 13.0483327,13.093909 12.77,12.79 C12.4539605,12.5374632 12.0530933,12.4157714 11.65,12.45 C11.1944568,12.4165525 10.7583905,12.6403742 10.52,13.03 C10.2396629,13.5974577 10.1121345,14.2282063 10.15,14.86 L10.15,15.46 C10.10072,16.128096 10.2175247,16.7980049 10.49,17.41 C10.7407163,17.8133254 11.1969099,18.0414222 11.67,18 C12.0582518,18.0258569 12.4425073,17.9084455 12.75,17.67 C13.0256674,17.3881301 13.1707288,17.0037175 13.15,16.61 L15.2,16.58 Z" id="Shape" fill="#CC6A6C"></path>
                    <path d="M19.34,16.45 L18.23,16.45 L18.23,19.45 L16.17,19.45 L16.17,10.93 L19.53,10.93 C20.374242,10.8814595 21.2099223,11.1212328 21.9,11.61 C22.4765047,12.0674236 22.7967709,12.7749885 22.76,13.51 C22.7830954,14.0306954 22.6582811,14.5472881 22.4,15 C22.1247928,15.4207591 21.7317818,15.7511665 21.27,15.95 L23.05,19.4 L23.05,19.48 L20.85,19.48 L19.34,16.45 Z M18.23,14.86 L19.53,14.86 C19.8518779,14.8834668 20.1694832,14.7751923 20.41,14.56 C20.8089246,14.052325 20.8089246,13.337675 20.41,12.83 C20.1723389,12.6091193 19.8536279,12.4968461 19.53,12.52 L18.23,12.52 L18.23,14.86 Z" id="Shape" fill="#CC6A6C"></path>
                    <polygon id="Shape" fill="#CC6A6C" points="26.7 10.93 28.6 16.87 30.5 10.93 33.21 10.93 33.21 19.46 31.15 19.46 31.15 17.46 31.35 13.38 29.28 19.45 27.92 19.45 25.86 13.38 26.05 17.46 26.05 19.46 24 19.46 24 10.93"></polygon>
                </g>
            </g>
        </g>
    </g>
</svg>