<svg width="36" height="36" viewBox="0 0 36 36" fill="none" xmlns="http://www.w3.org/2000/svg">
<path d="M28.161 23.2636C26.7353 25.2217 24.4259 26.497 21.8239 26.497H18.1729C16.9116 26.497 15.8376 25.6963 15.4309 24.5755C14.9289 24.4258 14.4366 24.2314 13.9562 23.9927C12.9388 23.4872 12.0151 22.8024 11.2019 21.9541C5.92724 23.1129 1.97949 27.8129 1.97949 33.4357V34.1706C1.97949 35.1809 2.79854 35.9999 3.80883 35.9999H32.1913C33.2016 35.9999 34.0206 35.1809 34.0206 34.1706V33.4357C34.0206 29.092 31.6645 25.299 28.161 23.2636Z" fill="#CC1237"/>
<path d="M9.25781 18.1836C10.044 18.1836 10.7284 17.7478 11.0829 17.1048C11.0922 17.1302 11.1017 17.1555 11.1113 17.1808C11.1141 17.1884 11.1169 17.196 11.1197 17.2036C11.9515 19.3929 13.5698 21.2282 15.7038 22.0301C16.2199 21.21 17.1326 20.6646 18.1732 20.6646H21.8242C22.1883 20.6646 22.5273 20.5618 22.8244 20.3957C23.3235 20.1167 23.7722 19.4088 24.004 19.0336C24.3748 18.4331 24.6621 17.7971 24.9169 17.1037C25.0601 17.3637 25.257 17.5899 25.4929 17.7671V18.6623C25.4929 20.6853 23.8471 22.3311 21.8241 22.3311H18.1731C17.4829 22.3311 16.9233 22.8907 16.9233 23.5809C16.9233 24.2712 17.4829 24.8307 18.1731 24.8307H21.8241C25.2253 24.8307 27.9924 22.0636 27.9924 18.6623V17.7671C28.4984 17.387 28.8257 16.7821 28.8257 16.1006V12.3321V10.887C28.8257 10.1915 28.4846 9.57618 27.9609 9.19783C27.5547 4.05809 23.2426 0 18.0002 0C12.7578 0 8.44574 4.05809 8.03959 9.19775C7.51588 9.5761 7.1748 10.1915 7.1748 10.8869V16.1005C7.1748 17.2542 8.11203 18.1836 9.25781 18.1836ZM18.0002 2.49966C21.881 2.49966 25.0819 5.46538 25.456 9.24944C25.2104 9.44265 25.0092 9.68958 24.8706 9.97294C23.6913 6.89616 21.0588 4.75402 18.0002 4.75402C14.8756 4.75402 12.2853 6.96978 11.1343 9.96064C11.1327 9.96471 11.1312 9.96887 11.1297 9.97302C10.9911 9.68966 10.7899 9.44273 10.5443 9.24952C10.9186 5.46538 14.1194 2.49966 18.0002 2.49966Z" fill="#CC1237"/>
</svg>
