<svg width="41" height="39" viewBox="0 0 41 39" fill="none" xmlns="http://www.w3.org/2000/svg">
<path d="M24.43 37.15H15.95L16.95 28.66H23.43L24.43 37.15V37.15Z" fill="#3D3C3B"/>
<path d="M3.16 0H37.22C38.9652 0 40.38 1.41478 40.38 3.16V4.23H0V3.16C0 1.41478 1.41478 0 3.16 0Z" fill="#CB2023"/>
<path d="M0 25.56H40.38V28.56C40.38 30.3052 38.9652 31.72 37.22 31.72H3.16C1.43412 31.7202 0.0273082 30.3357 0 28.61V25.61L0 25.56Z" fill="#CB2023"/>
<path d="M12.54 36.65H27.85V38.3H12.54V36.65Z" fill="#CB2023"/>
<path fill-rule="evenodd" clip-rule="evenodd" d="M15.8172 21C14.2573 21 13.0645 20.5167 12.2387 19.55C11.4129 18.5833 11 17.0667 11 15C11 12.9444 11.4043 11.4306 12.2129 10.4583C13.0215 9.48611 14.1656 9 15.6452 9C16.5169 9 17.2968 9.15555 17.9849 9.46667C18.2946 9.58889 18.5756 9.73889 18.828 9.91667L18.0538 11.25H17.8817C17.7556 11.1389 17.572 11.0167 17.3312 10.8833C16.8265 10.6278 16.3219 10.5 15.8172 10.5C15.0602 10.5 14.4695 10.8389 14.0452 11.5167C13.6208 12.1944 13.4086 13.3555 13.4086 15C13.4086 16.6556 13.6294 17.8194 14.071 18.4917C14.5125 19.1639 15.152 19.5 15.9892 19.5C16.5168 19.5 17.0215 19.3778 17.5032 19.1333C17.7556 18.9889 17.9391 18.8611 18.0538 18.75H18.2258L19 20.0833C18.7706 20.2611 18.4896 20.4167 18.157 20.55C17.4918 20.85 16.7118 21 15.8172 21ZM20 9H22.449L25.3061 16.2L25.6 16.9543L25.7306 17.3143H25.7959L25.7469 16.9543C25.7252 16.8171 25.7143 16.5657 25.7143 16.2V9H28V21H25.551L22.6939 13.8L22.4 13.0457L22.2694 12.6857H22.2041L22.2367 13.0457C22.2694 13.4914 22.2857 13.7429 22.2857 13.8V21H20V9Z" fill="#333333"/>
<path d="M20.19 30.21C21.0461 30.21 21.74 29.516 21.74 28.66C21.74 27.8039 21.0461 27.11 20.19 27.11C19.334 27.11 18.64 27.8039 18.64 28.66C18.64 29.516 19.334 30.21 20.19 30.21Z" fill="white"/>
</svg>
