<svg width="34" height="38" viewBox="0 0 34 38" fill="none" xmlns="http://www.w3.org/2000/svg">
<path d="M0.672852 28.4288L0.78509 28.7506C0.770123 28.7133 0.725223 28.6009 0.672852 28.4288Z" fill="#69C9D0"/>
<path d="M8.97989 15.5276C7.8275 15.9691 6.76486 16.6052 5.822 17.3984C4.75189 18.3188 3.8539 19.4263 3.16545 20.6535C2.90355 21.1025 1.91577 22.8985 1.79601 25.8319C1.72867 27.4933 2.23006 29.2069 2.46203 29.9178V29.9253C2.61169 30.3295 3.19538 31.7737 4.15323 32.9935C4.4301 33.345 4.72943 33.682 5.04375 34.0036C4.02603 33.3003 3.12805 32.4547 2.35726 31.4892C1.40691 30.2845 0.823194 28.8551 0.67353 28.4361V28.4212C0.434091 27.7102 -0.0672959 25.9892 0.00753615 24.3278C0.127267 21.4018 1.11505 19.5984 1.37697 19.1494C2.06541 17.9222 2.96339 16.8147 4.0335 15.8943C4.97639 15.101 6.0465 14.465 7.19142 14.0235C7.9098 13.7241 8.65812 13.5071 9.42141 13.3649C10.5739 13.1629 11.7487 13.1479 12.9087 13.3125V14.7044C11.5541 14.7269 10.2221 15.0038 8.97991 15.5276H8.97989Z" fill="#69C9D0"/>
<path d="M22.8201 1.50411H18.3302V25.3456C18.3302 26.1837 18.3302 26.9919 18.0531 27.8001C17.5967 29.0872 16.6314 30.2546 15.3517 30.7709C13.4212 31.5491 11.9095 31.4593 10.1135 30.2697C9.66451 29.9627 9.27538 29.5812 8.95361 29.1471C10.4877 29.9627 11.857 29.9479 13.5558 29.2668C14.8429 28.7505 15.8082 27.5832 16.2572 26.296C16.5416 25.4879 16.5342 24.6797 16.5342 23.8416V0H22.7377C22.7303 0 22.6628 0.591161 22.8201 1.50411ZM31.3059 8.62066V9.94517C30.5801 9.77305 29.8692 9.51864 29.2032 9.18189C27.9087 8.53833 26.8984 7.48321 26.6963 7.26618C26.9283 7.41585 27.1604 7.55055 27.4073 7.67777C28.9937 8.4635 30.5428 8.70296 31.3059 8.62066Z" fill="#69C9D0"/>
<path d="M1.27783 32.0131L1.39756 32.3572C1.3826 32.3198 1.3377 32.2001 1.27783 32.0131ZM6.13442 24.1632C6.35145 22.2997 7.0848 21.2598 8.46171 20.1896C10.4373 18.7454 12.8992 19.561 12.8992 19.561V14.7043C13.4979 14.6894 14.0965 14.7268 14.6877 14.8166V21.0651C14.6877 21.0651 12.2258 20.2495 10.2502 21.6937C8.8733 22.7638 8.13995 23.804 7.92292 25.6673C7.91543 26.6776 8.09502 28.0021 8.93314 29.1395C8.72361 29.0272 8.51408 28.9001 8.29708 28.7578C6.46368 27.4707 6.12695 25.5325 6.13442 24.1632ZM24.8723 5.7245C23.5179 4.17546 23.0016 2.60399 22.8146 1.50397H24.5208C24.5208 1.50397 24.1839 4.39249 26.6609 7.22861L26.6982 7.26604C26.0249 6.83201 25.4111 6.30819 24.8723 5.7245ZM33.0964 10.1246V16.2459C33.0964 16.2459 30.9188 16.1561 29.3024 15.7296C27.05 15.1309 25.6058 14.2105 25.6058 14.2105C25.6058 14.2105 24.6029 13.5519 24.5282 13.507V26.1537C24.5282 26.8572 24.3412 28.6156 23.7799 30.0823C23.0464 31.998 21.909 33.2628 21.6995 33.5171C21.6995 33.5171 20.3151 35.2233 17.8831 36.3682C15.6906 37.401 13.7598 37.3785 13.1837 37.401C13.1837 37.401 9.85359 37.5356 6.85281 35.5078C6.20178 35.0588 5.59563 34.5499 5.04187 33.9886L5.05684 34.0035C8.05762 36.0389 11.3877 35.8969 11.3877 35.8969C11.9639 35.8744 13.8946 35.8969 16.0872 34.8641C18.5191 33.7192 19.9035 32.0131 19.9035 32.0131C20.113 31.7585 21.2505 30.4939 21.9839 28.5782C22.5452 27.1115 22.7322 25.3529 22.7322 24.6496V12.0104C22.8146 12.0553 23.8098 12.7138 23.8098 12.7138C23.8098 12.7138 25.254 13.6343 27.5064 14.2329C29.1228 14.6594 31.3005 14.7492 31.3005 14.7492V9.95252C32.0488 10.1246 32.6848 10.1695 33.0964 10.1246Z" fill="#EE1D52"/>
<path d="M31.3065 9.94503V14.7418C31.3065 14.7418 29.1288 14.652 27.5124 14.2254C25.26 13.6268 23.8158 12.7063 23.8158 12.7063C23.8158 12.7063 22.813 12.0478 22.7383 12.0029V24.6496C22.7383 25.3529 22.5512 27.1115 21.9899 28.5782C21.2565 30.4939 20.119 31.7585 19.9095 32.0131C19.9095 32.0131 18.5252 33.7192 16.0932 34.8641C13.9007 35.8969 11.9699 35.8744 11.3937 35.8969C11.3937 35.8969 8.06363 36.0315 5.06288 34.0035L5.04791 33.9886C4.73362 33.6668 4.43429 33.3301 4.1574 32.9783C3.19955 31.7585 2.61586 30.3217 2.46619 29.9104V29.9027C2.22673 29.192 1.73284 27.4707 1.8002 25.817C1.91993 22.891 2.90771 21.0876 3.16961 20.6386C3.85807 19.4113 4.76355 18.3113 5.82616 17.3908C6.76905 16.5976 7.83914 15.9615 8.98408 15.52C10.2263 14.9962 11.5582 14.7193 12.9052 14.6969V19.5536C12.9052 19.5536 10.4433 18.7377 8.46772 20.1822C7.09081 21.2521 6.35746 22.2923 6.14044 24.1556C6.13296 25.5251 6.4697 27.4633 8.31057 28.7578C8.52759 28.9001 8.73712 29.0272 8.94665 29.1395C9.26844 29.5734 9.65754 29.9551 10.1065 30.2695C11.91 31.4592 13.4141 31.5416 15.3449 30.7707C16.632 30.2545 17.5972 29.0945 18.0462 27.8C18.3307 26.9918 18.3231 26.1836 18.3231 25.3455V1.50397H22.813C23.0002 2.60399 23.5091 4.17546 24.8709 5.7245C25.4171 6.30819 26.0309 6.83201 26.6968 7.26604C26.8915 7.48304 27.9016 8.53069 29.2038 9.18174C29.8697 9.51847 30.5807 9.7729 31.3065 9.94503Z" fill="black"/>
</svg>
