<svg width="64" height="104" viewBox="0 0 64 104" fill="none" xmlns="http://www.w3.org/2000/svg">
<path opacity="0.668136" fill-rule="evenodd" clip-rule="evenodd" d="M54.398 103.923H-15L-12.469 87.611L23.953 53.79L28.945 48.798C36.773 40.923 40.359 33.494 39.703 26.509C39.186 21.072 36.374 18.282 31.265 18.142C27.655 18.048 24.596 19.513 22.089 22.536C19.581 25.56 18.022 29.509 17.414 34.384L-5.579 34.525C-5.204 28.103 -3.258 22.232 0.257 16.911C3.773 11.592 8.472 7.43104 14.355 4.43104C20.237 1.43204 26.507 -0.044958 33.164 0.00104203C43.148 0.189042 50.882 2.89604 56.367 8.12204C61.851 13.35 64.242 20.416 63.539 29.321C63.117 34.572 61.394 39.682 58.371 44.65C55.347 49.619 50.953 54.845 45.187 60.329L34.5 70.173L18.609 85.501L57.281 85.642L54.398 103.923Z" fill="url(#paint0_linear)"/>
<defs>
<linearGradient id="paint0_linear" x1="184.017" y1="-347.78" x2="-192.003" y2="-165.95" gradientUnits="userSpaceOnUse">
<stop stop-color="#CB2023"/>
<stop offset="1" stop-color="white"/>
</linearGradient>
</defs>
</svg>
