<svg width="57" height="77" viewBox="0 0 57 77" fill="none" xmlns="http://www.w3.org/2000/svg">
<path opacity="0.325107" fill-rule="evenodd" clip-rule="evenodd" d="M21.0347 31.0327L28.4674 31.0834C31.5013 31.016 33.9951 30.1268 35.9504 28.4165C37.9049 26.7062 39.0677 24.3089 39.4395 21.226C39.7092 18.9237 39.254 17.0264 38.0739 15.5357C36.8939 14.0457 35.1241 13.2833 32.7648 13.2493C30.5736 13.1819 28.6357 13.7913 26.9508 15.0777C25.2645 16.3655 24.1865 18.0765 23.7148 20.21L7.02869 20.3122C7.23148 16.2973 8.51221 12.7427 10.8716 9.64676C13.2303 6.55083 16.3749 4.16076 20.3012 2.47583C24.2275 0.791622 28.4501 -0.0323641 32.9675 0.00097217C40.3822 0.171277 46.2149 2.13305 50.4619 5.88628C54.709 9.64024 56.647 14.6429 56.2766 20.8927C55.838 27.8911 51.304 33.4279 42.6755 37.5043C45.9445 39.1349 48.3888 41.3945 50.0067 44.281C51.6247 47.1689 52.3496 50.4301 52.1813 54.0645C51.9447 58.6171 50.5123 62.5826 47.8832 65.9626C45.2542 69.3434 41.7313 71.9422 37.316 73.759C32.8992 75.5758 28.1639 76.4339 23.1079 76.3324C18.6911 76.2976 14.6893 75.3562 11.0995 73.5075C7.50906 71.6595 4.75344 69.1057 2.83199 65.8496C0.911263 62.5935 -0.0329219 58.8606 0.000876021 54.6537H16.5856C16.618 57.0727 17.3263 59.0649 18.7091 60.6317C20.0912 62.1985 22.0285 63.016 24.5238 63.0841C27.3211 63.1522 29.7992 62.3181 31.9565 60.5803C34.1131 58.8432 35.3945 56.5618 35.7987 53.734C36.2035 50.7033 35.7562 48.327 34.459 46.6073C33.161 44.8876 30.9958 43.9759 27.9619 43.8737L19.0629 43.8223L21.0347 31.0327Z" fill="url(#paint0_linear)"/>
<defs>
<linearGradient id="paint0_linear" x1="142.5" y1="-255.474" x2="-129.309" y2="-127.36" gradientUnits="userSpaceOnUse">
<stop stop-color="#CB2023"/>
<stop offset="1" stop-color="white"/>
</linearGradient>
</defs>
</svg>
