<?xml version="1.0" encoding="UTF-8"?>
<svg width="255px" height="32px" viewBox="0 0 255 32" version="1.1" xmlns="http://www.w3.org/2000/svg" xmlns:xlink="http://www.w3.org/1999/xlink">
    <!-- Generator: Sketch 50.2 (55047) - http://www.bohemiancoding.com/sketch -->
    <title>Logo/white</title>
    <desc>Created with Sketch.</desc>
    <defs></defs>
    <g id="Design" stroke="none" stroke-width="1" fill="none" fill-rule="evenodd">
        <g id="Home-8" transform="translate(-1329.000000, -6071.000000)">
            <g id="Group-10" transform="translate(0.000000, 5089.000000)">
                <g id="footer-line" transform="translate(0.000000, 968.000000)">
                    <g id="Logo/white" transform="translate(1329.000000, 8.000000)">
                        <g id="sublogo" transform="translate(0.000000, 6.000000)">
                            <path d="M30.2970275,31.5 L3.67411662,31.5 C2.38096572,31.5 1.19446644,30.8326271 0.527893807,29.7247881 C-0.138678823,28.6169492 -0.178673181,27.2555085 0.434573639,26.1076271 L9.32665253,9.3565678 L17.3255241,9.3565678 L9.85991064,23.3980932 C9.72659611,23.6516949 9.81991628,23.8652542 9.85991064,23.945339 C9.91323645,24.0254237 10.046551,24.2122881 10.3398429,24.2122881 L23.8046101,24.2122881 C24.0445762,24.2122881 24.1778907,24.0521186 24.2178851,23.9853814 C24.2578795,23.9186441 24.3511996,23.7317797 24.244548,23.5182203 L13.3127569,0 L21.0716623,0 L33.4832447,26.4947034 C33.9898399,27.5891949 33.9098511,28.8438559 33.2699414,29.8716102 C32.6167002,30.8993644 31.5101897,31.5 30.2970275,31.5 Z M10.2865171,10.9582627 L1.84770762,26.8550847 C1.50108985,27.4957627 1.52775275,28.2699153 1.90103343,28.8972458 C2.2743141,29.5245763 2.94088673,29.8983051 3.67411662,29.8983051 L30.3103589,29.8983051 C30.9769316,29.8983051 31.5635155,29.5779661 31.9234647,29.0173729 C32.2834139,28.4567797 32.3234083,27.7894068 32.0434478,27.1754237 L20.0584719,1.60169492 L15.81907,1.60169492 L25.6976763,22.8508475 C26.0042997,23.5048729 25.9509739,24.2523305 25.5643618,24.8529661 C25.1777497,25.4536017 24.5245085,25.8139831 23.8046101,25.8139831 L10.3398429,25.8139831 C9.56661868,25.8139831 8.87338314,25.4135593 8.48677102,24.7461864 C8.10015889,24.0788136 8.08682744,23.2913136 8.46010811,22.6105932 L14.6592336,10.9449153 L10.2865171,10.9449153 L10.2865171,10.9582627 Z" id="simbal_1" fill="#CB2023" fill-rule="nonzero"></path>
                            <path d="M46.786906,31.5 L39.0280006,31.5 L26.6297497,5.00529661 C26.1231545,3.91080508 26.2031432,2.65614407 26.8430529,1.62838983 C27.4962941,0.613983051 28.6028047,0 29.8026354,0 L56.4388777,0 C57.7320286,0 58.9185279,0.667372881 59.5851005,1.77521186 C60.2516732,2.88305085 60.2916675,4.24449153 59.6784207,5.39237288 L50.7863418,22.1434322 L42.7874703,22.1434322 L50.2530837,8.10190678 C50.3863982,7.84830508 50.2930781,7.63474576 50.2530837,7.55466102 C50.1997579,7.47457627 50.0664434,7.28771186 49.7731514,7.28771186 L36.3083843,7.28771186 C36.0684181,7.28771186 35.9351036,7.44788136 35.8951093,7.51461864 C35.8551149,7.58135593 35.7617947,7.76822034 35.8684463,7.98177966 L46.786906,31.5 Z M40.041191,29.8983051 L44.2805929,29.8983051 L34.4019866,8.64915254 C34.0953631,7.99512712 34.148689,7.24766949 34.5353011,6.6470339 C34.9219132,6.04639831 35.5751544,5.68601695 36.2950528,5.68601695 L49.75982,5.68601695 C50.5330442,5.68601695 51.2262798,6.08644068 51.6128919,6.75381356 C51.999504,7.42118644 52.0128355,8.20868644 51.6395548,8.88940678 L45.4404293,20.5550847 L49.8131458,20.5550847 L58.2519553,4.65826271 C58.598573,4.01758475 58.5719101,3.2434322 58.1986295,2.61610169 C57.8253488,1.98877119 57.1587762,1.61504237 56.4255463,1.61504237 L29.8026354,1.61504237 C29.1360628,1.61504237 28.5494789,1.93538136 28.1895296,2.49597458 C27.8295804,3.0565678 27.7895861,3.72394068 28.0695466,4.33792373 L40.041191,29.8983051 Z" id="simbal_2" fill="#FFFFFF" fill-rule="nonzero"></path>
                        </g>
                        <g id="Group" transform="translate(70.632768, 9.750000)">
                            <path d="M14.9786021,22.7337598 L13.2890418,17.1232884 L4.80874863,17.1232884 L3.1191883,22.7337598 L0,22.7337598 L7.1806314,0.389165645 L11.0796168,0.389165645 L18.2277566,22.7337598 L14.9786021,22.7337598 Z M5.55605416,14.6261422 L12.5417363,14.6261422 L9.065141,2.95117281 L5.55605416,14.6261422 Z M27.9468354,0 C29.441454,0 30.7194419,0.21079595 31.7808377,0.632394174 C32.8422335,1.0539924 33.8711221,1.70800035 34.8675345,2.59443764 L33.1779741,4.47540492 C32.3331897,3.80517185 31.5046636,3.31331463 30.692371,2.99981852 C29.8800783,2.6863224 29.0082305,2.5295767 28.0768016,2.5295767 C26.9071001,2.5295767 25.9431939,2.79982791 25.1850541,3.34033846 C24.4269143,3.880849 24.04785,4.66998256 24.04785,5.7077628 C24.04785,6.35637545 24.1778149,6.90228291 24.4377486,7.34550156 C24.6976822,7.7887202 25.1796353,8.19409703 25.8836223,8.5616442 C26.5876093,8.92919137 27.6110827,9.31835312 28.9540733,9.72914114 C30.3620473,10.1615496 31.5317312,10.6263817 32.4631601,11.1236514 C33.3945891,11.6209211 34.1473023,12.3073592 34.7213225,13.1829862 C35.2953427,14.0586133 35.5823484,15.1666433 35.5823484,16.5071095 C35.5823484,17.8043348 35.2628514,18.9501999 34.6238479,19.9447393 C33.9848443,20.9392787 33.0642597,21.7176022 31.8620666,22.2797332 C30.6598734,22.8418642 29.2356749,23.1229254 27.5894284,23.1229254 C24.4918857,23.1229254 21.9575705,22.1608311 19.9864069,20.2366136 L21.6759673,18.3556463 C22.5857351,19.0907406 23.5063196,19.6474581 24.4377486,20.0258155 C25.3691775,20.4041729 26.4088966,20.5933487 27.5569369,20.5933487 C28.9432497,20.5933487 30.0912728,20.2528322 31.0010406,19.5717889 C31.9108084,18.8907456 32.3656855,17.9016262 32.3656855,16.6044009 C32.3656855,15.8693065 32.2248902,15.2585388 31.9432954,14.7720793 C31.6617006,14.2856198 31.1797475,13.8478128 30.4974217,13.4586452 C29.8150958,13.0694776 28.8241136,12.6803159 27.5244453,12.2911483 C25.2283647,11.5992948 23.5496517,10.7669211 22.4882559,9.79400208 C21.4268601,8.8210831 20.8961702,7.50225716 20.8961702,5.83748468 C20.8961702,4.71322275 21.1940064,3.70788822 21.7896877,2.82145093 C22.385369,1.93501364 23.2193103,1.24317052 24.2915366,0.745900821 C25.363763,0.248631121 26.5821837,0 27.9468354,0 Z M43.9692739,0.389165645 L43.9692739,22.7337598 L40.8825771,22.7337598 L40.8825771,0.389165645 L43.9692739,0.389165645 Z M63.1433922,22.7337598 L61.4538319,17.1232884 L52.9735387,17.1232884 L51.2839784,22.7337598 L48.1647901,22.7337598 L55.3454215,0.389165645 L59.2444068,0.389165645 L66.3925467,22.7337598 L63.1433922,22.7337598 Z M53.7208442,14.6261422 L60.7065264,14.6261422 L57.2299311,2.95117281 L53.7208442,14.6261422 Z" id="ASIAPACIFIC" fill="#CB2023"></path>
                            <g id="pacific" transform="translate(71.384181, 0.000000)" fill="#FFFFFF">
                                <path d="M7.59902134,0.551317998 C10.5665973,0.551317998 12.8734739,1.16749077 14.5197204,2.39985481 C16.1659669,3.63221885 16.9890778,5.45911709 16.9890778,7.88060432 C16.9890778,10.4101937 16.1822125,12.3181673 14.5684577,13.6045824 C12.9547029,14.8909975 10.7940368,15.5341953 8.08639451,15.5341953 L5.64952866,15.5341953 L5.64952866,23.025634 L0.32091531,23.025634 L0.32091531,0.551317998 L7.59902134,0.551317998 Z M7.63151289,11.7073998 C8.8878589,11.7073998 9.84634989,11.4101235 10.5070146,10.8155619 C11.1676793,10.2210003 11.4980067,9.24269089 11.4980067,7.88060432 C11.4980067,5.52397835 10.1766971,4.34568304 7.53403825,4.34568304 L5.64952866,4.34568304 L5.64952866,11.7073998 L7.63151289,11.7073998 Z" id="Combined-Shape"></path>
                                <path d="M31.2285882,23.025634 L30.0588926,18.1934939 L23.4956005,18.1934939 L22.3583965,23.025634 L16.8348339,23.025634 L23.6255667,0.551317998 L30.0913841,0.551317998 L36.882117,23.025634 L31.2285882,23.025634 Z M24.4053638,14.3342679 L29.1491293,14.3342679 L26.7772466,4.41054398 L24.4053638,14.3342679 Z" id="Combined-Shape"></path>
                                <path d="M48.1607899,0 C49.5687639,0 50.8196759,0.205390926 51.9135634,0.616178939 C53.0074508,1.02696695 54.0417547,1.64313973 55.0165059,2.46471575 L52.4821654,5.48074951 C51.8106701,4.96185939 51.1500153,4.57269763 50.5001812,4.31325257 C49.850347,4.05380751 49.157201,3.92408693 48.4207223,3.92408693 C46.9044426,3.92408693 45.7076827,4.5618798 44.8304066,5.83748468 C43.9531305,7.11308956 43.514499,9.08051843 43.514499,11.7398303 C43.514499,14.3559013 43.9531305,16.2963051 44.8304066,17.5610998 C45.7076827,18.8258944 46.9261034,19.4582823 48.4857054,19.4582823 C49.3088286,19.4582823 50.0561267,19.3015366 50.727622,18.9880405 C51.3991173,18.6745443 52.1247545,18.2259273 52.9045555,17.6421759 L55.2764382,20.6906402 C54.4316539,21.5338366 53.4081804,22.2256797 52.2059873,22.7661903 C51.0037941,23.3067008 49.6770693,23.576952 48.225773,23.576952 C46.1463038,23.576952 44.3376259,23.12293 42.799685,22.2148723 C41.2617442,21.3068146 40.0649843,19.9609635 39.2093693,18.1772787 C38.3537544,16.3935939 37.9259533,14.2477992 37.9259533,11.7398303 C37.9259533,9.29672265 38.3645848,7.18876315 39.2418609,5.41588857 C40.119137,3.64301398 41.3321425,2.29716292 42.8809139,1.37829499 C44.4296853,0.45942707 46.1896264,0 48.1607899,0 Z" id="Path"></path>
                                <polygon id="Path" points="64.4797592 0.551317998 64.4797592 23.025634 59.1511459 23.025634 59.1511459 0.551317998"></polygon>
                                <polygon id="Path" points="69.4225809 23.025634 69.4225809 0.551317998 82.8415889 0.551317998 82.2892327 4.34568304 74.7511943 4.34568304 74.7511943 10.3128896 81.3144863 10.3128896 81.3144863 14.1072546 74.7511943 14.1072546 74.7511943 23.025634"></polygon>
                                <polygon id="Path" points="92.0774014 0.551317998 92.0774014 23.025634 86.7487881 23.025634 86.7487881 0.551317998"></polygon>
                                <path d="M105.463918,0 C106.871892,0 108.122804,0.205390926 109.216691,0.616178939 C110.310579,1.02696695 111.344883,1.64313973 112.319634,2.46471575 L109.785293,5.48074951 C109.113798,4.96185939 108.453143,4.57269763 107.803309,4.31325257 C107.153475,4.05380751 106.460329,3.92408693 105.72385,3.92408693 C104.207571,3.92408693 103.010811,4.5618798 102.133535,5.83748468 C101.256258,7.11308956 100.817627,9.08051843 100.817627,11.7398303 C100.817627,14.3559013 101.256258,16.2963051 102.133535,17.5610998 C103.010811,18.8258944 104.229231,19.4582823 105.788833,19.4582823 C106.611957,19.4582823 107.359255,19.3015366 108.03075,18.9880405 C108.702245,18.6745443 109.427882,18.2259273 110.207683,17.6421759 L112.579566,20.6906402 C111.734782,21.5338366 110.711308,22.2256797 109.509115,22.7661903 C108.306922,23.3067008 106.980197,23.576952 105.528901,23.576952 C103.449432,23.576952 101.640754,23.12293 100.102813,22.2148723 C98.5648722,21.3068146 97.3681123,19.9609635 96.5124973,18.1772787 C95.6568824,16.3935939 95.2290813,14.2477992 95.2290813,11.7398303 C95.2290813,9.29672265 95.6677128,7.18876315 96.5449889,5.41588857 C97.4222649,3.64301398 98.6352705,2.29716292 100.184042,1.37829499 C101.732813,0.45942707 103.492754,0 105.463918,0 Z" id="Path"></path>
                            </g>
                        </g>
                    </g>
                </g>
            </g>
        </g>
    </g>
</svg>