<svg xmlns="http://www.w3.org/2000/svg" viewBox="0 0 52.274 49.25">
  <defs>
    <style>
      .cls-1 {
        fill: #cb2023;
      }

      .cls-2 {
        fill: #282625;
      }

      .cls-3 {
        fill: #fff;
      }
    </style>
  </defs>
  <g id="four__service-weibo" transform="translate(0 -1.707)">
    <path id="Path_299" data-name="Path 299" class="cls-1" d="M49.616,15.883A14.193,14.193,0,0,0,35.44,1.707H14.176A14.193,14.193,0,0,0,0,15.883v12.4A14.182,14.182,0,0,0,13.29,42.418v-3.5a.886.886,0,0,1,1.772,0V50.957l1.2-1.2a24.725,24.725,0,0,1,17.6-7.289H35.44A14.193,14.193,0,0,0,49.616,28.287Z" transform="translate(0)"/>
    <g id="Group_131" data-name="Group 131" transform="translate(31.01 28.301)">
      <circle id="Ellipse_27" data-name="Ellipse 27" class="cls-2" cx="10.632" cy="10.632" r="10.632"/>
      <path id="Path_300" data-name="Path 300" class="cls-3" d="M52.138,37.882A.885.885,0,0,0,50.9,38.1l-4.958,7.123-3.5-2.872a.886.886,0,0,0-1.123,1.37l4.24,3.481a.888.888,0,0,0,.562.2.941.941,0,0,0,.121-.008.891.891,0,0,0,.606-.371l5.506-7.911A.888.888,0,0,0,52.138,37.882Z" transform="translate(-35.684 -32.407)"/>
    </g>
  </g>
</svg>
