<svg width="45" height="34" viewBox="0 0 45 34" fill="none" xmlns="http://www.w3.org/2000/svg">
<path d="M18.0322 12.9221L18.0832 13.0684C18.0764 13.0514 18.056 13.0004 18.0322 12.9221Z" fill="#69C9D0"/>
<path d="M21.8083 7.05796C21.2845 7.25864 20.8015 7.54777 20.3729 7.90832C19.8865 8.32671 19.4783 8.83009 19.1654 9.38793C19.0464 9.59202 18.5974 10.4084 18.5429 11.7417C18.5123 12.4969 18.7402 13.2758 18.8457 13.599V13.6024C18.9137 13.7861 19.179 14.4426 19.6144 14.997C19.7402 15.1568 19.8763 15.31 20.0192 15.4561C19.5566 15.1365 19.1484 14.7521 18.798 14.3132C18.3661 13.7656 18.1007 13.1159 18.0327 12.9254V12.9187C17.9239 12.5955 17.696 11.8133 17.73 11.0581C17.7844 9.72807 18.2334 8.90835 18.3525 8.70426C18.6654 8.14642 19.0736 7.64301 19.56 7.22463C19.9886 6.86408 20.475 6.57495 20.9954 6.37427C21.3219 6.23821 21.6621 6.13956 22.009 6.07494C22.5329 5.98309 23.0669 5.97629 23.5942 6.05112V6.6838C22.9784 6.69401 22.373 6.81985 21.8083 7.05796H21.8083Z" fill="#69C9D0"/>
<path d="M28.0998 0.683688H26.059V11.5207C26.059 11.9017 26.059 12.2691 25.933 12.6364C25.7256 13.2215 25.2868 13.7521 24.7051 13.9868C23.8276 14.3405 23.1404 14.2997 22.3241 13.7589C22.12 13.6194 21.9431 13.446 21.7969 13.2487C22.4942 13.6194 23.1166 13.6127 23.8888 13.3031C24.4738 13.0684 24.9126 12.5378 25.1167 11.9527C25.246 11.5854 25.2426 11.218 25.2426 10.8371V0H28.0624C28.059 0 28.0283 0.26871 28.0998 0.683688ZM31.957 3.91848V4.52053C31.6271 4.44229 31.3039 4.32666 31.0012 4.17358C30.4128 3.88106 29.9536 3.40146 29.8617 3.30281C29.9672 3.37084 30.0727 3.43207 30.1849 3.4899C30.906 3.84704 31.6101 3.95589 31.957 3.91848Z" fill="#69C9D0"/>
<path d="M18.3076 14.5514L18.362 14.7078C18.3552 14.6908 18.3348 14.6364 18.3076 14.5514ZM20.5152 10.9833C20.6138 10.1362 20.9471 9.6635 21.573 9.17706C22.471 8.52061 23.5901 8.89134 23.5901 8.89134V6.68377C23.8622 6.67696 24.1343 6.69398 24.403 6.73479V9.57501C24.403 9.57501 23.284 9.20427 22.386 9.86073C21.7601 10.3472 21.4268 10.82 21.3281 11.6669C21.3247 12.1262 21.4063 12.7282 21.7873 13.2452C21.6921 13.1942 21.5968 13.1364 21.4982 13.0717C20.6648 12.4867 20.5118 11.6056 20.5152 10.9833ZM29.0324 2.60202C28.4168 1.89791 28.1821 1.1836 28.0971 0.683594H28.8726C28.8726 0.683594 28.7195 1.99656 29.8454 3.2857L29.8623 3.30272C29.5563 3.10543 29.2773 2.86733 29.0324 2.60202ZM32.7706 4.60207V7.38447C32.7706 7.38447 31.7808 7.34365 31.0461 7.14977C30.0222 6.87765 29.3658 6.45927 29.3658 6.45927C29.3658 6.45927 28.9099 6.15994 28.876 6.13953V11.888C28.876 12.2078 28.791 13.007 28.5358 13.6737C28.2024 14.5445 27.6854 15.1194 27.5902 15.235C27.5902 15.235 26.9609 16.0106 25.8555 16.531C24.8589 17.0004 23.9812 16.9902 23.7194 17.0004C23.7194 17.0004 22.2057 17.0616 20.8417 16.1399C20.5458 15.9358 20.2703 15.7045 20.0185 15.4493L20.0253 15.4561C21.3893 16.3813 22.903 16.3167 22.903 16.3167C23.1649 16.3065 24.0425 16.3167 25.0391 15.8473C26.1446 15.3269 26.7738 14.5514 26.7738 14.5514C26.8691 14.4357 27.3861 13.8608 27.7195 12.9901C27.9746 12.3234 28.0596 11.524 28.0596 11.2043V5.45924C28.0971 5.47965 28.5494 5.77898 28.5494 5.77898C28.5494 5.77898 29.2059 6.19736 30.2297 6.46948C30.9644 6.66336 31.9543 6.70417 31.9543 6.70417V4.52384C32.2944 4.60207 32.5835 4.62248 32.7706 4.60207Z" fill="#EE1D52"/>
<path d="M31.9568 4.52044V6.70078C31.9568 6.70078 30.9669 6.65996 30.2322 6.46607C29.2084 6.19396 28.5519 5.77558 28.5519 5.77558C28.5519 5.77558 28.0961 5.47625 28.0621 5.45585V11.2043C28.0621 11.524 27.9771 12.3234 27.722 12.9901C27.3886 13.8608 26.8716 14.4357 26.7763 14.5514C26.7763 14.5514 26.1471 15.3269 25.0416 15.8473C24.045 16.3168 23.1674 16.3065 22.9055 16.3168C22.9055 16.3168 21.3918 16.3779 20.0279 15.4561L20.0211 15.4494C19.8782 15.3031 19.7421 15.15 19.6163 14.9901C19.1809 14.4357 18.9156 13.7826 18.8476 13.5956V13.5921C18.7387 13.269 18.5142 12.4867 18.5448 11.735C18.5993 10.405 19.0483 9.58524 19.1673 9.38115C19.4802 8.82331 19.8918 8.32327 20.3748 7.90489C20.8034 7.54433 21.2898 7.25521 21.8102 7.05452C22.3749 6.81642 22.9803 6.69057 23.5926 6.68036V8.88797C23.5926 8.88797 22.4735 8.51713 21.5755 9.17369C20.9497 9.66002 20.6163 10.1328 20.5177 10.9798C20.5143 11.6023 20.6673 12.4833 21.5041 13.0717C21.6027 13.1364 21.698 13.1942 21.7932 13.2452C21.9395 13.4424 22.1164 13.6159 22.3204 13.7589C23.1402 14.2996 23.8239 14.337 24.7015 13.9867C25.2865 13.752 25.7253 13.2247 25.9294 12.6363C26.0587 12.269 26.0552 11.9016 26.0552 11.5206V0.683594H28.0961C28.1812 1.1836 28.4125 1.89791 29.0315 2.60202C29.2798 2.86733 29.5588 3.10543 29.8615 3.30272C29.95 3.40135 30.4091 3.87756 31.001 4.17349C31.3037 4.32655 31.6269 4.4422 31.9568 4.52044Z" fill="black"/>
<g clip-path="url(#clip0)">
<path fill-rule="evenodd" clip-rule="evenodd" d="M40.8582 24.6802C41.3237 23.7704 41.3735 22.9195 40.9937 22.2584C40.5999 21.5734 39.7871 21.1833 38.7053 21.1607C37.9111 21.1443 37.0087 21.3263 36.1044 21.6797C36.4162 20.6115 36.3155 19.7636 35.8037 19.2494C35.1887 18.6315 34.0899 18.6103 32.7094 19.1895C31.4226 19.7299 30.0082 20.7362 28.727 22.0234C26.819 23.9402 25.5512 26.1637 25.4903 27.697C25.4664 27.8464 25.4543 27.9976 25.4541 28.1489C25.4541 29.5215 26.4118 30.7959 28.1514 31.7365C29.8254 32.6424 32.0442 33.1412 34.3988 33.1412C36.753 33.1412 38.9717 32.6424 40.6461 31.7368C42.3854 30.7959 43.3431 29.5215 43.3431 28.1489C43.3431 26.8307 42.4635 25.608 40.8579 24.6799L40.8582 24.6802Z" fill="#EA533B"/>
<path fill-rule="evenodd" clip-rule="evenodd" d="M35.3926 32.8088C33.0384 32.8088 30.8197 32.3097 29.1453 31.4042C27.4057 30.4632 26.448 29.1892 26.448 27.8163C26.448 27.668 26.4604 27.5162 26.4845 27.3643C26.5451 25.831 27.8126 23.6079 29.7209 21.6907C30.9894 20.4166 32.3882 19.4175 33.6648 18.8735C33.3651 18.9432 33.0459 19.0486 32.7094 19.1897C31.4226 19.73 30.0082 20.7364 28.727 22.0235C26.819 23.9404 25.5512 26.1642 25.4903 27.6968C25.4664 27.8463 25.4543 27.9974 25.4541 28.1488C25.4541 29.5214 26.4118 30.7958 28.1514 31.7363C29.8254 32.6422 32.0442 33.141 34.3988 33.141C36.2546 33.141 38.0257 32.8311 39.5128 32.256C38.256 32.6167 36.8504 32.8082 35.3923 32.8082L35.3926 32.8088Z" fill="#D93C1C"/>
<path fill-rule="evenodd" clip-rule="evenodd" d="M39.3568 27.136C39.259 26.002 38.514 25.0032 37.2595 24.3234C36.05 23.6679 34.4994 23.3841 32.8931 23.5242C31.2868 23.6646 29.8078 24.2128 28.7289 25.068C27.6099 25.9549 27.0477 27.0679 27.1457 28.2019C27.2435 29.3356 27.9888 30.3348 29.2433 31.0145C30.2505 31.5604 31.4946 31.8487 32.8103 31.8484C33.0742 31.8484 33.3413 31.8369 33.6097 31.8134C35.216 31.6733 36.6947 31.1251 37.7736 30.27C38.8925 29.3831 39.4551 28.27 39.3568 27.136Z" fill="white"/>
<path fill-rule="evenodd" clip-rule="evenodd" d="M34.2479 31.4809C33.9798 31.5044 33.7127 31.5159 33.4488 31.5159C32.1328 31.5159 30.889 31.2279 29.8818 30.682C28.6269 30.0019 27.8819 29.0031 27.7839 27.8691C27.6862 26.7354 28.2481 25.6223 29.3671 24.7351C29.5933 24.5567 29.8314 24.3942 30.0798 24.2488C29.5986 24.4667 29.1451 24.7417 28.7289 25.0679C27.6099 25.9549 27.0477 27.0679 27.1457 28.2019C27.2435 29.3356 27.9885 30.3347 29.2433 31.0145C30.2505 31.5604 31.4943 31.8487 32.8103 31.8484C33.0742 31.8484 33.3413 31.8369 33.6097 31.8134C34.8864 31.7021 36.0822 31.3326 37.0608 30.7563C36.2191 31.1425 35.2587 31.3925 34.2479 31.4809Z" fill="#E5E5E5"/>
<path fill-rule="evenodd" clip-rule="evenodd" d="M36.3967 27.1553C36.0338 25.6387 34.276 24.758 32.4785 25.192C30.681 25.6263 29.5138 27.2132 29.8767 28.7298C30.0555 29.477 30.5696 30.0913 31.325 30.4598C31.7941 30.6889 32.3218 30.8051 32.8658 30.8051C33.1727 30.8051 33.4848 30.7681 33.7949 30.6931C35.5924 30.2592 36.7593 28.6719 36.3967 27.1553Z" fill="#333333"/>
<path fill-rule="evenodd" clip-rule="evenodd" d="M32.2448 29.8132C32.3987 29.8158 32.5515 29.7875 32.6945 29.7302C32.8374 29.6728 32.9676 29.5874 33.0773 29.479C33.1871 29.3705 33.2742 29.2412 33.3337 29.0986C33.3932 28.956 33.4239 28.8029 33.4239 28.6482C33.4239 28.4936 33.3932 28.3405 33.3337 28.1979C33.2742 28.0553 33.1871 27.926 33.0773 27.8175C32.9676 27.7091 32.8374 27.6237 32.6945 27.5663C32.5515 27.5089 32.3987 27.4807 32.2448 27.4833C31.9406 27.4884 31.6506 27.6134 31.4373 27.8313C31.224 28.0492 31.1045 28.3426 31.1045 28.6482C31.1045 28.9539 31.224 29.2472 31.4373 29.4652C31.6506 29.6831 31.9406 29.808 32.2448 29.8132Z" fill="white"/>
<path fill-rule="evenodd" clip-rule="evenodd" d="M39.6989 19.6621C39.5672 19.6621 39.4408 19.7147 39.3477 19.8083C39.2545 19.9019 39.2021 20.0288 39.2021 20.1612C39.2021 20.2936 39.2545 20.4205 39.3477 20.5141C39.4408 20.6077 39.5672 20.6603 39.6989 20.6603C40.182 20.6609 40.6451 20.854 40.9867 21.1972C41.3283 21.5404 41.5204 22.0057 41.5209 22.4911C41.5209 22.6234 41.5732 22.7504 41.6664 22.844C41.7596 22.9376 41.8859 22.9901 42.0177 22.9901C42.1494 22.9901 42.2758 22.9376 42.3689 22.844C42.4621 22.7504 42.5145 22.6234 42.5145 22.4911C42.5145 20.9313 41.2515 19.6621 39.6989 19.6621Z" fill="#FFA929"/>
<path fill-rule="evenodd" clip-rule="evenodd" d="M39.368 16.833C39.2436 16.833 39.1172 16.8369 38.9934 16.8451C38.9066 16.8508 38.8217 16.8737 38.7436 16.9123C38.6656 16.951 38.5959 17.0047 38.5385 17.0705C38.4226 17.2032 38.364 17.3768 38.3754 17.553C38.3869 17.7292 38.4676 17.8936 38.5998 18.01C38.7319 18.1265 38.9047 18.1854 39.0801 18.1738C39.1755 18.1673 39.2723 18.164 39.368 18.164C41.7428 18.164 43.6745 20.1051 43.6745 22.4906C43.6745 22.7825 43.6456 23.0741 43.5885 23.3569C43.5634 23.4879 43.5775 23.6235 43.629 23.7465C43.6804 23.8695 43.767 23.9744 43.8778 24.0481C44.1065 24.1973 44.4163 24.1855 44.6346 24.0222C44.7639 23.9253 44.8551 23.7804 44.887 23.6216C44.9619 23.2518 44.9997 22.8712 44.9997 22.4909C44.9997 19.3707 42.4735 16.833 39.368 16.833Z" fill="#FFA929"/>
<path fill-rule="evenodd" clip-rule="evenodd" d="M34.3989 28.149C34.5746 28.149 34.7432 28.0788 34.8674 27.954C34.9917 27.8292 35.0615 27.6598 35.0615 27.4833C35.0615 27.3068 34.9917 27.1374 34.8674 27.0126C34.7432 26.8878 34.5746 26.8176 34.3989 26.8176C34.2232 26.8176 34.0547 26.8878 33.9304 27.0126C33.8061 27.1374 33.7363 27.3068 33.7363 27.4833C33.7363 27.6598 33.8061 27.8292 33.9304 27.954C34.0547 28.0788 34.2232 28.149 34.3989 28.149Z" fill="white"/>
</g>
<g clip-path="url(#clip1)">
<path fill-rule="evenodd" clip-rule="evenodd" d="M13.9489 20.3601C13.0394 17.7127 10.2972 15.9346 7.12595 15.9346C3.19633 15.9349 0 18.7218 0 22.1481C0.0156189 23.0823 0.251916 23.9992 0.689141 24.8221C1.12637 25.645 1.75182 26.3501 2.51322 26.8783L1.67211 28.5898C1.62299 28.6875 1.61402 28.8009 1.64715 28.9053C1.68029 29.0097 1.75284 29.0966 1.849 29.1471C1.97344 29.212 2.12166 29.2074 2.24219 29.1349L4.39708 27.8817C4.98147 28.0916 5.58779 28.2327 6.20405 28.3022C6.26918 28.3097 6.33514 28.3013 6.39635 28.2775C6.45756 28.2538 6.51221 28.2155 6.55568 28.1658C6.59915 28.1161 6.63015 28.0566 6.64606 27.9922C6.66197 27.9278 6.66232 27.8605 6.64708 27.796C6.56215 27.4384 6.51789 27.0722 6.51515 26.7045C6.51515 23.5074 9.6206 20.9055 13.4375 20.9055L13.5574 20.9111C13.6228 20.9104 13.6871 20.8946 13.7456 20.8649C13.804 20.8351 13.8549 20.7923 13.8945 20.7396C13.933 20.6855 13.958 20.6227 13.9675 20.5567C13.977 20.4907 13.9706 20.4234 13.9489 20.3604V20.3601Z" fill="#4CAF50"/>
<path fill-rule="evenodd" clip-rule="evenodd" d="M4.47941 18.4202C4.15467 18.421 3.84357 18.5524 3.61449 18.7854C3.38542 19.0184 3.25712 19.334 3.25782 19.6627C3.25712 19.9915 3.38542 20.307 3.61449 20.54C3.84357 20.773 4.15467 20.9044 4.47941 20.9053C4.80414 20.9044 5.11525 20.773 5.34432 20.54C5.5734 20.307 5.70169 19.9915 5.701 19.6627C5.70169 19.334 5.5734 19.0184 5.34432 18.7854C5.11525 18.5524 4.80414 18.421 4.47941 18.4202ZM9.36577 18.4202C9.04103 18.421 8.72993 18.5524 8.50085 18.7854C8.27178 19.0184 8.14349 19.334 8.14418 19.6627C8.14349 19.9915 8.27178 20.307 8.50085 20.54C8.72993 20.773 9.04103 20.9044 9.36577 20.9053C9.69051 20.9044 10.0016 20.773 10.2307 20.54C10.4598 20.307 10.5881 19.9915 10.5874 19.6627C10.5881 19.334 10.4598 19.0184 10.2307 18.7854C10.0016 18.5524 9.69051 18.421 9.36577 18.4202Z" fill="#FAFAFA"/>
<path fill-rule="evenodd" clip-rule="evenodd" d="M19.545 26.7044C19.545 23.9634 16.8054 21.7341 13.4371 21.7341C10.0687 21.7341 7.3291 23.9634 7.3291 26.7044C7.3291 29.4458 10.0687 31.675 13.4371 31.675C14.069 31.675 14.6984 31.5935 15.3102 31.4333L17.3289 32.4595C17.5302 32.5617 17.7748 32.4793 17.8755 32.2748C17.9276 32.1687 17.9325 32.0453 17.8892 31.9352L17.3364 30.5271C17.9879 30.1243 18.5307 29.5643 18.9161 28.8972C19.3016 28.2301 19.5176 27.4767 19.545 26.7044Z" fill="#4CAF50"/>
<path fill-rule="evenodd" clip-rule="evenodd" d="M11.4013 24.219C10.9518 24.219 10.5869 24.59 10.5869 25.0474C10.5867 25.1559 10.6075 25.2634 10.6483 25.3638C10.6891 25.4641 10.749 25.5554 10.8246 25.6323C10.9003 25.7092 10.9901 25.7703 11.0891 25.8121C11.188 25.8539 11.2941 25.8755 11.4013 25.8757C11.8509 25.8757 12.2157 25.5048 12.2157 25.0474C12.216 24.9388 12.1951 24.8313 12.1543 24.731C12.1135 24.6306 12.0536 24.5394 11.978 24.4624C11.9024 24.3855 11.8125 24.3244 11.7136 24.2827C11.6146 24.2409 11.5085 24.2193 11.4013 24.219ZM15.4733 24.219C15.0237 24.219 14.6589 24.59 14.6589 25.0474C14.6586 25.1559 14.6795 25.2634 14.7203 25.3638C14.7611 25.4641 14.821 25.5554 14.8966 25.6323C14.9722 25.7092 15.0621 25.7703 15.161 25.8121C15.26 25.8539 15.3661 25.8755 15.4733 25.8757C15.9228 25.8757 16.2877 25.5048 16.2877 25.0474C16.2879 24.9388 16.2671 24.8313 16.2263 24.731C16.1855 24.6306 16.1256 24.5394 16.05 24.4624C15.9743 24.3855 15.8845 24.3244 15.7855 24.2827C15.6866 24.2409 15.5805 24.2193 15.4733 24.219Z" fill="#FAFAFA"/>
</g>
<defs>
<clipPath id="clip0">
<rect width="19.5455" height="16.3636" fill="white" transform="translate(25.4541 16.8181)"/>
</clipPath>
<clipPath id="clip1">
<rect width="19.5455" height="16.8182" fill="white" transform="translate(0 15.9089)"/>
</clipPath>
</defs>
</svg>
