<svg width="65" height="37" viewBox="0 0 65 37" fill="none" xmlns="http://www.w3.org/2000/svg">
<path fill-rule="evenodd" clip-rule="evenodd" d="M48.0993 29.3845C43.7595 25.813 39.0869 23.4543 38.1284 22.9879C38.0219 22.9346 37.9553 22.8279 37.9553 22.708V15.9516C38.8073 15.3785 39.3664 14.4191 39.3664 13.3263V6.31666C39.3664 2.82517 36.5442 0 33.0564 0H32.3109H31.5521C28.0642 0 25.242 2.82517 25.242 6.31666V13.3263C25.242 14.4191 25.8011 15.3919 26.6531 15.9516V22.708C26.6531 22.8279 26.5866 22.9346 26.4801 22.9879C25.5216 23.4543 20.849 25.8264 16.5091 29.3845C15.7237 30.0241 15.2711 30.997 15.2711 32.0098V36.8072H32.3109H49.3374V32.0098C49.3374 30.997 48.8847 30.0241 48.0993 29.3845Z" fill="#CC6A6C"/>
<path fill-rule="evenodd" clip-rule="evenodd" d="M63.92 24.6989C60.2799 21.695 56.3464 19.7057 55.5464 19.3186C55.4531 19.2785 55.3997 19.1851 55.3997 19.0783V13.4042C56.1064 12.9235 56.5864 12.1225 56.5864 11.1879V5.30026C56.5864 2.37644 54.213 0 51.293 0H50.6663H50.0396C47.1195 0 44.7461 2.37644 44.7461 5.30026V11.1879C44.7461 12.1091 45.2128 12.9235 45.9328 13.4042V19.0783C45.9328 19.1851 45.8795 19.2652 45.7861 19.3186C45.2928 19.5589 43.5861 20.4133 41.506 21.7484C43.5861 22.8966 46.8795 24.8725 49.9863 27.4358C51.0796 28.3303 51.7996 29.572 52.0663 30.9337H65V26.9018C64.96 26.0474 64.5867 25.233 63.92 24.6989Z" fill="white"/>
<path fill-rule="evenodd" clip-rule="evenodd" d="M19.2005 19.3186C19.1072 19.2785 19.0539 19.1851 19.0539 19.0783V13.4042C19.7605 12.9235 20.2406 12.1225 20.2406 11.1879V5.30026C20.2406 2.37644 17.8672 0 14.9471 0H14.3204H13.667C10.747 0 8.37356 2.37644 8.37356 5.30026V11.1879C8.37356 12.1091 8.84024 12.9235 9.56026 13.4042V19.0783C9.56026 19.1851 9.50693 19.2652 9.41359 19.3186C8.61357 19.7057 4.68013 21.695 1.04003 24.6989C0.386677 25.2463 0 26.0474 0 26.9018V30.9337H12.9337C13.187 29.572 13.9204 28.3303 15.0137 27.4358C18.1205 24.8725 21.4139 22.8966 23.494 21.7484C21.4006 20.4133 19.6939 19.5589 19.2005 19.3186Z" fill="white"/>
</svg>
