<svg width="35" height="44" viewBox="0 0 35 44" fill="none" xmlns="http://www.w3.org/2000/svg">
<g clip-path="url(#clip0)">
<path d="M33.1814 2.18124e-06H1.82145C1.58262 -0.000367395 1.34606 0.0462307 1.12527 0.137136C0.904486 0.228041 0.703794 0.361473 0.534656 0.529813C0.365519 0.698154 0.231249 0.898106 0.139513 1.11825C0.047776 1.3384 0.000369605 1.57443 0 1.81287V7.98918C0.000369605 8.22762 0.047776 8.46365 0.139513 8.6838C0.231249 8.90394 0.365519 9.1039 0.534656 9.27224C0.703794 9.44058 0.904486 9.57401 1.12527 9.66492C1.34606 9.75582 1.58262 9.80242 1.82145 9.80205H33.1804C33.6624 9.8023 34.1248 9.6115 34.466 9.27157C34.8072 8.93165 34.9993 8.4704 35 7.98918V1.81287C34.9993 1.33181 34.8073 0.870706 34.4663 0.530808C34.1254 0.19091 33.6632 1.60427e-06 33.1814 2.18124e-06ZM3.27955 4.2997C3.05803 4.29989 2.84142 4.23454 2.65707 4.11192C2.47272 3.9893 2.32888 3.8149 2.24373 3.61073C2.15857 3.40657 2.13591 3.18179 2.17861 2.96478C2.2213 2.74776 2.32744 2.54824 2.48362 2.3914C2.63979 2.23456 2.83902 2.12743 3.05613 2.08354C3.27324 2.03964 3.49851 2.06095 3.70351 2.14477C3.9085 2.22859 4.08402 2.37117 4.20792 2.5545C4.33182 2.73784 4.39853 2.95371 4.39965 3.17486C4.40039 3.32224 4.37197 3.4683 4.31602 3.60468C4.26008 3.74106 4.1777 3.86506 4.07363 3.96958C3.96956 4.07409 3.84584 4.15705 3.70957 4.2137C3.5733 4.27036 3.42716 4.29958 3.27955 4.2997ZM30.2163 7.52706H22.294V4.90243H30.2173V7.52706H30.2163ZM33.1814 10.8013H1.82145C1.5825 10.801 1.34584 10.8478 1.12499 10.9388C0.904132 11.0299 0.703405 11.1635 0.534268 11.332C0.365131 11.5005 0.230895 11.7007 0.139225 11.921C0.0475552 12.1413 0.000246467 12.3775 0 12.616V18.7886C0.00124295 19.2701 0.193694 19.7314 0.535147 20.0714C0.876601 20.4114 1.33918 20.6024 1.82145 20.6024H33.1804C33.6625 20.6024 34.1249 20.4114 34.4661 20.0713C34.8072 19.7312 34.9993 19.2699 35 18.7886V12.6104C34.999 12.1292 34.8071 11.6681 34.4662 11.3279C34.1253 10.9878 33.6633 10.7964 33.1814 10.7957V10.8013ZM3.27955 15.0972C3.05784 15.0972 2.84111 15.0317 2.6567 14.9088C2.4723 14.7859 2.32849 14.6112 2.24343 14.4068C2.15838 14.2024 2.13589 13.9774 2.1788 13.7603C2.22171 13.5431 2.32811 13.3435 2.48455 13.1867C2.64099 13.0298 2.84047 12.9228 3.0578 12.879C3.27513 12.8353 3.50057 12.8568 3.70567 12.9409C3.91076 13.0249 4.08631 13.1678 4.21016 13.3514C4.33401 13.5349 4.4006 13.751 4.40152 13.9724C4.40252 14.12 4.37421 14.2663 4.31823 14.4029C4.26226 14.5395 4.17973 14.6637 4.07541 14.7683C3.97108 14.8729 3.84704 14.9558 3.71044 15.0123C3.57384 15.0687 3.42739 15.0976 3.27955 15.0972ZM30.2163 18.3246H22.294V15.7H30.2173V18.3246H30.2163ZM33.1814 21.5941H1.82145C1.33903 21.5936 0.876161 21.7844 0.534599 22.1245C0.193038 22.4647 0.00074652 22.9263 0 23.4079V29.5805C0.000994698 30.0621 0.193336 30.5237 0.534816 30.8639C0.876297 31.2042 1.33902 31.3952 1.82145 31.3952H33.1804C33.6627 31.3952 34.1252 31.2041 34.4664 30.8638C34.8076 30.5235 34.9995 30.062 35 29.5805V23.4079C34.9993 22.9268 34.8074 22.4656 34.4664 22.1255C34.1254 21.7855 33.6633 21.5944 33.1814 21.5941ZM3.27955 25.8929C3.02121 25.8922 2.77109 25.8022 2.57175 25.6381C2.37241 25.4741 2.23618 25.2461 2.18624 24.9931C2.1363 24.74 2.17573 24.4775 2.29783 24.2502C2.41994 24.0229 2.61716 23.8449 2.85593 23.7464C3.09471 23.648 3.36028 23.6352 3.60744 23.7102C3.85461 23.7852 4.0681 23.9434 4.21157 24.1579C4.35505 24.3724 4.41964 24.6299 4.39436 24.8866C4.36908 25.1433 4.25548 25.3833 4.07291 25.5657C3.96868 25.6696 3.84496 25.752 3.70883 25.8081C3.57271 25.8643 3.42683 25.8931 3.27955 25.8929ZM30.2163 29.1202H22.294V26.4956H30.2173V29.1202H30.2163Z" fill="#CB2023"/>
<path d="M22.9162 37.299H19.5738V32.4453H15.4285V37.3009H12.0814V38.5794H0.382812V42.7207H12.0814V44.0012H22.9162V42.7207H34.6148V38.5794H22.9162V37.299Z" fill="#282625"/>
</g>
<defs>
<clipPath id="clip0">
<rect width="35" height="44" fill="white"/>
</clipPath>
</defs>
</svg>
