<svg width="55" height="40" viewBox="0 0 55 40" fill="none" xmlns="http://www.w3.org/2000/svg">
<path d="M53 35V2.02221C53 0.905172 52.0893 0 50.9662 0H4.03381C2.91052 0 2 0.905279 2 2.02221V35H53Z" fill="#CB2023"/>
<path d="M48.4066 3H6.59341C6.2656 3 6 3.26438 6 3.5907V34.4093C6 34.7356 6.2656 35 6.59341 35H48.4066C48.7344 35 49 34.7356 49 34.4093V3.5907C49 3.26438 48.7344 3 48.4066 3Z" fill="white"/>
<path d="M54.852 35.1997C54.7385 35.0727 54.5749 35 54.4026 35H0.597354C0.425157 35 0.261338 35.0728 0.147901 35.1997C0.0345703 35.3266 -0.0175294 35.4951 0.00524411 35.6625C0.34083 38.1352 2.51537 40 5.06332 40H49.9368C52.4847 40 54.6592 38.1353 54.9948 35.6625C55.0175 35.4952 54.9656 35.3266 54.852 35.1997Z" fill="#CB2023"/>
<path d="M25.1732 25.9549H9.95523C9.46588 25.9549 9.06935 25.54 9.06935 25.028C9.06935 24.5161 9.46588 24.1011 9.95523 24.1011H25.1732C25.6626 24.1011 26.0591 24.5161 26.0591 25.028C26.0591 25.5399 25.6626 25.9549 25.1732 25.9549Z" fill="#3D3C3B"/>
<path d="M25.1732 29.4257H9.95523C9.46588 29.4257 9.06935 29.0108 9.06935 28.4988C9.06935 27.9868 9.46588 27.5719 9.95523 27.5719H25.1732C25.6626 27.5719 26.0591 27.9868 26.0591 28.4988C26.0591 29.0107 25.6626 29.4257 25.1732 29.4257Z" fill="#3D3C3B"/>
<path d="M25.1732 32.8965H9.95523C9.46588 32.8965 9.06935 32.4816 9.06935 31.9696C9.06935 31.4577 9.46588 31.0427 9.95523 31.0427H25.1732C25.6626 31.0427 26.0591 31.4577 26.0591 31.9696C26.0591 32.4815 25.6626 32.8965 25.1732 32.8965Z" fill="#3D3C3B"/>
<path d="M44.1116 25.9549H28.8937C28.4043 25.9549 28.0078 25.54 28.0078 25.028C28.0078 24.5161 28.4043 24.1011 28.8937 24.1011H44.1116C44.6009 24.1011 44.9974 24.5161 44.9974 25.028C44.9974 25.5399 44.6008 25.9549 44.1116 25.9549Z" fill="#3D3C3B"/>
<path d="M44.1116 29.4257H28.8937C28.4043 29.4257 28.0078 29.0108 28.0078 28.4988C28.0078 27.9868 28.4043 27.5719 28.8937 27.5719H44.1116C44.6009 27.5719 44.9974 27.9868 44.9974 28.4988C44.9974 29.0107 44.6008 29.4257 44.1116 29.4257Z" fill="#3D3C3B"/>
<path d="M44.1116 32.8965H28.8937C28.4043 32.8965 28.0078 32.4816 28.0078 31.9696C28.0078 31.4577 28.4043 31.0427 28.8937 31.0427H44.1116C44.6009 31.0427 44.9974 31.4577 44.9974 31.9696C44.9974 32.4815 44.6008 32.8965 44.1116 32.8965Z" fill="#3D3C3B"/>
<path d="M17.4831 14.5543V16.9066H16.0889V12.1211H17.1756L19.2133 14.5543V12.1211H20.6077V16.9066H19.4994L17.4831 14.5543Z" fill="#3D3C3B"/>
<path d="M25.0979 15.7608V16.9066H21.48V12.1211H25.0336V13.267H22.8741V13.941H24.7188V15.006H22.8741V15.7608H25.0979Z" fill="#3D3C3B"/>
<path d="M27.3644 12.1211H28.6442L29.0875 13.5973L29.538 12.1211H30.8179L29.9812 14.406L30.3459 15.4035L31.4399 12.121H32.9558L30.968 16.9065H29.8097L29.0875 15.1945L28.3726 16.9065H27.2142L25.2265 12.121H26.7351L27.8362 15.4035L28.1866 14.406L27.3644 12.1211Z" fill="#3D3C3B"/>
<path d="M36.2234 13.685C36.0803 13.604 35.9326 13.5322 35.7801 13.4693C35.6514 13.4154 35.5072 13.3649 35.3475 13.3176C35.1877 13.2705 35.0317 13.2468 34.8791 13.2468C34.7551 13.2468 34.6561 13.2649 34.5823 13.3008C34.5084 13.3368 34.4715 13.3975 34.4715 13.4828C34.4715 13.5459 34.493 13.5974 34.5359 13.6378C34.5786 13.6781 34.6406 13.7154 34.7217 13.7489C34.8028 13.7827 34.9016 13.8154 35.0184 13.8467C35.1352 13.8781 35.2674 13.9164 35.4154 13.9613C35.6489 14.0287 35.8597 14.1028 36.0482 14.1837C36.2365 14.2646 36.3972 14.3602 36.5309 14.4701C36.6641 14.5803 36.7667 14.7138 36.8384 14.871C36.9099 15.0284 36.9457 15.2192 36.9457 15.444C36.9457 15.7316 36.8896 15.9731 36.7776 16.1687C36.6655 16.3641 36.5177 16.5204 36.3342 16.6371C36.1507 16.7538 35.9433 16.8382 35.7121 16.8899C35.4808 16.9415 35.2485 16.9675 35.015 16.9675C34.8291 16.9675 34.6384 16.954 34.443 16.927C34.2475 16.9001 34.0534 16.862 33.8603 16.8124C33.6673 16.763 33.4813 16.7045 33.3025 16.6372C33.1238 16.5697 32.9582 16.4934 32.8056 16.4079L33.4062 15.2554C33.5731 15.3543 33.747 15.4419 33.9281 15.5182C34.0806 15.5857 34.2533 15.6463 34.4464 15.7003C34.6396 15.7542 34.8361 15.7811 35.0363 15.7811C35.1889 15.7811 35.2948 15.762 35.3545 15.7238C35.414 15.6857 35.4438 15.6352 35.4438 15.5722C35.4438 15.5046 35.414 15.4474 35.3545 15.4002C35.2948 15.353 35.2126 15.3115 35.1078 15.2756C35.0028 15.2397 34.8826 15.2037 34.7467 15.1676C34.6108 15.1318 34.4666 15.0891 34.3141 15.0395C34.09 14.9677 33.8969 14.8903 33.7349 14.807C33.5729 14.724 33.4394 14.6296 33.3346 14.5239C33.2297 14.4183 33.1522 14.2982 33.1021 14.1633C33.0521 14.0285 33.0271 13.8733 33.0271 13.6981C33.0271 13.4331 33.0783 13.1993 33.1807 12.9971C33.2833 12.795 33.4228 12.6264 33.5991 12.4917C33.7753 12.3569 33.9769 12.2548 34.2032 12.185C34.4296 12.1154 34.669 12.0806 34.9218 12.0806C35.1077 12.0806 35.2888 12.0974 35.4653 12.1311C35.6416 12.1648 35.8121 12.2076 35.9764 12.2592C36.1408 12.3109 36.2947 12.367 36.4377 12.4277C36.5807 12.4883 36.7094 12.5457 36.8238 12.5995L36.2234 13.685Z" fill="#3D3C3B"/>
</svg>
