<?xml version="1.0" encoding="UTF-8"?>
<svg width="34px" height="34px" viewBox="0 0 34 34" version="1.1" xmlns="http://www.w3.org/2000/svg" xmlns:xlink="http://www.w3.org/1999/xlink">
    <!-- Generator: Sketch 50.2 (55047) - http://www.bohemiancoding.com/sketch -->
    <title>like</title>
    <desc>Created with Sketch.</desc>
    <defs></defs>
    <g id="Design" stroke="none" stroke-width="1" fill="none" fill-rule="evenodd">
        <g id="Home-8" transform="translate(-941.000000, -1455.000000)" fill-rule="nonzero">
            <g id="like" transform="translate(941.000000, 1455.000000)">
                <path d="M18.39,0 C16.83,0 17.39,3.34 17.39,3.34 C17.39,3.34 14,12.55 10.82,15 C10.225972,15.6288245 9.75757277,16.3653653 9.44,17.17 C9.37,17.32 9.32,17.48 9.27,17.61 C8.89639002,18.3246091 8.32314075,18.9152296 7.62,19.31 L10.82,33.21 C14.1047904,33.6045845 17.4117796,33.7849658 20.72,33.75 C22.6430992,33.9472103 24.5840405,33.8832972 26.49,33.56 C32.17,32.35 30.75,28.38 30.75,28.38 C32.4945684,27.2769676 33.0739277,25.0034213 32.07,23.2 C32.8195194,22.5375424 33.2487503,21.5853147 33.2487503,20.585 C33.2487503,19.5846853 32.8195194,18.6324576 32.07,17.97 C32.8875157,16.7020106 32.70834,15.0352599 31.64,13.97 C29.26,11.8 22.83,13.25 22.83,13.25 C22.38,13.32 21.9,13.42 21.39,13.54 C21.39,13.54 19.16,14.54 21.39,7.82 C23.62,1.1 20,0 18.39,0 Z" id="Shape" fill="#CB2023"></path>
                <path d="M8.52,32.21 L6.1,20.71 C5.93150839,20.0275263 5.33238904,19.5384493 4.63,19.51 L0,19.51 L0,33.4 L7.55,33.4 C7.85451107,33.4209335 8.15022806,33.2927109 8.34307769,33.0561221 C8.53592732,32.8195334 8.60189681,32.5040376 8.52,32.21 Z" id="Shape" fill="#3D3C3B"></path>
            </g>
        </g>
    </g>
</svg>