<?xml version="1.0" encoding="UTF-8"?>
<svg width="239px" height="125px" viewBox="0 0 239 125" version="1.1" xmlns="http://www.w3.org/2000/svg" xmlns:xlink="http://www.w3.org/1999/xlink">
    <!-- Generator: Sketch 50.2 (55047) - http://www.bohemiancoding.com/sketch -->
    <title>sublogo</title>
    <desc>Created with Sketch.</desc>
    <defs></defs>
    <g id="Design" stroke="none" stroke-width="1" fill="none" fill-rule="evenodd" opacity="0.127176339">
        <g id="Home-8" transform="translate(-897.000000, -1051.000000)" fill-rule="nonzero">
            <g id="Oval-2" transform="translate(897.000000, 1051.000000)">
                <g id="sublogo" transform="translate(86.443486, 58.713778) rotate(-345.000000) translate(-86.443486, -58.713778) translate(-55.556514, -15.786222)">
                    <path d="M142.41565,148.773107 L17.2707275,148.773107 C11.1920808,148.773107 5.6147658,145.621134 2.48144276,140.388859 C-0.651880278,135.156585 -0.839879661,128.726561 2.04277754,123.305168 L43.8413069,44.1906558 L81.4411834,44.1906558 L46.3479653,110.508159 C45.7213007,111.705909 46.1599659,112.71454 46.3479653,113.092777 C46.5986312,113.471013 47.2252958,114.353566 48.6039579,114.353566 L111.897083,114.353566 C113.02508,114.353566 113.651744,113.597092 113.839744,113.281895 C114.027743,112.966698 114.466408,112.084146 113.965077,111.075514 L62.5785787,0 L99.0504588,0 L157.392934,125.133312 C159.774259,130.302547 159.398261,136.228256 156.39027,141.082293 C153.319614,145.936331 148.118298,148.773107 142.41565,148.773107 Z M48.3532921,51.75539 L8.68542238,126.835377 C7.0560944,129.861271 7.18142732,133.517559 8.93608822,136.480413 C10.6907491,139.443268 13.8240722,141.208372 17.2707275,141.208372 L142.478316,141.208372 C145.611639,141.208372 148.368963,139.695425 150.060958,137.047768 C151.752952,134.400111 151.940952,131.248139 150.624956,128.348324 L94.2878078,7.56473423 L74.3598733,7.56473423 L120.795721,107.923542 C122.237049,111.012475 121.986383,114.542684 120.169056,117.379459 C118.351729,120.216235 115.281072,121.9183 111.897083,121.9183 L48.6039579,121.9183 C44.9693032,121.9183 41.7106472,120.027116 39.8933199,116.875144 C38.0759925,113.723171 38.013326,110.003844 39.7679869,106.788832 L68.9078912,51.6923506 L48.3532921,51.6923506 L48.3532921,51.75539 Z" id="simbal_1" fill="#CB2023"></path>
                    <path d="M220.917753,148.773107 L184.445873,148.773107 L126.166064,23.6397945 C123.784739,18.4705594 124.160737,12.5448509 127.168727,7.69081313 C130.239384,2.89981479 135.4407,0 141.080682,0 L266.28827,0 C272.366917,0 277.944232,3.1519726 281.077555,8.38424711 C284.210878,13.6165216 284.398878,20.0465457 281.51622,25.4679386 L239.717691,104.582451 L202.117815,104.582451 L237.211033,38.2649473 C237.837697,37.0671977 237.399032,36.0585665 237.211033,35.6803298 C236.960367,35.3020931 236.333702,34.4195407 234.95504,34.4195407 L171.661915,34.4195407 C170.533918,34.4195407 169.907254,35.1760142 169.719254,35.4912114 C169.531255,35.8064087 169.09259,36.688961 169.593921,37.6975922 L220.917753,148.773107 Z M189.208524,141.208372 L209.136458,141.208372 L162.700611,40.8495648 C161.259282,37.7606317 161.509948,34.2304224 163.327275,31.3936471 C165.144603,28.5568717 168.215259,26.8548065 171.599248,26.8548065 L234.892374,26.8548065 C238.527028,26.8548065 241.785684,28.7459901 243.603012,31.8979627 C245.420339,35.0499353 245.483005,38.7692629 243.728345,41.984275 L214.58844,97.080756 L235.143039,97.080756 L274.810909,22.0007687 C276.440237,18.974875 276.314904,15.3185868 274.560243,12.3557326 C272.805582,9.39287834 269.672259,7.62777368 266.225604,7.62777368 L141.080682,7.62777368 C137.947359,7.62777368 135.190034,9.14072053 133.49804,11.7883775 C131.806046,14.4360345 131.618046,17.5880071 132.934042,20.4878219 L189.208524,141.208372 Z" id="simbal_2" fill="#3D3C3B"></path>
                </g>
            </g>
        </g>
    </g>
</svg>