<?xml version="1.0" encoding="UTF-8"?>
<svg width="240px" height="31px" viewBox="0 0 240 31" version="1.1" xmlns="http://www.w3.org/2000/svg" xmlns:xlink="http://www.w3.org/1999/xlink">
    <!-- Generator: Sketch 50.2 (55047) - http://www.bohemiancoding.com/sketch -->
    <title>Logo/white</title>
    <desc>Created with Sketch.</desc>
    <defs></defs>
    <g id="Design" stroke="none" stroke-width="1" fill="none" fill-rule="evenodd">
        <g id="development-5" transform="translate(-215.000000, -33.000000)">
            <g id="Logo/white" transform="translate(215.000000, 28.000000)">
                <g id="sublogo" transform="translate(0.000000, 5.714286)">
                    <path d="M28.4746499,30 L3.45311713,30 C2.23774974,30 1.12261883,29.3644068 0.496140796,28.309322 C-0.13033724,27.2542373 -0.167925922,25.9576271 0.408433871,24.8644068 L8.76565088,8.91101695 L16.2833873,8.91101695 L9.2668333,22.2838983 C9.1415377,22.5254237 9.22924462,22.7288136 9.2668333,22.8050847 C9.31695155,22.8813559 9.44224715,23.059322 9.71789749,23.059322 L22.3727538,23.059322 C22.5982859,23.059322 22.7235815,22.9067797 22.7611702,22.8432203 C22.7987589,22.779661 22.8864658,22.6016949 22.7862293,22.3983051 L12.5119895,0 L19.8041939,0 L31.4692149,25.2330508 C31.9453382,26.2754237 31.8701609,27.470339 31.2687419,28.4491525 C30.6547935,29.4279661 29.6148399,30 28.4746499,30 Z M9.66777925,10.4364407 L1.73656731,25.5762712 C1.41079873,26.1864407 1.43585785,26.9237288 1.78668555,27.5211864 C2.13751325,28.1186441 2.76399129,28.4745763 3.45311713,28.4745763 L28.4871795,28.4745763 C29.1136575,28.4745763 29.6649582,28.1694915 30.0032563,27.6355932 C30.3415544,27.1016949 30.3791431,26.4661017 30.1160224,25.8813559 L18.8519473,1.52542373 L14.8675469,1.52542373 L24.1519514,21.7627119 C24.4401313,22.3855932 24.3900131,23.0974576 24.0266558,23.6694915 C23.6632986,24.2415254 23.0493501,24.5847458 22.3727538,24.5847458 L9.71789749,24.5847458 C8.99118297,24.5847458 8.33964581,24.2033898 7.97628855,23.5677966 C7.61293129,22.9322034 7.60040173,22.1822034 7.95122943,21.5338983 L13.7774752,10.4237288 L9.66777925,10.4237288 L9.66777925,10.4364407 Z" id="simbal_1" fill="#CB2023" fill-rule="nonzero"></path>
                    <path d="M43.972656,30 L36.6804517,30 L25.0279602,4.76694915 C24.5518369,3.72457627 24.6270143,2.52966102 25.2284332,1.55084746 C25.8423817,0.584745763 26.8823352,0 28.0099957,0 L53.044058,0 C54.2594254,0 55.3745563,0.63559322 56.0010343,1.69067797 C56.6275124,2.74576271 56.6651011,4.04237288 56.0887413,5.13559322 L47.7315243,21.0889831 L40.2137878,21.0889831 L47.2303418,7.71610169 C47.3556374,7.47457627 47.2679305,7.27118644 47.2303418,7.19491525 C47.1802236,7.11864407 47.054928,6.94067797 46.7792777,6.94067797 L34.1244213,6.94067797 C33.8988892,6.94067797 33.7735936,7.09322034 33.7360049,7.15677966 C33.6984163,7.22033898 33.6107093,7.39830508 33.7109458,7.60169492 L43.972656,30 Z M37.6326983,28.4745763 L41.6170986,28.4745763 L32.3326941,8.23728814 C32.0445142,7.61440678 32.0946325,6.90254237 32.4579897,6.33050847 C32.821347,5.75847458 33.4352955,5.41525424 34.1118918,5.41525424 L46.7667481,5.41525424 C47.4934626,5.41525424 48.1449998,5.79661017 48.508357,6.43220339 C48.8717143,7.06779661 48.8842439,7.81779661 48.5334162,8.46610169 L42.7071704,19.5762712 L46.8168663,19.5762712 L54.7480783,4.43644068 C55.0738469,3.82627119 55.0487877,3.08898305 54.69796,2.49152542 C54.3471323,1.8940678 53.7206543,1.53813559 53.0315285,1.53813559 L28.0099957,1.53813559 C27.3835176,1.53813559 26.832217,1.84322034 26.4939188,2.37711864 C26.1556207,2.91101695 26.118032,3.54661017 26.3811528,4.13135593 L37.6326983,28.4745763 Z" id="simbal_2" fill="#FFFFFF" fill-rule="nonzero"></path>
                </g>
                <g id="Group" transform="translate(66.384181, 9.285714)">
                    <path d="M14.0776336,21.6511998 L12.489701,16.3078937 L4.51950059,16.3078937 L2.93156795,21.6511998 L0,21.6511998 L6.74871372,0.370633948 L10.4131737,0.370633948 L17.1313502,21.6511998 L14.0776336,21.6511998 Z M5.22185541,13.9296592 L11.7873461,13.9296592 L8.51986936,2.81064077 L5.22185541,13.9296592 Z M26.2658228,0 C27.6705394,0 28.871656,0.200758048 29.8692084,0.602280166 C30.8667608,1.00380228 31.8337614,1.626667 32.7702392,2.47089299 L31.1823065,4.2622904 C30.3883362,3.62397319 29.6096463,3.15553775 28.8462133,2.85697002 C28.0827803,2.55840229 27.2633746,2.40912066 26.3879714,2.40912066 C25.2886279,2.40912066 24.3827011,2.66650277 23.6701636,3.18127472 C22.9576262,3.69604667 22.6013628,4.44760244 22.6013628,5.43596457 C22.6013628,6.05369091 22.7235103,6.57360277 22.9678088,6.99571577 C23.2121074,7.41782877 23.6650708,7.80390193 24.3267127,8.15394686 C24.9883546,8.50399178 25.9502657,8.87462202 27.2124749,9.2658487 C28.5357587,9.67766626 29.6350857,10.1203635 30.5104889,10.5939537 C31.385892,11.0675439 32.0933293,11.7212944 32.6328219,12.555225 C33.1723145,13.3891555 33.4420568,14.4444222 33.4420568,15.7210566 C33.4420568,16.9565093 33.1417777,18.0478095 32.5412104,18.9949898 C31.9406431,19.9421702 31.0754321,20.6834307 29.9455513,21.2187935 C28.8156705,21.7541564 27.4771381,22.0218337 25.9299139,22.0218337 C23.0186895,22.0218337 20.6368144,21.1055534 18.7842171,19.2729653 L20.3721497,17.4815679 C21.2271946,18.1816577 22.0924057,18.7118649 22.9678088,19.0722052 C23.843212,19.4325456 24.8203915,19.6127131 25.8993768,19.6127131 C27.2023024,19.6127131 28.2812715,19.2884116 29.1363164,18.639799 C29.9913613,17.9911863 30.4188774,17.0491678 30.4188774,15.8137151 C30.4188774,15.1136253 30.286551,14.5319417 30.0218942,14.0686469 C29.7572374,13.6053522 29.304274,13.1883932 28.6629903,12.8177574 C28.0217066,12.4471216 27.0903324,12.0764913 25.8688396,11.7058555 C23.7108691,11.0469474 22.1331313,10.2542105 21.1355788,9.32762103 C20.1380264,8.40103152 19.6392577,7.14500682 19.6392577,5.55950922 C19.6392577,4.48878357 19.9191789,3.53132212 20.4790298,2.68709612 C21.0388806,1.84287013 21.82266,1.18397192 22.8303916,0.710381734 C23.8381231,0.236791543 24.9832554,0 26.2658228,0 Z M41.3245055,0.370633948 L41.3245055,21.6511998 L38.4234748,21.6511998 L38.4234748,0.370633948 L41.3245055,0.370633948 Z M59.3452934,21.6511998 L57.7573608,16.3078937 L49.7871604,16.3078937 L48.1992278,21.6511998 L45.2676598,21.6511998 L52.0163736,0.370633948 L55.6808335,0.370633948 L62.3990101,21.6511998 L59.3452934,21.6511998 Z M50.4895153,13.9296592 L57.055006,13.9296592 L53.7875292,2.81064077 L50.4895153,13.9296592 Z" id="ASIAPACIFIC" fill="#CB2023"></path>
                    <g id="pacific" transform="translate(67.090395, 0.000000)" fill="#FFFFFF">
                        <path d="M7.14193735,0.52506476 C9.93101247,0.52506476 12.0991296,1.11189598 13.6463537,2.28557601 C15.1935779,3.45925605 15.9671784,5.19915913 15.9671784,7.50533745 C15.9671784,9.91447016 15.2088463,11.7315879 13.6921595,12.9567451 C12.1754727,14.1819023 10.1447714,14.7944718 7.59999484,14.7944718 L5.30970738,14.7944718 L5.30970738,21.9291753 L0.301612133,21.9291753 L0.301612133,0.52506476 L7.14193735,0.52506476 Z M7.17247452,11.1499046 C8.35325085,11.1499046 9.25408824,10.8667843 9.87501372,10.3005351 C10.4959392,9.734286 10.8063973,8.80256275 10.8063973,7.50533745 C10.8063973,5.26093176 9.56456495,4.13874575 7.08086302,4.13874575 L5.30970738,4.13874575 L5.30970738,11.1499046 L7.17247452,11.1499046 Z" id="Combined-Shape"></path>
                        <path d="M29.3501769,21.9291753 L28.2508389,17.3271371 L22.0823313,17.3271371 L21.0135305,21.9291753 L15.8222123,21.9291753 L22.20448,0.52506476 L28.2813761,0.52506476 L34.6636438,21.9291753 L29.3501769,21.9291753 Z M22.937372,13.6516838 L27.3957982,13.6516838 L25.1665851,4.20051808 L22.937372,13.6516838 Z" id="Combined-Shape"></path>
                        <path d="M45.2639003,0 C46.5871841,0 47.7628533,0.195610405 48.790943,0.586837084 C49.8190327,0.978063764 50.7911228,1.56489498 51.7072424,2.34734834 L49.3253434,5.21976144 C48.6942388,4.72558037 48.0733227,4.35495013 47.4625763,4.10785959 C46.8518299,3.86076906 46.2003769,3.73722564 45.5081976,3.73722564 C44.0831228,3.73722564 42.9583484,4.34464743 42.1338408,5.55950922 C41.3093332,6.77437101 40.8970856,8.64811279 40.8970856,11.1807908 C40.8970856,13.672287 41.3093332,15.5202906 42.1338408,16.7248569 C42.9583484,17.9294233 44.1034807,18.5316974 45.569272,18.5316974 C46.3428841,18.5316974 47.0452319,18.3824158 47.6763364,18.0838481 C48.307441,17.7852803 48.9894309,17.358026 49.7223266,16.8020723 L51.9515397,19.7053716 C51.1575694,20.5084158 50.1956583,21.167314 49.0657775,21.682086 C47.9358967,22.1968579 46.6889749,22.45424 45.3249746,22.45424 C43.3705862,22.45424 41.670701,22.0218381 40.2252679,21.1570212 C38.7798348,20.2922043 37.6550604,19.0104414 36.850911,17.311694 C36.0467616,15.6129466 35.644693,13.5693326 35.644693,11.1807908 C35.644693,8.85402157 36.0569406,6.84644109 36.8814482,5.15798911 C37.7059558,3.46953713 38.8459986,2.18777421 40.3016108,1.3126619 C41.757223,0.437549591 43.411303,0 45.2639003,0 Z" id="Path"></path>
                        <polygon id="Path" points="60.6012775 0.52506476 60.6012775 21.9291753 55.5931822 21.9291753 55.5931822 0.52506476"></polygon>
                        <polygon id="Path" points="65.2467866 21.9291753 65.2467866 0.52506476 77.8586362 0.52506476 77.3395044 4.13874575 70.2548818 4.13874575 70.2548818 9.82179962 76.4233894 9.82179962 76.4233894 13.4354806 70.2548818 13.4354806 70.2548818 21.9291753"></polygon>
                        <polygon id="Path" points="86.5389111 0.52506476 86.5389111 21.9291753 81.5308159 21.9291753 81.5308159 0.52506476"></polygon>
                        <path d="M99.1202236,0 C100.443507,0 101.619177,0.195610405 102.647266,0.586837084 C103.675356,0.978063764 104.647446,1.56489498 105.563566,2.34734834 L103.181667,5.21976144 C102.550562,4.72558037 101.929646,4.35495013 101.3189,4.10785959 C100.708153,3.86076906 100.0567,3.73722564 99.3645209,3.73722564 C97.939446,3.73722564 96.8146717,4.34464743 95.9901641,5.55950922 C95.1656564,6.77437101 94.7534088,8.64811279 94.7534088,11.1807908 C94.7534088,13.672287 95.1656564,15.5202906 95.9901641,16.7248569 C96.8146717,17.9294233 97.9598039,18.5316974 99.4255953,18.5316974 C100.199207,18.5316974 100.901555,18.3824158 101.53266,18.0838481 C102.163764,17.7852803 102.845754,17.358026 103.57865,16.8020723 L105.807863,19.7053716 C105.013893,20.5084158 104.051982,21.167314 102.922101,21.682086 C101.79222,22.1968579 100.545298,22.45424 99.1812979,22.45424 C97.2269095,22.45424 95.5270243,22.0218381 94.0815912,21.1570212 C92.6361581,20.2922043 91.5113837,19.0104414 90.7072343,17.311694 C89.9030849,15.6129466 89.5010162,13.5693326 89.5010162,11.1807908 C89.5010162,8.85402157 89.9132639,6.84644109 90.7377715,5.15798911 C91.5622791,3.46953713 92.7023219,2.18777421 94.1579341,1.3126619 C95.6135463,0.437549591 97.2676262,0 99.1202236,0 Z" id="Path"></path>
                    </g>
                </g>
            </g>
        </g>
    </g>
</svg>