<?xml version="1.0" encoding="UTF-8"?>
<svg width="50px" height="57px" viewBox="0 0 50 57" version="1.1" xmlns="http://www.w3.org/2000/svg" xmlns:xlink="http://www.w3.org/1999/xlink">
    <!-- Generator: Sketch 52.2 (67145) - http://www.bohemiancoding.com/sketch -->
    <title>megaphone-2</title>
    <desc>Created with Sketch.</desc>
    <g id="Page-1" stroke="none" stroke-width="1" fill="none" fill-rule="evenodd">
        <g id="social-media" transform="translate(-1186.000000, -1295.000000)">
            <g id="megaphone-2" transform="translate(1186.000000, 1295.000000)">
                <path d="M48.3404159,23.0954511 C49.6399527,24.3949162 49.6399527,26.4953304 48.3404159,27.795017 C47.0443128,29.0911587 44.9373839,29.0911587 43.6413917,27.795017 L21.5190255,5.67165135 C20.2242518,4.37506656 20.2242518,2.26711924 21.5190255,0.968872735 C22.8064886,-0.315526107 24.9167406,-0.330924713 26.221262,0.970534455 L48.3404159,23.0954511 Z M9.59469526,28.7671233 L21.2328767,40.4056988 L13.0858644,48.5530637 C11.1526416,50.4862605 8.02709272,50.4783596 6.10188017,48.5530637 L1.44691483,43.8978969 C-0.486308009,41.9645904 -0.478297721,38.8389063 1.44691483,36.9136104 L9.59469526,28.7671233 Z M10.7584915,41.5704232 L13.0859741,39.2428398 C13.7288821,38.599904 13.7288821,37.5581922 13.0859741,36.9152564 C12.4430662,36.2723206 11.4013994,36.2723206 10.7584915,36.9152564 L8.43100879,39.2428398 C7.78810082,39.8857756 7.78810082,40.9274874 8.43100879,41.5704232 C9.07391676,42.213359 10.1155835,42.213359 10.7584915,41.5704232 Z M28.4178547,49.4128969 L30.2163245,51.1419081 C31.5310014,52.4464962 31.5310014,54.5672739 30.2163245,55.8717505 C28.8994011,57.1785678 26.7574349,57.1712117 25.4528674,55.8734224 L17.8082192,48.5232581 L22.5735858,43.7948646 L25.9975418,47.0864836 L28.3274313,44.774671 C28.9885889,44.1151881 28.9839835,43.060372 28.3274313,42.4122576 L26.2943101,40.3919014 C27.1679906,39.6647649 28.0666077,38.9833252 29.0075722,38.3561644 L30.7100023,40.0466119 C32.6824669,42.0005405 32.6889819,45.1752426 30.70989,47.1386449 L28.4178547,49.4128969 Z M35.2739726,2.43138842e-13 C36.2204338,2.43138842e-13 36.9863014,0.76586758 36.9863014,1.71232877 L36.9863014,5.1369863 C36.9863014,6.08344749 36.2204338,6.84931507 35.2739726,6.84931507 C34.3275114,6.84931507 33.5616438,6.08344749 33.5616438,5.1369863 L33.5616438,1.71232877 C33.5616438,0.76586758 34.3275114,2.43138842e-13 35.2739726,2.43138842e-13 Z M48.2876712,13.0136986 C49.2341324,13.0136986 50,13.7795662 50,14.7260274 C50,15.6724886 49.2341324,16.4383562 48.2876712,16.4383562 L44.8630137,16.4383562 C43.9165525,16.4383562 43.1506849,15.6724886 43.1506849,14.7260274 C43.1506849,13.7795662 43.9165525,13.0136986 44.8630137,13.0136986 L48.2876712,13.0136986 Z M46.0737116,3.92628529 C46.7425528,4.5951223 46.7425528,5.67880036 46.0737116,6.34763737 L42.6490255,9.77230204 C41.9801843,10.4412532 40.8964995,10.441139 40.2276583,9.77230204 C39.5588171,9.10346503 39.5588171,8.01978697 40.2276583,7.35094996 L43.6523444,3.92628529 C44.3211856,3.25744828 45.4048704,3.25744828 46.0737116,3.92628529 Z" id="Combined-Shape" fill="#CC6A6C"></path>
                <path d="M19.692911,8.90410959 L40.4109589,29.5662017 L39.5743631,29.7323527 C33.7044491,30.9041432 28.2049514,33.8248861 23.6859156,37.6712329 L11.6438356,25.6607127 C15.5010652,21.1529676 18.3528947,15.5912743 19.5263233,9.73696516 L19.692911,8.90410959 Z M22.2399601,30.8013863 L22.8382374,30.203109 L22.3486144,29.3288792 L23.2032962,28.4741973 L24.0775261,28.9638203 L24.6758034,28.365543 L20.8163263,26.2581638 L20.1325808,26.9419092 L22.2399601,30.8013863 Z M22.7128774,28.1974489 L22.071866,28.8384603 L21.4332421,27.6870273 C21.4133676,27.655757 21.3849714,27.6145407 21.3480524,27.563377 C21.3111335,27.5122133 21.2827373,27.4709969 21.2628628,27.4397266 L21.1691434,27.31182 L21.186237,27.2947263 L21.3098703,27.3927191 C21.3326089,27.4097598 21.3702717,27.436027 21.4228598,27.4715214 C21.475448,27.5070159 21.5216424,27.5361168 21.5614444,27.558825 L22.7128774,28.1974489 Z M22.1197161,24.9547739 L25.1031443,27.9382021 L25.8296239,27.2117225 C26.7127995,26.3285469 26.6571477,25.3897326 25.6626666,24.3952516 C24.6681856,23.4007706 23.7293713,23.3451187 22.8461957,24.2282944 L22.1197161,24.9547739 Z M25.4460402,26.8281389 L25.317838,26.9563412 L23.101577,24.7400803 L23.2297793,24.611878 C23.3921697,24.4494876 23.5608767,24.3489726 23.7359054,24.3103298 C23.9109342,24.271687 24.1064899,24.3062792 24.3225783,24.4141074 C24.5386668,24.5219356 24.7859347,24.7150742 25.0643893,24.9935289 C25.342844,25.2719836 25.5359826,25.5192514 25.6438108,25.7353399 C25.751639,25.9514284 25.7862312,26.146984 25.7475884,26.3220128 C25.7089457,26.4970415 25.6084306,26.6657486 25.4460402,26.8281389 Z M28.4790239,24.6475633 C28.7069402,24.419647 28.8651514,24.1889819 28.9536622,23.9555609 C29.0421731,23.72214 29.0623845,23.500194 29.0142972,23.2897163 C28.9662098,23.0792386 28.8597679,22.8916027 28.6949682,22.726803 C28.5273271,22.5591619 28.3489331,22.456264 28.1597808,22.4181063 C27.9706286,22.3799486 27.7871182,22.380193 27.6092443,22.4188396 C27.4313704,22.4574862 27.2171888,22.5224979 26.9666931,22.6138766 C26.7788213,22.6824107 26.6258307,22.7316927 26.5077166,22.7617242 C26.3896025,22.7917557 26.2757863,22.8004426 26.1662645,22.7877853 C26.0567427,22.775128 25.9607834,22.7276001 25.8783835,22.6452002 C25.7789354,22.5457521 25.7335897,22.4135146 25.742345,22.2484837 C25.7511003,22.0834529 25.8181539,21.9382626 25.9435079,21.8129086 C26.1087472,21.6476693 26.2924148,21.5293524 26.4945162,21.4579542 C26.59698,21.4293661 26.6766661,21.4121893 26.733577,21.4064232 L26.7763111,21.3636891 L26.6276513,20.8304224 C26.5166633,20.8504864 26.4042337,20.8862001 26.2903589,20.9375646 C26.0256184,21.0431881 25.7678981,21.2213512 25.5171901,21.4720591 C25.3092165,21.6800327 25.1652518,21.8950308 25.0852916,22.1170597 C25.0053314,22.3390886 24.9872661,22.5517851 25.0310952,22.7551556 C25.0749243,22.9585261 25.1721338,23.1355051 25.3227266,23.2860979 C25.4903677,23.453739 25.6687617,23.5566369 25.857914,23.5947946 C26.0470662,23.6329523 26.2305765,23.6327078 26.4084504,23.5940613 C26.5863244,23.5554147 26.800506,23.490403 27.0510017,23.3990243 C27.2388734,23.3304902 27.3918641,23.2812082 27.5099782,23.2511767 C27.6280923,23.2211452 27.7419085,23.2124582 27.8514303,23.2251156 C27.960952,23.2377729 28.0569114,23.2853008 28.1393113,23.3677007 C28.2700145,23.4984039 28.3302772,23.6455584 28.3201012,23.8091686 C28.3099252,23.9727788 28.2207944,24.1386255 28.0527062,24.3067138 C27.8646752,24.4947447 27.6710327,24.625878 27.4717726,24.7001176 C27.3721502,24.731547 27.2881945,24.7501521 27.219903,24.7559334 L27.1771689,24.7986675 L27.3258287,25.3319341 C27.4225794,25.3204246 27.5378542,25.2847071 27.6716565,25.2247805 C27.9335556,25.1163156 28.2026754,24.9239118 28.4790239,24.6475633 Z" id="Combined-Shape" fill="#FFFFFF"></path>
            </g>
        </g>
    </g>
</svg>