<svg width="50" height="37" viewBox="0 0 50 37" fill="none" xmlns="http://www.w3.org/2000/svg">
<g id="mice">
<rect id="Rectangle-path" y="19.01" width="49.43" height="17.32" rx="1.43" fill="#3D3C3B"/>
<path id="Shape" d="M13 10.61H18.67C19.9961 10.61 21.2679 11.1368 22.2056 12.0745C23.1433 13.0121 23.67 14.2839 23.67 15.61V17.69H8.00004V15.65C7.98937 14.317 8.51145 13.0349 9.45029 12.0886C10.3891 11.1422 11.667 10.61 13 10.61V10.61Z" fill="#CB2023"/>
<path id="Oval" d="M15.88 9.5C18.5034 9.5 20.63 7.37335 20.63 4.75C20.63 2.12665 18.5034 0 15.88 0C13.2567 0 11.13 2.12665 11.13 4.75C11.13 7.37335 13.2567 9.5 15.88 9.5Z" fill="#CB2023"/>
<rect id="Rectangle-path_2" x="31.1801" y="9.49001" width="4.87" height="8.31" fill="#CB2023"/>
<rect id="Rectangle-path_3" x="37.35" y="9.49001" width="4.87" height="8.31" fill="#CB2023"/>
</g>
</svg>
