<svg id="mobile-link" xmlns="http://www.w3.org/2000/svg" viewBox="0 0 23.814 42.498">
  <defs>
    <style>
      .cls-1 {
        fill: #fff;
      }

      .cls-2 {
        fill: #cb2023;
      }

      .cls-3 {
        fill: #282625;
      }
    </style>
  </defs>
  <path id="Path_274" data-name="Path 274" class="cls-1" d="M101,207.218l4.691-2.779L101,201.66Zm0,0" transform="translate(-91.749 -183.19)"/>
  <path id="Path_275" data-name="Path 275" class="cls-2" d="M48.318,82H30v26.653H48.318ZM42.966,96.369l-6.859,4.064a.715.715,0,0,1-.369.1.693.693,0,0,1-.352-.1.714.714,0,0,1-.349-.636V91.674a.714.714,0,0,1,.349-.636.694.694,0,0,1,.716.006l6.861,4.064a.733.733,0,0,1,0,1.261Zm0,0" transform="translate(-27.252 -74.49)"/>
  <path id="Path_276" data-name="Path 276" d="M120.01,416.14a1.12,1.12,0,1,1-1.12-1.12A1.12,1.12,0,0,1,120.01,416.14Zm0,0" transform="translate(-106.983 -377.008)"/>
  <path id="Path_277" data-name="Path 277" class="cls-3" d="M2.931,0A2.934,2.934,0,0,0,0,2.931V39.567A2.934,2.934,0,0,0,2.931,42.5H20.883a2.934,2.934,0,0,0,2.931-2.931V2.931A2.934,2.934,0,0,0,20.883,0ZM7.785,2.381h8.243a.733.733,0,1,1,0,1.465H7.785a.733.733,0,1,1,0-1.465Zm4.122,39.336a2.586,2.586,0,1,1,2.586-2.586A2.586,2.586,0,0,1,11.907,41.718ZM22.531,6.778V34.9a.733.733,0,0,1-.733.733H2.015a.733.733,0,0,1-.733-.733V6.778a.733.733,0,0,1,.733-.733H21.8A.733.733,0,0,1,22.531,6.778Zm0,0"/>
</svg>
