<svg xmlns="http://www.w3.org/2000/svg" viewBox="0 0 99.8 89.015">
  <defs>
    <style>
      .cls-1, .cls-3 {
        fill: #fff;
      }

      .cls-2 {
        fill: #cc6a6c;
      }

      .cls-3 {
        fill-rule: evenodd;
      }
    </style>
  </defs>
  <g id="Group_20" data-name="Group 20" transform="translate(-390.233 -650.985)">
    <g id="cd_1_" data-name="cd (1)" transform="translate(400.525 673.412)">
      <path id="Path_17" data-name="Path 17" class="cls-1" d="M26.346,26.34a4.592,4.592,0,1,0,6.494,0A4.7,4.7,0,0,0,26.346,26.34Z" transform="translate(3.7 3.708)"/>
      <path id="Path_18" data-name="Path 18" class="cls-2" d="M56.835,9.752A33.294,33.294,0,0,0,9.75,56.837,33.294,33.294,0,0,0,56.835,9.752Zm-.812,46.273A32.144,32.144,0,0,1,48.712,61.5L39.9,45.383a13.772,13.772,0,0,1-18.69-18.694L5.086,17.874A32.135,32.135,0,0,1,17.872,5.088l8.81,16.118A13.772,13.772,0,0,1,45.373,39.9L61.5,48.714A32.144,32.144,0,0,1,56.023,56.025Z"/>
    </g>
    <path id="music_3_" data-name="music (3)" class="cls-1" d="M32.252.149a.6.6,0,0,0-.471-.144L13.269,2.4a.6.6,0,0,0-.52.592V24.258a6.2,6.2,0,0,0-4.777-2.163C4.679,22.095,2,24.506,2,27.469s2.679,5.374,5.972,5.374,5.972-2.411,5.972-5.374c0-.139-.011-.275-.023-.41a.574.574,0,0,0,.023-.115V9.625L31.26,7.384v10.9a6.2,6.2,0,0,0-4.777-2.163c-3.293,0-5.972,2.411-5.972,5.374s2.679,5.374,5.972,5.374a5.711,5.711,0,0,0,5.967-5.295c0-.008,0-.014,0-.022V.6A.6.6,0,0,0,32.252.149Z" transform="translate(435.364 650.535) rotate(13)"/>
    <path id="music_3_2" data-name="music (3)" class="cls-1" d="M22.345.1a.406.406,0,0,0-.317-.1L9.578,1.614a.4.4,0,0,0-.35.4v14.3a4.167,4.167,0,0,0-3.213-1.455A3.835,3.835,0,0,0,2,18.474a3.835,3.835,0,0,0,4.016,3.614,3.835,3.835,0,0,0,4.016-3.614c0-.093-.008-.185-.016-.276a.386.386,0,0,0,.016-.077V6.473L21.678,4.966c.741.044.8-.457.8-.457V.4A.4.4,0,0,0,22.345.1Z" transform="translate(462.334 685.713) rotate(-16)"/>
    <g id="play" transform="translate(373.68 725.034) rotate(-21)">
      <path id="Path_19" data-name="Path 19" class="cls-3" d="M35.7,9.621,20.779.221A2.676,2.676,0,0,0,19.377,0,1.45,1.45,0,0,0,17.73,1.6V20.815a1.467,1.467,0,0,0,1.647,1.6,2.676,2.676,0,0,0,1.4-.219L35.7,12.8c1.225-.729,1.013-1.588,1.013-1.588S36.922,10.349,35.7,9.621Z" transform="translate(0)"/>
    </g>
  </g>
</svg>
