<svg xmlns="http://www.w3.org/2000/svg" width="66" height="58.397" viewBox="0 0 66 58.397">
  <g id="new-tourists-china__hotel" transform="translate(-222.5 -3171.103)">
    <g id="hotel" transform="translate(228.135 3171.103)">
      <path id="Path_435" data-name="Path 435" d="M120,208h4.064v2.032H120Zm0,0" transform="translate(-104.76 -181.583)" fill="#cb2023"/>
      <path id="Path_436" data-name="Path 436" d="M78.737,32H32V46.224H78.737ZM42.16,43.176a1.016,1.016,0,1,1-2.032,0V40.128H36.064v3.048a1.016,1.016,0,1,1-2.032,0V35.048a1.016,1.016,0,0,1,2.032,0V38.1h4.064V35.048a1.016,1.016,0,0,1,2.032,0Zm9.144,0a1.016,1.016,0,0,1-1.016,1.016h-5.08a1.016,1.016,0,0,1-1.016-1.016V35.048a1.016,1.016,0,0,1,1.016-1.016h5.08A1.016,1.016,0,0,1,51.3,35.048Zm8.128-7.112H57.4v7.112a1.016,1.016,0,1,1-2.032,0V36.064H53.336a1.016,1.016,0,1,1,0-2.032h6.1a1.016,1.016,0,0,1,0,2.032ZM66.545,38.1a1.016,1.016,0,1,1,0,2.032H64.513V42.16h3.048a1.016,1.016,0,0,1,0,2.032H63.5a1.016,1.016,0,0,1-1.016-1.016V35.048A1.016,1.016,0,0,1,63.5,34.032h4.064a1.016,1.016,0,0,1,0,2.032H64.513V38.1Zm9.144,6.1H71.625a1.016,1.016,0,0,1-1.016-1.016V35.048a1.016,1.016,0,1,1,2.032,0V42.16h3.048a1.016,1.016,0,0,1,0,2.032Zm0,0" transform="translate(-27.936 -27.936)" fill="#282625"/>
      <path id="Path_437" data-name="Path 437" d="M120,272h4.064v2.032H120Zm0,0" transform="translate(-104.76 -237.455)" fill="#cb2023"/>
      <path id="Path_438" data-name="Path 438" d="M40,208h4.064v2.032H40Zm0,0" transform="translate(-34.92 -181.583)" fill="#cb2023"/>
      <path id="Path_439" data-name="Path 439" d="M40,272h4.064v2.032H40Zm0,0" transform="translate(-34.92 -237.455)" fill="#cb2023"/>
      <path id="Path_440" data-name="Path 440" d="M360,208h4.064v2.032H360Zm0,0" transform="translate(-314.279 -181.583)" fill="#cb2023"/>
      <path id="Path_441" data-name="Path 441" d="M144,64h3.048v6.1H144Zm0,0" transform="translate(-125.712 -55.872)" fill="#282625"/>
      <path id="Path_442" data-name="Path 442" d="M280,208h4.064v2.032H280Zm0,0" transform="translate(-244.439 -181.583)" fill="#cb2023"/>
      <path id="Path_443" data-name="Path 443" d="M280,272h4.064v2.032H280Zm0,0" transform="translate(-244.439 -237.455)" fill="#cb2023"/>
      <path id="Path_444" data-name="Path 444" d="M200,272h4.064v2.032H200Zm0,0" transform="translate(-174.599 -237.455)" fill="#cb2023"/>
      <path id="Path_445" data-name="Path 445" d="M54.865,56.9V0H0V56.9H18.288V41.657A1.016,1.016,0,0,1,19.3,40.641H35.561a1.016,1.016,0,0,1,1.016,1.016V56.9ZM41.657,29.465a1.016,1.016,0,0,1-1.016,1.016h-6.1a1.016,1.016,0,0,1-1.016-1.016V25.4a1.016,1.016,0,0,1,1.016-1.016h6.1A1.016,1.016,0,0,1,41.657,25.4Zm10.16,8.128A1.016,1.016,0,0,1,50.8,38.609h-6.1a1.016,1.016,0,0,1-1.016-1.016V33.529a1.016,1.016,0,0,1,1.016-1.016h6.1a1.016,1.016,0,0,1,1.016,1.016Zm0-8.128A1.016,1.016,0,0,1,50.8,30.481h-6.1a1.016,1.016,0,0,1-1.016-1.016V25.4a1.016,1.016,0,0,1,1.016-1.016h6.1A1.016,1.016,0,0,1,51.817,25.4ZM2.032,19.3V3.048A1.016,1.016,0,0,1,3.048,2.032H51.817a1.016,1.016,0,0,1,1.016,1.016V19.3a1.016,1.016,0,0,1-1.016,1.016H3.048A1.016,1.016,0,0,1,2.032,19.3Zm9.144,18.288a1.016,1.016,0,0,1-1.016,1.016h-6.1a1.016,1.016,0,0,1-1.016-1.016V33.529a1.016,1.016,0,0,1,1.016-1.016h6.1a1.016,1.016,0,0,1,1.016,1.016Zm0-8.128a1.016,1.016,0,0,1-1.016,1.016h-6.1a1.016,1.016,0,0,1-1.016-1.016V25.4a1.016,1.016,0,0,1,1.016-1.016h6.1A1.016,1.016,0,0,1,11.176,25.4Zm10.16,8.128a1.016,1.016,0,0,1-1.016,1.016h-6.1a1.016,1.016,0,0,1-1.016-1.016V33.529a1.016,1.016,0,0,1,1.016-1.016h6.1a1.016,1.016,0,0,1,1.016,1.016Zm0-8.128a1.016,1.016,0,0,1-1.016,1.016h-6.1a1.016,1.016,0,0,1-1.016-1.016V25.4a1.016,1.016,0,0,1,1.016-1.016h6.1A1.016,1.016,0,0,1,21.336,25.4ZM31.5,37.593a1.016,1.016,0,0,1-1.016,1.016h-6.1a1.016,1.016,0,0,1-1.016-1.016V33.529a1.016,1.016,0,0,1,1.016-1.016h6.1A1.016,1.016,0,0,1,31.5,33.529Zm0-8.128a1.016,1.016,0,0,1-1.016,1.016h-6.1a1.016,1.016,0,0,1-1.016-1.016V25.4a1.016,1.016,0,0,1,1.016-1.016h6.1A1.016,1.016,0,0,1,31.5,25.4Zm3.048,9.144a1.016,1.016,0,0,1-1.016-1.016V33.529a1.016,1.016,0,0,1,1.016-1.016h6.1a1.016,1.016,0,0,1,1.016,1.016v4.064a1.016,1.016,0,0,1-1.016,1.016Zm0,0" fill="#cb2023"/>
      <path id="Path_446" data-name="Path 446" d="M200,208h4.064v2.032H200Zm0,0" transform="translate(-174.599 -181.583)" fill="#cb2023"/>
      <path id="Path_447" data-name="Path 447" d="M160,336h14.224v14.224H160Zm0,0" transform="translate(-139.68 -293.327)" fill="#cb2023"/>
      <path id="Path_448" data-name="Path 448" d="M360,272h4.064v2.032H360Zm0,0" transform="translate(-314.279 -237.455)" fill="#cb2023"/>
    </g>
    <line id="Line_23" data-name="Line 23" x2="66" transform="translate(222.5 3228.5)" fill="none" stroke="#cb2023" stroke-width="2"/>
  </g>
</svg>
