<svg xmlns="http://www.w3.org/2000/svg" width="60" height="49.83" viewBox="0 0 60 49.83">
  <g id="weibo" transform="translate(0 -0.046)">
    <path id="Path" d="M47.286,18.059c1.428-2.78,1.582-5.379.416-7.4C46.493,8.566,44,7.375,40.677,7.306a21.323,21.323,0,0,0-7.984,1.585c.957-3.264.648-5.855-.923-7.426-1.888-1.888-5.262-1.953-9.5-.183A40.138,40.138,0,0,0,10.046,9.941C4.189,15.8.3,22.592.111,27.277A8.868,8.868,0,0,0,0,28.658c0,4.194,2.94,8.088,8.279,10.963,5.14,2.768,11.951,4.292,19.178,4.292S41.5,42.388,46.636,39.621c5.339-2.875,8.279-6.768,8.279-10.963C54.915,24.63,52.216,20.894,47.286,18.059Z" transform="translate(0 5.964)" fill="#ea533b"/>
    <path id="Path-2" data-name="Path" d="M30.508,42.579c-7.228,0-14.039-1.524-19.178-4.292C5.991,35.413,3.051,31.52,3.051,27.325a8.864,8.864,0,0,1,.111-1.381C3.348,21.26,7.239,14.466,13.1,8.608A40.313,40.313,0,0,1,25.2,0a18.505,18.505,0,0,0-2.932.966A40.138,40.138,0,0,0,10.046,9.625C4.189,15.483.3,22.277.111,26.961A8.865,8.865,0,0,0,0,28.342C0,32.537,2.94,36.43,8.279,39.3,13.419,42.072,20.23,43.6,27.458,43.6a44.285,44.285,0,0,0,15.7-2.7A46.414,46.414,0,0,1,30.508,42.579Z" transform="translate(0 6.28)" fill="#d93c1c"/>
    <path id="Path-3" data-name="Path" d="M37.519,11.143c-.3-3.465-2.588-6.517-6.439-8.594A24.155,24.155,0,0,0,17.676.107,24.155,24.155,0,0,0,4.894,4.823C1.459,7.534-.267,10.935.034,14.4s2.588,6.517,6.439,8.594a23.221,23.221,0,0,0,10.951,2.548c.81,0,1.629-.035,2.453-.107a24.153,24.153,0,0,0,12.782-4.716C36.094,18.008,37.82,14.607,37.519,11.143Z" transform="translate(5.159 20.384)" fill="#fff"/>
    <path id="Path-4" data-name="Path" d="M21.836,22.1c-.824.072-1.643.107-2.453.107A23.221,23.221,0,0,1,8.432,19.657c-3.851-2.078-6.138-5.13-6.439-8.594S3.419,4.2,6.854,1.487A19.215,19.215,0,0,1,9.041,0,20.3,20.3,0,0,0,4.894,2.5C1.459,5.214-.267,8.615.034,12.079S2.621,18.6,6.473,20.674a23.221,23.221,0,0,0,10.951,2.548c.81,0,1.629-.035,2.453-.107a25.443,25.443,0,0,0,10.595-3.23A26.382,26.382,0,0,1,21.836,22.1Z" transform="translate(5.159 22.704)" fill="#e5e5e5"/>
    <path id="Path-5" data-name="Path" d="M20.218,6.337C19.1,1.7,13.708-.988,8.19.338S-.911,6.515.2,11.149a7.967,7.967,0,0,0,4.446,5.286A10.816,10.816,0,0,0,9.379,17.49a12.215,12.215,0,0,0,2.852-.342C17.749,15.821,21.332,10.972,20.218,6.337Z" transform="translate(13.374 25.249)" fill="#333"/>
    <circle id="Oval" cx="3.559" cy="3.559" r="3.559" transform="translate(17.288 32.588)" fill="#fff"/>
    <g id="Group" transform="translate(39.609)">
      <path id="Path-6" data-name="Path" d="M1.525,0a1.525,1.525,0,1,0,0,3.051A5.6,5.6,0,0,1,7.119,8.644a1.525,1.525,0,1,0,3.051,0A8.654,8.654,0,0,0,1.525,0Z" transform="translate(2.594 8.69)" fill="#ffa929"/>
      <path id="Path-7" data-name="Path" d="M3.051,0C2.669,0,2.282.013,1.9.038A2.034,2.034,0,0,0,2.167,4.1c.293-.019.59-.029.883-.029a13.235,13.235,0,0,1,13.22,13.22,13.326,13.326,0,0,1-.264,2.646,2.034,2.034,0,0,0,3.987.809,17.407,17.407,0,0,0,.346-3.456A17.308,17.308,0,0,0,3.051,0Z" transform="translate(0.052 0.046)" fill="#ffa929"/>
    </g>
    <circle id="Oval-2" data-name="Oval" cx="2.034" cy="2.034" r="2.034" transform="translate(25.424 30.554)" fill="#fff"/>
  </g>
</svg>
