<svg xmlns="http://www.w3.org/2000/svg" width="51.281" height="51.281" viewBox="0 0 51.281 51.281">
  <g id="new-tourists-china__language" transform="translate(-0.5)">
    <path id="Shape" d="M1.774,0H1.156L0,5.861H2.93Z" transform="translate(13.687 13.187)" fill="#cb2023"/>
    <path id="Shape-2" data-name="Shape" d="M0,0A16.638,16.638,0,0,0,2.154,4.4,16.706,16.706,0,0,0,4.4,0Z" transform="translate(40.06 26.373)" fill="#3d3c3b"/>
    <path id="Shape-3" data-name="Shape" d="M21.966,42.49H0L6.44,34.9A4.791,4.791,0,0,0,7.53,31.457L3.727,0h18.24a4.257,4.257,0,0,1,3.115,1.382,4.739,4.739,0,0,1,1.292,3.261V37.948A4.481,4.481,0,0,1,21.966,42.49ZM15.994,25.564h0c.83.785,1.649,1.431,2.516,2.115.347.274.705.556,1.068.852a1.438,1.438,0,0,0,2.065-.235,1.547,1.547,0,0,0-.228-2.127c-.351-.286-.707-.566-1.052-.837-.777-.611-1.579-1.242-2.328-1.948a19.264,19.264,0,0,0,3.538-6.632h.392a1.515,1.515,0,0,0,0-3.028h-4.5V12.212a1.47,1.47,0,1,0-2.938,0v1.514H10.118a1.515,1.515,0,0,0,0,3.028h.393a19.409,19.409,0,0,0,3.44,6.632c-.924.871-1.832,1.607-2.793,2.387l-.489.4a1.546,1.546,0,0,0-.228,2.127,1.437,1.437,0,0,0,2.064.235l.43-.349c1.09-.883,2.027-1.643,3.058-2.618Z" transform="translate(25.408 8.791)" fill="#3d3c3b"/>
    <path id="Shape-4" data-name="Shape" d="M28.474,42.49H4.551A4.546,4.546,0,0,1,0,37.959V4.531A4.546,4.546,0,0,1,4.551,0H20.178a4.55,4.55,0,0,1,4.515,3.969c.046.359,4.614,36.877,4.61,37.045a1.876,1.876,0,0,1-.663,1.289c-.055.06-.11.122-.166.186ZM12.136,10.773a1.521,1.521,0,0,0-1.487,1.214l-3.033,15.1A1.51,1.51,0,0,0,8.8,28.868a1.544,1.544,0,0,0,.307.031,1.514,1.514,0,0,0,1.479-1.215l.969-4.828h4.288l.971,4.828A1.518,1.518,0,0,0,18.3,28.9a1.514,1.514,0,0,0,1.49-1.808l-3.034-15.1a1.521,1.521,0,0,0-1.487-1.214Z" transform="translate(0.5 0)" fill="#cb2023"/>
    <path id="Shape-5" data-name="Shape" d="M0,0,.239,2.176A4.788,4.788,0,0,0,2.648,5.861L7.326,0Z" transform="translate(19.547 45.42)" fill="#990d29"/>
  </g>
</svg>
