<svg xmlns="http://www.w3.org/2000/svg" width="82.263" height="68.32" viewBox="0 0 82.263 68.32">
  <g id="new-tourists-china__weibo2" transform="translate(0 -43.39)">
    <path id="Path_355" data-name="Path 355" d="M64.832,118.651c1.958-3.811,2.169-7.375.57-10.144-1.657-2.871-5.078-4.5-9.631-4.6a29.235,29.235,0,0,0-10.947,2.174c1.312-4.475.889-8.027-1.265-10.181-2.589-2.589-7.214-2.678-13.023-.25-5.417,2.264-11.37,6.48-16.762,11.872C5.743,115.552.407,124.867.152,131.289A12.158,12.158,0,0,0,0,133.183c0,5.751,4.031,11.089,11.351,15.03,7.047,3.795,16.385,5.884,26.295,5.884s19.248-2.09,26.295-5.884c7.32-3.941,11.351-9.279,11.351-15.03C75.291,127.661,71.591,122.538,64.832,118.651Z" transform="translate(0 -42.388)" fill="#ea533b"/>
    <path id="Path_356" data-name="Path 356" d="M41.828,154.966c-9.91,0-19.248-2.09-26.295-5.884-7.32-3.941-11.351-9.279-11.351-15.03a12.153,12.153,0,0,1,.152-1.894c.255-6.422,5.591-15.737,13.622-23.768,5.339-5.338,11.226-9.523,16.6-11.8a25.373,25.373,0,0,0-4.02,1.325c-5.417,2.264-11.37,6.48-16.762,11.872C5.743,117.816.407,127.13.152,133.553A12.155,12.155,0,0,0,0,135.446c0,5.751,4.031,11.089,11.351,15.03,7.047,3.795,16.385,5.884,26.295,5.884a60.717,60.717,0,0,0,21.525-3.707A63.637,63.637,0,0,1,41.828,154.966Z" transform="translate(0 -44.651)" fill="#d93c1c"/>
    <path id="Path_357" data-name="Path 357" d="M95.466,232.224c-.413-4.75-3.548-8.935-8.828-11.783a33.118,33.118,0,0,0-18.378-3.348,33.118,33.118,0,0,0-17.525,6.466c-4.71,3.716-7.077,8.379-6.664,13.129s3.548,8.935,8.828,11.783a31.838,31.838,0,0,0,15.014,3.494c1.111,0,2.234-.049,3.363-.147A33.115,33.115,0,0,0,88.8,245.353C93.512,241.636,95.878,236.974,95.466,232.224Z" transform="translate(-36.951 -145.671)" fill="#fff"/>
    <path id="Path_358" data-name="Path 358" d="M73.962,267.043c-1.129.1-2.253.147-3.363.147A31.837,31.837,0,0,1,55.584,263.7c-5.28-2.849-8.416-7.033-8.828-11.783s1.954-9.413,6.664-13.129a26.346,26.346,0,0,1,3-2.038,27.834,27.834,0,0,0-5.686,3.432c-4.71,3.716-7.077,8.379-6.664,13.129s3.548,8.935,8.828,11.783a31.838,31.838,0,0,0,15.014,3.494c1.111,0,2.234-.049,3.363-.147A34.884,34.884,0,0,0,85.8,264.009,36.171,36.171,0,0,1,73.962,267.043Z" transform="translate(-36.95 -162.289)" fill="#e5e5e5"/>
    <path id="Path_359" data-name="Path 359" d="M141.844,267.144c-1.527-6.354-8.925-10.043-16.491-8.225s-12.478,8.468-10.951,14.822a10.923,10.923,0,0,0,6.1,7.247,14.829,14.829,0,0,0,6.484,1.447,16.747,16.747,0,0,0,3.911-.469C138.459,280.147,143.371,273.5,141.844,267.144Z" transform="translate(-95.788 -180.511)" fill="#333"/>
    <circle id="Ellipse_34" data-name="Ellipse 34" cx="4.88" cy="4.88" r="4.88" transform="translate(23.703 88.007)" fill="#fff"/>
    <g id="Group_150" data-name="Group 150" transform="translate(54.377 43.39)">
      <path id="Path_360" data-name="Path 360" d="M362.226,117.153a2.091,2.091,0,0,0,0,4.183A7.677,7.677,0,0,1,369.9,129a2.091,2.091,0,0,0,4.183,0A11.865,11.865,0,0,0,362.226,117.153Z" transform="translate(-356.649 -105.302)" fill="#ffa929"/>
      <path id="Path_361" data-name="Path 361" d="M342.623,43.39c-.524,0-1.055.017-1.577.052a2.789,2.789,0,1,0,.366,5.565c.4-.026.809-.04,1.211-.04a18.144,18.144,0,0,1,17.763,21.754,2.789,2.789,0,0,0,5.466,1.109,23.722,23.722,0,0,0-23.229-28.44Z" transform="translate(-338.44 -43.39)" fill="#ffa929"/>
    </g>
    <circle id="Ellipse_35" data-name="Ellipse 35" cx="2.789" cy="2.789" r="2.789" transform="translate(34.857 85.219)" fill="#fff"/>
  </g>
</svg>
