<svg xmlns="http://www.w3.org/2000/svg" width="60.727" height="61.322" viewBox="0 0 60.727 61.322">
  <g id="new-tourists-china__petersburg" transform="translate(-10 -5.205)">
    <g id="Group_159" data-name="Group 159" transform="translate(10 5.205)">
      <path id="Path_403" data-name="Path 403" d="M46.764-505.651a4.141,4.141,0,0,0-.431.736c-.216.444-.406.6-1.294,1.027a9.9,9.9,0,0,0-1.534.913c-.647.52-1.687,1.763-1.382,1.648.19-.076.228-.025.19.266-.051.482-.457.508-.888.063-.317-.33-.33-.38-.165-.672.444-.786.482-.938.33-1.636a5.994,5.994,0,0,0-.659-1.56c-.494-.85-.533-.875-.913-.786a2.442,2.442,0,0,0-1.382.773c-.786.824-.812,1.725-.1,3.018.279.508.508.951.508.977a2.994,2.994,0,0,1-.748.342c-1,.367-1.306.761-1.839,2.4-.85,2.65-.977,3.83-.494,4.768s-.33,3.893-1.648,5.973c-.216.343-.749,1.116-1.179,1.712-1.014,1.395-1.192,1.775-1.192,2.448a.984.984,0,0,1-.2.723,2.481,2.481,0,0,0-.558,1.332,3.322,3.322,0,0,0,.266.926c.2.482.367.672.634.773l.355.127-.418.926a23.012,23.012,0,0,0-1.534,5.453,11.355,11.355,0,0,1-1.357,4.3,5.706,5.706,0,0,1-1.065,1.078c-.71.508-.786.609-.545.761.216.127.051,1.2-.266,1.814-.266.52-.508.723-2.93,2.422a10.745,10.745,0,0,0-3.779,4.134,4.664,4.664,0,0,0-.9,2.739c-.114,1.573-.33,1.928-1.7,2.828C16.227-451.779,10-445.222,10-444.55c0,.038,13.671.076,30.373.076,33.137,0,30.893.051,29.9-.71a11.247,11.247,0,0,0-4.109-2.08c-2.613-.672-5.555-1.978-6.214-2.777-.964-1.154-1.294-4.832-.609-6.671A6.626,6.626,0,0,1,61.6-459.3c1.179-.977,1.738-2.676,1.877-5.72.076-1.8-.076-2.866-.482-3.45-.647-.9-2.067-1.471-4.616-1.877-.837-.127-2.093-.393-2.79-.583-1.775-.495-2.98-.469-7.038.139-1.775.266-3.45.508-3.716.545-.457.051-.533.013-1.433-.888-.863-.863-.938-.989-.938-1.459a1.761,1.761,0,0,1,.444-1.128c.241-.343.545-.824.685-1.065a17.868,17.868,0,0,0,1.408-5.5c0-.494.051-.609.292-.7a.783.783,0,0,1,.431-.051,6.672,6.672,0,0,0,1.674-2.029c.076-.19.216-.343.317-.343a2.617,2.617,0,0,1,.837,1.255c0,.076-.228.241-.508.355l-.508.228v.99c0,.951.012.989.33,1.116.444.165.685.076,1.218-.444a4.248,4.248,0,0,0,.9-3.031c-.012-.85.013-.964.178-.837.292.241.393.533.533,1.382a3.629,3.629,0,0,0,.228.9,5.865,5.865,0,0,0,1.56-.317c1.319-.393,1.459-.457,1.5-.736.038-.3,0-.317-.736-.393-1.344-.114-1.788-.609-1.877-2.093l-.051-.977,1.116-.659,1.128-.659.33.317a7.187,7.187,0,0,1,1.255,2.244c.139.431.127.494-.114.7a1.283,1.283,0,0,0-.355.875c-.1.863.013,1.23.469,1.56.926.659,1.534-.241,1.623-2.448l.063-1.395-.52-.482a6.642,6.642,0,0,1-1.154-1.75c-.824-1.624-1.078-1.775-2.194-1.306a6.817,6.817,0,0,1-.888.33c-.317.076-.355.051-.355-.228a16.706,16.706,0,0,0-1-2.968,9.187,9.187,0,0,0-.837-1.053,3.337,3.337,0,0,1-1-2.244l-.076-.533h.7a3.015,3.015,0,0,0,1.395-.343c.71-.342.71-.342,1.319-.127a4.2,4.2,0,0,0,2.093.139c.317-.114.241-.406-.139-.608a16.551,16.551,0,0,0-3.931-.748,4.37,4.37,0,0,1-1.56-.279.968.968,0,0,1,.253-.418c.216-.216.406-.279.951-.279.634,0,.71-.025.888-.38.114-.216.253-.38.33-.38.178,0,.457-.7.558-1.42.076-.52.063-.6-.178-.672a6.281,6.281,0,0,1-1.192-.926c-.508-.469-1.053-.939-1.218-1.053-.266-.165-.317-.33-.38-1.128l-.076-.938-.355.469c-.266.355-.444.469-.736.469-.368,0-.368-.012-.368-.685C47.158-505.765,47.031-505.968,46.764-505.651Zm2.143,6.874c.025.19-.076.343-.38.533-.634.38-.863.343-.863-.177,0-.393.038-.444.482-.558C48.743-499.145,48.857-499.107,48.908-498.777Zm-8.8,22.7.748.19-.089.875a7.606,7.606,0,0,1-.406,1.712,3.028,3.028,0,0,0-.241,1.141,4.32,4.32,0,0,0,1.014,1.053c1.116.913,1.192,1.141.38,1.141-.672,0-5.5.482-5.631.571-.165.1-.52-1.763-.52-2.7a2.347,2.347,0,0,1,.938-2.181,5.181,5.181,0,0,0,.964-1.433l.3-.736.9.076A12.26,12.26,0,0,1,40.106-476.077Zm-6.151,4.895a3.592,3.592,0,0,1,.647,1.966c0,.457-.025.482-.951.938-.622.3-.951.406-.951.3a11.12,11.12,0,0,1,.317-1.268,17.058,17.058,0,0,0,.406-1.674c.038-.317.114-.571.165-.571A1.3,1.3,0,0,1,33.956-471.182Z" transform="translate(-10 505.795)" fill="#cb2023"/>
    </g>
  </g>
</svg>
