<svg xmlns="http://www.w3.org/2000/svg" width="61" height="59.815" viewBox="0 0 61 59.815">
  <g id="new-tourists-china__food" transform="translate(0 -2.917)">
    <path id="Path_449" data-name="Path 449" d="M98.5,53.984a5.412,5.412,0,0,1-.7-1.027,17.923,17.923,0,1,1-.453-4.2l1.624-12.075L99,36.412a25.155,25.155,0,0,0-34.927-3.26v5.809A9.869,9.869,0,0,1,59.5,47.279V67.616a25.176,25.176,0,0,0,41.389-.974V55.564A5.4,5.4,0,0,1,98.5,53.984Z" transform="translate(-47.408 -19.652)" fill="#cb2023"/>
    <path id="Path_450" data-name="Path 450" d="M101.291,78.318A14.889,14.889,0,1,0,116.18,93.207,14.906,14.906,0,0,0,101.291,78.318Z" transform="translate(-68.843 -60.078)" fill="#cb2023"/>
    <path id="Path_451" data-name="Path 451" d="M267.956,5.266a2.349,2.349,0,0,0-4.677-.313l-3.432,25.514a2.349,2.349,0,0,0,2.328,2.662h1.378V60.5a2.235,2.235,0,1,0,4.471,0Z" transform="translate(-207.024)" fill="#282625"/>
    <path id="Path_452" data-name="Path 452" d="M13.616,10.941a1.524,1.524,0,1,0-3.048,0v8.433H8.332V10.941a1.524,1.524,0,1,0-3.048,0v8.433H3.048V10.941a1.524,1.524,0,0,0-3.048,0V24.692a6.819,6.819,0,0,0,4.572,6.429V65.675a2.235,2.235,0,1,0,4.471,0V31.121a6.819,6.819,0,0,0,4.572-6.429Z" transform="translate(0 -5.179)" fill="#282625"/>
  </g>
</svg>
