<svg xmlns="http://www.w3.org/2000/svg" xmlns:xlink="http://www.w3.org/1999/xlink" width="66.321" height="76.34" viewBox="0 0 66.321 76.34">
  <defs>
    <linearGradient id="linear-gradient" x1="3.868" y1="-1.252" x2="-0.32" y2="1.424" gradientUnits="objectBoundingBox">
      <stop offset="0" stop-color="#cb2023"/>
      <stop offset="1" stop-color="#fff"/>
    </linearGradient>
  </defs>
  <g id="new-social-media__three" transform="translate(-798.679 -2596.923)">
    <path id="Fill_1" data-name="Fill 1" d="M21.035,31.033l7.433.051a11.354,11.354,0,0,0,7.483-2.667,10.878,10.878,0,0,0,3.489-7.19,7.416,7.416,0,0,0-1.366-5.69,6.49,6.49,0,0,0-5.309-2.286,8.849,8.849,0,0,0-5.814,1.828,8.576,8.576,0,0,0-3.236,5.132l-16.686.1A18.742,18.742,0,0,1,10.872,9.647,22.952,22.952,0,0,1,20.3,2.476,31.192,31.192,0,0,1,32.968,0Q44.09.256,50.462,5.886t5.815,15.006q-.658,10.5-13.6,16.612a16.634,16.634,0,0,1,7.331,6.777,17.916,17.916,0,0,1,2.175,9.783,20.633,20.633,0,0,1-4.3,11.9,25.2,25.2,0,0,1-10.567,7.8,35.09,35.09,0,0,1-14.208,2.573A26.3,26.3,0,0,1,11.1,73.508,19.933,19.933,0,0,1,2.832,65.85,21.273,21.273,0,0,1,0,54.654H16.586a8.89,8.89,0,0,0,2.124,5.978,7.642,7.642,0,0,0,5.815,2.452,11.062,11.062,0,0,0,7.433-2.5A10.349,10.349,0,0,0,35.8,53.734q.607-4.546-1.34-7.127t-6.5-2.734l-8.9-.051Z" transform="translate(798.679 2596.923)" opacity="0.325" fill="url(#linear-gradient)"/>
    <g id="megaphone-2-social.media" transform="translate(815 2608)">
      <path id="Path_482" data-name="Path 482" d="M48.34,23.095a3.323,3.323,0,0,1-4.7,4.7L21.52,5.672a3.324,3.324,0,1,1,4.7-4.7L48.342,23.1ZM9.6,28.767,21.233,40.406l-8.147,8.147a4.937,4.937,0,0,1-6.984,0L1.447,43.9a4.938,4.938,0,0,1,0-6.984l8.148-8.147Zm1.163,12.8,2.328-2.327a1.646,1.646,0,1,0-2.328-2.328L8.431,39.243a1.646,1.646,0,1,0,2.327,2.327Zm17.66,7.843,1.8,1.729a3.33,3.33,0,0,1,0,4.73,3.392,3.392,0,0,1-4.763,0l-7.645-7.35,4.766-4.728L26,47.086l2.33-2.311a1.659,1.659,0,0,0,0-2.363l-2.034-2.02a31.89,31.89,0,0,1,2.714-2.036l1.7,1.69a4.984,4.984,0,0,1,0,7.093l-2.292,2.274ZM35.274,0a1.711,1.711,0,0,1,1.712,1.712V5.137a1.712,1.712,0,1,1-3.424,0V1.712A1.711,1.711,0,0,1,35.274,0ZM48.288,13.014a1.712,1.712,0,1,1,0,3.424H44.863a1.712,1.712,0,1,1,0-3.424ZM46.074,3.926a1.712,1.712,0,0,1,0,2.422L42.649,9.772a1.712,1.712,0,1,1-2.421-2.421l3.424-3.425a1.712,1.712,0,0,1,2.422,0Z" fill="#cc6a6c" fill-rule="evenodd"/>
      <path id="Path_483" data-name="Path 483" d="M19.693,8.9,40.41,29.566l-.837.166a35.652,35.652,0,0,0-15.888,7.94L11.644,25.66A35.611,35.611,0,0,0,19.526,9.736l.167-.833ZM22.24,30.8l.6-.6-.49-.874.855-.855.875.49.6-.6-3.86-2.108-.683.684L22.24,30.8Zm.473-2.6-.641.641-.639-1.151q-.041-.063-.085-.124t-.085-.123l-.094-.128.017-.017.124.1q.121.089.251.166l1.152.638Zm-.593-3.242L25.1,27.938l.727-.726q1.324-1.324-.167-2.817t-2.817-.167Zm3.326,1.873-.128.128L23.1,24.74l.128-.128a1.036,1.036,0,0,1,.506-.3.888.888,0,0,1,.587.1,3.889,3.889,0,0,1,1.321,1.321.887.887,0,0,1,.1.587A1.055,1.055,0,0,1,25.446,26.828Zm3.033-2.18a2.013,2.013,0,0,0,.475-.692,1.1,1.1,0,0,0-.259-1.229,1.055,1.055,0,0,0-.535-.309,1.33,1.33,0,0,0-.55,0,5.078,5.078,0,0,0-.643.2q-.226.085-.46.148a.94.94,0,0,1-.34.026.475.475,0,0,1-.289-.143.5.5,0,0,1-.136-.4.65.65,0,0,1,.2-.435,1.46,1.46,0,0,1,.55-.355,1.544,1.544,0,0,1,.24-.052l.042-.042-.148-.534a1.424,1.424,0,0,0-.338.108,2.33,2.33,0,0,0-.773.534,1.775,1.775,0,0,0-.432.645,1.142,1.142,0,0,0-.054.638,1.138,1.138,0,0,0,.827.84,1.341,1.341,0,0,0,.55,0,5.378,5.378,0,0,0,.643-.2,4.8,4.8,0,0,1,.459-.148.94.94,0,0,1,.341-.026.473.473,0,0,1,.288.143.556.556,0,0,1,.181.441.8.8,0,0,1-.267.5,1.644,1.644,0,0,1-.581.393,1.194,1.194,0,0,1-.252.056l-.043.043.149.533a1.245,1.245,0,0,0,.346-.107,2.587,2.587,0,0,0,.807-.577Z" fill="#fff" fill-rule="evenodd"/>
    </g>
  </g>
</svg>
