<svg xmlns="http://www.w3.org/2000/svg" width="53.205" height="62.088" viewBox="0 0 53.205 62.088">
  <g id="Group_186" data-name="Group 186" transform="translate(0.03)">
    <path id="Path_477" data-name="Path 477" d="M6.119,54.839c-12.832-11.132-4.532-35.924,15.19-32.8v2.294C4.653,23.56-2.676,43.431,6.119,54.839Zm35.981-43a14.925,14.925,0,0,0,8.675,3.045v2.252A13.179,13.179,0,0,1,42.1,11.84ZM36.754,0a16,16,0,0,0,.241,2.535h-7.86V41.689a19.131,19.131,0,0,1-.552,4.822c-3.2,7.06-12.272,6.133-14.772,1.3a8.552,8.552,0,0,0,12.378-3.831,19.131,19.131,0,0,0,.552-4.822V0Z" transform="translate(0)" fill="#00f7ef" fill-rule="evenodd"/>
    <path id="Path_478" data-name="Path 478" d="M70.562,35.8v.05c0,.906.269,14.014,14.021,14.829,0,12.194.007,0,.007,10.126-1.034.064-9.057-.517-14.043-4.971l-.014,19.715c.12,8.93-4.844,17.682-14.149,19.446a20.1,20.1,0,0,1-8.894-.312c-22.7-6.777-15.161-40.449,7.634-36.845,0,10.87.007,0,.007,10.87C45.713,67.32,42.569,75.152,45.069,80.76c2.28,5.106,11.649,6.21,14.921-.991a19.131,19.131,0,0,0,.552-4.822V35.8Z" transform="translate(-31.415 -33.265)" fill-rule="evenodd"/>
    <path id="Path_479" data-name="Path 479" d="M102.09,57.6a21.918,21.918,0,0,1,2.394.241c0,10.87.007,0,.007,10.87C95.072,67.32,91.928,75.152,94.428,80.76c.042.1.1.205.149.3a6.516,6.516,0,0,1-2.542-2.84c-2.5-5.609.644-13.441,10.063-12.053C102.09,56.209,102.09,64.5,102.09,57.6Zm29.459-7.2a20.342,20.342,0,0,0,2.394.283c0,12.194.007,0,.007,10.126-1.034.064-9.057-.517-14.043-4.971l-.014,19.715c.12,8.93-4.844,17.682-14.149,19.446a20.1,20.1,0,0,1-8.894-.312A19.177,19.177,0,0,1,86.9,88.1a19.275,19.275,0,0,0,16.443,4.362C112.648,90.7,117.619,81.95,117.5,73.027l.014-19.722c4.992,4.454,13.009,5.035,14.05,4.971C131.556,48.865,131.549,58.716,131.549,50.395ZM119.921,35.8v.05a17.227,17.227,0,0,0,2.953,9.255,15.026,15.026,0,0,1-5.106-9.305Z" transform="translate(-80.774 -33.265)" fill="#ff004f" fill-rule="evenodd"/>
  </g>
</svg>
