<svg xmlns="http://www.w3.org/2000/svg" xmlns:xlink="http://www.w3.org/1999/xlink" width="56.892" height="72.446" viewBox="0 0 56.892 72.446">
  <defs>
    <linearGradient id="linear-gradient" x1="3.868" y1="-1.252" x2="-0.32" y2="1.424" gradientUnits="objectBoundingBox">
      <stop offset="0" stop-color="#cb2023"/>
      <stop offset="1" stop-color="#fff"/>
    </linearGradient>
  </defs>
  <g id="new-social-media__first" transform="translate(-242.108 -2404)">
    <g id="new-social-media__first-icon">
      <path id="Fill_1" data-name="Fill 1" d="M36.117,0,34.279.05,2.285,10.74,0,24.017l16.841-4.773L7.6,72.446H23.995Z" transform="translate(242.108 2404)" opacity="0.325" fill="url(#linear-gradient)"/>
      <g id="content-2_copy" data-name="content-2 copy" transform="translate(249.108 2422)">
        <path id="Path" d="M48.673,42.4H1.2A1.205,1.205,0,0,1,0,41.2V1.205A1.205,1.205,0,0,1,1.2,0H48.673a1.205,1.205,0,0,1,1.2,1.205V41.2A1.2,1.2,0,0,1,48.673,42.4Z" transform="translate(0.014)" fill="#fff"/>
        <path id="Path-2" data-name="Path" d="M49.877,8.088H0V1.213A1.209,1.209,0,0,1,1.2,0H48.673a1.209,1.209,0,0,1,1.2,1.213Z" transform="translate(0.014)" fill="#cc6a6c"/>
        <circle id="Oval" cx="1.532" cy="1.532" r="1.532" transform="translate(2.465 2.574)" fill="#fff"/>
        <circle id="Oval-2" data-name="Oval" cx="1.532" cy="1.532" r="1.532" transform="translate(7.612 2.574)" fill="#fff"/>
        <circle id="Oval-3" data-name="Oval" cx="1.532" cy="1.532" r="1.532" transform="translate(12.759 2.574)" fill="#fff"/>
      </g>
    </g>
    <g id="Group_187" data-name="Group 187">
      <g id="man-user" transform="translate(253.108 2435)">
        <path id="Path-3" data-name="Path" d="M3.681,8.942c2.033,0,3.681-2,3.681-4.471S6.821,0,3.681,0,0,2,0,4.471,1.648,8.942,3.681,8.942Z" transform="translate(3.319)" fill="#3d3c3b"/>
        <path id="Path-4" data-name="Path" d="M13.9,6.3C13.829,2,13.267.776,8.968,0A2.577,2.577,0,0,1,6.953.771,2.577,2.577,0,0,1,4.937,0C.685.767.089,1.975.011,6.163,0,6.505,0,6.523,0,6.484c0,.074,0,.212,0,.452C0,6.935,1.024,9,6.953,9S13.9,6.935,13.9,6.935c0-.154,0-.261,0-.334A2.769,2.769,0,0,1,13.9,6.3Z" transform="translate(0.047 9.285)" fill="#3d3c3b"/>
      </g>
      <g id="Group_15" data-name="Group 15" transform="translate(271.108 2436)">
        <path id="Line_5" data-name="Line 5" d="M.458,1.5h21.35" fill="none" stroke="#3d3c3b" stroke-linecap="round" stroke-miterlimit="10" stroke-width="1.5"/>
        <path id="Line_5_Copy" data-name="Line 5 Copy" d="M.447,1.5H16.553" transform="translate(0 4)" fill="none" stroke="#3d3c3b" stroke-linecap="round" stroke-miterlimit="10" stroke-width="1.5"/>
        <path id="Line_5_Copy-2" data-name="Line 5 Copy" d="M.447,1.5H16.553" transform="translate(0 12)" fill="none" stroke="#3d3c3b" stroke-linecap="round" stroke-miterlimit="10" stroke-width="1.5"/>
        <path id="Line_5_Copy_2" data-name="Line 5 Copy 2" d="M.458,1.5H21.542" transform="translate(0 8)" fill="none" stroke="#3d3c3b" stroke-linecap="round" stroke-miterlimit="10" stroke-width="1.5"/>
      </g>
    </g>
  </g>
</svg>
