<svg xmlns="http://www.w3.org/2000/svg" width="60" height="50.243" viewBox="0 0 60 50.243">
  <g id="wechat" transform="translate(0 -0.079)">
    <path id="Path" d="M42.82,13.42C40.028,5.391,31.61,0,21.875,0,9.812,0,0,8.451,0,18.841A17.753,17.753,0,0,0,7.715,33.185l-2.582,5.19a1.259,1.259,0,0,0,.543,1.691,1.245,1.245,0,0,0,1.207-.038l6.615-3.8A24.808,24.808,0,0,0,19.045,37.5a1.256,1.256,0,0,0,1.36-1.535A14.637,14.637,0,0,1,20,32.658c0-9.694,9.532-17.585,21.25-17.585l.368.018a1.318,1.318,0,0,0,1.035-.52A1.262,1.262,0,0,0,42.82,13.42Z" transform="translate(0 0.079)" fill="#4caf50"/>
    <g id="Group" transform="translate(9.961 7.536)">
      <path id="Path-2" data-name="Path" d="M3.75,0A3.768,3.768,0,1,0,7.5,3.768,3.759,3.759,0,0,0,3.75,0Z" transform="translate(0.039 0.079)" fill="#fafafa"/>
      <path id="Path-3" data-name="Path" d="M3.75,0A3.768,3.768,0,1,0,7.5,3.768,3.759,3.759,0,0,0,3.75,0Z" transform="translate(15.039 0.079)" fill="#fafafa"/>
    </g>
    <path id="Path-4" data-name="Path" d="M37.5,15.073C37.5,6.76,29.09,0,18.75,0S0,6.76,0,15.073,8.41,30.146,18.75,30.146a22.974,22.974,0,0,0,5.75-.734l6.2,3.113a1.247,1.247,0,0,0,1.677-.561,1.261,1.261,0,0,0,.043-1.029l-1.7-4.271A14.178,14.178,0,0,0,37.5,15.073Z" transform="translate(22.5 17.664)" fill="#4caf50"/>
    <g id="Group-2" data-name="Group" transform="translate(32.461 25.2)">
      <path id="Path-5" data-name="Path" d="M2.5,0A2.512,2.512,0,1,0,5,2.512,2.506,2.506,0,0,0,2.5,0Z" transform="translate(0.039)" fill="#fafafa"/>
      <path id="Path-6" data-name="Path" d="M2.5,0A2.512,2.512,0,1,0,5,2.512,2.506,2.506,0,0,0,2.5,0Z" transform="translate(12.539)" fill="#fafafa"/>
    </g>
  </g>
</svg>
