<svg xmlns="http://www.w3.org/2000/svg" viewBox="0 0 58.271 57.981">
  <defs>
    <style>
      .cls-1 {
        fill: #fff;
      }

      .cls-2 {
        fill: #cb2023;
      }

      .cls-3 {
        fill: #dedede;
      }

      .cls-4 {
        fill: #282625;
      }

      .cls-5 {
        fill: #b5b5b5;
      }
    </style>
  </defs>
  <g id="one__service-weibo" transform="translate(0 -0.145)">
    <g id="Group_126" data-name="Group 126">
      <path id="Path_280" data-name="Path 280" class="cls-1" d="M18.613,41.7l-7.907,4.313a7.106,7.106,0,0,0-1.269.9A26.486,26.486,0,0,0,43.465,47a7.015,7.015,0,0,0-1.394-.934L33.6,41.832a3.229,3.229,0,0,1-1.785-2.888V35.622a12.788,12.788,0,0,0,.8-1.03,19.483,19.483,0,0,0,2.632-5.3,2.659,2.659,0,0,0,1.886-2.53V23.212a2.647,2.647,0,0,0-.886-1.965V16.121s1.053-7.977-9.75-7.977-9.75,7.977-9.75,7.977v5.126a2.644,2.644,0,0,0-.886,1.965v3.546a2.658,2.658,0,0,0,1.226,2.231A17.6,17.6,0,0,0,20.3,35.622v3.24A3.236,3.236,0,0,1,18.613,41.7Z"/>
      <g id="Group_125" data-name="Group 125">
        <path id="Path_281" data-name="Path 281" class="cls-2" d="M26.953.148A26.483,26.483,0,0,0,9.448,46.9,7.041,7.041,0,0,1,10.7,46.01L18.612,41.7A3.23,3.23,0,0,0,20.3,38.862v-3.24a17.58,17.58,0,0,1-3.206-6.633,2.66,2.66,0,0,1-1.226-2.231V23.212a2.647,2.647,0,0,1,.886-1.965V16.121S15.7,8.144,26.5,8.144s9.75,7.977,9.75,7.977v5.126a2.644,2.644,0,0,1,.886,1.965v3.546a2.659,2.659,0,0,1-1.886,2.53,19.482,19.482,0,0,1-2.632,5.3,12.788,12.788,0,0,1-.8,1.03v3.322A3.228,3.228,0,0,0,33.6,41.832l8.467,4.233a7.05,7.05,0,0,1,1.39.932A26.494,26.494,0,0,0,26.953.148Z"/>
      </g>
    </g>
    <g id="Group_127" data-name="Group 127">
      <path id="Path_282" data-name="Path 282" class="cls-3" d="M36.836,48.633l-.008.007L34.84,55.93l4.647-4.647Z"/>
      <path id="Path_283" data-name="Path 283" class="cls-4" d="M56.086,34.684l-1.247-1.247a1.985,1.985,0,0,0-2.807,0L48.45,37.019,51.1,39.67Z"/>
      <rect id="Rectangle_68" data-name="Rectangle 68" class="cls-4" width="3.749" height="16.424" transform="translate(48.45 37.018) rotate(45)"/>
      <path id="Path_284" data-name="Path 284" class="cls-5" d="M42.485,54.3l.008-.007-3.006-3.007L34.84,55.93l-.133.488Z"/>
      <path id="Path_285" data-name="Path 285" class="cls-4" d="M54.107,42.676l3.582-3.582a1.985,1.985,0,0,0,0-2.807l-1.6-1.6L51.1,39.67Z"/>
      <rect id="Rectangle_69" data-name="Rectangle 69" class="cls-4" width="4.251" height="16.424" transform="translate(42.493 54.29) rotate(-135)"/>
      <path id="Path_286" data-name="Path 286" class="cls-4" d="M34,58.126a1,1,0,0,1-.707-1.707L35.5,54.212a1,1,0,0,1,1.414,1.414l-2.207,2.207A1,1,0,0,1,34,58.126Z"/>
    </g>
  </g>
</svg>
