<?xml version="1.0" encoding="UTF-8"?>
<svg width="44px" height="34px" viewBox="0 0 44 34" version="1.1" xmlns="http://www.w3.org/2000/svg" xmlns:xlink="http://www.w3.org/1999/xlink">
    <!-- Generator: Sketch 50.2 (55047) - http://www.bohemiancoding.com/sketch -->
    <title>open-book</title>
    <desc>Created with Sketch.</desc>
    <defs></defs>
    <g id="Design" stroke="none" stroke-width="1" fill="none" fill-rule="evenodd">
        <g id="development-5" transform="translate(-935.000000, -1490.000000)" fill-rule="nonzero">
            <g id="open-book" transform="translate(935.000000, 1490.000000)">
                <path d="M6.73066667,0.00723797111 C6.72948148,0.00723797111 6.72814815,0.00723797111 6.72696296,0.00723797111 C6.31081481,0.00723797111 5.91940741,0.168984468 5.62385185,0.462934724 C5.32503704,0.76013468 5.16044444,1.15585967 5.16044444,1.57713913 L5.16044444,25.1175323 C5.16044444,25.9807712 5.86755556,26.6847746 6.73688889,26.6869903 C10.4017778,26.6957054 16.5419259,27.4573173 20.7777778,31.8770588 L20.7777778,7.24136852 C20.7777778,6.94874769 20.7028148,6.6738525 20.5613333,6.44637341 C17.0847407,0.863977408 10.4038519,0.0158053655 6.73066667,0.00723797111 Z" id="Shape" fill="#CB2023"></path>
                <path d="M38.8395556,25.1175323 L38.8395556,1.57699142 C38.8395556,1.15571196 38.674963,0.759986966 38.3761481,0.46278701 C38.0805926,0.168836755 37.6888889,0.00709025741 37.2731852,0.00709025741 C37.2718519,0.00709025741 37.2705185,0.00709025741 37.2693333,0.00709025741 C33.5962963,0.0158053655 26.9154074,0.863977408 23.4386667,6.44637341 C23.2971852,6.6738525 23.2223704,6.94874769 23.2223704,7.24136852 L23.2223704,31.876911 C27.4582222,27.4571695 33.5983704,26.6955577 37.2632593,26.6868426 C38.1324444,26.6846269 38.8395556,25.9806234 38.8395556,25.1175323 Z" id="Shape" fill="#CB2023"></path>
                <path d="M42.4256296,5.43601173 L41.284,5.43601173 L41.284,25.1175323 C41.284,27.3215684 39.482963,29.1188009 37.269037,29.1242663 C34.1604444,29.131652 29.0348148,29.7377213 25.4047407,33.1633496 C31.682963,31.6306723 38.3013333,32.6270012 42.0731852,33.4840361 C42.5441481,33.5909808 43.0308148,33.4804909 43.4081481,33.1806321 C43.7841481,32.8815119 43.9998519,32.4343825 43.9998519,31.9544607 L43.9998519,7.00561746 C44,6.14016292 43.2936296,5.43601173 42.4256296,5.43601173 Z" id="Shape" fill="#3D3C3B"></path>
                <path d="M2.71585185,25.1175323 L2.71585185,5.43601173 L1.57422222,5.43601173 C0.70637037,5.43601173 0,6.14016292 0,7.00561746 L0,31.9540176 C0,32.4340871 0.215703704,32.8810688 0.591703704,33.180189 C0.968740741,33.4799001 1.45496296,33.5908331 1.92666667,33.4835929 C5.69851852,32.6264103 12.317037,31.6302292 18.594963,33.1629065 C14.965037,29.7374259 9.83940741,29.1315043 6.73081481,29.1241186 C4.51703704,29.1188009 2.71585185,27.3215684 2.71585185,25.1175323 Z" id="Shape" fill="#3D3C3B"></path>
            </g>
        </g>
    </g>
</svg>