<?xml version="1.0" encoding="UTF-8"?>
<svg width="31px" height="32px" viewBox="0 0 31 32" version="1.1" xmlns="http://www.w3.org/2000/svg" xmlns:xlink="http://www.w3.org/1999/xlink">
    <!-- Generator: Sketch 50.2 (55047) - http://www.bohemiancoding.com/sketch -->
    <title>parking copy</title>
    <desc>Created with Sketch.</desc>
    <defs></defs>
    <g id="Home-page" stroke="none" stroke-width="1" fill="none" fill-rule="evenodd">
        <g id="complex---10" transform="translate(-756.000000, -471.000000)" fill="#878787" fill-rule="nonzero">
            <g id="Group-13" transform="translate(754.000000, 415.000000)">
                <g id="Group-2">
                    <g id="parking-copy" transform="translate(2.000000, 56.345491)">
                        <path d="M22.7155575,25.2969226 L22.7155575,19.6180179 C22.7155575,18.7403611 22.0444444,18.069248 21.1667877,18.069248 L20.9086389,18.069248 C20.6504901,18.069248 20.4440079,17.914371 20.3924028,17.7078889 L18.5854841,11.4094762 L18.5854841,11.357871 C18.1724583,10.4286091 17.2431964,9.80910119 16.2106627,9.80910119 L6.50489484,9.80910119 C5.47236111,9.80910119 4.54309921,10.4286091 4.13007341,11.357871 L4.13007341,11.4094762 L2.32315476,17.7078889 C2.21988294,17.914371 2.01340079,18.069248 1.80691865,18.069248 L1.54876984,18.069248 C0.671113095,18.069248 0,18.7403611 0,19.6180179 L0,25.2969226 C0,26.1745794 0.671113095,26.8456925 1.54876984,26.8456925 L1.54876984,29.426996 C1.54876984,30.3046528 2.21988294,30.9757659 3.09753968,30.9757659 L4.13007341,30.9757659 C5.00773016,30.9757659 5.67884325,30.3046528 5.67884325,29.426996 L5.67884325,26.8456925 L17.0366528,26.8456925 L17.0366528,29.426996 C17.0366528,30.3046528 17.7077659,30.9757659 18.5854226,30.9757659 L19.6179563,30.9757659 C20.4956131,30.9757659 21.1667262,30.3046528 21.1667262,29.426996 L21.1667262,26.8456925 C22.0444444,26.8456925 22.7155575,26.1745794 22.7155575,25.2969226 Z M4.64637103,29.426996 C4.64637103,29.73675 4.43988889,29.9432321 4.13013492,29.9432321 L3.09760119,29.9432321 C2.78784722,29.9432321 2.58136508,29.73675 2.58136508,29.426996 L2.58136508,26.8456925 L4.64643254,26.8456925 L4.64643254,29.426996 L4.64637103,29.426996 Z M20.134254,29.426996 C20.134254,29.73675 19.9277718,29.9432321 19.6180179,29.9432321 L18.5854841,29.9432321 C18.2757302,29.9432321 18.069248,29.73675 18.069248,29.426996 L18.069248,26.8456925 L20.1343155,26.8456925 L20.1343155,29.426996 L20.134254,29.426996 Z M21.6830853,25.2969226 C21.6830853,25.6066766 21.4766032,25.8131587 21.1668492,25.8131587 L20.6506131,25.8131587 L17.5530119,25.8131587 L5.16260714,25.8131587 L2.06506746,25.8131587 L1.54876984,25.8131587 C1.23901587,25.8131587 1.03253373,25.6066766 1.03253373,25.2969226 L1.03253373,19.6180179 C1.03253373,19.3082639 1.23901587,19.1017817 1.54876984,19.1017817 L1.80691865,19.1017817 C2.47803175,19.1017817 3.09760119,18.6371508 3.30408333,17.9659762 L5.11100198,11.7191687 C5.36915079,11.2029325 5.8853869,10.8415119 6.50489484,10.8415119 L16.2106627,10.8415119 C16.7785655,10.8415119 17.3464683,11.1512659 17.6045556,11.7191687 L19.4114742,17.9659762 C19.6179563,18.6370893 20.2375258,19.1017817 20.9086389,19.1017817 L21.1667877,19.1017817 C21.4765417,19.1017817 21.6830238,19.3082639 21.6830238,19.6180179 L21.6830238,25.2969226 L21.6830853,25.2969226 Z" id="Shape"></path>
                        <path d="M4.64637103,20.134254 C3.51056548,20.134254 2.58130357,21.0635159 2.58130357,22.1993214 C2.58130357,23.335127 3.51056548,24.2643889 4.64637103,24.2643889 C5.78217659,24.2643889 6.71143849,23.335127 6.71143849,22.1993214 C6.71143849,21.0635159 5.78217659,20.134254 4.64637103,20.134254 Z M4.64637103,23.2318552 C4.07846825,23.2318552 3.6138373,22.7672242 3.6138373,22.1993214 C3.6138373,21.6314187 4.07846825,21.1667877 4.64637103,21.1667877 C5.21427381,21.1667877 5.67890476,21.6314187 5.67890476,22.1993214 C5.67890476,22.7672242 5.21427381,23.2318552 4.64637103,23.2318552 Z" id="Shape"></path>
                        <path d="M18.069248,20.134254 C16.9334425,20.134254 16.0041806,21.0635159 16.0041806,22.1993214 C16.0041806,23.335127 16.9334425,24.2643889 18.069248,24.2643889 C19.2050536,24.2643889 20.1343155,23.335127 20.1343155,22.1993214 C20.1343155,21.0635159 19.2049921,20.134254 18.069248,20.134254 Z M18.069248,23.2318552 C17.5013452,23.2318552 17.0367143,22.7672242 17.0367143,22.1993214 C17.0367143,21.6314187 17.5013452,21.1667877 18.069248,21.1667877 C18.6371508,21.1667877 19.1017817,21.6314187 19.1017817,22.1993214 C19.1017817,22.7672242 18.6370893,23.2318552 18.069248,23.2318552 Z" id="Shape"></path>
                        <path d="M12.3903433,22.7155575 L10.3252758,22.7155575 C10.0155218,22.7155575 9.80903968,22.9220397 9.80903968,23.2317937 C9.80903968,23.5415476 10.0155218,23.7480298 10.3252758,23.7480298 L12.3903433,23.7480298 C12.7000972,23.7480298 12.9065794,23.5415476 12.9065794,23.2317937 C12.9065794,22.9221012 12.7000972,22.7155575 12.3903433,22.7155575 Z" id="Shape"></path>
                        <path d="M13.4228155,20.6505516 L9.29268056,20.6505516 C8.98292659,20.6505516 8.77644444,20.8570337 8.77644444,21.1667877 C8.77644444,21.4765417 8.98292659,21.6830238 9.29268056,21.6830238 L13.4228155,21.6830238 C13.7325694,21.6830238 13.9390516,21.4765417 13.9390516,21.1667877 C13.9391131,20.8570337 13.732631,20.6505516 13.4228155,20.6505516 Z" id="Shape"></path>
                        <path d="M6.40168452,18.069248 L16.3655397,18.069248 C16.6752937,18.069248 16.9850476,17.914371 17.1915913,17.6562222 C17.3981349,17.3980734 17.4497401,17.0367143 17.3464683,16.7269603 L16.1073909,12.5968254 C16.004119,12.1837996 15.5910933,11.8740456 15.1264623,11.8740456 L7.6407004,11.8740456 C7.17606944,11.8740456 6.81464881,12.1321944 6.65977183,12.5968254 L5.42075595,16.7269603 C5.31748413,17.0367143 5.36915079,17.3980734 5.57563294,17.6562222 C5.78217659,17.9143095 6.09193056,18.069248 6.40168452,18.069248 Z M7.6407004,12.9065794 L15.1265238,12.9065794 L16.3655397,17.0367143 L6.40168452,17.0367143 L7.6407004,12.9065794 Z" id="Shape"></path>
                        <path d="M30.4595298,0 L21.6830853,0 C21.3733313,0 21.1668492,0.206482143 21.1668492,0.516236111 L21.1668492,9.29274206 C21.1668492,9.60249603 21.3733313,9.80897817 21.6830853,9.80897817 L25.2969226,9.80897817 L25.2969226,25.8131587 L24.2643889,25.8131587 C23.9546349,25.8131587 23.7481528,26.0196409 23.7481528,26.3293948 L23.7481528,27.8781647 L22.715619,27.8781647 C22.4058651,27.8781647 22.1993829,28.0846468 22.1993829,28.3944008 L22.1993829,30.4594683 C22.1993829,30.7692222 22.4058651,30.9757044 22.715619,30.9757044 L28.9107599,30.9757044 C29.2205139,30.9757044 29.426996,30.7692222 29.426996,30.4594683 L29.426996,28.3944008 C29.426996,28.0846468 29.2205139,27.8781647 28.9107599,27.8781647 L27.8782262,27.8781647 L27.8782262,26.3293948 C27.8782262,26.0196409 27.671744,25.8131587 27.3619901,25.8131587 L26.3294563,25.8131587 L26.3294563,9.80897817 L30.4595913,9.80897817 C30.7693452,9.80897817 30.9758274,9.60249603 30.9758274,9.29274206 L30.9758274,0.516236111 C30.9758274,0.206482143 30.7692837,0 30.4595298,0 Z M28.3944623,29.9432937 L23.2318552,29.9432937 L23.2318552,28.9107599 L24.2643889,28.9107599 L27.3619901,28.9107599 L28.3945238,28.9107599 L28.3945238,29.9432937 L28.3944623,29.9432937 Z M26.8456925,27.8782262 L24.780625,27.8782262 L24.780625,26.8456925 L26.8456925,26.8456925 L26.8456925,27.8782262 Z M29.9432937,8.77650595 L22.1993214,8.77650595 L22.1993214,1.03253373 L29.9432937,1.03253373 L29.9432937,8.77650595 Z" id="Shape"></path>
                        <path d="M25.2969226,7.74397222 C25.6066766,7.74397222 25.8131587,7.53749008 25.8131587,7.22773611 L25.8131587,6.19514087 L26.3293948,6.19514087 C27.4652004,6.19514087 28.3944623,5.26587897 28.3944623,4.13007341 C28.3944623,2.99426786 27.4652004,2.06500595 26.3293948,2.06500595 L25.2968611,2.06500595 C24.9871071,2.06500595 24.780625,2.2714881 24.780625,2.58124206 L24.780625,5.67884325 L24.780625,7.2276131 C24.780625,7.53742857 24.9871687,7.74397222 25.2969226,7.74397222 Z M27.3619286,4.13013492 C27.3619286,4.6980377 26.8972976,5.16266865 26.3293948,5.16266865 L25.8131587,5.16266865 L25.8131587,3.09760119 L26.3293948,3.09760119 C26.8972976,3.09760119 27.3619286,3.56223214 27.3619286,4.13013492 Z" id="Shape"></path>
                    </g>
                </g>
            </g>
        </g>
    </g>
</svg>