<svg width="42" height="42" viewBox="0 0 42 42" fill="none" xmlns="http://www.w3.org/2000/svg">
<path d="M4.1087 23.739H37.8913C40.1569 23.739 42 25.5821 42 27.8477V36.0651C42 38.3307 40.1569 40.1738 37.8913 40.1738H4.1087C1.84308 40.1738 0 38.3307 0 36.0651V27.8477C0 25.5821 1.84308 23.739 4.1087 23.739ZM29.0516 32.9247C28.5167 33.4596 28.5167 34.3264 29.0516 34.8614C29.3191 35.1289 29.6696 35.2627 30.0199 35.2627C30.3703 35.2627 30.7208 35.1289 30.9882 34.8614L31.9566 33.8931L32.9249 34.8614C33.1924 35.1289 33.5428 35.2627 33.8932 35.2627C34.2435 35.2627 34.5941 35.1289 34.8615 34.8614C35.3964 34.3264 35.3964 33.4597 34.8615 32.9247L33.8933 31.9564L34.8616 30.9881C35.3965 30.4532 35.3965 29.5864 34.8616 29.0514C34.3266 28.5165 33.4599 28.5165 32.9249 29.0514L31.9566 30.0197L30.9883 29.0514C30.4534 28.5165 29.5866 28.5165 29.0516 29.0514C28.5167 29.5864 28.5167 30.4531 29.0516 30.9881L30.0199 31.9564L29.0516 32.9247ZM18.095 32.9247C17.5601 33.4596 17.5601 34.3264 18.095 34.8614C18.3625 35.1289 18.713 35.2627 19.0633 35.2627C19.4137 35.2627 19.7642 35.1289 20.0316 34.8614L21 33.8931L21.9683 34.8614C22.2358 35.1289 22.5862 35.2627 22.9366 35.2627C23.2869 35.2627 23.6375 35.1289 23.9049 34.8614C24.4398 34.3264 24.4398 33.4597 23.9049 32.9247L22.9367 31.9564L23.905 30.9881C24.4399 30.4532 24.4399 29.5864 23.905 29.0514C23.37 28.5165 22.5033 28.5165 21.9683 29.0514L21 30.0197L20.0317 29.0514C19.4968 28.5165 18.63 28.5165 18.095 29.0514C17.5601 29.5864 17.5601 30.4531 18.095 30.9881L19.0633 31.9564L18.095 32.9247ZM7.13852 32.9247C6.6036 33.4596 6.6036 34.3264 7.13852 34.8614C7.40603 35.1289 7.75646 35.2627 8.10682 35.2627C8.45718 35.2627 8.8077 35.1289 9.07512 34.8614L10.0435 33.8931L11.0118 34.8614C11.2793 35.1289 11.6297 35.2627 11.9801 35.2627C12.3304 35.2627 12.681 35.1289 12.9484 34.8614C13.4833 34.3264 13.4833 33.4597 12.9484 32.9247L11.9802 31.9564L12.9485 30.9881C13.4834 30.4532 13.4834 29.5864 12.9485 29.0514C12.4135 28.5165 11.5468 28.5165 11.0118 29.0514L10.0435 30.0197L9.0752 29.0514C8.54028 28.5165 7.67353 28.5165 7.13852 29.0514C6.6036 29.5864 6.6036 30.4531 7.13852 30.9881L8.10682 31.9564L7.13852 32.9247Z" fill="#CC1237"/>
<path d="M14.1524 10.0434H15.522V7.30422C15.522 4.28334 17.9793 1.82593 21.0003 1.82593C24.0213 1.82593 26.4786 4.28326 26.4786 7.30422V10.0433H27.8482C28.6043 10.0433 29.2178 10.6568 29.2178 11.4129V19.6303C29.2178 20.3864 28.6043 20.9999 27.8482 20.9999H14.1525C13.3964 20.9999 12.7829 20.3864 12.7829 19.6303V11.4129C12.7828 10.6568 13.3963 10.0434 14.1524 10.0434ZM18.2611 10.0434H23.7394V7.30422C23.7394 5.79378 22.5107 4.56512 21.0003 4.56512C19.4899 4.56512 18.2612 5.79378 18.2612 7.30422V10.0434H18.2611Z" fill="#CC1237"/>
</svg>
