<svg width="49" height="49" viewBox="0 0 49 49" fill="none" xmlns="http://www.w3.org/2000/svg">
<path d="M38.6537 27.2656C38.1036 26.8355 32.3624 20.4642 30.8121 19.564V3.03062C30.8121 1.35028 29.4518 0 27.7815 0H12.1683C10.488 0 9.1377 1.36028 9.1377 3.03062V31.9765C9.1377 33.6569 10.498 35.0071 12.1683 35.0071H17.1793H18.9697L18.6896 32.6267C18.5996 32.5466 18.5396 32.4966 18.4496 32.4166H17.4494H15.449C15.549 32.0165 15.579 31.5764 15.499 31.1264C15.2789 29.8761 14.2887 28.8659 13.0385 28.6358C12.5784 28.5458 12.1283 28.5758 11.7182 28.6759V6.14125C11.8983 6.17126 12.0883 6.19126 12.2783 6.19126C13.9787 6.19126 15.349 4.81098 15.349 3.12064C15.349 2.9406 15.329 2.76056 15.299 2.58053H24.6209C24.5908 2.76056 24.5708 2.9406 24.5708 3.12064C24.5708 4.82098 25.9411 6.19126 27.6415 6.19126C27.8315 6.19126 28.0216 6.17126 28.2016 6.14125V28.1357V34.457C27.1414 33.6769 25.9611 31.2364 25.9611 31.2364C25.9611 31.2364 25.381 24.7451 22.0903 24.7451C22.0003 24.7451 21.9203 24.7451 21.8303 24.7551C21.8303 24.7551 19.3398 24.9651 21.4002 32.0865L22.3204 39.9982C22.3204 39.9982 23.3506 44.289 26.1912 47.2596V48.1398C26.1912 48.6099 26.5713 49 27.0514 49H36.3032C36.7433 49 37.1034 48.6699 37.1534 48.2398C37.4835 45.1592 38.7637 33.7069 39.5139 31.9665C39.6339 31.6865 39.7339 31.4064 39.7739 31.1063C39.944 30.1262 40.004 28.3258 38.6537 27.2656Z" fill="#CC1237"/>
<path d="M20.3101 9.87216C21.3265 9.87216 22.1505 9.04819 22.1505 8.03178C22.1505 7.01537 21.3265 6.19141 20.3101 6.19141C19.2937 6.19141 18.4697 7.01537 18.4697 8.03178C18.4697 9.04819 19.2937 9.87216 20.3101 9.87216Z" fill="#CC1237"/>
<path d="M13.3286 17.7136C13.3286 20.8843 15.5491 23.5348 18.5197 24.2049C18.6097 24.0349 18.6997 23.8849 18.8097 23.7248C19.7899 22.2945 21.1202 22.0345 21.5703 21.9945C21.7503 21.9745 21.9304 21.9645 22.1104 21.9645C22.7505 21.9645 23.6207 22.0845 24.5209 22.5646C25.8112 21.3544 26.6213 19.624 26.6213 17.7136C26.6213 14.0429 23.6407 11.0623 19.97 11.0623C16.2992 11.0623 13.3286 14.0429 13.3286 17.7136ZM15.9892 17.1235C16.3892 17.1235 16.3992 17.1235 16.4593 16.7234C16.5093 16.4133 16.5993 16.1233 16.7193 15.8332C16.7893 15.6732 16.8993 15.6132 17.0594 15.6632C17.3094 15.7332 17.5495 15.8032 17.7995 15.8832C18.0296 15.9533 18.0596 16.0333 17.9596 16.2533C17.7395 16.7034 17.6495 17.1635 17.6795 17.6636C17.6895 17.7936 17.6995 17.9237 17.7595 18.0337C17.9496 18.4638 18.4197 18.5238 18.7097 18.1637C18.8597 17.9837 18.9598 17.7736 19.0498 17.5536C19.2098 17.1735 19.3598 16.7934 19.5499 16.4434C20.18 15.3031 21.6103 14.9931 22.5905 15.8032C22.9406 16.0933 23.1806 16.4734 23.3006 16.9135C23.3507 17.1035 23.4507 17.1935 23.6507 17.1835C23.8508 17.1735 24.0408 17.1835 24.2408 17.1835C24.4209 17.1835 24.5109 17.2735 24.5109 17.4436C24.5209 17.6536 24.5209 17.8636 24.5109 18.0737C24.5109 18.2637 24.4009 18.3437 24.2208 18.3437C24.0808 18.3437 23.9308 18.3437 23.7907 18.3437C23.4707 18.3437 23.4607 18.3537 23.4107 18.6638C23.3507 19.0539 23.2606 19.434 23.0906 19.794C22.9506 20.0741 22.8806 20.1041 22.5905 20.0241C22.3705 19.9641 22.1504 19.9041 21.9404 19.834C21.6903 19.754 21.6603 19.684 21.7803 19.454C21.9904 19.0639 22.1004 18.6438 22.1604 18.2037C22.2004 17.9237 22.1704 17.6436 22.0504 17.3835C21.8404 16.8934 21.2702 16.8134 20.9302 17.2335C20.8101 17.3735 20.7301 17.5336 20.6601 17.7036C20.4701 18.1337 20.33 18.5838 20.09 18.9839C19.6999 19.644 19.1598 20.0541 18.3596 20.0041C17.4595 19.9541 16.8893 19.434 16.5893 18.6138C16.4693 18.2737 16.4693 18.2737 16.1092 18.2637C15.9892 18.2637 15.8691 18.2637 15.7491 18.2637C15.4791 18.2537 15.429 18.2137 15.429 17.9437C15.429 17.8636 15.429 17.7736 15.429 17.6936C15.419 17.1335 15.419 17.1335 15.9892 17.1235Z" fill="#CC1237"/>
</svg>
