<svg width="40" height="40" viewBox="0 0 40 40" fill="none" xmlns="http://www.w3.org/2000/svg">
<path fill-rule="evenodd" clip-rule="evenodd" d="M19.9709 8.77719C21.0064 7.74094 22.6858 7.74094 23.7215 8.77719L31.2232 16.2819C32.2589 17.3182 32.2589 18.9982 31.2232 20.0343L30.2856 20.9724L30.2858 20.9725L17.1581 34.1058L17.1297 34.0774L16.7062 34.5017L16.6965 34.5105L16.6947 34.5119C16.5582 34.6341 14.9159 35.9701 5.76758 38.8169L5.60709 38.8669C5.42616 38.9231 5.24214 38.9797 5.05548 39.037C4.9254 39.077 4.79294 39.1173 4.65968 39.1578L4.60507 39.1744L4.55445 39.1899C4.43045 39.2276 4.30684 39.2652 4.17981 39.3035C3.86737 39.3978 3.5492 39.4932 3.22088 39.5905L3.18794 39.6002C2.44771 39.8198 0.833403 40.2987 0.272607 39.7365C-0.291885 39.1708 0.159268 37.653 0.387485 36.8853C0.398276 36.849 0.408569 36.8144 0.418233 36.7816C0.515759 36.451 0.611372 36.1308 0.705808 35.8162C0.737021 35.7123 0.767737 35.6108 0.798453 35.5093C0.808704 35.4755 0.818954 35.4416 0.829223 35.4077C0.877912 35.2467 0.926454 35.0867 0.974408 34.93C1.02854 34.7527 1.08223 34.5778 1.13533 34.4057L1.198 34.2037C4.17642 24.5942 5.49559 23.2664 5.49559 23.2664L5.90923 22.8519L5.90585 22.8485L19.0333 9.71525L19.9709 8.77719ZM15.1522 32.8333C15.1687 32.8228 15.1843 32.8127 15.1958 32.8049L15.5265 32.4734L7.51186 24.4553L7.18824 24.7796C7.18045 24.7912 7.1703 24.8068 7.15985 24.8231C7.15426 24.8318 7.14764 24.8424 7.14132 24.8525L7.11572 24.8943L7.09792 24.9237C6.838 25.3595 6.16415 26.6442 5.04062 29.7659C4.90867 30.132 4.76908 30.5305 4.62492 30.948L9.04667 35.3716C9.46134 35.228 9.85718 35.0887 10.2207 34.9572C13.3312 33.8319 14.6128 33.1579 15.0496 32.8966L15.0853 32.875C15.0911 32.8715 15.0967 32.868 15.1022 32.8647C15.1088 32.8606 15.1152 32.8566 15.1212 32.8528C15.1321 32.8461 15.1431 32.8391 15.1522 32.8333Z" fill="#CB2023"/>
<path d="M39.2063 8.4581L31.5418 0.793622C30.4836 -0.264541 28.768 -0.264541 27.7096 0.793622L25.7937 2.70982C24.7354 3.76798 24.7354 5.48374 25.7937 6.5419L33.458 14.2064C34.5161 15.2645 36.232 15.2645 37.2902 14.2064L39.2063 12.2903C40.2646 11.232 40.2646 9.51626 39.2063 8.4581Z" fill="#3D3C3B"/>
</svg>
