<svg xmlns="http://www.w3.org/2000/svg" viewBox="0 0 48 64.241">
  <defs>
    <style>
      .cls-1, .cls-2, .cls-3, .cls-4 {
        fill: #cb2023;
      }

      .cls-2 {
        font-size: 29px;
      }

      .cls-2, .cls-3, .cls-4 {
        font-family: Scada-Bold, Scada;
        font-weight: 700;
      }

      .cls-3 {
        font-size: 19px;
      }

      .cls-4 {
        font-size: 15px;
      }
    </style>
  </defs>
  <g id="people-more" transform="translate(-244 -1869)">
    <g id="user" transform="translate(244 1886.499)">
      <path id="Path_763" data-name="Path 763" class="cls-1" d="M28.966,13.281a8.722,8.722,0,0,1,4.059,6.48,7.037,7.037,0,1,0-4.059-6.48ZM24.354,27.695a7.039,7.039,0,1,0-7.041-7.039A7.04,7.04,0,0,0,24.354,27.695Zm2.986.48H21.367a9.024,9.024,0,0,0-9.014,9.014v7.305l.019.114.5.158A41.029,41.029,0,0,0,25.13,46.742c6.625,0,10.464-1.889,10.7-2.009l.47-.238h.05V37.189A9.022,9.022,0,0,0,27.34,28.175Zm11.647-7.267H33.06a8.676,8.676,0,0,1-2.678,6.043A10.71,10.71,0,0,1,38.032,37.2v2.251a24.256,24.256,0,0,0,9.447-1.985l.47-.238H48V29.92A9.023,9.023,0,0,0,38.987,20.907ZM12,20.428a6.993,6.993,0,0,0,3.744-1.087,8.712,8.712,0,0,1,3.275-5.557c.007-.132.02-.262.02-.4A7.039,7.039,0,1,0,12,20.428Zm6.322,6.522a8.681,8.681,0,0,1-2.676-6.009c-.22-.016-.437-.034-.661-.034H9.014A9.024,9.024,0,0,0,0,29.92v7.306l.019.113.5.159a42.261,42.261,0,0,0,10.151,1.908V37.2A10.713,10.713,0,0,1,18.324,26.95Z"/>
    </g>
    <text id="_" data-name="+" class="cls-2" transform="translate(261 1899)"><tspan x="0" y="0">+</tspan></text>
    <text id="_2" data-name="+" class="cls-3" transform="translate(275 1887)"><tspan x="0" y="0">+</tspan></text>
    <text id="_3" data-name="+" class="cls-4" transform="translate(254 1886)"><tspan x="0" y="0">+</tspan></text>
  </g>
</svg>
