<?xml version="1.0" encoding="UTF-8"?>
<svg width="48px" height="25px" viewBox="0 0 48 25" version="1.1" xmlns="http://www.w3.org/2000/svg" xmlns:xlink="http://www.w3.org/1999/xlink">
    <!-- Generator: Sketch 50.2 (55047) - http://www.bohemiancoding.com/sketch -->
    <title>places</title>
    <desc>Created with Sketch.</desc>
    <defs></defs>
    <g id="Design" stroke="none" stroke-width="1" fill="none" fill-rule="evenodd">
        <g id="Home-8" transform="translate(-585.000000, -1459.000000)" fill-rule="nonzero">
            <g id="places" transform="translate(585.000000, 1459.000000)">
                <path d="M15.94,0 L15.94,24.53 L31.87,24.53 L31.87,0 L15.94,0 Z M25.76,14.27 L24.07,14.27 L24.07,7.73 L22.07,8.35 L22.07,7 L25.6,5.73 L25.78,5.73 L25.76,14.27 Z" id="Shape" fill="#CB2023"></path>
                <path d="M0,8.27 L0,24.53 L15.94,24.53 L15.94,8.27 L0,8.27 Z M11,21.43 L5.13,21.43 L5.13,20.27 L7.89,17.33 C8.20544334,16.9990235 8.48685496,16.6372085 8.73,16.25 C8.8956007,15.9854138 8.98871418,15.6819328 9,15.37 C9.02174682,15.0439822 8.91799385,14.7219902 8.71,14.47 C8.50083445,14.2423026 8.19810525,14.1241644 7.89,14.15 C7.54599878,14.1347372 7.21409723,14.2785613 6.99,14.54 C6.7688877,14.8257916 6.65241529,15.1787383 6.66,15.54 L5,15.54 C4.99293971,15.0419513 5.12079208,14.5512746 5.37,14.12 C5.60536826,13.7013049 5.95130487,13.3553683 6.37,13.12 C6.84525808,12.8723353 7.37410289,12.7452752 7.91,12.75 C8.64889635,12.7030592 9.37905264,12.9310104 9.96,13.39 C10.4623742,13.840733 10.7312402,14.496324 10.69,15.17 C10.6826499,15.6199242 10.5696078,16.0618161 10.36,16.46 C10.0607058,17.02077 9.68736014,17.5387451 9.25,18 L7.31,20.07 L11,20.07 L11,21.43 Z" id="Shape" fill="#3D3C3B"></path>
                <path d="M31.87,8.27 L31.87,24.53 L47.81,24.53 L47.81,8.27 L31.87,8.27 Z M42,20.86 C41.3761322,21.3447383 40.5990606,21.589569 39.81,21.55 C39.0562514,21.5791665 38.3163064,21.3419592 37.72,20.88 C37.1862947,20.4417885 36.8869039,19.7801719 36.91,19.09 L38.6,19.09 C38.5934739,19.3944071 38.7259892,19.6852046 38.96,19.88 C39.2111981,20.0832993 39.526989,20.1897456 39.85,20.18 C40.2132411,20.2161947 40.5752534,20.1003507 40.85,19.86 C41.0776728,19.6411194 41.2013277,19.3356189 41.19,19.02 C41.19,18.17 40.72,17.74 39.78,17.74 L38.89,17.74 L38.89,16.42 L39.79,16.42 C40.1392231,16.4503982 40.4848252,16.3303469 40.74,16.09 C40.9541243,15.8603056 41.0659767,15.5536136 41.05,15.24 C41.0746874,14.9418853 40.9646207,14.6483741 40.75,14.44 C40.5165272,14.234107 40.2106302,14.1297421 39.9,14.15 C39.6032753,14.1397603 39.312594,14.2354724 39.08,14.42 C38.8706396,14.5867846 38.7520728,14.8424443 38.76,15.11 L37,15.11 C36.9931662,14.6824168 37.1189278,14.2632114 37.36,13.91 C37.6125405,13.5483592 37.9580288,13.2616039 38.36,13.08 C38.8088895,12.8763143 39.297098,12.7738929 39.79,12.78 C40.5515498,12.7370785 41.3033855,12.9675941 41.91,13.43 C42.4259691,13.8739185 42.7097793,14.5299993 42.68,15.21 C42.6814605,15.599702 42.5549896,15.9791147 42.32,16.29 C42.0782969,16.6209648 41.7542428,16.882966 41.38,17.05 C42.2585413,17.3103701 42.8477705,18.1344669 42.81,19.05 C42.8410239,19.7474015 42.540716,20.41846 42,20.86 Z" id="Shape" fill="#3D3C3B"></path>
            </g>
        </g>
    </g>
</svg>