<svg width="37" height="37" viewBox="0 0 37 37" fill="none" xmlns="http://www.w3.org/2000/svg">
<g clip-path="url(#clip0)">
<path d="M36.2303 36.3193C37.0213 35.6537 37.2327 34.5103 36.7237 33.6098L31.8293 24.9017C31.3673 24.0795 30.1065 23.5313 28.6813 23.5156C26.9193 25.9824 24.4447 28.7702 20.9756 31.652C20.2865 32.2237 19.4094 32.5448 18.5088 32.5448C17.6083 32.5448 16.7312 32.2315 16.0421 31.652C12.5729 28.7702 10.0983 25.9824 8.33637 23.5156C6.91113 23.5313 5.64251 24.0795 5.18832 24.9017L0.278288 33.6098C-0.230726 34.5103 -0.0271201 35.6537 0.77164 36.3193C1.16319 36.6482 1.65654 36.8283 2.16556 36.8283H9.63632H27.3735H34.8443C35.3454 36.8283 35.8388 36.6482 36.2303 36.3193Z" fill="#CB2023"/>
<path d="M18.5018 7.61084C16.035 7.61084 14.0303 9.61557 14.0303 12.0823C14.0303 12.6697 14.508 13.1552 15.1031 13.1552C15.6904 13.1552 16.176 12.6775 16.176 12.0823C16.176 10.7981 17.2253 9.7487 18.5096 9.7487C19.0969 9.7487 19.5824 9.27101 19.5824 8.67585C19.5746 8.08853 19.0891 7.61084 18.5018 7.61084Z" fill="#CB2023"/>
<path d="M30.2788 11.9493C30.2788 5.30078 24.7736 -0.055611 18.0781 0.179319C12.2127 0.382924 7.33399 4.96405 6.77799 10.806C6.66836 11.9728 6.731 13.1083 6.93461 14.189C6.93461 14.189 6.9581 14.3142 7.01292 14.557C7.19303 15.3714 7.46712 16.1545 7.80385 16.8906C8.98633 19.6941 11.7193 24.3771 17.8432 29.4672C18.2191 29.7804 18.7751 29.7804 19.1509 29.4672C25.2748 24.3771 28.0078 19.702 29.1903 16.8906C29.5348 16.1467 29.8011 15.3714 29.9812 14.557C30.036 14.3142 30.0595 14.189 30.0595 14.189C30.2083 13.4607 30.2788 12.7089 30.2788 11.9493ZM18.501 19.2478C14.5463 19.2478 11.3356 16.0371 11.3356 12.0824C11.3356 8.12777 14.5463 4.91707 18.501 4.91707C22.4556 4.91707 25.6663 8.12777 25.6663 12.0824C25.6663 16.0371 22.4556 19.2478 18.501 19.2478Z" fill="#CB2023"/>
</g>
<defs>
<clipPath id="clip0">
<rect width="37" height="37" fill="white"/>
</clipPath>
</defs>
</svg>
