<svg xmlns="http://www.w3.org/2000/svg" viewBox="0 0 33.234 33.234">
  <defs>
    <style>
      .cls-1 {
        fill: #cb2023;
      }

      .cls-2 {
        fill: #282625;
      }
    </style>
  </defs>
  <g id="progmmatic-3" transform="translate(0.001)">
    <path id="Path_583" data-name="Path 583" class="cls-1" d="M87.709,147.468a72.586,72.586,0,0,0,8.082.3,72.574,72.574,0,0,0,8.083-.3,2.728,2.728,0,0,0,2.334-2.122,23.1,23.1,0,0,0,.377-5.1,23.074,23.074,0,0,0-.373-5.1,2.726,2.726,0,0,0-2.334-2.121,72.522,72.522,0,0,0-8.082-.3,72.555,72.555,0,0,0-8.084.3,2.724,2.724,0,0,0-2.331,2.121,23.11,23.11,0,0,0-.381,5.1,23.081,23.081,0,0,0,.377,5.1A2.725,2.725,0,0,0,87.709,147.468Zm5.3-11.011,6.862,3.58-6.862,3.558Zm0,0" transform="translate(-79.175 -123.626)"/>
    <path id="Path_584" data-name="Path 584" class="cls-2" d="M0,0V33.235H33.234V0ZM31.179,31.179H2.056V2.056H31.179Zm0,0"/>
  </g>
</svg>
