<svg id="youtube" xmlns="http://www.w3.org/2000/svg" width="43.454" height="43.454" viewBox="0 0 43.454 43.454">
  <path id="Path_583" data-name="Path 583" d="M88.542,152a94.908,94.908,0,0,0,10.568.39,94.892,94.892,0,0,0,10.568-.39,3.567,3.567,0,0,0,3.051-2.774,30.2,30.2,0,0,0,.493-6.672,30.169,30.169,0,0,0-.488-6.67,3.565,3.565,0,0,0-3.052-2.774,94.824,94.824,0,0,0-10.567-.391,94.868,94.868,0,0,0-10.57.391,3.562,3.562,0,0,0-3.048,2.774,30.216,30.216,0,0,0-.5,6.671,30.178,30.178,0,0,0,.492,6.671A3.563,3.563,0,0,0,88.542,152Zm6.928-14.4,8.972,4.68-8.972,4.653Zm0,0" transform="translate(-77.384 -120.83)" fill="#b17f80"/>
  <path id="Path_584" data-name="Path 584" d="M0,0V43.454H43.454V0ZM40.766,40.766H2.688V2.688H40.766Zm0,0" fill="#dcffff"/>
</svg>
