<svg xmlns="http://www.w3.org/2000/svg" width="55.021" height="47.827" viewBox="0 0 55.021 47.827">
  <g id="tablet-and-laptop" transform="translate(0 -31.27)">
    <path id="Path_580" data-name="Path 580" d="M58.64,35.2a.289.289,0,0,1,.289-.288H95.524a.289.289,0,0,1,.289.288V60.036a.289.289,0,0,1-.289.288H76.738v3.641H95.524a3.934,3.934,0,0,0,3.93-3.929V35.2a3.934,3.934,0,0,0-3.93-3.929H58.929A3.934,3.934,0,0,0,55,35.2V43.17H58.64Z" transform="translate(-48.672 0)" fill="#edffff"/>
    <path id="Path_581" data-name="Path 581" d="M269.507,328.441H243.98v5.172h23.213a3.742,3.742,0,0,0,3.742-3.743A1.428,1.428,0,0,0,269.507,328.441Z" transform="translate(-215.914 -262.987)" fill="#edffff"/>
    <path id="Path_582" data-name="Path 582" d="M20.162,166.371H4.263A4.268,4.268,0,0,0,0,170.634v23.76a4.268,4.268,0,0,0,4.263,4.263h15.9a4.268,4.268,0,0,0,4.263-4.263v-23.76A4.268,4.268,0,0,0,20.162,166.371ZM3.641,170.634a.623.623,0,0,1,.622-.622h15.9a.623.623,0,0,1,.622.622V192.7H3.641Zm8.571,26.4a1.466,1.466,0,0,1-1.3-.815,1.444,1.444,0,0,1-.176-.664,1.479,1.479,0,1,1,2.958,0,1.442,1.442,0,0,1-.176.664A1.467,1.467,0,0,1,12.212,197.03Z" transform="translate(0 -119.56)" fill="#be7576"/>
  </g>
</svg>
