<svg id="statistics" xmlns="http://www.w3.org/2000/svg" width="43.482" height="43.482" viewBox="0 0 43.482 43.482">
  <path id="Path_585" data-name="Path 585" d="M34.822,20.382a3.8,3.8,0,0,0,2.645-1.075l3.771,1.885a3.743,3.743,0,0,0-.047.463,3.822,3.822,0,0,0,7.643,0,3.775,3.775,0,0,0-.383-1.637L53.567,14.9a3.775,3.775,0,0,0,1.637.383,3.826,3.826,0,0,0,3.822-3.822,3.764,3.764,0,0,0-.191-1.132L63.28,7a3.819,3.819,0,1,0-1.706-3.179,3.764,3.764,0,0,0,.191,1.132L57.32,8.286A3.805,3.805,0,0,0,51.766,13.1L46.65,18.218a3.755,3.755,0,0,0-4.282.691L38.6,17.024a3.743,3.743,0,0,0,.047-.463,3.822,3.822,0,1,0-3.822,3.822Zm0,0" transform="translate(-28.367)" fill="#b17f80"/>
  <path id="Path_586" data-name="Path 586" d="M42.209,178.2H40.85V151.274A1.273,1.273,0,0,0,39.576,150h-5.1a1.273,1.273,0,0,0-1.274,1.274V178.2H30.659V158.917a1.273,1.273,0,0,0-1.274-1.274h-5.1a1.273,1.273,0,0,0-1.274,1.274V178.2H20.467v-9.087a1.273,1.273,0,0,0-1.274-1.274H14.1a1.273,1.273,0,0,0-1.274,1.274V178.2H10.276V164.013A1.273,1.273,0,0,0,9,162.739h-5.1a1.273,1.273,0,0,0-1.274,1.274V178.2H1.274a1.274,1.274,0,0,0,0,2.548H42.209a1.274,1.274,0,0,0,0-2.548Zm0,0" transform="translate(0 -137.261)" fill="#fff"/>
</svg>
