<svg xmlns="http://www.w3.org/2000/svg" width="46.293" height="43.157" viewBox="0 0 46.293 43.157">
  <g id="networking" transform="translate(0 -16.6)">
    <g id="Group_209" data-name="Group 209" transform="translate(0 16.6)">
      <path id="Path_594" data-name="Path 594" d="M165.031,38.379a1.6,1.6,0,0,1-1.6,1.6H148a1.6,1.6,0,0,1-1.6-1.6V27.3a1.6,1.6,0,0,1,1.6-1.6h15.437a1.6,1.6,0,0,1,1.6,1.6Z" transform="translate(-132.569 -24.84)" fill="#edffff"/>
      <path id="Path_595" data-name="Path 595" d="M155.194,32.595a2.464,2.464,0,0,0,2.456-2.456V19.056a2.464,2.464,0,0,0-2.456-2.456H139.756a2.464,2.464,0,0,0-2.456,2.456V30.138a2.464,2.464,0,0,0,2.456,2.456h6.859v2.286h-2.248a.86.86,0,1,0,0,1.719h6.207a.86.86,0,0,0,0-1.719h-2.249V32.595ZM139.01,30.138V19.056a.748.748,0,0,1,.746-.746h15.437a.748.748,0,0,1,.746.746V30.138a.748.748,0,0,1-.746.746H139.756A.748.748,0,0,1,139.01,30.138Z" transform="translate(-124.329 -16.6)" fill="#be7576"/>
      <path id="Path_596" data-name="Path 596" d="M27.731,283.579a1.6,1.6,0,0,1-1.6,1.6H10.7a1.6,1.6,0,0,1-1.6-1.6V272.5a1.6,1.6,0,0,1,1.6-1.6H26.134a1.6,1.6,0,0,1,1.6,1.6v11.082Z" transform="translate(-8.24 -246.875)" fill="#edffff"/>
      <path id="Path_597" data-name="Path 597" d="M302.431,283.579a1.6,1.6,0,0,1-1.6,1.6H285.4a1.6,1.6,0,0,1-1.6-1.6V272.5a1.6,1.6,0,0,1,1.6-1.6h15.428a1.6,1.6,0,0,1,1.6,1.6v11.082Z" transform="translate(-256.988 -246.875)" fill="#edffff"/>
      <path id="Path_598" data-name="Path 598" d="M17.884,261.7H2.456A2.464,2.464,0,0,0,0,264.156v11.082a2.464,2.464,0,0,0,2.456,2.456H9.315v2.286H7.067a.86.86,0,0,0,0,1.719h6.207a.86.86,0,1,0,0-1.719H11.025v-2.286h6.859a2.464,2.464,0,0,0,2.456-2.456V264.166A2.46,2.46,0,0,0,17.884,261.7Zm.746,13.548a.748.748,0,0,1-.746.746H2.456a.748.748,0,0,1-.746-.746V264.166a.748.748,0,0,1,.746-.746H17.894a.748.748,0,0,1,.746.746v11.082Z" transform="translate(0 -238.544)" fill="#be7576"/>
      <path id="Path_599" data-name="Path 599" d="M292.584,261.7H277.156a2.464,2.464,0,0,0-2.456,2.456v11.082a2.464,2.464,0,0,0,2.456,2.456h6.859v2.286h-2.249a.86.86,0,1,0,0,1.719h6.207a.86.86,0,1,0,0-1.719h-2.249v-2.286h6.859a2.464,2.464,0,0,0,2.456-2.456V264.166A2.453,2.453,0,0,0,292.584,261.7Zm.746,13.548a.748.748,0,0,1-.746.746H277.156a.748.748,0,0,1-.746-.746V264.166a.748.748,0,0,1,.746-.746h15.428a.748.748,0,0,1,.746.746Z" transform="translate(-248.748 -238.544)" fill="#be7576"/>
      <path id="Path_600" data-name="Path 600" d="M28.56,90.741a.863.863,0,0,0,.86-.86V78.119h5.139a.86.86,0,1,0,0-1.719h-6a.863.863,0,0,0-.86.86V89.891A.855.855,0,0,0,28.56,90.741Z" transform="translate(-25.083 -70.75)" fill="#edffff"/>
      <path id="Path_601" data-name="Path 601" d="M387.459,90.741a.863.863,0,0,0,.86-.86V77.26a.863.863,0,0,0-.86-.86h-6a.86.86,0,0,0,0,1.719H386.6V89.891A.861.861,0,0,0,387.459,90.741Z" transform="translate(-344.643 -70.75)" fill="#edffff"/>
    </g>
  </g>
</svg>
