<svg xmlns="http://www.w3.org/2000/svg" viewBox="0 0 41.727 36.271">
  <defs>
    <style>
      .cls-1 {
        fill: #cb2023;
      }

      .cls-2 {
        fill: #282625;
      }
    </style>
  </defs>
  <g id="progmmatic-2" transform="translate(0.001)">
    <path id="Path_580" data-name="Path 580" class="cls-1" d="M57.76,34.25a.219.219,0,0,1,.219-.219H85.732a.219.219,0,0,1,.219.219V53.085a.219.219,0,0,1-.219.219H71.485v2.761H85.732a2.983,2.983,0,0,0,2.98-2.98V34.25a2.983,2.983,0,0,0-2.98-2.98H57.979A2.983,2.983,0,0,0,55,34.25v6.045H57.76Z" transform="translate(-50.201 -31.27)"/>
    <path id="Path_581" data-name="Path 581" class="cls-1" d="M263.339,328.441H243.98v3.922h17.6a2.838,2.838,0,0,0,2.838-2.839A1.083,1.083,0,0,0,263.339,328.441Z" transform="translate(-222.696 -302.516)"/>
    <path id="Path_582" data-name="Path 582" class="cls-2" d="M15.29,166.371H3.233A3.237,3.237,0,0,0,0,169.6v18.019a3.237,3.237,0,0,0,3.233,3.233H15.29a3.237,3.237,0,0,0,3.233-3.233V169.6A3.237,3.237,0,0,0,15.29,166.371ZM2.761,169.6a.473.473,0,0,1,.472-.472H15.29a.473.473,0,0,1,.472.472v16.734h-13Zm6.5,20.018A1.112,1.112,0,0,1,8.273,189a1.1,1.1,0,0,1-.133-.5,1.122,1.122,0,1,1,2.243,0,1.093,1.093,0,0,1-.133.5A1.112,1.112,0,0,1,9.261,189.622Z" transform="translate(0 -154.585)"/>
  </g>
</svg>
