<svg id="seo" xmlns="http://www.w3.org/2000/svg" width="61.722" height="62.475" viewBox="0 0 61.722 62.475">
  <path id="Path_536" data-name="Path 536" d="M0,232.918H5.321V239.3H0Zm0,0" transform="translate(0 -204.497)" fill="#cb2023"/>
  <path id="Path_537" data-name="Path 537" d="M104.656,311.41h5.321v4.266a2.12,2.12,0,0,1-2.12,2.12h-3.2Zm0,0" transform="translate(-91.886 -273.412)" fill="#cb2023"/>
  <path id="Path_538" data-name="Path 538" d="M169.156,163.226l19.8-8.8v25.541l-19.8-8.8Zm0,0" transform="translate(-148.516 -135.583)" fill="#cb2023"/>
  <path id="Path_539" data-name="Path 539" d="M61.047,311.41h6.385v11.706H61.047Zm0,0" transform="translate(-53.598 -273.412)" fill="#cb2023"/>
  <path id="Path_540" data-name="Path 540" d="M383.529,6.164l-8.513,8.514v7.449h7.449l8.513-8.513ZM379.8,18.934a1.6,1.6,0,1,1,1.6-1.6A1.6,1.6,0,0,1,379.8,18.934Zm0,0" transform="translate(-329.256 -5.412)" fill="#cb2023"/>
  <path id="Path_541" data-name="Path 541" d="M37.94,198.035H48.854a3.056,3.056,0,0,1,3.056,3.056v8.786a3.056,3.056,0,0,1-3.056,3.056H37.94a3.057,3.057,0,0,1-3.057-3.056v-8.786A3.057,3.057,0,0,1,37.94,198.035Zm0,0" transform="translate(-30.626 -173.871)" fill="#cb2023"/>
  <path id="Path_542" data-name="Path 542" d="M365.349,346.547l-7.525,7.525,10.535,10.535,7.525-7.525Zm.671,10.844a1.064,1.064,0,0,1-.979-.98l-.511-6.636,2.122-.163.44,5.728,5.846.449-.163,2.122Zm0,0" transform="translate(-314.162 -304.261)" fill="#cb2023"/>
  <path id="Path_543" data-name="Path 543" d="M433.728,183.782a3.192,3.192,0,1,1-3.193-3.193A3.192,3.192,0,0,1,433.728,183.782Zm0,0" transform="translate(-375.199 -158.554)" fill="#cb2023"/>
  <path id="Path_544" data-name="Path 544" d="M421.834,241.641h2.089a3.213,3.213,0,0,1,3.212,3.213v5.3h-8.513v-5.3A3.213,3.213,0,0,1,421.834,241.641Zm0,0" transform="translate(-367.54 -212.155)" fill="#cb2023"/>
  <path id="Path_545" data-name="Path 545" d="M379.272,200.163a2.128,2.128,0,1,1-2.128-2.128A2.128,2.128,0,0,1,379.272,200.163Zm0,0" transform="translate(-329.256 -173.871)" fill="#cb2023"/>
  <path id="Path_546" data-name="Path 546" d="M369.486,241.641a3.193,3.193,0,0,1,3.193,3.193v3.193h-6.385v-3.193A3.193,3.193,0,0,1,369.486,241.641Zm0,0" transform="translate(-321.598 -212.155)" fill="#cb2023"/>
  <path id="Path_547" data-name="Path 547" d="M185.188,1.5l-1.5-1.5-6.5,6.5a7.478,7.478,0,1,0,1.507,1.507ZM172.73,17.779a5.321,5.321,0,1,1,5.321-5.321A5.321,5.321,0,0,1,172.73,17.779Zm0,0" transform="translate(-145.061)" fill="#cb2023"/>
  <path id="Path_548" data-name="Path 548" d="M158.9,363.738h-4.256l-6.385,6.385,11.706,11.706,8.513-8.513Zm-5.009,7.761,4.257-4.257,1.5,1.5L155.4,373Zm4.7,4.7-1.5-1.5,4.257-4.257,1.5,1.5Zm0,0" transform="translate(-130.171 -319.355)" fill="#cb2023"/>
</svg>
