<svg xmlns="http://www.w3.org/2000/svg" viewBox="0 0 35.701 33.281">
  <defs>
    <style>
      .cls-1 {
        fill: #cb2023;
      }

      .cls-2 {
        fill: #282625;
      }
    </style>
  </defs>
  <g id="progmmatic-4" transform="translate(-0.001)">
    <g id="Group_209" data-name="Group 209" transform="translate(0 0)">
      <path id="Path_594" data-name="Path 594" class="cls-1" d="M160.767,35.477a1.23,1.23,0,0,1-1.231,1.231h-11.9a1.23,1.23,0,0,1-1.231-1.231V26.931a1.23,1.23,0,0,1,1.231-1.231h11.9a1.23,1.23,0,0,1,1.231,1.231Z" transform="translate(-135.734 -25.037)"/>
      <path id="Path_595" data-name="Path 595" class="cls-2" d="M151.1,28.935a1.9,1.9,0,0,0,1.894-1.894V18.494A1.9,1.9,0,0,0,151.1,16.6h-11.9a1.9,1.9,0,0,0-1.894,1.894V27.04a1.9,1.9,0,0,0,1.894,1.894h5.289V30.7H142.75a.663.663,0,1,0,0,1.326h4.787a.663.663,0,0,0,0-1.326H145.8V28.935Zm-12.48-1.894V18.494a.577.577,0,0,1,.576-.576h11.9a.577.577,0,0,1,.576.576V27.04a.577.577,0,0,1-.576.576h-11.9A.577.577,0,0,1,138.619,27.04Z" transform="translate(-127.297 -16.6)"/>
      <path id="Path_596" data-name="Path 596" class="cls-1" d="M23.467,280.677a1.23,1.23,0,0,1-1.231,1.231h-11.9A1.23,1.23,0,0,1,9.1,280.677v-8.546a1.23,1.23,0,0,1,1.231-1.231h11.9a1.23,1.23,0,0,1,1.231,1.231v8.546Z" transform="translate(-8.437 -252.372)"/>
      <path id="Path_597" data-name="Path 597" class="cls-1" d="M298.167,280.677a1.23,1.23,0,0,1-1.231,1.231h-11.9a1.23,1.23,0,0,1-1.231-1.231v-8.546a1.23,1.23,0,0,1,1.231-1.231h11.9a1.23,1.23,0,0,1,1.231,1.231v8.546Z" transform="translate(-263.123 -252.372)"/>
      <path id="Path_598" data-name="Path 598" class="cls-2" d="M13.792,261.7H1.894A1.9,1.9,0,0,0,0,263.594v8.546a1.9,1.9,0,0,0,1.894,1.894H7.184V275.8H5.45a.663.663,0,0,0,0,1.326h4.787a.663.663,0,0,0,0-1.326H8.5v-1.763h5.289a1.9,1.9,0,0,0,1.894-1.894V263.6A1.9,1.9,0,0,0,13.792,261.7Zm.576,10.448a.577.577,0,0,1-.576.576H1.894a.577.577,0,0,1-.576-.576V263.6a.577.577,0,0,1,.576-.576H13.8a.577.577,0,0,1,.576.576v8.546Z" transform="translate(0 -243.843)"/>
      <path id="Path_599" data-name="Path 599" class="cls-2" d="M288.492,261.7h-11.9a1.9,1.9,0,0,0-1.894,1.894v8.546a1.9,1.9,0,0,0,1.894,1.894h5.289V275.8H280.15a.663.663,0,0,0,0,1.326h4.787a.663.663,0,0,0,0-1.326H283.2v-1.763h5.289a1.9,1.9,0,0,0,1.894-1.894V263.6A1.892,1.892,0,0,0,288.492,261.7Zm.576,10.448a.577.577,0,0,1-.576.576h-11.9a.577.577,0,0,1-.576-.576V263.6a.577.577,0,0,1,.576-.576h11.9a.577.577,0,0,1,.576.576Z" transform="translate(-254.686 -243.843)"/>
      <path id="Path_600" data-name="Path 600" class="cls-1" d="M28.363,87.46a.665.665,0,0,0,.663-.663V77.726h3.963a.663.663,0,0,0,0-1.326H28.363a.665.665,0,0,0-.663.663V86.8A.659.659,0,0,0,28.363,87.46Z" transform="translate(-25.682 -72.043)"/>
      <path id="Path_601" data-name="Path 601" class="cls-1" d="M385.889,87.46a.665.665,0,0,0,.663-.663V77.063a.665.665,0,0,0-.663-.663h-4.626a.663.663,0,0,0,0,1.326h3.963V86.8A.664.664,0,0,0,385.889,87.46Z" transform="translate(-352.871 -72.043)"/>
    </g>
  </g>
</svg>
