<svg xmlns="http://www.w3.org/2000/svg" width="57.586" height="55.371" viewBox="0 0 57.586 55.371">
  <g id="campaign" transform="translate(0 -0.5)">
    <path id="Path_551" data-name="Path 551" d="M246.4,182.035l6.911,4.607,6.911-4.607H246.4Zm0,0" transform="translate(-216.838 -159.756)" fill="#cb2023"/>
    <path id="Path_552" data-name="Path 552" d="M240,197.234v7.774a.907.907,0,0,0,.96.96H254.4a.907.907,0,0,0,.96-.96v-7.774l-7.678,5.087Zm0,0" transform="translate(-211.207 -173.132)" fill="#cb2023"/>
    <path id="Path_553" data-name="Path 553" d="M40.96,121.552H56.316a.907.907,0,0,0,.96-.96v-9.6a.907.907,0,0,0-.96-.96H40.96a.907.907,0,0,0-.96.96v9.6A.907.907,0,0,0,40.96,121.552Zm6.718-8.638,2.879,2.879-2.879,2.879Zm0,0" transform="translate(-35.201 -96.394)" fill="#cb2023"/>
    <path id="Path_554" data-name="Path 554" d="M424,318.035h1.92v17.276H424Zm0,0" transform="translate(-373.132 -279.44)" fill="#cb2023"/>
    <path id="Path_555" data-name="Path 555" d="M456,318.035h1.92v17.276H456Zm0,0" transform="translate(-401.293 -279.44)" fill="#cb2023"/>
    <path id="Path_556" data-name="Path 556" d="M6.718,239.955H24.954v-1.92H6.718A6.677,6.677,0,0,0,0,244.754v8.638a6.677,6.677,0,0,0,6.718,6.718v-1.92a4.752,4.752,0,0,1-4.8-4.8v-8.638A4.752,4.752,0,0,1,6.718,239.955Zm0,0" transform="translate(0 -209.038)" fill="#cb2023"/>
    <path id="Path_557" data-name="Path 557" d="M403.839,62.035h-1.92v1.92h1.92a3.85,3.85,0,0,1,3.839,3.839V79.311a3.85,3.85,0,0,1-3.839,3.839H400v1.92h3.839a5.776,5.776,0,0,0,5.759-5.759V67.794A5.776,5.776,0,0,0,403.839,62.035Zm0,0" transform="translate(-352.011 -54.153)" fill="#cb2023"/>
    <path id="Path_558" data-name="Path 558" d="M130.461,1.857,131.819.5l2.85,2.85-1.357,1.357Zm0,0" transform="translate(-114.809)" fill="#cb2023"/>
    <path id="Path_559" data-name="Path 559" d="M128,62.035h3.839v1.92H128Zm0,0" transform="translate(-112.644 -54.153)" fill="#cb2023"/>
    <path id="Path_560" data-name="Path 560" d="M122.879,359.633h19.2a2.828,2.828,0,0,1,2.879-2.879v-3.839a2.828,2.828,0,0,1-2.879-2.879h-19.2A2.828,2.828,0,0,1,120,352.914v3.839A2.828,2.828,0,0,1,122.879,359.633Zm14.4-5.759h2.879v1.92h-2.879Zm-4.8-1.92a2.879,2.879,0,1,1-2.879,2.879A2.828,2.828,0,0,1,132.477,351.955Zm-7.678,1.92h2.879v1.92H124.8Zm0,0" transform="translate(-105.603 -307.601)" fill="#cb2023"/>
    <path id="Path_561" data-name="Path 561" d="M217.92,382.995a.96.96,0,1,1-.96-.96A.96.96,0,0,1,217.92,382.995Zm0,0" transform="translate(-190.086 -335.762)" fill="#cb2023"/>
    <path id="Path_562" data-name="Path 562" d="M88,335.311h32.632V318.035H88Zm1.92-12.477h1.92a.907.907,0,0,0,.96-.96v-1.92h23.035v1.92a.907.907,0,0,0,.96.96h1.92v7.678h-1.92a.907.907,0,0,0-.96.96v1.92H92.8v-1.92a.907.907,0,0,0-.96-.96H89.92Zm0,0" transform="translate(-77.443 -279.44)" fill="#cb2023"/>
    <path id="Path_563" data-name="Path 563" d="M392,318.035h1.92v17.276H392Zm0,0" transform="translate(-344.971 -279.44)" fill="#cb2023"/>
    <path id="Path_564" data-name="Path 564" d="M354.879,46.035H352v5.759h2.879a.907.907,0,0,0,.96-.96V46.995A.907.907,0,0,0,354.879,46.035Zm0,0" transform="translate(-309.77 -40.072)" fill="#cb2023"/>
    <path id="Path_565" data-name="Path 565" d="M352,114.834a.96.96,0,1,0,1.92,0v-4.8H352Zm0,0" transform="translate(-309.77 -96.394)" fill="#cb2023"/>
    <path id="Path_566" data-name="Path 566" d="M237.437,24.722,224,22.035V33.552l13.437-2.687Zm0,0" transform="translate(-197.126 -18.952)" fill="#cb2023"/>
    <path id="Path_567" data-name="Path 567" d="M193.152,29.807l.768-.192V17.427l-.768-.192h-.192a.907.907,0,0,0-.96.96V28.848a.907.907,0,0,0,.96.96C193.056,29.9,193.056,29.9,193.152,29.807Zm0,0" transform="translate(-168.965 -14.727)" fill="#cb2023"/>
  </g>
</svg>
