<svg xmlns="http://www.w3.org/2000/svg" viewBox="0 0 37.768 37.769">
  <defs>
    <style>
      .cls-1 {
        fill: #cb2023;
      }

      .cls-2 {
        fill: #282625;
      }
    </style>
  </defs>
  <g id="progmmatic-1" transform="translate(0)">
    <g id="Group_208" data-name="Group 208" transform="translate(0 0)">
      <g id="Group_207" data-name="Group 207">
        <path id="Path_576" data-name="Path 576" class="cls-1" d="M173.871,170.669h-2.564a.641.641,0,0,0-.641.641V179a.641.641,0,0,0,.641.641h2.564a.641.641,0,0,0,.641-.641V171.31A.641.641,0,0,0,173.871,170.669Z" transform="translate(-157.493 -157.629)"/>
        <path id="Path_577" data-name="Path 577" class="cls-1" d="M88.538,234.669H85.974a.641.641,0,0,0-.641.641v3.846a.641.641,0,0,0,.641.641h2.564a.641.641,0,0,0,.641-.641V235.31A.641.641,0,0,0,88.538,234.669Z" transform="translate(-77.288 -217.783)"/>
        <path id="Path_578" data-name="Path 578" class="cls-1" d="M259.2,106.669H256.64a.641.641,0,0,0-.641.641v11.539a.641.641,0,0,0,.641.641H259.2a.641.641,0,0,0,.641-.641V107.31A.641.641,0,0,0,259.2,106.669Z" transform="translate(-237.698 -97.475)"/>
        <path id="Path_579" data-name="Path 579" class="cls-2" d="M37.307,35.085l-9.393-9.393a15.762,15.762,0,1,0-2.225,2.225l9.393,9.393a1.573,1.573,0,1,0,2.225-2.225Zm-21.57-6.756A12.589,12.589,0,1,1,28.326,15.74,12.6,12.6,0,0,1,15.737,28.329Z" transform="translate(0 -0.003)"/>
      </g>
    </g>
  </g>
</svg>
