<svg xmlns="http://www.w3.org/2000/svg" viewBox="0 0 71.043 71.043">
  <defs>
    <style>
      .cls-1 {
        fill: #cb2023;
      }

      .cls-2 {
        fill: #fff;
      }
    </style>
  </defs>
  <g id="internet" transform="translate(0 -0.001)">
    <g id="Group_72" data-name="Group 72" transform="translate(0 0.001)">
      <g id="Group_71" data-name="Group 71" transform="translate(0 0)">
        <path id="Path_81" data-name="Path 81" class="cls-1" d="M35.521,0A35.521,35.521,0,1,0,56.566,64.139a1.242,1.242,0,0,1-.845-.411l-5.818-6.5L46.77,62.035l-2.587-13.07L57.488,53.1l-5.727,2.461,5.818,6.5a1.238,1.238,0,0,1,.291,1.066A35.52,35.52,0,0,0,35.521,0Z" transform="translate(0 -0.001)"/>
        <g id="Group_70" data-name="Group 70" transform="translate(8.826 29.688)">
          <path id="Path_82" data-name="Path 82" class="cls-2" d="M65.548,213.889l.326,1.81.036.012.4-1.822,2.63-8.349h1.81l2.63,8.349.422,1.979h.036l.41-1.979,2.112-8.349h2.22L74.79,218.6H72.98L70.4,210.547l-.567-2.329H69.8l-.543,2.329L66.719,218.6H64.9L61.108,205.54H63.34Z" transform="translate(-61.108 -205.54)"/>
          <path id="Path_83" data-name="Path 83" class="cls-2" d="M195.026,213.889l.326,1.81.036.012.4-1.822,2.63-8.349h1.81l2.63,8.349.422,1.979h.036l.41-1.979,2.112-8.349h2.22L204.269,218.6h-1.81l-2.582-8.048-.567-2.329h-.036l-.543,2.329L196.2,218.6h-1.822l-3.789-13.055h2.232Z" transform="translate(-171.884 -205.54)"/>
          <path id="Path_84" data-name="Path 84" class="cls-2" d="M324.509,213.889l.326,1.81.036.012.4-1.822,2.63-8.349h1.81l2.63,8.349.422,1.979h.036l.41-1.979,2.112-8.349h2.22L333.751,218.6h-1.81l-2.582-8.048-.567-2.329h-.036l-.543,2.329-2.534,8.048h-1.822l-3.789-13.055H322.3Z" transform="translate(-282.665 -205.54)"/>
        </g>
      </g>
    </g>
  </g>
</svg>
