<svg xmlns="http://www.w3.org/2000/svg" viewBox="0 0 162.594 49.532">
  <defs>
    <style>
      .cls-1 {
        fill: #fff;
      }

      .cls-2 {
        fill: #e6162d;
      }

      .cls-3 {
        fill: #f93;
      }
    </style>
  </defs>
  <g id="Asset_2" data-name="Asset 2" transform="translate(0 0.011)">
    <g id="Layer_1" data-name="Layer 1" transform="translate(0 -0.011)">
      <path id="Path_103" data-name="Path 103" class="cls-1" d="M9.91,59.537c0,7.12,9.266,12.892,20.707,12.892s20.7-5.772,20.7-12.892-9.266-12.9-20.7-12.9S9.91,52.417,9.91,59.537" transform="translate(-5.413 -25.47)"/>
      <path id="Path_104" data-name="Path 104" class="cls-2" d="M25.685,54.319c-10.12.994-18.86-3.576-19.513-10.224s7.02-12.842,17.14-13.841,18.86,3.571,19.513,10.215-7.02,12.87-17.14,13.85M45.928,32.255c-.862-.245-1.457-.431-1-1.561.976-2.46,1.075-4.579,0-6.09-1.988-2.836-7.415-2.682-13.641-.077,0,0-1.956.858-1.457-.694.958-3.077.817-5.654-.676-7.143-3.376-3.381-12.357.127-20.058,7.823C3.349,30.281,0,36.4,0,41.681,0,51.791,12.965,57.94,25.648,57.94c16.631,0,27.681-9.661,27.681-17.33,0-4.633-3.9-7.261-7.41-8.354" transform="translate(0 -8.408)"/>
      <path id="Path_105" data-name="Path 105" class="cls-3" d="M104.767,5.335A16.182,16.182,0,0,0,89.361.348h0a2.341,2.341,0,1,0,.98,4.579,11.508,11.508,0,0,1,13.355,14.8h0a2.342,2.342,0,1,0,4.456,1.443h0a16.164,16.164,0,0,0-3.385-15.828" transform="translate(-47.798 0.011)"/>
      <path id="Path_106" data-name="Path 106" class="cls-3" d="M100.971,20.872a7.878,7.878,0,0,0-7.5-2.423,2.015,2.015,0,1,0,.84,3.939h0a3.848,3.848,0,0,1,4.474,4.955h0a2.015,2.015,0,1,0,3.812,1.243,7.878,7.878,0,0,0-1.625-7.714" transform="translate(-50.147 -9.976)"/>
      <path id="Path_107" data-name="Path 107" d="M42.5,65.909a1.461,1.461,0,0,1-1.738.644,1.021,1.021,0,0,1-.454-1.52,1.443,1.443,0,0,1,1.706-.64,1.021,1.021,0,0,1,.495,1.516m-3.226,4.143a3.835,3.835,0,0,1-4.656,1.525,2.668,2.668,0,0,1-1.044-4.048A3.848,3.848,0,0,1,38.121,66a2.7,2.7,0,0,1,1.13,4.057M42.953,59A11.016,11.016,0,0,0,30.6,64.389c-2.133,4.329-.073,9.13,4.792,10.7,5.042,1.625,10.982-.849,13.051-5.541,2.038-4.565-.508-9.266-5.491-10.555" transform="translate(-16.257 -32.038)"/>
      <path id="Path_108" data-name="Path 108" d="M165.768,25.929a46.392,46.392,0,0,0,8.826-.908l.141,1.7q-4.6.567-7.773.74l-1.361,5.06h8.227l-.413,1.461H170.2l-3.049,11.381h-1.665l3.049-11.381h-3.326l-.286,1.066a20.2,20.2,0,0,1-6.067,10.383c-.241-.454-.513-.908-.821-1.389a17,17,0,0,0,5.328-9.076l2.428-9.076Zm-7.052,12.225c.545,1.1,1,2.115,1.384,3.045l-1.7.953A25.14,25.14,0,0,0,157.151,39ZM153.7,26.578h4.86c-.163-.59-.358-1.239-.585-1.933L159.587,24c.263.74.5,1.484.7,2.237l-.844.345h4.778l-.377,1.389H153.325Zm-2.065,5.042h3.63a22.008,22.008,0,0,0-1.125-2.519l1.439-.826c.34.581.753,1.4,1.252,2.455l-1.507.908h2.963q1.688-1.7,3.177-3.367l1.361.867c-.971.908-1.883,1.738-2.75,2.5h3.408l-.372,1.389H151.256l.377-1.389Zm-.454,4.084h4.588l.554-2.065h1.625l-.554,2.065H161.8l-.372,1.389h-4.406L155.5,42.76a2.763,2.763,0,0,1-2.913,2.305c-.64,0-1.361,0-2.174-.023.068-.481.132-1.03.2-1.652a19.637,19.637,0,0,0,2.015.132,1.311,1.311,0,0,0,1.361-1.107l1.425-5.323H150.8Zm1.089,2.364,1.361.7q-1.87,2.45-3.594,4.429a12.077,12.077,0,0,0-1.275-.781,48.891,48.891,0,0,0,3.508-4.347" transform="translate(-81.254 -13.104)"/>
      <path id="Path_109" data-name="Path 109" d="M221.827,28.03h-9.716l-.708,2.646h9.716Zm-1.815,6.707.717-2.668h-9.7l-.717,2.668Zm1.466,2.174.74,1.361q-2.387,1.28-5.445,2.65a9.436,9.436,0,0,0,4.9,2.346,21.4,21.4,0,0,0-1.706,1.67q-6.426-1.865-7.324-8.754h-2.723l-1.847,6.889q2.941-.953,5.3-1.883a14.921,14.921,0,0,0-.454,1.847q-2.723.871-5.445,1.933c-.286.118-.717.318-1.289.608l-.626-1.52a1.883,1.883,0,0,0,.908-1.28L210.8,26.6h5.686c-.141-.694-.313-1.393-.522-2.087L217.7,23.9q.381,1.28.653,2.7h5.577L221.21,36.783H219.5l.168-.613H214.4a9.647,9.647,0,0,0,1.488,3.676,61.474,61.474,0,0,0,5.623-2.936M206.289,24.4q1.361,1.3,3.018,3.177c-.644.508-1.207.953-1.684,1.361q-1.815-2.269-2.8-3.322Zm-2.36,5.627q1.361,1.153,3.177,2.954c-.717.608-1.28,1.08-1.679,1.411q-1.956-2.192-2.945-3.108Zm.513,6.385c.531.263,1.062.508,1.6.74l-4.715,8.291-1.779-.649q2.342-3.63,4.892-8.363" transform="translate(-108.996 -13.049)"/>
      <path id="Path_110" data-name="Path 110" d="M275.089,30.02h-2.7l-.122.2a21.912,21.912,0,0,0-.8,7.8,42.928,42.928,0,0,0,3.63-8M273.7,24.37l1.457.263q-.908,2.01-1.865,3.821h4.846l-.427,1.566h-1.089a36.927,36.927,0,0,1-4.81,9.847,9.394,9.394,0,0,0,2.269,4.139q-.722.844-1.393,1.67a11.87,11.87,0,0,1-2.156-4.229,32.637,32.637,0,0,1-4.62,4.384,11.632,11.632,0,0,0-.74-1.361A26.929,26.929,0,0,0,270.2,39.8a19.886,19.886,0,0,1,.245-6.78c-.395.558-.79,1.1-1.2,1.62a6.216,6.216,0,0,0-.776-1.13,36.759,36.759,0,0,0,5.2-9.144m-12.615,7.3,1.429-5.318h1.434l-1.03,3.844h1.847l1.5-5.536h1.5l-1.493,5.536h1.842l1.035-3.866h1.443l-1.62,6.045h-1.438l.182-.7ZM260.98,33.6h7.152l-.408,1.52H260.59L261,33.6Zm3.408,4.992h-2.972l-.263,1a8.794,8.794,0,0,1-3.766,5.563,10.13,10.13,0,0,0-.635-1.393,6.537,6.537,0,0,0,2.941-4.343l.617-2.3h5.981l-1.012,3.776q1.266-.862,2.9-2.038c-.032.635-.055,1.193-.064,1.67q-1.493.962-3.44,2.346c-.408.3-.79.594-1.13.867l-.758-1.384a2.831,2.831,0,0,0,1.026-1.561l.59-2.2Zm-9.03-8.445a31.144,31.144,0,0,0,5.768-5.668l1.193.762a38.618,38.618,0,0,1-6.875,6.6c0-.567-.041-1.13-.086-1.7M253.37,37.14a39.542,39.542,0,0,0,6.126-6.752l1.307.672q-1.284,1.693-2.582,3.177l-3.054,11.4h-1.511l2.446-9.121q-1.293,1.293-2.591,2.364c-.027-.576-.068-1.157-.122-1.738" transform="translate(-138.393 -13.306)"/>
      <path id="Path_111" data-name="Path 111" d="M326.032,26.8a28.072,28.072,0,0,0-2.464-1.361l.994-1.107c.971.454,1.815.871,2.5,1.262Zm-1.42,4.216h-4.193l-.39,1.452h4.2Zm-5.336,4.234h4.2l.395-1.479h-4.2Zm-5.037-2.782H318.4l.39-1.452h-4.161Zm-.744,2.782h4.161l.395-1.479h-4.161Zm-2.373,6.426,1.3-1.085a26.843,26.843,0,0,1,2.487,2.133l-1.389,1.148a25.74,25.74,0,0,0-2.4-2.2m11.685-3.93.322-1.193h-4.207l-.368,1.389h-1.625l.377-1.389h-4.148l-.454,1.629h-1.62l2.269-8.513h5.781l.381-1.439h-6.861l.372-1.389h6.88l.676-2.519h1.62l-.676,2.519h7.2l-.377,1.389h-7.193l-.386,1.439h5.822l-2.16,8.077ZM309.16,39.1H320.7l.336-1.262h1.656l-.34,1.262h3.63l-.372,1.389h-3.63l-.649,2.487a3.116,3.116,0,0,1-3.358,2.455c-.853,0-1.906,0-3.176-.045q.1-.694.163-1.606,1.774.15,3.177.15a1.452,1.452,0,0,0,1.579-1.153l.613-2.269h-11.54l.377-1.389Zm-3.177-8.622h2.269l1.638-6.126h1.665l-1.643,6.126h2.16l-.417,1.566h-2.174L305.815,45.73H304.15l3.667-13.682h-2.269l.418-1.566Z" transform="translate(-166.129 -13.279)"/>
      <path id="Path_112" data-name="Path 112" d="M157.184,84.89l-5.341,9.044h-1.28l-.454-6.716-3.88,6.716h-1.293l-.626-9.044h1.584l.4,6.743,3.916-6.743h1.153l.454,6.771L155.9,84.89Z" transform="translate(-78.823 -46.363)"/>
      <path id="Path_113" data-name="Path 113" d="M179.973,88.21a3.44,3.44,0,0,0,.082-1.361,1.67,1.67,0,0,0-.617-1.007,2.133,2.133,0,0,0-1.384-.417,3.63,3.63,0,0,0-2.2.753A4.129,4.129,0,0,0,174.4,88.2Zm-.663,2.75,1.393.268a5.446,5.446,0,0,1-2.078,1.92,5.963,5.963,0,0,1-2.945.762,3.442,3.442,0,0,1-3.013-1.307,3.883,3.883,0,0,1-.359-3.4,6.435,6.435,0,0,1,2.269-3.49,5.845,5.845,0,0,1,3.707-1.33,3.318,3.318,0,0,1,2.872,1.225c.6.817.672,2.042.254,3.671h-7.365q-.545,2.051.222,2.768a2.632,2.632,0,0,0,1.847.717,3.807,3.807,0,0,0,3.195-1.8" transform="translate(-93.997 -46.084)"/>
      <path id="Path_114" data-name="Path 114" d="M200.16,77.88l-.417,1.57h-1.7l.417-1.57Zm-.908,3.177L196.825,90.1H195.25l2.423-9.044Z" transform="translate(-106.647 -42.534)"/>
      <path id="Path_115" data-name="Path 115" d="M208.2,86.557a2.083,2.083,0,0,0,.417,2.019,2.305,2.305,0,0,0,1.629.626,3.131,3.131,0,0,0,2.2-.908,5.364,5.364,0,0,0,1.425-2.555,3.985,3.985,0,0,0,0-2.723,1.693,1.693,0,0,0-1.693-1.044,3.367,3.367,0,0,0-1.988.712,4.116,4.116,0,0,0-1.443,1.842ZM206.432,90.1h-.762l3.276-12.221h1.575l-1.252,4.688a4.562,4.562,0,0,1,3.462-1.756,2.95,2.95,0,0,1,2.618,1.207,4.248,4.248,0,0,1,.222,3.571,6.77,6.77,0,0,1-2.065,3.381,4.955,4.955,0,0,1-3.381,1.361,2.632,2.632,0,0,1-2.723-1.747Z" transform="translate(-112.339 -42.534)"/>
      <path id="Path_116" data-name="Path 116" d="M234.212,92.765a3.431,3.431,0,0,0,2.269-.908,5.278,5.278,0,0,0,1.552-2.755,3.214,3.214,0,0,0-.123-2.723,2.088,2.088,0,0,0-1.806-.835,3.453,3.453,0,0,0-2.219.858,5.073,5.073,0,0,0-1.534,2.723,3.474,3.474,0,0,0,.059,2.809,2.019,2.019,0,0,0,1.783.849m-.454,1.162a3.065,3.065,0,0,1-2.891-1.361,4.387,4.387,0,0,1-.254-3.422,6.326,6.326,0,0,1,2.242-3.453,5.763,5.763,0,0,1,3.63-1.289,3.181,3.181,0,0,1,2.941,1.361,4.172,4.172,0,0,1,.3,3.39,6.466,6.466,0,0,1-2.233,3.458,5.79,5.79,0,0,1-3.73,1.361" transform="translate(-125.832 -46.106)"/>
      <path id="Path_117" data-name="Path 117" d="M256.054,100.4l-.535,2.006H253.25l.535-2.006Z" transform="translate(-138.327 -54.834)"/>
      <path id="Path_118" data-name="Path 118" d="M271.972,90.494l1.361.227a5.627,5.627,0,0,1-1.965,2.346,4.914,4.914,0,0,1-2.809.853,2.91,2.91,0,0,1-2.827-1.361,4.538,4.538,0,0,1-.2-3.372,6.871,6.871,0,0,1,2.078-3.426,5.114,5.114,0,0,1,3.521-1.361,3.054,3.054,0,0,1,2.423.88,2.922,2.922,0,0,1,.626,2.269l-1.488.241c.132-1.488-.476-2.237-1.815-2.237a3.082,3.082,0,0,0-2.269.989,5.718,5.718,0,0,0-1.389,2.564,4.277,4.277,0,0,0-.027,2.723,1.688,1.688,0,0,0,1.7.962,3.42,3.42,0,0,0,3.081-2.269" transform="translate(-144.91 -46.095)"/>
      <path id="Path_119" data-name="Path 119" d="M290.208,92.765a3.435,3.435,0,0,0,2.269-.908,5.3,5.3,0,0,0,1.552-2.755,3.208,3.208,0,0,0-.127-2.723,2.078,2.078,0,0,0-1.8-.835,3.444,3.444,0,0,0-2.219.858,5.078,5.078,0,0,0-1.538,2.723,3.47,3.47,0,0,0,.063,2.809,2.015,2.015,0,0,0,1.783.849m-.454,1.162a3.065,3.065,0,0,1-2.891-1.361,4.368,4.368,0,0,1-.25-3.422,6.28,6.28,0,0,1,2.242-3.453,5.75,5.75,0,0,1,3.63-1.289,3.189,3.189,0,0,1,2.945,1.361,4.155,4.155,0,0,1,.3,3.39,6.458,6.458,0,0,1-2.228,3.458,5.8,5.8,0,0,1-3.735,1.361" transform="translate(-156.421 -46.106)"/>
      <path id="Path_120" data-name="Path 120" d="M323.121,93.65h-1.534l1.507-5.622a4.753,4.753,0,0,0,.213-1.3,1.116,1.116,0,0,0-.454-.8,1.6,1.6,0,0,0-1.08-.363,3.422,3.422,0,0,0-1.938.74,3.884,3.884,0,0,0-1.443,2.269l-1.361,5.1h-1.525l1.6-5.954q.318-1.189-.191-1.688a1.665,1.665,0,0,0-1.207-.49,3.077,3.077,0,0,0-1.951.771,3.657,3.657,0,0,0-1.266,1.951l-1.452,5.409H309.53l2.428-9.044h1.361l-.454,1.738a4.746,4.746,0,0,1,3.63-1.988,2.183,2.183,0,0,1,1.688.635,2.115,2.115,0,0,1,.576,1.534,4.666,4.666,0,0,1,3.78-2.169,2.56,2.56,0,0,1,1.675.526,1.752,1.752,0,0,1,.69,1.216,6.447,6.447,0,0,1-.281,1.929Z" transform="translate(-169.068 -46.078)"/>
    </g>
  </g>
</svg>
