<svg xmlns="http://www.w3.org/2000/svg" viewBox="0 0 52.214 62.656">
  <defs>
    <style>
      .cls-1 {
        fill: #282625;
      }

      .cls-2, .cls-3 {
        fill: #fff;
      }

      .cls-3, .cls-5 {
        stroke: #282625;
        stroke-miterlimit: 10;
      }

      .cls-3 {
        stroke-width: 0.682px;
      }

      .cls-4 {
        fill: #cb2023;
      }

      .cls-5 {
        fill: none;
        stroke-width: 0.511px;
      }

      .cls-6 {
        fill: #161616;
      }
    </style>
  </defs>
  <g id="girl" transform="translate(26.108 31.328)">
    <g id="Group_119" data-name="Group 119" transform="translate(-26.107 -31.328)">
      <g id="girl-2" data-name="girl">
        <g id="girl-3" data-name="girl">
          <path id="Path_242" data-name="Path 242" class="cls-1" d="M74.03,52.749s-6.827.65-8.019-4.443c-2.642-11.287-4.227-23.519-4.227-23.519s-1.625-13.653,13.113-13c0,0,12.463-.867,11.6,14.52,0,0-1.951,15.065-8.561,27.31,0,0,2.733.631-1.951,1.084C72.622,55.025,74.03,52.749,74.03,52.749Z" transform="translate(-48.134 -11.243)"/>
          <path id="Path_243" data-name="Path 243" class="cls-2" d="M67.186,59.411s5.5-.423,5.22-9.191q-.021-.661-.087-1.387H79.63s-2.022,9.333,5.289,10.889c0,0-3.111,6.378-9.022,6.378S67.186,59.411,67.186,59.411Z" transform="translate(-49.87 -23.042)"/>
          <path id="Path_244" data-name="Path 244" class="cls-3" d="M86.163,27.676c-.121,9.428-5.015,13.3-11.2,13.3s-11.171-4.685-11.2-13.3c-.025-7.345,5.015-13.3,11.2-13.3S86.258,20.331,86.163,27.676Z" transform="translate(-48.781 -12.075)"/>
          <path id="Path_245" data-name="Path 245" class="cls-4" d="M46.044,83.491H90.373a3.626,3.626,0,0,0,3.383-4.93L88.035,63.722s-3.456-8.394-11.079-8.394a23.892,23.892,0,0,1-18.406,0s-6.817-2.045-10.338,7.617l-6.1,14.65a4.26,4.26,0,0,0,3.932,5.9Z" transform="translate(-41.785 -25.052)"/>
          <path id="Path_246" data-name="Path 246" class="cls-1" d="M86.61,22.65a7.97,7.97,0,0,1-.419,3.076,38.382,38.382,0,0,0-12.271-2.4c-.771,0-1.532.036-2.276.1-.078.007-.345-2.313-.423-2.3-.123.012-.058,2.353-.181,2.368q-.223.026-.443.055c-.079.011-.29-1.159-.368-1.145s-.025,1.2-.1,1.212q-.222.034-.44.072c-.132.022-.554-3.057-.682-3.033-.052.01.187,3.124.136,3.136q-.341.068-.667.141a17.58,17.58,0,0,0-6.034,2.46,15.747,15.747,0,0,1-.33-3.912c0-6.432,5.245-11.477,12.1-11.477S86.61,16.216,86.61,22.65Z" transform="translate(-48.25 -11)"/>
          <path id="Path_247" data-name="Path 247" class="cls-5" d="M73.4,33.854s-.861-1.808-5.94,0" transform="translate(-49.957 -18.019)"/>
          <path id="Path_248" data-name="Path 248" class="cls-1" d="M69.428,37.516a3.52,3.52,0,0,1,2.1-.851,3.456,3.456,0,0,1,1.15.1,3.316,3.316,0,0,1,1.044.459,9.465,9.465,0,0,0-1.091-.2,5.628,5.628,0,0,0-1.079-.021A6.791,6.791,0,0,0,69.428,37.516Z" transform="translate(-50.584 -19.166)"/>
          <path id="Path_249" data-name="Path 249" class="cls-5" d="M83.278,33.854s.861-1.808,5.94,0" transform="translate(-54.992 -18.019)"/>
          <path id="Path_250" data-name="Path 250" class="cls-1" d="M88.017,37.516a6.79,6.79,0,0,0-2.122-.511,5.627,5.627,0,0,0-1.079.021,9.468,9.468,0,0,0-1.091.2,3.317,3.317,0,0,1,1.044-.459,3.456,3.456,0,0,1,1.15-.1,3.52,3.52,0,0,1,2.1.851Z" transform="translate(-55.135 -19.166)"/>
          <path id="Path_251" data-name="Path 251" class="cls-2" d="M57.862,68.412H86.691a1.727,1.727,0,0,1,1.727,1.727V87.764a1.1,1.1,0,0,1-1.1,1.1H57.48a1.1,1.1,0,0,1-1.1-1.1V69.9a1.484,1.484,0,0,1,1.484-1.484Z" transform="translate(-46.43 -29.274)"/>
          <rect id="Rectangle_66" data-name="Rectangle 66" class="cls-6" width="44.58" height="2.972" rx="0.954" transform="translate(3.486 59.685)"/>
        </g>
      </g>
      <path id="Path_252" data-name="Path 252" class="cls-1" d="M59.48,70.412h27.11a1.1,1.1,0,0,1,1.1,1.1v17.3H58.378v-17.3A1.1,1.1,0,0,1,59.48,70.412Z" transform="translate(-47.067 -29.911)"/>
    </g>
  </g>
</svg>
