<svg xmlns="http://www.w3.org/2000/svg" viewBox="0 0 43.229 57.128">
  <defs>
    <style>
      .cls-1 {
        fill: #cb2023;
      }

      .cls-2 {
        fill: #282625;
      }
    </style>
  </defs>
  <g id="support" transform="translate(-5.18 0)">
    <g id="Group_73" data-name="Group 73" transform="translate(5.18 0)">
      <path id="Path_92" data-name="Path 92" class="cls-1" d="M13.716,32.848l1.46-1.46H25.857L19.042,19.075,14,20.1a3.545,3.545,0,0,0-2.721,2.568L5.3,42.194a3.544,3.544,0,0,0,3.427,4.448h4.993V32.848Z" transform="translate(-5.18 6.52)"/>
      <path id="Path_93" data-name="Path 93" class="cls-1" d="M42.546,42.177,36.563,22.652A3.548,3.548,0,0,0,33.8,20.074l-5.021-.95L21.989,31.37H33.475l1.46,1.46V46.622h4.188a3.54,3.54,0,0,0,3.424-4.445Z" transform="translate(0.565 6.536)"/>
      <path id="Path_94" data-name="Path 94" class="cls-2" d="M13.822,42.761h-.405v.005H34.539v0h.4V30.43H13.822Z" transform="translate(-2.365 10.4)"/>
      <rect id="Rectangle_54" data-name="Rectangle 54" class="cls-2" width="31.979" height="2.641" transform="translate(5.625 54.487)"/>
      <path id="Path_95" data-name="Path 95" class="cls-1" d="M12.894,16.979c.056.115.13.293.208.478a4.809,4.809,0,0,0,.912,1.63c1.622,5.293,5.809,8.958,10.257,8.944,4.429-.015,8.565-3.711,10.126-9.019a4.848,4.848,0,0,0,.89-1.625c.076-.189.146-.368.2-.483a2.632,2.632,0,0,0-.445-3.236v-.122C35.023,6.975,34.166-.034,24.175,0,14.11.032,13.291,6.745,13.313,13.616c0,.042,0,.082,0,.122A2.638,2.638,0,0,0,12.894,16.979Zm1.4-2.116.03-.012a.734.734,0,0,0,.381-.322l1.743.27a.374.374,0,0,0,.4-.22l1.1-2.544a47.378,47.378,0,0,0,9.666,1.353,10.409,10.409,0,0,0,2.834-.33l.7,1.687a.367.367,0,0,0,.342.229.43.43,0,0,0,.1-.013l2.03-.57a.752.752,0,0,0,.42.4l.028.009c.3.15.4.809.083,1.464-.076.158-.156.358-.244.57a5.615,5.615,0,0,1-.531,1.1.74.74,0,0,0-.346.445c-1.327,4.8-4.938,8.162-8.774,8.175-3.856.012-7.517-3.325-8.9-8.115a.739.739,0,0,0-.35-.441,5.771,5.771,0,0,1-.546-1.106c-.086-.208-.169-.407-.247-.562C13.9,15.673,14,15.015,14.3,14.863Z" transform="translate(-2.665 0)"/>
    </g>
  </g>
</svg>
