<svg xmlns="http://www.w3.org/2000/svg" viewBox="0 0 52 55.969">
  <defs>
    <style>
      .cls-1 {
        fill: #282625;
      }

      .cls-2 {
        fill: #cb2023;
      }
    </style>
  </defs>
  <g id="money" transform="translate(-13.738)">
    <path id="Path_90" data-name="Path 90" class="cls-1" d="M101.283,38.9l1.518.662c-1.053.645-1.528,1.275-1.408,1.875.124.62.691,1.155,1.687,1.59a8.961,8.961,0,0,0,3.305.663,21.235,21.235,0,0,0,5.911-1.078,8.265,8.265,0,0,1,1.523-.327,1.788,1.788,0,0,1,.885.124c.176.077.712.31-.635.9a5.577,5.577,0,0,1-2.692.467,3.284,3.284,0,0,0-1.866.34l-.809.515c-.354.225-.425.512-.192.765a2.2,2.2,0,0,0,1.353.492,14.4,14.4,0,0,0,5.867-.681l2.049.895a3.766,3.766,0,0,0,2.636,0c.728-.318.728-.833,0-1.151l-2.12-.926c.931-.592,1.421-1.19,1.455-1.781.041-.692-.518-1.3-1.661-1.8a8.535,8.535,0,0,0-2.764-.655,10.986,10.986,0,0,0-2.866.131c-.871.164-2.2.494-3.934.98a7.459,7.459,0,0,1-1.525.318,1.591,1.591,0,0,1-.636-.112c-.6-.263-.1-.6.436-.829a4.884,4.884,0,0,1,2.1-.406,2.859,2.859,0,0,0,1.762-.435l.469-.392a.45.45,0,0,0-.041-.786,2.817,2.817,0,0,0-1.547-.4,13.5,13.5,0,0,0-4.078.565l-1.545-.674a3.762,3.762,0,0,0-2.636,0C100.556,38.07,100.556,38.585,101.283,38.9Z" transform="translate(-74.433 -32.095)"/>
    <path id="Path_91" data-name="Path 91" class="cls-2" d="M58.908,15.024a6.676,6.676,0,0,0,.186-1.565V11.785c0-3.345-2.5-6.4-7.031-8.611A36.614,36.614,0,0,0,36.416,0,36.615,36.615,0,0,0,20.769,3.175c-4.534,2.208-7.031,5.266-7.031,8.611v1.674c0,3.3,2.43,6.317,6.845,8.518a7.561,7.561,0,0,0-.2,1.557v.305c-4.288,2.192-6.643,5.169-6.643,8.417v1.674A8.212,8.212,0,0,0,17,40.133a6.746,6.746,0,0,0-.438,2.377v1.674c0,3.345,2.5,6.4,7.031,8.611a36.615,36.615,0,0,0,15.647,3.175,36.614,36.614,0,0,0,15.647-3.175c4.534-2.208,7.031-5.266,7.031-8.611V42.51a8.211,8.211,0,0,0-3.265-6.2,6.756,6.756,0,0,0,.436-2.378v-.305c4.288-2.192,6.643-5.169,6.643-8.417V23.534C65.738,20.24,63.314,17.224,58.908,15.024Zm-42-4.655c.657-1.67,2.446-3.291,5.127-4.6A33.7,33.7,0,0,1,36.416,2.889,33.7,33.7,0,0,1,50.8,5.772c2.681,1.306,4.47,2.927,5.127,4.6-2.32,4.036-10.382,6.979-19.509,6.979S19.228,14.405,16.907,10.369Zm0,20.472a8.557,8.557,0,0,1,3.722-3.832c.733,2.633,3.077,5.006,6.783,6.811A36.615,36.615,0,0,0,43.06,36.994c.575,0,1.147-.014,1.715-.035a40.05,40.05,0,0,1-8.358.861C27.29,37.82,19.228,34.877,16.907,30.841ZM58.754,41.093c-2.32,4.036-10.382,6.979-19.509,6.979-7.928,0-15.049-2.222-18.3-5.451a36.8,36.8,0,0,0,15.476,3.1,36.614,36.614,0,0,0,15.647-3.175,15.538,15.538,0,0,0,5.071-3.709A6.443,6.443,0,0,1,58.754,41.093ZM43.06,29.1c-7.969,0-15.125-2.244-18.358-5.5a40.421,40.421,0,0,0,11.714,1.647A36.616,36.616,0,0,0,52.063,22.07a14.521,14.521,0,0,0,5.629-4.423c2.541,1.283,4.241,2.854,4.877,4.471C60.249,26.154,52.187,29.1,43.06,29.1Z"/>
  </g>
</svg>
