<svg xmlns="http://www.w3.org/2000/svg" viewBox="0 0 67.814 60.478">
  <defs>
    <style>
      .cls-1 {
        fill: #fff;
      }

      .cls-2 {
        fill: #cb2023;
      }

      .cls-3, .cls-4 {
        fill: #282625;
      }

      .cls-4 {
        fill-rule: evenodd;
      }
    </style>
  </defs>
  <g id="music__new-image" transform="translate(-390.217 -650.985)">
    <g id="cd_1_" data-name="cd (1)" transform="translate(397.219 666.222)">
      <path id="Path_17" data-name="Path 17" class="cls-1" d="M25.915,25.923a3.12,3.12,0,1,0,4.412,0,3.193,3.193,0,0,0-4.412,0Z" transform="translate(-5.5 -5.508)"/>
      <path id="Path_18" data-name="Path 18" class="cls-2" d="M38.614,6.626a22.62,22.62,0,1,0,0,31.99,22.62,22.62,0,0,0,0-31.99Zm-.552,31.438a21.839,21.839,0,0,1-4.967,3.72l-5.987-10.95a9.357,9.357,0,0,1-12.7-12.7L3.455,12.144a21.833,21.833,0,0,1,8.687-8.687l5.986,10.951a9.357,9.357,0,0,1,12.7,12.7L41.783,33.1A21.839,21.839,0,0,1,38.062,38.064Z" transform="translate(0.002 0)"/>
    </g>
    <path id="music_3_" data-name="music (3)" class="cls-3" d="M20.553.1a.408.408,0,0,0-.32-.1L7.656,1.63a.408.408,0,0,0-.353.4V16.481a4.212,4.212,0,0,0-3.246-1.47A3.875,3.875,0,0,0,0,18.662a3.875,3.875,0,0,0,4.057,3.651,3.875,3.875,0,0,0,4.057-3.651c0-.094-.007-.187-.016-.279a.39.39,0,0,0,.016-.078V6.539L19.879,5.017v7.406a4.212,4.212,0,0,0-3.246-1.47A3.875,3.875,0,0,0,12.576,14.6a3.875,3.875,0,0,0,4.057,3.651,3.88,3.88,0,0,0,4.054-3.6V.407A.408.408,0,0,0,20.553.1Z" transform="translate(422.214 650.985) rotate(13)"/>
    <path id="music_3_2" data-name="music (3)" class="cls-3" d="M13.823.07A.276.276,0,0,0,13.607,0L5.149,1.1a.272.272,0,0,0-.238.272v9.716A2.831,2.831,0,0,0,2.728,10.1,2.606,2.606,0,0,0,0,12.553a2.606,2.606,0,0,0,2.728,2.455,2.606,2.606,0,0,0,2.728-2.455c0-.063-.005-.126-.011-.188a.262.262,0,0,0,.011-.052V4.4l7.912-1.024c.5.03.544-.31.544-.31V.274a.272.272,0,0,0-.09-.2Z" transform="matrix(0.961, -0.276, 0.276, 0.961, 440.52, 674.203)"/>
    <g id="play" transform="matrix(0.934, -0.358, 0.358, 0.934, 390.217, 696.969)">
      <path id="Path_19" data-name="Path 19" class="cls-4" d="M12.215,6.548,2.078.162a1.818,1.818,0,0,0-.953-.15A.985.985,0,0,0,.006,1.1V14.153A1,1,0,0,0,1.125,15.24a1.818,1.818,0,0,0,.951-.149L12.215,8.708c.832-.5.688-1.079.688-1.079S13.046,7.043,12.215,6.548Z" transform="translate(0 0)"/>
    </g>
  </g>
</svg>
