<?xml version="1.0" encoding="UTF-8"?>
<svg width="35px" height="40px" viewBox="0 0 35 40" version="1.1" xmlns="http://www.w3.org/2000/svg" xmlns:xlink="http://www.w3.org/1999/xlink">
    <!-- Generator: Sketch 50.2 (55047) - http://www.bohemiancoding.com/sketch -->
    <title>random</title>
    <desc>Created with Sketch.</desc>
    <defs></defs>
    <g id="Design" stroke="none" stroke-width="1" fill="none" fill-rule="evenodd">
        <g id="development-5" transform="translate(-1294.000000, -1484.000000)" fill-rule="nonzero">
            <g id="random" transform="translate(1311.500000, 1504.000000) rotate(-90.000000) translate(-1311.500000, -1504.000000) translate(1291.500000, 1486.500000)">
                <path d="M10.9484292,6.4199979 C10.2960909,5.52056596 9.24789235,5 8.15310378,5 L1.1647513,5 C0.512412921,5 0,5.52064486 0,6.18346308 L0,10.9171576 C0,11.579818 0.512412921,12.1006207 1.1647513,12.1006207 L6.40597684,12.1006207 L10.0166282,17 L14,10.5621187 L10.9484292,6.4199979 Z" id="Shape" fill="#3D3C3B"></path>
                <path d="M39.576895,7.41602055 C39.5534575,7.41602055 39.5534575,7.3921737 39.5299419,7.3921737 L30.1552682,0.238356792 C29.351285,-0.361550496 28.2803491,0.250200728 28.2803491,1.19231033 L28.2803491,4.76925853 L22.2648891,4.76925853 C20.1350485,4.76925853 19.2962998,6.47820338 19.2180968,6.55769288 C13.5803707,15.6613873 9.53350161,22.1702264 8.53092496,23.8461036 L1.17187328,23.8461036 C0.515546117,23.8461036 0,24.3706548 0,25.0384462 L0,29.8076574 C0,30.4752898 0.515546117,31 1.17187328,31 L10.546547,31 C11.6620141,31 12.8608405,30.4450838 13.5465426,29.2830267 C13.5698238,29.2591799 13.5698238,29.2354125 13.5933394,29.2115656 C13.6426362,29.1318377 23.81309,12.7040598 24.2805112,11.9230754 L28.2803491,11.9230754 L28.2803491,15.5000236 C28.2803491,16.4412588 29.3510506,17.0542024 30.1552682,16.4538182 L39.5299419,9.30000129 C39.5533794,9.30000129 39.5533794,9.27631341 39.576895,9.27631341 C40.1402535,8.79826354 40.141816,7.89494481 39.576895,7.41602055 Z" id="Shape" fill="#CB2023"></path>
                <path d="M39.5380702,26.0849339 L30.3800265,19.2970933 L30.3107423,19.22845 C29.5193957,18.6534766 28.4652921,19.2398017 28.4652921,20.1427545 L28.4652921,23.5710346 L24.2744845,23.5710346 L21.9445835,20.5083697 L18,26.7249699 L19.776166,29.0560998 C20.4221774,29.9246167 21.4602095,30.4274423 22.5443798,30.4274423 L28.4652921,30.4274423 L28.4652921,33.8557223 C28.4652921,34.8012629 29.5812977,35.332201 30.3107423,34.7698744 L39.5380702,27.9133905 C40.1533228,27.4915504 40.15463,26.5079931 39.5380702,26.0849339 Z" id="Shape" fill="#3D3C3B"></path>
            </g>
        </g>
    </g>
</svg>