<svg width="41" height="41" viewBox="0 0 41 41" fill="none" xmlns="http://www.w3.org/2000/svg">
<circle cx="20.5" cy="20.5" r="20.5" fill="#CC1237"/>
<path d="M16.6055 18.9688H18.4102C19.2695 18.9688 19.9062 18.7539 20.3203 18.3242C20.7344 17.8945 20.9414 17.3242 20.9414 16.6133C20.9414 15.9258 20.7344 15.3906 20.3203 15.0078C19.9141 14.625 19.3516 14.4336 18.6328 14.4336C17.9844 14.4336 17.4414 14.6133 17.0039 14.9727C16.5664 15.3242 16.3477 15.7852 16.3477 16.3555H12.9609C12.9609 15.4648 13.1992 14.668 13.6758 13.9648C14.1602 13.2539 14.832 12.6992 15.6914 12.3008C16.5586 11.9023 17.5117 11.7031 18.5508 11.7031C20.3555 11.7031 21.7695 12.1367 22.793 13.0039C23.8164 13.8633 24.3281 15.0508 24.3281 16.5664C24.3281 17.3477 24.0898 18.0664 23.6133 18.7227C23.1367 19.3789 22.5117 19.8828 21.7383 20.2344C22.6992 20.5781 23.4141 21.0938 23.8828 21.7812C24.3594 22.4688 24.5977 23.2812 24.5977 24.2188C24.5977 25.7344 24.043 26.9492 22.9336 27.8633C21.832 28.7773 20.3711 29.2344 18.5508 29.2344C16.8477 29.2344 15.4531 28.7852 14.3672 27.8867C13.2891 26.9883 12.75 25.8008 12.75 24.3242H16.1367C16.1367 24.9648 16.375 25.4883 16.8516 25.8945C17.3359 26.3008 17.9297 26.5039 18.6328 26.5039C19.4375 26.5039 20.0664 26.293 20.5195 25.8711C20.9805 25.4414 21.2109 24.875 21.2109 24.1719C21.2109 22.4688 20.2734 21.6172 18.3984 21.6172H16.6055V18.9688ZM27.2578 27.3359C27.2578 26.7969 27.4375 26.3594 27.7969 26.0234C28.1641 25.6875 28.6211 25.5195 29.168 25.5195C29.7227 25.5195 30.1797 25.6875 30.5391 26.0234C30.9062 26.3594 31.0898 26.7969 31.0898 27.3359C31.0898 27.8672 30.9102 28.3008 30.5508 28.6367C30.1914 28.9648 29.7305 29.1289 29.168 29.1289C28.6133 29.1289 28.1562 28.9648 27.7969 28.6367C27.4375 28.3008 27.2578 27.8672 27.2578 27.3359Z" fill="white"/>
</svg>
