<svg width="43" height="43" viewBox="0 0 43 43" fill="none" xmlns="http://www.w3.org/2000/svg">
<path d="M15.2303 42.537C18.1086 42.537 20.442 40.2036 20.442 37.3253C20.442 34.4469 18.1086 32.1135 15.2303 32.1135C12.3519 32.1135 10.0186 34.4469 10.0186 37.3253C10.0186 40.2036 12.3519 42.537 15.2303 42.537Z" fill="#CC1237"/>
<path d="M31.9285 32.0628C29.0361 31.7782 26.4607 33.8921 26.1761 36.7844C25.8914 39.6768 28.0054 42.2522 30.8977 42.5369C31.2405 42.5706 31.5858 42.5706 31.9285 42.5369C34.8209 42.2522 36.9348 39.6768 36.6501 36.7844C36.4043 34.2856 34.4272 32.3087 31.9285 32.0628Z" fill="#CC1237"/>
<path d="M42.6553 12.228C42.3964 11.8403 41.9577 11.6114 41.4915 11.6208H35.7232V11.5196C35.7236 5.3995 30.7627 0.437895 24.6426 0.4375C18.5226 0.437105 13.561 5.39802 13.5606 11.5181C13.5606 11.5186 13.5606 11.5191 13.5606 11.5196V11.6208H9.25969L7.79231 4.94164C7.62934 4.2622 7.02363 3.7818 6.32492 3.77785H0V6.81382H5.11054L9.81628 28.4198C9.94051 29.1301 10.5626 29.6449 11.2837 29.6341H37.7471C38.4459 29.6301 39.0515 29.1498 39.2145 28.4704L42.9589 13.4929C43.0687 13.0469 42.9555 12.5754 42.6553 12.228ZM24.6419 19.5649C20.1986 19.5649 16.5966 15.9628 16.5966 11.5196C16.5966 7.0763 20.1986 3.47425 24.6419 3.47425C29.0852 3.47425 32.6872 7.0763 32.6872 11.5196C32.6596 15.9514 29.0737 19.5372 24.6419 19.5649Z" fill="#CC1237"/>
<path d="M25 16.5L29.3301 9L20.6699 9L25 16.5ZM24.25 6L24.25 9.75L25.75 9.75L25.75 6L24.25 6Z" fill="#CC1237"/>
</svg>
