<svg width="40" height="39" viewBox="0 0 40 39" fill="none" xmlns="http://www.w3.org/2000/svg">
<path fill-rule="evenodd" clip-rule="evenodd" d="M19.3333 27.3793V28.046C19.3333 28.4146 19.632 28.7126 20 28.7126C20.368 28.7126 20.6667 28.4146 20.6667 28.046V27.3793C20.6667 27.0106 20.368 26.7126 20 26.7126C19.632 26.7126 19.3333 27.0106 19.3333 27.3793ZM18.3113 32.5053C18.562 32.358 18.8313 32.2433 19.1113 32.1666C19.4667 32.07 19.8333 32.2773 19.932 32.632C20.03 32.9866 19.8213 33.354 19.4667 33.4513C19.2987 33.498 19.138 33.566 18.9873 33.6546C18.8813 33.7173 18.7647 33.7466 18.65 33.7466C18.422 33.7466 18.1993 33.6286 18.0747 33.418C17.888 33.1006 17.994 32.692 18.3113 32.5053ZM20.982 33.6366C21.1347 33.7226 21.2747 33.8286 21.3993 33.9506C21.5293 34.078 21.698 34.1413 21.866 34.1413C22.0387 34.1413 22.2113 34.074 22.342 33.9413C22.6 33.678 22.5953 33.2566 22.3327 32.9986C22.1253 32.7953 21.8927 32.6206 21.64 32.4766C21.318 32.296 20.9127 32.4066 20.7313 32.728C20.55 33.048 20.662 33.4546 20.982 33.6366ZM18.0647 34.8733C18.022 35.0373 18 35.2073 18 35.3793C18 35.748 17.702 36.054 17.3333 36.0533C16.9647 36.0533 16.6667 35.7633 16.6667 35.3946H17.3333L16.6667 35.3933C16.6667 35.094 16.7027 34.8106 16.774 34.5373C16.8667 34.1806 17.2307 33.968 17.5873 34.06C17.944 34.1533 18.1573 34.5173 18.0647 34.8733ZM22 35.3786C22 35.0106 22.2987 34.6966 22.6667 34.6966C23.0347 34.6966 23.3333 34.9793 23.3333 35.348V35.3793C23.3333 35.6706 23.2953 35.9606 23.2207 36.2393C23.1407 36.5373 22.8713 36.734 22.5767 36.734C22.52 36.734 22.462 36.7266 22.4047 36.7113C22.0493 36.616 21.8373 36.2506 21.9327 35.8953C21.9773 35.728 22 35.5546 22 35.3786ZM21.0027 37.1106C20.8527 37.1986 20.6913 37.2653 20.5233 37.3106C20.168 37.4066 19.9573 37.772 20.0527 38.128C20.1333 38.4253 20.402 38.6213 20.696 38.6213C20.7533 38.6213 20.8113 38.614 20.87 38.5986C21.1513 38.5226 21.422 38.41 21.6733 38.2633C21.9913 38.078 22.0993 37.6693 21.914 37.3513C21.7287 37.0326 21.3207 36.926 21.0027 37.1106ZM18.5927 36.7993C18.716 36.922 18.8553 37.028 19.0067 37.1146C19.326 37.298 19.4367 37.7053 19.2547 38.0246C19.1313 38.2393 18.9067 38.36 18.6753 38.36C18.5627 38.36 18.4493 38.332 18.3447 38.272C18.092 38.1273 17.8593 37.95 17.6527 37.7446C17.3913 37.4853 17.39 37.0633 17.65 36.802C17.91 36.542 18.3313 36.5393 18.5927 36.7993ZM4 34.7126H3.33333C2.96533 34.7126 2.66667 35.0106 2.66667 35.3793C2.66667 35.748 2.96533 36.046 3.33333 36.046H4C4.368 36.046 4.66667 35.748 4.66667 35.3793C4.66667 35.0106 4.368 34.7126 4 34.7126ZM6 34.7126H6.66667C7.03467 34.7126 7.33333 35.0106 7.33333 35.3793C7.33333 35.748 7.03467 36.046 6.66667 36.046H6C5.632 36.046 5.33333 35.748 5.33333 35.3793C5.33333 35.0106 5.632 34.7126 6 34.7126ZM1.33333 34.7126H0.666667C0.298667 34.7126 0 35.0106 0 35.3793C0 35.748 0.298667 36.046 0.666667 36.046H1.33333C1.70133 36.046 2 35.748 2 35.3793C2 35.0106 1.70133 34.7126 1.33333 34.7126ZM8.66667 34.7126H9.33333C9.70133 34.7126 10 35.0106 10 35.3793C10 35.748 9.70133 36.046 9.33333 36.046H8.66667C8.29867 36.046 8 35.748 8 35.3793C8 35.0106 8.29867 34.7126 8.66667 34.7126ZM12 34.7126H11.3333C10.9653 34.7126 10.6667 35.0106 10.6667 35.3793C10.6667 35.748 10.9653 36.046 11.3333 36.046H12C12.368 36.046 12.6667 35.748 12.6667 35.3793C12.6667 35.0106 12.368 34.7126 12 34.7126ZM14 34.7126H14.6667C15.0347 34.7126 15.3333 35.0106 15.3333 35.3793C15.3333 35.748 15.0347 36.046 14.6667 36.046H14C13.632 36.046 13.3333 35.748 13.3333 35.3793C13.3333 35.0106 13.632 34.7126 14 34.7126ZM28.6667 34.7126H28C27.632 34.7126 27.3333 35.0106 27.3333 35.3793C27.3333 35.748 27.632 36.046 28 36.046H28.6667C29.0347 36.046 29.3333 35.748 29.3333 35.3793C29.3333 35.0106 29.0347 34.7126 28.6667 34.7126ZM38.6667 34.7126H39.3333C39.7013 34.7126 40 35.0106 40 35.3793C40 35.748 39.7013 36.046 39.3333 36.046H38.6667C38.2987 36.046 38 35.748 38 35.3793C38 35.0106 38.2987 34.7126 38.6667 34.7126ZM36.6667 34.7126H36C35.632 34.7126 35.3333 35.0106 35.3333 35.3793C35.3333 35.748 35.632 36.046 36 36.046H36.6667C37.0347 36.046 37.3333 35.748 37.3333 35.3793C37.3333 35.0106 37.0347 34.7126 36.6667 34.7126ZM33.3333 34.7126H34C34.368 34.7126 34.6667 35.0106 34.6667 35.3793C34.6667 35.748 34.368 36.046 34 36.046H33.3333C32.9653 36.046 32.6667 35.748 32.6667 35.3793C32.6667 35.0106 32.9653 34.7126 33.3333 34.7126ZM31.3333 34.7126H30.6667C30.2987 34.7126 30 35.0106 30 35.3793C30 35.748 30.2987 36.046 30.6667 36.046H31.3333C31.7013 36.046 32 35.748 32 35.3793C32 35.0106 31.7013 34.7126 31.3333 34.7126ZM25.3333 34.7126H26C26.368 34.7126 26.6667 35.0106 26.6667 35.3793C26.6667 35.748 26.368 36.046 26 36.046H25.3333C24.9653 36.046 24.6667 35.748 24.6667 35.3793C24.6667 35.0106 24.9653 34.7126 25.3333 34.7126ZM20.6667 30.046V30.7126C20.6667 31.0813 20.368 31.3793 20 31.3793C19.632 31.3793 19.3333 31.0813 19.3333 30.7126V30.046C19.3333 29.6773 19.632 29.3793 20 29.3793C20.368 29.3793 20.6667 29.6773 20.6667 30.046Z" fill="#282625"/>
<path fill-rule="evenodd" clip-rule="evenodd" d="M0 15.7847C0 15.1354 0.209333 14.5394 0.556667 14.046H39.4433C39.7907 14.5394 40 15.1354 40 15.7847V23.64C40 25.334 38.622 26.712 36.928 26.712H20H3.072C1.378 26.712 0 25.334 0 23.64V15.7847ZM4 19.7127C4 21.3667 5.346 22.7127 7 22.7127C8.654 22.7127 10 21.3667 10 19.7127C10 18.0587 8.654 16.7127 7 16.7127C5.346 16.7127 4 18.0587 4 19.7127ZM22.6667 19.3794C22.2987 19.3794 22 19.0807 22 18.7127C22 18.3447 22.2987 18.046 22.6667 18.046C23.0347 18.046 23.3333 18.3447 23.3333 18.7127C23.3333 19.0807 23.0347 19.3794 22.6667 19.3794ZM23.3333 20.7127C23.3333 21.0807 23.632 21.3794 24 21.3794C24.368 21.3794 24.6667 21.0807 24.6667 20.7127C24.6667 20.3447 24.368 20.046 24 20.046C23.632 20.046 23.3333 20.3447 23.3333 20.7127ZM25.3333 19.3794C24.9653 19.3794 24.6667 19.0807 24.6667 18.7127C24.6667 18.3447 24.9653 18.046 25.3333 18.046C25.7013 18.046 26 18.3447 26 18.7127C26 19.0807 25.7013 19.3794 25.3333 19.3794ZM26 20.7127C26 21.0807 26.2987 21.3794 26.6667 21.3794C27.0347 21.3794 27.3333 21.0807 27.3333 20.7127C27.3333 20.3447 27.0347 20.046 26.6667 20.046C26.2987 20.046 26 20.3447 26 20.7127ZM28 19.3794C27.632 19.3794 27.3333 19.0807 27.3333 18.7127C27.3333 18.3447 27.632 18.046 28 18.046C28.368 18.046 28.6667 18.3447 28.6667 18.7127C28.6667 19.0807 28.368 19.3794 28 19.3794ZM28.6667 20.7127C28.6667 21.0807 28.9653 21.3794 29.3333 21.3794C29.7013 21.3794 30 21.0807 30 20.7127C30 20.3447 29.7013 20.046 29.3333 20.046C28.9653 20.046 28.6667 20.3447 28.6667 20.7127ZM30.6667 19.3794C30.2987 19.3794 30 19.0807 30 18.7127C30 18.3447 30.2987 18.046 30.6667 18.046C31.0347 18.046 31.3333 18.3447 31.3333 18.7127C31.3333 19.0807 31.0347 19.3794 30.6667 19.3794ZM31.3333 20.7127C31.3333 21.0807 31.632 21.3794 32 21.3794C32.368 21.3794 32.6667 21.0807 32.6667 20.7127C32.6667 20.3447 32.368 20.046 32 20.046C31.632 20.046 31.3333 20.3447 31.3333 20.7127ZM33.3333 19.3794C32.9653 19.3794 32.6667 19.0807 32.6667 18.7127C32.6667 18.3447 32.9653 18.046 33.3333 18.046C33.7013 18.046 34 18.3447 34 18.7127C34 19.0807 33.7013 19.3794 33.3333 19.3794ZM34 20.7127C34 21.0807 34.2987 21.3794 34.6667 21.3794C35.0347 21.3794 35.3333 21.0807 35.3333 20.7127C35.3333 20.3447 35.0347 20.046 34.6667 20.046C34.2987 20.046 34 20.3447 34 20.7127Z" fill="#282625"/>
<path fill-rule="evenodd" clip-rule="evenodd" d="M3.072 0.0460205H36.928C38.622 0.0460205 40 1.42402 40 3.11802V10.9734C40 11.6227 39.7907 12.2187 39.4427 12.712H0.556667C0.209333 12.2187 0 11.6227 0 10.9734V3.11802C0 1.42402 1.378 0.0460205 3.072 0.0460205ZM4 7.04602C4 8.70002 5.346 10.046 7 10.046C8.654 10.046 10 8.70002 10 7.04602C10 5.39202 8.654 4.04602 7 4.04602C5.346 4.04602 4 5.39202 4 7.04602ZM22.6667 6.71269C22.2987 6.71269 22 6.41402 22 6.04602C22 5.67802 22.2987 5.37935 22.6667 5.37935C23.0347 5.37935 23.3333 5.67802 23.3333 6.04602C23.3333 6.41402 23.0347 6.71269 22.6667 6.71269ZM23.3333 8.04602C23.3333 8.41402 23.632 8.71269 24 8.71269C24.368 8.71269 24.6667 8.41402 24.6667 8.04602C24.6667 7.67802 24.368 7.37935 24 7.37935C23.632 7.37935 23.3333 7.67802 23.3333 8.04602ZM25.3333 6.71269C24.9653 6.71269 24.6667 6.41402 24.6667 6.04602C24.6667 5.67802 24.9653 5.37935 25.3333 5.37935C25.7013 5.37935 26 5.67802 26 6.04602C26 6.41402 25.7013 6.71269 25.3333 6.71269ZM26 8.04602C26 8.41402 26.2987 8.71269 26.6667 8.71269C27.0347 8.71269 27.3333 8.41402 27.3333 8.04602C27.3333 7.67802 27.0347 7.37935 26.6667 7.37935C26.2987 7.37935 26 7.67802 26 8.04602ZM28 6.71269C27.632 6.71269 27.3333 6.41402 27.3333 6.04602C27.3333 5.67802 27.632 5.37935 28 5.37935C28.368 5.37935 28.6667 5.67802 28.6667 6.04602C28.6667 6.41402 28.368 6.71269 28 6.71269ZM28.6667 8.04602C28.6667 8.41402 28.9653 8.71269 29.3333 8.71269C29.7013 8.71269 30 8.41402 30 8.04602C30 7.67802 29.7013 7.37935 29.3333 7.37935C28.9653 7.37935 28.6667 7.67802 28.6667 8.04602ZM30.6667 6.71269C30.2987 6.71269 30 6.41402 30 6.04602C30 5.67802 30.2987 5.37935 30.6667 5.37935C31.0347 5.37935 31.3333 5.67802 31.3333 6.04602C31.3333 6.41402 31.0347 6.71269 30.6667 6.71269ZM31.3333 8.04602C31.3333 8.41402 31.632 8.71269 32 8.71269C32.368 8.71269 32.6667 8.41402 32.6667 8.04602C32.6667 7.67802 32.368 7.37935 32 7.37935C31.632 7.37935 31.3333 7.67802 31.3333 8.04602ZM33.3333 6.71269C32.9653 6.71269 32.6667 6.41402 32.6667 6.04602C32.6667 5.67802 32.9653 5.37935 33.3333 5.37935C33.7013 5.37935 34 5.67802 34 6.04602C34 6.41402 33.7013 6.71269 33.3333 6.71269ZM34 8.04602C34 8.41402 34.2987 8.71269 34.6667 8.71269C35.0347 8.71269 35.3333 8.41402 35.3333 8.04602C35.3333 7.67802 35.0347 7.37935 34.6667 7.37935C34.2987 7.37935 34 7.67802 34 8.04602Z" fill="#CB2023"/>
</svg>
