<svg width="43" height="43" viewBox="0 0 43 43" fill="none" xmlns="http://www.w3.org/2000/svg">
<path d="M2.6875 9.40625H40.3125V3.35938C40.3125 3.18118 40.2417 3.01029 40.1157 2.88429C39.9897 2.75829 39.8188 2.6875 39.6406 2.6875H3.35938C3.18118 2.6875 3.01029 2.75829 2.88429 2.88429C2.75829 3.01029 2.6875 3.18118 2.6875 3.35938V9.40625ZM16.7969 4.03125C17.1955 4.03125 17.5852 4.14946 17.9167 4.37094C18.2482 4.59242 18.5065 4.90722 18.6591 5.27553C18.8116 5.64384 18.8515 6.04911 18.7738 6.4401C18.696 6.8311 18.504 7.19025 18.2221 7.47214C17.9402 7.75403 17.5811 7.946 17.1901 8.02377C16.7991 8.10154 16.3938 8.06163 16.0255 7.90907C15.6572 7.75651 15.3424 7.49816 15.1209 7.1667C14.8995 6.83523 14.7812 6.44553 14.7812 6.04688C14.7812 5.5123 14.9936 4.99962 15.3716 4.62161C15.7496 4.24361 16.2623 4.03125 16.7969 4.03125ZM11.4219 4.03125C11.8205 4.03125 12.2102 4.14946 12.5417 4.37094C12.8732 4.59242 13.1315 4.90722 13.2841 5.27553C13.4366 5.64384 13.4765 6.04911 13.3988 6.4401C13.321 6.8311 13.129 7.19025 12.8471 7.47214C12.5652 7.75403 12.2061 7.946 11.8151 8.02377C11.4241 8.10154 11.0188 8.06163 10.6505 7.90907C10.2822 7.75651 9.96742 7.49816 9.74594 7.1667C9.52446 6.83523 9.40625 6.44553 9.40625 6.04688C9.40625 5.5123 9.61861 4.99962 9.99661 4.62161C10.3746 4.24361 10.8873 4.03125 11.4219 4.03125ZM6.04688 4.03125C6.44553 4.03125 6.83523 4.14946 7.1667 4.37094C7.49816 4.59242 7.75651 4.90722 7.90907 5.27553C8.06163 5.64384 8.10154 6.04911 8.02377 6.4401C7.946 6.8311 7.75403 7.19025 7.47214 7.47214C7.19025 7.75403 6.8311 7.946 6.4401 8.02377C6.04911 8.10154 5.64384 8.06163 5.27553 7.90907C4.90722 7.75651 4.59242 7.49816 4.37094 7.1667C4.14946 6.83523 4.03125 6.44553 4.03125 6.04688C4.03125 5.5123 4.24361 4.99962 4.62161 4.62161C4.99962 4.24361 5.5123 4.03125 6.04688 4.03125Z" fill="#CC1237"/>
<path d="M16.7969 23.5156C16.7969 23.1592 16.6553 22.8175 16.4033 22.5654C16.1513 22.3134 15.8095 22.1719 15.4531 22.1719H14.1094V24.8594H15.4531C15.8095 24.8594 16.1513 24.7178 16.4033 24.4658C16.6553 24.2138 16.7969 23.872 16.7969 23.5156Z" fill="#CC1237"/>
<path d="M6.04688 6.71875C6.41794 6.71875 6.71875 6.41794 6.71875 6.04688C6.71875 5.67581 6.41794 5.375 6.04688 5.375C5.67581 5.375 5.375 5.67581 5.375 6.04688C5.375 6.41794 5.67581 6.71875 6.04688 6.71875Z" fill="#CC1237"/>
<path d="M11.4219 6.71875C11.7929 6.71875 12.0938 6.41794 12.0938 6.04688C12.0938 5.67581 11.7929 5.375 11.4219 5.375C11.0508 5.375 10.75 5.67581 10.75 6.04688C10.75 6.41794 11.0508 6.71875 11.4219 6.71875Z" fill="#CC1237"/>
<path d="M16.7969 6.71875C17.1679 6.71875 17.4688 6.41794 17.4688 6.04688C17.4688 5.67581 17.1679 5.375 16.7969 5.375C16.4258 5.375 16.125 5.67581 16.125 6.04688C16.125 6.41794 16.4258 6.71875 16.7969 6.71875Z" fill="#CC1237"/>
<path d="M3.35938 40.3125H39.6406C39.8188 40.3125 39.9897 40.2417 40.1157 40.1157C40.2417 39.9897 40.3125 39.8188 40.3125 39.6406V10.75H2.6875V39.6406C2.6875 39.8188 2.75829 39.9897 2.88429 40.1157C3.01029 40.2417 3.18118 40.3125 3.35938 40.3125ZM6.71875 19.4844C6.71982 18.5937 7.07409 17.7399 7.70387 17.1101C8.33364 16.4803 9.18749 16.1261 10.0781 16.125H32.9219C33.8125 16.1261 34.6664 16.4803 35.2961 17.1101C35.9259 17.7399 36.2802 18.5937 36.2812 19.4844V31.5781C36.2802 32.4688 35.9259 33.3226 35.2961 33.9524C34.6664 34.5822 33.8125 34.9364 32.9219 34.9375H10.0781C9.18749 34.9364 8.33364 34.5822 7.70387 33.9524C7.07409 33.3226 6.71982 32.4688 6.71875 31.5781V19.4844Z" fill="#CC1237"/>
<path d="M16.7969 27.5469C16.7969 27.1905 16.6553 26.8487 16.4033 26.5967C16.1513 26.3447 15.8095 26.2031 15.4531 26.2031H14.1094V28.8906H15.4531C15.8095 28.8906 16.1513 28.7491 16.4033 28.4971C16.6553 28.245 16.7969 27.9033 16.7969 27.5469Z" fill="#CC1237"/>
<path d="M10.0781 33.5938H32.9219C33.4565 33.5938 33.9691 33.3814 34.3471 33.0034C34.7251 32.6254 34.9375 32.1127 34.9375 31.5781V19.4844C34.9375 18.9498 34.7251 18.4371 34.3471 18.0591C33.9691 17.6811 33.4565 17.4688 32.9219 17.4688H10.0781C9.54355 17.4688 9.03087 17.6811 8.65286 18.0591C8.27486 18.4371 8.0625 18.9498 8.0625 19.4844V31.5781C8.0625 32.1127 8.27486 32.6254 8.65286 33.0034C9.03087 33.3814 9.54355 33.5938 10.0781 33.5938ZM24.8594 21.5C24.8594 21.3218 24.9302 21.1509 25.0562 21.0249C25.1822 20.8989 25.3531 20.8281 25.5312 20.8281C25.7094 20.8281 25.8803 20.8989 26.0063 21.0249C26.1323 21.1509 26.2031 21.3218 26.2031 21.5V23.5156C26.2031 23.872 26.3447 24.2138 26.5967 24.4658C26.8487 24.7178 27.1905 24.8594 27.5469 24.8594C27.9033 24.8594 28.245 24.7178 28.4971 24.4658C28.7491 24.2138 28.8906 23.872 28.8906 23.5156V21.5C28.8906 21.3218 28.9614 21.1509 29.0874 21.0249C29.2134 20.8989 29.3843 20.8281 29.5625 20.8281C29.7407 20.8281 29.9116 20.8989 30.0376 21.0249C30.1636 21.1509 30.2344 21.3218 30.2344 21.5V23.5156C30.2321 24.1097 30.0331 24.6863 29.6685 25.1553C29.3038 25.6243 28.794 25.9592 28.2188 26.1077V29.5625C28.2188 29.7407 28.148 29.9116 28.022 30.0376C27.896 30.1636 27.7251 30.2344 27.5469 30.2344C27.3687 30.2344 27.1978 30.1636 27.0718 30.0376C26.9458 29.9116 26.875 29.7407 26.875 29.5625V26.1077C26.2998 25.9592 25.79 25.6243 25.4253 25.1553C25.0606 24.6863 24.8616 24.1097 24.8594 23.5156V21.5ZM18.8125 21.5C18.8125 21.3218 18.8833 21.1509 19.0093 21.0249C19.1353 20.8989 19.3062 20.8281 19.4844 20.8281C19.6626 20.8281 19.8335 20.8989 19.9595 21.0249C20.0855 21.1509 20.1562 21.3218 20.1562 21.5V27.5469C20.1562 27.9033 20.2978 28.245 20.5498 28.4971C20.8018 28.7491 21.1436 28.8906 21.5 28.8906C21.8564 28.8906 22.1982 28.7491 22.4502 28.4971C22.7022 28.245 22.8438 27.9033 22.8438 27.5469V21.5C22.8438 21.3218 22.9145 21.1509 23.0405 21.0249C23.1665 20.8989 23.3374 20.8281 23.5156 20.8281C23.6938 20.8281 23.8647 20.8989 23.9907 21.0249C24.1167 21.1509 24.1875 21.3218 24.1875 21.5V27.5469C24.1875 28.2596 23.9044 28.9432 23.4003 29.4472C22.8963 29.9512 22.2128 30.2344 21.5 30.2344C20.7872 30.2344 20.1037 29.9512 19.5997 29.4472C19.0956 28.9432 18.8125 28.2596 18.8125 27.5469V21.5ZM12.7656 21.5C12.7656 21.3218 12.8364 21.1509 12.9624 21.0249C13.0884 20.8989 13.2593 20.8281 13.4375 20.8281H15.4531C16.0003 20.8257 16.5351 20.9911 16.9854 21.3019C17.4356 21.6128 17.7798 22.0542 17.9715 22.5667C18.1632 23.0792 18.1931 23.6382 18.0574 24.1683C17.9216 24.6983 17.6266 25.174 17.2121 25.5312C17.6266 25.8885 17.9216 26.3642 18.0574 26.8942C18.1931 27.4243 18.1632 27.9833 17.9715 28.4958C17.7798 29.0083 17.4356 29.4497 16.9854 29.7606C16.5351 30.0714 16.0003 30.2368 15.4531 30.2344H13.4375C13.2593 30.2344 13.0884 30.1636 12.9624 30.0376C12.8364 29.9116 12.7656 29.7407 12.7656 29.5625V21.5Z" fill="#CC1237"/>
</svg>
