<?xml version="1.0" encoding="utf-8"?>
<!-- Generator: Adobe Illustrator 22.0.1, SVG Export Plug-In . SVG Version: 6.00 Build 0)  -->
<svg version="1.1" id="Layer_1" xmlns="http://www.w3.org/2000/svg" xmlns:xlink="http://www.w3.org/1999/xlink" x="0px" y="0px"
	 viewBox="0 0 20 20" style="enable-background:new 0 0 20 20;" xml:space="preserve">
<style type="text/css">
	.st0{fill:#CB2023;}
</style>
<g>
	<path class="st0" d="M19.9,9.2c-0.3-5-4.3-8.9-9.2-9.2v0H10H9.4v0c-5,0.3-8.9,4.3-9.2,9.2h0v0.7v0.7h0c0.3,5,4.3,8.9,9.2,9.2v0H10
		h0.7v0c5-0.3,8.9-4.3,9.2-9.2h0V9.9L19.9,9.2L19.9,9.2z M6.3,2.1C5.7,3,5.1,4.1,4.7,5.3h-2C3.6,3.9,4.9,2.8,6.3,2.1z M2.1,6.6h2.3
		C4.2,7.4,4.1,8.3,4.1,9.2H1.4C1.5,8.3,1.7,7.4,2.1,6.6z M1.4,10.6h2.6c0,0.9,0.1,1.8,0.3,2.6H2.1C1.7,12.4,1.5,11.5,1.4,10.6z
		 M2.8,14.5h2c0.4,1.2,0.9,2.3,1.6,3.1C4.9,17,3.6,15.9,2.8,14.5z M9.4,18.4C8,18,6.8,16.6,6.1,14.5h3.2V18.4z M9.4,13.2H5.7
		c-0.2-0.8-0.3-1.7-0.3-2.6h4V13.2z M9.4,9.2h-4c0-0.9,0.2-1.8,0.3-2.6h3.6V9.2z M9.4,5.3H6.1C6.8,3.2,8,1.8,9.4,1.4V5.3z M17.3,5.3
		h-2c-0.4-1.2-0.9-2.3-1.6-3.1C15.2,2.8,16.4,3.9,17.3,5.3z M10.7,1.4c1.4,0.4,2.5,1.8,3.2,3.9h-3.2V1.4z M10.7,6.6h3.6
		c0.2,0.8,0.3,1.7,0.3,2.6h-4V6.6z M10.7,10.6h4c0,0.9-0.2,1.8-0.3,2.6h-3.6V10.6z M10.7,18.4v-3.9h3.2C13.2,16.6,12,18,10.7,18.4z
		 M13.7,17.7c0.6-0.9,1.2-1.9,1.6-3.1h2C16.4,15.9,15.2,17,13.7,17.7z M18,13.2h-2.3c0.2-0.8,0.3-1.7,0.3-2.6h2.6
		C18.5,11.5,18.3,12.4,18,13.2z M16,9.2c0-0.9-0.1-1.8-0.3-2.6H18c0.3,0.8,0.6,1.7,0.6,2.6H16z"/>
</g>
</svg>
