<svg xmlns="http://www.w3.org/2000/svg" width="27.091" height="46.636" viewBox="0 0 27.091 46.636">
  <g id="smartphone-weibo" transform="translate(-7.334)">
    <path id="Path_834" data-name="Path 834" d="M31.275,0H10.484a3.159,3.159,0,0,0-3.15,3.15V43.484a3.16,3.16,0,0,0,3.15,3.151H31.275a3.158,3.158,0,0,0,3.15-3.15V3.15A3.159,3.159,0,0,0,31.275,0ZM17.554,2.27h6.652a.382.382,0,0,1,0,.763H17.554a.382.382,0,0,1,0-.763Zm3.326,42.79a1.576,1.576,0,1,1,1.575-1.576A1.576,1.576,0,0,1,20.88,45.061Zm11.354-4.255H9.526V5H32.233ZM20.88,30.232a11.212,11.212,0,0,1-7.981-3.3.791.791,0,0,1,1.119-1.118,9.7,9.7,0,0,0,13.724,0,.791.791,0,0,1,1.119,1.118A11.207,11.207,0,0,1,20.88,30.232ZM19.1,17.338a1.917,1.917,0,1,1-1.917-1.916A1.918,1.918,0,0,1,19.1,17.338Zm7.394,0a1.916,1.916,0,1,1-1.916-1.916A1.917,1.917,0,0,1,26.493,17.338Z" fill="#cb2023"/>
    <path id="Path_835" data-name="Path 835" d="M20.88,30.232a11.212,11.212,0,0,1-7.981-3.3.791.791,0,0,1,1.119-1.118,9.7,9.7,0,0,0,13.724,0,.791.791,0,0,1,1.119,1.118A11.207,11.207,0,0,1,20.88,30.232ZM19.1,17.338a1.917,1.917,0,1,1-1.917-1.916A1.918,1.918,0,0,1,19.1,17.338Zm7.394,0a1.916,1.916,0,1,1-1.916-1.916A1.917,1.917,0,0,1,26.493,17.338Z" fill="#282625"/>
  </g>
</svg>
