<svg width="43" height="43" viewBox="0 0 43 43" fill="none" xmlns="http://www.w3.org/2000/svg">
<g clip-path="url(#clip0)">
<path d="M21.4999 34.0852C22.4275 34.0852 23.1795 33.3333 23.1795 32.4057C23.1795 31.478 22.4275 30.7261 21.4999 30.7261C20.5723 30.7261 19.8203 31.478 19.8203 32.4057C19.8203 33.3333 20.5723 34.0852 21.4999 34.0852Z" fill="#CC1237"/>
<path d="M26.1855 9.78223H16.8141C16.2887 9.78223 15.8613 10.1897 15.8613 10.6897V28.4045C15.8613 28.9049 16.2885 29.312 16.8141 29.312H26.1855C26.7108 29.312 27.1382 28.9045 27.1382 28.4045V10.6897C27.1379 10.1893 26.7108 9.78223 26.1855 9.78223Z" fill="#CC1237"/>
<path d="M18 18.5L20.5 21L24.5 17" stroke="white" stroke-width="2"/>
<path d="M21.5003 0C9.62667 0 0.000976562 9.62641 0.000976562 21.4996C0.000976562 33.3727 9.62667 43 21.5003 43C33.3738 43 43.0007 33.3733 43.0007 21.4996C43.0007 9.62584 33.3738 0 21.5003 0ZM29.8649 32.1097C29.8649 33.752 28.5333 35.0837 26.8909 35.0837H16.1102C14.4679 35.0837 13.1362 33.7521 13.1362 32.1097V10.7963C13.1362 9.15398 14.4678 7.82227 16.1102 7.82227H26.8909C28.5332 7.82227 29.8649 9.15384 29.8649 10.7963V32.1097Z" fill="#CC1237"/>
</g>
<defs>
<clipPath id="clip0">
<rect width="43" height="43" fill="white"/>
</clipPath>
</defs>
</svg>
