<svg width="53" height="53" viewBox="0 0 53 53" fill="none" xmlns="http://www.w3.org/2000/svg">
<g clip-path="url(#clip0)">
<path d="M15.1731 20.7514C15.1841 20.5812 15.127 20.4135 15.0144 20.2854L9.91879 14.4882C9.8062 14.3601 9.64729 14.282 9.47695 14.271C9.30591 14.2601 9.13903 14.3172 9.01095 14.4298C6.66951 16.4879 4.726 18.9152 3.23412 21.6441C3.15237 21.7938 3.13323 21.9699 3.1812 22.1335C3.22918 22.2972 3.3402 22.4351 3.48994 22.5169L10.2626 26.2189C10.3605 26.2725 10.4663 26.2979 10.5706 26.2979C10.7981 26.2979 11.0187 26.1768 11.1355 25.9631C12.1216 24.1593 13.407 22.5545 14.9559 21.1931C15.0842 21.0807 15.1623 20.9218 15.1731 20.7514Z" fill="#CB2023"/>
<path d="M17.4466 18.6045C17.5621 18.8223 17.785 18.9464 18.0154 18.9464C18.1171 18.9464 18.2202 18.9222 18.3162 18.8713C20.1315 17.9085 22.0844 17.2803 24.1206 17.0041C24.4726 16.9564 24.7193 16.6323 24.6716 16.2803L23.6342 8.63198C23.5865 8.28004 23.2615 8.03366 22.9104 8.08103C19.818 8.50044 16.8527 9.45426 14.0968 10.916C13.783 11.0825 13.6636 11.4716 13.8299 11.7856L17.4466 18.6045Z" fill="#CB2023"/>
<path d="M9.16112 28.9547L1.71193 26.9336C1.54731 26.8891 1.37168 26.9115 1.22368 26.9964C1.07567 27.0813 0.96751 27.2214 0.922737 27.386C0.310552 29.6432 0 31.9827 0 34.3394C0 34.7427 0.00961274 35.1473 0.0296176 35.5764C0.0456389 35.9212 0.329951 36.1898 0.67168 36.1898C0.681725 36.1898 0.691944 36.1897 0.70199 36.1891L8.41219 35.8329C8.58254 35.8252 8.74301 35.7498 8.85775 35.6238C8.97267 35.4978 9.03286 35.3311 9.02489 35.1607C9.01147 34.8714 9.00498 34.6027 9.00498 34.3394C9.00498 32.7789 9.20979 31.2328 9.6137 29.7438C9.70645 29.4011 9.50389 29.0478 9.16112 28.9547Z" fill="#CB2023"/>
<path d="M37.9948 10.4567C35.188 9.10352 32.1891 8.26496 29.0814 7.96376C28.9106 7.94662 28.7421 7.9991 28.6104 8.10744C28.4786 8.21586 28.3955 8.37209 28.3791 8.542L27.6349 16.2246C27.6006 16.5781 27.8595 16.8925 28.2131 16.9267C30.2614 17.1251 32.2369 17.6775 34.0847 18.5682C34.1726 18.6106 34.2681 18.6321 34.364 18.6321C34.4355 18.6321 34.5072 18.6201 34.5762 18.5961C34.7371 18.5399 34.8693 18.4218 34.9433 18.2682L38.2948 11.3152C38.4492 10.9953 38.3149 10.6108 37.9948 10.4567Z" fill="#CB2023"/>
<path d="M49.3317 21.2465C49.3733 21.081 49.3476 20.9059 49.26 20.7594C47.6638 18.0891 45.6285 15.738 43.2111 13.7719C43.0786 13.6643 42.9097 13.6139 42.7393 13.631C42.5697 13.6486 42.4139 13.7327 42.3063 13.865L37.4361 19.853C37.3286 19.9854 37.2778 20.155 37.2954 20.3247C37.3128 20.4943 37.397 20.6501 37.5294 20.7579C39.1289 22.0585 40.4751 23.6135 41.5308 25.3797C41.6514 25.5811 41.8647 25.693 42.0836 25.693C42.1959 25.693 42.3096 25.6636 42.4129 25.6017L49.038 21.6416C49.1843 21.5541 49.29 21.412 49.3317 21.2465Z" fill="#CB2023"/>
<path d="M51.7914 26.4081C51.685 26.0691 51.324 25.8802 50.9853 25.9867L43.62 28.2944C43.281 28.4006 43.0924 28.7614 43.1985 29.1003C43.7271 30.7878 43.9952 32.5504 43.9952 34.3392C43.9952 34.6025 43.9886 34.8713 43.9753 35.1605C43.9673 35.3308 44.0274 35.4976 44.1424 35.6236C44.2573 35.7497 44.4176 35.8249 44.588 35.8327L52.2982 36.1889C52.3084 36.1893 52.3184 36.1896 52.3285 36.1896C52.67 36.1896 52.9544 35.9209 52.9705 35.5762C52.9904 35.1471 53.0001 34.7425 53.0001 34.3392C53 31.636 52.5935 28.9676 51.7914 26.4081Z" fill="#CB2023"/>
<path d="M26.4767 32.9739C26.3657 32.9739 26.2554 32.9775 26.1455 32.9834L15.6971 26.8187C15.4413 26.6676 15.1167 26.7054 14.9024 26.9109C14.688 27.1162 14.6365 27.4391 14.7763 27.7008L20.476 38.3835C20.455 38.5893 20.4438 38.797 20.4438 39.0066C20.4438 40.6181 21.0714 42.133 22.2108 43.2724C23.3503 44.4119 24.8653 45.0394 26.4768 45.0394C28.0882 45.0394 29.6031 44.4117 30.7426 43.2724C31.8821 42.133 32.5095 40.6181 32.5095 39.0066C32.5095 37.3951 31.882 35.8802 30.7426 34.7408C29.6031 33.6014 28.0881 32.9739 26.4767 32.9739Z" fill="#CB2023"/>
</g>
<defs>
<clipPath id="clip0">
<rect width="53" height="53" fill="white"/>
</clipPath>
</defs>
</svg>
