<svg xmlns="http://www.w3.org/2000/svg" viewBox="0 0 45.889 42.371">
  <defs>
    <style>
      .cls-1 {
        fill: #cb2023;
      }
    </style>
  </defs>
  <g id="statistics_1_" data-name="statistics (1)" transform="translate(-8.912)">
    <path id="Path_639" data-name="Path 639" class="cls-1" d="M9.972,15.908l11.6,4.782a1.714,1.714,0,0,0,2.127-.708l5.222-8.793,9.54-4.695.294,4.336a.309.309,0,0,0,.554.166L47.3.579a.342.342,0,0,0,.035-.363.341.341,0,0,0-.308-.193L33.895,0a.309.309,0,0,0-.29.2.313.313,0,0,0,.084.341l3.257,2.88-10,4.919A1.72,1.72,0,0,0,26.232,9L21.506,16.96,11.28,12.742a1.713,1.713,0,1,0-1.308,3.166Z"/>
    <path id="Path_641" data-name="Path 641" class="cls-1" d="M41.184,241.837a1.038,1.038,0,0,0-1.037,1.038v15.407a1.038,1.038,0,0,0,1.037,1.038h6.06a1.039,1.039,0,0,0,1.038-1.038V242.875a1.039,1.039,0,0,0-1.038-1.038Z" transform="translate(-28.02 -216.95)"/>
    <path id="Path_642" data-name="Path 642" class="cls-1" d="M375.761,72.979V105.87a1.038,1.038,0,0,0,1.037,1.038h6.061a1.038,1.038,0,0,0,1.037-1.038V72.979a1.038,1.038,0,0,0-1.037-1.038H376.8A1.038,1.038,0,0,0,375.761,72.979Z" transform="translate(-329.096 -64.538)"/>
    <path id="Path_643" data-name="Path 643" class="cls-1" d="M264.917,161.045a1.039,1.039,0,0,0-1.038,1.038V185.8a1.039,1.039,0,0,0,1.038,1.038h6.06a1.038,1.038,0,0,0,1.037-1.038V162.083a1.038,1.038,0,0,0-1.037-1.038Z" transform="translate(-228.728 -144.472)"/>
    <path id="Path_644" data-name="Path 644" class="cls-1" d="M153.05,286.386a1.038,1.038,0,0,0-1.038,1.038v10.823a1.039,1.039,0,0,0,1.038,1.038h6.058a1.039,1.039,0,0,0,1.039-1.038V287.424a1.038,1.038,0,0,0-1.039-1.038Z" transform="translate(-128.373 -256.914)"/>
  </g>
</svg>
