<svg xmlns="http://www.w3.org/2000/svg" viewBox="0 0 62.322 52.599">
  <defs>
    <style>
      .cls-1 {
        fill: #cb2023;
      }
    </style>
  </defs>
  <g id="stats" transform="translate(0 -38.022)">
    <g id="Group_228" data-name="Group 228" transform="translate(0 38.022)">
      <path id="Path_657" data-name="Path 657" class="cls-1" d="M40.562,298.458a5.235,5.235,0,0,1-1.637,1.113v8.658a2.328,2.328,0,0,0,2.327,2.327H46.5a2.328,2.328,0,0,0,2.327-2.327V290.555a2.7,2.7,0,0,0-.026-.332Z" transform="translate(-33.947 -257.97)"/>
      <path id="Path_658" data-name="Path 658" class="cls-1" d="M60.913,90.722h-.166l-10.6.5c-.55.026-1.087.051-1.394.716s.038,1.023.422,1.407c1.087,1.087,2.161,2.187,3.261,3.248l-1.2,1.2-9.783,9.783-.87.87-2.136,2.136L30.03,119l-.486-.486L19.48,108.446l-2.136-2.136-.575-.575a2.3,2.3,0,0,0-1.65-.678,2.355,2.355,0,0,0-1.65.678l-.575.575L.681,118.523a2.339,2.339,0,0,0,0,3.3l.575.575a2.3,2.3,0,0,0,1.65.678,2.355,2.355,0,0,0,1.65-.678l10.563-10.563.486.486,10.064,10.064,2.136,2.136.575.575a2.3,2.3,0,0,0,1.65.678,2.355,2.355,0,0,0,1.65-.678l.575-.575,10.064-10.064,2.136-2.136.87-.87,9.783-9.783,1.189-1.189,3.2,3.171a1.524,1.524,0,0,0,1.01.614,1.146,1.146,0,0,0,.524-.153,1.611,1.611,0,0,0,.806-1.535c.153-3.453.32-6.893.486-10.346C62.358,91.2,61.924,90.722,60.913,90.722Z" transform="translate(0 -83.983)"/>
      <path id="Path_659" data-name="Path 659" class="cls-1" d="M184.919,59.66a11.1,11.1,0,0,0,3.171.908c.857.141.882.179.9,1.061,0,.409.013.806.013,1.215a.721.721,0,0,0,.767.818c.6.013,1.189.013,1.79,0a.687.687,0,0,0,.742-.767c0-.55.026-1.1,0-1.662a.88.88,0,0,1,.755-1,6.112,6.112,0,0,0,3.12-1.995,5.63,5.63,0,0,0-1.816-8.555,28.689,28.689,0,0,0-3.133-1.419,6.668,6.668,0,0,1-1.714-.972,1.492,1.492,0,0,1,.371-2.66,3.271,3.271,0,0,1,1.061-.217,8.047,8.047,0,0,1,3.964.78c.627.307.831.2,1.049-.448.217-.691.409-1.381.614-2.084a.724.724,0,0,0-.473-.972,9.636,9.636,0,0,0-2.494-.742c-1.138-.179-1.138-.179-1.138-1.317-.013-1.611-.013-1.611-1.611-1.611h-.7c-.755.026-.882.153-.9.908-.013.345,0,.678,0,1.023,0,1.01-.013,1-.972,1.343a5.367,5.367,0,0,0-3.926,4.975,5.086,5.086,0,0,0,2.877,4.872,31.322,31.322,0,0,0,3.606,1.611,5.635,5.635,0,0,1,1.317.767,1.8,1.8,0,0,1-.435,3.159,4.466,4.466,0,0,1-2.315.307,10.157,10.157,0,0,1-3.53-1.061c-.652-.345-.844-.256-1.061.46-.192.614-.358,1.228-.524,1.841C184.05,59.071,184.126,59.276,184.919,59.66Z" transform="translate(-160.618 -38.022)"/>
      <path id="Path_660" data-name="Path 660" class="cls-1" d="M152.884,325.461l-2.136-2.136-4.6-4.6a2.318,2.318,0,0,0-.32,1.177v13.2a2.328,2.328,0,0,0,2.327,2.327H153.4a2.328,2.328,0,0,0,2.327-2.327V327.38a5.268,5.268,0,0,1-2.264-1.343Z" transform="translate(-127.177 -282.826)"/>
      <path id="Path_661" data-name="Path 661" class="cls-1" d="M254.746,322.322l-.575.575a5.206,5.206,0,0,1-1.445,1.023v6.036a2.328,2.328,0,0,0,2.327,2.327H260.3a2.328,2.328,0,0,0,2.327-2.327v-13.2a2.3,2.3,0,0,0-.678-1.637Z" transform="translate(-220.406 -279.686)"/>
      <path id="Path_662" data-name="Path 662" class="cls-1" d="M360.957,211.562l-.87.87-.563.563v19.259a2.328,2.328,0,0,0,2.327,2.327H367.1a2.328,2.328,0,0,0,2.327-2.327V203.429a2.484,2.484,0,0,0-.026-.307Z" transform="translate(-313.548 -182.009)"/>
    </g>
  </g>
</svg>
