<svg width="40" height="32" viewBox="0 0 40 32" fill="none" xmlns="http://www.w3.org/2000/svg">
<g id="support">
<path id="Shape" d="M37.0204 0H9.43123C7.77588 0 6.4516 1.31905 6.4516 2.88764V19.5005C6.4516 21.1047 7.81266 22.3881 9.43123 22.3881H28.4493L32.7532 26.5948C32.9372 26.7731 33.1579 26.88 33.4154 26.88C33.9304 26.88 34.3718 26.4879 34.3718 25.9531V22.3881H37.0204C38.6757 22.3881 40 21.0691 40 19.5005V2.88764C40 1.2834 38.6389 0 37.0204 0Z" fill="#CB2023"/>
<path id="Shape_2" d="M4.94458 19.8129V14.08H1.94188C0.879944 14.08 0.00110418 14.9453 0.00110418 15.9909V27.0242C-0.0355141 28.1419 0.843326 29.0073 1.94188 29.0073H3.66294V31.387C3.66294 31.7115 3.95588 32 4.28545 32C4.46854 32 4.61501 31.9278 4.72487 31.8197L7.54448 29.0433H19.9947C21.0566 29.0433 21.9355 28.178 21.9355 27.1323V24.3921H9.59511C7.03182 24.3921 4.94458 22.3369 4.94458 19.8129Z" fill="#3D3C3B"/>
</g>
</svg>
