<svg width="20" height="18" viewBox="0 0 20 18" fill="none" xmlns="http://www.w3.org/2000/svg">
<path fill-rule="evenodd" clip-rule="evenodd" d="M4.96166 10.0963L0.353259 8.3763C-0.114808 8.2009 -0.118874 7.5401 0.347859 7.3601L19.2609 0.0640366C19.6618 -0.0910301 20.0755 0.260237 19.9882 0.681303L16.5941 17.0074C16.5141 17.3928 16.0622 17.5676 15.7432 17.3358L11.11 13.972C10.8286 13.7677 10.4451 13.7786 10.1758 13.998L7.60699 16.0922C7.30879 16.336 6.85953 16.2002 6.74539 15.8328L4.96166 10.0963ZM15.4645 3.63357L6.45793 9.1807C6.11273 9.39377 5.95019 9.81064 6.06173 10.2009L7.03553 13.6226C7.10466 13.865 7.45659 13.8402 7.49013 13.5896L7.74333 11.7132C7.79106 11.36 7.95959 11.0345 8.22086 10.7913L15.6539 3.88197C15.7929 3.75304 15.6263 3.53417 15.4645 3.63357Z" fill="#CB2023"/>
</svg>
