<svg xmlns="http://www.w3.org/2000/svg" viewBox="0 0 59.119 47.893">
  <defs>
    <style>
      .cls-1 {
        fill: #fff;
      }

      .cls-2 {
        fill: #e6162d;
      }

      .cls-3 {
        fill: #f93;
      }
    </style>
  </defs>
  <g id="three__service-weibo" transform="translate(-1262 -2578.999)">
    <path id="Path_124" data-name="Path 124" class="cls-1" d="M9.91,59.11c0,6.884,8.96,12.466,20.021,12.466S49.948,65.994,49.948,59.11s-8.96-12.47-20.017-12.47S9.91,52.226,9.91,59.11" transform="translate(1256.439 2552.829)"/>
    <path id="Path_125" data-name="Path 125" class="cls-2" d="M24.835,53.031C15.05,53.992,6.6,49.573,5.967,43.145S12.755,30.728,22.54,29.763s18.235,3.453,18.867,9.877S34.619,52.083,24.835,53.031M44.408,31.7c-.834-.237-1.408-.417-.97-1.509.943-2.378,1.04-4.427,0-5.888-1.922-2.742-7.17-2.593-13.19-.075,0,0-1.891.829-1.408-.671.926-2.975.79-5.467-.654-6.906-3.264-3.269-11.948.123-19.394,7.564C3.238,29.789,0,35.7,0,40.811c0,9.776,12.536,15.721,24.8,15.721,16.081,0,26.765-9.341,26.765-16.757,0-4.48-3.773-7.02-7.165-8.078" transform="translate(1262 2570.359)"/>
    <path id="Path_126" data-name="Path 126" class="cls-3" d="M104.2,5.158A15.647,15.647,0,0,0,89.3.336h0a2.264,2.264,0,1,0,.948,4.428A11.127,11.127,0,0,1,103.16,19.076h0a2.265,2.265,0,1,0,4.309,1.4h0a15.629,15.629,0,0,0-3.273-15.3" transform="translate(1212.887 2579.01)"/>
    <path id="Path_127" data-name="Path 127" class="cls-3" d="M100.668,20.786a7.617,7.617,0,0,0-7.253-2.343,1.948,1.948,0,1,0,.812,3.809h0a3.721,3.721,0,0,1,4.326,4.791h0a1.948,1.948,0,1,0,3.686,1.2,7.617,7.617,0,0,0-1.571-7.459" transform="translate(1210.475 2568.749)"/>
    <path id="Path_128" data-name="Path 128" d="M42.078,65.67a1.413,1.413,0,0,1-1.681.623.987.987,0,0,1-.439-1.47,1.4,1.4,0,0,1,1.65-.619.987.987,0,0,1,.478,1.465m-3.12,4.006a3.708,3.708,0,0,1-4.5,1.474,2.58,2.58,0,0,1-1.009-3.914,3.721,3.721,0,0,1,4.388-1.483,2.606,2.606,0,0,1,1.093,3.923m3.58-10.689A10.651,10.651,0,0,0,30.574,64.2c-2.062,4.186-.07,8.828,4.633,10.351,4.875,1.571,10.618-.821,12.619-5.357,1.97-4.414-.491-8.96-5.309-10.206" transform="translate(1245.295 2546.08)"/>
  </g>
</svg>
