<?xml version="1.0" encoding="UTF-8"?>
<svg width="30px" height="52px" viewBox="0 0 30 52" version="1.1" xmlns="http://www.w3.org/2000/svg" xmlns:xlink="http://www.w3.org/1999/xlink">
    <!-- Generator: Sketch 52.2 (67145) - http://www.bohemiancoding.com/sketch -->
    <title>tourism</title>
    <desc>Created with Sketch.</desc>
    <defs>
        <path d="M26.6059354,11.5953013 L20.7164938,11.5953013 L20.7164938,4.54717696 C21.7358203,4.31981811 22.4153712,3.41038272 22.4153712,2.27358848 C22.4153712,1.02311482 21.3960448,0 20.1502014,0 L9.8436786,0 C8.59783518,0 7.57850875,1.02311482 7.57850875,2.27358848 C7.57850875,3.41038272 8.3713182,4.31981811 9.39064463,4.54717696 L9.39064463,11.7089807 L3.50120304,11.7089807 C1.57580867,11.7089807 0.103448276,13.3004926 0.103448276,15.1193634 L0.103448276,43.5392194 C0.103448276,45.4717696 1.57580867,46.9496021 3.50120304,46.9496021 L5.31333891,46.9496021 L5.31333891,48.3137552 C5.31333891,50.2463054 6.8989578,51.7241379 8.71109368,51.7241379 C10.636488,51.7241379 12.1088484,50.1325368 12.1088484,48.3137552 L12.1088484,46.9496021 L17.8850315,46.9496021 L17.8850315,48.3137552 C17.8850315,50.2463054 19.4706504,51.7241379 21.2827863,51.7241379 C23.2081807,51.7241379 24.6805411,50.1325368 24.6805411,48.3137552 L24.6805411,46.9496021 L26.4926769,46.9496021 C28.4180713,46.9496021 29.8904317,45.358001 29.8904317,43.5392194 L29.8904317,15.1193634 C30.0036902,13.1868132 28.5313298,11.5953013 26.6059354,11.5953013 Z M20.6032353,20.8033346 C22.0755957,20.8033346 23.321528,22.0538083 23.321528,23.5316408 C23.321528,25.0094733 22.0756846,26.2599469 20.6032353,26.2599469 C19.1309638,26.2599469 17.8850315,25.0095624 17.8850315,23.5316408 C17.771773,21.9401288 19.0176165,20.8033346 20.6032353,20.8033346 Z M12.6751409,4.54717696 L17.3187391,4.54717696 L17.3187391,11.5953013 L12.6751409,11.5953013 L12.6751409,4.54717696 Z M7.91828423,41.3793103 C5.99288987,41.3793103 4.40727098,39.7877984 4.40727098,37.8553374 C4.40727098,35.922698 5.99288987,34.3312752 7.91828423,34.3312752 C9.8436786,34.3312752 11.4292975,35.9227872 11.4292975,37.8553374 C11.4292975,39.7877984 9.8436786,41.3793103 7.91828423,41.3793103 Z M7.91828423,27.9650491 L5.08682193,19.4390923 L12.5618824,16.938145 L15.3933447,25.464191 L7.91828423,27.9650491 Z M23.8877316,38.3099659 C23.6612146,39.3330807 23.0949222,40.2425161 22.1888542,40.8109132 C21.2827863,41.3793103 20.2634599,41.6066692 19.2441334,41.3793103 C17.0922221,40.9245926 15.733209,38.878363 16.1861542,36.7185431 L17.2054806,31.7165593 L24.907058,33.4217507 L23.8877316,38.3099659 Z" id="path-1"></path>
    </defs>
    <g id="Design" stroke="none" stroke-width="1" fill="none" fill-rule="evenodd">
        <g id="Home" transform="translate(-1720.000000, -1444.000000)">
            <g id="tourism" transform="translate(1720.000000, 1444.000000)">
                <g id="Rectangle">
                    <mask id="mask-2" fill="white">
                        <use xlink:href="#path-1"></use>
                    </mask>
                    <use id="Mask" fill="#CB2023" fill-rule="nonzero" xlink:href="#path-1"></use>
                    <rect fill="#282625" mask="url(#mask-2)" x="5" y="-3" width="19" height="15"></rect>
                    <rect id="Rectangle-Copy" fill="#282625" mask="url(#mask-2)" x="5" y="47" width="20" height="5"></rect>
                </g>
            </g>
        </g>
    </g>
</svg>