<svg width="32" height="32" viewBox="0 0 32 32" fill="none" xmlns="http://www.w3.org/2000/svg">
<g clip-path="url(#clip0)">
<path d="M32 9.9082H0V28.552C0 30.4532 1.54675 31.9999 3.448 31.9999H28.552C30.4533 31.9999 32 30.4532 32 28.552V9.9082ZM22.9625 19.9498C22.9625 23.2351 20.2896 25.9081 17.0042 25.9082C17.0041 25.9082 17.0041 25.9082 17.0041 25.9082C15.6991 25.9081 14.4908 25.486 13.5083 24.7716L10.6379 27.6419C10.4548 27.8251 10.2149 27.9165 9.97494 27.9165C9.73506 27.9165 9.49506 27.8249 9.31213 27.6419C8.94594 27.2758 8.94606 26.6822 9.31213 26.3161L12.1825 23.4459C11.468 22.4633 11.0459 21.255 11.0459 19.95C11.0459 16.6646 13.7188 13.9916 17.0041 13.9916C20.2897 13.9916 22.9625 16.6644 22.9625 19.9498Z" fill="#CC1237"/>
<path d="M17.0041 24.0333C14.7527 24.0332 12.9209 22.2014 12.9209 19.9501C12.9209 17.6985 14.7527 15.8667 17.0041 15.8667C19.2557 15.8667 21.0875 17.6984 21.0875 19.9499C21.0875 22.2014 19.2558 24.0332 17.0041 24.0333Z" fill="#CC1237"/>
<path d="M28.552 0H3.448C1.54675 0 0 1.54675 0 3.448V8.03331H32V3.448C32 1.54675 30.4533 0 28.552 0V0ZM5.61669 4.67925C5.44225 4.85425 5.20106 4.95419 4.95419 4.95419C4.70725 4.95419 4.46544 4.85419 4.291 4.67925C4.11669 4.50487 4.01669 4.26362 4.01669 4.01669C4.01669 3.76975 4.11669 3.528 4.291 3.35363C4.46544 3.17925 4.70725 3.07919 4.95419 3.07919C5.20038 3.07919 5.44225 3.17925 5.61669 3.35363C5.79175 3.528 5.89169 3.76981 5.89169 4.01669C5.89169 4.26356 5.79175 4.50487 5.61669 4.67925ZM9.63356 4.67925C9.45925 4.85425 9.21731 4.95419 8.9705 4.95419C8.72431 4.95419 8.48231 4.85419 8.308 4.67925C8.13356 4.50487 8.03356 4.26362 8.03356 4.01669C8.03356 3.76975 8.13356 3.528 8.308 3.35363C8.48231 3.17925 8.72425 3.07919 8.9705 3.07919C9.21731 3.07919 9.45925 3.17925 9.63356 3.35363C9.808 3.528 9.90856 3.76981 9.90856 4.01669C9.90856 4.26356 9.808 4.50487 9.63356 4.67925ZM13.6504 4.67925C13.4761 4.85425 13.2341 4.95419 12.9873 4.95419C12.7405 4.95419 12.4991 4.85419 12.3243 4.67925C12.1498 4.50487 12.0498 4.26362 12.0498 4.01669C12.0498 3.76975 12.1498 3.528 12.3243 3.35363C12.4992 3.17925 12.7405 3.07919 12.9873 3.07919C13.2341 3.07919 13.4761 3.17925 13.6504 3.35363C13.8248 3.528 13.9248 3.76981 13.9248 4.01669C13.9248 4.26356 13.8248 4.50487 13.6504 4.67925ZM27.0457 4.95412H17.0041C16.4863 4.95412 16.0666 4.53438 16.0666 4.01662C16.0666 3.49887 16.4863 3.07912 17.0041 3.07912H27.0457C27.5636 3.07912 27.9832 3.49887 27.9832 4.01662C27.9832 4.53438 27.5636 4.95412 27.0457 4.95412Z" fill="#CC1237"/>
</g>
<defs>
<clipPath id="clip0">
<rect width="32" height="32" fill="white"/>
</clipPath>
</defs>
</svg>
