<svg width="60" height="51" viewBox="0 0 60 51" fill="none" xmlns="http://www.w3.org/2000/svg">
<path fill-rule="evenodd" clip-rule="evenodd" d="M42.82 13.4984C40.0275 5.46958 31.61 0.0785446 21.875 0.0785446C9.81246 0.0785446 0 8.52938 0 18.9197C0.101484 24.6762 2.9782 30.0249 7.71504 33.264L5.13258 38.4541C4.81793 39.0717 5.06098 39.8285 5.67551 40.1447C6.05754 40.3412 6.51328 40.3271 6.88254 40.1071L13.4975 36.3063C15.2921 36.9432 17.1534 37.3714 19.0451 37.5824C19.7309 37.6618 20.3509 37.1675 20.43 36.4784C20.4465 36.3344 20.4381 36.1886 20.4052 36.0475C20.1444 34.9631 20.0086 33.8522 20.0002 32.7366C20.0002 23.0422 29.5327 15.1516 41.2501 15.1516L41.6176 15.1691C42.0239 15.1651 42.4056 14.9733 42.6526 14.6491C42.8923 14.3161 42.9548 13.8864 42.82 13.4984Z" fill="white"/>
<path fill-rule="evenodd" clip-rule="evenodd" d="M13.7499 7.61499C11.6789 7.61499 9.99994 9.30209 9.99994 11.3832C9.99994 13.4643 11.6789 15.1514 13.7499 15.1514C15.821 15.1514 17.4999 13.4643 17.4999 11.3832C17.4999 9.30209 15.821 7.61499 13.7499 7.61499Z" fill="#3D3C3B"/>
<path fill-rule="evenodd" clip-rule="evenodd" d="M28.7499 7.61499C26.6789 7.61499 24.9999 9.30209 24.9999 11.3832C24.9999 13.4643 26.6789 15.1514 28.7499 15.1514C30.821 15.1514 32.4999 13.4643 32.4999 11.3832C32.4999 9.30209 30.821 7.61499 28.7499 7.61499Z" fill="#3D3C3B"/>
<path fill-rule="evenodd" clip-rule="evenodd" d="M60 32.7364C60 24.4237 51.59 17.6636 41.25 17.6636C30.91 17.6636 22.5 24.4237 22.5 32.7364C22.5 41.0492 30.91 47.8093 41.25 47.8093C43.1897 47.8086 45.1216 47.5622 47 47.0758L53.1975 50.1884C53.8148 50.4989 54.5658 50.2479 54.8748 49.6275C55.0349 49.3063 55.0504 48.9316 54.9175 48.5982L53.22 44.3275C57.2769 41.8563 59.8248 37.5003 60 32.7364Z" fill="#CC6A6C"/>
<path fill-rule="evenodd" clip-rule="evenodd" d="M35 25.2C33.6193 25.2 32.5001 26.3247 32.5001 27.7121C32.5001 29.0995 33.6193 30.2242 35 30.2242C36.3807 30.2242 37.5 29.0995 37.5 27.7121C37.5 26.3247 36.3807 25.2 35 25.2Z" fill="#3D3C3B"/>
<path fill-rule="evenodd" clip-rule="evenodd" d="M47.5 25.2C46.1193 25.2 45 26.3247 45 27.7121C45 29.0995 46.1193 30.2242 47.5 30.2242C48.8807 30.2242 49.9999 29.0995 49.9999 27.7121C50 26.3247 48.8807 25.2 47.5 25.2Z" fill="#3D3C3B"/>
</svg>
