<svg width="68" height="68" viewBox="0 0 68 68" fill="none" xmlns="http://www.w3.org/2000/svg">
<path d="M57.845 52.718H15.136C13.956 52.718 13 53.674 13 54.855C13 56.034 13.956 56.99 15.136 56.99H57.844C59.024 56.99 59.98 56.034 59.98 54.855C59.979 53.674 59.023 52.718 57.845 52.718Z" fill="#2D2D2D"/>
<path d="M17.8049 47.165C16.6249 47.165 15.6689 48.121 15.6689 49.301C15.6689 50.481 16.6249 51.438 17.8049 51.438H55.1749C56.3549 51.438 57.3109 50.481 57.3109 49.301C57.3109 48.121 56.3549 47.165 55.1749 47.165H54.6419V27.945H55.1749C55.7659 27.945 56.2419 27.467 56.2419 26.878C56.2419 26.289 55.7639 25.811 55.1749 25.811H17.8049C17.2149 25.811 16.7379 26.289 16.7379 26.878C16.7379 27.467 17.2159 27.945 17.8049 27.945H18.3389V47.164H17.8049V47.165ZM50.3699 27.945V47.164H43.9639V27.945H50.3699ZM39.6919 27.945V47.164H33.2859V27.945H39.6919ZM22.6089 27.945H29.0149V47.164H22.6089V27.945Z" fill="#2D2D2D"/>
<path d="M15.136 23.891H57.844C57.851 23.891 57.859 23.891 57.865 23.891C59.046 23.891 60.001 22.935 60.001 21.755C60.001 20.817 59.397 20.022 58.558 19.734L37.368 10.199C36.811 9.94897 36.174 9.94897 35.616 10.199L14.26 19.808C13.341 20.222 12.836 21.22 13.048 22.204C13.259 23.188 14.129 23.891 15.136 23.891Z" fill="#2D2D2D"/>
<line x1="2.23223" y1="66.2322" x2="66.2322" y2="2.23224" stroke="#CC1237" stroke-width="5"/>
</svg>
