<?xml version="1.0" encoding="UTF-8"?>
<svg width="257px" height="266px" viewBox="0 0 257 266" version="1.1" xmlns="http://www.w3.org/2000/svg" xmlns:xlink="http://www.w3.org/1999/xlink">
    <!-- Generator: Sketch 52.2 (67145) - http://www.bohemiancoding.com/sketch -->
    <title>wechat-platform</title>
    <desc>Created with Sketch.</desc>
    <g id="Design" stroke="none" stroke-width="1" fill="none" fill-rule="evenodd">
        <g id="wechat" transform="translate(-1289.000000, -1179.000000)">
            <g id="wechat-platform" transform="translate(1289.000000, 1179.000000)">
                <g id="wechat-copy" transform="translate(101.000000, 123.000000)">
                    <path d="M42.9298834,13.351689 C40.1302539,5.36366221 31.6911847,0 21.9311941,0 C9.83765035,0 0,8.40792509 0,18.7454611 C0.101744894,24.4727852 2.98584842,29.7942702 7.73484421,33.0169664 L5.14575388,38.1807551 C4.83029772,38.7951376 5.07396851,39.5481193 5.69007732,39.8626916 C6.07308927,40.0582302 6.53000139,40.0441711 6.90020712,39.8253178 L13.5321884,36.0437726 C15.3314047,36.6774863 17.1974718,37.1034769 19.0939684,37.3134261 C19.7815101,37.3923913 20.4031409,36.9006744 20.4824455,36.2150592 C20.4990114,36.0717736 20.4905522,35.9267306 20.457538,35.7863739 C20.1961265,34.7074555 20.0599575,33.6021763 20.0514983,32.4922106 C20.0514983,22.8470851 29.6084691,14.996486 41.3560097,14.996486 L41.7244531,15.0139427 C42.1317851,15.0099593 42.5144446,14.8191071 42.76211,14.496568 C43.0023737,14.165242 43.0651124,13.7377283 42.9298834,13.351689 Z" id="Path" fill="#282625"></path>
                    <g id="Group" transform="translate(10.000000, 7.000000)" fill="#FAFAFA">
                        <path d="M3.85315544,0.0820923077 C1.74704663,0.0820923077 0.0396839378,1.84541538 0.0396839378,4.02055385 C0.0396839378,6.19569231 1.74704663,7.95901538 3.85315544,7.95901538 C5.95926425,7.95901538 7.66662694,6.19569231 7.66662694,4.02055385 C7.66662694,1.84541538 5.95926425,0.0820923077 3.85315544,0.0820923077 Z" id="Path"></path>
                        <path d="M19.1070415,0.0820923077 C17.0009326,0.0820923077 15.2935699,1.84541538 15.2935699,4.02055385 C15.2935699,6.19569231 17.0009326,7.95901538 19.1070415,7.95901538 C21.2131503,7.95901538 22.920513,6.19569231 22.920513,4.02055385 C22.920513,1.84541538 21.2131503,0.0820923077 19.1070415,0.0820923077 Z" id="Path"></path>
                    </g>
                    <path d="M60,32.230743 C60,23.8309882 51.4779063,17 41,17 C30.5220937,17 22,23.8309882 22,32.230743 C22,40.6304978 30.5220937,47.461486 41,47.461486 C42.96555,47.4607721 44.9232625,47.2117257 46.8267063,46.7202962 L53.1068,49.8654446 C53.732375,50.1792217 54.493325,49.9255347 54.8064688,49.2986944 C54.9686812,48.9740892 54.9843562,48.5954625 54.8496937,48.2586013 L53.1296,43.9431844 C57.2406062,41.4460565 59.8224687,37.0444907 60,32.230743 Z" id="Path" fill="#282625"></path>
                    <g id="Group" transform="translate(33.000000, 25.000000)" fill="#FAFAFA">
                        <path d="M2.45559333,0 C1.1203,0 0.0378533333,1.1105814 0.0378533333,2.4805814 C0.0378533333,3.8505814 1.1203,4.96116279 2.45559333,4.96116279 C3.79088667,4.96116279 4.87333333,3.8505814 4.87333333,2.4805814 C4.87333333,1.1105814 3.79088667,0 2.45559333,0 Z" id="Path"></path>
                        <path d="M14.5444067,0 C13.2091133,0 12.1266667,1.1105814 12.1266667,2.4805814 C12.1266667,3.8505814 13.2091133,4.96116279 14.5444067,4.96116279 C15.8797,4.96116279 16.9621467,3.8505814 16.9621467,2.4805814 C16.96226,1.1105814 15.8797,0 14.5444067,0 Z" id="Path"></path>
                    </g>
                </g>
                <circle id="Oval" stroke="#000000" cx="133" cy="147" r="118"></circle>
                <circle id="Oval" fill="#FFFFFF" cx="35" cy="215" r="35"></circle>
                <circle id="Oval-Copy" fill="#FFFFFF" cx="222" cy="215" r="35"></circle>
                <circle id="Oval-Copy-2" fill="#FFFFFF" cx="133" cy="35" r="35"></circle>
                <g id="internet" transform="translate(17.000000, 195.000000)" fill="#CB2023">
                    <g id="wallet-filled-money-tool">
                        <path d="M9.34231201,7.34276094 L25.2794613,2.99259259 L24.4354658,1.28664422 C23.8832772,0.177777778 22.5364759,-0.28013468 21.4276094,0.272053872 L7.16049383,7.34276094 L9.34231201,7.34276094 Z" id="Path"></path>
                        <path d="M30.2267116,3.11829405 C30.0292256,3.11829405 29.8316498,3.14523008 29.634119,3.19910213 L25.8900561,4.22267116 L14.4556678,7.34276094 L27.4343434,7.34276094 L33.0909091,7.34276094 L32.3905724,4.77485971 C32.1212121,3.77373737 31.2143659,3.11829405 30.2267116,3.11829405 Z" id="Path"></path>
                        <path d="M35.4298541,8.91402918 L34.9180696,8.91402918 L34.2222222,8.91402918 L33.5263749,8.91402918 L28.2154882,8.91402918 L8.7003367,8.91402918 L6.14141414,8.91402918 L3.98653199,8.91402918 L3.58698092,8.91402918 L2.24915825,8.91402918 C1.53984287,8.91402918 0.90684624,9.24175084 0.49382716,9.75802469 C0.305274972,9.9959596 0.161616162,10.2698092 0.0808080808,10.5705948 C0.0314253648,10.759147 0,10.9566779 0,11.1586981 L0,11.4280584 L0,13.9869809 L0,36.1687991 C0,37.4079012 1.00561167,38.413468 2.24466891,38.413468 L35.4253648,38.413468 C36.6644669,38.413468 37.6700337,37.4079012 37.6700337,36.1687991 L37.6700337,29.9061728 L24.3501684,29.9061728 C22.2446689,29.9061728 20.5342312,28.1957351 20.5342312,26.0902357 L20.5342312,24.034119 L20.5342312,23.3382716 L20.5342312,22.6424242 L20.5342312,21.098092 C20.5342312,20.0655443 20.9472054,19.1273176 21.6161616,18.4404489 C22.2087542,17.8298541 23.003367,17.416835 23.8922559,17.3135802 C24.040404,17.2956678 24.1930415,17.2866442 24.345679,17.2866442 L35.8024691,17.2866442 L36.4983165,17.2866442 L37.1941639,17.2866442 L37.6700337,17.2866442 L37.6700337,11.1586981 C37.674523,9.91964085 36.6689113,8.91402918 35.4298541,8.91402918 Z" id="Path"></path>
                        <path d="M39.2457912,19.4325477 C39.0213244,19.2260382 38.7564534,19.0689113 38.4601571,18.9656566 C38.231156,18.8893827 37.9887767,18.8444893 37.7328844,18.8444893 L37.674523,18.8444893 L37.6296296,18.8444893 L36.9337823,18.8444893 L34.4242424,18.8444893 L24.3501684,18.8444893 C23.1110662,18.8444893 22.1054994,19.8500561 22.1054994,21.0891582 L22.1054994,22.2069585 L22.1054994,22.9028058 L22.1054994,23.5986532 L22.1054994,26.0857464 C22.1054994,27.3248036 23.1110662,28.3304153 24.3501684,28.3304153 L37.674523,28.3304153 L37.7328844,28.3304153 C37.9887767,28.3304153 38.2312009,28.2855219 38.4601571,28.2092031 C38.7564534,28.1104377 39.0213244,27.9488215 39.2457912,27.742312 C39.694725,27.3337823 39.9775533,26.7411897 39.9775533,26.0857912 L39.9775533,21.0891582 C39.9775533,20.43367 39.694725,19.8410325 39.2457912,19.4325477 Z M29.037037,24.034119 C29.037037,24.6536476 28.5342312,25.1564534 27.9147026,25.1564534 L27.1694725,25.1564534 C26.5499439,25.1564534 26.047138,24.6536476 26.047138,24.034119 L26.047138,23.2888889 C26.047138,22.9297419 26.2132435,22.610954 26.4781145,22.4089338 C26.671156,22.2607856 26.9091358,22.1665544 27.1694725,22.1665544 L27.3580247,22.1665544 L27.9147026,22.1665544 C28.5342312,22.1665544 29.037037,22.6693154 29.037037,23.2888889 L29.037037,24.034119 Z" id="Shape" fill-rule="nonzero"></path>
                    </g>
                </g>
                <g id="cart-of-ecommerce" transform="translate(202.000000, 197.000000)" fill="#CB2023" fill-rule="nonzero">
                    <path d="M40.431597,24.1606991 L45.8696152,7.99967634 C46.1424961,7.22276166 45.9359509,6.75571469 45.715837,6.44734393 C45.1519837,5.6584537 43.992617,5.65096897 43.7679802,5.65096897 L13.0349611,5.64498119 L12.2148109,1.78136505 C11.9931894,0.86972529 11.3388784,0 10.019703,0 L1.38249588,0 C0.486964197,0 0,0.416150827 0,1.24695554 L0,3.47740422 C0,4.28126391 0.485456568,4.49083627 1.41415609,4.49083627 L8.70655802,4.49083627 L14.2878009,28.0183275 C13.401315,28.9509245 12.9188737,30.3101509 12.9188737,31.5780637 C12.9188737,34.3683699 15.1561953,36.9401222 18.01466,36.9401222 C20.7133161,36.9401222 22.7365544,34.4297447 23.0652175,32.9327993 L33.9352233,32.9327993 C34.2638864,34.4297447 35.9026792,37 38.9842731,37 C41.7929861,37 44.0770442,34.5839301 44.0770442,31.7981147 C44.0770442,29.0272687 42.3809615,26.5707812 39.0129181,26.5707812 C37.6123306,26.5707812 35.9509234,27.319254 35.1790173,28.441963 L21.8229311,28.441963 C20.8535256,26.9450176 19.5298273,26.4809645 18.1910526,26.4285714 L18.0056143,25.4480722 L38.3269468,25.4480722 C39.858698,25.4480722 40.1602238,24.8942024 40.431597,24.1606991 Z M39.0219638,29.8356192 C40.0788118,29.8356192 40.9366528,30.6873812 40.9366528,31.7367399 C40.9366528,32.7860986 40.0788118,33.6378606 39.0219638,33.6378606 C37.9651158,33.6378606 37.1057673,32.7875956 37.1057673,31.7367399 C37.1072749,30.6873812 37.9651158,29.8356192 39.0219638,29.8356192 Z M19.9082422,31.7367399 C19.9082422,32.7980742 19.0398478,33.6618117 17.9739541,33.6618117 C16.905045,33.6588178 16.035143,32.7980742 16.035143,31.7367399 C16.035143,30.6754056 16.905045,29.8116681 17.9739541,29.8116681 C19.0398478,29.8116681 19.9082422,30.6754056 19.9082422,31.7367399 Z" id="Shape"></path>
                </g>
                <g id="mobile" transform="translate(116.000000, 4.000000)" fill="#CB2023" fill-rule="nonzero">
                    <path d="M29.3208824,8.97362745 C29.6748039,8.97362745 29.9616667,9.26058824 29.9615686,9.61431373 L29.9615686,40.6593137 C29.9615686,41.0131373 29.6748039,41.3 29.3208824,41.3 L0.679019608,41.3 C0.325196078,41.3 0.0383333333,41.0132353 0.0383333333,40.6593137 L0.0383333333,9.61431373 C0.0383333333,9.2604902 0.325098039,8.97362745 0.679019608,8.97362745 L29.3208824,8.97362745 Z M12.179902,13.4789216 C11.8234314,13.4789216 11.38,13.7007843 11.38,13.97 C11.38,14.0096078 11.3878431,14.0492157 11.3957843,14.0730392 L12.9721569,18.904902 C13.0592157,19.1820588 13.4236275,19.3167647 13.7880392,19.3167647 C14.1445098,19.3167647 14.5247059,19.1821569 14.5881373,18.904902 L15,17.027549 L15.4119608,18.904902 C15.4753922,19.1820588 15.8555882,19.3167647 16.2120588,19.3167647 C16.5764706,19.3167647 16.9328431,19.1821569 17.0279412,18.904902 L18.6043137,14.0730392 C18.6121569,14.0492157 18.620098,14.0096078 18.620098,13.97 C18.620098,13.7007843 18.1764706,13.4789216 17.82,13.4789216 C17.629902,13.4789216 17.4713725,13.5422549 17.4239216,13.7086275 L16.2198039,17.7722549 L15.5940196,15.094902 C15.5465686,14.8809804 15.2691176,14.770098 14.999902,14.770098 C14.7306863,14.770098 14.4533333,14.8809804 14.4058824,15.094902 L13.780098,17.7722549 L12.5759804,13.7086275 C12.5284314,13.5423529 12.37,13.4789216 12.179902,13.4789216 Z M4.0922549,13.97 C4.0922549,14.0097059 4.10019608,14.0492157 4.10813725,14.0730392 L5.6845098,18.904902 C5.77156863,19.1820588 6.13598039,19.3167647 6.50039216,19.3167647 C6.85686275,19.3167647 7.23705882,19.1821569 7.3004902,18.904902 L7.71235294,17.027549 L8.12421569,18.904902 C8.18764706,19.1820588 8.56784314,19.3167647 8.92431373,19.3167647 C9.28872549,19.3167647 9.64509804,19.1821569 9.74019608,18.904902 L11.3167647,14.0730392 C11.3246078,14.0492157 11.332549,14.0096078 11.332549,13.97 C11.332549,13.7007843 10.8889216,13.4789216 10.532451,13.4789216 C10.3423529,13.4789216 10.1838235,13.5422549 10.1363725,13.7086275 L8.9322549,17.7722549 L8.30647059,15.094902 C8.25901961,14.8809804 7.98156863,14.770098 7.71235294,14.770098 C7.44313725,14.770098 7.16578431,14.8809804 7.11833333,15.094902 L6.49254902,17.7722549 L5.28843137,13.7086275 C5.24088235,13.5423529 5.08245098,13.4789216 4.89235294,13.4789216 C4.53588235,13.4789216 4.0922549,13.7007843 4.0922549,13.97 Z M23.8282353,29.8369608 C24.642549,29.8369608 25.3027451,29.1767647 25.3027451,28.362451 C25.3027451,27.5481373 24.642549,26.8879412 23.8282353,26.8879412 L14.0358824,26.8879412 C13.2215686,26.8879412 12.5613725,27.5481373 12.5613725,28.362451 C12.5613725,29.1767647 13.2215686,29.8369608 14.0358824,29.8369608 L23.8282353,29.8369608 Z M23.8282353,24.5604902 C24.642549,24.5604902 25.3027451,23.9002941 25.3027451,23.0859804 C25.3027451,22.2716667 24.642549,21.6114706 23.8282353,21.6114706 L6.17186275,21.6114706 C5.35754902,21.6114706 4.69735294,22.2716667 4.69735294,23.0859804 C4.69735294,23.9002941 5.35754902,24.5604902 6.17186275,24.5604902 L23.8282353,24.5604902 Z M25.8916667,14.0730392 C25.8997059,14.0492157 25.907549,14.0097059 25.9077451,13.97 C25.9077451,13.7007843 25.4641176,13.4789216 25.1076471,13.4789216 C24.917549,13.4789216 24.7590196,13.5422549 24.7115686,13.7086275 L23.507451,17.7722549 L22.8816667,15.094902 C22.8342157,14.8809804 22.5567647,14.770098 22.287549,14.770098 C22.0183333,14.770098 21.7409804,14.8809804 21.6935294,15.094902 L21.0677451,17.7722549 L19.8636275,13.7086275 C19.8160784,13.5423529 19.6576471,13.4789216 19.467549,13.4789216 C19.1110784,13.4789216 18.667451,13.7007843 18.667451,13.97 C18.667451,14.0096078 18.6752941,14.0492157 18.6832353,14.0730392 L20.2596078,18.904902 C20.3466667,19.1820588 20.7110784,19.3167647 21.0754902,19.3167647 C21.4319608,19.3167647 21.8121569,19.1821569 21.8755882,18.904902 L22.287451,17.027549 L22.6993137,18.904902 C22.7627451,19.1820588 23.1429412,19.3167647 23.4994118,19.3167647 C23.8638235,19.3167647 24.2201961,19.1821569 24.3152941,18.904902 L25.8916667,14.0730392 Z M29.3208824,44.2491176 C29.6748039,44.2491176 29.9616667,44.5359804 29.9617647,44.8898039 L29.9617647,46.2835294 C29.9617647,48.4444118 28.21,50.1960784 26.0492157,50.1960784 L3.95088235,50.1960784 C1.79,50.1960784 0.0383333333,48.4443137 0.0383333333,46.2835294 L0.0383333333,44.8898039 C0.0383333333,44.5359804 0.325098039,44.2491176 0.679019608,44.2491176 L29.3208824,44.2491176 Z M26.0492157,4.61852778e-14 C28.21,4.61852778e-14 29.9616667,1.75166667 29.9614706,3.91254902 L29.9614706,5.38392157 C29.9614706,5.7377451 29.6747059,6.02460784 29.3207843,6.02460784 L0.678921569,6.02460784 C0.325098039,6.02460784 0.0382352941,5.73784314 0.0382352941,5.38392157 L0.0382352941,3.91245098 C0.0382352941,1.75166667 1.78990196,4.61852778e-14 3.95068627,4.61852778e-14 L26.0492157,4.61852778e-14 Z" id="Combined-Shape"></path>
                </g>
            </g>
        </g>
    </g>
</svg>