<svg width="31" height="54" viewBox="0 0 31 54" fill="none" xmlns="http://www.w3.org/2000/svg">
<g clip-path="url(#clip0)">
<path d="M13.877 0H15.6233C15.6233 0.034965 15.6306 0.0979021 15.6306 0.132867C15.0509 0.0559441 14.4639 0.013986 13.877 0Z" fill="white"/>
<path d="M6.55762 8.7553C6.56486 8.58747 6.56486 8.41264 6.55762 8.24481C6.64457 8.26579 6.73153 8.30076 6.80399 8.34971C6.99965 8.48257 7.18805 8.61544 7.38371 8.74831" fill="white"/>
<path d="M9.86914 14.3287C9.97059 14.3357 10.072 14.3357 10.1735 14.3497C10.0793 14.4056 9.98508 14.4615 9.89088 14.5105C9.87639 14.4476 9.86914 14.3916 9.86914 14.3287Z" fill="white"/>
<path d="M4.92005 19.944C4.95629 19.916 4.99976 19.888 5.03599 19.8671C5.01425 19.9999 4.97078 20.1328 4.93455 20.2657C4.9273 20.1608 4.89832 20.0489 4.92005 19.944Z" fill="#EEEEEE"/>
<path d="M11.4639 0H13.0871C12.5871 0.013986 12.0871 0.048951 11.5871 0.104895C11.5508 0.0699301 11.5073 0.034965 11.4639 0Z" fill="#FCFFFD"/>
<path d="M7.64341 21.4628C7.5492 21.5117 7.455 21.5677 7.36804 21.6166C7.09993 21.7705 6.82457 21.9173 6.55645 22.0712C6.44051 22.1411 6.31732 22.204 6.20138 22.274C6.0492 22.3579 5.88978 22.4418 5.73761 22.5327C5.455 22.6866 5.17964 22.8544 4.89703 22.9943C4.69413 23.0362 4.46225 22.9593 4.36804 22.7705C4.28109 22.6166 4.33181 22.4418 4.38254 22.288C4.455 22.0222 4.52746 21.7635 4.59993 21.4977C4.67239 21.232 4.74486 20.9733 4.81732 20.7075C4.8608 20.5677 4.89703 20.4208 4.93326 20.274C4.96949 20.1411 5.01297 20.0152 5.03471 19.8754C5.05645 19.6936 5.01297 19.5117 4.92602 19.3509C4.85355 19.239 4.7666 19.1481 4.6579 19.0712C4.46225 18.9313 4.27384 18.7985 4.08544 18.6516C3.94051 18.5397 3.80283 18.4208 3.6579 18.3019C3.52747 18.1901 3.39703 18.0782 3.27384 17.9663C3.10718 17.8124 2.94776 17.6516 2.79558 17.4908C2.67239 17.3649 2.54921 17.232 2.43326 17.0991C2.32457 16.9733 2.21587 16.8404 2.11442 16.7145C1.94776 16.5047 1.78834 16.281 1.62892 16.0572C1.59993 16.0152 1.57095 15.9663 1.53471 15.9173C1.36805 15.6656 1.21587 15.3998 1.07095 15.1341C0.969496 14.9453 0.875293 14.7495 0.788337 14.5607C0.759351 14.4838 0.72312 14.4138 0.694134 14.3369C0.578192 14.0712 0.483989 13.7984 0.397033 13.5187C0.317323 13.26 0.252106 13.0082 0.194135 12.7425C0.136164 12.4768 0.0926853 12.204 0.0564535 11.9383C-0.0449957 11.1411 -0.030503 10.3369 0.0926853 9.53971C0.136164 9.28097 0.179642 9.02223 0.244859 8.77048C0.310077 8.50474 0.38254 8.23901 0.476743 7.98027C0.5637 7.70754 0.679641 7.44181 0.788337 7.18306L0.795583 7.16209C0.918772 6.89635 1.04921 6.63761 1.19413 6.37887C1.51297 5.81943 1.88254 5.28796 2.30283 4.79146C2.35355 4.73551 2.39703 4.67957 2.44776 4.62362C2.63616 4.41383 2.83181 4.20404 3.02747 4.00824C3.09993 3.93831 3.17239 3.86838 3.2521 3.79146C3.46225 3.59565 3.67964 3.40684 3.89703 3.22502C3.96225 3.16908 4.02747 3.12013 4.09268 3.07118C4.60718 2.67258 5.15065 2.30894 5.72312 1.98726C5.94775 1.86139 6.17239 1.74251 6.40428 1.62362C6.455 1.59565 6.51297 1.57467 6.5637 1.5467C6.83181 1.42083 7.10717 1.29495 7.38254 1.18306C7.91877 0.966282 8.46949 0.77747 9.02746 0.616631C9.32456 0.532715 9.62166 0.455792 9.91877 0.392855C10.1651 0.336911 10.4188 0.28796 10.6651 0.246002C10.9695 0.190058 11.2738 0.1481 11.5782 0.113135C12.0782 0.0571908 12.5782 0.0222258 13.0782 0.00823975H13.868C14.455 0.0222258 15.0347 0.0641838 15.6217 0.141107C15.897 0.176072 16.1724 0.21803 16.4405 0.266981C16.7159 0.315932 16.9912 0.371876 17.2593 0.434813C17.5347 0.49775 17.8101 0.56768 18.0854 0.651596C18.6506 0.812436 19.2014 1.01523 19.7448 1.23901C20.0202 1.3509 20.2883 1.48376 20.5564 1.60964L20.5782 1.61663C20.8463 1.75649 21.1217 1.89635 21.3825 2.0502C21.9622 2.38586 22.513 2.76348 23.0347 3.18306C23.0492 3.19006 23.0637 3.21104 23.0782 3.21803C23.339 3.43481 23.5927 3.6516 23.839 3.88936C23.8825 3.93132 23.9188 3.96628 23.9622 4.00824C24.1579 4.19705 24.339 4.39985 24.5202 4.60265C24.4115 4.6446 24.3028 4.69355 24.2014 4.74251C24.0782 4.79146 23.955 4.8474 23.8318 4.89635C23.5637 5.00824 23.2956 5.12712 23.0275 5.246C22.7883 5.3509 22.5492 5.4488 22.3101 5.55369C22.2738 5.56768 22.2376 5.58167 22.2086 5.59565C21.9333 5.71453 21.6579 5.83341 21.3825 5.9523C20.8318 6.19006 20.2811 6.42782 19.7304 6.66558C19.1869 6.89635 18.6362 7.13411 18.0927 7.37188C17.8173 7.49076 17.542 7.60964 17.2666 7.72852C17.0927 7.79845 16.926 7.87537 16.7521 7.9523C16.6434 7.99425 16.542 8.0432 16.4333 8.08516C16.1579 8.20404 15.8753 8.32292 15.5999 8.44181C15.3753 8.53971 15.1506 8.63761 14.926 8.73551C14.8825 8.75649 14.8318 8.77747 14.7883 8.79146C14.513 8.91034 14.2376 9.02922 13.9622 9.1481C13.4115 9.38586 12.8608 9.62362 12.3101 9.86139C11.8898 10.0432 11.4695 10.225 11.0492 10.4068C10.926 10.4628 10.7956 10.5117 10.6651 10.5397C10.3898 10.5817 10.1072 10.5537 9.85355 10.4418C9.79558 10.4138 9.73036 10.3789 9.67239 10.3439C9.46224 10.1971 9.24485 10.0502 9.03471 9.90334C8.8608 9.78446 8.68688 9.66558 8.51297 9.5467C8.41152 9.47677 8.30282 9.39985 8.20138 9.32992C7.93326 9.1481 7.66514 8.95929 7.40427 8.77747C7.39703 8.77747 7.38978 8.77048 7.38254 8.76348C7.18688 8.63062 6.99848 8.49775 6.80283 8.36488C6.73036 8.31593 6.64341 8.28097 6.55645 8.25999C6.26659 8.246 6.01297 8.51174 6.07819 8.79146C6.31007 9.31593 6.57094 9.83341 6.81007 10.3579C6.94051 10.6306 7.0637 10.9033 7.19413 11.1761C7.24485 11.281 7.29558 11.3929 7.3463 11.4977C7.41877 11.6516 7.49123 11.8054 7.5637 11.9593C7.68688 12.218 7.81007 12.4838 7.93326 12.7425C8.01297 12.9103 8.09268 13.0782 8.17239 13.246C8.21587 13.3439 8.26659 13.4418 8.31007 13.5397C8.455 13.8124 8.5492 14.1201 8.74485 14.3719C8.82456 14.4418 8.91152 14.5047 9.00572 14.5607C9.28109 14.6936 9.61442 14.6726 9.88253 14.5257C9.97674 14.4698 10.0709 14.4138 10.1651 14.3649C10.3391 14.274 10.513 14.1761 10.6869 14.0782C11.2376 13.7705 11.7883 13.4628 12.3391 13.1551C12.5782 13.0222 12.8101 12.8894 13.0492 12.7565C13.0854 12.7355 13.1289 12.7145 13.1651 12.6936C13.4405 12.5397 13.7159 12.3859 13.984 12.239C14.1434 12.1551 14.2956 12.0642 14.4477 11.9803C14.5709 11.9103 14.6869 11.8474 14.8101 11.7775C15.0854 11.6236 15.3535 11.4698 15.6289 11.3229C15.7159 11.274 15.7956 11.232 15.8753 11.1831C16.0709 11.0782 16.2593 10.9663 16.455 10.8614C17.0057 10.5537 17.5564 10.253 18.1072 9.9453C18.3173 9.82642 18.5275 9.71453 18.7376 9.59565C18.8028 9.56069 18.8608 9.52572 18.926 9.49076C19.2014 9.33691 19.4767 9.18306 19.7521 9.02922C19.897 8.9523 20.0347 8.86838 20.1796 8.79146C20.3101 8.72153 20.4405 8.6516 20.5709 8.57467C21.1289 8.26698 21.6796 7.9523 22.2376 7.6446C22.4985 7.49775 22.7593 7.35789 23.0202 7.21104C23.0419 7.19705 23.0637 7.19006 23.0854 7.17607C23.3535 7.02922 23.6289 6.87537 23.897 6.72153C24.0927 6.61663 24.2811 6.50474 24.4767 6.39985C24.5564 6.35789 24.6289 6.31593 24.7086 6.27397C24.9695 6.13411 25.2231 5.98027 25.4912 5.85439C25.5854 6.0432 25.7086 6.21104 25.8028 6.39985C25.9477 6.66558 26.0927 6.93831 26.2159 7.21104C26.2521 7.28796 26.2811 7.37188 26.3173 7.4488C26.397 7.63062 26.4622 7.81943 26.5275 8.00824C26.6144 8.25999 26.6869 8.51873 26.7521 8.77747C26.8173 9.0432 26.868 9.30894 26.9115 9.57467C26.9477 9.84041 26.9767 10.0991 26.9912 10.3649C27.0057 10.6306 27.013 10.8964 27.0057 11.1621C26.9985 11.4278 26.9767 11.6936 26.9477 11.9593C26.9188 12.225 26.868 12.4838 26.8173 12.7495C26.7593 13.0152 26.6941 13.274 26.6144 13.5327C26.4405 14.0852 26.2159 14.6236 25.9405 15.1411C25.6434 15.7005 25.2956 16.232 24.897 16.7285C24.8246 16.8194 24.7521 16.9033 24.6796 16.9873C24.5275 17.1621 24.3753 17.3369 24.2159 17.5047C24.0999 17.6236 23.9912 17.7355 23.8753 17.8474C23.7014 18.0082 23.5275 18.1691 23.3463 18.3229C23.2521 18.4068 23.1579 18.4838 23.0637 18.5607C22.8246 18.7495 22.5854 18.9313 22.3318 19.1061C22.2956 19.1341 22.2593 19.1551 22.2231 19.1831C21.955 19.3649 21.6796 19.5397 21.3898 19.7075C21.2811 19.7705 21.1651 19.8334 21.0564 19.8964C20.897 19.9803 20.7376 20.0642 20.5782 20.1481C20.3101 20.281 20.0347 20.4068 19.7521 20.5257C19.6217 20.5817 19.4912 20.6306 19.3608 20.6866C19.2159 20.7425 19.0637 20.7984 18.9115 20.8474C18.6434 20.9453 18.3753 21.0292 18.1072 21.1061C17.8246 21.1901 17.542 21.26 17.2521 21.3299C17.0057 21.3859 16.7593 21.4348 16.5202 21.4838C16.5057 21.4838 16.4767 21.4908 16.4622 21.4908C16.1869 21.5397 15.9115 21.5817 15.6362 21.6166C15.3608 21.6516 15.0854 21.6796 14.8101 21.7005C14.5347 21.7215 14.2593 21.7355 13.984 21.7425C13.7086 21.7495 13.4333 21.7495 13.1579 21.7425C12.8825 21.7355 12.6072 21.7215 12.3318 21.7075C12.0564 21.6866 11.7811 21.6656 11.5057 21.6306C11.2593 21.6026 11.013 21.5607 10.7666 21.5257C10.6796 21.5117 10.5927 21.4908 10.4985 21.4838C10.2883 21.4418 10.0709 21.3998 9.8608 21.3509C9.57819 21.288 9.30282 21.218 9.02746 21.1411C8.75935 21.0712 8.46224 21.0922 8.20138 21.1901" fill="#00C800"/>
<path d="M15.623 0H16.4564C16.4564 0.0839161 16.4564 0.174825 16.4491 0.258741C16.1738 0.20979 15.9057 0.167832 15.6303 0.132867C15.6303 0.0979021 15.623 0.034965 15.623 0Z" fill="#EEEEEF"/>
<path d="M19.7974 8.75527C19.9206 8.73429 20.051 8.75527 20.1814 8.76926C20.0365 8.84619 19.8988 8.9301 19.7539 9.00703C19.7684 8.9301 19.7249 8.81122 19.7974 8.75527Z" fill="#EDEFEF"/>
<path d="M15.6449 11.1539C15.7247 11.1609 15.8044 11.1609 15.8841 11.1609C15.8044 11.2098 15.7174 11.2518 15.6377 11.3007C15.6377 11.2518 15.6449 11.2028 15.6449 11.1539Z" fill="#D9EBD7"/>
<path d="M2.44235 17.0839C2.5583 17.2167 2.68148 17.3496 2.80467 17.4755C2.69598 17.4825 2.57279 17.5244 2.46409 17.4755C2.41337 17.3566 2.4496 17.2167 2.44235 17.0839Z" fill="#FFFDFF"/>
<path d="M6.19531 22.2657C6.31125 22.1958 6.43444 22.1329 6.55039 22.0629C6.54314 22.1329 6.54314 22.2028 6.53589 22.2727C6.4272 22.2727 6.31125 22.2727 6.19531 22.2657Z" fill="#F8FFFD"/>
</g>
<g clip-path="url(#clip1)">
<path fill-rule="evenodd" clip-rule="evenodd" d="M22.6963 35.6167C21.3469 31.6814 17.2782 29.0383 12.5729 29.0383C6.74247 29.0388 2 33.1814 2 38.2745C2.02317 39.6633 2.37377 41.0263 3.02249 42.2495C3.67121 43.4728 4.59921 44.5208 5.72892 45.3059L4.48095 47.85C4.40807 47.9953 4.39475 48.1639 4.44392 48.3191C4.49308 48.4743 4.60073 48.6034 4.7434 48.6785C4.92803 48.775 5.14795 48.7682 5.32678 48.6603L8.52403 46.7976C9.39111 47.1096 10.2907 47.3193 11.2051 47.4226C11.3017 47.4338 11.3996 47.4212 11.4904 47.3859C11.5812 47.3506 11.6623 47.2937 11.7268 47.2198C11.7913 47.146 11.8373 47.0575 11.8609 46.9618C11.8845 46.8661 11.885 46.7661 11.8624 46.6701C11.7364 46.1386 11.6707 45.5942 11.6667 45.0476C11.6667 40.2951 16.2743 36.4275 21.9375 36.4275L22.1154 36.4358C22.2124 36.4348 22.3079 36.4113 22.3946 36.3671C22.4813 36.3229 22.5569 36.2592 22.6156 36.1809C22.6727 36.1004 22.7098 36.0072 22.7239 35.9091C22.7379 35.8109 22.7285 35.7108 22.6963 35.6172V35.6167Z" fill="#4CAF50"/>
<path fill-rule="evenodd" clip-rule="evenodd" d="M8.64551 32.7327C8.16369 32.734 7.7021 32.9293 7.36222 33.2757C7.02234 33.6221 6.83199 34.0911 6.83301 34.5798C6.83199 35.0685 7.02234 35.5375 7.36222 35.8839C7.7021 36.2303 8.16369 36.4256 8.64551 36.4269C9.12733 36.4256 9.58892 36.2303 9.92881 35.8839C10.2687 35.5375 10.459 35.0685 10.458 34.5798C10.459 34.0911 10.2687 33.6221 9.92881 33.2757C9.58892 32.9293 9.12733 32.734 8.64551 32.7327ZM15.8955 32.7327C15.4137 32.734 14.9521 32.9293 14.6122 33.2757C14.2723 33.6221 14.082 34.0911 14.083 34.5798C14.082 35.0685 14.2723 35.5375 14.6122 35.8839C14.9521 36.2303 15.4137 36.4256 15.8955 36.4269C16.3773 36.4256 16.8389 36.2303 17.1788 35.8839C17.5187 35.5375 17.709 35.0685 17.708 34.5798C17.709 34.0911 17.5187 33.6221 17.1788 33.2757C16.8389 32.9293 16.3773 32.734 15.8955 32.7327Z" fill="#FAFAFA"/>
<path fill-rule="evenodd" clip-rule="evenodd" d="M31 45.047C31 40.9725 26.9352 37.6588 21.9375 37.6588C16.9398 37.6588 12.875 40.9725 12.875 45.047C12.875 49.122 16.9398 52.4357 21.9375 52.4357C22.8752 52.4357 23.809 52.3146 24.7167 52.0764L27.7119 53.6019C28.0106 53.7539 28.3736 53.6313 28.5229 53.3274C28.6002 53.1695 28.6075 52.9862 28.5432 52.8225L27.723 50.7293C28.6897 50.1306 29.495 49.2982 30.0669 48.3066C30.6388 47.315 30.9594 46.195 31 45.047Z" fill="#4CAF50"/>
<path fill-rule="evenodd" clip-rule="evenodd" d="M18.9163 41.3529C18.2493 41.3529 17.708 41.9044 17.708 42.5843C17.7076 42.7456 17.7386 42.9054 17.7991 43.0546C17.8596 43.2038 17.9485 43.3394 18.0607 43.4538C18.1729 43.5681 18.3062 43.6589 18.453 43.721C18.5999 43.7831 18.7573 43.8153 18.9163 43.8157C19.5833 43.8157 20.1247 43.2642 20.1247 42.5843C20.1251 42.423 20.0941 42.2631 20.0336 42.114C19.9731 41.9648 19.8842 41.8291 19.772 41.7148C19.6598 41.6004 19.5265 41.5096 19.3796 41.4475C19.2328 41.3854 19.0754 41.3533 18.9163 41.3529ZM24.958 41.3529C24.291 41.3529 23.7497 41.9044 23.7497 42.5843C23.7493 42.7456 23.7802 42.9054 23.8408 43.0546C23.9013 43.2038 23.9902 43.3394 24.1024 43.4538C24.2146 43.5681 24.3479 43.6589 24.4947 43.721C24.6415 43.7831 24.7989 43.8153 24.958 43.8157C25.625 43.8157 26.1663 43.2642 26.1663 42.5843C26.1667 42.423 26.1358 42.2631 26.0753 42.114C26.0147 41.9648 25.9258 41.8291 25.8136 41.7148C25.7014 41.6004 25.5681 41.5096 25.4213 41.4475C25.2745 41.3854 25.1171 41.3533 24.958 41.3529Z" fill="#FAFAFA"/>
</g>
<defs>
<clipPath id="clip0">
<rect width="27" height="23" fill="white"/>
</clipPath>
<clipPath id="clip1">
<rect width="29" height="25" fill="white" transform="translate(2 29)"/>
</clipPath>
</defs>
</svg>
